<svg id="svg" version="1.1" xmlns="http://www.w3.org/2000/svg" xmlns:xlink="http://www.w3.org/1999/xlink" width="400" height="400" viewBox="0, 0, 400,400"><g id="svgg"><path id="path0" d="M11.099 53.657 C 11.298 54.418,11.187 54.489,10.061 54.324 C 9.367 54.222,8.798 54.242,8.795 54.369 C 8.793 54.496,8.039 54.960,7.120 55.400 C 5.287 56.278,1.600 59.787,1.600 60.654 C 1.600 60.954,1.409 61.200,1.176 61.200 C 0.943 61.200,0.851 61.360,0.972 61.555 C 1.093 61.750,0.925 62.130,0.600 62.400 C -0.297 63.145,-0.297 244.055,0.600 244.800 C 0.925 245.070,1.093 245.450,0.972 245.645 C 0.851 245.840,0.943 246.000,1.176 246.000 C 1.409 246.000,1.600 246.246,1.600 246.546 C 1.600 247.413,5.287 250.922,7.120 251.800 C 8.039 252.240,8.793 252.704,8.795 252.831 C 8.798 252.958,9.338 252.982,9.996 252.886 C 10.892 252.754,11.269 252.897,11.496 253.455 C 11.971 254.620,368.275 254.625,368.644 253.460 C 368.820 252.906,369.169 252.763,370.040 252.891 C 370.678 252.985,371.200 252.933,371.200 252.775 C 371.200 252.618,371.813 252.374,372.561 252.234 C 373.310 252.093,374.024 251.713,374.149 251.389 C 374.273 251.065,374.580 250.800,374.830 250.800 C 375.373 250.800,377.378 249.168,377.532 248.600 C 377.592 248.380,378.082 247.448,378.621 246.529 C 379.159 245.610,379.600 244.485,379.600 244.029 C 379.600 243.515,379.859 243.200,380.280 243.200 C 380.809 243.200,380.853 243.093,380.480 242.720 C 379.587 241.827,379.805 64.953,380.700 64.432 C 381.325 64.068,381.304 64.023,380.500 64.012 C 379.879 64.004,379.600 63.759,379.600 63.221 C 379.600 61.409,376.158 56.400,374.913 56.400 C 374.617 56.400,374.273 56.135,374.149 55.811 C 374.024 55.487,373.310 55.107,372.561 54.966 C 371.813 54.826,371.200 54.589,371.200 54.440 C 371.200 54.291,370.705 54.176,370.100 54.184 C 369.293 54.196,369.015 54.014,369.056 53.500 C 369.108 52.834,360.334 52.800,189.994 52.803 L 10.876 52.805 11.099 53.657 M395.020 71.511 C 394.859 71.670,394.339 71.800,393.864 71.800 C 393.041 71.800,393.000 71.975,393.000 75.500 C 393.000 79.255,393.691 80.903,393.923 77.700 C 394.045 76.014,394.800 75.251,394.800 76.814 C 394.800 78.186,396.001 79.697,396.658 79.152 C 397.087 78.796,397.374 78.834,397.908 79.317 C 399.372 80.642,400.000 79.534,400.000 75.627 C 400.000 72.425,399.925 72.074,399.197 71.883 C 398.346 71.661,397.211 72.850,397.187 73.989 C 397.164 75.085,396.068 76.243,395.776 75.481 C 395.640 75.127,395.638 74.662,395.771 74.447 C 395.904 74.231,395.830 73.942,395.607 73.804 C 395.043 73.456,395.096 72.101,395.680 71.907 C 396.005 71.798,396.023 71.661,395.736 71.484 C 395.503 71.340,395.180 71.352,395.020 71.511 M388.500 71.900 C 386.150 72.030,386.000 72.097,386.000 73.019 C 386.000 73.914,386.527 74.233,387.700 74.047 C 387.865 74.021,388.003 75.035,388.006 76.300 C 388.009 77.565,388.189 78.870,388.406 79.200 C 389.062 80.199,389.587 78.918,389.594 76.300 C 389.600 74.001,389.601 74.000,390.827 74.000 C 391.921 74.000,392.039 73.885,391.927 72.931 C 391.781 71.704,391.823 71.717,388.500 71.900 M180.400 72.800 C 181.663 74.063,181.663 233.137,180.400 234.400 C 179.605 235.195,179.067 235.200,99.726 235.200 L 19.852 235.200 18.926 234.330 L 18.000 233.461 18.000 153.784 L 18.000 74.108 18.829 73.054 L 19.658 72.000 99.629 72.000 C 179.067 72.000,179.605 72.005,180.400 72.800 M361.111 72.623 L 362.000 73.245 362.000 153.423 C 362.000 233.067,361.995 233.605,361.200 234.400 C 360.405 235.195,359.867 235.200,280.429 235.200 L 200.458 235.200 199.629 234.146 L 198.800 233.092 198.800 153.528 L 198.800 73.964 199.782 72.982 L 200.764 72.000 280.493 72.000 C 352.007 72.000,360.314 72.064,361.111 72.623 M90.400 85.842 C 58.050 91.740,37.600 127.201,47.058 161.000 C 54.609 187.984,85.125 223.609,99.933 222.728 C 113.007 221.950,138.656 193.647,148.562 169.067 C 157.040 148.032,154.784 125.575,142.452 108.233 C 130.317 91.168,109.739 82.316,90.400 85.842 M221.400 89.485 C 220.960 89.591,220.105 90.144,219.500 90.714 C 217.370 92.720,216.876 91.391,231.792 123.800 C 232.400 125.120,235.374 131.600,238.402 138.200 C 250.091 163.684,257.543 179.912,258.699 182.404 C 260.096 185.413,262.537 190.733,268.793 204.400 C 277.270 222.918,276.892 222.392,281.295 221.787 C 284.087 221.403,284.544 220.824,288.068 213.200 C 289.745 209.570,292.824 202.910,294.909 198.400 C 299.595 188.265,300.419 186.471,302.808 181.200 C 303.855 178.890,307.541 170.880,311.000 163.400 C 314.458 155.920,318.685 146.740,320.393 143.000 C 322.101 139.260,324.350 134.400,325.390 132.200 C 326.431 130.000,327.964 126.670,328.797 124.800 C 329.630 122.930,331.613 118.610,333.205 115.200 C 343.667 92.778,343.512 93.194,342.148 91.247 C 340.861 89.410,339.532 89.200,329.200 89.200 C 315.642 89.200,317.691 87.588,310.379 104.005 C 307.490 110.492,304.800 116.520,304.402 117.400 C 304.004 118.280,301.752 123.320,299.399 128.600 C 297.045 133.880,293.224 142.430,290.907 147.600 C 288.591 152.770,286.111 158.350,285.397 160.000 C 282.741 166.137,280.841 170.000,280.478 170.000 C 280.272 170.000,279.014 167.525,277.681 164.500 C 276.349 161.475,273.247 154.500,270.788 149.000 C 260.023 124.924,256.173 116.297,254.188 111.800 C 253.023 109.160,251.177 105.020,250.086 102.600 C 248.996 100.180,247.628 97.120,247.046 95.800 C 244.000 88.886,244.692 89.188,232.000 89.247 C 226.610 89.272,221.840 89.379,221.400 89.485 M66.072 147.187 C 83.854 150.944,95.557 165.694,94.329 182.800 L 94.200 184.600 89.800 184.567 C 74.993 184.454,61.908 178.347,55.203 168.419 C 50.534 161.504,47.443 146.938,50.501 146.254 C 52.503 145.807,62.323 146.395,66.072 147.187 M148.203 146.401 C 150.739 147.365,147.910 160.835,143.725 167.724 C 137.526 177.929,122.815 184.800,107.167 184.800 C 103.692 184.800,103.714 184.846,104.319 178.794 C 105.888 163.102,113.792 152.851,127.694 148.475 C 130.890 147.469,132.757 147.082,138.400 146.255 C 140.633 145.928,147.217 146.026,148.203 146.401 " stroke="none" fill="#a3cb65" fill-rule="evenodd"></path><path id="path1" d="M380.596 153.400 C 380.596 201.580,380.643 221.349,380.700 197.332 C 380.757 173.315,380.757 133.895,380.700 109.732 C 380.643 85.569,380.596 105.220,380.596 153.400 M19.280 73.280 C 18.421 74.139,18.601 233.337,19.461 234.051 C 20.420 234.847,179.284 234.876,180.080 234.080 C 180.759 233.401,181.064 74.840,180.389 73.579 C 179.873 72.615,20.242 72.318,19.280 73.280 M200.080 73.280 C 199.710 73.650,199.600 92.051,199.600 153.671 L 199.600 233.582 200.534 234.194 C 202.174 235.268,360.242 234.904,361.032 233.824 C 361.750 232.842,361.901 74.910,361.186 73.574 C 360.672 72.614,201.037 72.323,200.080 73.280 M386.901 77.400 C 386.905 78.280,386.987 78.593,387.083 78.095 C 387.179 77.598,387.175 76.878,387.075 76.495 C 386.975 76.113,386.896 76.520,386.901 77.400 M390.493 77.200 C 390.493 77.970,390.575 78.285,390.676 77.900 C 390.776 77.515,390.776 76.885,390.676 76.500 C 390.575 76.115,390.493 76.430,390.493 77.200 M108.690 85.422 C 145.556 92.923,164.702 134.512,148.269 171.400 C 137.611 195.325,113.778 221.505,100.897 223.436 C 86.418 225.608,54.782 189.639,46.751 161.878 C 34.491 119.492,68.686 77.282,108.690 85.422 M244.563 90.000 C 245.102 90.550,246.982 94.240,248.740 98.200 C 250.498 102.160,255.918 114.310,260.784 125.200 C 265.650 136.090,272.009 150.351,274.915 156.892 C 277.822 163.433,280.345 168.788,280.523 168.792 C 280.700 168.796,281.470 167.405,282.234 165.700 C 282.998 163.995,283.787 162.240,283.987 161.800 C 284.188 161.360,284.977 159.560,285.741 157.800 C 286.504 156.040,289.230 149.920,291.797 144.200 C 294.364 138.480,298.178 129.930,300.271 125.200 C 302.364 120.470,305.744 112.910,307.782 108.400 C 309.820 103.890,312.348 98.220,313.401 95.800 C 314.453 93.380,315.832 90.860,316.465 90.200 L 317.615 89.000 329.166 89.000 C 347.470 89.000,347.313 86.394,331.095 121.200 C 328.915 125.878,322.594 139.617,320.605 144.000 C 319.457 146.530,317.753 150.220,316.818 152.200 C 315.883 154.180,314.345 157.510,313.400 159.600 C 312.455 161.690,310.924 165.020,309.998 167.000 C 309.072 168.980,305.836 176.000,302.806 182.600 C 299.776 189.200,296.755 195.770,296.092 197.200 C 295.429 198.630,293.810 202.140,292.494 205.000 C 291.177 207.860,289.429 211.640,288.608 213.400 C 287.788 215.160,286.676 217.553,286.138 218.718 C 284.900 221.400,283.367 222.396,280.480 222.399 C 276.517 222.401,276.121 221.912,271.087 210.800 C 270.539 209.590,268.883 205.990,267.406 202.800 C 265.930 199.610,262.405 191.928,259.574 185.728 C 256.742 179.528,253.893 173.318,253.243 171.928 C 251.960 169.186,237.594 137.884,234.183 130.400 C 233.030 127.870,230.428 122.200,228.401 117.800 C 226.374 113.400,223.945 108.090,223.005 106.000 C 222.064 103.910,220.447 100.400,219.411 98.200 C 217.319 93.756,217.219 92.292,218.884 90.499 C 220.377 88.891,220.917 88.829,232.492 88.916 L 243.583 89.000 244.563 90.000 M50.131 147.437 C 49.996 147.787,49.999 149.542,50.136 151.337 C 51.346 167.178,61.808 178.813,78.275 182.632 C 83.755 183.903,93.536 184.837,93.644 184.100 C 95.404 172.057,87.739 157.315,76.741 151.593 C 69.195 147.668,51.125 144.845,50.131 147.437 M134.127 147.431 C 116.576 150.378,106.387 161.541,104.858 179.496 C 104.424 184.606,104.342 184.400,106.803 184.400 C 130.911 184.400,148.400 169.579,148.400 149.148 L 148.400 146.800 142.900 146.841 C 139.875 146.863,135.927 147.129,134.127 147.431 M62.700 274.557 C 61.883 275.177,61.588 306.800,62.400 306.800 C 62.620 306.800,62.800 307.160,62.800 307.600 C 62.800 308.376,63.067 308.400,71.757 308.400 C 82.096 308.400,81.200 308.840,81.200 303.767 L 81.200 300.400 75.400 300.400 L 69.600 300.400 69.600 287.744 C 69.600 273.190,69.831 274.025,65.800 274.025 C 64.422 274.025,63.102 274.252,62.700 274.557 M91.605 274.594 C 91.090 275.214,90.956 304.324,91.455 307.100 L 91.689 308.400 94.845 308.400 C 97.733 308.400,98.000 308.332,98.000 307.600 C 98.000 307.156,98.267 306.800,98.600 306.800 C 99.123 306.800,99.200 304.756,99.200 290.800 C 99.200 275.067,99.187 274.800,98.400 274.800 C 97.960 274.800,97.600 274.620,97.600 274.400 C 97.600 273.728,92.178 273.904,91.605 274.594 M112.300 274.664 L 111.200 275.244 111.200 291.022 C 111.200 306.533,111.214 306.800,112.000 306.800 C 112.533 306.800,112.800 307.067,112.800 307.600 C 112.800 308.379,113.067 308.400,122.800 308.400 C 132.327 308.400,132.800 308.364,132.800 307.647 C 132.800 307.232,133.121 306.809,133.514 306.707 C 134.139 306.543,134.200 306.187,134.005 303.860 C 133.882 302.397,133.932 301.200,134.115 301.200 C 134.298 301.200,134.336 301.020,134.200 300.800 C 134.050 300.557,131.129 300.400,126.776 300.400 L 119.600 300.400 119.600 297.200 L 119.600 294.000 124.900 293.995 C 132.289 293.987,132.000 294.123,132.000 290.651 C 132.000 286.898,131.623 286.705,124.623 286.877 L 119.599 287.000 119.599 284.083 L 119.600 281.166 126.934 281.283 C 132.597 281.373,134.267 281.286,134.267 280.900 C 134.267 280.625,134.158 280.400,134.024 280.400 C 133.891 280.400,133.881 279.223,134.001 277.785 C 134.218 275.204,134.205 275.161,133.049 274.585 C 131.363 273.744,113.921 273.810,112.300 274.664 M165.871 274.722 C 165.321 275.329,165.200 276.704,165.109 283.397 L 165.000 291.351 162.830 289.375 C 159.258 286.124,154.343 281.074,153.621 279.914 C 152.956 278.844,150.161 276.400,149.603 276.400 C 149.446 276.400,148.831 275.950,148.238 275.400 C 147.594 274.803,146.683 274.400,145.979 274.400 L 144.800 274.400 144.800 290.600 C 144.800 301.133,144.940 306.800,145.200 306.800 C 145.420 306.800,145.600 307.160,145.600 307.600 C 145.600 308.329,145.867 308.400,148.600 308.400 C 151.333 308.400,151.600 308.329,151.600 307.600 C 151.600 307.066,151.867 306.800,152.403 306.800 C 153.184 306.800,153.203 306.577,153.103 298.260 L 153.000 289.720 160.916 297.677 C 165.270 302.053,168.997 306.066,169.198 306.595 C 169.567 307.566,172.206 307.672,172.822 306.741 C 173.345 305.950,172.746 275.088,172.196 274.539 C 171.341 273.684,166.688 273.818,165.871 274.722 M35.288 274.893 C 35.055 275.175,34.740 275.898,34.589 276.502 C 34.437 277.106,34.167 277.600,33.988 277.600 C 33.810 277.600,33.545 278.140,33.400 278.800 C 33.255 279.460,32.971 280.000,32.768 280.000 C 32.566 280.000,32.429 280.135,32.465 280.300 C 32.595 280.906,30.431 285.695,29.922 285.926 C 29.770 285.995,29.744 286.310,29.865 286.626 C 29.986 286.942,29.901 287.200,29.675 287.200 C 29.449 287.200,29.145 287.740,29.000 288.400 C 28.855 289.060,28.571 289.600,28.368 289.600 C 28.166 289.600,28.029 289.735,28.065 289.900 C 28.100 290.065,27.920 290.707,27.665 291.326 C 27.409 291.945,27.200 292.620,27.200 292.826 C 27.200 293.032,27.020 293.200,26.800 293.200 C 26.580 293.200,26.400 293.470,26.400 293.800 C 26.400 294.130,26.226 294.400,26.013 294.400 C 25.799 294.400,25.729 294.670,25.855 295.000 C 25.982 295.330,25.886 295.600,25.643 295.600 C 25.399 295.600,25.198 295.825,25.196 296.100 C 25.194 296.375,24.750 297.500,24.209 298.600 C 23.668 299.700,23.219 300.825,23.213 301.100 C 23.206 301.375,23.020 301.600,22.800 301.600 C 22.580 301.600,22.400 301.870,22.400 302.200 C 22.400 302.530,22.226 302.800,22.013 302.800 C 21.799 302.800,21.740 303.100,21.881 303.466 C 22.067 303.952,21.992 304.042,21.600 303.800 C 21.210 303.559,21.132 303.647,21.315 304.122 C 21.452 304.481,21.401 304.876,21.200 305.000 C 20.999 305.124,20.902 305.445,20.984 305.713 C 21.066 305.981,21.242 306.695,21.374 307.300 C 21.698 308.778,26.943 309.039,27.400 307.600 C 27.540 307.160,27.822 306.800,28.027 306.800 C 28.232 306.800,28.400 306.530,28.400 306.200 C 28.400 305.870,28.552 305.600,28.737 305.600 C 28.922 305.600,29.289 304.880,29.553 304.000 L 30.032 302.400 36.116 302.406 C 42.681 302.413,43.246 302.549,43.339 304.147 C 43.373 304.726,43.625 305.200,43.900 305.200 C 44.175 305.200,44.400 305.476,44.400 305.813 C 44.400 306.149,44.670 306.529,45.000 306.655 C 45.330 306.782,45.600 307.226,45.600 307.643 C 45.600 308.318,45.923 308.400,48.600 308.400 C 51.333 308.400,51.600 308.329,51.600 307.600 C 51.600 307.067,51.867 306.800,52.400 306.800 C 52.840 306.800,53.200 306.620,53.200 306.400 C 53.200 306.180,52.937 306.000,52.616 306.000 C 52.278 306.000,51.735 305.161,51.323 304.000 C 50.932 302.900,50.464 302.000,50.283 302.000 C 50.101 302.000,50.065 301.819,50.202 301.597 C 50.339 301.375,50.170 300.912,49.826 300.568 C 49.481 300.224,49.200 299.686,49.200 299.371 C 49.200 299.057,49.020 298.800,48.800 298.800 C 48.580 298.800,48.400 298.480,48.400 298.089 C 48.400 297.698,48.120 296.978,47.777 296.489 C 47.435 296.000,47.277 295.600,47.426 295.600 C 47.576 295.600,47.474 295.330,47.200 295.000 C 46.926 294.670,46.836 294.400,47.000 294.400 C 47.164 294.400,47.097 294.158,46.852 293.863 C 46.607 293.568,46.525 293.208,46.670 293.063 C 46.815 292.918,46.729 292.800,46.478 292.800 C 45.916 292.800,42.962 286.703,43.135 285.900 C 43.171 285.735,43.034 285.600,42.832 285.600 C 42.629 285.600,42.345 285.060,42.200 284.400 C 42.055 283.740,41.771 283.200,41.568 283.200 C 41.366 283.200,41.200 283.032,41.200 282.826 C 41.200 282.620,40.991 281.945,40.735 281.326 C 40.480 280.707,40.300 280.065,40.335 279.900 C 40.371 279.735,40.201 279.600,39.957 279.600 C 39.714 279.600,39.614 279.342,39.735 279.026 C 39.856 278.710,39.740 278.364,39.478 278.256 C 39.136 278.117,39.171 277.940,39.600 277.637 C 40.093 277.288,40.032 277.211,39.253 277.206 C 38.505 277.201,38.350 277.033,38.516 276.399 C 38.648 275.895,38.568 275.696,38.300 275.862 C 38.033 276.027,37.951 275.832,38.079 275.340 C 38.326 274.397,36.008 274.026,35.288 274.893 M248.196 275.207 C 248.058 275.430,247.747 275.491,247.504 275.341 C 247.227 275.169,247.153 275.300,247.304 275.695 C 247.437 276.040,247.422 276.444,247.272 276.594 C 247.123 276.744,246.984 276.987,246.965 277.133 C 246.882 277.777,246.405 278.837,242.211 287.700 C 241.404 289.405,240.557 290.800,240.329 290.800 C 240.101 290.800,240.018 291.070,240.145 291.400 C 240.271 291.730,240.193 292.000,239.970 292.000 C 239.747 292.000,239.602 292.225,239.647 292.500 C 239.750 293.134,239.168 294.579,237.182 298.615 C 236.312 300.383,235.600 302.048,235.600 302.315 C 235.600 302.582,235.434 302.800,235.232 302.800 C 235.029 302.800,234.750 303.316,234.612 303.946 C 234.473 304.576,234.009 305.469,233.580 305.929 C 232.769 306.800,232.502 307.831,233.200 307.400 C 233.420 307.264,233.600 307.343,233.600 307.576 C 233.600 307.839,234.821 308.000,236.824 308.000 C 238.871 308.000,239.957 308.146,239.800 308.400 C 239.664 308.620,239.698 308.799,239.876 308.799 C 240.054 308.798,240.820 307.448,241.577 305.799 L 242.954 302.800 249.032 302.800 L 255.109 302.800 255.754 304.160 C 256.109 304.909,256.400 305.642,256.400 305.789 C 256.400 305.936,256.684 306.341,257.031 306.688 C 257.378 307.035,257.572 307.663,257.463 308.082 C 257.303 308.692,257.373 308.754,257.811 308.391 C 258.149 308.110,259.519 307.986,261.381 308.068 L 264.402 308.200 264.401 306.985 C 264.400 306.316,264.044 305.071,263.609 304.217 C 263.174 303.364,262.620 302.066,262.378 301.333 C 262.136 300.600,261.772 300.000,261.569 300.000 C 261.366 300.000,261.199 299.775,261.198 299.500 C 261.196 299.225,260.946 298.522,260.641 297.939 C 260.337 297.355,259.862 296.185,259.586 295.339 C 259.310 294.492,258.954 293.710,258.796 293.600 C 258.543 293.424,257.973 292.252,255.791 287.416 C 255.497 286.765,255.344 286.090,255.452 285.916 C 255.559 285.742,255.457 285.600,255.224 285.600 C 254.991 285.600,254.800 285.330,254.800 285.000 C 254.800 284.670,254.620 284.400,254.400 284.400 C 254.180 284.400,254.000 284.209,254.000 283.975 C 254.000 283.742,253.573 282.617,253.051 281.475 C 252.025 279.232,251.711 278.399,251.685 277.845 C 251.676 277.649,251.514 277.379,251.326 277.245 C 251.138 277.110,250.766 276.505,250.500 275.900 C 250.015 274.796,248.695 274.399,248.196 275.207 M200.208 275.923 C 200.082 276.252,200.329 276.561,200.821 276.690 C 201.310 276.818,201.560 277.128,201.435 277.453 C 201.320 277.754,201.356 278.000,201.515 278.000 C 201.842 278.000,203.600 281.673,203.600 282.357 C 203.600 282.601,203.757 282.800,203.948 282.800 C 204.139 282.800,204.523 283.610,204.800 284.600 C 205.077 285.590,205.446 286.400,205.620 286.400 C 205.794 286.400,206.055 286.940,206.200 287.600 C 206.345 288.260,206.606 288.800,206.780 288.800 C 206.954 288.800,207.323 289.610,207.600 290.600 C 207.877 291.590,208.276 292.400,208.485 292.400 C 208.695 292.400,208.793 292.621,208.703 292.891 C 208.613 293.162,208.848 293.714,209.225 294.119 C 209.603 294.525,210.135 295.653,210.408 296.628 C 210.681 297.603,211.046 298.400,211.220 298.400 C 211.394 298.400,211.655 298.940,211.800 299.600 C 211.945 300.260,212.229 300.800,212.432 300.800 C 212.634 300.800,212.768 300.935,212.729 301.100 C 212.689 301.265,213.125 302.393,213.697 303.606 C 214.270 304.820,214.861 306.305,215.012 306.906 C 215.163 307.508,215.447 308.000,215.643 308.000 C 215.840 308.000,216.000 308.270,216.000 308.600 C 216.000 308.933,216.356 309.200,216.800 309.200 C 217.240 309.200,217.600 309.020,217.600 308.801 C 217.600 308.582,218.180 307.187,218.889 305.701 C 219.597 304.215,220.137 302.865,220.089 302.700 C 220.040 302.535,220.166 302.400,220.368 302.400 C 220.571 302.400,220.855 301.860,221.000 301.200 C 221.145 300.540,221.406 300.000,221.580 300.000 C 221.754 300.000,222.123 299.190,222.400 298.200 C 222.677 297.210,223.046 296.400,223.220 296.400 C 223.394 296.400,223.655 295.860,223.800 295.200 C 223.945 294.540,224.249 294.000,224.475 294.000 C 224.701 294.000,224.782 293.730,224.655 293.400 C 224.529 293.070,224.599 292.800,224.813 292.800 C 225.026 292.800,225.200 292.591,225.200 292.337 C 225.200 291.749,228.105 285.843,228.478 285.674 C 228.630 285.605,228.656 285.290,228.535 284.974 C 228.414 284.658,228.514 284.400,228.757 284.400 C 229.001 284.400,229.202 284.175,229.204 283.900 C 229.206 283.625,229.650 282.500,230.191 281.400 C 230.732 280.300,231.181 279.190,231.187 278.933 C 231.194 278.677,231.385 278.405,231.612 278.329 C 231.838 278.254,232.063 277.654,232.112 276.996 L 232.200 275.800 228.068 275.686 C 225.538 275.616,224.026 275.718,224.169 275.950 C 224.403 276.328,223.288 278.787,222.679 279.236 C 222.502 279.367,222.399 279.637,222.450 279.837 C 222.501 280.036,222.061 281.223,221.471 282.474 C 220.882 283.725,220.400 284.940,220.400 285.174 C 220.400 285.408,220.220 285.600,220.000 285.600 C 219.780 285.600,219.629 285.735,219.665 285.900 C 219.800 286.527,217.625 291.300,217.098 291.534 C 216.931 291.608,216.897 291.833,217.021 292.034 C 217.145 292.235,217.078 292.400,216.870 292.400 C 216.546 292.400,216.072 291.297,216.069 290.536 C 216.069 290.400,215.904 290.179,215.704 290.045 C 215.503 289.910,214.904 288.720,214.373 287.400 C 213.842 286.080,213.255 284.890,213.070 284.755 C 212.884 284.621,212.760 284.441,212.794 284.355 C 212.828 284.270,212.664 283.693,212.428 283.074 C 212.193 282.455,212.000 281.780,212.000 281.574 C 212.000 281.368,211.801 281.200,211.557 281.200 C 211.314 281.200,211.218 280.930,211.345 280.600 C 211.471 280.270,211.401 280.000,211.187 280.000 C 210.974 280.000,210.800 279.730,210.800 279.400 C 210.800 279.070,210.634 278.800,210.432 278.800 C 210.229 278.800,209.948 278.272,209.806 277.628 C 209.423 275.882,208.972 275.703,204.510 275.531 C 201.296 275.406,200.374 275.490,200.208 275.923 M334.160 276.217 C 333.751 277.846,334.167 281.807,334.734 281.689 C 335.028 281.627,335.364 281.942,335.481 282.389 C 335.715 283.283,340.879 283.642,341.400 282.800 C 342.624 280.820,342.800 282.381,342.800 295.200 C 342.800 303.942,342.666 308.000,342.376 308.000 C 342.143 308.000,342.074 308.196,342.222 308.435 C 342.415 308.748,342.612 308.748,342.925 308.435 C 343.164 308.196,344.764 308.000,346.480 308.000 C 348.293 308.000,349.600 307.832,349.600 307.600 C 349.600 307.380,349.965 307.200,350.411 307.200 C 351.211 307.200,351.221 307.027,351.111 295.200 L 351.000 283.200 353.667 283.200 C 357.547 283.200,357.420 283.341,357.272 279.209 L 357.144 275.624 345.754 275.512 C 334.574 275.402,334.361 275.415,334.160 276.217 M270.800 285.999 C 270.800 294.898,270.888 296.459,271.400 296.655 C 271.770 296.797,272.000 297.405,272.000 298.243 C 272.000 298.989,272.141 299.600,272.312 299.600 C 272.735 299.600,273.629 302.030,273.364 302.459 C 273.248 302.646,273.350 302.800,273.591 302.800 C 273.833 302.800,274.788 303.568,275.715 304.506 C 277.160 305.970,279.138 307.272,280.067 307.371 C 280.213 307.387,280.468 307.535,280.633 307.700 C 280.798 307.865,281.463 308.000,282.109 308.000 C 283.008 308.000,283.229 308.147,283.048 308.620 C 282.848 309.140,283.161 309.226,284.967 309.153 C 286.678 309.084,287.077 308.945,286.898 308.478 C 286.721 308.018,286.942 307.930,287.921 308.074 C 288.721 308.191,289.241 308.069,289.370 307.735 C 289.480 307.448,289.847 307.320,290.185 307.450 C 290.523 307.579,290.800 307.498,290.800 307.270 C 290.800 307.041,291.194 306.729,291.676 306.576 C 292.918 306.182,296.171 302.731,296.799 301.140 C 297.090 300.403,297.479 299.629,297.664 299.420 C 297.849 299.211,298.000 298.536,298.000 297.920 C 298.000 297.191,298.210 296.800,298.600 296.800 C 299.118 296.800,299.200 295.354,299.200 286.186 L 299.200 275.572 295.100 275.686 L 291.000 275.800 290.898 285.200 C 290.842 290.370,290.674 294.870,290.525 295.200 C 290.377 295.530,290.243 296.250,290.227 296.800 C 290.211 297.412,289.877 297.942,289.366 298.166 C 288.908 298.368,288.368 298.889,288.166 299.324 C 287.648 300.444,285.314 301.137,283.823 300.613 C 281.770 299.892,279.345 297.301,279.897 296.417 C 280.266 295.825,280.244 295.626,279.788 295.451 C 279.316 295.269,279.195 293.516,279.107 285.515 L 279.000 275.800 274.900 275.686 L 270.800 275.572 270.800 285.999 M311.182 276.286 C 311.172 276.678,311.180 283.702,311.199 291.894 C 311.220 300.565,311.077 307.083,310.856 307.494 C 310.499 308.161,310.998 308.193,319.899 308.073 C 327.339 307.972,329.387 308.056,329.643 308.470 C 329.901 308.887,330.068 308.892,330.463 308.497 C 330.840 308.120,330.844 308.000,330.480 308.000 C 330.143 308.000,330.000 306.945,330.000 304.453 L 330.000 300.907 324.700 300.891 C 317.944 300.871,318.273 300.908,318.546 300.196 C 318.674 299.864,318.794 294.239,318.813 287.696 L 318.848 275.800 315.024 275.686 C 311.582 275.582,311.198 275.642,311.182 276.286 M37.597 290.990 C 37.876 291.985,38.280 292.800,38.495 292.800 C 38.710 292.800,38.782 293.070,38.655 293.400 C 38.529 293.730,38.599 294.000,38.813 294.000 C 39.026 294.000,39.200 294.270,39.200 294.600 C 39.200 294.930,39.380 295.200,39.600 295.200 C 39.820 295.200,40.000 295.380,40.000 295.600 C 40.000 295.835,38.607 296.000,36.621 296.000 L 33.242 296.000 33.686 294.700 C 33.931 293.985,34.297 293.290,34.500 293.155 C 34.702 293.021,34.840 292.841,34.806 292.755 C 34.772 292.670,34.936 292.093,35.172 291.474 C 35.407 290.855,35.600 290.262,35.600 290.157 C 35.600 288.353,37.025 288.947,37.597 290.990 M249.368 290.111 C 249.649 290.392,250.113 291.337,250.398 292.211 C 250.683 293.085,251.046 293.890,251.204 294.000 C 252.688 295.030,251.982 296.001,249.727 296.030 C 248.447 296.046,247.005 296.133,246.522 296.224 C 245.629 296.391,246.266 294.335,247.351 293.545 C 247.544 293.404,247.579 293.089,247.428 292.845 C 247.276 292.600,247.335 292.400,247.558 292.400 C 247.781 292.400,248.082 291.770,248.226 291.000 C 248.517 289.451,248.625 289.368,249.368 290.111 " stroke="none" fill="#435461" fill-rule="evenodd"></path><path id="path2" d="M6.200 54.074 C 4.645 54.950,2.381 56.889,1.929 57.733 C 1.677 58.203,2.247 57.827,3.195 56.898 C 4.143 55.969,5.521 54.991,6.259 54.724 C 6.997 54.457,7.600 54.095,7.600 53.920 C 7.600 53.487,7.157 53.536,6.200 54.074 M372.620 53.955 C 372.829 54.150,373.450 54.428,374.000 54.572 L 375.000 54.833 374.000 54.231 C 372.886 53.559,372.009 53.384,372.620 53.955 M375.802 56.002 C 376.202 56.444,376.615 56.718,376.721 56.612 C 376.990 56.343,375.992 55.200,375.489 55.200 C 375.262 55.200,375.403 55.561,375.802 56.002 M378.385 58.488 C 379.075 59.526,379.923 61.205,380.269 62.219 C 380.661 63.372,381.038 63.922,381.273 63.687 C 381.734 63.226,379.572 59.039,378.131 57.600 C 377.276 56.746,377.313 56.875,378.385 58.488 M0.388 59.622 C -0.324 60.952,0.135 61.295,0.881 59.991 C 1.256 59.336,1.397 58.800,1.195 58.800 C 0.993 58.800,0.630 59.170,0.388 59.622 M381.052 65.008 C 380.632 66.104,380.748 241.578,381.170 242.329 C 382.113 244.010,382.200 236.511,382.200 153.320 C 382.200 67.201,382.135 62.187,381.052 65.008 M386.368 71.172 C 386.915 71.518,391.168 71.365,391.548 70.986 C 391.650 70.884,390.398 70.803,388.767 70.806 C 386.856 70.810,386.002 70.940,386.368 71.172 M392.400 70.953 C 392.400 71.293,394.434 71.469,394.633 71.146 C 394.751 70.956,394.297 70.800,393.624 70.800 C 392.951 70.800,392.400 70.869,392.400 70.953 M396.900 71.288 C 396.012 71.717,395.624 73.200,396.400 73.200 C 396.763 73.200,396.959 72.647,396.855 71.922 C 396.833 71.769,397.576 71.474,398.507 71.265 C 399.933 70.946,400.010 70.883,399.000 70.870 C 398.340 70.861,397.395 71.049,396.900 71.288 M384.700 71.885 C 383.701 72.995,383.829 73.723,385.200 74.737 C 386.201 75.477,386.401 75.904,386.406 77.312 C 386.409 78.240,386.544 79.208,386.706 79.461 C 386.868 79.715,386.995 78.727,386.988 77.265 C 386.978 75.108,386.850 74.582,386.310 74.478 C 385.845 74.389,385.607 73.859,385.522 72.728 C 385.403 71.152,385.381 71.128,384.700 71.885 M390.758 74.500 C 390.314 75.558,390.685 79.724,391.251 80.027 C 391.677 80.255,391.985 80.247,392.068 80.005 C 392.688 78.183,391.431 72.898,390.758 74.500 M388.316 80.461 C 387.976 80.676,388.175 80.790,388.900 80.794 C 389.505 80.797,390.000 80.650,390.000 80.467 C 390.000 80.040,388.985 80.036,388.316 80.461 M392.400 80.500 C 392.400 80.665,392.850 80.800,393.400 80.800 C 393.950 80.800,394.400 80.639,394.400 80.442 C 394.400 80.246,393.950 80.111,393.400 80.142 C 392.850 80.174,392.400 80.335,392.400 80.500 M395.759 80.467 C 395.645 80.650,395.923 80.800,396.376 80.800 C 396.829 80.800,397.200 80.650,397.200 80.467 C 397.200 80.283,396.922 80.133,396.582 80.133 C 396.243 80.133,395.872 80.283,395.759 80.467 M398.400 80.486 C 398.400 80.659,398.760 80.800,399.200 80.800 C 399.640 80.800,400.000 80.659,400.000 80.486 C 400.000 80.313,399.640 80.171,399.200 80.171 C 398.760 80.171,398.400 80.313,398.400 80.486 M380.395 244.663 C 379.691 246.863,378.530 248.647,376.644 250.428 C 375.740 251.281,375.188 251.984,375.417 251.990 C 376.833 252.024,382.120 244.360,381.268 243.508 C 381.026 243.266,380.707 243.688,380.395 244.663 M0.002 246.424 C -0.000 247.132,1.042 248.703,1.313 248.399 C 1.411 248.290,1.156 247.660,0.747 247.000 C 0.319 246.308,0.003 246.064,0.002 246.424 M2.000 249.553 C 2.000 250.705,7.707 254.287,10.120 254.650 C 12.421 254.996,11.630 254.296,8.705 253.398 C 7.442 253.011,6.205 252.447,5.956 252.147 C 5.706 251.846,5.299 251.599,5.051 251.598 C 4.803 251.597,4.015 251.048,3.300 250.378 C 2.585 249.708,2.000 249.337,2.000 249.553 M373.500 252.676 C 373.115 252.776,372.800 253.025,372.800 253.229 C 372.800 253.753,373.274 253.670,374.176 252.987 C 374.954 252.399,374.810 252.333,373.500 252.676 M371.656 253.557 C 371.356 253.747,370.816 253.825,370.456 253.732 C 370.095 253.638,369.440 253.835,369.000 254.168 C 368.222 254.758,368.221 254.775,368.972 254.787 C 370.007 254.804,372.400 253.920,372.400 253.520 C 372.400 253.124,372.335 253.127,371.656 253.557 M35.092 273.199 C 34.290 273.830,30.400 281.006,30.400 281.855 C 30.400 282.040,28.918 285.211,25.171 293.041 C 24.318 294.823,23.098 297.433,22.461 298.841 C 21.823 300.248,20.812 302.461,20.213 303.757 C 19.151 306.056,19.245 308.514,20.368 307.820 C 20.568 307.696,20.812 307.821,20.911 308.098 C 21.298 309.182,21.537 308.093,21.220 306.687 C 21.035 305.867,21.037 305.101,21.224 304.985 C 21.412 304.869,21.452 304.481,21.315 304.122 C 21.132 303.647,21.210 303.559,21.600 303.800 C 21.992 304.042,22.067 303.952,21.881 303.466 C 21.740 303.100,21.799 302.800,22.013 302.800 C 22.226 302.800,22.400 302.530,22.400 302.200 C 22.400 301.870,22.580 301.600,22.800 301.600 C 23.020 301.600,23.206 301.375,23.213 301.100 C 23.219 300.825,23.668 299.700,24.209 298.600 C 24.750 297.500,25.194 296.375,25.196 296.100 C 25.198 295.825,25.399 295.600,25.643 295.600 C 25.886 295.600,25.982 295.330,25.855 295.000 C 25.729 294.670,25.799 294.400,26.013 294.400 C 26.226 294.400,26.400 294.130,26.400 293.800 C 26.400 293.470,26.580 293.200,26.800 293.200 C 27.020 293.200,27.200 293.032,27.200 292.826 C 27.200 292.620,27.409 291.945,27.665 291.326 C 27.920 290.707,28.100 290.065,28.065 289.900 C 28.029 289.735,28.166 289.600,28.368 289.600 C 28.571 289.600,28.855 289.060,29.000 288.400 C 29.145 287.740,29.449 287.200,29.675 287.200 C 29.901 287.200,29.986 286.942,29.865 286.626 C 29.744 286.310,29.770 285.995,29.922 285.926 C 30.431 285.695,32.595 280.906,32.465 280.300 C 32.429 280.135,32.566 280.000,32.768 280.000 C 32.971 280.000,33.255 279.460,33.400 278.800 C 33.545 278.140,33.815 277.600,34.000 277.600 C 34.185 277.600,34.452 277.072,34.594 276.428 C 34.928 274.905,35.627 274.359,37.094 274.471 C 38.058 274.544,38.244 274.709,38.078 275.343 C 37.950 275.833,38.033 276.027,38.300 275.862 C 38.568 275.696,38.648 275.895,38.516 276.399 C 38.350 277.033,38.505 277.201,39.253 277.206 C 40.032 277.211,40.093 277.288,39.600 277.637 C 39.171 277.940,39.136 278.117,39.478 278.256 C 39.740 278.364,39.856 278.710,39.735 279.026 C 39.614 279.342,39.714 279.600,39.957 279.600 C 40.201 279.600,40.371 279.735,40.335 279.900 C 40.300 280.065,40.480 280.707,40.735 281.326 C 40.991 281.945,41.200 282.620,41.200 282.826 C 41.200 283.032,41.366 283.200,41.568 283.200 C 41.771 283.200,42.055 283.740,42.200 284.400 C 42.345 285.060,42.629 285.600,42.832 285.600 C 43.034 285.600,43.171 285.735,43.135 285.900 C 42.962 286.703,45.916 292.800,46.478 292.800 C 46.729 292.800,46.815 292.918,46.670 293.063 C 46.525 293.208,46.607 293.568,46.852 293.863 C 47.097 294.158,47.164 294.400,47.000 294.400 C 46.836 294.400,46.926 294.670,47.200 295.000 C 47.474 295.330,47.576 295.600,47.426 295.600 C 47.277 295.600,47.435 296.000,47.777 296.489 C 48.120 296.978,48.400 297.698,48.400 298.089 C 48.400 298.480,48.580 298.800,48.800 298.800 C 49.020 298.800,49.200 299.057,49.200 299.371 C 49.200 299.686,49.481 300.224,49.826 300.568 C 50.170 300.912,50.339 301.375,50.202 301.597 C 50.065 301.819,50.101 302.000,50.283 302.000 C 50.464 302.000,50.924 302.879,51.306 303.953 C 51.754 305.214,52.283 305.981,52.800 306.116 C 53.926 306.410,53.828 305.551,52.427 302.856 C 51.783 301.615,50.860 299.700,50.378 298.600 C 49.896 297.500,48.647 294.800,47.601 292.600 C 46.556 290.400,45.113 287.250,44.393 285.600 C 39.178 273.637,37.455 271.340,35.092 273.199 M144.047 273.676 L 142.800 274.952 142.803 290.376 C 142.805 306.000,143.119 309.148,144.530 307.737 C 144.679 307.588,144.800 307.677,144.800 307.933 C 144.800 308.190,144.980 308.400,145.200 308.400 C 145.420 308.400,145.600 308.040,145.600 307.600 C 145.600 307.160,145.420 306.800,145.200 306.800 C 144.940 306.800,144.800 301.133,144.800 290.600 L 144.800 274.400 145.979 274.400 C 146.683 274.400,147.594 274.803,148.238 275.400 C 148.831 275.950,149.446 276.400,149.603 276.400 C 150.161 276.400,152.956 278.844,153.621 279.914 C 154.343 281.074,159.258 286.124,162.830 289.375 L 165.000 291.351 165.109 283.397 C 165.239 273.891,165.192 274.000,169.091 274.000 C 170.710 274.000,171.856 274.199,172.196 274.539 C 172.746 275.088,173.345 305.950,172.822 306.741 C 172.206 307.672,169.567 307.566,169.198 306.595 C 168.997 306.066,165.270 302.053,160.916 297.677 L 153.000 289.720 153.101 297.960 C 153.162 302.997,153.357 306.252,153.601 306.333 C 153.855 306.418,154.000 304.138,154.000 300.033 C 154.000 296.495,154.129 293.600,154.287 293.600 C 154.445 293.600,158.010 297.020,162.210 301.200 C 169.575 308.530,169.904 308.800,171.448 308.800 C 174.793 308.800,174.800 308.766,174.800 291.105 C 174.800 272.252,175.108 273.217,169.081 273.206 C 163.771 273.197,163.600 273.454,163.600 281.458 C 163.600 288.050,163.540 288.216,161.814 286.414 C 161.189 285.762,160.521 285.325,160.329 285.444 C 160.137 285.562,160.030 285.511,160.090 285.330 C 160.151 285.148,160.050 285.000,159.868 285.000 C 159.685 285.000,159.325 284.611,159.068 284.135 C 158.510 283.104,148.689 273.611,147.458 272.914 C 146.103 272.147,145.385 272.308,144.047 273.676 M247.710 273.911 C 246.902 274.592,245.809 276.347,244.788 278.600 C 243.891 280.580,242.641 283.280,242.012 284.600 C 240.891 286.950,237.242 294.839,234.518 300.800 C 233.765 302.450,232.890 304.310,232.574 304.932 C 231.834 306.392,231.849 307.261,232.630 308.224 C 232.976 308.651,233.143 308.730,233.000 308.400 C 232.830 308.007,232.939 308.042,233.314 308.500 C 234.323 309.731,241.200 309.443,241.200 308.170 C 241.200 307.868,241.449 307.721,241.759 307.840 C 242.128 307.981,242.563 307.500,243.036 306.427 L 243.754 304.800 249.097 304.800 L 254.441 304.800 254.987 306.108 C 255.664 307.727,257.012 309.028,257.386 308.422 C 257.721 307.881,257.271 306.400,256.773 306.400 C 256.568 306.400,256.400 306.202,256.400 305.960 C 256.400 305.719,256.109 304.909,255.754 304.160 L 255.109 302.800 249.032 302.800 L 242.954 302.800 241.577 305.799 C 240.820 307.448,240.054 308.798,239.876 308.799 C 239.698 308.799,239.664 308.620,239.800 308.400 C 239.957 308.146,238.871 308.000,236.824 308.000 C 234.821 308.000,233.600 307.839,233.600 307.576 C 233.600 307.343,233.420 307.264,233.200 307.400 C 232.502 307.831,232.769 306.800,233.580 305.929 C 234.009 305.469,234.473 304.576,234.612 303.946 C 234.750 303.316,235.029 302.800,235.232 302.800 C 235.434 302.800,235.600 302.582,235.600 302.315 C 235.600 302.048,236.312 300.383,237.182 298.615 C 239.168 294.579,239.750 293.134,239.647 292.500 C 239.602 292.225,239.747 292.000,239.970 292.000 C 240.193 292.000,240.271 291.730,240.145 291.400 C 240.018 291.070,240.101 290.800,240.329 290.800 C 240.557 290.800,241.404 289.405,242.211 287.700 C 246.405 278.837,246.882 277.777,246.965 277.133 C 246.984 276.987,247.123 276.744,247.272 276.594 C 247.422 276.444,247.437 276.040,247.304 275.695 C 247.153 275.300,247.227 275.169,247.504 275.341 C 247.747 275.491,248.058 275.430,248.196 275.207 C 248.695 274.399,250.015 274.796,250.500 275.900 C 250.766 276.505,251.138 277.110,251.326 277.245 C 251.514 277.379,251.641 277.559,251.608 277.645 C 251.515 277.885,252.012 279.205,253.051 281.475 C 253.573 282.617,254.000 283.742,254.000 283.975 C 254.000 284.209,254.180 284.400,254.400 284.400 C 254.620 284.400,254.800 284.670,254.800 285.000 C 254.800 285.330,254.991 285.600,255.224 285.600 C 255.457 285.600,255.559 285.742,255.452 285.916 C 255.344 286.090,255.497 286.765,255.791 287.416 C 257.973 292.252,258.543 293.424,258.796 293.600 C 258.954 293.710,259.310 294.492,259.586 295.339 C 259.862 296.185,260.337 297.355,260.641 297.939 C 260.946 298.522,261.196 299.225,261.198 299.500 C 261.199 299.775,261.366 300.000,261.569 300.000 C 261.772 300.000,262.136 300.600,262.378 301.333 C 262.620 302.066,263.174 303.364,263.609 304.217 C 264.044 305.071,264.400 306.316,264.401 306.985 L 264.401 308.200 261.203 308.200 C 256.953 308.200,256.805 308.965,261.027 309.115 C 267.157 309.333,267.414 308.442,263.536 300.400 C 260.861 294.854,259.244 291.409,255.274 282.800 C 254.412 280.930,253.304 278.500,252.812 277.400 C 252.012 275.612,249.799 272.783,249.222 272.811 C 249.100 272.817,248.419 273.312,247.710 273.911 M61.227 274.362 C 60.425 275.488,60.400 275.994,60.400 291.092 L 60.400 306.661 61.326 307.530 C 62.474 308.609,62.800 308.624,62.800 307.600 C 62.800 307.160,62.620 306.800,62.400 306.800 C 62.140 306.800,62.000 301.248,62.000 290.944 C 62.000 272.761,61.716 274.025,65.800 274.025 C 69.831 274.025,69.600 273.190,69.600 287.744 L 69.600 300.400 75.437 300.400 L 81.275 300.400 81.137 304.400 C 80.988 308.736,81.034 308.854,82.330 307.474 C 83.828 305.880,83.602 301.097,81.958 299.560 C 80.731 298.415,80.656 298.400,75.958 298.400 L 71.200 298.400 71.200 286.962 C 71.200 272.602,71.435 273.200,65.800 273.200 C 62.122 273.200,62.040 273.221,61.227 274.362 M90.177 274.186 L 89.191 275.173 89.295 291.075 L 89.400 306.977 90.298 307.424 C 90.791 307.670,91.076 307.990,90.931 308.136 C 90.786 308.281,90.897 308.400,91.178 308.400 C 91.536 308.400,91.619 308.010,91.455 307.100 C 90.956 304.324,91.090 275.214,91.605 274.594 C 92.178 273.904,97.600 273.728,97.600 274.400 C 97.600 274.620,97.960 274.800,98.400 274.800 C 99.187 274.800,99.200 275.067,99.200 290.800 C 99.200 304.756,99.123 306.800,98.600 306.800 C 98.267 306.800,98.000 307.156,98.000 307.600 C 98.000 308.565,98.152 308.591,98.971 307.771 C 99.916 306.827,99.921 275.437,98.977 274.089 C 97.993 272.684,91.609 272.754,90.177 274.186 M111.776 273.767 C 111.031 274.312,110.999 274.966,110.987 290.267 L 110.973 306.200 111.187 290.694 L 111.400 275.188 112.546 274.594 C 114.204 273.734,131.328 273.726,133.049 274.585 C 134.205 275.161,134.218 275.204,134.001 277.785 C 133.881 279.223,133.932 280.400,134.115 280.400 C 134.298 280.400,134.336 280.580,134.200 280.800 C 134.050 281.043,131.129 281.200,126.776 281.200 L 119.600 281.200 119.599 284.100 L 119.599 287.000 124.623 286.877 C 131.623 286.705,132.000 286.898,132.000 290.651 C 132.000 294.123,132.289 293.987,124.900 293.995 L 119.600 294.000 119.600 297.183 L 119.600 300.366 127.000 300.483 C 134.702 300.605,134.962 300.554,133.525 299.216 C 132.728 298.474,132.133 298.400,126.925 298.400 L 121.200 298.400 121.200 297.200 L 121.200 296.000 125.771 296.000 L 130.342 296.000 131.571 294.509 C 132.626 293.228,132.800 292.694,132.800 290.728 C 132.800 286.160,131.509 285.200,125.368 285.200 L 121.200 285.200 121.200 284.200 L 121.200 283.200 127.138 283.200 C 132.568 283.200,133.138 283.132,133.800 282.400 C 134.198 281.960,134.361 281.595,134.162 281.588 C 133.963 281.581,134.115 281.392,134.500 281.168 C 135.574 280.542,135.488 275.928,134.373 274.362 L 133.546 273.200 123.049 273.200 C 114.618 273.200,112.400 273.312,111.776 273.767 M200.889 274.223 C 200.400 274.565,200.014 275.150,200.032 275.523 C 200.049 275.895,200.141 276.014,200.236 275.786 C 200.453 275.268,208.397 275.525,209.074 276.072 C 209.335 276.283,209.664 276.983,209.806 277.628 C 209.948 278.272,210.229 278.800,210.432 278.800 C 210.634 278.800,210.800 279.070,210.800 279.400 C 210.800 279.730,210.974 280.000,211.187 280.000 C 211.401 280.000,211.471 280.270,211.345 280.600 C 211.218 280.930,211.314 281.200,211.557 281.200 C 211.801 281.200,212.000 281.368,212.000 281.574 C 212.000 281.780,212.158 282.365,212.352 282.874 C 212.546 283.383,212.710 283.960,212.718 284.155 C 212.725 284.351,212.884 284.621,213.070 284.755 C 213.255 284.890,213.842 286.080,214.373 287.400 C 214.904 288.720,215.503 289.910,215.704 290.045 C 215.904 290.179,216.058 290.359,216.045 290.445 C 215.965 290.993,216.558 292.400,216.870 292.400 C 217.078 292.400,217.145 292.235,217.021 292.034 C 216.897 291.833,216.931 291.608,217.098 291.534 C 217.625 291.300,219.800 286.527,219.665 285.900 C 219.629 285.735,219.780 285.600,220.000 285.600 C 220.220 285.600,220.400 285.408,220.400 285.174 C 220.400 284.940,220.882 283.725,221.471 282.474 C 222.061 281.223,222.501 280.036,222.450 279.837 C 222.399 279.637,222.502 279.367,222.679 279.236 C 223.288 278.787,224.403 276.328,224.169 275.950 C 224.026 275.718,225.538 275.616,228.068 275.686 L 232.200 275.800 232.112 276.996 C 232.063 277.654,231.838 278.254,231.612 278.329 C 231.385 278.405,231.194 278.677,231.187 278.933 C 231.181 279.190,230.732 280.300,230.191 281.400 C 229.650 282.500,229.206 283.625,229.204 283.900 C 229.202 284.175,229.001 284.400,228.757 284.400 C 228.514 284.400,228.414 284.658,228.535 284.974 C 228.656 285.290,228.630 285.605,228.478 285.674 C 228.105 285.843,225.200 291.749,225.200 292.337 C 225.200 292.591,225.026 292.800,224.813 292.800 C 224.599 292.800,224.529 293.070,224.655 293.400 C 224.782 293.730,224.701 294.000,224.475 294.000 C 224.249 294.000,223.945 294.540,223.800 295.200 C 223.655 295.860,223.394 296.400,223.220 296.400 C 223.046 296.400,222.677 297.210,222.400 298.200 C 222.123 299.190,221.754 300.000,221.580 300.000 C 221.406 300.000,221.145 300.540,221.000 301.200 C 220.855 301.860,220.571 302.400,220.368 302.400 C 220.166 302.400,220.040 302.535,220.089 302.700 C 220.137 302.865,219.597 304.215,218.889 305.701 C 218.180 307.187,217.600 308.582,217.600 308.801 C 217.600 309.020,217.240 309.200,216.800 309.200 C 216.356 309.200,216.000 308.933,216.000 308.600 C 216.000 308.270,215.840 308.000,215.643 308.000 C 215.447 308.000,215.163 307.508,215.012 306.906 C 214.861 306.305,214.270 304.820,213.697 303.606 C 213.125 302.393,212.689 301.265,212.729 301.100 C 212.768 300.935,212.634 300.800,212.432 300.800 C 212.229 300.800,211.945 300.260,211.800 299.600 C 211.655 298.940,211.394 298.400,211.220 298.400 C 211.046 298.400,210.681 297.603,210.408 296.628 C 210.135 295.653,209.603 294.525,209.225 294.119 C 208.848 293.714,208.613 293.162,208.703 292.891 C 208.793 292.621,208.695 292.400,208.485 292.400 C 208.276 292.400,207.877 291.590,207.600 290.600 C 207.323 289.610,206.954 288.800,206.780 288.800 C 206.606 288.800,206.345 288.260,206.200 287.600 C 206.055 286.940,205.794 286.400,205.620 286.400 C 205.446 286.400,205.077 285.590,204.800 284.600 C 204.523 283.610,204.139 282.800,203.948 282.800 C 203.757 282.800,203.600 282.601,203.600 282.357 C 203.600 281.673,201.842 278.000,201.515 278.000 C 201.356 278.000,201.320 277.754,201.435 277.453 C 201.563 277.119,201.292 276.813,200.740 276.668 C 199.600 276.370,199.439 276.533,199.957 277.461 C 200.344 278.156,202.914 283.701,204.284 286.800 C 204.624 287.570,205.691 289.861,206.656 291.891 C 207.620 293.922,209.029 296.982,209.786 298.691 C 213.978 308.161,214.421 308.935,215.887 309.347 C 218.356 310.040,218.720 309.554,223.480 299.200 C 224.239 297.550,225.499 294.850,226.280 293.200 C 227.061 291.550,228.465 288.580,229.400 286.600 C 230.336 284.620,231.870 281.394,232.810 279.431 L 234.520 275.863 233.254 274.731 C 230.123 271.934,224.066 273.298,222.294 277.200 C 221.944 277.970,220.835 280.362,219.829 282.515 C 218.823 284.669,218.000 286.564,218.000 286.726 C 218.000 289.164,216.647 288.682,215.173 285.721 C 214.319 284.004,213.616 282.454,213.610 282.276 C 213.585 281.460,210.292 275.131,209.517 274.409 C 208.382 273.351,202.321 273.220,200.889 274.223 M271.000 274.964 L 269.960 276.328 270.026 287.192 L 270.092 298.057 271.406 300.757 C 273.237 304.519,278.830 309.703,279.902 308.631 C 280.025 308.508,280.366 308.606,280.659 308.849 C 283.005 310.796,292.146 308.975,294.398 306.111 C 294.879 305.500,295.320 305.090,295.378 305.200 C 295.608 305.636,297.670 302.743,298.641 300.624 L 299.669 298.377 299.626 287.089 C 299.573 273.203,299.815 273.857,294.656 273.684 C 291.423 273.576,291.129 273.634,290.197 274.566 L 289.200 275.564 289.200 285.968 L 289.200 296.373 287.787 297.787 C 286.718 298.856,286.039 299.200,285.000 299.200 C 283.961 299.200,283.282 298.856,282.213 297.787 L 280.800 296.373 280.800 285.968 L 280.800 275.564 279.818 274.582 C 278.098 272.861,272.416 273.108,271.000 274.964 M310.255 274.655 L 309.200 275.709 309.200 291.626 L 309.200 307.542 310.254 308.371 C 311.683 309.495,330.162 309.688,329.735 308.574 C 329.524 308.026,328.318 307.964,319.986 308.074 C 311.002 308.193,310.499 308.161,310.856 307.494 C 311.077 307.083,311.220 300.565,311.199 291.894 C 311.180 283.702,311.172 276.678,311.182 276.286 C 311.198 275.642,311.582 275.582,315.024 275.686 L 318.848 275.800 318.813 287.696 C 318.794 294.239,318.674 299.864,318.546 300.196 C 318.273 300.908,317.944 300.871,324.700 300.891 L 330.000 300.907 330.000 304.453 C 330.000 306.683,330.157 308.000,330.424 308.000 C 330.657 308.000,330.731 308.225,330.589 308.500 C 330.447 308.775,330.702 308.550,331.156 308.000 C 331.819 307.197,331.984 306.432,331.991 304.120 C 332.004 299.799,331.088 299.200,324.462 299.200 L 319.600 299.200 319.600 287.270 L 319.600 275.339 318.674 274.470 C 317.182 273.068,311.722 273.187,310.255 274.655 M334.586 274.415 C 333.764 275.323,333.330 279.033,333.770 281.381 C 334.083 283.052,335.759 284.335,335.532 282.731 C 335.459 282.219,335.130 281.800,334.800 281.800 C 334.348 281.800,334.170 281.214,334.078 279.417 C 333.851 275.000,332.703 275.384,345.754 275.512 L 357.144 275.624 357.272 279.213 C 357.349 281.362,357.240 282.860,357.000 282.946 C 356.780 283.026,356.708 283.208,356.839 283.351 C 356.970 283.494,357.555 283.236,358.139 282.777 C 359.736 281.520,359.741 276.250,358.145 274.655 L 357.091 273.600 346.207 273.600 C 335.765 273.600,335.294 273.633,334.586 274.415 M279.107 285.515 C 279.195 293.516,279.316 295.269,279.788 295.451 C 280.244 295.626,280.266 295.825,279.897 296.417 C 279.345 297.301,281.770 299.892,283.823 300.613 C 285.314 301.137,287.648 300.444,288.166 299.324 C 288.368 298.889,288.908 298.368,289.366 298.166 C 289.877 297.942,290.211 297.412,290.227 296.800 C 290.243 296.250,290.377 295.530,290.525 295.200 C 290.674 294.870,290.842 290.370,290.898 285.200 L 291.000 275.800 295.100 275.686 L 299.200 275.572 299.200 286.186 C 299.200 295.354,299.118 296.800,298.600 296.800 C 298.210 296.800,298.000 297.191,298.000 297.920 C 298.000 298.536,297.849 299.211,297.664 299.420 C 297.479 299.629,297.090 300.403,296.799 301.140 C 296.171 302.731,292.918 306.182,291.676 306.576 C 291.194 306.729,290.800 307.041,290.800 307.270 C 290.800 307.498,290.523 307.579,290.185 307.450 C 289.847 307.320,289.480 307.448,289.370 307.735 C 289.241 308.069,288.721 308.191,287.921 308.074 C 286.942 307.930,286.721 308.018,286.898 308.478 C 287.077 308.945,286.678 309.084,284.967 309.153 C 283.161 309.226,282.848 309.140,283.048 308.620 C 283.229 308.147,283.008 308.000,282.109 308.000 C 281.463 308.000,280.798 307.865,280.633 307.700 C 280.468 307.535,280.213 307.387,280.067 307.371 C 279.138 307.272,277.160 305.970,275.715 304.506 C 274.788 303.568,273.833 302.800,273.591 302.800 C 273.350 302.800,273.248 302.646,273.364 302.459 C 273.629 302.030,272.735 299.600,272.312 299.600 C 272.141 299.600,272.000 298.989,272.000 298.243 C 272.000 297.405,271.770 296.797,271.400 296.655 C 270.888 296.459,270.800 294.898,270.800 285.999 L 270.800 275.572 274.900 275.686 L 279.000 275.800 279.107 285.515 M341.400 282.800 C 341.264 283.020,339.948 283.235,338.476 283.277 L 335.800 283.354 338.300 283.496 L 340.800 283.638 340.800 295.375 C 340.800 306.685,340.830 307.146,341.630 308.056 C 342.087 308.575,342.347 308.775,342.207 308.500 C 342.067 308.225,342.143 308.000,342.376 308.000 C 342.666 308.000,342.800 303.942,342.800 295.200 C 342.800 282.381,342.624 280.820,341.400 282.800 M350.936 283.470 C 351.218 283.751,356.073 283.660,356.366 283.368 C 356.458 283.275,355.213 283.200,353.600 283.200 C 351.987 283.200,350.788 283.321,350.936 283.470 M36.100 289.425 C 35.825 289.723,35.600 290.052,35.600 290.157 C 35.600 290.262,35.407 290.855,35.172 291.474 C 34.936 292.093,34.772 292.670,34.806 292.755 C 34.840 292.841,34.702 293.021,34.500 293.155 C 34.297 293.290,33.931 293.985,33.686 294.700 L 33.242 296.000 36.621 296.000 C 38.607 296.000,40.000 295.835,40.000 295.600 C 40.000 295.380,39.820 295.200,39.600 295.200 C 39.380 295.200,39.200 294.930,39.200 294.600 C 39.200 294.270,39.026 294.000,38.813 294.000 C 38.599 294.000,38.529 293.730,38.655 293.400 C 38.782 293.070,38.710 292.800,38.495 292.800 C 38.280 292.800,37.876 291.985,37.597 290.990 C 37.014 288.908,36.792 288.676,36.100 289.425 M248.226 291.000 C 248.082 291.770,247.781 292.400,247.558 292.400 C 247.335 292.400,247.276 292.600,247.428 292.845 C 247.579 293.089,247.544 293.404,247.351 293.545 C 246.266 294.335,245.629 296.391,246.522 296.224 C 247.005 296.133,248.447 296.046,249.727 296.030 C 251.982 296.001,252.688 295.030,251.204 294.000 C 251.046 293.890,250.683 293.085,250.398 292.211 C 249.928 290.773,249.154 289.600,248.673 289.600 C 248.572 289.600,248.371 290.230,248.226 291.000 M37.054 293.879 C 36.484 294.450,35.511 293.590,36.025 292.970 C 36.489 292.411,36.576 292.414,36.907 293.005 C 37.108 293.365,37.175 293.759,37.054 293.879 M249.600 294.224 C 249.600 294.541,249.330 294.800,249.000 294.800 C 248.327 294.800,248.300 294.727,248.642 293.835 C 248.923 293.103,249.600 293.377,249.600 294.224 M134.191 301.035 C 133.938 301.141,133.867 302.219,134.005 303.863 C 134.200 306.187,134.139 306.543,133.514 306.707 C 132.790 306.896,132.487 308.400,133.173 308.400 C 134.229 308.400,135.200 306.024,135.200 303.438 C 135.200 300.903,135.096 300.655,134.191 301.035 M29.553 304.000 C 29.289 304.880,28.922 305.600,28.737 305.600 C 28.552 305.600,28.400 305.793,28.400 306.029 C 28.400 306.264,28.130 306.727,27.800 307.057 C 27.078 307.779,27.022 308.400,27.678 308.400 C 28.320 308.400,30.400 306.378,30.400 305.754 C 30.400 303.865,41.603 302.920,42.187 304.759 C 42.429 305.520,44.948 308.400,45.373 308.400 C 45.883 308.400,45.555 306.868,45.000 306.655 C 44.670 306.529,44.400 306.149,44.400 305.813 C 44.400 305.476,44.175 305.200,43.900 305.200 C 43.625 305.200,43.373 304.726,43.339 304.147 C 43.246 302.549,42.681 302.413,36.116 302.406 L 30.032 302.400 29.553 304.000 M51.600 307.600 C 51.600 308.547,51.853 308.604,52.629 307.829 C 53.404 307.053,53.347 306.800,52.400 306.800 C 51.867 306.800,51.600 307.067,51.600 307.600 M111.200 307.120 C 111.200 307.534,112.066 308.400,112.480 308.400 C 112.656 308.400,112.800 308.040,112.800 307.600 C 112.800 307.067,112.533 306.800,112.000 306.800 C 111.560 306.800,111.200 306.944,111.200 307.120 M151.600 307.600 C 151.600 308.547,151.853 308.604,152.629 307.829 C 153.404 307.053,153.347 306.800,152.400 306.800 C 151.867 306.800,151.600 307.067,151.600 307.600 M349.600 307.584 C 349.600 307.795,348.129 308.020,346.332 308.084 C 344.161 308.161,343.009 308.368,342.899 308.700 C 342.637 309.490,349.163 309.382,350.311 308.577 C 351.416 307.804,351.455 307.200,350.400 307.200 C 349.960 307.200,349.600 307.373,349.600 307.584 " stroke="none" fill="#324433" fill-rule="evenodd"></path><path id="path3" d="M10.056 53.125 C 10.159 53.857,9.936 53.994,9.242 53.622 C 8.679 53.321,8.358 53.369,7.993 53.808 C 7.723 54.134,7.276 54.400,7.000 54.400 C 6.724 54.400,6.276 54.668,6.004 54.996 C 5.732 55.323,5.380 55.511,5.221 55.413 C 5.063 55.315,4.084 56.037,3.046 57.018 C 2.009 57.998,1.273 58.800,1.412 58.800 C 1.551 58.800,1.291 59.406,0.833 60.147 C -0.179 61.783,-0.324 63.167,0.596 62.404 C 0.923 62.132,1.093 61.750,0.972 61.555 C 0.851 61.360,0.943 61.200,1.176 61.200 C 1.409 61.200,1.600 60.954,1.600 60.654 C 1.600 59.787,5.287 56.278,7.120 55.400 C 8.039 54.960,8.793 54.496,8.795 54.369 C 8.798 54.242,9.315 54.214,9.944 54.306 C 10.813 54.434,11.135 54.293,11.285 53.718 C 11.423 53.190,11.262 52.945,10.750 52.906 C 10.347 52.876,10.034 52.975,10.056 53.125 M369.037 53.139 C 368.579 53.882,369.216 54.490,370.247 54.293 C 370.771 54.193,371.200 54.246,371.200 54.411 C 371.200 54.576,371.813 54.826,372.561 54.966 C 373.310 55.107,374.024 55.487,374.149 55.811 C 374.273 56.135,374.617 56.400,374.913 56.400 C 376.158 56.400,379.600 61.409,379.600 63.221 C 379.600 63.650,379.855 64.000,380.168 64.000 C 380.857 64.000,380.279 61.405,379.360 60.369 C 379.052 60.021,378.800 59.560,378.800 59.344 C 378.800 59.128,378.395 58.515,377.900 57.983 C 377.405 57.451,377.049 56.864,377.110 56.678 C 377.170 56.492,377.050 56.446,376.842 56.574 C 376.634 56.703,376.090 56.332,375.632 55.750 C 375.174 55.168,374.800 54.823,374.800 54.984 C 374.800 55.145,374.025 54.822,373.077 54.267 C 371.957 53.610,371.161 53.377,370.800 53.600 C 370.441 53.822,370.084 53.720,369.784 53.311 C 369.456 52.862,369.240 52.812,369.037 53.139 M380.267 64.667 C 379.744 65.190,379.956 242.196,380.480 242.720 C 380.853 243.093,380.809 243.200,380.280 243.200 C 379.859 243.200,379.600 243.515,379.600 244.029 C 379.600 244.485,379.159 245.610,378.621 246.529 C 378.082 247.448,377.592 248.380,377.532 248.600 C 377.378 249.168,375.373 250.800,374.830 250.800 C 374.580 250.800,374.273 251.065,374.149 251.389 C 374.024 251.713,373.310 252.093,372.561 252.234 C 371.813 252.374,371.200 252.624,371.200 252.789 C 371.200 252.954,370.731 252.999,370.157 252.890 C 369.517 252.767,368.979 252.905,368.764 253.245 C 368.127 254.250,368.384 254.502,369.379 253.850 C 369.982 253.456,370.453 253.361,370.603 253.606 C 370.763 253.863,371.102 253.867,371.572 253.615 C 371.969 253.402,372.408 253.342,372.547 253.481 C 372.686 253.620,372.800 253.535,372.800 253.294 C 372.800 252.940,374.350 252.148,374.688 252.330 C 375.794 252.926,381.454 243.622,380.767 242.338 C 380.540 241.914,380.435 207.099,380.497 153.021 C 380.554 104.280,380.585 64.400,380.567 64.400 C 380.548 64.400,380.413 64.520,380.267 64.667 M385.716 71.737 C 385.601 71.923,386.923 72.014,388.653 71.941 L 391.800 71.808 391.927 72.904 C 392.040 73.888,391.928 74.000,390.827 74.000 C 389.601 74.000,389.600 74.001,389.594 76.300 C 389.587 78.918,389.062 80.199,388.406 79.200 C 388.189 78.870,388.009 77.565,388.006 76.300 C 388.003 75.035,387.865 74.021,387.700 74.047 C 386.735 74.200,386.036 73.913,385.876 73.300 C 385.731 72.745,385.683 72.777,385.646 73.453 C 385.616 74.004,385.895 74.384,386.430 74.524 C 387.151 74.712,387.252 75.023,387.196 76.870 C 387.085 80.538,387.047 80.441,388.500 80.160 C 389.215 80.022,389.980 79.900,390.200 79.889 C 390.424 79.877,390.600 78.710,390.600 77.234 C 390.600 74.923,390.692 74.600,391.351 74.600 C 392.015 74.600,392.103 74.928,392.105 77.400 L 392.108 80.200 395.254 80.200 C 398.485 80.200,398.838 80.061,397.800 79.200 C 397.348 78.825,397.064 78.815,396.651 79.158 C 396.001 79.697,394.800 78.175,394.800 76.814 C 394.800 75.251,394.045 76.014,393.923 77.700 C 393.691 80.903,393.000 79.255,393.000 75.500 L 393.000 71.800 394.000 71.895 C 394.791 71.970,394.867 71.910,394.364 71.611 C 393.593 71.152,386.011 71.262,385.716 71.737 M397.600 71.558 C 396.767 71.790,396.715 71.881,397.287 72.101 C 397.665 72.246,398.070 72.210,398.188 72.020 C 398.305 71.830,398.806 71.764,399.300 71.872 C 400.023 72.031,400.082 71.985,399.600 71.641 C 398.936 71.166,398.998 71.169,397.600 71.558 M18.829 73.054 L 18.000 74.108 18.000 153.784 L 18.000 233.461 18.926 234.330 L 19.852 235.200 99.726 235.200 C 179.067 235.200,179.605 235.195,180.400 234.400 C 181.663 233.137,181.663 74.063,180.400 72.800 C 179.605 72.005,179.067 72.000,99.629 72.000 L 19.658 72.000 18.829 73.054 M199.782 72.982 L 198.800 73.964 198.800 153.528 L 198.800 233.092 199.629 234.146 L 200.458 235.200 280.429 235.200 C 359.867 235.200,360.405 235.195,361.200 234.400 C 361.995 233.605,362.000 233.067,362.000 153.423 L 362.000 73.245 361.111 72.623 C 360.314 72.064,352.007 72.000,280.493 72.000 L 200.764 72.000 199.782 72.982 M395.200 72.776 C 395.200 73.203,395.372 73.659,395.583 73.789 C 395.793 73.919,395.867 74.281,395.747 74.594 C 395.373 75.569,396.025 76.144,396.582 75.329 C 397.742 73.632,397.719 71.569,396.557 73.100 C 396.065 73.748,396.025 73.733,396.013 72.900 C 396.006 72.405,395.820 72.000,395.600 72.000 C 395.380 72.000,395.200 72.349,395.200 72.776 M180.389 73.579 C 181.064 74.840,180.759 233.401,180.080 234.080 C 179.284 234.876,20.420 234.847,19.461 234.051 C 18.601 233.337,18.421 74.139,19.280 73.280 C 20.242 72.318,179.873 72.615,180.389 73.579 M361.186 73.574 C 361.901 74.910,361.750 232.842,361.032 233.824 C 360.242 234.904,202.174 235.268,200.534 234.194 L 199.600 233.582 199.600 153.671 C 199.600 92.051,199.710 73.650,200.080 73.280 C 201.037 72.323,360.672 72.614,361.186 73.574 M399.200 79.600 C 398.883 79.796,398.756 80.089,398.918 80.252 C 399.081 80.414,399.423 80.337,399.680 80.080 C 400.284 79.476,399.947 79.138,399.200 79.600 M93.405 84.861 C 59.195 88.421,36.392 126.065,46.751 161.878 C 54.782 189.639,86.418 225.608,100.897 223.436 C 115.431 221.257,142.540 189.398,150.791 164.800 C 164.791 123.062,134.312 80.605,93.405 84.861 M111.289 86.559 C 145.444 95.401,162.783 133.781,148.562 169.067 C 138.656 193.647,113.007 221.950,99.933 222.728 C 85.125 223.609,54.609 187.984,47.058 161.000 C 35.083 118.204,71.315 76.211,111.289 86.559 M220.600 89.172 C 217.337 90.560,217.004 93.087,219.411 98.200 C 220.447 100.400,222.064 103.910,223.005 106.000 C 223.945 108.090,226.374 113.400,228.401 117.800 C 230.428 122.200,233.030 127.870,234.183 130.400 C 237.594 137.884,251.960 169.186,253.243 171.928 C 253.893 173.318,256.742 179.528,259.574 185.728 C 262.405 191.928,265.930 199.610,267.406 202.800 C 268.883 205.990,270.539 209.590,271.087 210.800 C 276.121 221.912,276.517 222.401,280.480 222.399 C 283.367 222.396,284.900 221.400,286.138 218.718 C 286.676 217.553,287.788 215.160,288.608 213.400 C 289.429 211.640,291.177 207.860,292.494 205.000 C 293.810 202.140,295.429 198.630,296.092 197.200 C 296.755 195.770,299.776 189.200,302.806 182.600 C 305.836 176.000,309.072 168.980,309.998 167.000 C 310.924 165.020,312.455 161.690,313.400 159.600 C 314.345 157.510,315.883 154.180,316.818 152.200 C 317.753 150.220,319.457 146.530,320.605 144.000 C 322.594 139.617,328.915 125.878,331.095 121.200 C 343.571 94.426,343.845 93.753,343.046 91.866 C 341.814 88.955,342.030 89.000,329.166 89.000 L 317.615 89.000 316.465 90.200 C 315.832 90.860,314.453 93.380,313.401 95.800 C 312.348 98.220,309.820 103.890,307.782 108.400 C 305.744 112.910,302.364 120.470,300.271 125.200 C 298.178 129.930,294.364 138.480,291.797 144.200 C 289.230 149.920,286.504 156.040,285.741 157.800 C 284.977 159.560,284.188 161.360,283.987 161.800 C 283.787 162.240,282.998 163.995,282.234 165.700 C 281.470 167.405,280.700 168.796,280.523 168.792 C 280.345 168.788,277.822 163.433,274.915 156.892 C 272.009 150.351,265.650 136.090,260.784 125.200 C 255.918 114.310,250.498 102.160,248.740 98.200 C 246.982 94.240,245.102 90.550,244.563 90.000 L 243.583 89.000 232.492 88.916 C 226.391 88.870,221.040 88.985,220.600 89.172 M243.200 89.901 C 244.614 90.607,245.059 91.289,247.046 95.800 C 247.628 97.120,248.996 100.180,250.086 102.600 C 251.177 105.020,253.023 109.160,254.188 111.800 C 256.173 116.297,260.023 124.924,270.788 149.000 C 273.247 154.500,276.349 161.475,277.681 164.500 C 279.014 167.525,280.272 170.000,280.478 170.000 C 280.841 170.000,282.741 166.137,285.397 160.000 C 286.111 158.350,288.591 152.770,290.907 147.600 C 293.224 142.430,297.045 133.880,299.399 128.600 C 301.752 123.320,304.004 118.280,304.402 117.400 C 304.800 116.520,307.490 110.492,310.379 104.005 C 317.691 87.588,315.642 89.200,329.200 89.200 C 339.532 89.200,340.861 89.410,342.148 91.247 C 343.512 93.194,343.667 92.778,333.205 115.200 C 331.613 118.610,329.630 122.930,328.797 124.800 C 327.964 126.670,326.431 130.000,325.390 132.200 C 324.350 134.400,322.101 139.260,320.393 143.000 C 318.685 146.740,314.458 155.920,311.000 163.400 C 307.541 170.880,303.855 178.890,302.808 181.200 C 300.419 186.471,299.595 188.265,294.909 198.400 C 292.824 202.910,289.745 209.570,288.068 213.200 C 284.544 220.824,284.087 221.403,281.295 221.787 C 276.892 222.392,277.270 222.918,268.793 204.400 C 262.537 190.733,260.096 185.413,258.699 182.404 C 257.543 179.912,250.091 163.684,238.402 138.200 C 235.374 131.600,232.400 125.120,231.792 123.800 C 214.417 86.048,214.397 89.329,232.000 89.247 C 240.589 89.207,241.973 89.288,243.200 89.901 M50.501 146.254 C 48.398 146.725,49.270 155.165,52.190 162.603 C 57.418 175.919,71.994 184.431,89.800 184.567 L 94.200 184.600 94.329 182.800 C 95.154 171.314,89.131 159.019,79.447 152.420 C 73.233 148.185,57.168 144.763,50.501 146.254 M138.400 146.255 C 132.757 147.082,130.890 147.469,127.694 148.475 C 113.792 152.851,105.888 163.102,104.319 178.794 C 103.714 184.846,103.692 184.800,107.167 184.800 C 122.815 184.800,137.526 177.929,143.725 167.724 C 147.910 160.835,150.739 147.365,148.203 146.401 C 147.217 146.026,140.633 145.928,138.400 146.255 M63.886 147.401 C 80.843 150.151,91.109 160.450,93.392 177.000 C 93.856 180.364,93.921 182.204,93.644 184.100 C 93.536 184.837,83.755 183.903,78.275 182.632 C 61.808 178.813,51.346 167.178,50.136 151.337 C 49.999 149.542,49.996 147.787,50.131 147.437 C 50.459 146.580,58.692 146.559,63.886 147.401 M148.400 149.148 C 148.400 169.579,130.911 184.400,106.803 184.400 C 104.342 184.400,104.424 184.606,104.858 179.496 C 106.645 158.506,120.037 147.010,142.900 146.841 L 148.400 146.800 148.400 149.148 M0.003 245.051 C 0.004 245.463,0.354 246.329,0.780 246.975 C 1.206 247.621,1.447 248.324,1.315 248.537 C 1.184 248.750,1.284 248.795,1.538 248.638 C 1.792 248.481,2.000 248.542,2.000 248.773 C 2.000 249.511,4.868 251.809,6.800 252.621 C 10.394 254.130,11.661 254.413,11.519 253.674 C 11.432 253.221,10.997 253.000,10.195 253.000 C 9.538 253.000,8.910 252.908,8.800 252.796 C 8.690 252.684,7.899 252.234,7.042 251.796 C 5.253 250.882,1.600 247.357,1.600 246.546 C 1.600 246.246,1.409 246.000,1.176 246.000 C 0.943 246.000,0.851 245.840,0.972 245.645 C 1.093 245.450,0.923 245.068,0.596 244.796 C 0.104 244.388,0.000 244.433,0.003 245.051 M100.900 254.300 C 149.905 254.356,230.095 254.356,279.100 254.300 C 328.105 254.244,288.010 254.198,190.000 254.198 C 91.990 254.198,51.895 254.244,100.900 254.300 " stroke="none" fill="#6e8c5f" fill-rule="evenodd"></path></g></svg>