<svg version="1.1" id="Layer_1" xmlns="http://www.w3.org/2000/svg" xmlns:xlink="http://www.w3.org/1999/xlink" x="0px" y="0px"
	 width="100%" viewBox="0 0 300 300" enable-background="new 0 0 300 300" xml:space="preserve">
<path fill="#005EB8" opacity="1.000000" stroke="none" 
	d="
M193.000000,301.000000 
	C128.666672,301.000000 64.833359,301.000000 1.000026,301.000000 
	C1.000017,201.000031 1.000017,101.000061 1.000009,1.000066 
	C100.999947,1.000044 200.999893,1.000044 300.999878,1.000022 
	C300.999939,100.999939 300.999939,200.999878 300.999969,300.999908 
	C265.166656,301.000000 229.333328,301.000000 193.000000,301.000000 
M187.325424,133.560150 
	C174.111740,133.443253 160.898117,133.314377 147.684174,133.249954 
	C147.110901,133.247147 146.534744,133.837006 145.178619,134.469009 
	C131.653290,135.221634 118.297554,136.868805 105.651337,142.133728 
	C80.636284,152.548080 68.997101,173.705475 72.042313,203.177551 
	C74.471214,226.684814 90.667343,243.317856 116.229561,248.061371 
	C140.690933,252.600601 163.952896,248.359665 186.091309,237.442612 
	C189.362366,235.829575 191.984131,235.693115 195.402863,237.230606 
	C206.721130,242.320786 218.823395,242.947495 231.607239,242.887253 
	C231.607239,240.743393 231.607239,238.955917 231.607239,237.168442 
	C231.607162,208.007477 231.639954,178.846451 231.593506,149.685547 
	C231.569351,134.524612 232.002518,119.331192 231.173981,104.210243 
	C229.674026,76.835785 215.421509,61.077995 188.541245,56.011494 
	C169.129456,52.352684 149.604065,53.169041 130.371078,56.647758 
	C116.687607,59.122726 103.338997,63.495480 89.915352,67.284836 
	C88.648865,67.642342 86.836868,70.161880 87.103317,71.216499 
	C89.539330,80.858231 92.379662,90.397812 95.199539,100.310081 
	C97.487038,99.629555 99.357628,99.052895 101.239639,98.516266 
	C121.686981,92.685936 142.333725,88.372635 163.786102,90.823853 
	C172.324799,91.799507 180.406311,94.252548 184.849762,102.338928 
	C190.337051,112.324944 189.910873,123.165939 187.325424,133.560150 
z"/>
<path fill="#FCFDFE" opacity="1.000000" stroke="none" 
	d="
M188.011322,134.028107 
	C189.910873,123.165939 190.337051,112.324944 184.849762,102.338928 
	C180.406311,94.252548 172.324799,91.799507 163.786102,90.823853 
	C142.333725,88.372635 121.686981,92.685936 101.239639,98.516266 
	C99.357628,99.052895 97.487038,99.629555 95.199539,100.310081 
	C92.379662,90.397812 89.539330,80.858231 87.103317,71.216499 
	C86.836868,70.161880 88.648865,67.642342 89.915352,67.284836 
	C103.338997,63.495480 116.687607,59.122726 130.371078,56.647758 
	C149.604065,53.169041 169.129456,52.352684 188.541245,56.011494 
	C215.421509,61.077995 229.674026,76.835785 231.173981,104.210243 
	C232.002518,119.331192 231.569351,134.524612 231.593506,149.685547 
	C231.639954,178.846451 231.607162,208.007477 231.607239,237.168442 
	C231.607239,238.955917 231.607239,240.743393 231.607239,242.887253 
	C218.823395,242.947495 206.721130,242.320786 195.402863,237.230606 
	C191.984131,235.693115 189.362366,235.829575 186.091309,237.442612 
	C163.952896,248.359665 140.690933,252.600601 116.229561,248.061371 
	C90.667343,243.317856 74.471214,226.684814 72.042313,203.177551 
	C68.997101,173.705475 80.636284,152.548080 105.651337,142.133728 
	C118.297554,136.868805 131.653290,135.221634 146.031845,134.410355 
	C160.593826,134.243835 174.302567,134.135971 188.011322,134.028107 
M189.649948,203.789505 
	C189.649948,190.353836 189.649948,176.918167 189.649948,164.240723 
	C177.300705,164.240723 165.529022,164.025726 153.770203,164.322006 
	C146.808594,164.497421 139.787506,165.023361 132.937790,166.219696 
	C124.949745,167.614838 118.187775,171.398193 114.666748,179.331100 
	C106.596054,197.514465 116.387161,214.393066 136.098648,216.149719 
	C154.334106,217.774841 171.311157,212.446045 188.131378,206.424194 
	C188.757599,206.199997 189.125031,205.252960 189.649948,203.789505 
z"/>
<path fill="#0053B2" opacity="1.000000" stroke="none" 
	d="
M187.668365,133.794128 
	C174.302567,134.135971 160.593826,134.243835 146.422516,134.251251 
	C146.534744,133.837006 147.110901,133.247147 147.684174,133.249954 
	C160.898117,133.314377 174.111740,133.443253 187.668365,133.794128 
z"/>
<path fill="#0360B9" opacity="1.000000" stroke="none" 
	d="
M189.631500,204.216156 
	C189.125031,205.252960 188.757599,206.199997 188.131378,206.424194 
	C171.311157,212.446045 154.334106,217.774841 136.098648,216.149719 
	C116.387161,214.393066 106.596054,197.514465 114.666748,179.331100 
	C118.187775,171.398193 124.949745,167.614838 132.937790,166.219696 
	C139.787506,165.023361 146.808594,164.497421 153.770203,164.322006 
	C165.529022,164.025726 177.300705,164.240723 189.649948,164.240723 
	C189.649948,176.918167 189.649948,190.353836 189.631500,204.216156 
z"/>
</svg>