<svg id="svg" version="1.1" xmlns="http://www.w3.org/2000/svg" xmlns:xlink="http://www.w3.org/1999/xlink" width="400" height="400" viewBox="0, 0, 400,400"><g id="svgg"><path id="path0" d="M92.489 112.223 L 91.600 112.845 91.600 132.637 C 91.600 154.661,91.355 152.634,94.482 156.456 C 95.317 157.476,96.000 158.501,96.000 158.733 C 96.000 158.965,96.328 159.390,96.729 159.677 C 97.584 160.290,101.645 165.042,102.922 166.924 C 104.001 168.514,108.917 174.425,110.700 176.277 C 111.415 177.019,112.000 177.801,112.000 178.013 C 112.000 178.226,112.315 178.719,112.700 179.109 C 113.085 179.498,114.791 181.523,116.492 183.609 C 118.192 185.694,120.553 188.570,121.739 190.000 C 122.925 191.430,126.082 195.300,128.755 198.600 C 131.428 201.900,135.081 206.355,136.872 208.500 C 138.663 210.645,140.431 212.895,140.800 213.500 C 141.168 214.105,141.781 214.857,142.162 215.171 C 143.402 216.195,144.063 217.850,143.439 218.368 C 143.053 218.688,136.097 218.813,119.106 218.807 C 106.021 218.801,94.736 218.913,94.030 219.054 C 91.437 219.573,91.563 217.775,91.583 254.057 L 91.600 287.000 92.445 287.700 C 94.085 289.060,268.177 288.617,271.710 287.244 C 272.321 287.006,274.031 286.620,275.510 286.385 C 280.494 285.594,287.638 283.202,291.508 281.030 C 292.713 280.353,294.567 279.331,295.628 278.758 C 301.437 275.623,309.571 267.485,310.973 263.406 C 311.222 262.684,311.623 261.847,311.864 261.546 C 317.374 254.690,319.640 233.978,316.001 223.726 C 315.548 222.446,314.909 220.590,314.582 219.600 C 313.930 217.623,312.637 215.049,310.217 210.908 C 308.299 207.626,300.682 199.808,297.800 198.164 C 295.734 196.985,291.381 193.816,291.015 193.224 C 290.901 193.040,291.972 191.701,293.396 190.249 C 294.819 188.797,296.483 186.871,297.092 185.968 C 300.387 181.086,301.290 179.647,302.020 178.117 C 302.461 177.191,302.980 176.336,303.171 176.218 C 303.363 176.099,303.742 175.057,304.013 173.901 C 304.285 172.746,304.746 171.328,305.037 170.751 C 305.329 170.175,305.845 167.848,306.184 165.581 C 308.353 151.070,303.277 136.187,292.906 126.655 C 289.920 123.911,285.975 120.800,285.481 120.800 C 285.251 120.800,284.779 120.556,284.431 120.258 C 283.767 119.689,281.029 118.239,278.000 116.854 C 275.326 115.632,270.464 114.110,268.267 113.807 C 267.203 113.661,265.583 113.269,264.667 112.937 C 260.629 111.473,94.542 110.785,92.489 112.223 M241.169 153.849 C 254.456 159.145,254.296 175.479,240.913 179.966 C 238.449 180.792,237.983 180.800,192.841 180.800 C 143.186 180.800,146.353 180.944,145.778 178.656 C 145.227 176.460,145.786 153.579,146.400 153.191 C 146.769 152.958,164.659 152.810,192.769 152.806 L 238.537 152.800 241.169 153.849 M251.151 220.062 C 254.210 220.763,255.097 221.140,255.951 222.101 C 256.528 222.750,257.474 223.526,258.054 223.827 C 260.754 225.226,262.412 230.766,261.595 235.656 C 260.550 241.915,256.513 245.605,249.400 246.804 C 246.572 247.281,147.155 247.285,146.400 246.809 C 145.567 246.283,145.295 221.970,146.104 220.400 C 146.852 218.948,145.148 218.990,198.600 219.100 C 246.938 219.200,247.436 219.209,251.151 220.062 " stroke="none" fill="#fbfaf9" fill-rule="evenodd"></path><path id="path1" d="M0.000 200.000 L 0.000 400.000 200.000 400.000 L 400.000 400.000 400.000 200.000 L 400.000 0.000 200.000 0.000 L 0.000 0.000 0.000 200.000 M256.400 111.986 C 260.439 112.198,263.647 112.567,264.667 112.937 C 265.583 113.269,267.203 113.661,268.267 113.807 C 270.464 114.110,275.326 115.632,278.000 116.854 C 281.029 118.239,283.767 119.689,284.431 120.258 C 284.779 120.556,285.251 120.800,285.481 120.800 C 285.975 120.800,289.920 123.911,292.906 126.655 C 303.277 136.187,308.353 151.070,306.184 165.581 C 305.845 167.848,305.329 170.175,305.037 170.751 C 304.746 171.328,304.285 172.746,304.013 173.901 C 303.742 175.057,303.363 176.099,303.171 176.218 C 302.980 176.336,302.461 177.191,302.020 178.117 C 301.290 179.647,300.387 181.086,297.092 185.968 C 296.483 186.871,294.819 188.797,293.396 190.249 C 291.972 191.701,290.901 193.040,291.015 193.224 C 291.381 193.816,295.734 196.985,297.800 198.164 C 300.682 199.808,308.299 207.626,310.217 210.908 C 312.637 215.049,313.930 217.623,314.582 219.600 C 314.909 220.590,315.548 222.446,316.001 223.726 C 319.640 233.978,317.374 254.690,311.864 261.546 C 311.623 261.847,311.222 262.684,310.973 263.406 C 309.571 267.485,301.437 275.623,295.628 278.758 C 294.567 279.331,292.713 280.353,291.508 281.030 C 287.638 283.202,280.494 285.594,275.510 286.385 C 274.031 286.620,272.321 287.006,271.710 287.244 C 268.177 288.617,94.085 289.060,92.445 287.700 L 91.600 287.000 91.583 254.057 C 91.563 217.775,91.437 219.573,94.030 219.054 C 94.736 218.913,106.021 218.801,119.106 218.807 C 136.097 218.813,143.053 218.688,143.439 218.368 C 144.063 217.850,143.402 216.195,142.162 215.171 C 141.781 214.857,141.168 214.105,140.800 213.500 C 140.431 212.895,138.663 210.645,136.872 208.500 C 135.081 206.355,131.428 201.900,128.755 198.600 C 126.082 195.300,122.925 191.430,121.739 190.000 C 120.553 188.570,118.192 185.694,116.492 183.609 C 114.791 181.523,113.085 179.498,112.700 179.109 C 112.315 178.719,112.000 178.226,112.000 178.013 C 112.000 177.801,111.415 177.019,110.700 176.277 C 108.917 174.425,104.001 168.514,102.922 166.924 C 101.645 165.042,97.584 160.290,96.729 159.677 C 96.328 159.390,96.000 158.965,96.000 158.733 C 96.000 158.501,95.317 157.476,94.482 156.456 C 91.355 152.634,91.600 154.661,91.600 132.637 L 91.600 112.845 92.489 112.223 C 93.502 111.513,243.307 111.297,256.400 111.986 M146.400 153.191 C 145.786 153.579,145.227 176.460,145.778 178.656 C 146.353 180.944,143.186 180.800,192.841 180.800 C 237.983 180.800,238.449 180.792,240.913 179.966 C 254.296 175.479,254.456 159.145,241.169 153.849 L 238.537 152.800 192.769 152.806 C 164.659 152.810,146.769 152.958,146.400 153.191 M148.210 219.200 C 145.602 219.528,145.575 219.689,145.694 233.915 C 145.784 244.525,145.891 246.488,146.400 246.809 C 147.155 247.285,246.572 247.281,249.400 246.804 C 256.513 245.605,260.550 241.915,261.595 235.656 C 262.412 230.766,260.754 225.226,258.054 223.827 C 257.474 223.526,256.528 222.750,255.951 222.101 C 253.372 219.201,253.619 219.214,198.600 219.100 C 171.760 219.045,149.084 219.090,148.210 219.200 " stroke="none" fill="#f34c14" fill-rule="evenodd"></path></g></svg>