<svg version="1.1" id="Layer_1" xmlns="http://www.w3.org/2000/svg" xmlns:xlink="http://www.w3.org/1999/xlink" x="0px" y="0px"
	 width="100%" viewBox="0 0 400 400" enable-background="new 0 0 400 400" xml:space="preserve">
<path fill="#000000" opacity="1.000000" stroke="none" 
	d="
M254.053024,75.693558 
	C301.779144,75.805359 338.730896,107.611450 343.605194,154.334854 
	C344.740479,165.217239 347.663330,170.478287 357.364929,175.604141 
	C379.676392,187.392487 389.696564,214.273468 383.035522,238.701660 
	C376.354797,263.201904 354.219208,280.201904 328.808472,280.315308 
	C320.643738,280.351776 312.478149,280.261780 304.313934,280.336945 
	C300.514740,280.371918 297.404724,279.201874 297.207184,275.072388 
	C296.992523,270.585175 300.350525,269.118042 304.211029,269.047638 
	C312.540070,268.895782 320.877655,269.112610 329.202881,268.871338 
	C355.223358,268.117310 374.465759,247.597183 373.678467,221.607590 
	C373.075562,201.704208 357.933563,183.648361 337.851715,179.554398 
	C333.323914,178.631348 332.252563,176.883575 332.669830,172.576111 
	C335.039978,148.109299 328.021881,126.791893 310.500092,109.300194 
	C274.914154,73.775398 215.151505,81.814331 190.049606,125.403496 
	C188.580505,127.954567 187.593155,130.846741 185.521759,132.877930 
	C182.787659,132.708221 181.454041,130.799362 179.790527,129.517181 
	C145.196716,102.853516 96.482651,120.903900 87.783455,163.678055 
	C87.190704,166.592621 86.984825,169.638199 87.027283,172.616745 
	C87.084137,176.605316 85.565948,178.489609 81.464409,179.284424 
	C60.741657,183.300323 47.817677,196.427444 43.926910,216.959824 
	C39.197544,241.917679 59.725925,268.060059 85.100624,268.677734 
	C105.584549,269.176392 126.088821,268.857941 146.584076,268.868744 
	C176.744339,268.884644 206.904633,268.859039 237.064850,268.893433 
	C239.380020,268.896088 241.761459,268.952972 243.993271,269.484009 
	C246.939545,270.184998 248.476532,272.383820 248.151230,275.445618 
	C247.849594,278.284729 246.006485,279.860626 243.202103,280.233704 
	C242.216980,280.364746 241.206497,280.329315 240.207596,280.329254 
	C189.385040,280.326538 138.562332,280.395508 87.740013,280.280823 
	C62.011520,280.222778 39.729088,262.359467 33.634953,237.303802 
	C26.623327,208.475967 42.269825,179.905487 70.724884,170.093185 
	C74.261467,168.873642 75.664909,167.123535 76.345367,163.626785 
	C82.590004,131.536606 103.148643,111.308647 135.316193,106.228119 
	C149.882324,103.927551 163.952133,106.820816 176.781433,114.056404 
	C181.150101,116.520279 182.760910,115.407272 185.406601,111.864769 
	C202.386322,89.129494 225.202057,77.118370 254.053024,75.693558 
z"/>
<path fill="#000000" opacity="1.000000" stroke="none" 
	d="
M238.291733,206.232025 
	C248.449478,211.502182 249.020737,219.648895 239.953857,228.124008 
	C240.691452,230.994965 243.067703,233.014679 244.519730,235.559586 
	C245.959824,238.083603 248.421570,240.059052 248.991837,243.400665 
	C244.667084,244.983002 241.434723,244.543808 239.000931,240.503433 
	C237.200653,237.514771 235.016571,234.757904 233.016556,231.888641 
	C231.894501,230.278915 230.528625,229.045334 228.432526,229.763702 
	C226.531433,230.415237 227.085403,232.223953 227.011368,233.637985 
	C226.889526,235.965347 226.915771,238.300095 226.848602,240.630829 
	C226.768661,243.404434 225.208145,244.331680 222.584152,244.228073 
	C219.820023,244.118942 219.413177,242.487778 219.433517,240.207184 
	C219.524063,230.046921 219.661331,219.884109 219.509155,209.726303 
	C219.457794,206.297623 220.510666,204.876602 224.016418,204.944946 
	C228.684067,205.035950 233.340836,205.003403 238.291733,206.232025 
M238.301773,215.259842 
	C236.400772,211.986954 233.247452,211.694000 230.027542,212.058517 
	C225.978622,212.516891 227.164612,215.847504 227.013275,218.299530 
	C226.862946,220.735245 227.122299,223.013840 230.353561,223.383850 
	C235.209518,223.939896 238.358688,221.145935 238.301773,215.259842 
z"/>
<path fill="#000000" opacity="1.000000" stroke="none" 
	d="
M129.375336,221.418869 
	C132.073013,222.918396 131.312515,224.867325 130.850754,226.863434 
	C128.082748,228.023163 125.228043,227.374664 122.461670,227.362701 
	C118.839226,227.347046 116.117287,227.366379 116.108147,232.457047 
	C116.099403,237.316513 118.318497,238.025162 122.215263,237.712601 
	C124.361946,237.540421 126.535545,237.715637 128.696976,237.711853 
	C130.767456,237.708206 132.261658,238.256821 132.279480,240.757950 
	C132.295761,243.041580 131.269440,244.185516 129.017197,244.190262 
	C123.364761,244.202179 117.712105,244.206512 112.059883,244.166031 
	C109.776169,244.149689 108.814011,242.786911 108.809723,240.627991 
	C108.788612,229.986725 108.793854,219.345383 108.744423,208.704269 
	C108.732681,206.176987 109.995476,205.043777 112.391403,205.033325 
	C117.877213,205.009415 123.363609,204.987839 128.848892,205.046524 
	C130.917145,205.068649 132.295609,205.922974 132.325012,208.331055 
	C132.357361,210.978989 130.892883,211.837860 128.578384,211.870102 
	C126.084839,211.904816 123.588219,211.982590 121.097633,211.900009 
	C117.883293,211.793442 116.213081,212.855713 116.199951,216.464996 
	C116.187050,220.013412 117.691452,221.208084 120.985413,221.117538 
	C123.639069,221.044601 126.299797,221.228867 129.375336,221.418869 
z"/>
<path fill="#000000" opacity="1.000000" stroke="none" 
	d="
M271.040741,237.679047 
	C274.140076,238.476868 278.816742,235.612198 278.975128,240.748947 
	C279.149170,246.394211 274.230774,243.909790 271.420685,244.179413 
	C267.625458,244.543579 263.765808,244.185913 259.935944,244.255753 
	C257.090485,244.307632 255.633774,243.286469 255.658478,240.196930 
	C255.741058,229.869492 255.740326,219.540283 255.635208,209.213135 
	C255.604507,206.198410 256.911865,204.960617 259.785583,204.978897 
	C264.949402,205.011765 270.113464,205.004166 275.277405,205.019684 
	C277.556000,205.026520 279.160828,205.746979 279.178894,208.426758 
	C279.197266,211.148773 277.453918,211.793274 275.267059,211.873856 
	C272.938049,211.959686 270.600433,212.003006 268.273407,211.904190 
	C264.916565,211.761673 262.930939,212.694565 262.967804,216.625198 
	C263.002808,220.360519 264.958405,221.104813 268.053345,221.014114 
	C270.381531,220.945892 272.719696,220.992355 275.045166,221.128601 
	C276.884216,221.236359 278.195648,222.003433 278.192261,224.188110 
	C278.188568,226.592621 276.885925,227.397141 274.716156,227.372604 
	C272.884064,227.351868 271.051483,227.370117 269.219147,227.380554 
	C263.236084,227.414642 262.218384,228.604416 263.063141,234.477066 
	C263.813232,239.691696 267.938141,236.921371 271.040741,237.679047 
z"/>
<path fill="#000000" opacity="1.000000" stroke="none" 
	d="
M207.264191,236.913483 
	C201.880219,243.666016 195.281769,245.721283 188.119583,243.177353 
	C181.807251,240.935272 178.685745,235.708359 178.657364,227.271423 
	C178.637207,221.279007 178.697174,215.285934 178.628296,209.294235 
	C178.599213,206.764648 179.263306,205.081451 182.187302,205.068222 
	C185.274475,205.054245 185.530304,206.919601 185.493454,209.381119 
	C185.416275,214.534592 185.491623,219.692993 185.633102,224.845840 
	C185.692078,226.994080 185.885788,229.177231 186.359787,231.267044 
	C187.235031,235.125946 189.887390,237.345261 193.763718,237.552887 
	C197.671158,237.762177 200.444717,235.772446 201.695190,231.989334 
	C203.575516,226.300674 202.315079,220.419235 202.635590,214.633072 
	C202.764313,212.309479 202.657440,209.973557 202.753342,207.647186 
	C202.832138,205.735367 204.198898,205.152695 205.831741,205.093857 
	C207.349960,205.039169 209.419495,205.103729 209.338989,206.979370 
	C208.915283,216.850311 211.284805,226.916626 207.264191,236.913483 
z"/>
<path fill="#000000" opacity="1.000000" stroke="none" 
	d="
M309.046173,228.056427 
	C312.014618,225.679337 311.978912,223.704407 309.368683,221.329788 
	C305.186646,217.525284 301.189545,213.512756 297.204742,209.498367 
	C295.266113,207.545334 293.374664,205.096786 295.781433,202.555328 
	C298.389221,199.801590 300.955017,201.604034 303.098572,203.728592 
	C309.126953,209.703537 315.072968,215.762543 321.156616,221.680267 
	C323.259247,223.725540 323.478333,225.353195 321.279205,227.494995 
	C315.080017,233.532547 309.042572,239.735886 302.862244,245.793182 
	C300.889282,247.726883 298.472900,249.467224 295.941223,246.856445 
	C293.437866,244.274841 295.172394,241.969040 297.158173,239.962769 
	C301.021545,236.059525 304.917175,232.188187 309.046173,228.056427 
z"/>
<path fill="#000000" opacity="1.000000" stroke="none" 
	d="
M86.960739,228.064301 
	C84.786430,227.121796 82.922981,226.394882 81.148430,225.493073 
	C76.839294,223.303223 74.641838,219.864166 75.433281,214.937271 
	C76.231102,209.970642 79.228699,206.993088 84.071228,205.722031 
	C87.395348,204.849518 90.683762,205.104034 93.946068,205.859955 
	C98.164482,206.837418 99.129738,209.400940 97.305359,213.555862 
	C94.787422,212.916794 92.436569,212.150116 90.024887,211.751419 
	C87.066246,211.262283 84.104347,211.726303 82.866089,214.830963 
	C81.477058,218.313629 84.490974,219.462677 86.831383,220.642776 
	C89.202843,221.838577 91.736626,222.708755 94.133095,223.859467 
	C97.899612,225.668076 100.146332,228.694794 100.104042,232.908661 
	C100.062187,237.079575 97.768692,240.157425 94.201065,242.134460 
	C88.869995,245.088684 83.292389,244.789719 77.792068,242.696289 
	C75.038925,241.648438 74.840668,240.596741 75.629799,236.068542 
	C77.371117,234.974091 78.808701,236.357376 80.303886,236.793610 
	C82.577339,237.456924 84.844452,237.863037 87.190254,237.621338 
	C89.635300,237.369400 92.041542,236.541290 92.489059,233.886658 
	C93.122040,230.131851 89.756371,229.462112 86.960739,228.064301 
z"/>
<path fill="#000000" opacity="1.000000" stroke="none" 
	d="
M108.892487,178.752655 
	C104.712402,181.020157 103.541046,178.696609 104.005356,175.540375 
	C107.793198,149.791809 132.521240,128.604874 158.332947,133.946503 
	C159.629837,134.214890 160.924377,134.580780 162.153351,135.069077 
	C163.670334,135.671814 164.680283,136.767700 164.269699,138.547318 
	C163.802643,140.571655 162.277817,141.267181 160.471512,140.738434 
	C148.097107,137.116135 137.106476,140.175262 127.232483,147.822281 
	C117.632446,155.257141 111.892532,165.135056 109.824257,177.126678 
	C109.743668,177.593933 109.381882,178.012695 108.892487,178.752655 
z"/>
<path fill="#000000" opacity="1.000000" stroke="none" 
	d="
M147.866943,219.264252 
	C145.333374,233.551468 152.966705,240.355148 166.441162,236.349930 
	C167.192215,236.126694 167.996185,236.081451 168.898483,235.933167 
	C170.337875,239.848328 169.221786,242.063690 165.397324,243.253265 
	C157.270401,245.781052 147.916428,243.152863 143.367905,236.872177 
	C138.380356,229.985306 138.333603,219.807175 143.258453,213.034988 
	C148.104660,206.370941 157.614975,203.411880 165.592514,206.006500 
	C169.583267,207.304459 169.958099,209.990189 168.619980,213.933823 
	C160.613693,210.788376 152.992493,209.822342 147.866943,219.264252 
z"/>
<path fill="#000000" opacity="1.000000" stroke="none" 
	d="
M335.864563,212.881119 
	C333.618652,215.116135 331.541351,217.029099 329.645752,219.107742 
	C327.691925,221.250198 325.991211,221.482285 323.843475,219.282028 
	C321.862335,217.252472 321.412872,215.586319 323.681458,213.460312 
	C327.064423,210.289932 330.364044,207.022034 333.558594,203.661987 
	C335.743591,201.363800 337.392334,201.314377 339.677856,203.728790 
	C341.911743,206.088608 341.387207,207.667755 339.299133,209.493271 
	C338.178772,210.472763 337.171356,211.581451 335.864563,212.881119 
z"/>
<path fill="#000000" opacity="1.000000" stroke="none" 
	d="
M340.937378,242.188477 
	C337.949402,248.543182 336.891266,248.736588 332.330719,244.195343 
	C329.386017,241.263123 326.435577,238.335571 323.434906,235.461029 
	C321.540436,233.646149 321.869415,232.096283 323.632141,230.402481 
	C325.321106,228.779526 326.871765,227.397766 329.056915,229.678146 
	C332.960938,233.752228 336.903687,237.789215 340.937378,242.188477 
z"/>
</svg>