<svg version="1.1" id="Layer_1" xmlns="http://www.w3.org/2000/svg" xmlns:xlink="http://www.w3.org/1999/xlink" x="0px" y="0px"
	 width="100%" viewBox="0 0 95 101" enable-background="new 0 0 95 101" xml:space="preserve">
<path fill="#FFFFFF" opacity="1.000000" stroke="none" 
	d="
M61.000000,102.000000 
	C40.666672,102.000000 20.833340,102.000000 1.000008,102.000000 
	C1.000005,68.333344 1.000005,34.666687 1.000003,1.000021 
	C32.666653,1.000014 64.333305,1.000014 95.999969,1.000007 
	C95.999977,34.666645 95.999977,68.333290 95.999985,101.999969 
	C84.500000,102.000000 73.000000,102.000000 61.000000,102.000000 
M91.233765,48.592396 
	C91.824097,48.257225 92.918304,47.936077 92.928078,47.584747 
	C93.047150,43.306343 93.143608,39.017654 92.960999,34.743813 
	C92.833565,31.761471 92.267197,28.797884 91.430115,25.315983 
	C85.485886,22.167114 79.541656,19.018244 72.420746,15.246043 
	C76.362534,28.601311 82.456413,38.956738 91.233765,48.592396 
M81.500153,58.996769 
	C75.904869,51.027996 69.372871,43.536800 64.993851,34.947918 
	C61.092030,27.294979 59.273788,18.502995 57.139744,10.061078 
	C56.211185,6.387857 52.924156,1.955508 49.328754,1.871508 
	C45.792355,1.788886 41.914845,6.105567 40.915844,9.927952 
	C38.706505,18.381374 36.754417,27.029408 33.321182,35.005695 
	C28.183207,46.942528 20.213835,57.030830 9.647099,64.899490 
	C6.263380,67.419228 4.664811,74.036453 6.471925,76.839615 
	C8.334814,79.729301 13.469638,80.823997 17.622663,79.018501 
	C27.703878,74.635757 38.564045,73.269547 49.190102,73.355537 
	C58.822708,73.433479 68.730782,75.432503 77.940231,78.384911 
	C83.485725,80.162704 87.499832,80.277435 91.844902,76.879807 
	C92.269371,68.199394 92.029976,67.554169 88.459572,64.855957 
	C86.232643,63.173027 84.152855,61.295406 81.500153,58.996769 
M5.994016,46.597427 
	C6.566541,46.968945 7.571909,47.736462 7.647749,47.653572 
	C9.199215,45.957764 10.648407,44.168026 12.110312,42.390701 
	C18.428247,34.709602 22.910648,26.151718 25.347260,15.177606 
	C18.639875,18.901110 12.891981,21.939966 7.351156,25.318426 
	C6.434330,25.877453 6.087651,27.912851 6.052140,29.280890 
	C5.909585,34.772633 5.993021,40.270237 5.994016,46.597427 
M66.541374,91.087318 
	C66.868713,90.807465 67.196053,90.527603 67.523384,90.247742 
	C67.214531,90.123131 66.912857,89.975319 66.595795,89.877266 
	C56.248699,86.677734 45.674366,88.052803 35.164860,88.421616 
	C33.388275,88.483955 31.640938,89.379799 28.983440,90.150627 
	C35.398010,93.802864 40.918640,97.042664 46.550934,100.075073 
	C47.740089,100.715294 49.700546,101.256859 50.687317,100.715942 
	C55.894279,97.861656 60.903309,94.646286 66.541374,91.087318 
z"/>
<path fill="#ED5425" opacity="1.000000" stroke="none" 
	d="
M81.753593,59.250961 
	C84.152855,61.295406 86.232643,63.173027 88.459572,64.855957 
	C92.029976,67.554169 92.269371,68.199394 91.844894,76.879768 
	C87.499832,80.277435 83.485725,80.162704 77.940231,78.384911 
	C68.730782,75.432503 58.822708,73.433479 49.190102,73.355537 
	C38.564045,73.269547 27.703878,74.635757 17.622663,79.018501 
	C13.469638,80.823997 8.334814,79.729301 6.471925,76.839615 
	C4.664811,74.036453 6.263380,67.419228 9.647099,64.899490 
	C20.213835,57.030830 28.183207,46.942528 33.321182,35.005695 
	C36.754417,27.029408 38.706505,18.381374 40.915844,9.927952 
	C41.914845,6.105567 45.792355,1.788886 49.328754,1.871508 
	C52.924156,1.955508 56.211185,6.387857 57.139744,10.061078 
	C59.273788,18.502995 61.092030,27.294979 64.993851,34.947918 
	C69.372871,43.536800 75.904869,51.027996 81.753593,59.250961 
M46.416374,42.056164 
	C43.173557,47.662102 39.930744,53.268036 36.760456,58.748589 
	C45.020508,58.748589 53.244053,58.748589 61.503784,58.748589 
	C57.302849,51.530674 53.231907,44.536118 49.140423,37.506268 
	C48.493797,38.646805 47.691349,40.062183 46.416374,42.056164 
z"/>
<path fill="#EA5428" opacity="1.000000" stroke="none" 
	d="
M5.993465,46.181549 
	C5.993021,40.270237 5.909585,34.772633 6.052140,29.280890 
	C6.087651,27.912851 6.434330,25.877453 7.351156,25.318426 
	C12.891981,21.939966 18.639875,18.901110 25.347260,15.177606 
	C22.910648,26.151718 18.428247,34.709602 12.110312,42.390701 
	C10.648407,44.168026 9.199215,45.957764 7.647749,47.653572 
	C7.571909,47.736462 6.566541,46.968945 5.993465,46.181549 
z"/>
<path fill="#E85529" opacity="1.000000" stroke="none" 
	d="
M90.890053,47.998352 
	C82.456413,38.956738 76.362534,28.601311 72.420746,15.246043 
	C79.541656,19.018244 85.485886,22.167114 91.701462,26.056398 
	C91.992500,30.235407 92.168617,33.682190 91.989143,37.110355 
	C91.798653,40.748894 91.270660,44.369766 90.890053,47.998352 
z"/>
<path fill="#EA5428" opacity="1.000000" stroke="none" 
	d="
M66.261185,91.321747 
	C60.903309,94.646286 55.894279,97.861656 50.687317,100.715942 
	C49.700546,101.256859 47.740089,100.715294 46.550934,100.075073 
	C40.918640,97.042664 35.398010,93.802864 28.983440,90.150627 
	C31.640938,89.379799 33.388275,88.483955 35.164860,88.421616 
	C45.674366,88.052803 56.248699,86.677734 66.595795,89.877266 
	C66.912857,89.975319 67.214531,90.123131 67.523384,90.247742 
	C67.196053,90.527603 66.868713,90.807465 66.261185,91.321747 
z"/>
<path fill="#A1615D" opacity="1.000000" stroke="none" 
	d="
M91.061905,48.295372 
	C91.270660,44.369766 91.798653,40.748894 91.989143,37.110355 
	C92.168617,33.682190 91.992500,30.235407 91.934853,26.311367 
	C92.267197,28.797884 92.833565,31.761471 92.960999,34.743813 
	C93.143608,39.017654 93.047150,43.306343 92.928078,47.584747 
	C92.918304,47.936077 91.824097,48.257225 91.061905,48.295372 
z"/>
<path fill="#FFFFFF" opacity="1.000000" stroke="none" 
	d="
M46.652641,41.766861 
	C47.691349,40.062183 48.493797,38.646805 49.140423,37.506268 
	C53.231907,44.536118 57.302849,51.530674 61.503784,58.748589 
	C53.244053,58.748589 45.020508,58.748589 36.760456,58.748589 
	C39.930744,53.268036 43.173557,47.662102 46.652641,41.766861 
z"/>
</svg>