<svg version="1.1" id="Layer_1" xmlns="http://www.w3.org/2000/svg" xmlns:xlink="http://www.w3.org/1999/xlink" x="0px" y="0px"
	 width="100%" viewBox="0 0 206 216" enable-background="new 0 0 206 216" xml:space="preserve">
<path fill="#000000" opacity="1.000000" stroke="none" 
	d="
M137.000000,217.000000 
	C91.333336,217.000000 46.166672,217.000000 1.000006,217.000000 
	C1.000004,145.000000 1.000004,73.000015 1.000002,1.000016 
	C69.666656,1.000010 138.333313,1.000010 206.999969,1.000005 
	C206.999985,72.999985 206.999985,144.999969 207.000000,216.999969 
	C183.833328,217.000000 160.666672,217.000000 137.000000,217.000000 
M175.095215,105.999916 
	C176.375397,105.938797 177.655579,105.877678 178.935745,105.816559 
	C177.231720,103.541649 175.514343,102.356339 173.715958,101.310272 
	C153.070587,89.301521 132.461487,77.228233 111.684242,65.451721 
	C109.579994,64.259041 106.113930,63.984886 103.834450,64.812347 
	C77.640450,74.320862 51.634212,84.351624 25.375998,93.674416 
	C19.585470,95.730301 21.011007,99.565018 21.113583,103.166168 
	C21.236681,107.487862 24.976900,105.933189 27.266632,105.937065 
	C76.238968,106.019989 125.211472,105.999992 175.095215,105.999916 
M73.459816,145.998657 
	C83.761322,149.907852 94.004593,153.985672 104.414513,157.580917 
	C106.445045,158.282196 109.510719,157.792068 111.442253,156.695129 
	C130.951126,145.615860 150.331711,134.310333 169.725479,123.029068 
	C172.923615,121.168732 176.011276,119.118477 179.149994,117.155983 
	C178.996536,116.770668 178.843063,116.385345 178.689590,116.000031 
	C177.243683,116.000031 175.797760,116.000023 174.351852,116.000023 
	C125.197525,116.000023 76.043175,115.985245 26.888924,116.048531 
	C24.689135,116.051361 21.179375,114.721855 21.124557,118.712791 
	C21.075611,122.276192 19.390362,126.262520 25.279621,128.265961 
	C41.229858,133.691971 56.887196,139.979034 73.459816,145.998657 
M49.673977,74.073509 
	C63.663303,68.956635 77.660606,63.861233 91.623749,58.673889 
	C92.541489,58.332947 93.772461,57.324879 93.819687,56.562794 
	C93.869980,55.751221 92.857407,54.584988 92.008224,54.058979 
	C89.108643,52.262886 86.055565,50.717094 83.099113,49.009899 
	C69.175377,40.969704 55.274517,32.889881 41.344151,24.861235 
	C34.990273,21.199234 28.587074,17.622803 21.860519,13.811676 
	C21.385254,15.330192 21.037237,15.924710 21.036362,16.519739 
	C21.004959,37.831516 20.998360,59.143349 21.009840,80.455154 
	C21.011805,84.104904 22.520994,84.454559 25.773207,83.132286 
	C33.420959,80.022873 41.246170,77.349945 49.673977,74.073509 
M60.611073,151.930908 
	C48.792809,147.488617 36.953987,143.099731 25.170866,138.566101 
	C22.260887,137.446457 21.024406,138.372833 21.020443,141.237473 
	C20.990313,163.024597 21.003946,184.811752 21.003946,207.677460 
	C24.093422,206.448135 26.701529,205.757370 28.959236,204.457840 
	C49.644867,192.551224 70.281578,180.559280 90.882767,168.507095 
	C92.124031,167.780930 92.940773,166.329102 93.955063,165.214935 
	C92.800072,164.476395 91.730415,163.515213 90.476547,163.034668 
	C80.803719,159.327591 71.095207,155.713638 60.611073,151.930908 
z"/>
<path fill="#00CCCC" opacity="1.000000" stroke="none" 
	d="
M174.639587,105.999954 
	C125.211472,105.999992 76.238968,106.019989 27.266632,105.937065 
	C24.976900,105.933189 21.236681,107.487862 21.113583,103.166168 
	C21.011007,99.565018 19.585470,95.730301 25.375998,93.674416 
	C51.634212,84.351624 77.640450,74.320862 103.834450,64.812347 
	C106.113930,63.984886 109.579994,64.259041 111.684242,65.451721 
	C132.461487,77.228233 153.070587,89.301521 173.715958,101.310272 
	C175.514343,102.356339 177.231720,103.541649 178.935745,105.816559 
	C177.655579,105.877678 176.375397,105.938797 174.639587,105.999954 
z"/>
<path fill="#00CCCC" opacity="1.000000" stroke="none" 
	d="
M73.060257,145.961639 
	C56.887196,139.979034 41.229858,133.691971 25.279621,128.265961 
	C19.390362,126.262520 21.075611,122.276192 21.124557,118.712791 
	C21.179375,114.721855 24.689135,116.051361 26.888924,116.048531 
	C76.043175,115.985245 125.197525,116.000023 174.351852,116.000023 
	C175.797760,116.000023 177.243683,116.000031 178.689590,116.000031 
	C178.843063,116.385345 178.996536,116.770668 179.149994,117.155983 
	C176.011276,119.118477 172.923615,121.168732 169.725479,123.029068 
	C150.331711,134.310333 130.951126,145.615860 111.442253,156.695129 
	C109.510719,157.792068 106.445045,158.282196 104.414513,157.580917 
	C94.004593,153.985672 83.761322,149.907852 73.060257,145.961639 
z"/>
<path fill="#00CCCC" opacity="1.000000" stroke="none" 
	d="
M49.336777,74.286957 
	C41.246170,77.349945 33.420959,80.022873 25.773207,83.132286 
	C22.520994,84.454559 21.011805,84.104904 21.009840,80.455154 
	C20.998360,59.143349 21.004959,37.831516 21.036362,16.519739 
	C21.037237,15.924710 21.385254,15.330192 21.860519,13.811676 
	C28.587074,17.622803 34.990273,21.199234 41.344151,24.861235 
	C55.274517,32.889881 69.175377,40.969704 83.099113,49.009899 
	C86.055565,50.717094 89.108643,52.262886 92.008224,54.058979 
	C92.857407,54.584988 93.869980,55.751221 93.819687,56.562794 
	C93.772461,57.324879 92.541489,58.332947 91.623749,58.673889 
	C77.660606,63.861233 63.663303,68.956635 49.336777,74.286957 
z"/>
<path fill="#00CCCC" opacity="1.000000" stroke="none" 
	d="
M61.004417,152.000854 
	C71.095207,155.713638 80.803719,159.327591 90.476547,163.034668 
	C91.730415,163.515213 92.800072,164.476395 93.955055,165.214935 
	C92.940773,166.329102 92.124031,167.780930 90.882767,168.507095 
	C70.281578,180.559280 49.644867,192.551224 28.959236,204.457840 
	C26.701529,205.757370 24.093422,206.448135 21.003946,207.677460 
	C21.003946,184.811752 20.990313,163.024597 21.020443,141.237473 
	C21.024406,138.372833 22.260887,137.446457 25.170866,138.566101 
	C36.953987,143.099731 48.792809,147.488617 61.004417,152.000854 
z"/>
</svg>