<svg xmlns="http://www.w3.org/2000/svg" width="151" height="150" viewBox="0 0 151 150" fill="none"><path d="M0.638672 66.2164C4.99284 28.9305 36.6803 0 75.1386 0C113.597 0 145.284 28.9513 149.639 66.2373C144.389 65.9866 140.347 62.1431 137.055 58.4041L135.264 56.357L133.409 58.3623C129.701 62.352 125.618 66.2581 120.139 66.2581C114.305 66.2581 109.93 61.6418 107.305 58.8636L106.868 58.4041L105.076 56.5241L103.305 58.425C98.472 63.6471 94.1595 66.1746 90.1178 66.1746C86.0761 66.1746 81.8678 63.7098 76.847 58.4041L75.0553 56.5032L73.2636 58.425C68.4095 63.668 64.1178 66.2164 60.1178 66.2164C56.1178 66.2164 51.8678 63.7306 46.7636 58.425L44.972 56.545L43.2011 58.4459C38.2845 63.7515 34.1386 66.2164 30.1386 66.2164C26.1386 66.2164 21.8886 63.7306 16.7012 58.4041L14.9095 56.545L13.1595 58.4459C9.65951 62.2267 5.80534 65.9239 0.68033 66.2373L0.638672 66.2164Z" fill="#00CCCC"></path><path d="M150.117 73.5067C150.117 75.2613 150.055 76.995 149.93 78.7079C144.784 78.6661 139.721 76.7862 135.138 73.2769C130.492 76.8279 125.326 78.7079 120.117 78.7079C114.909 78.7079 109.742 76.8279 105.096 73.2769C100.492 76.7653 95.3255 78.6035 90.0755 78.6035C84.8255 78.6035 79.6588 76.7653 75.0546 73.2769C70.388 76.8488 65.2421 78.7079 60.0338 78.7079C54.8255 78.7079 49.6588 76.8279 44.9921 73.2769C40.3255 76.8279 35.1796 78.7079 29.9713 78.7079C24.763 78.7079 19.5964 76.8279 14.9297 73.2769C10.388 76.7444 5.36719 78.6035 0.30468 78.7079C0.17968 76.995 0.117188 75.2613 0.117188 73.5067C0.117188 73.1516 0.117188 72.7756 0.117188 72.4205C5.24219 72.3578 10.3255 70.3316 14.9297 66.509C19.5755 70.3943 24.7421 72.4414 29.9713 72.4414C35.2005 72.4414 40.3463 70.3943 44.9921 66.509C49.638 70.3943 54.8046 72.4414 60.0338 72.4414C65.263 72.4414 70.4088 70.3943 75.0546 66.509C79.6588 70.3316 84.8047 72.316 90.0755 72.316C95.3463 72.316 100.492 70.3107 105.096 66.509C109.742 70.3943 114.909 72.4205 120.117 72.4205C125.326 72.4205 130.492 70.3943 135.138 66.509C139.763 70.3734 144.909 72.4205 150.096 72.4414C150.096 72.7965 150.096 73.1725 150.096 73.5276L150.117 73.5067Z" fill="#00CCCC"></path><path d="M148.785 88.9222C142.305 122.239 113.159 148.788 77.7845 150C77.597 150 77.4095 150 77.222 150C77.1803 150 77.1386 150 77.097 150C77.0553 150 76.9928 150 76.9511 150C76.6803 150 76.3886 150 76.097 150C75.7636 150 75.4511 150 75.1178 150C74.7845 150 74.472 150 74.1386 150C73.847 150 73.5761 150 73.2845 150C73.2428 150 73.1803 150 73.1386 150C73.097 150 73.0553 150 73.0136 150C72.8261 150 72.6386 150 72.4511 150C37.0761 148.788 7.93034 122.239 1.45117 88.9013C1.82617 88.8804 2.20117 88.8386 2.57617 88.7968C6.84701 88.3373 11.0553 86.8124 14.9095 84.2849C19.5553 87.3346 24.722 88.943 29.9511 88.943C35.1803 88.943 40.3261 87.3346 44.972 84.2849C49.6178 87.3346 54.7845 88.943 60.0136 88.943C65.2428 88.943 70.3886 87.3346 75.0345 84.2849C79.6386 87.2929 84.7845 88.8595 90.0553 88.8595C95.3262 88.8595 100.472 87.2929 105.076 84.2849C109.722 87.3346 114.889 88.943 120.097 88.943C125.305 88.943 130.472 87.3346 135.118 84.2849C139.014 86.8542 143.264 88.379 147.618 88.8177C147.993 88.8595 148.368 88.8804 148.743 88.9013L148.785 88.9222Z" fill="#0FB9B8"></path></svg>