<svg version="1.1" id="Layer_1" xmlns="http://www.w3.org/2000/svg" xmlns:xlink="http://www.w3.org/1999/xlink" x="0px" y="0px"
	 width="100%" viewBox="0 0 206 216" enable-background="new 0 0 206 216" xml:space="preserve">
<path fill="#FFFFFF" opacity="1.000000" stroke="none" 
	d="
M137.000000,217.000000 
	C91.333336,217.000000 46.166672,217.000000 1.000006,217.000000 
	C1.000004,145.000000 1.000004,73.000015 1.000002,1.000016 
	C69.666656,1.000010 138.333313,1.000010 206.999969,1.000005 
	C206.999985,72.999985 206.999985,144.999969 207.000000,216.999969 
	C183.833328,217.000000 160.666672,217.000000 137.000000,217.000000 
M66.963188,78.534241 
	C63.589203,79.711296 60.190475,80.822426 56.845768,82.077507 
	C45.897484,86.185776 34.990944,90.406181 24.022552,94.459541 
	C19.164358,96.254883 21.136435,100.290833 21.298664,103.352402 
	C21.350130,104.323669 24.656857,105.883797 26.477554,105.888931 
	C75.780777,106.028091 125.084465,105.999985 174.388077,105.999985 
	C175.882828,105.999985 177.377579,105.999985 178.872330,105.999985 
	C176.991058,103.514587 174.998840,102.200737 172.939941,101.001358 
	C154.077133,90.013206 135.153275,79.128609 116.361946,68.019753 
	C110.739182,64.695747 105.554451,63.461502 99.085060,66.258018 
	C88.812691,70.698425 78.128120,74.185272 66.963188,78.534241 
M72.703438,145.920975 
	C80.187164,148.624466 87.862709,150.899811 95.104103,154.144165 
	C103.406227,157.863785 111.070976,159.174545 118.346313,152.309036 
	C118.799156,151.881683 119.521858,151.753357 120.087463,151.430603 
	C136.357315,142.146973 152.641235,132.887711 168.875168,123.541679 
	C172.364532,121.532814 175.670959,119.206177 180.272980,116.247017 
	C177.369354,116.116173 176.080841,116.007553 174.792297,116.007332 
	C125.322189,115.998726 75.852081,115.999802 26.381971,116.001740 
	C25.382912,116.001778 24.263279,115.749069 23.417334,116.115814 
	C22.497108,116.514763 21.408739,117.364868 21.124586,118.252296 
	C19.579929,123.076385 21.157036,126.601097 25.884558,128.384338 
	C41.231457,134.173233 56.633568,139.815781 72.703438,145.920975 
M49.607475,74.077271 
	C62.844986,69.152267 76.095047,64.260422 89.304222,59.260578 
	C90.968056,58.630795 92.416847,57.432877 93.965271,56.498192 
	C92.541794,55.313618 91.125351,54.120415 89.690155,52.950218 
	C89.306343,52.637272 88.878433,52.371773 88.448494,52.122993 
	C71.967903,42.586536 55.496201,33.034645 38.995487,23.533131 
	C33.436459,20.332104 27.802921,17.260466 21.999496,14.015664 
	C21.509125,15.176637 21.050451,15.756999 21.049328,16.338245 
	C21.007812,37.813267 21.009855,59.288372 21.002462,80.763466 
	C21.001347,84.004059 22.431028,84.122322 25.127638,83.098373 
	C33.016838,80.102684 41.007202,77.373413 49.607475,74.077271 
M59.051281,151.548477 
	C46.833881,146.948532 34.616486,142.348587 21.573149,137.437668 
	C21.573149,161.216415 21.573149,183.994370 21.573149,207.599640 
	C23.691164,206.679703 25.647198,206.039536 27.395367,205.036942 
	C38.970482,198.398453 50.507034,191.692596 62.044189,184.988113 
	C72.033165,179.183304 81.970413,173.288223 92.008171,167.569290 
	C95.065742,165.827255 94.664742,164.470734 91.823814,163.428253 
	C81.163239,159.516342 70.449570,155.749115 59.051281,151.548477 
z"/>
<path fill="#00CCCC" opacity="1.000000" stroke="none" 
	d="
M67.290558,78.304871 
	C78.128120,74.185272 88.812691,70.698425 99.085060,66.258018 
	C105.554451,63.461502 110.739182,64.695747 116.361946,68.019753 
	C135.153275,79.128609 154.077133,90.013206 172.939941,101.001358 
	C174.998840,102.200737 176.991058,103.514587 178.872330,105.999985 
	C177.377579,105.999985 175.882828,105.999985 174.388077,105.999985 
	C125.084465,105.999985 75.780777,106.028091 26.477554,105.888931 
	C24.656857,105.883797 21.350130,104.323669 21.298664,103.352402 
	C21.136435,100.290833 19.164358,96.254883 24.022552,94.459541 
	C34.990944,90.406181 45.897484,86.185776 56.845768,82.077507 
	C60.190475,80.822426 63.589203,79.711296 67.290558,78.304871 
z"/>
<path fill="#00CCCC" opacity="1.000000" stroke="none" 
	d="
M72.358932,145.717834 
	C56.633568,139.815781 41.231457,134.173233 25.884558,128.384338 
	C21.157036,126.601097 19.579929,123.076385 21.124586,118.252296 
	C21.408739,117.364868 22.497108,116.514763 23.417334,116.115814 
	C24.263279,115.749069 25.382912,116.001778 26.381971,116.001740 
	C75.852081,115.999802 125.322189,115.998726 174.792297,116.007332 
	C176.080841,116.007553 177.369354,116.116173 180.272980,116.247017 
	C175.670959,119.206177 172.364532,121.532814 168.875168,123.541679 
	C152.641235,132.887711 136.357315,142.146973 120.087463,151.430603 
	C119.521858,151.753357 118.799156,151.881683 118.346313,152.309036 
	C111.070976,159.174545 103.406227,157.863785 95.104103,154.144165 
	C87.862709,150.899811 80.187164,148.624466 72.358932,145.717834 
z"/>
<path fill="#00CCCC" opacity="1.000000" stroke="none" 
	d="
M49.282700,74.308510 
	C41.007202,77.373413 33.016838,80.102684 25.127638,83.098373 
	C22.431028,84.122322 21.001347,84.004059 21.002462,80.763466 
	C21.009855,59.288372 21.007812,37.813267 21.049328,16.338245 
	C21.050451,15.756999 21.509125,15.176637 21.999496,14.015664 
	C27.802921,17.260466 33.436459,20.332104 38.995487,23.533131 
	C55.496201,33.034645 71.967903,42.586536 88.448494,52.122993 
	C88.878433,52.371773 89.306343,52.637272 89.690155,52.950218 
	C91.125351,54.120415 92.541794,55.313618 93.965271,56.498192 
	C92.416847,57.432877 90.968056,58.630795 89.304222,59.260578 
	C76.095047,64.260422 62.844986,69.152267 49.282700,74.308510 
z"/>
<path fill="#00CCCC" opacity="1.000000" stroke="none" 
	d="
M59.403542,151.738068 
	C70.449570,155.749115 81.163239,159.516342 91.823814,163.428253 
	C94.664742,164.470734 95.065742,165.827255 92.008171,167.569290 
	C81.970413,173.288223 72.033165,179.183304 62.044189,184.988113 
	C50.507034,191.692596 38.970482,198.398453 27.395367,205.036942 
	C25.647198,206.039536 23.691164,206.679703 21.573149,207.599640 
	C21.573149,183.994370 21.573149,161.216415 21.573149,137.437668 
	C34.616486,142.348587 46.833881,146.948532 59.403542,151.738068 
z"/>
</svg>