<svg xmlns="http://www.w3.org/2000/svg" xmlns:xlink="http://www.w3.org/1999/xlink" id="Layer_2" x="0px" y="0px" viewBox="0 0 40 41" style="enable-background:new 0 0 40 41;" xml:space="preserve"><style type="text/css">	.st0{fill:#00CCCC;}	.st1{fill:#0FB9B8;}</style><g id="Edge.Mark_4_">	<path id="teal_4_" class="st0" d="M39.3,21.5h-26c-0.3,0-0.6,0.2-0.6,0.5c-0.6,2.1-2.6,3.7-4.9,3.5c-2.3-0.2-4.2-2.1-4.3-4.4  c-0.1-2.7,2-4.9,4.7-4.9c2.2,0,4,1.5,4.5,3.5c0.1,0.3,0.3,0.5,0.6,0.5h26c0.4,0,0.7-0.3,0.7-0.7l0,0c0-0.4-0.3-0.6-0.7-0.6H34  c-1.3,0-3-0.7-3.9-1.6L25,12.1c-0.6-0.6-2-1.2-2.9-1.2h-0.8c-0.3,0-0.6,0.2-0.6,0.5C20,13.5,18,15,15.6,14.8  c-2.3-0.2-4.2-2.1-4.3-4.4c-0.1-2.7,2-4.9,4.7-4.9c2.2,0,4,1.5,4.5,3.5c0.1,0.3,0.3,0.5,0.6,0.5H22c1.3,0,3,0.7,3.9,1.6l5.2,5.2  c0.6,0.6,2,1.2,2.9,1.2H39c0.4,0,0.7-0.4,0.7-0.8C37.7,7.6,29.7,0.8,20,0.8c-11.4,0-20.5,9.5-20,21C0.5,32,8.8,40.3,19,40.8  c10.1,0.5,18.7-6.4,20.7-15.8c0.1-0.4-0.2-0.8-0.7-0.8H34c-0.9,0-2.3,0.6-2.9,1.2l-5.2,5.2c-0.9,0.9-2.6,1.6-3.9,1.6h-0.8  c-0.3,0-0.6,0.2-0.6,0.5c-0.6,2.1-2.6,3.7-4.9,3.5c-2.3-0.2-4.2-2.1-4.3-4.4c-0.1-2.7,2-4.9,4.7-4.9c2.2,0,4,1.5,4.5,3.5  c0.1,0.3,0.3,0.5,0.6,0.5H22c0.9,0,2.3-0.6,2.9-1.2l5.2-5.2c0.9-0.9,2.6-1.6,3.9-1.6h5.3c0.4,0,0.6-0.3,0.7-0.6l0,0  C40,21.8,39.7,21.5,39.3,21.5z"></path>	<path id="tealAccent_4_" class="st1" d="M16,28.5c1.7,0,3,1.3,3,3c0,1.7-1.3,3-3,3s-3-1.3-3-3C13,29.9,14.4,28.5,16,28.5z M16,13.2  c1.7,0,3-1.3,3-3s-1.3-3-3-3s-3,1.3-3,3C13,11.8,14.4,13.2,16,13.2z M5.2,20.8c0,1.7,1.3,3,3,3s3-1.3,3-3c0-1.7-1.3-3-3-3  S5.2,19.2,5.2,20.8z"></path></g></svg>