<svg version="1.1" id="Layer_1" xmlns="http://www.w3.org/2000/svg" xmlns:xlink="http://www.w3.org/1999/xlink" x="0px" y="0px"
	 width="100%" viewBox="0 0 289 288" enable-background="new 0 0 289 288" xml:space="preserve">
<path fill="#00CCCC" opacity="1.000000" stroke="none" 
	d="
M128.000000,1.000000 
	C139.354233,1.000000 150.708450,1.000000 162.716400,1.371971 
	C165.192017,1.846207 167.056564,1.733029 168.829208,2.084022 
	C186.822571,5.646799 203.997406,11.354192 219.817734,20.920303 
	C235.818710,30.595654 249.588654,42.876328 260.718323,57.686310 
	C273.229767,74.335030 282.142395,92.915016 286.443878,113.574799 
	C287.334930,117.854553 286.626953,120.592186 283.448853,123.038818 
	C266.927277,135.757858 248.285248,143.674881 227.610168,145.858261 
	C208.929138,147.831039 190.825775,143.936035 174.261459,135.431015 
	C156.599976,126.362656 139.702759,115.808990 122.441154,105.957626 
	C106.302048,96.746872 89.205948,89.973389 70.632889,88.136810 
	C57.104832,86.799110 43.739418,89.066368 30.946415,93.631439 
	C22.921614,96.495010 15.202698,100.215813 6.202345,104.037903 
	C9.098550,96.642212 11.296535,89.713097 14.440690,83.243820 
	C24.461891,62.624619 38.071964,44.897343 56.492237,30.848524 
	C72.416206,18.703594 89.848465,9.986041 109.182610,5.035611 
	C115.392395,3.445620 121.724083,2.331714 128.000000,1.000000 
z"/>
<path fill="#FFFFFF" opacity="1.000000" stroke="none" 
	d="
M127.531342,1.000000 
	C121.724083,2.331714 115.392395,3.445620 109.182610,5.035611 
	C89.848465,9.986041 72.416206,18.703594 56.492237,30.848524 
	C38.071964,44.897343 24.461891,62.624619 14.440690,83.243820 
	C11.296535,89.713097 9.098550,96.642212 6.202345,104.037903 
	C15.202698,100.215813 22.921614,96.495010 30.946415,93.631439 
	C43.739418,89.066368 57.104832,86.799110 70.632889,88.136810 
	C89.205948,89.973389 106.302048,96.746872 122.441154,105.957626 
	C139.702759,115.808990 156.599976,126.362656 174.261459,135.431015 
	C190.825775,143.936035 208.929138,147.831039 227.610168,145.858261 
	C248.285248,143.674881 266.927277,135.757858 283.448853,123.038818 
	C286.626953,120.592186 287.334930,117.854553 286.443878,113.574799 
	C282.142395,92.915016 273.229767,74.335030 260.718323,57.686310 
	C249.588654,42.876328 235.818710,30.595654 219.817734,20.920303 
	C203.997406,11.354192 186.822571,5.646799 168.829208,2.084022 
	C167.056564,1.733029 165.192017,1.846207 163.185059,1.371971 
	C205.262543,1.000000 247.525085,1.000000 290.000000,1.000000 
	C290.000000,45.687336 290.000000,90.375008 289.633270,135.539169 
	C287.983459,136.701645 286.648773,137.306580 285.425171,138.085953 
	C269.654907,148.130997 252.502701,154.859055 233.976334,156.817123 
	C213.690384,158.961151 193.676941,156.008850 175.745255,146.053925 
	C154.254822,134.123367 133.600494,120.692322 112.503723,108.045113 
	C99.653008,100.341301 85.737900,94.717331 70.920219,93.233231 
	C47.871975,90.924774 25.982761,95.794586 5.663964,108.034737 
	C5.250472,108.954903 5.126500,109.730400 4.957355,110.788475 
	C5.855247,110.363205 6.414619,110.098274 7.359606,109.893326 
	C21.766291,104.953384 36.134464,102.790108 51.099442,102.831291 
	C69.467468,102.881836 85.554337,109.096245 100.866669,118.350159 
	C116.196114,127.614441 128.633545,140.350327 141.834152,152.205399 
	C151.841675,161.192841 162.008240,170.097916 172.812042,178.081528 
	C188.561768,189.720001 206.544769,195.799179 226.260101,195.966415 
	C243.504745,196.112717 260.042694,192.613007 275.550842,184.999420 
	C280.180359,182.726608 285.818329,181.299683 287.049866,174.801315 
	C287.498718,172.432907 288.986298,170.261368 290.000000,168.000000 
	C290.000000,208.262070 290.000000,248.524124 290.000000,289.000000 
	C247.979355,289.000000 205.958328,289.000000 163.655518,288.629303 
	C188.706940,285.458832 211.368973,276.134613 232.525909,260.362579 
	C229.098083,259.788574 226.753464,259.124695 224.389160,259.044983 
	C210.964828,258.592377 198.234146,255.126694 186.192001,249.516983 
	C171.608154,242.723236 158.775146,233.375183 148.958801,220.414062 
	C141.171921,210.132553 133.212891,199.935074 126.146751,189.164642 
	C114.714592,171.739395 104.124550,153.739014 88.247269,139.756027 
	C78.326973,131.019302 67.337341,124.046913 54.331051,121.053993 
	C45.294941,118.974663 36.134533,116.866745 26.931442,116.259071 
	C19.362900,115.759338 11.649864,117.447945 3.682234,118.203911 
	C2.575732,119.160774 1.787866,120.080383 1.000000,121.000000 
	C1.000000,81.070961 1.000000,41.141914 1.000000,1.000000 
	C43.020657,1.000000 85.041672,1.000000 127.531342,1.000000 
M257.502533,205.015030 
	C245.050049,207.449005 232.660629,208.658829 219.844315,207.178589 
	C197.959763,204.651047 178.942001,195.824387 162.573746,181.778473 
	C148.002106,169.274261 134.743378,155.252380 120.599960,142.231842 
	C113.126709,135.351913 105.390076,128.626053 97.087799,122.807358 
	C81.881393,112.149872 64.976692,106.100060 46.055931,106.998482 
	C38.796600,107.343185 31.454206,107.112396 24.300274,108.166237 
	C17.420492,109.179710 10.735353,111.514503 3.964690,113.268707 
	C4.031658,113.812332 4.098626,114.355949 4.165593,114.899574 
	C5.871441,114.899574 7.598237,115.071236 9.279058,114.866142 
	C13.650556,114.332718 18.000351,113.111214 22.361511,113.098587 
	C35.672749,113.060028 48.742481,114.768959 61.546375,118.788574 
	C81.336502,125.001427 96.577660,137.826111 109.301651,153.221069 
	C123.320343,170.182480 135.387909,188.741180 148.786530,206.235626 
	C158.154022,218.466675 169.425369,228.835571 183.251862,236.029144 
	C202.500519,246.043747 223.089447,248.308746 244.316666,245.829636 
	C247.265625,245.485245 250.933060,243.844360 252.637299,241.577667 
	C260.076385,231.683472 267.073975,221.442261 273.880371,211.095795 
	C276.182312,207.596603 277.447327,203.415283 279.487762,198.874664 
	C271.700012,201.128891 265.031281,203.059219 257.502533,205.015030 
z"/>
<path fill="#0FB9B8" opacity="1.000000" stroke="none" 
	d="
M4.000869,118.166664 
	C11.649864,117.447945 19.362900,115.759338 26.931442,116.259071 
	C36.134533,116.866745 45.294941,118.974663 54.331051,121.053993 
	C67.337341,124.046913 78.326973,131.019302 88.247269,139.756027 
	C104.124550,153.739014 114.714592,171.739395 126.146751,189.164642 
	C133.212891,199.935074 141.171921,210.132553 148.958801,220.414062 
	C158.775146,233.375183 171.608154,242.723236 186.192001,249.516983 
	C198.234146,255.126694 210.964828,258.592377 224.389160,259.044983 
	C226.753464,259.124695 229.098083,259.788574 232.525909,260.362579 
	C211.368973,276.134613 188.706940,285.458832 163.186859,288.629303 
	C149.979111,289.000000 136.958206,289.000000 123.312790,288.644775 
	C121.464920,287.861450 120.266212,287.334961 119.014183,287.021423 
	C111.773766,285.208435 104.291313,284.075714 97.319214,281.536438 
	C82.248390,276.047455 68.373749,268.373596 55.589767,258.423889 
	C39.890171,246.204926 27.690676,231.260818 18.091959,214.098755 
	C10.580648,200.668900 5.947745,186.106277 3.080639,170.801041 
	C2.810769,169.357224 2.348501,168.157257 1.934783,166.550262 
	C1.952472,164.777863 1.921610,163.412491 2.031424,161.850403 
	C1.781399,161.102463 1.390699,160.551224 0.999999,160.000000 
	C1.000000,150.312439 1.000000,140.624878 1.238420,130.394562 
	C1.614812,129.218842 1.752784,128.585861 1.937367,127.545654 
	C1.951398,125.773193 1.918818,124.407967 2.170805,122.840546 
	C2.970536,121.147789 3.485703,119.657227 4.000869,118.166664 
z"/>
<path fill="#0FB9B8" opacity="1.000000" stroke="none" 
	d="
M290.000000,167.750000 
	C288.986298,170.261368 287.498718,172.432907 287.049866,174.801315 
	C285.818329,181.299683 280.180359,182.726608 275.550842,184.999420 
	C260.042694,192.613007 243.504745,196.112717 226.260101,195.966415 
	C206.544769,195.799179 188.561768,189.720001 172.812042,178.081528 
	C162.008240,170.097916 151.841675,161.192841 141.834152,152.205399 
	C128.633545,140.350327 116.196114,127.614441 100.866669,118.350159 
	C85.554337,109.096245 69.467468,102.881836 51.099442,102.831291 
	C36.134464,102.790108 21.766291,104.953384 7.227900,109.652527 
	C6.458215,108.864510 6.205850,108.377289 5.953485,107.890076 
	C25.982761,95.794586 47.871975,90.924774 70.920219,93.233231 
	C85.737900,94.717331 99.653008,100.341301 112.503723,108.045113 
	C133.600494,120.692322 154.254822,134.123367 175.745255,146.053925 
	C193.676941,156.008850 213.690384,158.961151 233.976334,156.817123 
	C252.502701,154.859055 269.654907,148.130997 285.425171,138.085953 
	C286.648773,137.306580 287.983459,136.701645 289.633270,136.007828 
	C290.000000,142.687637 290.000000,149.375290 289.634949,156.709442 
	C289.513275,160.570633 289.756653,163.785309 290.000000,167.000000 
	C290.000000,167.000000 290.000000,167.500000 290.000000,167.750000 
z"/>
<path fill="#FFFFFF" opacity="1.000000" stroke="none" 
	d="
M2.888238,171.044891 
	C5.947745,186.106277 10.580648,200.668900 18.091959,214.098755 
	C27.690676,231.260818 39.890171,246.204926 55.589767,258.423889 
	C68.373749,268.373596 82.248390,276.047455 97.319214,281.536438 
	C104.291313,284.075714 111.773766,285.208435 119.014183,287.021423 
	C120.266212,287.334961 121.464920,287.861450 122.844131,288.644775 
	C82.407280,289.000000 41.814556,289.000000 1.000000,289.000000 
	C1.000000,249.646057 1.000000,210.291687 1.273971,170.518219 
	C1.994707,170.414368 2.441471,170.729630 2.888238,171.044891 
z"/>
<path fill="#FFFFFF" opacity="1.000000" stroke="none" 
	d="
M290.000000,166.545898 
	C289.756653,163.785309 289.513275,160.570633 289.634949,157.177979 
	C290.000000,160.030594 290.000000,163.061188 290.000000,166.545898 
z"/>
<path fill="#0FB9B8" opacity="1.000000" stroke="none" 
	d="
M3.080637,170.801056 
	C2.441471,170.729630 1.994707,170.414368 1.273971,170.049561 
	C1.000000,169.250000 1.000000,168.500000 1.221080,167.354401 
	C1.442161,166.958801 1.886234,166.957275 1.886233,166.957275 
	C2.348501,168.157257 2.810769,169.357224 3.080637,170.801056 
z"/>
<path fill="#0FB9B8" opacity="1.000000" stroke="none" 
	d="
M3.682234,118.203911 
	C3.485703,119.657227 2.970536,121.147789 1.948866,122.838974 
	C1.442361,123.039589 1.000000,123.000000 1.000000,123.000000 
	C1.000000,122.555557 1.000000,122.111107 1.000000,121.333328 
	C1.787866,120.080383 2.575732,119.160774 3.682234,118.203911 
z"/>
<path fill="#FFFFFF" opacity="1.000000" stroke="none" 
	d="
M1.000000,123.416504 
	C1.000000,123.000000 1.442361,123.039589 1.664300,123.041161 
	C1.918818,124.407967 1.951398,125.773193 1.714120,127.546906 
	C1.444264,127.955376 1.000000,128.000000 1.000000,128.000000 
	C1.000000,126.611000 1.000000,125.222008 1.000000,123.416504 
z"/>
<path fill="#FFFFFF" opacity="1.000000" stroke="none" 
	d="
M1.934784,166.550262 
	C1.886234,166.957275 1.442161,166.958801 1.221080,166.979401 
	C1.000000,165.611008 1.000000,164.222000 1.222130,162.438812 
	C1.444260,162.044617 1.890749,162.047119 1.890749,162.047119 
	C1.921610,163.412491 1.952472,164.777863 1.934784,166.550262 
z"/>
<path fill="#0FB9B8" opacity="1.000000" stroke="none" 
	d="
M1.000000,128.333328 
	C1.000000,128.000000 1.444264,127.955376 1.667510,127.954124 
	C1.752784,128.585861 1.614812,129.218842 1.238420,129.925903 
	C1.000000,129.555557 1.000000,129.111099 1.000000,128.333328 
z"/>
<path fill="#0FB9B8" opacity="1.000000" stroke="none" 
	d="
M2.031424,161.850403 
	C1.890749,162.047119 1.444260,162.044617 1.222130,162.022308 
	C1.000000,161.555557 1.000000,161.111099 0.999999,160.333328 
	C1.390699,160.551224 1.781399,161.102463 2.031424,161.850403 
z"/>
<path fill="#0FB9B8" opacity="1.000000" stroke="none" 
	d="
M257.932526,205.002289 
	C265.031281,203.059219 271.700012,201.128891 279.487762,198.874664 
	C277.447327,203.415283 276.182312,207.596603 273.880371,211.095795 
	C267.073975,221.442261 260.076385,231.683472 252.637299,241.577667 
	C250.933060,243.844360 247.265625,245.485245 244.316666,245.829636 
	C223.089447,248.308746 202.500519,246.043747 183.251862,236.029144 
	C169.425369,228.835571 158.154022,218.466675 148.786530,206.235626 
	C135.387909,188.741180 123.320343,170.182480 109.301651,153.221069 
	C96.577660,137.826111 81.336502,125.001427 61.546375,118.788574 
	C48.742481,114.768959 35.672749,113.060028 22.361511,113.098587 
	C18.000351,113.111214 13.650556,114.332718 9.279058,114.866142 
	C7.598237,115.071236 5.871441,114.899574 4.165593,114.899574 
	C4.098626,114.355949 4.031658,113.812332 3.964690,113.268707 
	C10.735353,111.514503 17.420492,109.179710 24.300274,108.166237 
	C31.454206,107.112396 38.796600,107.343185 46.055931,106.998482 
	C64.976692,106.100060 81.881393,112.149872 97.087799,122.807358 
	C105.390076,128.626053 113.126709,135.351913 120.599960,142.231842 
	C134.743378,155.252380 148.002106,169.274261 162.573746,181.778473 
	C178.942001,195.824387 197.959763,204.651047 219.844315,207.178589 
	C232.660629,208.658829 245.050049,207.449005 257.932526,205.002289 
z"/>
<path fill="#0FB9B8" opacity="1.000000" stroke="none" 
	d="
M5.663964,108.034737 
	C6.205850,108.377289 6.458215,108.864510 6.842286,109.592529 
	C6.414619,110.098274 5.855247,110.363205 4.957355,110.788475 
	C5.126500,109.730400 5.250472,108.954903 5.663964,108.034737 
z"/>
</svg>