<svg version="1.1" id="Layer_1" xmlns="http://www.w3.org/2000/svg" xmlns:xlink="http://www.w3.org/1999/xlink" x="0px" y="0px"
	 width="100%" viewBox="0 0 1544 1606" enable-background="new 0 0 1544 1606" xml:space="preserve">
<path fill="#000000" opacity="1.000000" stroke="none" 
	d="
M0.999997,791.000000 
	C1.000000,527.742798 1.000000,264.485657 1.000000,1.000000 
	C217.027985,1.000000 433.056030,1.000000 649.569336,1.468009 
	C650.037842,2.434383 650.006531,2.932748 650.006531,3.431113 
	C650.002991,145.245941 650.000610,287.060760 650.013062,428.875580 
	C650.013184,430.299957 650.209229,431.724335 650.355347,433.713745 
	C704.588806,433.713745 758.480774,433.713745 812.452637,433.713745 
	C812.452637,525.022522 812.452637,615.730774 812.452637,706.531128 
	C785.155457,706.531128 758.241394,706.531128 730.785767,706.531128 
	C730.785767,642.172119 730.785767,578.113770 730.785767,513.775330 
	C703.652710,513.775330 677.062561,513.775330 650.410889,513.775330 
	C650.410889,604.535767 650.410889,695.052246 650.410889,785.561646 
	C732.414062,785.561646 814.006042,785.561646 895.881470,785.561646 
	C895.881470,641.551636 895.881470,497.814667 895.881470,353.350647 
	C840.873535,353.350647 786.015991,353.350647 731.133423,353.350647 
	C731.133423,262.554626 731.133423,172.485886 731.133423,82.394806 
	C758.470154,82.394806 785.506348,82.394806 813.099121,82.394806 
	C813.099121,146.170715 813.099121,209.553650 813.099121,272.784241 
	C841.065369,272.784241 868.469910,272.784241 896.165405,272.784241 
	C896.165405,270.755951 896.165405,269.107666 896.165405,267.459381 
	C896.165405,180.470734 896.166443,93.482071 896.158569,6.493422 
	C896.158386,4.662276 896.055115,2.831140 896.000000,1.000000 
	C1112.271118,1.000000 1328.542358,1.000000 1545.000000,1.000000 
	C1545.000000,267.028015 1545.000000,533.056030 1544.571167,799.608276 
	C1543.762207,798.783691 1543.134277,797.451904 1543.039917,796.083374 
	C1541.919556,779.836609 1541.782349,763.462463 1539.610107,747.361450 
	C1536.162598,721.806213 1532.440918,696.199768 1526.968994,671.020508 
	C1495.694702,527.111938 1428.504150,402.218109 1326.016846,296.546661 
	C1254.124512,222.420715 1170.199341,165.565582 1075.236694,125.009239 
	C1071.298096,123.327118 1067.312134,121.755814 1062.525513,119.796066 
	C1062.525513,122.513168 1062.526123,124.471077 1062.525513,126.428986 
	C1062.503174,195.761673 1062.512817,265.094421 1062.373047,334.426880 
	C1062.365234,338.298004 1063.699463,340.339600 1066.959717,342.286163 
	C1112.005615,369.182343 1152.677856,401.587189 1188.632080,439.819305 
	C1268.125122,524.348145 1318.430908,623.723694 1338.573853,737.974304 
	C1343.037476,763.290894 1344.871948,789.146423 1346.599365,814.842346 
	C1347.677246,830.876282 1346.717041,847.098389 1345.885742,863.195496 
	C1345.005249,880.243958 1343.975952,897.351929 1341.650391,914.246521 
	C1332.855347,978.142761 1313.897705,1038.958862 1284.076294,1096.202637 
	C1223.348389,1212.772827 1133.449219,1299.227051 1014.731812,1355.581665 
	C947.080200,1387.695801 875.383606,1404.248413 800.909912,1408.747925 
	C779.902222,1410.017090 758.623840,1409.420166 737.633606,1407.689697 
	C712.311462,1405.602051 686.984924,1402.392090 661.978455,1397.897461 
	C611.695679,1388.859497 563.876831,1371.964111 518.183716,1349.165405 
	C457.512726,1318.893188 403.823364,1279.144165 357.106873,1229.969849 
	C318.862213,1189.713257 287.059875,1144.909180 261.766052,1095.485229 
	C230.891586,1035.156982 211.437103,971.318970 203.241562,904.067993 
	C201.521393,889.952637 199.553177,875.784729 199.209457,861.604431 
	C198.730621,841.849304 198.706482,821.983398 200.257187,802.304382 
	C202.136047,778.461060 204.906799,754.598389 208.980057,731.035950 
	C218.144989,678.019531 235.457779,627.523499 259.695282,579.519775 
	C311.045044,477.818695 385.649109,397.711243 483.830963,339.747711 
	C487.187561,337.766144 488.250824,335.618195 488.244812,331.839935 
	C488.135101,262.673950 488.166260,193.507751 488.154144,124.341591 
	C488.153839,122.581909 488.000732,120.822266 487.889099,118.422157 
	C485.586334,119.235085 483.878784,119.755867 482.234192,120.430145 
	C375.458191,164.208755 282.516815,228.051926 204.479340,313.134064 
	C114.464432,411.274841 53.827385,525.250671 22.935974,654.812622 
	C16.923471,680.029663 12.308992,705.636353 8.324311,731.261597 
	C5.464980,749.649780 4.764758,768.371643 2.973694,786.932312 
	C2.837996,788.338562 1.681815,789.646423 0.999997,791.000000 
z"/>
<path fill="#11609F" opacity="1.000000" stroke="none" 
	d="
M0.999997,791.468628 
	C1.681815,789.646423 2.837996,788.338562 2.973694,786.932312 
	C4.764758,768.371643 5.464980,749.649780 8.324311,731.261597 
	C12.308992,705.636353 16.923471,680.029663 22.935974,654.812622 
	C53.827385,525.250671 114.464432,411.274841 204.479340,313.134064 
	C282.516815,228.051926 375.458191,164.208755 482.234192,120.430145 
	C483.878784,119.755867 485.586334,119.235085 487.889099,118.422157 
	C488.000732,120.822266 488.153839,122.581909 488.154144,124.341591 
	C488.166260,193.507751 488.135101,262.673950 488.244812,331.839935 
	C488.250824,335.618195 487.187561,337.766144 483.830963,339.747711 
	C385.649109,397.711243 311.045044,477.818695 259.695282,579.519775 
	C235.457779,627.523499 218.144989,678.019531 208.980057,731.035950 
	C204.906799,754.598389 202.136047,778.461060 200.257187,802.304382 
	C198.706482,821.983398 198.730621,841.849304 199.209457,861.604431 
	C199.553177,875.784729 201.521393,889.952637 203.241562,904.067993 
	C211.437103,971.318970 230.891586,1035.156982 261.766052,1095.485229 
	C287.059875,1144.909180 318.862213,1189.713257 357.106873,1229.969849 
	C403.823364,1279.144165 457.512726,1318.893188 518.183716,1349.165405 
	C563.876831,1371.964111 611.695679,1388.859497 661.978455,1397.897461 
	C686.984924,1402.392090 712.311462,1405.602051 737.633606,1407.689697 
	C758.623840,1409.420166 779.902222,1410.017090 800.909912,1408.747925 
	C875.383606,1404.248413 947.080200,1387.695801 1014.731812,1355.581665 
	C1133.449219,1299.227051 1223.348389,1212.772827 1284.076294,1096.202637 
	C1313.897705,1038.958862 1332.855347,978.142761 1341.650391,914.246521 
	C1343.975952,897.351929 1345.005249,880.243958 1345.885742,863.195496 
	C1346.717041,847.098389 1347.677246,830.876282 1346.599365,814.842346 
	C1344.871948,789.146423 1343.037476,763.290894 1338.573853,737.974304 
	C1318.430908,623.723694 1268.125122,524.348145 1188.632080,439.819305 
	C1152.677856,401.587189 1112.005615,369.182343 1066.959717,342.286163 
	C1063.699463,340.339600 1062.365234,338.298004 1062.373047,334.426880 
	C1062.512817,265.094421 1062.503174,195.761673 1062.525513,126.428986 
	C1062.526123,124.471077 1062.525513,122.513168 1062.525513,119.796066 
	C1067.312134,121.755814 1071.298096,123.327118 1075.236694,125.009239 
	C1170.199341,165.565582 1254.124512,222.420715 1326.016846,296.546661 
	C1428.504150,402.218109 1495.694702,527.111938 1526.968994,671.020508 
	C1532.440918,696.199768 1536.162598,721.806213 1539.610107,747.361450 
	C1541.782349,763.462463 1541.919556,779.836609 1543.039917,796.083374 
	C1543.134277,797.451904 1543.762207,798.783691 1544.571167,800.066284 
	C1545.000000,823.020874 1545.000000,846.041809 1544.571289,869.464966 
	C1543.761963,871.380066 1543.122314,872.879700 1543.044922,874.407776 
	C1542.666016,881.885071 1542.679077,889.388123 1542.116211,896.849121 
	C1537.953613,952.017944 1527.746948,1006.080139 1511.517700,1058.952637 
	C1472.912231,1184.723755 1406.515015,1293.654663 1312.717285,1385.889160 
	C1255.243774,1442.404907 1190.446289,1488.761230 1118.419312,1524.866943 
	C1023.557556,1572.419556 923.104431,1599.301025 817.094055,1605.231689 
	C816.033020,1605.291016 815.030029,1606.387573 814.000000,1607.000000 
	C785.312439,1607.000000 756.624878,1607.000000 727.535400,1606.571777 
	C726.121338,1605.760986 725.131958,1605.129517 724.093445,1605.034180 
	C712.556519,1603.975952 700.957153,1603.418091 689.481750,1601.910034 
	C669.725830,1599.313477 649.942932,1596.700073 630.352356,1593.107300 
	C557.830566,1579.806763 488.823792,1556.028564 423.185608,1522.456665 
	C343.227844,1481.560547 272.497528,1428.381470 211.050583,1362.892456 
	C131.274063,1277.868408 73.580322,1179.834839 37.796997,1068.853027 
	C24.176502,1026.609131 14.994917,983.353271 8.275607,939.590088 
	C5.434289,921.084534 4.796276,902.243042 3.022209,883.567017 
	C2.872867,881.994873 1.698272,880.520020 0.999997,879.000000 
	C1.000000,849.979126 1.000000,820.958191 0.999997,791.468628 
z"/>
<path fill="#1999D5" opacity="1.000000" stroke="none" 
	d="
M895.531372,1.000000 
	C896.055115,2.831140 896.158386,4.662276 896.158569,6.493422 
	C896.166443,93.482071 896.165405,180.470734 896.165405,267.459381 
	C896.165405,269.107666 896.165405,270.755951 896.165405,272.784241 
	C868.469910,272.784241 841.065369,272.784241 813.099121,272.784241 
	C813.099121,209.553650 813.099121,146.170715 813.099121,82.394806 
	C785.506348,82.394806 758.470154,82.394806 731.133423,82.394806 
	C731.133423,172.485886 731.133423,262.554626 731.133423,353.350647 
	C786.015991,353.350647 840.873535,353.350647 895.881470,353.350647 
	C895.881470,497.814667 895.881470,641.551636 895.881470,785.561646 
	C814.006042,785.561646 732.414062,785.561646 650.410889,785.561646 
	C650.410889,695.052246 650.410889,604.535767 650.410889,513.775330 
	C677.062561,513.775330 703.652710,513.775330 730.785767,513.775330 
	C730.785767,578.113770 730.785767,642.172119 730.785767,706.531128 
	C758.241394,706.531128 785.155457,706.531128 812.452637,706.531128 
	C812.452637,615.730774 812.452637,525.022522 812.452637,433.713745 
	C758.480774,433.713745 704.588806,433.713745 650.355347,433.713745 
	C650.209229,431.724335 650.013184,430.299957 650.013062,428.875580 
	C650.000610,287.060760 650.002991,145.245941 650.006531,3.431113 
	C650.006531,2.932748 650.037842,2.434383 650.027222,1.468009 
	C731.687561,1.000000 813.375122,1.000000 895.531372,1.000000 
z"/>
<path fill="#000000" opacity="1.000000" stroke="none" 
	d="
M0.999997,879.468628 
	C1.698272,880.520020 2.872867,881.994873 3.022209,883.567017 
	C4.796276,902.243042 5.434289,921.084534 8.275607,939.590088 
	C14.994917,983.353271 24.176502,1026.609131 37.796997,1068.853027 
	C73.580322,1179.834839 131.274063,1277.868408 211.050583,1362.892456 
	C272.497528,1428.381470 343.227844,1481.560547 423.185608,1522.456665 
	C488.823792,1556.028564 557.830566,1579.806763 630.352356,1593.107300 
	C649.942932,1596.700073 669.725830,1599.313477 689.481750,1601.910034 
	C700.957153,1603.418091 712.556519,1603.975952 724.093445,1605.034180 
	C725.131958,1605.129517 726.121338,1605.760986 727.066772,1606.571777 
	C485.072784,1607.000000 243.145599,1607.000000 1.000000,1607.000000 
	C1.000000,1364.645874 1.000000,1122.291626 0.999997,879.468628 
z"/>
<path fill="#000000" opacity="1.000000" stroke="none" 
	d="
M814.468628,1607.000000 
	C815.030029,1606.387573 816.033020,1605.291016 817.094055,1605.231689 
	C923.104431,1599.301025 1023.557556,1572.419556 1118.419312,1524.866943 
	C1190.446289,1488.761230 1255.243774,1442.404907 1312.717285,1385.889160 
	C1406.515015,1293.654663 1472.912231,1184.723755 1511.517700,1058.952637 
	C1527.746948,1006.080139 1537.953613,952.017944 1542.116211,896.849121 
	C1542.679077,889.388123 1542.666016,881.885071 1543.044922,874.407776 
	C1543.122314,872.879700 1543.761963,871.380066 1544.571289,869.933655 
	C1545.000000,1115.593506 1545.000000,1361.186890 1545.000000,1607.000000 
	C1301.645874,1607.000000 1058.291626,1607.000000 814.468628,1607.000000 
z"/>
</svg>