<svg version="1.1" id="Layer_1" xmlns="http://www.w3.org/2000/svg" xmlns:xlink="http://www.w3.org/1999/xlink" x="0px" y="0px"
	 width="100%" viewBox="0 0 1544 1606" enable-background="new 0 0 1544 1606" xml:space="preserve">
<path fill="#E6E6E6" opacity="1.000000" stroke="none" 
	d="
M0.999993,815.000000 
	C1.000000,543.743835 1.000000,272.487671 1.000000,1.000000 
	C217.027985,1.000000 433.056030,1.000000 649.536499,1.468632 
	C649.992615,143.467087 649.995544,284.996918 650.006775,426.526733 
	C650.006958,428.687958 650.109253,430.849213 650.311157,433.415863 
	C652.448425,433.880920 654.438354,433.991486 656.428284,433.992645 
	C708.291565,434.022705 760.154846,434.041412 812.019043,434.019104 
	C812.019897,433.976135 811.934265,433.968323 811.963562,434.438782 
	C811.992859,525.205994 811.992859,615.502747 811.992859,705.858459 
	C784.571777,705.858459 757.794739,705.858459 731.007935,705.677429 
	C730.998108,705.496399 730.865540,705.158875 730.921265,704.675598 
	C730.984680,657.446350 731.005859,610.700317 730.992676,563.954346 
	C730.987976,547.321716 730.899536,530.689026 730.736267,513.631287 
	C704.438904,513.139282 678.254517,513.065369 652.070190,513.046692 
	C651.434998,513.046265 650.799377,513.660278 650.096680,514.452759 
	C650.019836,603.954285 650.009644,692.990662 650.007446,782.027039 
	C650.007446,783.022156 650.110596,784.017334 650.325684,785.409424 
	C651.644653,785.870972 652.803528,785.991882 653.962463,785.992004 
	C733.471313,786.000793 812.980103,786.000549 892.488953,785.993103 
	C893.649841,785.993042 894.810791,785.892273 896.394104,785.727905 
	C896.875854,785.123169 896.987061,784.629028 896.987061,784.134888 
	C896.996399,641.574280 897.000427,499.013702 896.956848,356.453094 
	C896.956543,355.351868 896.305969,354.250793 895.499268,353.084412 
	C842.338074,353.012817 789.636597,353.008850 736.935120,352.990601 
	C734.946899,352.989899 732.958679,352.851166 730.980225,352.616150 
	C730.990051,352.455566 730.865540,352.158844 730.921204,351.675537 
	C730.984558,340.374146 730.996033,329.556030 730.999390,318.737915 
	C731.023560,239.849030 731.046204,160.960144 731.532776,82.041977 
	C758.663574,82.059494 785.330933,82.106308 811.998962,82.609482 
	C811.999817,144.571869 811.991333,206.077881 812.042053,267.583862 
	C812.043579,269.412262 812.667969,271.240173 813.001953,273.033264 
	C813.001892,272.998199 812.931763,272.997955 813.134521,273.390503 
	C840.250122,273.853394 867.162842,273.930908 894.075684,273.952179 
	C894.739563,273.952698 895.404053,273.329987 896.033203,272.998077 
	C895.998108,272.998199 895.997986,273.068298 896.390564,272.865479 
	C896.855408,270.672272 896.990723,268.681854 896.990906,266.691467 
	C897.001404,178.127640 897.000000,89.563820 897.000000,1.000000 
	C1112.938110,1.000000 1328.876343,1.000000 1545.000000,1.000000 
	C1545.000000,269.028015 1545.000000,537.056030 1544.613647,805.340454 
	C1543.486206,793.743713 1542.779419,781.888245 1541.992554,770.038086 
	C1541.405151,761.192017 1541.103882,752.302673 1539.977051,743.522278 
	C1538.327515,730.670532 1536.279175,717.858398 1533.987793,705.103577 
	C1531.105591,689.059631 1528.689575,672.854492 1524.490845,657.141663 
	C1517.318848,630.302429 1509.909546,603.444641 1500.745483,577.243225 
	C1491.942383,552.073914 1481.269775,527.513977 1470.484375,503.098938 
	C1463.900635,488.194489 1456.142700,473.721466 1447.859253,459.675568 
	C1435.485474,438.693787 1422.401245,418.119537 1409.219116,397.629242 
	C1394.613525,374.926483 1377.987061,353.714050 1360.062134,333.536102 
	C1347.941895,319.892426 1336.012085,306.053314 1323.352783,292.923035 
	C1313.393311,282.593140 1302.575439,273.072571 1291.904419,263.452667 
	C1282.302368,254.796402 1272.653198,246.151718 1262.536987,238.115906 
	C1247.430054,226.115631 1232.066406,214.420273 1216.502808,203.017181 
	C1191.719360,184.859146 1165.402832,169.061234 1138.265503,154.748901 
	C1119.255493,144.722885 1099.652344,135.811615 1080.212280,126.617363 
	C1074.732178,124.025475 1068.893555,122.191368 1063.008545,119.660797 
	C1062.531860,120.306870 1062.033813,121.301697 1062.033325,122.296783 
	C1061.996948,193.643600 1061.994507,264.990448 1062.042725,336.337250 
	C1062.043701,337.711365 1062.681885,339.085022 1063.228516,340.725037 
	C1068.163696,343.730072 1073.117310,346.147949 1077.582520,349.265320 
	C1093.892212,360.651489 1110.359497,371.851807 1126.147949,383.931854 
	C1139.364624,394.044189 1152.402222,404.585754 1164.282593,416.201935 
	C1180.218140,431.783264 1195.127563,448.432404 1210.144775,464.926056 
	C1217.148315,472.618134 1223.849487,480.683624 1229.843750,489.175629 
	C1241.575073,505.795593 1253.550171,522.339844 1263.878174,539.828613 
	C1275.690063,559.830261 1286.919067,580.334778 1296.374512,601.525085 
	C1306.048462,623.205139 1313.782959,645.806763 1321.380127,668.337524 
	C1326.458496,683.398376 1330.614136,698.879822 1333.736694,714.462769 
	C1337.587646,733.680725 1340.391968,753.143311 1342.795654,772.605530 
	C1344.828247,789.062622 1346.482544,805.655151 1346.775269,822.214783 
	C1347.096680,840.392212 1345.781860,858.605774 1344.953491,876.793274 
	C1344.542603,885.816223 1344.013672,894.867310 1342.840332,903.814087 
	C1341.217773,916.186890 1339.297119,928.545654 1336.844849,940.778198 
	C1333.901245,955.460999 1330.983032,970.216675 1326.755615,984.558105 
	C1320.715210,1005.049377 1314.471680,1025.585327 1306.513550,1045.377930 
	C1298.165283,1066.140869 1288.120850,1086.266724 1277.993408,1106.253418 
	C1271.297485,1119.467896 1263.613159,1132.248779 1255.523438,1144.671509 
	C1246.878662,1157.946533 1237.609253,1170.859253 1227.930908,1183.404175 
	C1217.480591,1196.949829 1207.061401,1210.686035 1195.153320,1222.900879 
	C1177.504028,1241.005005 1159.052856,1258.412720 1139.994995,1275.029419 
	C1125.979492,1287.249512 1110.738403,1298.145142 1095.495117,1308.849854 
	C1083.632935,1317.180298 1070.906738,1324.277466 1058.597656,1331.975830 
	C1037.850830,1344.951416 1015.766235,1355.393066 993.229248,1364.637695 
	C973.636475,1372.674561 953.485901,1379.523804 933.208923,1385.666992 
	C916.595825,1390.700317 899.516907,1394.327393 882.488342,1397.815063 
	C869.484558,1400.478394 856.271362,1402.228882 843.087769,1403.876587 
	C827.173645,1405.865234 811.212219,1408.445801 795.235229,1408.728271 
	C772.739136,1409.126221 750.193787,1407.970459 727.701233,1406.844604 
	C715.334595,1406.225586 702.940063,1404.867432 690.724854,1402.838623 
	C673.854126,1400.036499 657.066895,1396.616699 640.375244,1392.875854 
	C603.182007,1384.540039 567.383484,1371.854614 532.904846,1355.781738 
	C501.226593,1341.014404 470.984711,1323.647339 442.466339,1303.215698 
	C421.636749,1288.292480 401.701630,1272.341309 382.863159,1255.077026 
	C371.261169,1244.444580 360.371246,1232.940796 349.968018,1221.118652 
	C336.941681,1206.315918 324.447052,1191.017700 312.256134,1175.514038 
	C294.431396,1152.845459 279.200378,1128.400024 266.191071,1102.716187 
	C256.355743,1083.298706 246.998779,1063.531006 239.112640,1043.264160 
	C231.025528,1022.480652 224.048111,1001.149719 218.323547,979.596619 
	C213.030838,959.669434 209.811462,939.172363 206.129913,918.844543 
	C204.245682,908.440674 203.240555,897.870239 202.050003,887.351135 
	C201.438675,881.949890 201.226898,876.499329 200.949432,871.065186 
	C200.267227,857.704468 199.491287,844.345276 199.089035,830.975342 
	C198.931076,825.725403 199.665024,820.448181 200.000412,815.183960 
	C200.660583,804.821960 200.894089,794.410217 202.086243,784.109619 
	C204.087997,766.813904 205.843170,749.416260 209.272232,732.377502 
	C213.650757,710.620972 218.438522,688.812378 225.157761,667.696960 
	C232.800140,643.680542 241.925949,620.039124 251.950531,596.903564 
	C263.069458,571.242371 276.799683,546.786621 292.285248,523.455261 
	C301.224304,509.987213 310.631958,496.762512 320.723602,484.144012 
	C333.790527,467.805237 347.279358,451.744934 361.481049,436.392242 
	C371.893127,425.136261 383.556427,415.001373 395.011047,404.757019 
	C405.105316,395.729279 415.284058,386.703949 426.147003,378.650848 
	C440.145203,368.273468 454.820068,358.803040 469.289856,349.070404 
	C475.405121,344.957184 481.740448,341.171112 488.355164,336.989563 
	C488.822388,336.087372 488.987030,335.431946 488.987152,334.776520 
	C488.999390,263.653137 489.004272,192.529755 488.953430,121.406395 
	C488.952667,120.319901 488.254608,119.233894 487.510254,118.069344 
	C471.342133,124.843643 455.412537,131.408905 439.793854,138.645157 
	C428.503784,143.875946 417.454468,149.691879 406.605255,155.793564 
	C389.743958,165.276443 372.827759,174.726135 356.507935,185.092194 
	C332.315704,200.458649 308.736023,216.764816 286.943726,235.492767 
	C272.928772,247.537003 258.248322,258.885468 244.966553,271.687469 
	C219.071548,296.647034 193.526138,322.022064 171.686920,350.772461 
	C160.616653,365.345978 149.383118,379.807831 138.726700,394.680786 
	C119.139061,422.018829 101.966751,450.891724 86.675896,480.810913 
	C77.210609,499.331360 68.021980,518.101929 60.392071,537.424744 
	C50.368793,562.808838 41.329727,588.635498 33.143215,614.672974 
	C27.029062,634.119263 22.607937,654.125977 18.058527,674.026062 
	C15.110342,686.922058 13.129382,700.049744 11.014354,713.122131 
	C9.406927,723.057190 8.150876,733.054138 6.956116,743.049622 
	C5.517289,755.086914 3.973198,767.127380 3.099324,779.211731 
	C2.299598,790.270691 2.352134,801.390442 1.957959,812.480896 
	C1.927747,813.330872 1.332564,814.160767 0.999993,815.000000 
z"/>
<path fill="#0062A3" opacity="1.000000" stroke="none" 
	d="
M0.999993,815.468628 
	C1.332564,814.160767 1.927747,813.330872 1.957959,812.480896 
	C2.352134,801.390442 2.299598,790.270691 3.099324,779.211731 
	C3.973198,767.127380 5.517289,755.086914 6.956116,743.049622 
	C8.150876,733.054138 9.406927,723.057190 11.014354,713.122131 
	C13.129382,700.049744 15.110342,686.922058 18.058527,674.026062 
	C22.607937,654.125977 27.029062,634.119263 33.143215,614.672974 
	C41.329727,588.635498 50.368793,562.808838 60.392071,537.424744 
	C68.021980,518.101929 77.210609,499.331360 86.675896,480.810913 
	C101.966751,450.891724 119.139061,422.018829 138.726700,394.680786 
	C149.383118,379.807831 160.616653,365.345978 171.686920,350.772461 
	C193.526138,322.022064 219.071548,296.647034 244.966553,271.687469 
	C258.248322,258.885468 272.928772,247.537003 286.943726,235.492767 
	C308.736023,216.764816 332.315704,200.458649 356.507935,185.092194 
	C372.827759,174.726135 389.743958,165.276443 406.605255,155.793564 
	C417.454468,149.691879 428.503784,143.875946 439.793854,138.645157 
	C455.412537,131.408905 471.342133,124.843643 487.540924,118.527115 
	C487.954102,191.787582 487.964935,264.511963 487.975769,337.236359 
	C481.740448,341.171112 475.405121,344.957184 469.289856,349.070404 
	C454.820068,358.803040 440.145203,368.273468 426.147003,378.650848 
	C415.284058,386.703949 405.105316,395.729279 395.011047,404.757019 
	C383.556427,415.001373 371.893127,425.136261 361.481049,436.392242 
	C347.279358,451.744934 333.790527,467.805237 320.723602,484.144012 
	C310.631958,496.762512 301.224304,509.987213 292.285248,523.455261 
	C276.799683,546.786621 263.069458,571.242371 251.950531,596.903564 
	C241.925949,620.039124 232.800140,643.680542 225.157761,667.696960 
	C218.438522,688.812378 213.650757,710.620972 209.272232,732.377502 
	C205.843170,749.416260 204.087997,766.813904 202.086243,784.109619 
	C200.894089,794.410217 200.660583,804.821960 200.000412,815.183960 
	C199.665024,820.448181 198.931076,825.725403 199.089035,830.975342 
	C199.491287,844.345276 200.267227,857.704468 200.949432,871.065186 
	C201.226898,876.499329 201.438675,881.949890 202.050003,887.351135 
	C203.240555,897.870239 204.245682,908.440674 206.129913,918.844543 
	C209.811462,939.172363 213.030838,959.669434 218.323547,979.596619 
	C224.048111,1001.149719 231.025528,1022.480652 239.112640,1043.264160 
	C246.998779,1063.531006 256.355743,1083.298706 266.191071,1102.716187 
	C279.200378,1128.400024 294.431396,1152.845459 312.256134,1175.514038 
	C324.447052,1191.017700 336.941681,1206.315918 349.968018,1221.118652 
	C360.371246,1232.940796 371.261169,1244.444580 382.863159,1255.077026 
	C401.701630,1272.341309 421.636749,1288.292480 442.466339,1303.215698 
	C470.984711,1323.647339 501.226593,1341.014404 532.904846,1355.781738 
	C567.383484,1371.854614 603.182007,1384.540039 640.375244,1392.875854 
	C657.066895,1396.616699 673.854126,1400.036499 690.724854,1402.838623 
	C702.940063,1404.867432 715.334595,1406.225586 727.701233,1406.844604 
	C750.193787,1407.970459 772.739136,1409.126221 795.235229,1408.728271 
	C811.212219,1408.445801 827.173645,1405.865234 843.087769,1403.876587 
	C856.271362,1402.228882 869.484558,1400.478394 882.488342,1397.815063 
	C899.516907,1394.327393 916.595825,1390.700317 933.208923,1385.666992 
	C953.485901,1379.523804 973.636475,1372.674561 993.229248,1364.637695 
	C1015.766235,1355.393066 1037.850830,1344.951416 1058.597656,1331.975830 
	C1070.906738,1324.277466 1083.632935,1317.180298 1095.495117,1308.849854 
	C1110.738403,1298.145142 1125.979492,1287.249512 1139.994995,1275.029419 
	C1159.052856,1258.412720 1177.504028,1241.005005 1195.153320,1222.900879 
	C1207.061401,1210.686035 1217.480591,1196.949829 1227.930908,1183.404175 
	C1237.609253,1170.859253 1246.878662,1157.946533 1255.523438,1144.671509 
	C1263.613159,1132.248779 1271.297485,1119.467896 1277.993408,1106.253418 
	C1288.120850,1086.266724 1298.165283,1066.140869 1306.513550,1045.377930 
	C1314.471680,1025.585327 1320.715210,1005.049377 1326.755615,984.558105 
	C1330.983032,970.216675 1333.901245,955.460999 1336.844849,940.778198 
	C1339.297119,928.545654 1341.217773,916.186890 1342.840332,903.814087 
	C1344.013672,894.867310 1344.542603,885.816223 1344.953491,876.793274 
	C1345.781860,858.605774 1347.096680,840.392212 1346.775269,822.214783 
	C1346.482544,805.655151 1344.828247,789.062622 1342.795654,772.605530 
	C1340.391968,753.143311 1337.587646,733.680725 1333.736694,714.462769 
	C1330.614136,698.879822 1326.458496,683.398376 1321.380127,668.337524 
	C1313.782959,645.806763 1306.048462,623.205139 1296.374512,601.525085 
	C1286.919067,580.334778 1275.690063,559.830261 1263.878174,539.828613 
	C1253.550171,522.339844 1241.575073,505.795593 1229.843750,489.175629 
	C1223.849487,480.683624 1217.148315,472.618134 1210.144775,464.926056 
	C1195.127563,448.432404 1180.218140,431.783264 1164.282593,416.201935 
	C1152.402222,404.585754 1139.364624,394.044189 1126.147949,383.931854 
	C1110.359497,371.851807 1093.892212,360.651489 1077.582520,349.265320 
	C1073.117310,346.147949 1068.163696,343.730072 1063.236572,340.223083 
	C1063.025757,267.468567 1063.011353,195.482132 1063.008179,123.495697 
	C1063.008179,122.333694 1063.145996,121.171700 1063.219360,120.009689 
	C1068.893555,122.191368 1074.732178,124.025475 1080.212280,126.617363 
	C1099.652344,135.811615 1119.255493,144.722885 1138.265503,154.748901 
	C1165.402832,169.061234 1191.719360,184.859146 1216.502808,203.017181 
	C1232.066406,214.420273 1247.430054,226.115631 1262.536987,238.115906 
	C1272.653198,246.151718 1282.302368,254.796402 1291.904419,263.452667 
	C1302.575439,273.072571 1313.393311,282.593140 1323.352783,292.923035 
	C1336.012085,306.053314 1347.941895,319.892426 1360.062134,333.536102 
	C1377.987061,353.714050 1394.613525,374.926483 1409.219116,397.629242 
	C1422.401245,418.119537 1435.485474,438.693787 1447.859253,459.675568 
	C1456.142700,473.721466 1463.900635,488.194489 1470.484375,503.098938 
	C1481.269775,527.513977 1491.942383,552.073914 1500.745483,577.243225 
	C1509.909546,603.444641 1517.318848,630.302429 1524.490845,657.141663 
	C1528.689575,672.854492 1531.105591,689.059631 1533.987793,705.103577 
	C1536.279175,717.858398 1538.327515,730.670532 1539.977051,743.522278 
	C1541.103882,752.302673 1541.405151,761.192017 1541.992554,770.038086 
	C1542.779419,781.888245 1543.486206,793.743713 1544.613647,805.798462 
	C1545.000000,825.020874 1545.000000,844.041809 1544.613770,863.732910 
	C1543.818726,871.659729 1543.529541,878.925598 1542.973999,886.171021 
	C1542.083496,897.786438 1541.340088,909.427307 1539.947266,920.986755 
	C1537.924805,937.773560 1535.783081,954.566223 1532.939941,971.228027 
	C1530.310547,986.637451 1527.502441,1002.102905 1523.331909,1017.144104 
	C1515.776245,1044.393188 1508.041260,1071.657959 1498.694824,1098.325073 
	C1490.830688,1120.762817 1480.904175,1142.508667 1471.243774,1164.273682 
	C1465.671753,1176.827271 1459.218750,1189.038940 1452.446289,1200.999023 
	C1442.111938,1219.249634 1431.522217,1237.377808 1420.380615,1255.143799 
	C1404.170410,1280.991943 1385.981079,1305.452637 1365.978516,1328.504639 
	C1352.306274,1344.261230 1338.888794,1360.317993 1324.208008,1375.098999 
	C1307.959717,1391.458252 1290.590454,1406.729004 1273.346191,1422.065552 
	C1262.141724,1432.030518 1250.666504,1441.775879 1238.631592,1450.701294 
	C1222.807373,1462.436768 1206.678955,1473.849976 1190.012695,1484.339233 
	C1170.634644,1496.534912 1150.823364,1508.119141 1130.675415,1518.996582 
	C1102.262085,1534.336304 1072.888550,1547.758057 1042.320679,1558.285156 
	C1019.234863,1566.235474 996.141235,1574.324585 972.633057,1580.844604 
	C944.961121,1588.519409 916.860962,1594.650024 888.258362,1598.095093 
	C873.353271,1599.890381 858.531799,1602.495239 843.592529,1603.857666 
	C829.288208,1605.162109 814.879517,1605.312256 800.520020,1606.036255 
	C799.333496,1606.095947 798.172729,1606.666626 797.000000,1607.000000 
	C781.312439,1607.000000 765.624878,1607.000000 749.261292,1606.616455 
	C740.163757,1605.824463 731.734375,1605.535522 723.322571,1604.979858 
	C710.043396,1604.103271 696.717590,1603.531616 683.519226,1601.938721 
	C668.736267,1600.154541 654.041260,1597.558594 639.367004,1594.979980 
	C624.905090,1592.438965 610.387817,1590.015625 596.123169,1586.589844 
	C565.480103,1579.230835 535.124451,1570.723145 505.825714,1558.994141 
	C482.971344,1549.844971 460.234924,1540.354736 437.778931,1530.274780 
	C424.826630,1524.460571 412.362427,1517.479248 399.990509,1510.472290 
	C384.974945,1501.968262 370.022095,1493.296753 355.518433,1483.958008 
	C330.302277,1467.721436 305.823364,1450.419922 283.128784,1430.713989 
	C271.522217,1420.635864 259.152283,1411.353638 248.214478,1400.605469 
	C223.358902,1376.180786 198.081528,1352.091553 176.772400,1324.324951 
	C164.822617,1308.753906 152.169540,1293.657227 141.161285,1277.445068 
	C126.400711,1255.707031 112.421547,1233.393311 99.074539,1210.756226 
	C90.149933,1195.619873 82.749031,1179.569702 74.968857,1163.779175 
	C69.694756,1153.074951 64.210556,1142.381958 60.107391,1131.211182 
	C50.025879,1103.764771 40.160446,1076.214233 31.247475,1048.372803 
	C25.813448,1031.398560 21.634426,1013.942688 18.110777,996.457458 
	C14.021437,976.165222 10.988651,955.644226 8.027265,935.145996 
	C5.901370,920.430908 4.326699,905.616272 3.108154,890.796570 
	C2.226943,880.079468 2.361504,869.280029 1.961202,858.520386 
	C1.917162,857.336609 1.333428,856.172974 1.000003,855.000000 
	C1.000000,841.979126 1.000000,828.958191 0.999993,815.468628 
z"/>
<path fill="#009CDB" opacity="1.000000" stroke="none" 
	d="
M811.998230,82.153122 
	C785.330933,82.106308 758.663574,82.059494 731.220154,82.311302 
	C730.296021,84.251610 730.018860,85.893265 730.018494,87.534988 
	C729.997498,173.813156 729.994385,260.091339 730.036255,346.369476 
	C730.037170,348.299408 730.577087,350.229065 730.865601,352.158844 
	C730.865540,352.158844 730.990051,352.455566 731.198364,352.995758 
	C733.209900,353.690643 735.012817,353.976379 736.816345,353.979736 
	C754.768372,354.013184 772.720398,353.984955 790.672485,354.003204 
	C825.743530,354.038818 860.814636,354.093018 895.930481,354.597412 
	C895.983276,497.348785 895.991516,639.642212 895.992615,781.935669 
	C895.992615,782.932434 895.893250,783.929199 895.383301,784.949463 
	C813.339417,784.986084 731.752441,784.999268 650.165527,785.012451 
	C650.110596,784.017334 650.007446,783.022156 650.007446,782.027039 
	C650.009644,692.990662 650.019836,603.954285 650.554382,514.455688 
	C677.351013,514.043701 703.622742,514.093811 729.927551,514.602417 
	C729.973755,576.331482 729.978394,637.601929 730.036438,698.872375 
	C730.038391,700.968140 730.577026,703.063416 730.865540,705.158875 
	C730.865540,705.158875 730.998108,705.496399 731.184204,706.076904 
	C732.187866,706.770508 733.005432,706.981995 733.823120,706.982544 
	C758.977356,707.000671 784.131653,707.003906 809.285889,706.979248 
	C810.390320,706.978210 811.494507,706.693604 812.734436,706.522339 
	C812.835632,705.115295 812.989014,703.976624 812.989136,702.837952 
	C813.000488,614.548157 813.004578,526.258301 812.955750,437.968536 
	C812.955017,436.634918 812.289490,435.301727 811.934265,433.968323 
	C811.934265,433.968323 812.019897,433.976135 811.774414,433.668945 
	C809.879211,433.241089 808.229492,433.015411 806.579712,433.014923 
	C754.441101,432.999939 702.302551,433.006866 650.163940,433.010437 
	C650.109253,430.849213 650.006958,428.687958 650.006775,426.526733 
	C649.995544,284.996918 649.992615,143.467087 649.994507,1.468632 
	C731.687561,1.000000 813.375122,1.000000 895.494141,1.467523 
	C895.950439,3.598816 895.996765,5.262586 895.996826,6.926356 
	C895.999634,95.640335 895.998657,184.354324 895.997986,273.068298 
	C895.997986,273.068298 895.998108,272.998199 895.560181,272.998932 
	C867.725403,272.999084 840.328552,272.998535 812.931763,272.997955 
	C812.931763,272.997955 813.001892,272.998199 813.001038,272.560242 
	C813.000122,210.634598 813.008789,149.146927 812.958008,87.659309 
	C812.956482,85.823654 812.332153,83.988503 811.998230,82.153122 
z"/>
<path fill="#E6E6E6" opacity="1.000000" stroke="none" 
	d="
M1.000003,855.468628 
	C1.333428,856.172974 1.917162,857.336609 1.961202,858.520386 
	C2.361504,869.280029 2.226943,880.079468 3.108154,890.796570 
	C4.326699,905.616272 5.901370,920.430908 8.027265,935.145996 
	C10.988651,955.644226 14.021437,976.165222 18.110777,996.457458 
	C21.634426,1013.942688 25.813448,1031.398560 31.247475,1048.372803 
	C40.160446,1076.214233 50.025879,1103.764771 60.107391,1131.211182 
	C64.210556,1142.381958 69.694756,1153.074951 74.968857,1163.779175 
	C82.749031,1179.569702 90.149933,1195.619873 99.074539,1210.756226 
	C112.421547,1233.393311 126.400711,1255.707031 141.161285,1277.445068 
	C152.169540,1293.657227 164.822617,1308.753906 176.772400,1324.324951 
	C198.081528,1352.091553 223.358902,1376.180786 248.214478,1400.605469 
	C259.152283,1411.353638 271.522217,1420.635864 283.128784,1430.713989 
	C305.823364,1450.419922 330.302277,1467.721436 355.518433,1483.958008 
	C370.022095,1493.296753 384.974945,1501.968262 399.990509,1510.472290 
	C412.362427,1517.479248 424.826630,1524.460571 437.778931,1530.274780 
	C460.234924,1540.354736 482.971344,1549.844971 505.825714,1558.994141 
	C535.124451,1570.723145 565.480103,1579.230835 596.123169,1586.589844 
	C610.387817,1590.015625 624.905090,1592.438965 639.367004,1594.979980 
	C654.041260,1597.558594 668.736267,1600.154541 683.519226,1601.938721 
	C696.717590,1603.531616 710.043396,1604.103271 723.322571,1604.979858 
	C731.734375,1605.535522 740.163757,1605.824463 748.792603,1606.616455 
	C499.739380,1607.000000 250.478745,1607.000000 1.000000,1607.000000 
	C1.000000,1356.645874 1.000000,1106.291626 1.000003,855.468628 
z"/>
<path fill="#E6E6E6" opacity="1.000000" stroke="none" 
	d="
M797.468628,1607.000000 
	C798.172729,1606.666626 799.333496,1606.095947 800.520020,1606.036255 
	C814.879517,1605.312256 829.288208,1605.162109 843.592529,1603.857666 
	C858.531799,1602.495239 873.353271,1599.890381 888.258362,1598.095093 
	C916.860962,1594.650024 944.961121,1588.519409 972.633057,1580.844604 
	C996.141235,1574.324585 1019.234863,1566.235474 1042.320679,1558.285156 
	C1072.888550,1547.758057 1102.262085,1534.336304 1130.675415,1518.996582 
	C1150.823364,1508.119141 1170.634644,1496.534912 1190.012695,1484.339233 
	C1206.678955,1473.849976 1222.807373,1462.436768 1238.631592,1450.701294 
	C1250.666504,1441.775879 1262.141724,1432.030518 1273.346191,1422.065552 
	C1290.590454,1406.729004 1307.959717,1391.458252 1324.208008,1375.098999 
	C1338.888794,1360.317993 1352.306274,1344.261230 1365.978516,1328.504639 
	C1385.981079,1305.452637 1404.170410,1280.991943 1420.380615,1255.143799 
	C1431.522217,1237.377808 1442.111938,1219.249634 1452.446289,1200.999023 
	C1459.218750,1189.038940 1465.671753,1176.827271 1471.243774,1164.273682 
	C1480.904175,1142.508667 1490.830688,1120.762817 1498.694824,1098.325073 
	C1508.041260,1071.657959 1515.776245,1044.393188 1523.331909,1017.144104 
	C1527.502441,1002.102905 1530.310547,986.637451 1532.939941,971.228027 
	C1535.783081,954.566223 1537.924805,937.773560 1539.947266,920.986755 
	C1541.340088,909.427307 1542.083496,897.786438 1542.973999,886.171021 
	C1543.529541,878.925598 1543.818726,871.659729 1544.613770,864.201538 
	C1545.000000,1111.593994 1545.000000,1359.187988 1545.000000,1607.000000 
	C1295.979126,1607.000000 1046.958252,1607.000000 797.468628,1607.000000 
z"/>
<path fill="#002736" opacity="1.000000" stroke="none" 
	d="
M896.390564,272.865479 
	C895.998657,184.354324 895.999634,95.640335 895.996826,6.926356 
	C895.996765,5.262586 895.950439,3.598816 895.962830,1.467523 
	C896.000000,1.000000 896.500000,1.000000 896.750000,1.000000 
	C897.000000,89.563820 897.001404,178.127640 896.990906,266.691467 
	C896.990723,268.681854 896.855408,270.672272 896.390564,272.865479 
z"/>
<path fill="#002736" opacity="1.000000" stroke="none" 
	d="
M895.840210,784.925964 
	C895.893250,783.929199 895.992615,782.932434 895.992615,781.935669 
	C895.991516,639.642212 895.983276,497.348785 895.958862,354.350708 
	C895.942505,353.646027 895.958984,353.149628 895.958984,353.149628 
	C896.305969,354.250793 896.956543,355.351868 896.956848,356.453094 
	C897.000427,499.013702 896.996399,641.574280 896.987061,784.134888 
	C896.987061,784.629028 896.875854,785.123169 896.379395,785.497192 
	C895.942261,785.377136 895.840210,784.925964 895.840210,784.925964 
z"/>
<path fill="#002736" opacity="1.000000" stroke="none" 
	d="
M811.963562,434.438782 
	C812.289490,435.301727 812.955017,436.634918 812.955750,437.968536 
	C813.004578,526.258301 813.000488,614.548157 812.989136,702.837952 
	C812.989014,703.976624 812.835632,705.115295 812.734436,706.522339 
	C811.494507,706.693604 810.390320,706.978210 809.285889,706.979248 
	C784.131653,707.003906 758.977356,707.000671 733.823120,706.982544 
	C733.005432,706.981995 732.187866,706.770508 731.193970,706.257935 
	C757.794739,705.858459 784.571777,705.858459 811.992859,705.858459 
	C811.992859,615.502747 811.992859,525.205994 811.963562,434.438782 
z"/>
<path fill="#0075A4" opacity="1.000000" stroke="none" 
	d="
M730.921265,351.675537 
	C730.577087,350.229065 730.037170,348.299408 730.036255,346.369476 
	C729.994385,260.091339 729.997498,173.813156 730.018494,87.534988 
	C730.018860,85.893265 730.296021,84.251610 730.756653,82.340591 
	C731.046204,160.960144 731.023560,239.849030 730.999390,318.737915 
	C730.996033,329.556030 730.984558,340.374146 730.921265,351.675537 
z"/>
<path fill="#0075A4" opacity="1.000000" stroke="none" 
	d="
M895.383301,784.949463 
	C895.840210,784.925964 895.942261,785.377136 895.956970,785.607788 
	C894.810791,785.892273 893.649841,785.993042 892.488953,785.993103 
	C812.980103,786.000549 733.471313,786.000793 653.962463,785.992004 
	C652.803528,785.991882 651.644653,785.870972 650.325623,785.409424 
	C731.752441,784.999268 813.339417,784.986084 895.383301,784.949463 
z"/>
<path fill="#003153" opacity="1.000000" stroke="none" 
	d="
M1063.008545,119.660812 
	C1063.145996,121.171700 1063.008179,122.333694 1063.008179,123.495697 
	C1063.011353,195.482132 1063.025757,267.468567 1063.030884,339.956940 
	C1062.681885,339.085022 1062.043701,337.711365 1062.042725,336.337250 
	C1061.994507,264.990448 1061.996948,193.643600 1062.033325,122.296783 
	C1062.033813,121.301697 1062.531860,120.306870 1063.008545,119.660812 
z"/>
<path fill="#001929" opacity="1.000000" stroke="none" 
	d="
M488.355164,336.989563 
	C487.964935,264.511963 487.954102,191.787582 487.912598,118.605423 
	C488.254608,119.233894 488.952667,120.319901 488.953430,121.406395 
	C489.004272,192.529755 488.999390,263.653137 488.987152,334.776520 
	C488.987030,335.431946 488.822388,336.087372 488.355164,336.989563 
z"/>
<path fill="#002736" opacity="1.000000" stroke="none" 
	d="
M811.998962,82.609489 
	C812.332153,83.988503 812.956482,85.823654 812.958008,87.659309 
	C813.008789,149.146927 813.000122,210.634598 813.001099,272.595276 
	C812.667969,271.240173 812.043579,269.412262 812.042053,267.583862 
	C811.991333,206.077881 811.999817,144.571869 811.998962,82.609489 
z"/>
<path fill="#0075A4" opacity="1.000000" stroke="none" 
	d="
M730.921265,704.675598 
	C730.577026,703.063416 730.038391,700.968140 730.036438,698.872375 
	C729.978394,637.601929 729.973755,576.331482 730.165405,514.569458 
	C730.370178,514.078003 730.849304,514.056396 730.849304,514.056396 
	C730.899536,530.689026 730.987976,547.321716 730.992676,563.954346 
	C731.005859,610.700317 730.984680,657.446350 730.921265,704.675598 
z"/>
<path fill="#004E6E" opacity="1.000000" stroke="none" 
	d="
M895.499268,353.084412 
	C895.958984,353.149628 895.942505,353.646027 895.914062,353.892761 
	C860.814636,354.093018 825.743530,354.038818 790.672485,354.003204 
	C772.720398,353.984955 754.768372,354.013184 736.816345,353.979736 
	C735.012817,353.976379 733.209900,353.690643 731.188599,353.156342 
	C732.958679,352.851166 734.946899,352.989899 736.935120,352.990601 
	C789.636597,353.008850 842.338074,353.012817 895.499268,353.084412 
z"/>
<path fill="#004E6E" opacity="1.000000" stroke="none" 
	d="
M650.311218,433.415863 
	C702.302551,433.006866 754.441101,432.999939 806.579712,433.014923 
	C808.229492,433.015411 809.879211,433.241089 811.773560,433.711914 
	C760.154846,434.041412 708.291565,434.022705 656.428284,433.992645 
	C654.438354,433.991486 652.448425,433.880920 650.311218,433.415863 
z"/>
<path fill="#002736" opacity="1.000000" stroke="none" 
	d="
M813.134521,273.390503 
	C840.328552,272.998535 867.725403,272.999084 895.595215,272.998810 
	C895.404053,273.329987 894.739563,273.952698 894.075684,273.952179 
	C867.162842,273.930908 840.250122,273.853394 813.134521,273.390503 
z"/>
<path fill="#004E6E" opacity="1.000000" stroke="none" 
	d="
M730.736267,513.631287 
	C730.849304,514.056396 730.370178,514.078003 730.132324,514.110962 
	C703.622742,514.093811 677.351013,514.043701 650.621704,513.990601 
	C650.799377,513.660278 651.434998,513.046265 652.070190,513.046692 
	C678.254517,513.065369 704.438904,513.139282 730.736267,513.631287 
z"/>
</svg>