<svg version="1.1" id="Layer_1" xmlns="http://www.w3.org/2000/svg" xmlns:xlink="http://www.w3.org/1999/xlink" x="0px" y="0px"
	 width="100%" viewBox="0 0 316 328" enable-background="new 0 0 316 328" xml:space="preserve">
<path fill="#F9F6F3" opacity="1.000000" stroke="none" 
	d="
M217.000000,329.000000 
	C144.666687,329.000000 72.833359,329.000000 1.000029,329.000000 
	C1.000019,219.666702 1.000019,110.333397 1.000010,1.000073 
	C106.333282,1.000049 211.666565,1.000049 316.999878,1.000024 
	C316.999939,110.333260 316.999939,219.666519 316.999969,328.999878 
	C283.833344,329.000000 250.666672,329.000000 217.000000,329.000000 
M189.208298,233.696030 
	C212.189438,220.739059 235.170563,207.782089 258.920471,194.391678 
	C258.920471,200.458023 258.758636,205.563278 258.981781,210.651657 
	C259.113373,213.651733 258.253235,215.363312 255.466248,216.916977 
	C225.386536,233.685577 195.375305,250.578094 165.440079,267.603271 
	C162.289200,269.395264 160.005478,269.357086 156.886246,267.586273 
	C124.486168,249.192474 91.952011,231.034485 59.587303,212.579147 
	C55.510662,210.254532 52.529789,211.218857 49.974560,214.021484 
	C47.671825,216.547150 49.791733,222.549561 53.187763,224.458817 
	C87.980141,244.019196 122.780624,263.565155 157.552292,283.162231 
	C159.817184,284.438751 161.520950,285.157410 164.285538,283.587097 
	C199.290878,263.703339 234.390320,243.984772 269.532318,224.343170 
	C272.050873,222.935516 273.039673,221.459335 273.001221,218.565094 
	C272.841766,206.568115 272.943390,194.567780 272.930756,182.568695 
	C272.923798,175.941696 268.782684,173.515671 262.981628,176.772507 
	C230.199585,195.177094 197.442566,213.626465 164.604507,231.930527 
	C163.026779,232.809982 160.280426,233.328262 158.890808,232.554840 
	C127.937546,215.326935 97.090996,197.907059 66.268799,180.444885 
	C65.143974,179.807602 63.753811,178.403198 63.707050,177.304413 
	C63.454628,171.373306 63.587502,165.425812 63.587502,158.876968 
	C65.088776,159.653870 65.947029,160.066818 66.776215,160.531616 
	C97.095901,177.527481 127.387398,194.574219 157.796310,211.408875 
	C159.541275,212.374924 162.721161,212.480713 164.425339,211.533417 
	C199.470047,192.053436 234.381485,172.333847 269.379272,152.768967 
	C272.025452,151.289673 273.076477,149.700806 273.018921,146.588928 
	C272.806274,135.093735 272.937042,123.592232 272.933441,112.093102 
	C272.931091,104.516502 268.433624,101.921570 261.798828,105.657188 
	C229.473175,123.857666 197.139404,142.043793 164.835464,160.282700 
	C162.535370,161.581329 160.718094,162.164612 158.035095,160.633926 
	C131.744858,145.635040 105.347244,130.824448 78.987450,115.947372 
	C76.148224,114.344963 73.355278,112.660538 70.392403,110.927307 
	C71.078278,110.305038 71.290512,110.028206 71.570015,109.870880 
	C100.566345,93.550529 129.541351,77.191589 158.643066,61.061249 
	C160.173737,60.212830 163.141541,60.659039 164.834045,61.596752 
	C187.819107,74.331329 210.759598,87.150497 233.538651,100.248650 
	C237.277924,102.398766 239.983231,102.346214 243.363174,100.020576 
	C247.373520,97.261177 247.561554,92.644226 243.348709,90.269005 
	C216.983810,75.404366 190.565933,60.633236 164.262238,45.661331 
	C161.823151,44.273018 160.187271,44.509068 157.995667,45.747375 
	C123.089104,65.470306 88.166023,85.164230 53.189377,104.762459 
	C50.590382,106.218742 49.338787,107.715820 49.299488,110.877205 
	C49.259399,114.102020 50.659492,115.545013 53.207703,116.971214 
	C87.601517,136.220947 121.981018,155.497116 156.255112,174.958603 
	C159.907745,177.032623 162.606781,176.986832 166.197830,174.940811 
	C195.395477,158.305328 224.699036,141.855774 253.978043,125.363228 
	C255.448578,124.534897 256.990051,123.832428 258.920410,122.858467 
	C258.920410,128.937119 258.734131,134.110718 258.992188,139.262070 
	C259.140533,142.223358 257.978271,143.680298 255.486130,145.074997 
	C225.290161,161.973831 195.136383,178.948715 165.050934,196.043396 
	C162.229568,197.646500 160.179062,197.594238 157.395020,196.018814 
	C124.537537,177.425720 91.612694,158.951569 58.689537,140.474701 
	C53.923580,137.800003 49.460484,140.449570 49.444557,145.932495 
	C49.409218,158.098145 49.542076,170.265594 49.358852,182.428589 
	C49.311893,185.545929 50.446281,187.099838 53.096478,188.585052 
	C88.061768,208.180191 122.969963,227.877487 157.841461,247.639160 
	C160.338531,249.054245 162.183472,248.984711 164.651413,247.521042 
	C172.519699,242.854630 180.565048,238.486755 189.208298,233.696030 
z"/>
<path fill="#FF3924" opacity="1.000000" stroke="none" 
	d="
M188.875153,233.849808 
	C180.565048,238.486755 172.519699,242.854630 164.651413,247.521042 
	C162.183472,248.984711 160.338531,249.054245 157.841461,247.639160 
	C122.969963,227.877487 88.061768,208.180191 53.096478,188.585052 
	C50.446281,187.099838 49.311893,185.545929 49.358852,182.428589 
	C49.542076,170.265594 49.409218,158.098145 49.444557,145.932495 
	C49.460484,140.449570 53.923580,137.800003 58.689537,140.474701 
	C91.612694,158.951569 124.537537,177.425720 157.395020,196.018814 
	C160.179062,197.594238 162.229568,197.646500 165.050934,196.043396 
	C195.136383,178.948715 225.290161,161.973831 255.486130,145.074997 
	C257.978271,143.680298 259.140533,142.223358 258.992188,139.262070 
	C258.734131,134.110718 258.920410,128.937119 258.920410,122.858467 
	C256.990051,123.832428 255.448578,124.534897 253.978043,125.363228 
	C224.699036,141.855774 195.395477,158.305328 166.197830,174.940811 
	C162.606781,176.986832 159.907745,177.032623 156.255112,174.958603 
	C121.981018,155.497116 87.601517,136.220947 53.207703,116.971214 
	C50.659492,115.545013 49.259399,114.102020 49.299488,110.877205 
	C49.338787,107.715820 50.590382,106.218742 53.189377,104.762459 
	C88.166023,85.164230 123.089104,65.470306 157.995667,45.747375 
	C160.187271,44.509068 161.823151,44.273018 164.262238,45.661331 
	C190.565933,60.633236 216.983810,75.404366 243.348709,90.269005 
	C247.561554,92.644226 247.373520,97.261177 243.363174,100.020576 
	C239.983231,102.346214 237.277924,102.398766 233.538651,100.248650 
	C210.759598,87.150497 187.819107,74.331329 164.834045,61.596752 
	C163.141541,60.659039 160.173737,60.212830 158.643066,61.061249 
	C129.541351,77.191589 100.566345,93.550529 71.570015,109.870880 
	C71.290512,110.028206 71.078278,110.305038 70.392403,110.927307 
	C73.355278,112.660538 76.148224,114.344963 78.987450,115.947372 
	C105.347244,130.824448 131.744858,145.635040 158.035095,160.633926 
	C160.718094,162.164612 162.535370,161.581329 164.835464,160.282700 
	C197.139404,142.043793 229.473175,123.857666 261.798828,105.657188 
	C268.433624,101.921570 272.931091,104.516502 272.933441,112.093102 
	C272.937042,123.592232 272.806274,135.093735 273.018921,146.588928 
	C273.076477,149.700806 272.025452,151.289673 269.379272,152.768967 
	C234.381485,172.333847 199.470047,192.053436 164.425339,211.533417 
	C162.721161,212.480713 159.541275,212.374924 157.796310,211.408875 
	C127.387398,194.574219 97.095901,177.527481 66.776215,160.531616 
	C65.947029,160.066818 65.088776,159.653870 63.587502,158.876968 
	C63.587502,165.425812 63.454628,171.373306 63.707050,177.304413 
	C63.753811,178.403198 65.143974,179.807602 66.268799,180.444885 
	C97.090996,197.907059 127.937546,215.326935 158.890808,232.554840 
	C160.280426,233.328262 163.026779,232.809982 164.604507,231.930527 
	C197.442566,213.626465 230.199585,195.177094 262.981628,176.772507 
	C268.782684,173.515671 272.923798,175.941696 272.930756,182.568695 
	C272.943390,194.567780 272.841766,206.568115 273.001221,218.565094 
	C273.039673,221.459335 272.050873,222.935516 269.532318,224.343170 
	C234.390320,243.984772 199.290878,263.703339 164.285538,283.587097 
	C161.520950,285.157410 159.817184,284.438751 157.552292,283.162231 
	C122.780624,263.565155 87.980141,244.019196 53.187763,224.458817 
	C49.791733,222.549561 47.671825,216.547150 49.974560,214.021484 
	C52.529789,211.218857 55.510662,210.254532 59.587303,212.579147 
	C91.952011,231.034485 124.486168,249.192474 156.886246,267.586273 
	C160.005478,269.357086 162.289200,269.395264 165.440079,267.603271 
	C195.375305,250.578094 225.386536,233.685577 255.466248,216.916977 
	C258.253235,215.363312 259.113373,213.651733 258.981781,210.651657 
	C258.758636,205.563278 258.920471,200.458023 258.920471,194.391678 
	C235.170563,207.782089 212.189438,220.739059 188.875153,233.849808 
z"/>
</svg>