<svg version="1.1" id="Layer_1" xmlns="http://www.w3.org/2000/svg" xmlns:xlink="http://www.w3.org/1999/xlink" x="0px" y="0px"
	 width="100%" viewBox="0 0 50 50" enable-background="new 0 0 50 50" xml:space="preserve">
<path fill="#F36962" opacity="1.000000" stroke="none" 
	d="
M37.017303,51.000000 
	C24.681440,51.000000 12.848447,51.000000 1.011590,51.000000 
	C1.007726,34.338966 1.007726,17.677925 1.003861,1.012665 
	C17.660557,1.008443 34.321121,1.008443 50.986259,1.004219 
	C50.990841,17.660078 50.990841,34.320164 50.990841,51.000000 
	C46.506737,51.000000 42.013454,51.000000 37.017303,51.000000 
M12.711385,44.510193 
	C17.219219,44.677872 21.935831,46.718010 26.464392,42.592991 
	C27.606735,41.699081 28.749077,40.805176 30.330070,40.230362 
	C32.926361,41.452736 35.522652,42.675106 38.834625,43.933186 
	C42.027180,43.243027 44.728794,42.208755 42.916031,37.298218 
	C40.573719,35.190422 38.231403,33.082626 35.881584,30.063324 
	C36.850208,21.261770 34.930382,13.867735 25.879591,9.119276 
	C25.363663,8.522795 24.865652,7.427190 24.329000,7.407924 
	C19.562119,7.236786 14.786289,7.179195 10.019176,7.309844 
	C9.372646,7.327563 8.759688,8.570257 8.151807,10.152036 
	C8.317897,20.815071 8.483987,31.478106 8.731055,42.899925 
	C9.824957,43.295284 10.918858,43.690643 12.711385,44.510193 
z"/>
<path fill="#FFFCFC" opacity="1.000000" stroke="none" 
	d="
M29.891418,39.911266 
	C28.749077,40.805176 27.606735,41.699081 25.775148,42.767288 
	C20.735950,42.987473 16.385994,43.033356 11.741646,42.871929 
	C10.514861,42.490128 9.582469,42.315636 8.650076,42.141144 
	C8.483987,31.478106 8.317897,20.815071 8.598753,9.674191 
	C14.710933,9.420801 20.376165,9.645259 26.041397,9.869717 
	C34.930382,13.867735 36.850208,21.261770 35.610256,30.731543 
	C33.523090,34.236927 31.707254,37.074097 29.891418,39.911266 
M18.515692,16.136978 
	C17.357967,17.426731 15.356808,18.623129 15.201769,20.023863 
	C14.749291,24.111868 14.815256,28.299026 15.145015,32.409855 
	C15.265215,33.908298 16.661928,36.476845 17.544653,36.506279 
	C19.610563,36.575180 21.717850,35.403442 24.166710,34.123711 
	C24.879307,32.656612 25.779011,31.249519 26.272100,29.712021 
	C28.401890,23.071135 25.038961,16.646761 18.515692,16.136978 
z"/>
<path fill="#F68B86" opacity="1.000000" stroke="none" 
	d="
M30.110744,40.070816 
	C31.707254,37.074097 33.523090,34.236927 35.614010,31.187296 
	C38.231403,33.082626 40.573719,35.190422 42.599964,37.512211 
	C40.448330,37.847424 38.612759,37.968643 36.777191,38.089859 
	C37.224442,40.025734 37.671692,41.961605 38.118942,43.897480 
	C35.522652,42.675106 32.926361,41.452736 30.110744,40.070816 
z"/>
<path fill="#FDCBC8" opacity="1.000000" stroke="none" 
	d="
M38.476784,43.915333 
	C37.671692,41.961605 37.224442,40.025734 36.777191,38.089859 
	C38.612759,37.968643 40.448330,37.847424 42.623489,37.884705 
	C44.728794,42.208755 42.027180,43.243027 38.476784,43.915333 
z"/>
<path fill="#F58A86" opacity="1.000000" stroke="none" 
	d="
M25.960495,9.494496 
	C20.376165,9.645259 14.710933,9.420801 8.588442,9.221048 
	C8.759688,8.570257 9.372646,7.327563 10.019176,7.309844 
	C14.786289,7.179195 19.562119,7.236786 24.329000,7.407924 
	C24.865652,7.427190 25.363663,8.522795 25.960495,9.494496 
z"/>
<path fill="#F58A86" opacity="1.000000" stroke="none" 
	d="
M12.036039,43.079239 
	C16.385994,43.033356 20.735950,42.987473 25.549664,42.984299 
	C21.935831,46.718010 17.219219,44.677872 12.359126,44.046196 
	C12.016591,43.414547 12.026315,43.246891 12.036039,43.079239 
z"/>
<path fill="#FDEFEF" opacity="1.000000" stroke="none" 
	d="
M11.741646,42.871929 
	C12.026315,43.246891 12.016591,43.414547 12.009813,43.834103 
	C10.918858,43.690643 9.824957,43.295284 8.690565,42.520535 
	C9.582469,42.315636 10.514861,42.490128 11.741646,42.871929 
z"/>
<path fill="#F36861" opacity="1.000000" stroke="none" 
	d="
M19.336918,16.267347 
	C25.038961,16.646761 28.401890,23.071135 26.272100,29.712021 
	C25.779011,31.249519 24.879307,32.656612 23.568542,34.479675 
	C20.423820,35.321453 18.809036,34.858070 18.966650,31.676443 
	C19.220783,26.546553 19.226353,21.404350 19.336918,16.267347 
z"/>
<path fill="#FBCFCE" opacity="1.000000" stroke="none" 
	d="
M18.926304,16.202164 
	C19.226353,21.404350 19.220783,26.546553 18.966650,31.676443 
	C18.809036,34.858070 20.423820,35.321453 23.389378,34.784836 
	C21.717850,35.403442 19.610563,36.575180 17.544653,36.506279 
	C16.661928,36.476845 15.265215,33.908298 15.145015,32.409855 
	C14.815256,28.299026 14.749291,24.111868 15.201769,20.023863 
	C15.356808,18.623129 17.357967,17.426731 18.926304,16.202164 
z"/>
</svg>