<svg version="1.1" id="Layer_1" xmlns="http://www.w3.org/2000/svg" xmlns:xlink="http://www.w3.org/1999/xlink" x="0px" y="0px"
	 width="100%" viewBox="0 0 533 367" enable-background="new 0 0 533 367" xml:space="preserve">
<path fill="#F5F5F5" opacity="1.000000" stroke="none" 
	d="
M295.000000,368.000000 
	C196.693817,368.000000 98.887650,368.000000 1.040735,368.000000 
	C1.040735,245.727798 1.040735,123.455566 1.040735,1.091671 
	C178.556198,1.091671 356.112457,1.091671 533.834351,1.091671 
	C533.834351,123.333160 533.834351,245.666550 533.834351,368.000000 
	C454.455536,368.000000 374.977753,368.000000 295.000000,368.000000 
M160.133286,179.819183 
	C161.607239,181.155746 163.081207,182.492325 163.557968,183.917877 
	C147.081543,183.351822 131.945511,187.300064 118.802879,197.555786 
	C103.430511,209.551468 94.103142,225.112183 92.091545,244.654556 
	C91.694427,248.512543 90.401978,249.356186 87.105286,247.885193 
	C80.032402,244.729248 72.770294,244.300156 65.242249,245.989304 
	C46.413338,250.214142 34.630684,265.691681 35.316616,283.718994 
	C36.147305,305.550781 51.908886,320.757751 73.655083,320.879059 
	C134.765915,321.219940 195.879929,320.994354 257.003662,321.820099 
	C256.733704,325.616333 259.480225,324.891693 261.722076,325.008667 
	C264.566101,325.157043 266.196777,324.090912 266.926788,321.005768 
	C323.251068,321.003448 379.575500,321.048004 435.899445,320.910980 
	C440.474121,320.899841 445.266510,320.305267 449.581879,318.859711 
	C472.209747,311.279968 484.415039,290.066040 479.952118,266.740234 
	C476.310699,247.708099 457.265961,231.910690 437.790863,232.068665 
	C432.404755,232.112350 427.025421,232.989594 420.950714,233.548050 
	C421.335632,229.121841 421.502777,224.872833 422.103973,220.686157 
	C424.825470,201.733475 421.709656,183.569244 413.977417,166.308594 
	C409.998688,157.426865 404.592957,149.184387 400.150360,140.094971 
	C403.434570,136.786819 406.712830,133.472717 410.004120,130.171646 
	C420.725159,119.418793 420.725891,108.371925 409.954193,97.586159 
	C391.835754,79.444115 373.702881,61.316479 355.564697,43.194206 
	C344.619324,32.258415 333.484070,32.236904 322.558807,43.146732 
	C304.769226,60.911224 286.841553,78.542610 269.347076,96.593544 
	C265.441925,100.622910 263.090088,106.157677 259.267609,111.007210 
	C257.021576,111.997589 254.550278,112.663765 252.571503,114.038750 
	C246.479858,118.271652 240.576523,122.775574 234.133011,126.690475 
	C231.114319,122.442162 228.095612,118.193855 224.766144,113.350304 
	C223.592972,112.417984 222.413040,111.494011 221.247635,110.552094 
	C198.753784,92.372177 166.508072,98.324402 151.895935,123.289017 
	C142.676041,139.041046 142.922913,163.005188 160.133286,179.819183 
z"/>
<path fill="#E0EFFA" opacity="1.000000" stroke="none" 
	d="
M399.832062,140.653046 
	C404.592957,149.184387 409.998688,157.426865 413.977417,166.308594 
	C421.709656,183.569244 424.825470,201.733475 422.103973,220.686157 
	C421.502777,224.872833 421.335632,229.121841 420.950714,233.548050 
	C427.025421,232.989594 432.404755,232.112350 437.790863,232.068665 
	C457.265961,231.910690 476.310699,247.708099 479.952118,266.740234 
	C484.415039,290.066040 472.209747,311.279968 449.581879,318.859711 
	C445.266510,320.305267 440.474121,320.899841 435.899445,320.910980 
	C379.575500,321.048004 323.251068,321.003448 266.171326,320.711121 
	C265.372070,316.806274 265.328247,313.196136 265.597229,309.576782 
	C267.164429,308.544128 268.505280,307.609222 269.658844,306.482544 
	C276.053864,300.236389 282.403351,293.943573 288.941589,287.985931 
	C296.461670,295.749329 303.795166,303.206940 311.160187,310.633362 
	C316.434662,315.951752 316.951691,315.938507 323.651855,309.822296 
	C320.707550,307.324890 317.619690,305.052155 314.944122,302.368378 
	C308.160736,295.564240 301.562256,288.575745 295.031647,281.369385 
	C310.321655,265.902679 325.531555,250.788162 340.529388,235.466064 
	C342.161713,233.798416 343.330811,230.959579 343.412750,228.618439 
	C343.738159,219.321579 343.441376,210.004486 343.631439,200.700119 
	C343.671814,198.724045 344.208069,196.194260 345.497803,194.892502 
	C363.509247,176.713623 381.691437,158.703934 399.832062,140.653046 
z"/>
<path fill="#E0EFFA" opacity="1.000000" stroke="none" 
	d="
M256.992676,320.992126 
	C195.879929,320.994354 134.765915,321.219940 73.655083,320.879059 
	C51.908886,320.757751 36.147305,305.550781 35.316616,283.718994 
	C34.630684,265.691681 46.413338,250.214142 65.242249,245.989304 
	C72.770294,244.300156 80.032402,244.729248 87.105286,247.885193 
	C90.401978,249.356186 91.694427,248.512543 92.091545,244.654556 
	C94.103142,225.112183 103.430511,209.551468 118.802879,197.555786 
	C131.945511,187.300064 147.081543,183.351822 164.356201,183.989685 
	C172.808655,187.430908 180.462906,190.800323 188.990540,194.554214 
	C188.990540,207.900009 188.834381,222.704971 189.136612,237.500565 
	C189.190079,240.118149 190.505829,243.335861 192.336700,245.195206 
	C212.555603,265.728363 232.986862,286.052490 253.381241,306.412537 
	C254.544250,307.573578 255.886536,308.554993 257.115601,310.033875 
	C257.054749,313.962494 257.023712,317.477325 256.992676,320.992126 
M212.712173,307.235046 
	C213.143768,308.447479 213.851593,309.635651 213.960556,310.876434 
	C214.519379,317.239990 215.456772,318.139740 222.585968,318.433380 
	C223.539337,311.227264 223.342361,305.094391 217.072891,299.232208 
	C201.026703,284.228485 185.795319,268.351440 170.323456,252.739044 
	C169.058243,251.462326 167.830734,249.604202 167.658173,247.907166 
	C167.343292,244.810684 167.497604,241.566589 168.099380,238.510727 
	C168.524628,236.351242 169.799225,234.256058 171.075043,232.392609 
	C172.741943,229.957901 175.485077,228.058640 176.526443,225.436966 
	C179.070648,219.031708 175.793533,211.452835 169.826126,208.419067 
	C163.607254,205.257431 155.731308,207.247162 151.637802,213.013992 
	C148.286423,217.735336 149.164917,226.668747 154.334244,230.582092 
	C158.538040,233.764481 159.520203,237.384109 159.038666,242.092850 
	C158.853287,243.905579 159.199600,245.777481 158.969955,247.579926 
	C158.439240,251.745377 160.013824,254.694672 163.015167,257.644531 
	C179.522293,273.868225 195.813507,290.311646 212.712173,307.235046 
z"/>
<path fill="#3594DD" opacity="1.000000" stroke="none" 
	d="
M288.768463,287.666779 
	C282.403351,293.943573 276.053864,300.236389 269.658844,306.482544 
	C268.505280,307.609222 267.164429,308.544128 265.639771,309.168823 
	C265.651703,304.870819 265.933868,300.971558 266.512817,296.936523 
	C272.300018,291.254944 277.790497,285.709106 283.556458,279.998413 
	C285.285248,278.245941 286.738495,276.658295 288.492188,274.936584 
	C303.274658,260.346863 317.817291,245.950607 332.149902,231.348236 
	C333.669464,229.800079 334.608826,227.069427 334.698639,224.842255 
	C335.006805,217.201904 334.661255,209.536865 334.887512,201.890778 
	C334.989410,198.446381 333.899841,196.011902 331.459839,193.591248 
	C310.437286,172.735489 289.611176,151.681305 268.541718,130.873398 
	C262.878815,125.280792 259.554382,119.044449 260.023102,110.999359 
	C263.090088,106.157677 265.441925,100.622910 269.347076,96.593544 
	C286.841553,78.542610 304.769226,60.911224 322.558807,43.146732 
	C333.484070,32.236904 344.619324,32.258415 355.564697,43.194206 
	C373.702881,61.316479 391.835754,79.444115 409.954193,97.586159 
	C420.725891,108.371925 420.725159,119.418793 410.004120,130.171646 
	C406.712830,133.472717 403.434570,136.786819 399.991211,140.373993 
	C381.691437,158.703934 363.509247,176.713623 345.497803,194.892502 
	C344.208069,196.194260 343.671814,198.724045 343.631439,200.700119 
	C343.441376,210.004486 343.738159,219.321579 343.412750,228.618439 
	C343.330811,230.959579 342.161713,233.798416 340.529388,235.466064 
	C325.531555,250.788162 310.321655,265.902679 294.727966,281.522278 
	C292.444427,283.866821 290.606445,285.766815 288.768463,287.666779 
M367.653229,93.620918 
	C366.180298,94.075027 364.298218,94.100891 363.301300,95.053276 
	C357.171173,100.909302 351.216461,106.950371 345.252258,112.978256 
	C340.731201,117.547585 336.282867,122.188866 330.917267,127.708397 
	C325.681885,121.932274 321.043152,116.814438 316.997589,112.351036 
	C313.865631,114.924614 311.332825,117.005890 309.715729,118.334709 
	C317.323364,126.038536 324.722412,133.531128 331.582245,140.477646 
	C345.034088,127.014984 358.870117,113.167831 373.823914,98.202003 
	C372.223541,97.045555 370.206635,95.588097 367.653229,93.620918 
z"/>
<path fill="#E0EFFA" opacity="1.000000" stroke="none" 
	d="
M259.645355,111.003281 
	C259.554382,119.044449 262.878815,125.280792 268.541718,130.873398 
	C289.611176,151.681305 310.437286,172.735489 331.459839,193.591248 
	C333.899841,196.011902 334.989410,198.446381 334.887512,201.890778 
	C334.661255,209.536865 335.006805,217.201904 334.698639,224.842255 
	C334.608826,227.069427 333.669464,229.800079 332.149902,231.348236 
	C317.817291,245.950607 303.274658,260.346863 288.173523,274.797699 
	C282.687592,270.012482 278.110138,264.882538 272.874451,260.547638 
	C267.372437,255.992264 265.190674,250.784912 265.810242,243.653915 
	C266.161896,239.606750 266.613159,237.272583 271.305145,237.961884 
	C273.993958,238.356949 276.066742,238.031372 276.112915,234.229218 
	C276.159332,230.401657 274.397308,229.497391 271.263031,230.026276 
	C265.842896,230.940872 265.785645,227.650696 265.942657,223.784332 
	C266.090088,220.154297 265.102905,215.993759 271.206482,216.986267 
	C274.277679,217.485672 276.162323,216.725494 276.113953,212.834595 
	C276.067322,209.087906 274.107025,208.637070 271.357635,209.043060 
	C266.741608,209.724701 265.384796,207.608078 265.954224,203.384842 
	C266.152679,201.913208 266.093658,200.382965 265.964783,198.895721 
	C265.631409,195.049057 266.414093,192.379456 270.205597,189.913116 
	C276.667328,185.709793 276.733246,175.550278 271.138794,169.640427 
	C265.684296,163.878433 256.676453,164.308746 250.882111,170.608109 
	C246.035049,175.877670 246.615524,186.069000 252.852036,189.963959 
	C256.780701,192.417557 257.266876,195.206955 257.023804,198.983337 
	C256.927765,200.475571 256.829224,202.004974 257.041504,203.472687 
	C257.672943,207.838715 256.024231,209.694092 251.549011,209.032303 
	C248.688873,208.609360 246.870560,209.274002 246.892853,212.925659 
	C246.913864,216.367249 248.319305,217.485504 251.383179,216.991165 
	C256.206909,216.212875 257.299469,218.473236 257.114807,222.880524 
	C256.937866,227.104462 257.573669,231.225830 251.139359,230.022202 
	C247.802124,229.397919 246.955551,231.166382 246.906631,234.319473 
	C246.846100,238.222305 249.168442,238.155807 251.793762,237.988815 
	C254.896988,237.791428 257.151337,237.930588 257.093689,242.269119 
	C256.850464,260.579224 256.930817,278.893585 256.586426,297.062195 
	C241.453094,282.087738 226.618988,267.264648 211.803497,252.422989 
	C207.219864,247.831268 200.886826,243.920853 198.628830,238.367310 
	C196.296188,232.630173 197.900757,225.273819 197.865860,218.625381 
	C197.819809,209.852219 197.854538,201.078644 197.854538,192.424622 
	C216.475327,188.943085 229.906937,178.151566 235.718155,162.187668 
	C240.011139,150.394424 239.165146,138.711670 234.600006,127.174179 
	C240.576523,122.775574 246.479858,118.271652 252.571503,114.038750 
	C254.550278,112.663765 257.021576,111.997589 259.645355,111.003281 
z"/>
<path fill="#047AD8" opacity="1.000000" stroke="none" 
	d="
M234.366516,126.932327 
	C239.165146,138.711670 240.011139,150.394424 235.718155,162.187668 
	C229.906937,178.151566 216.475327,188.943085 197.854538,192.424622 
	C197.854538,201.078644 197.819809,209.852219 197.865860,218.625381 
	C197.900757,225.273819 196.296188,232.630173 198.628830,238.367310 
	C200.886826,243.920853 207.219864,247.831268 211.803497,252.422989 
	C226.618988,267.264648 241.453094,282.087738 256.663483,297.510071 
	C257.079742,301.941467 257.112549,305.780731 257.145386,309.620026 
	C255.886536,308.554993 254.544250,307.573578 253.381241,306.412537 
	C232.986862,286.052490 212.555603,265.728363 192.336700,245.195206 
	C190.505829,243.335861 189.190079,240.118149 189.136612,237.500565 
	C188.834381,222.704971 188.990540,207.900009 188.990540,194.554214 
	C180.462906,190.800323 172.808655,187.430908 164.854797,183.945190 
	C163.081207,182.492325 161.607239,181.155746 160.124146,179.224213 
	C169.040054,169.609787 177.947876,160.573059 186.921646,151.602295 
	C187.670944,150.853256 188.864624,150.548737 189.894318,150.502167 
	C189.936783,159.215393 189.936783,167.464157 189.936783,175.712906 
	C190.544601,175.944839 191.152405,176.176773 191.760223,176.408707 
	C192.458298,175.056900 193.726440,173.720352 193.763077,172.350845 
	C194.024368,162.584808 194.034348,152.812057 194.457184,142.986786 
	C198.577560,139.210709 202.365051,135.489304 206.466141,131.659454 
	C207.253815,132.285767 208.299530,133.256393 208.109436,133.717117 
	C206.851944,136.764740 205.338440,139.707443 203.890518,142.675629 
	C201.534271,147.505814 202.149261,149.888565 207.187073,151.703125 
	C209.822174,152.652298 213.103104,152.973038 215.804245,152.342789 
	C222.341476,150.817505 223.519730,147.670929 220.536011,141.712036 
	C219.502319,139.647583 218.594360,137.505020 217.390564,135.544540 
	C215.731308,132.842316 213.845978,130.278946 212.106659,127.334892 
	C216.462860,122.657646 220.769882,118.301590 225.076920,113.945541 
	C228.095612,118.193855 231.114319,122.442162 234.366516,126.932327 
z"/>
<path fill="#3694DD" opacity="1.000000" stroke="none" 
	d="
M189.851837,150.037689 
	C188.864624,150.548737 187.670944,150.853256 186.921646,151.602295 
	C177.947876,160.573059 169.040054,169.609787 159.951904,178.946808 
	C142.922913,163.005188 142.676041,139.041046 151.895935,123.289017 
	C166.508072,98.324402 198.753784,92.372177 221.247635,110.552094 
	C222.413040,111.494011 223.592972,112.417984 224.921539,113.647919 
	C220.769882,118.301590 216.462860,122.657646 211.641724,127.409592 
	C207.795029,127.795555 204.462296,127.801430 201.129913,127.770599 
	C198.547440,127.746704 196.247040,128.157578 194.579285,124.821564 
	C193.131699,121.925964 190.312744,122.691330 188.039474,125.186989 
	C186.911072,126.425774 184.774399,127.906334 183.448532,127.622253 
	C172.446243,125.264915 166.802231,130.630341 163.918564,140.432343 
	C163.733521,141.061356 163.336746,141.627411 163.044144,142.225540 
	C160.358948,147.714569 161.305038,150.055679 167.155334,152.260849 
	C171.410370,153.864731 175.335541,153.014114 178.942871,150.452393 
	C181.411667,148.699203 182.267456,146.712143 180.524963,143.689438 
	C178.418015,140.034515 176.838516,136.075516 174.876038,131.920547 
	C180.188995,131.920547 184.790314,131.920547 189.851837,131.920547 
	C189.851837,138.130814 189.851837,144.084259 189.851837,150.037689 
z"/>
<path fill="#FEFEFF" opacity="1.000000" stroke="none" 
	d="
M257.115601,310.033875 
	C257.112549,305.780731 257.079742,301.941467 256.969879,297.654297 
	C256.930817,278.893585 256.850464,260.579224 257.093689,242.269119 
	C257.151337,237.930588 254.896988,237.791428 251.793762,237.988815 
	C249.168442,238.155807 246.846100,238.222305 246.906631,234.319473 
	C246.955551,231.166382 247.802124,229.397919 251.139359,230.022202 
	C257.573669,231.225830 256.937866,227.104462 257.114807,222.880524 
	C257.299469,218.473236 256.206909,216.212875 251.383179,216.991165 
	C248.319305,217.485504 246.913864,216.367249 246.892853,212.925659 
	C246.870560,209.274002 248.688873,208.609360 251.549011,209.032303 
	C256.024231,209.694092 257.672943,207.838715 257.041504,203.472687 
	C256.829224,202.004974 256.927765,200.475571 257.023804,198.983337 
	C257.266876,195.206955 256.780701,192.417557 252.852036,189.963959 
	C246.615524,186.069000 246.035049,175.877670 250.882111,170.608109 
	C256.676453,164.308746 265.684296,163.878433 271.138794,169.640427 
	C276.733246,175.550278 276.667328,185.709793 270.205597,189.913116 
	C266.414093,192.379456 265.631409,195.049057 265.964783,198.895721 
	C266.093658,200.382965 266.152679,201.913208 265.954224,203.384842 
	C265.384796,207.608078 266.741608,209.724701 271.357635,209.043060 
	C274.107025,208.637070 276.067322,209.087906 276.113953,212.834595 
	C276.162323,216.725494 274.277679,217.485672 271.206482,216.986267 
	C265.102905,215.993759 266.090088,220.154297 265.942657,223.784332 
	C265.785645,227.650696 265.842896,230.940872 271.263031,230.026276 
	C274.397308,229.497391 276.159332,230.401657 276.112915,234.229218 
	C276.066742,238.031372 273.993958,238.356949 271.305145,237.961884 
	C266.613159,237.272583 266.161896,239.606750 265.810242,243.653915 
	C265.190674,250.784912 267.372437,255.992264 272.874451,260.547638 
	C278.110138,264.882538 282.687592,270.012482 287.873108,274.931763 
	C286.738495,276.658295 285.285248,278.245941 283.191376,279.935303 
	C277.027435,275.096863 271.504089,270.156708 265.134552,264.459686 
	C265.134552,275.662445 265.117798,285.570404 265.180634,295.477875 
	C265.184021,296.011536 265.855530,296.540894 266.216064,297.072266 
	C265.933868,300.971558 265.651703,304.870819 265.326965,309.178040 
	C265.328247,313.196136 265.372070,316.806274 265.701935,320.716644 
	C266.196777,324.090912 264.566101,325.157043 261.722076,325.008667 
	C259.480225,324.891693 256.733704,325.616333 256.998169,321.406128 
	C257.023712,317.477325 257.054749,313.962494 257.115601,310.033875 
M256.442505,181.684052 
	C258.672882,182.719101 260.981384,184.656952 263.106323,184.473083 
	C264.532532,184.349701 266.575500,181.317429 266.786804,179.413925 
	C267.153564,176.110291 265.374695,173.851852 261.397461,173.944382 
	C256.451538,174.059433 255.589233,176.882660 256.442505,181.684052 
z"/>
<path fill="#FEFEFF" opacity="1.000000" stroke="none" 
	d="
M288.941589,287.985931 
	C290.606445,285.766815 292.444427,283.866821 294.586060,281.813965 
	C301.562256,288.575745 308.160736,295.564240 314.944122,302.368378 
	C317.619690,305.052155 320.707550,307.324890 323.651855,309.822296 
	C316.951691,315.938507 316.434662,315.951752 311.160187,310.633362 
	C303.795166,303.206940 296.461670,295.749329 288.941589,287.985931 
z"/>
<path fill="#FEFEFF" opacity="1.000000" stroke="none" 
	d="
M212.445496,306.957336 
	C195.813507,290.311646 179.522293,273.868225 163.015167,257.644531 
	C160.013824,254.694672 158.439240,251.745377 158.969955,247.579926 
	C159.199600,245.777481 158.853287,243.905579 159.038666,242.092850 
	C159.520203,237.384109 158.538040,233.764481 154.334244,230.582092 
	C149.164917,226.668747 148.286423,217.735336 151.637802,213.013992 
	C155.731308,207.247162 163.607254,205.257431 169.826126,208.419067 
	C175.793533,211.452835 179.070648,219.031708 176.526443,225.436966 
	C175.485077,228.058640 172.741943,229.957901 171.075043,232.392609 
	C169.799225,234.256058 168.524628,236.351242 168.099380,238.510727 
	C167.497604,241.566589 167.343292,244.810684 167.658173,247.907166 
	C167.830734,249.604202 169.058243,251.462326 170.323456,252.739044 
	C185.795319,268.351440 201.026703,284.228485 217.072891,299.232208 
	C223.342361,305.094391 223.539337,311.227264 222.585968,318.433380 
	C215.456772,318.139740 214.519379,317.239990 213.960556,310.876434 
	C213.851593,309.635651 213.143768,308.447479 212.445496,306.957336 
M165.114685,215.197083 
	C159.721527,215.690216 157.540863,217.713776 158.029297,221.794632 
	C158.555313,226.189407 161.813797,226.445892 164.989410,225.835022 
	C166.430359,225.557831 168.773102,223.612518 168.642120,222.730560 
	C168.272888,220.244354 166.833817,217.917007 165.114685,215.197083 
z"/>
<path fill="#FBFDFE" opacity="1.000000" stroke="none" 
	d="
M367.921448,93.875778 
	C370.206635,95.588097 372.223541,97.045555 373.823914,98.202003 
	C358.870117,113.167831 345.034088,127.014984 331.582245,140.477646 
	C324.722412,133.531128 317.323364,126.038536 309.715729,118.334709 
	C311.332825,117.005890 313.865631,114.924614 316.997589,112.351036 
	C321.043152,116.814438 325.681885,121.932274 330.917267,127.708397 
	C336.282867,122.188866 340.731201,117.547585 345.252258,112.978256 
	C351.216461,106.950371 357.171173,100.909302 363.301300,95.053276 
	C364.298218,94.100891 366.180298,94.075027 367.921448,93.875778 
z"/>
<path fill="#DCEDF9" opacity="1.000000" stroke="none" 
	d="
M266.512787,296.936523 
	C265.855530,296.540894 265.184021,296.011536 265.180634,295.477875 
	C265.117798,285.570404 265.134552,275.662445 265.134552,264.459686 
	C271.504089,270.156708 277.027435,275.096863 282.915894,280.100159 
	C277.790497,285.709106 272.300018,291.254944 266.512787,296.936523 
z"/>
<path fill="#F4F9FD" opacity="1.000000" stroke="none" 
	d="
M189.894318,150.502167 
	C189.851837,144.084259 189.851837,138.130814 189.851837,131.920547 
	C184.790314,131.920547 180.188995,131.920547 174.876038,131.920547 
	C176.838516,136.075516 178.418015,140.034515 180.524963,143.689438 
	C182.267456,146.712143 181.411667,148.699203 178.942871,150.452393 
	C175.335541,153.014114 171.410370,153.864731 167.155334,152.260849 
	C161.305038,150.055679 160.358948,147.714569 163.044144,142.225540 
	C163.336746,141.627411 163.733521,141.061356 163.918564,140.432343 
	C166.802231,130.630341 172.446243,125.264915 183.448532,127.622253 
	C184.774399,127.906334 186.911072,126.425774 188.039474,125.186989 
	C190.312744,122.691330 193.131699,121.925964 194.579285,124.821564 
	C196.247040,128.157578 198.547440,127.746704 201.129913,127.770599 
	C204.462296,127.801430 207.795029,127.795555 211.592545,127.730789 
	C213.845978,130.278946 215.731308,132.842316 217.390564,135.544540 
	C218.594360,137.505020 219.502319,139.647583 220.536011,141.712036 
	C223.519730,147.670929 222.341476,150.817505 215.804245,152.342789 
	C213.103104,152.973038 209.822174,152.652298 207.187073,151.703125 
	C202.149261,149.888565 201.534271,147.505814 203.890518,142.675629 
	C205.338440,139.707443 206.851944,136.764740 208.109436,133.717117 
	C208.299530,133.256393 207.253815,132.285767 206.019836,131.495605 
	C201.556137,131.440231 197.852341,131.440231 194.124298,131.440231 
	C194.124298,135.811508 194.124298,139.426483 194.124298,143.041443 
	C194.034348,152.812057 194.024368,162.584808 193.763077,172.350845 
	C193.726440,173.720352 192.458298,175.056900 191.760223,176.408707 
	C191.152405,176.176773 190.544601,175.944839 189.936783,175.712906 
	C189.936783,167.464157 189.936783,159.215393 189.894318,150.502167 
M174.129730,144.963409 
	C174.627548,144.138885 175.736633,143.067612 175.520203,142.531357 
	C174.424973,139.817856 172.985199,137.243439 171.303452,133.898758 
	C169.453522,137.869492 167.909348,141.183914 166.143829,144.973480 
	C169.015656,144.973480 171.150070,144.973480 174.129730,144.963409 
M207.577042,144.021133 
	C210.691223,144.438660 213.805405,144.856201 218.052078,145.425568 
	C215.825027,141.021439 214.266434,137.939178 212.336685,134.122971 
	C210.571503,137.735168 209.207153,140.527115 207.577042,144.021133 
z"/>
<path fill="#3F99DF" opacity="1.000000" stroke="none" 
	d="
M194.457184,142.986786 
	C194.124298,139.426483 194.124298,135.811508 194.124298,131.440231 
	C197.852341,131.440231 201.556137,131.440231 205.706238,131.604065 
	C202.365051,135.489304 198.577560,139.210709 194.457184,142.986786 
z"/>
<path fill="#E1F0FA" opacity="1.000000" stroke="none" 
	d="
M256.293640,181.313446 
	C255.589233,176.882660 256.451538,174.059433 261.397461,173.944382 
	C265.374695,173.851852 267.153564,176.110291 266.786804,179.413925 
	C266.575500,181.317429 264.532532,184.349701 263.106323,184.473083 
	C260.981384,184.656952 258.672882,182.719101 256.293640,181.313446 
z"/>
<path fill="#E1F0FA" opacity="1.000000" stroke="none" 
	d="
M165.465561,215.362061 
	C166.833817,217.917007 168.272888,220.244354 168.642120,222.730560 
	C168.773102,223.612518 166.430359,225.557831 164.989410,225.835022 
	C161.813797,226.445892 158.555313,226.189407 158.029297,221.794632 
	C157.540863,217.713776 159.721527,215.690216 165.465561,215.362061 
z"/>
<path fill="#419ADF" opacity="1.000000" stroke="none" 
	d="
M173.707108,144.968445 
	C171.150070,144.973480 169.015656,144.973480 166.143829,144.973480 
	C167.909348,141.183914 169.453522,137.869492 171.303452,133.898758 
	C172.985199,137.243439 174.424973,139.817856 175.520203,142.531357 
	C175.736633,143.067612 174.627548,144.138885 173.707108,144.968445 
z"/>
<path fill="#0E7FD9" opacity="1.000000" stroke="none" 
	d="
M207.709930,143.670105 
	C209.207153,140.527115 210.571503,137.735168 212.336685,134.122971 
	C214.266434,137.939178 215.825027,141.021439 218.052078,145.425568 
	C213.805405,144.856201 210.691223,144.438660 207.709930,143.670105 
z"/>
</svg>