<svg version="1.1" id="Layer_1" xmlns="http://www.w3.org/2000/svg" xmlns:xlink="http://www.w3.org/1999/xlink" x="0px" y="0px"
	 width="100%" viewBox="0 0 133 125" enable-background="new 0 0 133 125" xml:space="preserve">
<path fill="none" opacity="1.000000" stroke="#000000" stroke-linecap="round" stroke-linejoin="round" stroke-width="5.000000"
	d="
M99.000000,44.000000 
	C99.000000,53.836159 99.000000,63.672318 99.000000,73.488075 
	C105.780289,74.841125 112.223579,73.085320 118.500000,74.500000 
"/>
<path fill="none" opacity="1.000000" stroke="#000000" stroke-linecap="round" stroke-linejoin="round" stroke-width="5.000000"
	d="
M47.500000,43.500000 
	C42.166668,43.500000 36.832645,43.551605 31.500261,43.480457 
	C28.349915,43.438427 26.868549,44.564102 26.941118,48.001244 
	C27.120573,56.500721 27.000000,65.006531 27.000000,74.000000 
	C33.991459,74.000000 40.495731,74.000000 47.000000,74.000000 
"/>
<path fill="none" opacity="1.000000" stroke="#000000" stroke-linecap="round" stroke-linejoin="round" stroke-width="4.000000"
	d="
M45.500000,58.500000 
	C39.669132,58.752907 33.807652,57.934494 28.000000,59.000000 
"/>
<path fill="none" opacity="1.000000" stroke="#000000" stroke-linecap="round" stroke-linejoin="round" stroke-width="5.000000"
	d="
M62.000000,43.500000 
	C60.551445,44.051445 58.967991,44.350033 58.979565,46.500111 
	C59.028023,55.502934 59.000000,64.506172 59.000000,74.238548 
	C65.334595,73.377541 71.235321,75.193382 76.997147,72.992538 
	C84.725906,70.040398 87.845116,65.880104 87.018791,55.998428 
	C86.581940,50.774197 81.074318,44.920738 74.989334,44.076923 
	C70.878609,43.506882 66.666664,43.666664 62.500000,43.499996 
"/>
</svg>