<svg version="1.1" id="Layer_1" xmlns="http://www.w3.org/2000/svg" xmlns:xlink="http://www.w3.org/1999/xlink" x="0px" y="0px"
	 width="100%" viewBox="0 0 200 200" enable-background="new 0 0 200 200" xml:space="preserve">
<path fill="#FEFFFF" opacity="1.000000" stroke="none" 
	d="
M126.000000,201.000000 
	C84.025948,201.000000 42.551903,201.000000 1.038926,201.000000 
	C1.038926,134.400986 1.038926,67.801956 1.038926,1.101457 
	C67.557205,1.101457 134.114609,1.101457 200.836014,1.101457 
	C200.836014,67.666336 200.836014,134.333130 200.836014,201.000000 
	C176.135574,201.000000 151.317780,201.000000 126.000000,201.000000 
M159.854218,144.500000 
	C159.850433,108.700867 159.811615,72.901657 159.887909,37.102695 
	C159.897278,32.706200 158.671982,30.107559 153.749115,30.115879 
	C118.116570,30.176081 82.483887,30.172115 46.851276,30.150375 
	C42.665051,30.147821 40.932964,32.000557 40.940018,36.245728 
	C41.011959,79.537636 41.005535,122.829750 40.943214,166.121704 
	C40.937038,170.411880 42.806931,172.059753 46.982658,172.052765 
	C82.615112,171.993134 118.247742,171.990082 153.880203,172.043900 
	C158.148026,172.050354 159.907288,170.130920 159.856781,165.980087 
	C159.773743,159.154373 159.846863,152.326782 159.854218,144.500000 
z"/>
<path fill="#1CA95E" opacity="1.000000" stroke="none" 
	d="
M159.854187,144.999985 
	C159.846863,152.326782 159.773743,159.154373 159.856781,165.980087 
	C159.907288,170.130920 158.148026,172.050354 153.880203,172.043900 
	C118.247742,171.990082 82.615112,171.993134 46.982658,172.052765 
	C42.806931,172.059753 40.937038,170.411880 40.943214,166.121704 
	C41.005535,122.829750 41.011959,79.537636 40.940018,36.245728 
	C40.932964,32.000557 42.665051,30.147821 46.851276,30.150375 
	C82.483887,30.172115 118.116570,30.176081 153.749115,30.115879 
	C158.671982,30.107559 159.897278,32.706200 159.887909,37.102695 
	C159.811615,72.901657 159.850433,108.700867 159.854187,144.999985 
M127.704552,81.212219 
	C131.619141,76.453308 135.584503,71.735016 139.434250,66.924202 
	C143.385376,61.986694 143.328018,56.436260 139.428452,53.051888 
	C135.270050,49.442879 129.619598,50.227196 125.435478,55.246372 
	C120.531097,61.129574 115.829201,67.181145 111.003036,73.130127 
	C107.485664,77.465820 103.909256,81.753616 100.161934,86.302185 
	C99.123550,85.109802 98.469673,84.388298 97.847702,83.640259 
	C90.287674,74.548027 82.720787,65.461464 75.179977,56.353310 
	C70.348038,50.517063 65.093452,49.210400 60.636002,52.794689 
	C55.913605,56.592033 55.992767,61.631023 60.896248,67.633179 
	C63.741417,71.115837 66.617920,74.572899 69.479362,78.042267 
	C75.698738,85.582985 81.917503,93.124199 88.180176,100.718147 
	C87.065201,102.123543 86.265900,103.170135 85.426300,104.183327 
	C76.181160,115.339973 66.859482,126.434280 57.715172,137.672913 
	C54.140545,142.066223 54.424690,147.059586 57.951996,150.269608 
	C61.889957,153.853363 67.316460,153.595917 71.294067,149.316040 
	C74.462944,145.906357 77.310539,142.197495 80.290321,138.612762 
	C86.734993,130.859680 93.172966,123.100998 99.951675,114.937569 
	C103.384926,119.090942 106.342133,122.652657 109.282234,126.228439 
	C115.522858,133.818359 121.619080,141.532623 128.040054,148.966553 
	C131.977737,153.525436 137.429077,153.920029 141.348862,150.505066 
	C145.052658,147.278275 145.332535,141.906799 141.939240,137.468185 
	C140.220627,135.220139 138.354401,133.085251 136.565506,130.890579 
	C128.373260,120.840065 120.184746,110.786499 111.861992,100.570908 
	C117.137329,94.118446 122.190720,87.937454 127.704552,81.212219 
z"/>
<path fill="#F7FDFA" opacity="1.000000" stroke="none" 
	d="
M127.474335,81.484344 
	C122.190720,87.937454 117.137329,94.118446 111.861992,100.570908 
	C120.184746,110.786499 128.373260,120.840065 136.565506,130.890579 
	C138.354401,133.085251 140.220627,135.220139 141.939240,137.468185 
	C145.332535,141.906799 145.052658,147.278275 141.348862,150.505066 
	C137.429077,153.920029 131.977737,153.525436 128.040054,148.966553 
	C121.619080,141.532623 115.522858,133.818359 109.282234,126.228439 
	C106.342133,122.652657 103.384926,119.090942 99.951675,114.937569 
	C93.172966,123.100998 86.734993,130.859680 80.290321,138.612762 
	C77.310539,142.197495 74.462944,145.906357 71.294067,149.316040 
	C67.316460,153.595917 61.889957,153.853363 57.951996,150.269608 
	C54.424690,147.059586 54.140545,142.066223 57.715172,137.672913 
	C66.859482,126.434280 76.181160,115.339973 85.426300,104.183327 
	C86.265900,103.170135 87.065201,102.123543 88.180176,100.718147 
	C81.917503,93.124199 75.698738,85.582985 69.479362,78.042267 
	C66.617920,74.572899 63.741417,71.115837 60.896248,67.633179 
	C55.992767,61.631023 55.913605,56.592033 60.636002,52.794689 
	C65.093452,49.210400 70.348038,50.517063 75.179977,56.353310 
	C82.720787,65.461464 90.287674,74.548027 97.847702,83.640259 
	C98.469673,84.388298 99.123550,85.109802 100.161934,86.302185 
	C103.909256,81.753616 107.485664,77.465820 111.003036,73.130127 
	C115.829201,67.181145 120.531097,61.129574 125.435478,55.246372 
	C129.619598,50.227196 135.270050,49.442879 139.428452,53.051888 
	C143.328018,56.436260 143.385376,61.986694 139.434250,66.924202 
	C135.584503,71.735016 131.619141,76.453308 127.474335,81.484344 
z"/>
</svg>