<svg id="svg" version="1.1" xmlns="http://www.w3.org/2000/svg" xmlns:xlink="http://www.w3.org/1999/xlink" width="400" height="400" viewBox="0, 0, 400,400"><g id="svgg"><path id="path0" d="M250.800 114.661 C 248.930 114.984,246.500 115.678,245.400 116.204 C 242.493 117.593,238.496 119.084,236.200 119.637 C 233.541 120.277,231.327 121.415,230.789 122.420 C 230.549 122.870,228.698 124.467,226.676 125.969 C 222.555 129.032,222.146 129.444,220.656 132.035 C 219.343 134.318,219.340 134.830,220.636 136.369 L 221.671 137.600 288.336 137.560 C 325.001 137.539,355.984 137.404,357.186 137.260 C 360.666 136.846,361.006 136.068,361.351 127.736 C 361.505 124.031,361.867 119.775,362.157 118.278 L 362.683 115.556 361.157 114.778 C 359.097 113.727,256.843 113.618,250.800 114.661 M88.663 117.918 C 87.682 119.193,86.581 120.484,86.216 120.786 C 84.460 122.244,83.041 129.438,81.835 143.000 C 81.502 146.740,81.038 150.430,80.804 151.200 C 80.570 151.970,80.016 154.257,79.572 156.281 L 78.764 159.963 79.682 162.245 C 81.104 165.781,81.756 166.091,88.493 166.445 C 101.236 167.114,101.660 168.103,97.045 186.400 C 95.184 193.778,94.780 196.798,94.401 206.200 C 93.948 217.407,93.243 222.357,91.614 225.770 C 90.217 228.700,89.578 233.015,88.399 247.490 C 87.436 259.305,87.116 261.285,85.585 264.892 C 84.027 268.563,82.890 275.792,82.418 285.030 C 82.204 289.226,81.937 292.916,81.824 293.230 C 81.712 293.543,81.246 295.958,80.788 298.597 C 80.330 301.235,79.506 304.730,78.958 306.363 C 77.638 310.296,76.924 313.859,76.627 318.000 C 74.908 342.004,74.872 342.247,72.611 345.600 C 70.773 348.326,69.765 361.506,71.136 364.900 L 71.580 366.000 106.190 366.000 C 139.439 366.000,140.829 365.971,141.546 365.254 C 142.340 364.460,143.170 362.407,144.169 358.769 C 144.507 357.542,145.267 355.832,145.859 354.969 C 146.451 354.106,147.083 352.500,147.265 351.400 C 147.868 347.740,148.816 337.909,149.191 331.414 C 149.610 324.156,150.296 320.393,151.951 316.259 C 153.444 312.529,154.706 304.602,155.016 297.000 C 155.151 293.700,155.421 290.010,155.617 288.800 C 156.751 281.788,157.742 277.200,158.467 275.607 C 160.053 272.123,160.807 268.157,161.616 259.038 C 162.064 253.999,162.528 249.717,162.647 249.524 C 162.767 249.330,162.998 246.973,163.161 244.286 C 163.415 240.092,163.631 239.004,164.685 236.600 C 165.971 233.668,166.681 229.157,167.595 218.100 C 168.949 201.725,168.883 202.151,170.802 197.200 C 172.365 193.169,173.518 185.764,173.979 176.800 C 174.371 169.160,175.999 159.091,177.373 155.802 C 178.918 152.105,179.671 147.779,180.018 140.600 C 180.210 136.640,180.728 130.730,181.169 127.466 C 182.055 120.912,181.755 118.894,179.547 116.544 L 178.661 115.600 134.554 115.600 L 90.447 115.600 88.663 117.918 M214.226 169.973 L 212.689 171.547 213.345 174.156 C 213.705 175.590,214.000 177.144,214.000 177.608 C 214.000 178.105,214.885 179.305,216.152 180.526 C 217.336 181.667,218.590 183.164,218.938 183.852 C 219.527 185.018,219.990 185.462,223.180 187.919 C 223.836 188.425,224.874 189.581,225.486 190.489 C 226.099 191.397,227.409 192.708,228.398 193.402 C 229.386 194.096,231.047 195.898,232.089 197.406 C 233.130 198.914,234.641 200.823,235.446 201.647 L 236.911 203.147 236.234 205.873 C 235.211 209.997,231.196 215.200,229.037 215.200 C 228.793 215.200,227.785 215.630,226.797 216.155 C 222.982 218.183,221.806 218.299,219.976 216.829 C 219.086 216.114,216.898 215.018,215.113 214.393 C 213.328 213.768,211.402 212.884,210.834 212.429 C 210.265 211.973,208.622 210.808,207.182 209.840 C 205.742 208.871,204.325 207.791,204.033 207.439 C 202.474 205.562,201.732 209.603,200.799 225.033 C 200.409 231.493,199.575 236.401,198.422 239.030 L 197.707 240.660 200.954 242.330 C 202.741 243.248,204.471 244.002,204.801 244.004 C 205.130 244.006,206.390 244.473,207.600 245.042 C 213.466 247.799,225.121 248.046,232.281 245.564 C 234.876 244.664,237.900 243.694,239.000 243.408 C 245.056 241.835,247.051 241.142,247.600 240.423 C 247.930 239.991,248.539 239.159,248.953 238.573 C 249.367 237.988,250.682 237.078,251.874 236.550 C 253.351 235.897,254.259 235.192,254.721 234.337 C 255.750 232.436,257.545 230.470,258.525 230.172 C 259.993 229.725,260.720 228.819,261.437 226.540 C 261.912 225.028,262.663 223.825,263.883 222.622 C 266.105 220.432,266.951 218.217,268.221 211.266 C 268.771 208.260,269.871 203.754,270.666 201.254 C 272.301 196.113,272.194 193.471,270.172 189.049 C 269.657 187.922,268.722 185.020,268.095 182.600 C 266.751 177.414,266.307 176.492,264.998 176.164 C 263.913 175.891,261.200 173.104,261.200 172.261 C 261.200 169.209,255.495 168.400,233.986 168.400 L 215.762 168.400 214.226 169.973 M302.157 169.821 C 301.068 171.249,300.975 171.616,299.387 180.800 C 299.026 182.890,298.302 185.860,297.778 187.400 C 296.297 191.757,295.622 195.598,295.186 202.155 C 294.317 215.223,293.222 222.401,291.570 225.863 C 289.313 230.592,288.359 239.540,289.791 242.537 L 290.526 244.074 305.163 243.879 C 324.841 243.617,323.328 244.393,323.779 234.323 C 323.938 230.778,324.231 226.960,324.432 225.838 C 324.632 224.717,325.046 221.693,325.352 219.118 C 325.785 215.470,326.189 213.835,327.178 211.722 C 328.756 208.349,329.380 204.378,330.211 192.400 C 331.187 178.323,331.606 176.010,333.713 173.044 C 334.709 171.642,334.476 171.389,330.509 169.553 L 328.018 168.400 315.629 168.400 L 303.241 168.400 302.157 169.821 " stroke="none" fill="#f5f5f3" fill-rule="evenodd"></path><path id="path1" d="M66.197 365.153 C 65.151 366.172,58.497 366.400,29.771 366.400 L 0.000 366.400 0.000 375.400 L 0.000 384.400 1.547 384.400 L 3.094 384.400 3.298 389.500 C 3.592 396.840,3.160 396.408,10.500 396.702 L 15.600 396.906 15.600 398.453 L 15.600 400.000 200.000 400.000 L 384.400 400.000 384.400 398.453 L 384.400 396.906 389.500 396.702 C 396.840 396.408,396.408 396.840,396.702 389.500 L 396.906 384.400 398.453 384.400 L 400.000 384.400 400.000 375.400 L 400.000 366.400 392.204 366.400 C 387.867 366.400,381.699 366.116,378.304 365.760 C 371.629 365.060,343.161 365.186,333.400 365.959 C 322.316 366.837,153.348 366.492,151.576 365.588 C 150.075 364.822,149.727 364.802,145.492 365.242 C 140.007 365.812,72.120 366.189,71.446 365.654 C 70.756 365.105,66.648 364.713,66.197 365.153 " stroke="none" fill="#ec7d04" fill-rule="evenodd"></path><path id="path2" d="M250.094 112.014 C 242.107 112.853,240.526 113.216,238.928 114.578 C 237.107 116.132,235.748 116.848,232.800 117.807 C 230.053 118.701,229.064 119.301,226.800 121.447 C 225.810 122.386,223.830 124.019,222.400 125.077 C 218.997 127.594,216.240 132.536,215.882 136.761 C 215.759 138.213,215.540 139.704,215.396 140.075 C 215.187 140.613,215.565 140.896,217.267 141.475 C 220.415 142.545,351.160 142.824,356.000 141.770 C 361.718 140.526,362.884 138.699,363.824 129.505 C 364.565 122.263,364.868 120.871,366.309 118.105 C 367.801 115.241,366.559 113.591,361.863 112.196 C 359.658 111.542,256.197 111.373,250.094 112.014 M88.034 113.087 C 83.365 114.736,81.559 118.553,80.787 128.400 C 80.486 132.240,79.959 135.818,79.401 137.800 C 78.906 139.560,78.402 141.655,78.282 142.456 C 78.163 143.257,77.339 145.434,76.451 147.293 C 74.516 151.348,74.007 154.158,74.005 160.800 C 74.002 169.154,75.772 170.342,88.292 170.389 C 92.268 170.404,94.563 171.320,94.229 172.758 C 93.287 176.806,92.808 180.886,92.417 188.200 C 92.169 192.820,91.883 196.999,91.779 197.486 C 91.676 197.973,91.408 201.103,91.184 204.441 C 90.958 207.810,90.427 211.866,89.990 213.555 C 88.592 218.972,87.262 228.057,86.998 234.000 C 86.747 239.680,85.623 246.888,84.005 253.200 C 82.088 260.683,81.509 264.422,80.574 275.369 C 79.348 289.723,79.126 291.129,77.629 294.006 C 76.106 296.932,75.026 304.214,74.190 317.200 C 73.828 322.813,72.576 330.063,70.527 338.400 C 68.935 344.880,68.642 346.770,68.174 353.600 C 67.880 357.890,67.437 362.092,67.190 362.938 C 66.643 364.812,66.601 364.767,69.213 365.076 C 71.192 365.310,71.313 365.276,71.014 364.564 C 69.749 361.547,70.875 348.174,72.611 345.600 C 74.872 342.247,74.908 342.004,76.627 318.000 C 76.924 313.859,77.638 310.296,78.958 306.363 C 79.506 304.730,80.330 301.235,80.788 298.597 C 81.246 295.958,81.712 293.543,81.824 293.230 C 81.937 292.916,82.204 289.226,82.418 285.030 C 82.890 275.792,84.027 268.563,85.585 264.892 C 87.116 261.285,87.436 259.305,88.399 247.490 C 89.578 233.015,90.217 228.700,91.614 225.770 C 93.243 222.357,93.948 217.407,94.401 206.200 C 94.780 196.798,95.184 193.778,97.045 186.400 C 101.660 168.103,101.236 167.114,88.493 166.445 C 81.756 166.091,81.104 165.781,79.682 162.245 L 78.764 159.963 79.572 156.281 C 80.016 154.257,80.570 151.970,80.804 151.200 C 81.038 150.430,81.502 146.740,81.835 143.000 C 83.041 129.438,84.460 122.244,86.216 120.786 C 86.581 120.484,87.682 119.193,88.663 117.918 L 90.447 115.600 134.554 115.600 L 178.661 115.600 179.547 116.544 C 181.755 118.894,182.055 120.912,181.169 127.466 C 180.728 130.730,180.210 136.640,180.018 140.600 C 179.671 147.779,178.918 152.105,177.373 155.802 C 175.999 159.091,174.371 169.160,173.979 176.800 C 173.518 185.764,172.365 193.169,170.802 197.200 C 168.885 202.146,168.934 201.827,167.585 218.200 C 166.685 229.130,165.968 233.674,164.685 236.600 C 163.631 239.004,163.415 240.092,163.161 244.286 C 162.998 246.973,162.767 249.330,162.647 249.524 C 162.528 249.717,162.064 253.999,161.616 259.038 C 160.807 268.157,160.053 272.123,158.467 275.607 C 157.742 277.200,156.751 281.788,155.617 288.800 C 155.421 290.010,155.151 293.700,155.016 297.000 C 154.706 304.602,153.444 312.529,151.951 316.259 C 150.296 320.393,149.610 324.156,149.191 331.414 C 148.816 337.909,147.868 347.740,147.265 351.400 C 147.083 352.500,146.451 354.106,145.859 354.969 C 145.267 355.832,144.507 357.542,144.169 358.769 C 143.658 360.631,142.720 363.367,142.045 364.962 C 141.896 365.316,149.528 365.005,149.891 364.642 C 149.986 364.548,149.756 363.495,149.380 362.303 C 148.723 360.220,148.729 359.967,149.532 355.768 C 149.991 353.366,150.480 348.970,150.619 346.000 C 150.758 343.030,151.200 338.980,151.602 337.000 C 152.003 335.020,152.436 332.119,152.564 330.553 C 152.691 328.988,153.254 326.489,153.815 325.000 C 155.405 320.775,155.973 317.352,156.835 306.800 C 157.932 293.383,158.502 289.767,159.984 286.832 C 160.761 285.293,161.407 283.109,161.792 280.719 C 162.122 278.673,162.738 275.740,163.160 274.200 C 163.582 272.660,164.045 269.420,164.189 267.000 C 164.665 258.968,165.128 256.448,166.722 253.200 L 168.195 250.200 168.216 243.794 C 168.227 240.270,168.350 237.205,168.487 236.982 C 168.625 236.759,168.940 233.252,169.186 229.189 C 169.630 221.875,170.161 218.507,172.402 208.800 C 174.416 200.075,174.788 197.793,175.414 190.312 C 175.750 186.290,176.191 181.920,176.394 180.600 C 176.597 179.280,176.887 176.611,177.039 174.669 C 177.260 171.835,177.584 170.576,178.676 168.297 C 180.108 165.309,181.530 155.694,182.210 144.400 C 182.539 138.947,183.466 133.634,184.638 130.487 C 186.884 124.458,187.507 116.467,185.880 114.575 C 184.050 112.447,183.581 112.428,134.600 112.446 C 95.072 112.461,89.592 112.537,88.034 113.087 M361.157 114.778 L 362.683 115.556 362.157 118.278 C 361.867 119.775,361.505 124.031,361.351 127.736 C 361.006 136.068,360.666 136.846,357.186 137.260 C 355.984 137.404,325.001 137.539,288.336 137.560 L 221.671 137.600 220.636 136.369 C 219.340 134.830,219.343 134.318,220.656 132.035 C 222.146 129.444,222.555 129.032,226.676 125.969 C 228.698 124.467,230.549 122.870,230.789 122.420 C 231.327 121.415,233.541 120.277,236.200 119.637 C 238.496 119.084,242.493 117.593,245.400 116.204 C 249.843 114.080,249.922 114.078,306.916 114.037 C 358.390 114.001,359.668 114.018,361.157 114.778 M212.974 165.170 C 209.461 167.185,207.770 171.036,209.366 173.387 C 209.897 174.170,210.796 176.192,211.363 177.881 C 212.355 180.831,214.153 184.000,214.835 184.000 C 215.015 184.000,215.723 184.816,216.409 185.813 C 217.095 186.810,218.551 188.333,219.644 189.197 C 220.737 190.061,222.349 191.676,223.226 192.785 C 224.103 193.894,225.512 195.260,226.357 195.819 C 227.235 196.400,228.772 198.171,229.947 199.956 L 232.000 203.077 231.742 206.238 C 231.298 211.670,225.872 214.580,219.719 212.686 C 218.664 212.361,217.035 211.887,216.100 211.632 C 215.090 211.356,213.710 210.507,212.700 209.538 C 211.765 208.642,210.370 207.452,209.600 206.893 C 208.830 206.335,207.067 204.702,205.682 203.265 L 203.163 200.652 201.998 201.826 C 200.473 203.363,199.688 206.458,199.215 212.800 C 199.010 215.550,198.585 218.790,198.270 220.000 C 197.956 221.210,197.584 223.659,197.444 225.442 C 197.288 227.446,196.816 229.607,196.209 231.100 C 193.531 237.691,193.557 241.567,196.290 243.413 C 206.379 250.225,205.966 250.121,222.069 249.918 C 235.305 249.752,235.442 249.730,239.557 247.135 C 240.523 246.526,242.503 245.637,243.957 245.159 C 247.768 243.906,249.374 243.010,251.047 241.201 C 251.861 240.321,253.320 239.137,254.289 238.569 C 255.387 237.926,256.571 236.722,257.434 235.374 C 258.195 234.185,259.308 232.955,259.909 232.642 C 261.400 231.862,262.945 230.133,263.962 228.104 C 264.429 227.172,265.457 225.822,266.247 225.104 C 268.113 223.408,268.642 222.327,269.614 218.234 C 270.649 213.878,271.379 211.834,272.425 210.364 C 275.767 205.671,275.813 188.875,272.498 183.800 C 271.923 182.920,270.802 180.672,270.006 178.805 C 268.731 175.809,268.292 175.206,266.280 173.677 C 265.026 172.723,264.000 171.748,264.000 171.509 C 264.000 170.272,261.702 168.218,258.875 166.931 C 257.220 166.176,255.374 165.208,254.771 164.780 C 253.722 164.033,252.870 164.000,234.338 164.004 L 215.000 164.008 212.974 165.170 M301.326 165.144 C 299.833 166.507,298.714 168.597,297.808 171.713 C 297.442 172.972,296.719 174.766,296.201 175.701 C 294.842 178.152,294.014 183.984,292.820 199.509 C 292.367 205.391,291.164 211.948,290.171 213.938 C 288.658 216.972,286.799 230.296,286.802 238.084 C 286.805 243.974,287.237 245.763,289.074 247.495 L 290.457 248.800 302.850 248.800 C 323.704 248.800,325.061 248.075,326.245 236.299 C 326.976 229.038,327.384 227.069,328.670 224.600 C 329.440 223.124,329.859 221.396,330.272 218.000 C 330.580 215.470,331.089 211.330,331.403 208.800 C 331.718 206.270,331.980 202.670,331.986 200.800 C 331.998 196.994,333.137 190.785,335.835 179.832 C 337.923 171.351,337.907 171.649,336.463 168.600 C 334.369 164.177,333.579 164.000,315.931 164.000 L 302.578 164.000 301.326 165.144 M255.899 169.333 C 259.504 170.244,261.200 171.181,261.200 172.261 C 261.200 173.104,263.913 175.891,264.998 176.164 C 266.307 176.492,266.751 177.414,268.095 182.600 C 268.722 185.020,269.657 187.922,270.172 189.049 C 272.194 193.471,272.301 196.113,270.666 201.254 C 269.871 203.754,268.771 208.260,268.221 211.266 C 266.951 218.217,266.105 220.432,263.883 222.622 C 262.663 223.825,261.912 225.028,261.437 226.540 C 260.720 228.819,259.993 229.725,258.525 230.172 C 257.545 230.470,255.750 232.436,254.721 234.337 C 254.259 235.192,253.351 235.897,251.874 236.550 C 250.682 237.078,249.367 237.988,248.953 238.573 C 248.539 239.159,247.930 239.991,247.600 240.423 C 247.051 241.142,245.056 241.835,239.000 243.408 C 237.900 243.694,234.876 244.664,232.281 245.564 C 225.121 248.046,213.466 247.799,207.600 245.042 C 206.390 244.473,205.130 244.006,204.801 244.004 C 204.471 244.002,202.741 243.248,200.954 242.330 L 197.707 240.660 198.422 239.030 C 199.575 236.401,200.409 231.493,200.799 225.033 C 201.732 209.603,202.474 205.562,204.033 207.439 C 204.325 207.791,205.742 208.871,207.182 209.840 C 208.622 210.808,210.265 211.973,210.834 212.429 C 211.402 212.884,213.328 213.768,215.113 214.393 C 216.898 215.018,219.086 216.114,219.976 216.829 C 221.806 218.299,222.982 218.183,226.797 216.155 C 227.785 215.630,228.793 215.200,229.037 215.200 C 231.196 215.200,235.211 209.997,236.234 205.873 L 236.911 203.147 235.446 201.647 C 234.641 200.823,233.130 198.914,232.089 197.406 C 231.047 195.898,229.386 194.096,228.398 193.402 C 227.409 192.708,226.099 191.397,225.486 190.489 C 224.874 189.581,223.836 188.425,223.180 187.919 C 219.990 185.462,219.527 185.018,218.938 183.852 C 218.590 183.164,217.336 181.667,216.152 180.526 C 214.885 179.305,214.000 178.105,214.000 177.608 C 214.000 177.144,213.705 175.590,213.345 174.156 L 212.689 171.547 214.226 169.973 L 215.762 168.400 233.986 168.400 C 251.752 168.400,252.302 168.423,255.899 169.333 M330.509 169.553 C 334.476 171.389,334.709 171.642,333.713 173.044 C 331.606 176.010,331.187 178.323,330.211 192.400 C 329.380 204.378,328.756 208.349,327.178 211.722 C 326.189 213.835,325.785 215.470,325.352 219.118 C 325.046 221.693,324.632 224.717,324.432 225.838 C 324.231 226.960,323.938 230.778,323.779 234.323 C 323.328 244.393,324.841 243.617,305.163 243.879 L 290.526 244.074 289.791 242.537 C 288.359 239.540,289.313 230.592,291.570 225.863 C 293.222 222.401,294.317 215.223,295.186 202.155 C 295.622 195.598,296.297 191.757,297.778 187.400 C 298.302 185.860,299.026 182.890,299.387 180.800 C 300.975 171.616,301.068 171.249,302.157 169.821 L 303.241 168.400 315.629 168.400 L 328.018 168.400 330.509 169.553 " stroke="none" fill="#8c9484" fill-rule="evenodd"></path><path id="path3" d="M15.600 1.547 L 15.600 3.094 10.500 3.298 C 3.160 3.592,3.592 3.160,3.298 10.500 L 3.094 15.600 1.547 15.600 L 0.000 15.600 0.000 30.600 L 0.000 45.600 1.553 45.600 C 3.297 45.600,5.028 44.039,6.821 40.848 C 7.452 39.725,8.522 38.696,9.987 37.803 C 11.204 37.061,12.908 35.725,13.774 34.834 C 15.609 32.946,17.007 32.430,24.168 31.000 C 36.204 28.596,67.897 30.525,74.979 34.093 C 78.444 35.838,79.855 36.268,85.293 37.233 C 91.162 38.274,92.604 38.754,96.000 40.796 C 97.699 41.817,100.169 42.784,103.127 43.585 C 107.892 44.876,110.265 45.895,112.126 47.451 C 112.745 47.968,115.535 49.117,118.326 50.003 C 124.127 51.844,125.437 52.623,125.008 53.974 C 124.158 56.652,112.121 56.667,105.100 53.998 C 103.691 53.463,102.029 53.200,100.048 53.200 C 97.906 53.200,96.336 52.926,94.325 52.200 C 90.818 50.935,90.318 50.946,86.396 52.378 C 84.620 53.026,82.320 53.674,81.284 53.818 C 79.377 54.083,74.049 55.563,70.859 56.713 C 68.109 57.704,63.182 62.587,61.807 65.683 C 61.193 67.067,60.087 69.031,59.349 70.048 C 56.273 74.287,56.469 89.004,59.711 97.200 C 60.712 99.730,61.824 103.420,62.183 105.400 C 63.085 110.381,63.436 111.321,65.257 113.625 C 66.903 115.707,67.573 117.237,68.638 121.349 C 69.431 124.407,70.314 126.126,72.371 128.612 C 73.276 129.705,74.351 131.500,74.760 132.600 C 75.476 134.527,77.634 136.500,78.298 135.835 C 78.441 135.692,78.698 131.867,78.868 127.336 C 79.339 114.834,79.958 112.700,83.516 111.327 C 86.397 110.215,185.217 110.195,186.912 111.306 C 191.067 114.028,190.378 133.446,185.962 138.088 C 183.932 140.223,184.077 139.282,183.604 153.299 C 183.296 162.430,182.977 166.878,182.421 169.800 C 182.003 172.000,181.540 174.700,181.392 175.800 C 181.080 178.126,180.233 179.740,178.971 180.416 C 177.792 181.047,177.685 181.921,177.200 195.000 C 176.506 213.665,175.930 216.989,173.084 218.748 C 171.261 219.875,171.237 220.051,171.109 233.000 C 171.018 242.205,171.087 243.580,171.710 244.964 C 172.544 246.820,179.958 254.151,182.465 255.600 C 183.417 256.150,185.367 257.790,186.798 259.245 C 188.229 260.699,190.210 262.349,191.200 262.911 C 192.190 263.473,193.665 264.735,194.477 265.716 C 195.290 266.696,196.941 268.055,198.146 268.735 C 199.351 269.415,200.806 270.586,201.379 271.338 C 201.952 272.089,204.088 273.712,206.125 274.944 C 208.162 276.177,210.452 277.833,211.214 278.626 C 211.976 279.418,213.804 280.773,215.275 281.636 C 216.746 282.500,218.315 283.719,218.762 284.347 C 219.209 284.974,220.825 286.145,222.354 286.948 C 223.883 287.752,226.024 289.262,227.110 290.305 C 228.197 291.347,230.327 292.821,231.843 293.581 C 233.359 294.340,235.712 295.987,237.071 297.240 C 238.431 298.494,240.231 299.742,241.071 300.014 C 243.565 300.820,245.688 302.015,247.577 303.675 C 248.555 304.534,250.625 305.843,252.177 306.584 C 253.730 307.324,255.705 308.562,256.566 309.334 C 257.428 310.106,259.948 311.653,262.166 312.772 C 264.385 313.891,267.086 315.512,268.169 316.375 C 269.253 317.238,271.233 318.339,272.569 318.821 C 273.906 319.304,275.720 320.186,276.600 320.781 C 277.480 321.376,278.882 322.332,279.715 322.904 C 280.549 323.477,282.439 324.342,283.915 324.828 C 287.294 325.939,289.175 326.881,291.396 328.576 C 293.248 329.990,294.499 330.509,300.030 332.159 C 301.994 332.745,303.789 333.545,304.229 334.033 C 305.687 335.643,308.258 336.789,312.224 337.596 C 316.867 338.541,317.962 338.923,320.417 340.448 C 322.991 342.047,325.072 342.716,331.000 343.845 C 333.860 344.391,337.370 345.186,338.800 345.612 C 352.087 349.577,368.543 350.116,373.281 346.742 C 373.934 346.277,376.009 345.292,377.891 344.553 C 384.378 342.007,385.371 341.103,388.723 334.700 C 389.615 332.995,390.716 331.079,391.170 330.442 C 392.342 328.797,393.095 325.462,393.783 318.880 C 394.725 309.852,395.365 308.400,398.400 308.400 L 400.000 308.400 400.000 162.000 L 400.000 15.600 398.453 15.600 L 396.906 15.600 396.702 10.500 C 396.408 3.160,396.840 3.592,389.500 3.298 L 384.400 3.094 384.400 1.547 L 384.400 0.000 200.000 0.000 L 15.600 0.000 15.600 1.547 M136.466 58.233 C 141.429 60.748,134.115 62.282,128.300 59.945 C 125.629 58.871,128.115 57.589,133.513 57.256 C 134.016 57.225,135.344 57.665,136.466 58.233 M0.000 224.209 L 0.000 361.618 32.580 361.509 C 58.650 361.422,65.264 361.296,65.680 360.880 C 66.063 360.498,66.270 357.757,66.466 350.480 C 66.983 331.322,67.793 326.392,70.845 323.824 L 72.119 322.752 72.462 313.676 C 73.245 292.957,74.018 288.017,77.039 284.427 C 78.383 282.830,78.730 280.820,78.771 274.400 C 78.894 255.219,80.214 245.708,83.004 243.895 C 84.938 242.639,84.870 243.065,85.242 229.800 C 85.427 223.200,85.750 215.836,85.959 213.435 C 86.565 206.484,86.296 205.990,76.503 196.027 C 73.598 193.071,70.361 189.422,69.310 187.917 C 68.260 186.412,65.171 182.890,62.447 180.091 C 59.723 177.291,56.954 174.043,56.293 172.872 C 55.632 171.702,54.327 170.172,53.392 169.472 C 52.457 168.772,51.311 167.615,50.846 166.900 C 50.381 166.185,49.620 165.011,49.155 164.292 C 48.691 163.573,47.641 162.503,46.823 161.915 C 45.949 161.287,44.792 159.825,44.016 158.370 C 43.291 157.009,41.823 154.930,40.755 153.750 C 39.687 152.571,38.200 150.390,37.451 148.903 C 36.665 147.343,35.322 145.504,34.277 144.553 C 33.280 143.647,31.926 141.839,31.268 140.535 C 30.610 139.231,29.265 137.362,28.279 136.382 C 27.073 135.183,25.996 133.487,24.987 131.200 C 24.123 129.240,22.784 127.038,21.827 126.000 C 20.914 125.010,19.736 123.120,19.209 121.800 C 18.270 119.445,17.717 118.509,15.015 114.708 C 14.276 113.667,13.188 111.365,12.597 109.591 C 12.006 107.817,10.892 105.429,10.121 104.283 C 8.028 101.175,7.786 100.602,6.219 95.041 C 4.186 87.824,3.611 86.800,1.592 86.800 L 0.000 86.800 0.000 224.209 M366.468 110.719 C 369.713 111.826,370.914 114.070,370.322 117.922 C 369.715 121.870,368.105 126.506,366.787 128.097 C 365.643 129.478,365.504 129.983,364.989 134.626 C 364.291 140.926,363.259 143.485,360.955 144.628 C 358.605 145.794,216.215 145.845,214.082 144.681 C 209.892 142.393,210.043 132.840,214.301 130.800 C 215.494 130.229,216.376 128.803,217.023 126.400 C 217.445 124.833,218.816 123.607,220.672 123.140 C 222.629 122.647,222.913 122.368,223.589 120.269 C 224.207 118.353,225.531 117.520,229.761 116.388 C 233.160 115.477,234.131 114.881,235.023 113.155 C 235.882 111.494,238.081 110.712,242.788 110.395 C 250.717 109.860,364.826 110.159,366.468 110.719 M256.962 161.449 C 258.740 162.055,261.004 163.825,264.321 167.200 C 270.897 173.893,270.753 173.708,271.301 176.123 C 271.769 178.187,272.003 178.544,273.392 179.323 C 276.770 181.219,277.406 184.671,277.091 199.400 C 276.835 211.373,276.547 212.728,273.749 215.120 C 271.934 216.672,271.906 216.732,271.162 220.844 C 270.262 225.811,269.870 226.646,267.986 227.607 C 266.236 228.500,265.929 228.882,265.048 231.268 C 264.669 232.295,263.946 233.405,263.443 233.735 C 262.939 234.065,261.733 235.185,260.763 236.224 C 258.407 238.747,257.401 239.748,254.272 242.681 C 251.663 245.127,250.795 245.550,247.099 246.181 C 245.488 246.455,245.154 246.722,244.024 248.632 C 242.353 251.456,239.505 251.983,224.400 252.263 C 204.498 252.634,199.587 251.882,197.966 248.216 C 197.348 246.819,196.950 246.400,196.240 246.400 C 192.304 246.400,191.046 242.464,192.022 233.200 C 192.242 231.110,192.592 227.622,192.799 225.449 C 193.206 221.174,193.740 219.936,195.639 218.862 C 197.207 217.975,197.593 216.390,197.606 210.800 C 197.625 202.052,198.423 199.512,201.490 198.428 C 204.593 197.331,206.723 198.709,208.331 202.853 C 208.652 203.680,209.174 204.010,210.767 204.392 C 213.009 204.930,214.556 206.380,214.989 208.348 C 215.304 209.782,215.742 209.894,222.418 210.249 C 229.127 210.606,229.200 210.564,229.200 206.360 C 229.200 202.654,228.862 201.806,227.086 201.055 C 225.595 200.424,224.595 199.394,223.663 197.530 C 223.298 196.801,222.387 195.843,221.638 195.402 C 219.904 194.382,218.026 192.507,216.993 190.764 C 216.549 190.016,215.649 189.155,214.993 188.851 C 212.166 187.541,210.480 184.527,209.780 179.532 C 209.563 177.979,209.329 177.585,208.399 177.200 C 201.902 174.509,204.106 162.968,211.445 161.245 C 214.490 160.531,254.796 160.711,256.962 161.449 M334.867 161.212 C 338.598 162.248,339.416 164.651,339.358 174.400 C 339.282 187.111,338.299 192.142,335.577 193.750 C 333.931 194.722,333.608 196.414,333.580 204.200 C 333.512 222.473,332.363 230.524,329.271 234.372 C 328.167 235.746,328.000 236.330,327.598 240.249 C 326.869 247.338,325.784 249.799,322.800 251.125 C 320.617 252.096,291.858 252.364,288.693 251.444 C 285.795 250.602,282.790 247.381,283.883 246.288 C 284.680 245.491,285.148 240.317,285.193 231.800 C 285.286 214.362,286.405 207.619,289.624 205.100 L 290.870 204.125 291.238 193.962 C 291.894 175.847,292.730 169.845,295.038 166.685 C 295.555 165.978,296.443 164.711,297.013 163.870 C 299.053 160.856,299.301 160.818,317.400 160.811 C 327.057 160.807,333.982 160.966,334.867 161.212 M165.405 275.907 C 165.253 276.288,164.874 279.112,164.562 282.183 C 163.768 290.000,162.342 294.879,160.172 297.204 C 159.077 298.377,158.975 299.358,158.411 314.220 C 158.210 319.512,157.854 325.362,157.620 327.220 C 157.385 329.079,157.093 331.629,156.969 332.887 C 156.738 335.258,155.869 336.594,153.620 338.040 L 152.640 338.671 152.335 349.035 C 152.123 356.226,152.162 359.737,152.463 360.500 L 152.897 361.600 231.013 361.600 C 313.495 361.600,311.061 361.649,316.750 359.884 L 318.500 359.341 316.439 358.455 C 315.305 357.967,312.358 357.127,309.889 356.587 C 304.446 355.398,302.415 354.667,299.800 352.958 C 298.700 352.239,296.630 351.297,295.200 350.864 C 293.770 350.431,291.070 349.614,289.200 349.049 C 287.268 348.465,284.977 347.433,283.895 346.657 C 281.731 345.108,281.120 344.845,276.400 343.432 C 274.530 342.873,272.534 342.097,271.965 341.708 C 268.005 339.001,266.790 338.330,264.443 337.558 C 261.130 336.469,258.409 335.118,257.500 334.112 C 257.115 333.685,255.945 332.958,254.900 332.495 C 253.855 332.033,252.010 331.218,250.800 330.686 C 249.590 330.154,247.703 328.971,246.607 328.059 C 245.305 326.975,243.415 325.970,241.154 325.162 C 238.967 324.379,236.984 323.338,235.767 322.332 C 233.467 320.431,231.270 319.143,228.722 318.202 C 227.690 317.821,225.931 316.729,224.815 315.775 C 223.698 314.822,221.662 313.490,220.290 312.815 C 218.919 312.139,216.897 310.868,215.798 309.989 C 214.699 309.110,212.281 307.659,210.425 306.764 C 208.354 305.766,206.368 304.446,205.285 303.347 C 204.131 302.176,202.321 301.004,200.060 299.961 C 197.798 298.918,195.907 297.693,194.600 296.423 C 193.500 295.354,191.700 294.027,190.600 293.474 C 189.500 292.922,187.880 291.721,187.000 290.808 C 186.120 289.894,183.988 288.409,182.262 287.508 C 180.535 286.608,178.195 285.025,177.062 283.990 C 175.928 282.956,174.100 281.650,173.000 281.088 C 171.900 280.526,170.100 279.138,169.000 278.003 C 166.474 275.397,165.770 274.987,165.405 275.907 M391.639 296.400 C 391.841 297.417,391.174 302.769,390.817 302.989 C 389.970 303.513,389.362 296.803,390.072 294.764 L 390.545 293.409 391.032 294.604 C 391.300 295.262,391.573 296.070,391.639 296.400 M396.115 350.100 C 395.661 350.595,394.920 351.739,394.467 352.642 C 394.014 353.545,392.998 354.805,392.209 355.442 C 388.664 358.305,387.886 359.092,388.162 359.539 C 388.865 360.676,390.969 361.238,395.409 361.476 L 400.000 361.722 400.000 355.461 L 400.000 349.200 398.470 349.200 C 397.394 349.200,396.695 349.467,396.115 350.100 " stroke="none" fill="#142404" fill-rule="evenodd"></path><path id="path4" d="M23.200 31.169 C 16.459 32.619,15.603 32.952,13.775 34.833 C 12.909 35.724,11.204 37.061,9.987 37.803 C 8.522 38.696,7.452 39.725,6.821 40.848 C 5.028 44.039,3.297 45.600,1.553 45.600 L 0.000 45.600 0.000 66.200 L 0.000 86.800 1.592 86.800 C 3.611 86.800,4.186 87.824,6.219 95.041 C 7.786 100.602,8.028 101.175,10.121 104.283 C 10.892 105.429,12.006 107.817,12.597 109.591 C 13.188 111.365,14.276 113.667,15.015 114.708 C 17.717 118.509,18.270 119.445,19.209 121.800 C 19.736 123.120,20.914 125.010,21.827 126.000 C 22.784 127.038,24.123 129.240,24.987 131.200 C 25.996 133.487,27.073 135.183,28.279 136.382 C 29.265 137.362,30.610 139.231,31.268 140.535 C 31.926 141.839,33.280 143.647,34.277 144.553 C 35.322 145.504,36.665 147.343,37.451 148.903 C 38.200 150.390,39.687 152.571,40.755 153.750 C 41.823 154.930,43.291 157.009,44.016 158.370 C 44.792 159.825,45.949 161.287,46.823 161.915 C 47.641 162.503,48.691 163.573,49.155 164.292 C 49.620 165.011,50.381 166.185,50.846 166.900 C 51.311 167.615,52.457 168.772,53.392 169.472 C 54.327 170.172,55.632 171.702,56.293 172.872 C 56.954 174.043,59.723 177.291,62.447 180.091 C 65.171 182.890,68.260 186.412,69.310 187.917 C 70.361 189.422,73.598 193.071,76.503 196.027 C 86.296 205.990,86.565 206.484,85.959 213.435 C 85.750 215.836,85.427 223.200,85.242 229.800 C 84.870 243.065,84.938 242.639,83.004 243.895 C 80.214 245.708,78.894 255.219,78.771 274.400 C 78.730 280.820,78.383 282.830,77.039 284.427 C 74.018 288.017,73.245 292.957,72.462 313.676 L 72.119 322.752 70.845 323.824 C 67.793 326.392,66.983 331.322,66.466 350.480 C 66.270 357.757,66.063 360.498,65.680 360.880 C 65.264 361.296,58.650 361.422,32.580 361.509 L -0.000 361.618 -0.000 364.009 L 0.000 366.400 29.771 366.400 C 58.476 366.400,65.020 366.176,66.256 365.153 C 67.119 364.438,67.691 360.977,68.198 353.400 C 68.643 346.756,68.936 344.869,70.526 338.400 C 72.575 330.065,73.828 322.815,74.190 317.200 C 75.026 304.214,76.106 296.932,77.629 294.006 C 79.126 291.129,79.348 289.723,80.574 275.369 C 81.509 264.422,82.088 260.683,84.005 253.200 C 85.623 246.888,86.747 239.680,86.998 234.000 C 87.262 228.057,88.592 218.972,89.990 213.555 C 90.427 211.866,90.958 207.810,91.184 204.441 C 91.408 201.103,91.676 197.973,91.779 197.486 C 91.883 196.999,92.169 192.820,92.417 188.200 C 92.808 180.886,93.287 176.806,94.229 172.758 C 94.563 171.320,92.268 170.404,88.292 170.389 C 75.772 170.342,74.002 169.154,74.005 160.800 C 74.007 154.158,74.516 151.348,76.451 147.293 C 77.339 145.434,78.163 143.257,78.282 142.456 C 78.402 141.655,78.906 139.560,79.401 137.800 C 79.959 135.818,80.486 132.240,80.787 128.400 C 81.395 120.645,82.244 117.735,84.581 115.398 C 87.771 112.208,84.572 112.398,134.771 112.415 C 183.549 112.431,184.054 112.452,185.880 114.575 C 187.507 116.467,186.884 124.458,184.638 130.487 C 183.466 133.634,182.539 138.947,182.210 144.400 C 181.530 155.694,180.108 165.309,178.676 168.297 C 177.584 170.576,177.260 171.835,177.039 174.669 C 176.887 176.611,176.597 179.280,176.394 180.600 C 176.191 181.920,175.750 186.290,175.414 190.312 C 174.788 197.793,174.416 200.075,172.402 208.800 C 170.161 218.507,169.630 221.875,169.186 229.189 C 168.940 233.252,168.625 236.759,168.487 236.982 C 168.350 237.205,168.227 240.270,168.216 243.794 L 168.195 250.200 166.722 253.200 C 165.128 256.448,164.665 258.968,164.189 267.000 C 164.045 269.420,163.582 272.660,163.160 274.200 C 162.738 275.740,162.122 278.673,161.792 280.719 C 161.407 283.109,160.761 285.293,159.984 286.832 C 158.502 289.767,157.932 293.383,156.835 306.800 C 155.973 317.352,155.405 320.775,153.815 325.000 C 153.254 326.489,152.691 328.988,152.564 330.553 C 152.436 332.119,152.003 335.020,151.602 337.000 C 151.200 338.980,150.758 343.030,150.619 346.000 C 150.480 348.970,149.993 353.358,149.535 355.750 C 148.457 361.392,149.085 364.317,151.656 365.629 C 153.355 366.496,322.734 366.804,333.400 365.959 C 343.161 365.186,371.629 365.060,378.304 365.760 C 381.699 366.116,387.867 366.400,392.204 366.400 L 400.000 366.400 400.000 364.061 L 400.000 361.722 395.409 361.476 C 390.969 361.238,388.865 360.676,388.162 359.539 C 387.886 359.092,388.664 358.305,392.209 355.442 C 392.998 354.805,394.014 353.545,394.467 352.642 C 395.785 350.014,396.732 349.200,398.470 349.200 L 400.000 349.200 400.000 328.800 L 400.000 308.400 398.400 308.400 C 395.365 308.400,394.725 309.852,393.783 318.880 C 393.095 325.462,392.342 328.797,391.170 330.442 C 390.716 331.079,389.615 332.995,388.723 334.700 C 385.371 341.103,384.378 342.007,377.891 344.553 C 376.009 345.292,373.934 346.277,373.281 346.742 C 368.543 350.116,352.087 349.577,338.800 345.612 C 337.370 345.186,333.860 344.391,331.000 343.845 C 325.072 342.716,322.991 342.047,320.417 340.448 C 317.962 338.923,316.867 338.541,312.224 337.596 C 308.258 336.789,305.687 335.643,304.229 334.033 C 303.789 333.545,301.994 332.745,300.030 332.159 C 294.499 330.509,293.248 329.990,291.396 328.576 C 289.175 326.881,287.294 325.939,283.915 324.828 C 282.439 324.342,280.549 323.477,279.715 322.904 C 278.882 322.332,277.480 321.376,276.600 320.781 C 275.720 320.186,273.906 319.304,272.569 318.821 C 271.233 318.339,269.253 317.238,268.169 316.375 C 267.086 315.512,264.385 313.891,262.166 312.772 C 259.948 311.653,257.428 310.106,256.566 309.334 C 255.705 308.562,253.730 307.324,252.177 306.584 C 250.625 305.843,248.555 304.534,247.577 303.675 C 245.688 302.015,243.565 300.820,241.071 300.014 C 240.231 299.742,238.431 298.494,237.071 297.240 C 235.712 295.987,233.359 294.340,231.843 293.581 C 230.327 292.821,228.197 291.347,227.110 290.305 C 226.024 289.262,223.883 287.752,222.354 286.948 C 220.825 286.145,219.209 284.974,218.762 284.347 C 218.315 283.719,216.746 282.500,215.275 281.636 C 213.804 280.773,211.976 279.418,211.214 278.626 C 210.452 277.833,208.162 276.177,206.125 274.944 C 204.088 273.712,201.952 272.089,201.379 271.338 C 200.806 270.586,199.351 269.415,198.146 268.735 C 196.941 268.055,195.290 266.696,194.477 265.716 C 193.665 264.735,192.190 263.473,191.200 262.911 C 190.210 262.349,188.229 260.699,186.798 259.245 C 185.367 257.790,183.417 256.150,182.465 255.600 C 179.958 254.151,172.544 246.820,171.710 244.964 C 171.087 243.580,171.018 242.205,171.109 233.000 C 171.237 220.051,171.261 219.875,173.084 218.748 C 175.930 216.989,176.506 213.665,177.200 195.000 C 177.685 181.921,177.792 181.047,178.971 180.416 C 180.233 179.740,181.080 178.126,181.392 175.800 C 181.540 174.700,182.003 172.000,182.421 169.800 C 182.977 166.878,183.296 162.430,183.604 153.299 C 184.077 139.282,183.932 140.223,185.962 138.088 C 190.378 133.446,191.067 114.028,186.912 111.306 C 185.217 110.195,86.397 110.215,83.516 111.327 C 79.958 112.700,79.339 114.834,78.868 127.336 C 78.698 131.867,78.441 135.692,78.298 135.835 C 77.634 136.500,75.476 134.527,74.760 132.600 C 74.351 131.500,73.276 129.705,72.371 128.612 C 70.314 126.126,69.431 124.407,68.638 121.349 C 67.573 117.237,66.903 115.707,65.257 113.625 C 63.436 111.321,63.085 110.381,62.183 105.400 C 61.824 103.420,60.712 99.730,59.711 97.200 C 56.469 89.004,56.273 74.287,59.349 70.048 C 60.087 69.031,61.193 67.067,61.807 65.683 C 63.182 62.587,68.109 57.704,70.859 56.713 C 74.049 55.563,79.377 54.083,81.284 53.818 C 82.320 53.674,84.620 53.026,86.396 52.378 C 90.318 50.946,90.818 50.935,94.325 52.200 C 96.336 52.926,97.906 53.200,100.048 53.200 C 102.029 53.200,103.691 53.463,105.100 53.998 C 112.121 56.667,124.158 56.652,125.008 53.974 C 125.437 52.623,124.127 51.844,118.326 50.003 C 115.535 49.117,112.745 47.968,112.126 47.451 C 110.265 45.895,107.892 44.876,103.127 43.585 C 100.169 42.784,97.699 41.817,96.000 40.796 C 92.604 38.754,91.162 38.274,85.293 37.233 C 79.855 36.268,78.444 35.838,74.979 34.093 C 67.753 30.452,35.098 28.608,23.200 31.169 M130.554 57.562 C 127.437 57.943,126.302 59.142,128.300 59.945 C 134.115 62.282,141.429 60.748,136.466 58.233 C 134.371 57.172,134.051 57.136,130.554 57.562 M242.788 110.395 C 238.081 110.712,235.882 111.494,235.023 113.155 C 234.131 114.881,233.160 115.477,229.761 116.388 C 225.531 117.520,224.207 118.353,223.589 120.269 C 222.913 122.368,222.629 122.647,220.672 123.140 C 218.816 123.607,217.445 124.833,217.023 126.400 C 216.376 128.803,215.494 130.229,214.301 130.800 C 210.043 132.840,209.892 142.393,214.082 144.681 C 216.215 145.845,358.605 145.794,360.955 144.628 C 363.259 143.485,364.291 140.926,364.989 134.626 C 365.504 129.983,365.643 129.478,366.787 128.097 C 368.105 126.506,369.715 121.870,370.322 117.922 C 370.914 114.070,369.713 111.826,366.468 110.719 C 364.826 110.159,250.717 109.860,242.788 110.395 M361.863 112.196 C 366.559 113.591,367.801 115.241,366.309 118.105 C 364.868 120.871,364.565 122.263,363.824 129.505 C 362.884 138.699,361.718 140.526,356.000 141.770 C 351.160 142.824,220.415 142.545,217.267 141.475 C 215.565 140.896,215.187 140.613,215.396 140.075 C 215.540 139.704,215.759 138.213,215.882 136.761 C 216.240 132.536,218.997 127.594,222.400 125.077 C 223.830 124.019,225.810 122.386,226.800 121.447 C 229.064 119.301,230.053 118.701,232.800 117.807 C 235.748 116.848,237.107 116.132,238.928 114.578 C 240.526 113.216,242.107 112.853,250.094 112.014 C 256.197 111.373,359.658 111.542,361.863 112.196 M211.445 161.245 C 204.106 162.968,201.902 174.509,208.399 177.200 C 209.329 177.585,209.563 177.979,209.780 179.532 C 210.480 184.527,212.166 187.541,214.993 188.851 C 215.649 189.155,216.549 190.016,216.993 190.764 C 218.026 192.507,219.904 194.382,221.638 195.402 C 222.387 195.843,223.298 196.801,223.663 197.530 C 224.595 199.394,225.595 200.424,227.086 201.055 C 228.862 201.806,229.200 202.654,229.200 206.360 C 229.200 210.564,229.127 210.606,222.418 210.249 C 215.742 209.894,215.304 209.782,214.989 208.348 C 214.556 206.380,213.009 204.930,210.767 204.392 C 209.174 204.010,208.652 203.680,208.331 202.853 C 206.723 198.709,204.593 197.331,201.490 198.428 C 198.423 199.512,197.625 202.052,197.606 210.800 C 197.593 216.390,197.207 217.975,195.639 218.862 C 193.740 219.936,193.206 221.174,192.799 225.449 C 192.592 227.622,192.242 231.110,192.022 233.200 C 191.046 242.464,192.304 246.400,196.240 246.400 C 196.950 246.400,197.348 246.819,197.966 248.216 C 199.587 251.882,204.498 252.634,224.400 252.263 C 239.505 251.983,242.353 251.456,244.024 248.632 C 245.154 246.722,245.488 246.455,247.099 246.181 C 250.795 245.550,251.663 245.127,254.272 242.681 C 257.401 239.748,258.407 238.747,260.763 236.224 C 261.733 235.185,262.939 234.065,263.443 233.735 C 263.946 233.405,264.669 232.295,265.048 231.268 C 265.929 228.882,266.236 228.500,267.986 227.607 C 269.870 226.646,270.262 225.811,271.162 220.844 C 271.906 216.732,271.934 216.672,273.749 215.120 C 276.547 212.728,276.835 211.373,277.091 199.400 C 277.406 184.671,276.770 181.219,273.392 179.323 C 272.003 178.544,271.769 178.187,271.301 176.123 C 270.753 173.708,270.897 173.893,264.321 167.200 C 261.004 163.825,258.740 162.055,256.962 161.449 C 254.796 160.711,214.490 160.531,211.445 161.245 M299.724 161.578 C 298.748 162.021,297.616 162.978,297.013 163.870 C 296.443 164.711,295.555 165.978,295.038 166.685 C 292.730 169.845,291.894 175.847,291.238 193.962 L 290.870 204.125 289.624 205.100 C 286.405 207.619,285.286 214.362,285.193 231.800 C 285.148 240.317,284.680 245.491,283.883 246.288 C 282.790 247.381,285.795 250.602,288.693 251.444 C 291.858 252.364,320.617 252.096,322.800 251.125 C 325.784 249.799,326.869 247.338,327.598 240.249 C 328.000 236.330,328.167 235.746,329.271 234.372 C 332.363 230.524,333.512 222.473,333.580 204.200 C 333.608 196.414,333.931 194.722,335.577 193.750 C 338.299 192.142,339.282 187.111,339.358 174.400 C 339.416 164.651,338.598 162.248,334.867 161.212 C 331.890 160.385,301.658 160.700,299.724 161.578 M254.771 164.780 C 255.374 165.208,257.220 166.176,258.875 166.931 C 261.702 168.218,264.000 170.272,264.000 171.509 C 264.000 171.748,265.026 172.723,266.280 173.677 C 268.292 175.206,268.731 175.809,270.006 178.805 C 270.802 180.672,271.923 182.920,272.498 183.800 C 275.813 188.875,275.767 205.671,272.425 210.364 C 271.379 211.834,270.649 213.878,269.614 218.234 C 268.642 222.327,268.113 223.408,266.247 225.104 C 265.457 225.822,264.429 227.172,263.962 228.104 C 262.945 230.133,261.400 231.862,259.909 232.642 C 259.308 232.955,258.195 234.185,257.434 235.374 C 256.571 236.722,255.387 237.926,254.289 238.569 C 253.320 239.137,251.861 240.321,251.047 241.201 C 249.374 243.010,247.768 243.906,243.957 245.159 C 242.503 245.637,240.523 246.526,239.557 247.135 C 235.442 249.730,235.305 249.752,222.069 249.918 C 205.966 250.121,206.379 250.225,196.290 243.413 C 193.557 241.567,193.531 237.691,196.209 231.100 C 196.816 229.607,197.288 227.446,197.444 225.442 C 197.584 223.659,197.956 221.210,198.270 220.000 C 198.585 218.790,199.010 215.550,199.215 212.800 C 199.688 206.458,200.473 203.363,201.998 201.826 L 203.163 200.652 205.682 203.265 C 207.067 204.702,208.830 206.335,209.600 206.893 C 210.370 207.452,211.765 208.642,212.700 209.538 C 213.710 210.507,215.090 211.356,216.100 211.632 C 217.035 211.887,218.664 212.361,219.719 212.686 C 225.872 214.580,231.298 211.670,231.742 206.238 L 232.000 203.077 229.947 199.956 C 228.772 198.171,227.235 196.400,226.357 195.819 C 225.512 195.260,224.103 193.894,223.226 192.785 C 222.349 191.676,220.737 190.061,219.644 189.197 C 218.551 188.333,217.095 186.810,216.409 185.813 C 215.723 184.816,215.015 184.000,214.835 184.000 C 214.153 184.000,212.355 180.831,211.363 177.881 C 210.796 176.192,209.897 174.170,209.366 173.387 C 207.770 171.036,209.461 167.185,212.974 165.170 L 215.000 164.008 234.338 164.004 C 252.870 164.000,253.722 164.033,254.771 164.780 M331.742 164.636 C 334.804 165.428,335.065 165.646,336.463 168.600 C 337.907 171.649,337.923 171.351,335.835 179.832 C 333.137 190.785,331.998 196.994,331.986 200.800 C 331.980 202.670,331.718 206.270,331.403 208.800 C 331.089 211.330,330.580 215.470,330.272 218.000 C 329.859 221.396,329.440 223.124,328.670 224.600 C 327.384 227.069,326.976 229.038,326.245 236.299 C 325.061 248.075,323.704 248.800,302.850 248.800 L 290.457 248.800 289.074 247.495 C 287.237 245.763,286.805 243.974,286.802 238.084 C 286.799 230.296,288.658 216.972,290.171 213.938 C 291.164 211.948,292.367 205.391,292.820 199.509 C 294.014 183.984,294.842 178.152,296.201 175.701 C 296.719 174.766,297.442 172.972,297.808 171.713 C 298.714 168.597,299.833 166.507,301.326 165.144 L 302.578 164.000 315.931 164.000 C 326.837 164.000,329.735 164.117,331.742 164.636 M169.000 278.003 C 170.100 279.138,171.900 280.526,173.000 281.088 C 174.100 281.650,175.928 282.956,177.062 283.990 C 178.195 285.025,180.535 286.608,182.262 287.508 C 183.988 288.409,186.120 289.894,187.000 290.808 C 187.880 291.721,189.500 292.922,190.600 293.474 C 191.700 294.027,193.500 295.354,194.600 296.423 C 195.907 297.693,197.798 298.918,200.060 299.961 C 202.321 301.004,204.131 302.176,205.285 303.347 C 206.368 304.446,208.354 305.766,210.425 306.764 C 212.281 307.659,214.699 309.110,215.798 309.989 C 216.897 310.868,218.919 312.139,220.290 312.815 C 221.662 313.490,223.698 314.822,224.815 315.775 C 225.931 316.729,227.690 317.821,228.722 318.202 C 231.270 319.143,233.467 320.431,235.767 322.332 C 236.984 323.338,238.967 324.379,241.154 325.162 C 243.415 325.970,245.305 326.975,246.607 328.059 C 247.703 328.971,249.590 330.154,250.800 330.686 C 252.010 331.218,253.855 332.033,254.900 332.495 C 255.945 332.958,257.115 333.685,257.500 334.112 C 258.409 335.118,261.130 336.469,264.443 337.558 C 266.790 338.330,268.005 339.001,271.965 341.708 C 272.534 342.097,274.530 342.873,276.400 343.432 C 281.120 344.845,281.731 345.108,283.895 346.657 C 284.977 347.433,287.268 348.465,289.200 349.049 C 291.070 349.614,293.770 350.431,295.200 350.864 C 296.630 351.297,298.700 352.239,299.800 352.958 C 302.415 354.667,304.446 355.398,309.889 356.587 C 312.358 357.127,315.305 357.967,316.439 358.455 L 318.500 359.341 316.750 359.884 C 311.061 361.649,313.495 361.600,231.013 361.600 L 152.897 361.600 152.463 360.500 C 152.162 359.737,152.123 356.226,152.335 349.035 L 152.640 338.671 153.620 338.040 C 155.869 336.594,156.738 335.258,156.969 332.887 C 157.093 331.629,157.385 329.079,157.620 327.220 C 157.854 325.362,158.210 319.512,158.411 314.220 C 158.975 299.358,159.077 298.377,160.172 297.204 C 162.342 294.879,163.768 290.000,164.562 282.183 C 165.379 274.149,165.319 274.206,169.000 278.003 M390.072 294.764 C 389.487 296.444,389.481 297.454,390.041 300.666 C 390.596 303.854,391.068 303.596,391.456 299.891 C 391.785 296.740,391.756 296.381,391.032 294.604 L 390.545 293.409 390.072 294.764 " stroke="none" fill="#445334" fill-rule="evenodd"></path></g></svg>