<svg version="1.1" id="Layer_1" xmlns="http://www.w3.org/2000/svg" xmlns:xlink="http://www.w3.org/1999/xlink" x="0px" y="0px"
	 width="100%" viewBox="0 0 200 200" enable-background="new 0 0 200 200" xml:space="preserve">
<path fill="#DB2A1E" opacity="1.000000" stroke="none" 
	d="
M139.000000,201.000000 
	C92.666672,201.000000 46.833340,201.000000 1.000006,201.000000 
	C1.000004,134.333344 1.000004,67.666679 1.000002,1.000015 
	C67.666656,1.000010 134.333313,1.000010 200.999969,1.000005 
	C200.999985,67.666649 200.999985,134.333298 201.000000,200.999969 
	C180.500000,201.000000 160.000000,201.000000 139.000000,201.000000 
M82.150520,148.845840 
	C83.048004,149.187836 83.943352,149.820587 84.843307,149.827225 
	C94.882172,149.901093 104.922386,149.930206 114.960258,149.808395 
	C116.073952,149.794891 117.175407,148.772171 118.747971,147.566711 
	C118.962143,140.474487 119.296448,133.381653 119.259285,126.290741 
	C119.253792,125.242813 117.490929,123.298508 116.541748,123.298889 
	C104.949707,123.303528 93.357780,123.594246 81.288612,124.524742 
	C81.470947,132.390778 81.653282,140.256821 82.150520,148.845840 
M33.498199,124.539482 
	C33.401936,135.059265 39.646339,147.006302 47.375862,148.195160 
	C55.040695,149.374054 63.028503,148.453094 70.969795,148.453094 
	C70.969795,139.950287 70.969795,132.018509 70.308380,123.591522 
	C60.603298,123.394669 50.898766,123.126717 41.192738,123.051270 
	C38.785259,123.032547 36.372936,123.637466 33.498199,124.539482 
M128.859299,124.973854 
	C128.859299,132.738373 128.859299,140.502884 128.859299,148.767014 
	C134.822449,148.767014 140.305603,148.368195 145.708618,148.856308 
	C154.828247,149.680191 160.208679,144.918884 163.504257,137.376312 
	C165.263458,133.350082 165.843216,128.808517 166.382095,123.861465 
	C165.117706,123.579475 163.855057,123.062195 162.588669,123.052887 
	C152.807724,122.981018 143.025665,122.965324 133.244995,123.050240 
	C131.830505,123.062515 130.421494,123.703690 128.859299,124.973854 
M129.688416,114.391342 
	C135.081772,114.594460 140.476578,114.986946 145.868057,114.945587 
	C150.909470,114.906921 155.947327,114.408112 161.818771,113.947136 
	C163.267426,113.849236 164.716064,113.751343 166.069595,113.659874 
	C166.069595,105.234398 166.069595,97.142464 165.368576,88.579979 
	C153.831375,88.452026 142.294266,88.310524 130.756714,88.236427 
	C130.184174,88.232750 129.607880,88.815506 128.897995,90.038513 
	C128.942810,97.987938 128.987625,105.937363 129.688416,114.391342 
M33.377567,113.377319 
	C33.580639,113.582474 33.776787,113.794037 34.667839,114.463333 
	C46.194862,114.575661 57.721817,114.701492 69.249115,114.760208 
	C69.821472,114.763123 70.396805,114.182205 71.102486,112.959579 
	C71.056435,105.017586 71.010384,97.075592 70.313774,88.620308 
	C59.265476,88.419685 48.217518,88.188736 37.168354,88.066490 
	C36.092514,88.054581 35.009258,88.713593 33.759449,89.402252 
	C33.628345,89.637474 33.433308,89.792015 32.668983,90.562302 
	C32.807671,98.060974 32.946358,105.559654 33.377567,113.377319 
M118.376801,66.498672 
	C118.376801,62.415810 118.376801,58.332951 118.376801,54.189125 
	C105.766563,54.189125 93.889511,54.189125 82.081665,54.189125 
	C82.081665,62.355434 82.081665,70.206406 82.081665,77.879440 
	C94.400551,77.879440 106.261818,77.879440 118.376823,77.879440 
	C118.376823,74.128075 118.376823,70.812263 118.376801,66.498672 
M37.550575,63.169025 
	C35.910751,67.889458 34.270927,72.609894 32.435760,77.892654 
	C46.251408,77.892654 58.600361,77.892654 70.834526,77.892654 
	C70.834526,69.713013 70.834526,61.968014 70.834526,53.875286 
	C65.179863,53.875286 59.848663,54.205097 54.574684,53.796471 
	C47.033657,53.212189 41.765133,56.355522 37.550575,63.169025 
M139.504822,53.876080 
	C136.068726,53.876080 132.632645,53.876080 129.222473,53.876080 
	C129.222473,62.387939 129.222473,70.251610 129.222473,77.940170 
	C141.858124,77.940170 154.086761,77.940170 166.743195,77.940170 
	C165.946701,68.903000 163.585663,60.678936 155.784637,56.356213 
	C151.534561,54.001156 145.644241,54.606144 139.504822,53.876080 
z"/>
<path fill="#FDF8F8" opacity="1.000000" stroke="none" 
	d="
M33.966015,114.012024 
	C33.776787,113.794037 33.580639,113.582474 33.350853,112.755928 
	C33.274204,104.711647 33.224270,97.288750 33.174339,89.865860 
	C33.433308,89.792015 33.628345,89.637474 34.320801,89.260918 
	C46.909542,89.124260 58.936932,89.128929 70.964325,89.133598 
	C71.010384,97.075592 71.056435,105.017586 70.569580,113.427948 
	C58.013115,113.934875 45.989567,113.973450 33.966015,114.012024 
z"/>
<path fill="#FDF9F8" opacity="1.000000" stroke="none" 
	d="
M166.069595,89.050537 
	C166.069595,97.142464 166.069595,105.234398 166.069595,113.659874 
	C164.716064,113.751343 163.267426,113.849236 160.941437,113.946266 
	C149.720215,113.925858 139.376328,113.906326 129.032440,113.886787 
	C128.987625,105.937363 128.942810,97.987938 129.432373,89.579765 
	C142.001038,89.097527 154.035324,89.074036 166.069595,89.050537 
z"/>
<path fill="#FEFDFD" opacity="1.000000" stroke="none" 
	d="
M118.376816,66.997559 
	C118.376823,70.812263 118.376823,74.128075 118.376823,77.879440 
	C106.261818,77.879440 94.400551,77.879440 82.081665,77.879440 
	C82.081665,70.206406 82.081665,62.355434 82.081665,54.189125 
	C93.889511,54.189125 105.766563,54.189125 118.376801,54.189125 
	C118.376801,58.332951 118.376801,62.415810 118.376816,66.997559 
z"/>
<path fill="#FDF9F9" opacity="1.000000" stroke="none" 
	d="
M166.955307,124.499535 
	C165.843216,128.808517 165.263458,133.350082 163.504257,137.376312 
	C160.208679,144.918884 154.828247,149.680191 145.708618,148.856308 
	C140.305603,148.368195 134.822449,148.767014 128.859299,148.767014 
	C128.859299,140.502884 128.859299,132.738373 129.402863,124.512726 
	C142.282730,124.200912 154.619019,124.350220 166.955307,124.499535 
z"/>
<path fill="#FDF9F9" opacity="1.000000" stroke="none" 
	d="
M70.969795,124.086731 
	C70.969795,132.018509 70.969795,139.950287 70.969795,148.453094 
	C63.028503,148.453094 55.040695,149.374054 47.375862,148.195160 
	C39.646339,147.006302 33.401936,135.059265 34.202477,124.287537 
	C46.927769,124.052635 58.948784,124.069679 70.969795,124.086731 
z"/>
<path fill="#FEFCFB" opacity="1.000000" stroke="none" 
	d="
M37.753780,62.863388 
	C41.765133,56.355522 47.033657,53.212189 54.574684,53.796471 
	C59.848663,54.205097 65.179863,53.875286 70.834526,53.875286 
	C70.834526,61.968014 70.834526,69.713013 70.834526,77.892654 
	C58.600361,77.892654 46.251408,77.892654 32.435760,77.892654 
	C34.270927,72.609894 35.910751,67.889458 37.753780,62.863388 
z"/>
<path fill="#FEFCFB" opacity="1.000000" stroke="none" 
	d="
M139.999268,53.876099 
	C145.644241,54.606144 151.534561,54.001156 155.784637,56.356213 
	C163.585663,60.678936 165.946701,68.903000 166.743195,77.940170 
	C154.086761,77.940170 141.858124,77.940170 129.222473,77.940170 
	C129.222473,70.251610 129.222473,62.387939 129.222473,53.876080 
	C132.632645,53.876080 136.068726,53.876080 139.999268,53.876099 
z"/>
<path fill="#C94C3F" opacity="1.000000" stroke="none" 
	d="
M81.765823,123.810806 
	C93.357780,123.594246 104.949707,123.303528 116.541748,123.298889 
	C117.490929,123.298508 119.253792,125.242813 119.259285,126.290741 
	C119.296448,133.381653 118.962143,140.474487 118.456001,147.847229 
	C118.164032,148.127762 118.048943,148.033707 118.122498,147.568085 
	C118.196053,139.547119 118.196053,131.991776 118.196053,124.110107 
	C105.645775,124.110107 93.873779,124.110107 82.018082,124.034958 
	C81.934380,123.959808 81.765823,123.810806 81.765823,123.810806 
z"/>
<path fill="#C94C3F" opacity="1.000000" stroke="none" 
	d="
M118.223282,148.172638 
	C117.175407,148.772171 116.073952,149.794891 114.960258,149.808395 
	C104.922386,149.930206 94.882172,149.901093 84.843307,149.827225 
	C83.943352,149.820587 83.048004,149.187836 82.023460,148.464050 
	C81.896400,148.082260 81.951050,148.033707 82.368683,148.274582 
	C94.540527,148.354874 106.294739,148.194290 118.048943,148.033691 
	C118.048943,148.033707 118.164032,148.127762 118.223282,148.172638 
z"/>
<path fill="#C02F20" opacity="1.000000" stroke="none" 
	d="
M166.668701,124.180496 
	C154.619019,124.350220 142.282730,124.200912 129.478195,124.052719 
	C130.421494,123.703690 131.830505,123.062515 133.244995,123.050240 
	C143.025665,122.965324 152.807724,122.981018 162.588669,123.052887 
	C163.855057,123.062195 165.117706,123.579475 166.668701,124.180496 
z"/>
<path fill="#BF2F1F" opacity="1.000000" stroke="none" 
	d="
M70.639084,123.839127 
	C58.948784,124.069679 46.927769,124.052635 34.434799,123.995651 
	C36.372936,123.637466 38.785259,123.032547 41.192738,123.051270 
	C50.898766,123.126717 60.603298,123.394669 70.639084,123.839127 
z"/>
<path fill="#C02F1F" opacity="1.000000" stroke="none" 
	d="
M34.316925,114.237679 
	C45.989567,113.973450 58.013115,113.934875 70.503708,113.884720 
	C70.396805,114.182205 69.821472,114.763123 69.249115,114.760208 
	C57.721817,114.701492 46.194862,114.575661 34.316925,114.237679 
z"/>
<path fill="#C32C21" opacity="1.000000" stroke="none" 
	d="
M165.719086,88.815262 
	C154.035324,89.074036 142.001038,89.097527 129.500046,89.123108 
	C129.607880,88.815506 130.184174,88.232750 130.756714,88.236427 
	C142.294266,88.310524 153.831375,88.452026 165.719086,88.815262 
z"/>
<path fill="#C63025" opacity="1.000000" stroke="none" 
	d="
M70.639053,88.876953 
	C58.936932,89.128929 46.909542,89.124260 34.405800,89.090378 
	C35.009258,88.713593 36.092514,88.054581 37.168354,88.066490 
	C48.217518,88.188736 59.265476,88.419685 70.639053,88.876953 
z"/>
<path fill="#BF2F1F" opacity="1.000000" stroke="none" 
	d="
M129.360428,114.139069 
	C139.376328,113.906326 149.720215,113.925858 160.525421,114.028610 
	C155.947327,114.408112 150.909470,114.906921 145.868057,114.945587 
	C140.476578,114.986946 135.081772,114.594460 129.360428,114.139069 
z"/>
<path fill="#C94C3F" opacity="1.000000" stroke="none" 
	d="
M81.866013,148.102570 
	C81.653282,140.256821 81.470947,132.390778 81.527222,124.167770 
	C81.765823,123.810806 81.934380,123.959808 81.897995,124.483017 
	C81.891426,132.682053 81.921234,140.357880 81.951050,148.033707 
	C81.951050,148.033707 81.896400,148.082260 81.866013,148.102570 
z"/>
<path fill="#C63025" opacity="1.000000" stroke="none" 
	d="
M32.921661,90.214081 
	C33.224270,97.288750 33.274204,104.711647 33.204590,112.596436 
	C32.946358,105.559654 32.807671,98.060974 32.921661,90.214081 
z"/>
<path fill="#FDFAFA" opacity="1.000000" stroke="none" 
	d="
M82.368683,148.274582 
	C81.921234,140.357880 81.891426,132.682053 81.981705,124.558167 
	C93.873779,124.110107 105.645775,124.110107 118.196053,124.110107 
	C118.196053,131.991776 118.196053,139.547119 118.122498,147.568085 
	C106.294739,148.194290 94.540527,148.354874 82.368683,148.274582 
z"/>
</svg>