<svg id="svg" version="1.1" xmlns="http://www.w3.org/2000/svg" xmlns:xlink="http://www.w3.org/1999/xlink" width="400" height="450.65502183406113" viewBox="0, 0, 400,450.65502183406113"><g id="svgg"><path id="path0" d="M0.049 110.900 C 0.078 175.012,0.244 220.703,0.444 219.200 C 6.149 176.189,55.730 157.097,88.400 185.330 C 96.899 192.675,102.597 202.383,105.461 214.400 C 106.132 217.217,106.183 222.042,106.294 293.520 L 106.412 369.640 105.417 374.555 C 97.598 413.171,51.955 429.972,20.600 405.776 C 8.973 396.804,2.334 384.789,0.276 369.000 C 0.190 368.340,0.093 386.385,0.060 409.100 L 0.000 450.400 200.000 450.400 L 400.000 450.400 400.000 225.200 L 400.000 0.000 200.000 0.000 L 0.000 0.000 0.049 110.900 M331.819 38.039 C 356.079 40.480,375.601 59.354,378.989 83.644 C 379.735 88.995,379.927 363.229,379.189 369.800 C 376.869 390.453,362.476 408.059,342.800 414.310 C 311.329 424.308,279.027 404.492,273.714 371.928 C 273.092 368.116,273.039 357.091,273.020 228.000 C 272.999 78.052,272.910 84.726,275.017 76.929 C 281.810 51.789,305.729 35.413,331.819 38.039 M65.038 39.137 C 105.367 49.362,119.796 97.554,91.389 127.150 C 64.627 155.033,18.052 145.783,4.027 109.800 C -7.962 79.042,11.212 44.748,43.822 38.622 C 48.539 37.736,60.673 38.031,65.038 39.137 M202.000 39.312 C 226.305 45.669,241.595 64.369,242.790 89.200 C 243.271 99.195,243.275 363.559,242.794 368.427 C 241.480 381.735,236.571 392.265,227.417 401.414 C 196.960 431.852,145.438 415.609,137.289 373.000 C 136.254 367.593,136.284 88.926,137.319 82.600 C 141.046 59.825,159.052 41.940,181.800 38.418 C 186.446 37.698,197.741 38.198,202.000 39.312 " stroke="none" fill="#fbfbfb" fill-rule="evenodd"></path><path id="path1" d="M322.400 37.865 C 296.263 40.422,276.968 58.788,273.513 84.400 C 272.622 91.002,272.815 366.417,273.714 371.928 C 279.027 404.492,311.329 424.308,342.800 414.310 C 362.476 408.059,376.869 390.453,379.189 369.800 C 379.927 363.229,379.735 88.995,378.989 83.644 C 375.128 55.962,349.483 35.216,322.400 37.865 M43.822 38.622 C -2.772 47.375,-15.327 108.439,24.074 134.669 C 65.937 162.538,119.503 120.880,103.164 73.162 C 94.979 49.256,68.685 33.952,43.822 38.622 M181.800 38.418 C 159.052 41.940,141.046 59.825,137.319 82.600 C 136.284 88.926,136.254 367.593,137.289 373.000 C 145.438 415.609,196.960 431.852,227.417 401.414 C 236.571 392.265,241.480 381.735,242.794 368.427 C 243.275 363.559,243.271 99.195,242.790 89.200 C 241.241 57.025,213.077 33.574,181.800 38.418 M45.447 172.586 C 20.498 176.978,3.117 195.275,0.406 220.000 C -0.433 227.655,0.058 369.700,0.939 374.000 C 12.525 430.575,93.987 431.008,105.417 374.555 L 106.412 369.640 106.294 293.520 C 106.163 208.966,106.399 216.296,103.530 207.800 C 95.532 184.113,69.528 168.347,45.447 172.586 M278.217 196.744 C 299.298 241.246,364.258 235.555,377.626 188.034 C 378.271 185.743,378.911 183.763,379.049 183.634 C 379.368 183.336,378.882 308.271,378.547 312.700 C 378.330 315.569,378.199 316.000,377.549 316.000 C 377.137 316.000,376.797 315.775,376.794 315.500 C 376.790 315.167,376.658 315.200,376.400 315.600 C 376.073 316.106,376.011 316.110,376.006 315.624 C 376.002 315.204,375.828 315.259,375.370 315.824 C 375.024 316.251,374.879 316.330,375.047 316.000 C 375.311 315.483,375.259 315.476,374.677 315.949 C 374.134 316.389,373.881 316.399,373.400 316.000 C 373.070 315.726,372.797 315.659,372.794 315.851 C 372.791 316.043,372.613 315.930,372.400 315.600 C 372.055 315.067,372.011 315.067,372.000 315.600 C 371.989 316.133,371.945 316.133,371.600 315.600 C 371.255 315.067,371.211 315.067,371.200 315.600 C 371.189 316.133,371.145 316.133,370.800 315.600 C 370.587 315.270,370.409 315.197,370.406 315.438 C 370.403 315.682,369.690 315.877,368.800 315.877 C 367.910 315.877,367.197 315.682,367.194 315.438 C 367.191 315.197,367.013 315.270,366.800 315.600 C 366.455 316.133,366.411 316.133,366.400 315.600 C 366.392 315.215,366.282 315.156,366.094 315.435 C 365.932 315.674,365.170 315.870,364.400 315.870 C 363.630 315.870,362.868 315.674,362.706 315.435 C 362.518 315.156,362.408 315.215,362.400 315.600 C 362.389 316.133,362.345 316.133,362.000 315.600 C 361.655 315.067,361.611 315.067,361.600 315.600 C 361.589 316.133,361.545 316.133,361.200 315.600 C 360.987 315.270,360.809 315.197,360.806 315.438 C 360.803 315.682,360.090 315.877,359.200 315.877 C 358.310 315.877,357.597 315.682,357.594 315.438 C 357.591 315.197,357.413 315.270,357.200 315.600 C 356.942 316.000,356.810 316.033,356.806 315.700 C 356.803 315.425,356.429 315.200,355.976 315.200 C 355.523 315.200,355.264 315.380,355.400 315.600 C 355.536 315.820,355.266 316.000,354.800 316.000 C 354.334 316.000,354.064 315.820,354.200 315.600 C 354.347 315.361,353.863 315.200,353.000 315.200 C 352.204 315.200,351.645 315.350,351.759 315.533 C 351.872 315.717,351.703 315.867,351.382 315.867 C 351.062 315.867,350.800 315.729,350.800 315.561 C 350.800 315.393,344.365 315.230,336.500 315.200 C 310.203 315.097,297.706 314.913,297.234 314.621 C 296.976 314.461,296.548 314.493,296.282 314.690 C 295.573 315.218,294.021 315.082,293.636 314.458 C 293.362 314.014,293.094 314.051,292.166 314.658 C 291.542 315.066,291.170 315.175,291.339 314.900 C 291.707 314.303,292.070 314.331,282.280 314.196 C 278.143 314.139,274.645 313.978,274.505 313.839 C 273.823 313.157,272.798 190.424,273.434 185.626 L 273.713 183.522 275.071 188.245 C 275.818 190.843,277.234 194.667,278.217 196.744 " stroke="none" fill="#3481fb" fill-rule="evenodd"></path><path id="path2" d="M273.434 185.626 C 272.798 190.424,273.823 313.157,274.505 313.839 C 274.645 313.978,278.143 314.139,282.280 314.196 C 292.070 314.331,291.707 314.303,291.339 314.900 C 291.170 315.175,291.542 315.066,292.166 314.658 C 293.094 314.051,293.362 314.014,293.636 314.458 C 294.021 315.082,295.573 315.218,296.282 314.690 C 296.548 314.493,296.976 314.461,297.234 314.621 C 297.706 314.913,310.203 315.097,336.500 315.200 C 344.365 315.230,350.800 315.393,350.800 315.561 C 350.800 315.729,351.062 315.867,351.382 315.867 C 351.703 315.867,351.872 315.717,351.759 315.533 C 351.645 315.350,352.204 315.200,353.000 315.200 C 353.863 315.200,354.347 315.361,354.200 315.600 C 354.064 315.820,354.334 316.000,354.800 316.000 C 355.266 316.000,355.536 315.820,355.400 315.600 C 355.264 315.380,355.523 315.200,355.976 315.200 C 356.429 315.200,356.803 315.425,356.806 315.700 C 356.810 316.033,356.942 316.000,357.200 315.600 C 357.413 315.270,357.591 315.197,357.594 315.438 C 357.597 315.682,358.310 315.877,359.200 315.877 C 360.090 315.877,360.803 315.682,360.806 315.438 C 360.809 315.197,360.987 315.270,361.200 315.600 C 361.545 316.133,361.589 316.133,361.600 315.600 C 361.611 315.067,361.655 315.067,362.000 315.600 C 362.345 316.133,362.389 316.133,362.400 315.600 C 362.408 315.215,362.518 315.156,362.706 315.435 C 362.868 315.674,363.630 315.870,364.400 315.870 C 365.170 315.870,365.932 315.674,366.094 315.435 C 366.282 315.156,366.392 315.215,366.400 315.600 C 366.411 316.133,366.455 316.133,366.800 315.600 C 367.013 315.270,367.191 315.197,367.194 315.438 C 367.197 315.682,367.910 315.877,368.800 315.877 C 369.690 315.877,370.403 315.682,370.406 315.438 C 370.409 315.197,370.587 315.270,370.800 315.600 C 371.145 316.133,371.189 316.133,371.200 315.600 C 371.211 315.067,371.255 315.067,371.600 315.600 C 371.945 316.133,371.989 316.133,372.000 315.600 C 372.011 315.067,372.055 315.067,372.400 315.600 C 372.613 315.930,372.791 316.043,372.794 315.851 C 372.797 315.659,373.070 315.726,373.400 316.000 C 373.881 316.399,374.134 316.389,374.677 315.949 C 375.259 315.476,375.311 315.483,375.047 316.000 C 374.879 316.330,375.024 316.251,375.370 315.824 C 375.828 315.259,376.002 315.204,376.006 315.624 C 376.011 316.110,376.073 316.106,376.400 315.600 C 376.658 315.200,376.790 315.167,376.794 315.500 C 376.797 315.775,377.137 316.000,377.549 316.000 C 378.199 316.000,378.330 315.569,378.547 312.700 C 378.882 308.271,379.368 183.336,379.049 183.634 C 378.911 183.763,378.271 185.743,377.626 188.034 C 363.026 239.933,289.972 240.083,275.071 188.245 L 273.713 183.522 273.434 185.626 " stroke="none" fill="#053fc8" fill-rule="evenodd"></path></g></svg>