<svg version="1.1" id="Layer_1" xmlns="http://www.w3.org/2000/svg" xmlns:xlink="http://www.w3.org/1999/xlink" x="0px" y="0px"
	 width="100%" viewBox="0 0 512 512" enable-background="new 0 0 512 512" xml:space="preserve">
<path fill="#E88321" opacity="1.000000" stroke="none" 
	d="
M496.000000,513.000000 
	C460.312439,513.000000 424.624878,513.000000 388.467773,512.531372 
	C387.966797,448.654907 387.935333,385.247131 387.952148,321.483612 
	C400.979858,293.322815 405.274200,264.128967 399.789124,234.041931 
	C397.311737,220.452698 391.981537,207.383560 387.962036,193.606140 
	C387.993805,129.459244 388.009125,65.784668 388.490417,2.075662 
	C416.965332,2.065205 444.974213,2.089175 472.987152,2.554115 
	C473.646301,13.772424 474.410950,24.544451 474.933746,35.328205 
	C476.020142,57.737457 476.978149,80.152931 477.989288,102.565842 
	C478.977905,124.479324 479.961273,146.393051 480.957489,168.306183 
	C481.961334,190.386444 482.978149,212.466125 483.989349,234.546051 
	C484.977661,256.126740 485.980042,277.706757 486.950500,299.288269 
	C487.980804,322.200317 489.044159,345.111115 489.974518,368.027283 
	C490.750061,387.129730 491.332855,406.239929 492.044586,425.345062 
	C492.329193,432.984711 492.733063,440.619873 493.078217,448.257294 
	C494.053375,469.838135 495.026245,491.419098 496.000000,513.000000 
z"/>
<path fill="#EE5824" opacity="1.000000" stroke="none" 
	d="
M66.000000,513.000000 
	C55.645771,513.000000 45.291546,513.000000 34.468658,512.531372 
	C33.664352,491.932953 33.347382,471.802856 32.957870,451.674164 
	C32.926441,450.049988 32.421452,448.430481 32.093639,446.817505 
	C31.411028,443.458832 30.106529,440.108612 30.091757,436.750366 
	C29.941532,402.604706 30.033131,368.458099 29.925739,334.312134 
	C29.918385,331.973785 29.006084,329.589539 28.249729,327.314697 
	C27.311197,324.491943 25.172169,321.770050 25.145136,318.989105 
	C24.899044,293.673248 25.059404,268.353790 24.949232,243.036026 
	C24.927603,238.065536 24.277723,233.095840 23.873077,228.129395 
	C23.269451,220.720764 22.246889,213.323746 22.082983,205.906754 
	C21.788652,192.587875 22.005627,179.257812 21.995344,165.932434 
	C21.993160,163.101685 22.324076,160.201569 21.836454,157.451340 
	C18.302385,137.518799 18.979008,117.405487 18.994604,97.316376 
	C18.996674,94.652382 19.435347,91.861618 18.808384,89.344635 
	C14.353702,71.461014 16.488449,53.269642 15.991817,35.204262 
	C15.932459,33.045101 16.294155,30.685434 15.556437,28.766300 
	C12.218400,20.082582 13.074373,11.073008 13.461355,2.084898 
	C30.948767,2.072691 47.968140,2.099181 64.990021,2.586444 
	C65.328354,173.031479 65.664177,343.015747 66.000000,513.000000 
z"/>
<path fill="#ED6123" opacity="1.000000" stroke="none" 
	d="
M66.468658,513.000000 
	C65.664177,343.015747 65.328354,173.031479 65.458832,2.549722 
	C73.956268,1.992857 81.987396,1.933486 90.262680,1.928757 
	C90.668770,2.023364 90.830711,2.063328 90.995255,2.544909 
	C91.330101,6.958775 91.878212,10.926677 91.958313,14.904003 
	C92.370346,35.364979 92.661453,55.828392 92.996185,76.290932 
	C93.328194,96.586937 93.664017,116.882881 93.994171,137.178925 
	C94.329750,157.807983 94.659027,178.437134 94.993744,199.066208 
	C95.325752,219.528778 95.659683,239.991318 95.995399,260.453827 
	C96.325653,280.583252 96.661324,300.712616 96.990692,320.842041 
	C97.328239,341.471130 97.658432,362.100311 97.996620,382.729401 
	C98.323883,402.692352 98.677010,422.654938 98.982780,442.618256 
	C99.342110,466.078522 99.662651,489.539398 100.000000,513.000000 
	C88.979103,513.000000 77.958214,513.000000 66.468658,513.000000 
z"/>
<path fill="#F29124" opacity="1.000000" stroke="none" 
	d="
M496.470459,513.000000 
	C495.026245,491.419098 494.053375,469.838135 493.078217,448.257294 
	C492.733063,440.619873 492.329193,432.984711 492.044586,425.345062 
	C491.332855,406.239929 490.750061,387.129730 489.974518,368.027283 
	C489.044159,345.111115 487.980804,322.200317 486.950500,299.288269 
	C485.980042,277.706757 484.977661,256.126740 483.989349,234.546051 
	C482.978149,212.466125 481.961334,190.386444 480.957489,168.306183 
	C479.961273,146.393051 478.977905,124.479324 477.989288,102.565842 
	C476.978149,80.152931 476.020142,57.737457 474.933746,35.328205 
	C474.410950,24.544451 473.646301,13.772424 473.456635,2.524392 
	C486.948029,2.035799 499.974030,2.017900 513.000000,2.000000 
	C513.000000,172.333344 513.000000,342.666687 513.000000,513.000000 
	C507.598663,513.000000 502.269806,513.000000 496.470459,513.000000 
z"/>
<path fill="#EE7026" opacity="1.000000" stroke="none" 
	d="
M100.468407,513.000000 
	C99.662651,489.539398 99.342110,466.078522 98.982780,442.618256 
	C98.677010,422.654938 98.323883,402.692352 97.996620,382.729401 
	C97.658432,362.100311 97.328239,341.471130 96.990692,320.842041 
	C96.661324,300.712616 96.325653,280.583252 95.995399,260.453827 
	C95.659683,239.991318 95.325752,219.528778 94.993744,199.066208 
	C94.659027,178.437134 94.329750,157.807983 93.994171,137.178925 
	C93.664017,116.882881 93.328194,96.586937 92.996185,76.290932 
	C92.661453,55.828392 92.370346,35.364979 91.958313,14.904003 
	C91.878212,10.926677 91.330101,6.958775 91.463425,2.510785 
	C101.293472,2.062928 110.657967,2.090812 120.017334,2.576862 
	C120.008095,70.120987 120.000061,137.206940 120.015350,204.292892 
	C120.015915,206.784470 120.243835,209.275986 120.325943,212.121063 
	C119.419418,215.461014 118.759216,218.528625 117.625694,221.410049 
	C116.576492,224.077103 118.009262,224.522797 119.990387,225.262787 
	C119.994850,227.106415 119.997826,228.524384 119.598175,230.026016 
	C117.791443,230.821838 115.289482,231.371658 115.156349,232.271805 
	C114.057449,239.702026 113.397644,247.197189 112.588196,254.829514 
	C115.739250,254.973328 117.871979,255.070663 120.003235,255.557312 
	C120.003349,257.502014 120.004936,259.057404 119.559319,260.696350 
	C117.181557,260.871307 115.250999,260.962738 112.654350,261.085663 
	C113.435104,269.390747 114.174530,277.256104 114.923950,285.227875 
	C116.924202,285.347015 118.236496,285.493011 119.548820,285.493317 
	C145.200104,285.499786 170.851425,285.468323 196.502655,285.498260 
	C202.320526,285.505066 208.138153,285.712921 213.964264,286.212585 
	C213.969986,288.122101 213.967316,289.647278 213.532196,291.294922 
	C181.191635,291.417328 149.283539,291.417328 116.943512,291.417328 
	C118.151466,295.948303 119.256592,300.093567 120.300011,304.752258 
	C120.158669,308.092621 120.010071,310.919586 120.009521,313.746552 
	C119.996674,380.164368 119.999802,446.582184 120.000000,513.000000 
	C113.645599,513.000000 107.291206,513.000000 100.468407,513.000000 
z"/>
<path fill="#EE5024" opacity="1.000000" stroke="none" 
	d="
M12.993318,2.123594 
	C13.074373,11.073008 12.218400,20.082582 15.556437,28.766300 
	C16.294155,30.685434 15.932459,33.045101 15.991817,35.204262 
	C16.488449,53.269642 14.353702,71.461014 18.808384,89.344635 
	C19.435347,91.861618 18.996674,94.652382 18.994604,97.316376 
	C18.979008,117.405487 18.302385,137.518799 21.836454,157.451340 
	C22.324076,160.201569 21.993160,163.101685 21.995344,165.932434 
	C22.005627,179.257812 21.788652,192.587875 22.082983,205.906754 
	C22.246889,213.323746 23.269451,220.720764 23.873077,228.129395 
	C24.277723,233.095840 24.927603,238.065536 24.949232,243.036026 
	C25.059404,268.353790 24.899044,293.673248 25.145136,318.989105 
	C25.172169,321.770050 27.311197,324.491943 28.249729,327.314697 
	C29.006084,329.589539 29.918385,331.973785 29.925739,334.312134 
	C30.033131,368.458099 29.941532,402.604706 30.091757,436.750366 
	C30.106529,440.108612 31.411028,443.458832 32.093639,446.817505 
	C32.421452,448.430481 32.926441,450.049988 32.957870,451.674164 
	C33.347382,471.802856 33.664352,491.932953 34.000000,512.531372 
	C23.008852,513.000000 12.017704,513.000000 1.000000,513.000000 
	C1.000000,342.979095 1.000000,172.958206 1.460586,2.464839 
	C5.611887,2.036107 9.302603,2.079851 12.993318,2.123594 
z"/>
<path fill="#EB6921" opacity="1.000000" stroke="none" 
	d="
M219.000000,513.000000 
	C192.645767,513.000000 166.291550,513.000000 139.468658,512.531372 
	C139.000000,487.929016 138.999924,463.795380 139.000015,439.661713 
	C139.000137,410.368439 138.944611,381.074860 139.107315,351.782471 
	C139.120209,349.459625 140.646423,347.145142 141.780060,345.083923 
	C144.006393,345.619659 145.920685,346.130371 147.837814,346.141327 
	C170.222672,346.269257 192.607941,346.321991 214.990738,346.803619 
	C214.496796,349.245514 214.005203,351.278351 213.077484,353.254089 
	C192.995865,353.073730 173.350418,352.945557 153.704849,352.837646 
	C152.296951,352.829895 150.888229,352.970337 149.479889,353.041901 
	C149.231140,353.480316 148.982391,353.918762 148.733643,354.357178 
	C155.976807,360.844391 162.956421,367.659119 170.520950,373.747009 
	C184.031433,384.620148 199.641312,391.636902 215.999756,397.546509 
	C216.331680,404.133392 216.783325,410.256592 216.967484,416.387817 
	C217.376114,429.993805 217.691620,443.603027 217.969803,457.212433 
	C218.349869,475.807526 218.659927,494.404083 219.000000,513.000000 
z"/>
<path fill="#F59126" opacity="1.000000" stroke="none" 
	d="
M387.903870,321.839355 
	C387.935333,385.247131 387.966797,448.654907 387.999146,512.531372 
	C374.645782,513.000000 361.291534,513.000000 347.469421,512.532715 
	C346.351776,494.302887 345.638641,476.542328 345.067932,458.777161 
	C344.320923,435.523865 343.717590,412.265930 342.975586,389.012451 
	C342.838196,384.706940 342.336456,380.413086 342.209961,375.828369 
	C345.223969,373.823273 345.752808,371.869598 343.333069,369.284241 
	C342.237976,368.114258 341.539734,366.572845 340.908875,364.846558 
	C341.438141,362.226135 341.988464,359.955414 341.957153,357.692719 
	C341.785980,345.315857 341.472015,332.940918 341.492889,320.761810 
	C349.535522,331.668304 357.292328,342.378326 365.294281,353.426788 
	C374.955292,344.046143 381.539520,333.022675 387.903870,321.839355 
z"/>
<path fill="#F07726" opacity="1.000000" stroke="none" 
	d="
M213.513626,353.311218 
	C214.005203,351.278351 214.496796,349.245514 215.445007,346.717987 
	C234.729935,344.513611 248.644501,352.334503 258.955597,367.838501 
	C264.944397,376.843323 271.805115,385.267059 277.826416,394.251892 
	C280.807404,398.700104 283.907135,401.477356 289.749420,400.081726 
	C290.729889,403.767700 291.377869,407.136505 292.178497,410.468628 
	C293.044678,414.073669 294.849121,417.638763 294.874817,421.231049 
	C295.093384,451.819427 294.999969,482.410065 295.000000,513.000000 
	C280.312439,513.000000 265.624878,513.000000 250.468658,512.531372 
	C250.000168,475.650543 250.000336,439.238403 250.370087,402.754272 
	C251.770950,402.604980 252.802216,402.527679 254.757767,402.381104 
	C244.959259,389.103699 235.968430,376.342651 226.293350,364.123413 
	C222.897781,359.834961 217.822113,356.876831 213.513626,353.311218 
z"/>
<path fill="#EF7F23" opacity="1.000000" stroke="none" 
	d="
M342.002869,376.113831 
	C342.336456,380.413086 342.838196,384.706940 342.975586,389.012451 
	C343.717590,412.265930 344.320923,435.523865 345.067932,458.777161 
	C345.638641,476.542328 346.351776,494.302887 347.000763,512.532715 
	C337.312439,513.000000 327.624878,513.000000 317.468658,512.531372 
	C316.999969,474.825531 317.023834,437.588318 316.956543,400.351288 
	C316.950897,397.225586 316.332916,394.100983 316.235901,390.710205 
	C317.425659,389.862396 318.378967,389.280243 319.435760,388.634918 
	C317.820129,386.017517 316.357391,383.647827 314.995209,380.852783 
	C315.397095,377.636047 315.899780,374.849213 315.963165,372.052429 
	C316.181183,362.430939 316.245575,352.805969 316.636292,343.418701 
	C323.925690,353.510040 330.900299,363.399231 338.026337,373.178070 
	C338.951843,374.448120 340.658173,375.149200 342.002869,376.113831 
z"/>
<path fill="#EB6120" opacity="1.000000" stroke="none" 
	d="
M141.469360,344.826782 
	C140.646423,347.145142 139.120209,349.459625 139.107315,351.782471 
	C138.944611,381.074860 139.000137,410.368439 139.000015,439.661713 
	C138.999924,463.795380 139.000000,487.929016 139.000000,512.531372 
	C132.978851,513.000000 126.957695,513.000000 120.468277,513.000000 
	C119.999802,446.582184 119.996674,380.164368 120.009521,313.746552 
	C120.010071,310.919586 120.158669,308.092621 120.532120,305.064697 
	C124.774910,315.657745 124.774971,315.654327 136.554642,315.858826 
	C137.370255,315.872955 138.184036,315.992310 138.998917,316.482239 
	C138.999023,318.580444 138.998871,320.259125 138.554657,322.024109 
	C134.926804,322.110413 131.743027,322.110413 127.121162,322.110413 
	C132.421204,330.501556 136.945282,337.664154 141.469360,344.826782 
z"/>
<path fill="#EE7527" opacity="1.000000" stroke="none" 
	d="
M250.000504,402.826263 
	C250.000336,439.238403 250.000168,475.650543 250.000000,512.531372 
	C239.979111,513.000000 229.958206,513.000000 219.468658,513.000000 
	C218.659927,494.404083 218.349869,475.807526 217.969803,457.212433 
	C217.691620,443.603027 217.376114,429.993805 216.967484,416.387817 
	C216.783325,410.256592 216.331680,404.133392 216.388184,397.536682 
	C227.850128,398.986664 238.925323,400.906464 250.000504,402.826263 
z"/>
<path fill="#EF7B24" opacity="1.000000" stroke="none" 
	d="
M315.999451,390.975891 
	C316.332916,394.100983 316.950897,397.225586 316.956543,400.351288 
	C317.023834,437.588318 316.999969,474.825531 317.000000,512.531372 
	C309.979034,513.000000 302.958099,513.000000 295.468567,513.000000 
	C294.999969,482.410065 295.093384,451.819427 294.874817,421.231049 
	C294.849121,417.638763 293.044678,414.073669 292.178497,410.468628 
	C291.377869,407.136505 290.729889,403.767700 289.702698,399.833801 
	C289.426239,398.918671 289.461792,398.584778 289.768524,397.903992 
	C290.359802,389.184998 290.585144,380.807739 291.045959,372.443420 
	C291.234070,369.028625 291.932373,365.641907 292.658417,362.483276 
	C298.935577,371.227570 304.860687,379.799286 311.061127,388.167084 
	C312.092438,389.558929 314.323029,390.062073 315.999451,390.975891 
z"/>
<path fill="#F2945A" opacity="1.000000" stroke="none" 
	d="
M120.022461,2.118696 
	C110.657967,2.090812 101.293472,2.062928 91.460815,2.069168 
	C90.830711,2.063328 90.668770,2.023364 90.257584,1.710583 
	C90.008331,1.437766 90.000000,1.000000 90.000000,1.000000 
	C164.354233,1.000000 238.708450,1.000000 313.537109,1.219108 
	C314.011566,1.438216 314.023560,1.876421 313.620911,1.914305 
	C312.142670,2.013275 311.067078,2.074361 309.524109,2.108327 
	C299.370331,2.093244 289.683929,2.105281 279.529724,2.091020 
	C255.030746,2.092040 230.999634,2.119359 206.504196,2.101707 
	C184.691635,2.072490 163.343384,2.088242 141.527771,2.072617 
	C134.047760,2.067058 127.035110,2.092877 120.022461,2.118696 
z"/>
<path fill="#F3A75A" opacity="1.000000" stroke="none" 
	d="
M314.023560,1.876421 
	C314.023560,1.876421 314.011566,1.438216 314.005798,1.219108 
	C380.333344,1.000000 446.666656,1.000000 513.000000,1.500000 
	C499.974030,2.017900 486.948029,2.035799 473.452576,2.083422 
	C444.974213,2.089175 416.965332,2.065205 388.019958,2.049775 
	C368.050446,2.074687 349.017395,2.091058 329.519714,2.073291 
	C324.044586,1.984909 319.034058,1.930665 314.023560,1.876421 
z"/>
<path fill="#F2835B" opacity="1.000000" stroke="none" 
	d="
M89.531342,1.000000 
	C90.000000,1.000000 90.008331,1.437766 90.013428,1.655941 
	C81.987396,1.933486 73.956268,1.992857 65.456322,2.088949 
	C47.968140,2.099181 30.948767,2.072691 13.461355,2.084898 
	C9.302603,2.079851 5.611887,2.036107 1.460586,1.996181 
	C2.325190,1.666667 3.649802,1.045103 4.975654,1.042450 
	C33.004581,0.986366 61.033646,1.000000 89.531342,1.000000 
z"/>
<path fill="#FFFEFE" opacity="1.000000" stroke="none" 
	d="
M387.952148,321.483612 
	C381.539520,333.022675 374.955292,344.046143 365.294281,353.426788 
	C357.292328,342.378326 349.535522,331.668304 341.399689,320.444763 
	C335.228333,311.844482 329.512421,303.701508 323.621063,295.687531 
	C318.234802,288.360596 312.658722,281.173248 307.029602,273.614014 
	C300.076569,267.947479 293.260193,262.591278 286.892242,257.587463 
	C289.910828,255.689026 294.051849,253.084656 298.509521,250.335297 
	C315.026367,236.558594 324.815887,217.916489 337.389832,201.043625 
	C346.843048,188.088654 356.004272,175.312515 365.327667,162.310165 
	C375.020233,171.988327 381.668396,182.901031 387.945618,194.078461 
	C391.981537,207.383560 397.311737,220.452698 399.789124,234.041931 
	C405.274200,264.128967 400.979858,293.322815 387.952148,321.483612 
z"/>
<path fill="#F49026" opacity="1.000000" stroke="none" 
	d="
M387.962036,193.606140 
	C381.668396,182.901031 375.020233,171.988327 365.327667,162.310165 
	C356.004272,175.312515 346.843048,188.088654 337.287720,200.622498 
	C336.602234,198.586975 336.115051,196.800720 336.051117,194.999435 
	C335.622437,182.924530 335.283875,170.846405 334.999237,158.444946 
	C338.532166,153.199982 341.981934,148.279419 345.642273,143.058456 
	C343.833191,141.570389 342.367584,140.364853 340.751862,139.035828 
	C339.202942,140.963608 337.881287,142.608536 336.268677,143.957825 
	C335.321838,141.141327 334.189087,138.639847 334.085663,136.096512 
	C333.289062,116.515739 332.631073,96.928665 332.048431,77.340019 
	C331.302551,52.264214 330.667267,27.185112 329.984314,2.107430 
	C349.017395,2.091058 368.050446,2.074687 387.553955,2.084202 
	C388.009125,65.784668 387.993805,129.459244 387.962036,193.606140 
z"/>
<path fill="#FFFEFD" opacity="1.000000" stroke="none" 
	d="
M342.209930,375.828369 
	C340.658173,375.149200 338.951843,374.448120 338.026337,373.178070 
	C330.900299,363.399231 323.925690,353.510040 316.520081,343.124329 
	C309.140747,332.959564 302.145416,323.325562 295.068054,313.365692 
	C286.033234,296.762695 272.141632,287.636932 253.787643,286.340515 
	C240.564301,285.406555 227.236893,285.946045 213.955902,285.828247 
	C208.138153,285.712921 202.320526,285.505066 196.502655,285.498260 
	C170.851425,285.468323 145.200104,285.499786 119.548820,285.493317 
	C118.236496,285.493011 116.924202,285.347015 114.923950,285.227875 
	C114.174530,277.256104 113.435104,269.390747 112.654350,261.085663 
	C115.250999,260.962738 117.181557,260.871307 120.019684,260.788208 
	C151.609421,260.735992 182.291595,260.675537 213.436401,260.703522 
	C222.695450,260.864288 231.515747,260.549286 240.283203,261.090546 
	C257.868713,262.176208 272.615540,268.581024 282.734863,284.026459 
	C289.708374,294.670319 297.523956,304.762451 305.056824,315.425720 
	C316.987488,332.233459 328.824493,348.716675 340.661469,365.199921 
	C341.539734,366.572845 342.237976,368.114258 343.333069,369.284241 
	C345.752808,371.869598 345.223969,373.823273 342.209930,375.828369 
z"/>
<path fill="#FFFDFB" opacity="1.000000" stroke="none" 
	d="
M336.559601,144.253448 
	C337.881287,142.608536 339.202942,140.963608 340.751862,139.035828 
	C342.367584,140.364853 343.833191,141.570389 345.642273,143.058456 
	C341.981934,148.279419 338.532166,153.199982 334.705841,158.624420 
	C321.475037,177.279037 308.620819,195.429779 295.489868,213.786896 
	C290.884674,220.093094 286.332916,226.048477 282.274292,232.322876 
	C273.900879,245.267792 261.719513,252.200729 246.856155,253.867477 
	C235.660080,255.122971 224.286057,254.791534 212.527313,255.099899 
	C181.377167,255.078201 150.690933,255.123093 120.004700,255.167984 
	C117.871979,255.070663 115.739250,254.973328 112.588196,254.829514 
	C113.397644,247.197189 114.057449,239.702026 115.156349,232.271805 
	C115.289482,231.371658 117.791443,230.821838 120.059227,230.116699 
	C151.282471,230.066208 181.642029,230.008667 212.462463,230.039917 
	C225.550125,230.090546 238.203323,230.547974 250.796265,229.875961 
	C263.611359,229.192108 276.261169,226.269333 284.984985,216.024719 
	C292.707916,206.955460 299.072052,196.729065 306.321655,186.835571 
	C316.591370,172.522919 326.575500,158.388184 336.559601,144.253448 
z"/>
<path fill="#EB6320" opacity="1.000000" stroke="none" 
	d="
M120.017334,2.576862 
	C127.035110,2.092877 134.047760,2.067058 141.528961,2.531528 
	C141.998428,55.863724 141.979813,108.705658 142.059967,161.547440 
	C142.063828,164.098251 142.937088,166.647766 143.182755,169.458252 
	C137.808731,177.225723 132.657440,184.732819 126.856621,193.186478 
	C132.795105,193.462463 136.899582,193.653229 141.003281,194.272339 
	C141.000656,196.410431 140.998810,198.120163 140.534027,199.898254 
	C130.422241,198.756531 121.774391,199.217926 120.365814,211.767532 
	C120.243835,209.275986 120.015915,206.784470 120.015350,204.292892 
	C120.000061,137.206940 120.008095,70.120987 120.017334,2.576862 
z"/>
<path fill="#FFFCFB" opacity="1.000000" stroke="none" 
	d="
M316.235901,390.710205 
	C314.323029,390.062073 312.092438,389.558929 311.061127,388.167084 
	C304.860687,379.799286 298.935577,371.227570 292.514893,362.197479 
	C285.375702,352.222565 278.665680,342.755737 271.896881,333.331177 
	C264.970367,323.686981 255.912674,317.358826 243.796967,316.691132 
	C233.884048,316.144806 223.935486,316.245758 213.540985,315.972473 
	C188.385727,315.944397 163.692200,316.003540 138.998672,316.062714 
	C138.184036,315.992310 137.370255,315.872955 136.554642,315.858826 
	C124.774971,315.654327 124.774910,315.657745 120.593826,304.551270 
	C119.256592,300.093567 118.151466,295.948303 116.943512,291.417328 
	C149.283539,291.417328 181.191635,291.417328 213.935669,291.413513 
	C219.094376,291.336853 223.419617,291.333374 227.739426,291.177917 
	C239.510895,290.754364 249.750549,294.330078 257.812561,303.063843 
	C261.184784,306.717072 264.117859,310.795380 267.069336,314.813599 
	C275.723450,326.595551 284.286560,338.444397 292.977417,350.587646 
	C300.344574,361.031586 307.619598,371.154877 314.894653,381.278137 
	C316.357391,383.647827 317.820129,386.017517 319.435760,388.634918 
	C318.378967,389.280243 317.425659,389.862396 316.235901,390.710205 
z"/>
<path fill="#FFFDFD" opacity="1.000000" stroke="none" 
	d="
M120.325943,212.121063 
	C121.774391,199.217926 130.422241,198.756531 140.998230,199.968689 
	C164.947647,199.927841 187.969925,199.884903 211.456604,199.911133 
	C220.539322,199.932678 229.160370,200.005463 237.775391,199.810989 
	C253.062515,199.465881 265.354553,193.568985 273.670319,179.831314 
	C286.769409,161.443481 299.589020,143.294128 312.683533,124.992966 
	C315.122833,125.432663 317.287201,126.024170 319.865265,126.728729 
	C313.786407,135.563766 308.291321,143.550354 302.514832,151.742249 
	C288.963531,170.426666 275.745972,188.943680 262.404663,207.371094 
	C254.051331,218.908951 242.933121,225.068726 228.370819,224.529602 
	C222.913361,224.327545 217.434402,224.705673 211.510574,224.705627 
	C186.661957,224.564941 162.268005,224.515854 137.874084,224.526718 
	C131.912308,224.529373 125.950623,224.728409 119.988892,224.837158 
	C118.009262,224.522797 116.576492,224.077103 117.625694,221.410049 
	C118.759216,218.528625 119.419418,215.461014 120.325943,212.121063 
z"/>
<path fill="#F07827" opacity="1.000000" stroke="none" 
	d="
M292.885315,350.267029 
	C284.286560,338.444397 275.723450,326.595551 267.069336,314.813599 
	C264.117859,310.795380 261.184784,306.717072 257.812561,303.063843 
	C249.750549,294.330078 239.510895,290.754364 227.739426,291.177917 
	C223.419617,291.333374 219.094376,291.336853 214.368134,291.291077 
	C213.967316,289.647278 213.969986,288.122101 213.964264,286.212585 
	C227.236893,285.946045 240.564301,285.406555 253.787643,286.340515 
	C272.141632,287.636932 286.033234,296.762695 294.902557,313.771484 
	C294.546082,322.200348 294.347260,329.901184 293.970581,337.593353 
	C293.763367,341.825470 293.256866,346.042938 292.885315,350.267029 
z"/>
<path fill="#EB6820" opacity="1.000000" stroke="none" 
	d="
M120.003235,255.557312 
	C150.690933,255.123093 181.377167,255.078201 212.530533,255.489471 
	C212.989700,257.502106 212.981735,259.058563 212.973770,260.615051 
	C182.291595,260.675537 151.609421,260.735992 120.466873,260.704651 
	C120.004936,259.057404 120.003349,257.502014 120.003235,255.557312 
z"/>
<path fill="#EB6820" opacity="1.000000" stroke="none" 
	d="
M119.990387,225.262802 
	C125.950623,224.728409 131.912308,224.529373 137.874084,224.526718 
	C162.268005,224.515854 186.661957,224.564941 211.520630,225.133362 
	C211.990753,227.100204 211.996155,228.525665 212.001572,229.951126 
	C181.642029,230.008667 151.282471,230.066208 120.461868,230.033051 
	C119.997826,228.524384 119.994850,227.106415 119.990387,225.262802 
z"/>
<path fill="#FFFDFB" opacity="1.000000" stroke="none" 
	d="
M289.497314,398.250916 
	C289.461792,398.584778 289.426239,398.918671 289.437439,399.500488 
	C283.907135,401.477356 280.807404,398.700104 277.826416,394.251892 
	C271.805115,385.267059 264.944397,376.843323 258.955597,367.838501 
	C248.644501,352.334503 234.729935,344.513611 215.447388,346.308960 
	C192.607941,346.321991 170.222672,346.269257 147.837814,346.141327 
	C145.920685,346.130371 144.006393,345.619659 141.780075,345.083923 
	C136.945282,337.664154 132.421204,330.501556 127.121162,322.110413 
	C131.743027,322.110413 134.926804,322.110413 139.015900,322.113831 
	C164.615295,322.058838 189.309387,322.000458 214.442627,322.028076 
	C229.453964,321.488190 239.582321,328.609009 247.675842,340.116333 
	C261.408203,359.640930 275.535828,378.887512 289.497314,398.250916 
z"/>
<path fill="#FFFEFD" opacity="1.000000" stroke="none" 
	d="
M250.370087,402.754272 
	C238.925323,400.906464 227.850128,398.986664 216.386536,397.076660 
	C199.641312,391.636902 184.031433,384.620148 170.520950,373.747009 
	C162.956421,367.659119 155.976807,360.844391 148.733643,354.357178 
	C148.982391,353.918762 149.231140,353.480316 149.479889,353.041901 
	C150.888229,352.970337 152.296951,352.829895 153.704849,352.837646 
	C173.350418,352.945557 192.995865,353.073730 213.077484,353.254089 
	C217.822113,356.876831 222.897781,359.834961 226.293350,364.123413 
	C235.968430,376.342651 244.959259,389.103699 254.757767,402.381104 
	C252.802216,402.527679 251.770950,402.604980 250.370087,402.754272 
z"/>
<path fill="#EF7E25" opacity="1.000000" stroke="none" 
	d="
M340.908875,364.846558 
	C328.824493,348.716675 316.987488,332.233459 305.064148,314.950562 
	C304.985840,303.562012 304.845459,292.969513 305.100769,282.386566 
	C305.169220,279.550873 306.444794,276.744293 307.166260,273.924377 
	C312.658722,281.173248 318.234802,288.360596 323.621063,295.687531 
	C329.512421,303.701508 335.228333,311.844482 341.113892,320.248291 
	C341.472015,332.940918 341.785980,345.315857 341.957153,357.692719 
	C341.988464,359.955414 341.438141,362.226135 340.908875,364.846558 
z"/>
<path fill="#EF7C26" opacity="1.000000" stroke="none" 
	d="
M292.977417,350.587646 
	C293.256866,346.042938 293.763367,341.825470 293.970581,337.593353 
	C294.347260,329.901184 294.546082,322.200348 294.984619,314.097351 
	C302.145416,323.325562 309.140747,332.959564 316.252258,342.887939 
	C316.245575,352.805969 316.181183,362.430939 315.963165,372.052429 
	C315.899780,374.849213 315.397095,377.636047 314.995209,380.852783 
	C307.619598,371.154877 300.344574,361.031586 292.977417,350.587646 
z"/>
<path fill="#EB6920" opacity="1.000000" stroke="none" 
	d="
M214.003479,321.942078 
	C189.309387,322.000458 164.615295,322.058838 139.459961,322.027527 
	C138.998871,320.259125 138.999023,318.580444 138.998917,316.482239 
	C163.692200,316.003540 188.385727,315.944397 213.541565,316.392517 
	C214.003754,318.580536 214.003616,320.261322 214.003479,321.942078 
z"/>
<path fill="#F07726" opacity="1.000000" stroke="none" 
	d="
M214.442627,322.028107 
	C214.003616,320.261322 214.003754,318.580536 214.003296,316.479736 
	C223.935486,316.245758 233.884048,316.144806 243.796967,316.691132 
	C255.912674,317.358826 264.970367,323.686981 271.896881,333.331177 
	C278.665680,342.755737 285.375702,352.222565 292.255035,361.956635 
	C291.932373,365.641907 291.234070,369.028625 291.045959,372.443420 
	C290.585144,380.807739 290.359802,389.184998 289.768494,397.903992 
	C275.535828,378.887512 261.408203,359.640930 247.675842,340.116333 
	C239.582321,328.609009 229.453964,321.488190 214.442627,322.028107 
z"/>
<path fill="#EF7627" opacity="1.000000" stroke="none" 
	d="
M206.968536,2.146677 
	C230.999634,2.119359 255.030746,2.092040 279.530396,2.548258 
	C279.999359,37.952183 279.969086,72.872650 280.055908,107.792824 
	C280.063171,110.723099 280.857513,113.651428 281.165649,116.882050 
	C272.384705,129.198700 263.864319,141.319016 254.978348,153.165070 
	C252.323456,156.704346 248.881393,159.773010 245.392609,162.544510 
	C234.831314,170.934448 222.358185,169.845215 210.019730,168.740753 
	C210.010880,166.594345 210.003952,164.878052 210.363678,163.074951 
	C215.366241,159.956253 221.113983,157.824081 224.431076,153.724960 
	C234.659454,141.085144 243.963821,127.697296 253.593475,114.575333 
	C253.807846,114.283218 253.620422,113.696243 253.620422,113.161911 
	C238.195374,113.207275 223.510117,116.559769 209.003296,120.470337 
	C208.674194,105.092728 208.275894,90.180817 208.028168,75.266418 
	C207.623337,50.894028 207.316635,26.520008 206.968536,2.146677 
z"/>
<path fill="#EB6A21" opacity="1.000000" stroke="none" 
	d="
M206.504211,2.101707 
	C207.316635,26.520008 207.623337,50.894028 208.028168,75.266418 
	C208.275894,90.180817 208.674194,105.092728 208.699921,120.670578 
	C185.173279,129.997269 165.184937,143.278351 148.076141,163.393753 
	C164.281998,163.393753 179.140335,163.393753 193.999908,163.803833 
	C194.000137,165.861572 193.999115,167.509201 193.543457,169.280350 
	C176.527710,169.335205 159.966599,169.266541 143.405487,169.197876 
	C142.937088,166.647766 142.063828,164.098251 142.059967,161.547440 
	C141.979813,108.705658 141.998428,55.863724 141.996323,2.562906 
	C163.343384,2.088242 184.691635,2.072490 206.504211,2.101707 
z"/>
<path fill="#F07A24" opacity="1.000000" stroke="none" 
	d="
M281.286163,116.580673 
	C280.857513,113.651428 280.063171,110.723099 280.055908,107.792824 
	C279.969086,72.872650 279.999359,37.952183 279.998230,2.574557 
	C289.683929,2.105281 299.370331,2.093244 309.526398,2.563802 
	C309.997528,41.421635 309.957092,79.797035 310.103455,118.171715 
	C310.112335,120.498962 311.605896,122.820557 312.408661,125.144775 
	C299.589020,143.294128 286.769409,161.443481 273.603821,179.294312 
	C273.170410,170.411804 273.262177,161.820328 272.902710,153.247742 
	C272.768799,150.052902 271.580536,146.902252 270.958618,143.406784 
	C277.217621,134.374435 283.391052,125.666748 289.564484,116.959061 
	C289.297577,116.531616 289.030670,116.104164 288.763763,115.676720 
	C286.271240,115.978035 283.778687,116.279350 281.286163,116.580673 
z"/>
<path fill="#EF7E24" opacity="1.000000" stroke="none" 
	d="
M312.683533,124.992966 
	C311.605896,122.820557 310.112335,120.498962 310.103455,118.171715 
	C309.957092,79.797035 309.997528,41.421635 309.993774,2.590923 
	C311.067078,2.074361 312.142670,2.013275 313.620911,1.914305 
	C319.034058,1.930665 324.044586,1.984909 329.519714,2.073291 
	C330.667267,27.185112 331.302551,52.264214 332.048431,77.340019 
	C332.631073,96.928665 333.289062,116.515739 334.085663,136.096512 
	C334.189087,138.639847 335.321838,141.141327 336.268677,143.957825 
	C326.575500,158.388184 316.591370,172.522919 305.989258,186.638443 
	C304.913361,182.793961 304.286194,178.979843 304.032990,175.141068 
	C303.514496,167.280029 303.196686,159.405746 302.796234,151.536926 
	C308.291321,143.550354 313.786407,135.563766 319.865265,126.728729 
	C317.287201,126.024170 315.122833,125.432663 312.683533,124.992966 
z"/>
<path fill="#F07A29" opacity="1.000000" stroke="none" 
	d="
M307.029602,273.614014 
	C306.444794,276.744293 305.169220,279.550873 305.100769,282.386566 
	C304.845459,292.969513 304.985840,303.562012 304.970490,314.626038 
	C297.523956,304.762451 289.708374,294.670319 282.734863,284.026459 
	C272.615540,268.581024 257.868713,262.176208 240.283203,261.090546 
	C231.515747,260.549286 222.695450,260.864288 213.436401,260.703522 
	C212.981735,259.058563 212.989700,257.502106 212.994446,255.556061 
	C224.286057,254.791534 235.660080,255.122971 246.856155,253.867477 
	C261.719513,252.200729 273.900879,245.267792 282.274292,232.322876 
	C286.332916,226.048477 290.884674,220.093094 295.664886,214.198120 
	C296.410736,222.168396 296.625671,229.937958 297.030365,237.697617 
	C297.253052,241.967102 297.794952,246.219940 298.192902,250.480286 
	C294.051849,253.084656 289.910828,255.689026 286.892242,257.587463 
	C293.260193,262.591278 300.076569,267.947479 307.029602,273.614014 
z"/>
<path fill="#EF7E25" opacity="1.000000" stroke="none" 
	d="
M298.509521,250.335297 
	C297.794952,246.219940 297.253052,241.967102 297.030365,237.697617 
	C296.625671,229.937958 296.410736,222.168396 295.941589,213.991760 
	C308.620819,195.429779 321.475037,177.279037 334.622681,158.948807 
	C335.283875,170.846405 335.622437,182.924530 336.051117,194.999435 
	C336.115051,196.800720 336.602234,198.586975 336.995758,200.801300 
	C324.815887,217.916489 315.026367,236.558594 298.509521,250.335297 
z"/>
<path fill="#F07C2B" opacity="1.000000" stroke="none" 
	d="
M302.514832,151.742233 
	C303.196686,159.405746 303.514496,167.280029 304.032990,175.141068 
	C304.286194,178.979843 304.913361,182.793961 305.703644,186.816376 
	C299.072052,196.729065 292.707916,206.955460 284.984985,216.024719 
	C276.261169,226.269333 263.611359,229.192108 250.796265,229.875961 
	C238.203323,230.547974 225.550125,230.090546 212.462463,230.039917 
	C211.996155,228.525665 211.990753,227.100204 211.975311,225.247009 
	C217.434402,224.705673 222.913361,224.327545 228.370819,224.529602 
	C242.933121,225.068726 254.051331,218.908951 262.404663,207.371094 
	C275.745972,188.943680 288.963531,170.426666 302.514832,151.742233 
z"/>
<path fill="#FFFDFC" opacity="1.000000" stroke="none" 
	d="
M281.165649,116.882050 
	C283.778687,116.279350 286.271240,115.978035 288.763763,115.676720 
	C289.030670,116.104164 289.297577,116.531616 289.564484,116.959061 
	C283.391052,125.666748 277.217621,134.374435 270.667297,143.586731 
	C263.583801,153.364548 256.377838,162.322998 250.287689,171.984772 
	C241.152435,186.477478 229.294342,195.220322 211.435547,193.670898 
	C211.283356,193.657684 211.120651,193.765686 210.507996,193.704926 
	C202.267044,193.568619 194.480743,193.494370 186.694931,193.530975 
	C171.464493,193.602600 156.234329,193.736099 141.004059,193.843994 
	C136.899582,193.653229 132.795105,193.462463 126.856621,193.186478 
	C132.657440,184.732819 137.808731,177.225723 143.182755,169.458252 
	C159.966599,169.266541 176.527710,169.335205 193.997238,169.400726 
	C199.944321,169.322021 204.983002,169.246445 210.021667,169.170868 
	C222.358185,169.845215 234.831314,170.934448 245.392609,162.544510 
	C248.881393,159.773010 252.323456,156.704346 254.978348,153.165070 
	C263.864319,141.319016 272.384705,129.198700 281.165649,116.882050 
z"/>
<path fill="#EB6920" opacity="1.000000" stroke="none" 
	d="
M141.003281,194.272339 
	C156.234329,193.736099 171.464493,193.602600 186.694931,193.530975 
	C194.480743,193.494370 202.267044,193.568619 210.518646,194.135956 
	C210.986847,196.400101 210.989532,198.121033 210.992218,199.841980 
	C187.969925,199.884903 164.947647,199.927841 141.461151,199.900330 
	C140.998810,198.120163 141.000656,196.410431 141.003281,194.272339 
z"/>
<path fill="#F07A2B" opacity="1.000000" stroke="none" 
	d="
M211.456604,199.911133 
	C210.989532,198.121033 210.986847,196.400101 210.973511,194.248108 
	C211.120651,193.765686 211.283356,193.657684 211.435547,193.670898 
	C229.294342,195.220322 241.152435,186.477478 250.287689,171.984772 
	C256.377838,162.322998 263.583801,153.364548 270.581726,143.911377 
	C271.580536,146.902252 272.768799,150.052902 272.902710,153.247742 
	C273.262177,161.820328 273.170410,170.411804 273.324371,179.532791 
	C265.354553,193.568985 253.062515,199.465881 237.775391,199.810989 
	C229.160370,200.005463 220.539322,199.932678 211.456604,199.911133 
z"/>
<path fill="#FFFEFD" opacity="1.000000" stroke="none" 
	d="
M193.998657,163.393753 
	C179.140335,163.393753 164.281998,163.393753 148.076141,163.393753 
	C165.184937,143.278351 185.173279,129.997269 208.698318,121.135162 
	C223.510117,116.559769 238.195374,113.207275 253.620422,113.161911 
	C253.620422,113.696243 253.807846,114.283218 253.593475,114.575333 
	C243.963821,127.697296 234.659454,141.085144 224.431076,153.724960 
	C221.113983,157.824081 215.366241,159.956253 209.897446,163.042664 
	C204.042618,163.196045 199.020630,163.294891 193.998657,163.393753 
z"/>
<path fill="#EB6720" opacity="1.000000" stroke="none" 
	d="
M193.999908,163.803833 
	C199.020630,163.294891 204.042618,163.196045 209.530823,163.129486 
	C210.003952,164.878052 210.010880,166.594345 210.019730,168.740753 
	C204.983002,169.246445 199.944321,169.322021 194.451874,169.277222 
	C193.999115,167.509201 194.000137,165.861572 193.999908,163.803833 
z"/>
</svg>