<svg version="1.1" id="Layer_1" xmlns="http://www.w3.org/2000/svg" xmlns:xlink="http://www.w3.org/1999/xlink" x="0px" y="0px"
	 width="100%" viewBox="0 0 200 200" enable-background="new 0 0 200 200" xml:space="preserve">
<path fill="#43A5F5" opacity="1.000000" stroke="none" 
	d="
M137.000000,201.000000 
	C91.333336,201.000000 46.166672,201.000000 1.000006,201.000000 
	C1.000004,134.333344 1.000004,67.666679 1.000002,1.000015 
	C67.666656,1.000010 134.333313,1.000010 200.999969,1.000005 
	C200.999985,67.666649 200.999985,134.333298 201.000000,200.999969 
	C179.833328,201.000000 158.666672,201.000000 137.000000,201.000000 
M91.152786,73.804626 
	C89.716568,95.497154 81.411346,113.885033 64.242264,127.927856 
	C65.627350,129.248276 66.603317,129.931183 67.257607,130.844528 
	C70.368561,135.187286 73.142662,134.631683 76.174026,130.649063 
	C80.186897,125.376923 84.553276,120.373230 88.547035,115.087425 
	C90.610100,112.356918 92.196388,109.266182 94.365005,105.741913 
	C98.746994,110.348923 102.713730,114.519356 107.036125,119.063705 
	C109.454918,116.931343 111.858154,114.812706 115.390427,111.698723 
	C110.261154,107.026573 105.649605,102.750999 100.949013,98.575653 
	C98.562042,96.455399 97.413185,94.510376 98.494232,90.895180 
	C100.035469,85.741020 100.436295,80.245842 101.390953,74.494438 
	C97.448219,73.943321 94.190063,73.487900 90.779099,72.308647 
	C94.790733,69.127808 98.987770,66.150673 102.765274,62.712601 
	C107.114014,58.754604 111.091942,54.389194 115.384270,50.045540 
	C116.981529,51.733299 118.235489,53.048775 119.479126,54.373940 
	C129.604568,65.163078 141.884735,73.000153 154.811600,79.886307 
	C156.231918,80.642906 158.907120,80.845810 160.011597,80.005699 
	C162.096451,78.419868 163.461700,75.888008 165.078079,73.810959 
	C158.178345,69.826920 151.659668,66.506950 145.631241,62.457180 
	C139.593307,58.401024 133.823715,53.868286 128.353241,49.069397 
	C124.108597,45.345856 118.840752,41.521568 123.508820,34.033260 
	C119.943977,33.038300 117.002098,32.217213 113.789551,31.320580 
	C104.569359,52.439190 86.537422,63.479473 67.269081,73.006355 
	C72.414139,81.676254 73.693680,81.982964 81.631126,77.464172 
	C84.644043,75.748909 87.886185,74.436287 91.152786,73.804626 
M41.235825,86.576866 
	C41.235825,110.292816 41.235825,134.008774 41.235825,157.722870 
	C58.400856,157.722870 74.649506,157.722870 91.039665,157.722870 
	C91.039665,154.695786 91.039665,151.965424 91.039665,148.851807 
	C79.367470,148.851807 68.057861,148.674622 56.758881,148.943680 
	C52.553986,149.043823 51.390118,147.675919 51.427826,143.572388 
	C51.609890,123.758484 51.509193,103.941978 51.508785,84.126389 
	C51.508743,82.182114 51.508778,80.237846 51.508778,78.240273 
	C47.750023,78.240273 44.713963,78.240273 41.236004,78.240273 
	C41.236004,80.999550 41.236004,83.302841 41.235825,86.576866 
M145.357224,121.155113 
	C147.636810,123.570183 149.769135,126.147682 152.222168,128.371414 
	C161.431290,136.719681 158.979202,135.126709 166.484726,128.407715 
	C166.678741,128.234039 166.642258,127.802856 166.705276,127.489639 
	C150.072693,113.654236 135.814529,98.545700 138.597855,74.192894 
	C135.416428,73.796722 132.519470,73.435966 129.006882,72.998550 
	C128.092728,95.407509 122.068970,115.025192 101.583939,127.519279 
	C104.445251,130.182892 106.689980,132.272537 109.083855,134.501007 
	C119.907150,126.667175 128.100784,117.152908 133.987762,105.094925 
	C137.890366,110.624695 141.405304,115.605148 145.357224,121.155113 
z"/>
<path fill="#F9FCFF" opacity="1.000000" stroke="none" 
	d="
M91.023849,72.940147 
	C87.886185,74.436287 84.644043,75.748909 81.631126,77.464172 
	C73.693680,81.982964 72.414139,81.676254 67.269081,73.006355 
	C86.537422,63.479473 104.569359,52.439190 113.789551,31.320580 
	C117.002098,32.217213 119.943977,33.038300 123.508820,34.033260 
	C118.840752,41.521568 124.108597,45.345856 128.353241,49.069397 
	C133.823715,53.868286 139.593307,58.401024 145.631241,62.457180 
	C151.659668,66.506950 158.178345,69.826920 165.078079,73.810959 
	C163.461700,75.888008 162.096451,78.419868 160.011597,80.005699 
	C158.907120,80.845810 156.231918,80.642906 154.811600,79.886307 
	C141.884735,73.000153 129.604568,65.163078 119.479126,54.373940 
	C118.235489,53.048775 116.981529,51.733299 115.384270,50.045540 
	C111.091942,54.389194 107.114014,58.754604 102.765274,62.712601 
	C98.987770,66.150673 94.790733,69.127808 90.880646,72.649620 
	C90.982185,72.990593 91.023849,72.940147 91.023849,72.940147 
z"/>
<path fill="#FAFDFF" opacity="1.000000" stroke="none" 
	d="
M41.235916,86.091507 
	C41.236004,83.302841 41.236004,80.999550 41.236004,78.240273 
	C44.713963,78.240273 47.750023,78.240273 51.508778,78.240273 
	C51.508778,80.237846 51.508743,82.182114 51.508785,84.126389 
	C51.509193,103.941978 51.609890,123.758484 51.427826,143.572388 
	C51.390118,147.675919 52.553986,149.043823 56.758881,148.943680 
	C68.057861,148.674622 79.367470,148.851807 91.039665,148.851807 
	C91.039665,151.965424 91.039665,154.695786 91.039665,157.722870 
	C74.649506,157.722870 58.400856,157.722870 41.235825,157.722870 
	C41.235825,134.008774 41.235825,110.292816 41.235916,86.091507 
z"/>
<path fill="#F9FCFF" opacity="1.000000" stroke="none" 
	d="
M145.138733,120.870361 
	C141.405304,115.605148 137.890366,110.624695 133.987762,105.094925 
	C128.100784,117.152908 119.907150,126.667175 109.083855,134.501007 
	C106.689980,132.272537 104.445251,130.182892 101.583939,127.519279 
	C122.068970,115.025192 128.092728,95.407509 129.006882,72.998550 
	C132.519470,73.435966 135.416428,73.796722 138.597855,74.192894 
	C135.814529,98.545700 150.072693,113.654236 166.709290,127.490707 
	C166.642258,127.802856 166.678741,128.234039 166.484726,128.407715 
	C158.979202,135.126709 161.431290,136.719681 152.222168,128.371414 
	C149.769135,126.147682 147.636810,123.570183 145.138733,120.870361 
z"/>
<path fill="#F9FCFF" opacity="1.000000" stroke="none" 
	d="
M90.957047,73.011536 
	C94.190063,73.487900 97.448219,73.943321 101.390953,74.494438 
	C100.436295,80.245842 100.035469,85.741020 98.494232,90.895180 
	C97.413185,94.510376 98.562042,96.455399 100.949013,98.575653 
	C105.649605,102.750999 110.261154,107.026573 115.390427,111.698723 
	C111.858154,114.812706 109.454918,116.931343 107.036125,119.063705 
	C102.713730,114.519356 98.746994,110.348923 94.365005,105.741913 
	C92.196388,109.266182 90.610100,112.356918 88.547035,115.087425 
	C84.553276,120.373230 80.186897,125.376923 76.174026,130.649063 
	C73.142662,134.631683 70.368561,135.187286 67.257607,130.844528 
	C66.603317,129.931183 65.627350,129.248276 64.242264,127.927856 
	C81.411346,113.885033 89.716568,95.497154 91.088318,73.372391 
	C91.023849,72.940147 90.982185,72.990593 90.957047,73.011536 
z"/>
</svg>