<svg version="1.1" id="Layer_1" xmlns="http://www.w3.org/2000/svg" xmlns:xlink="http://www.w3.org/1999/xlink" x="0px" y="0px"
	 width="100%" viewBox="0 0 139 106" enable-background="new 0 0 139 106" xml:space="preserve">
<path fill="#000000" opacity="1.000000" stroke="none" 
	d="
M71.000000,107.000000 
	C67.638710,107.000000 64.277428,107.000000 60.144455,106.739197 
	C60.832409,104.522827 62.292046,102.567268 64.213364,99.993172 
	C59.203934,101.904694 55.265079,104.446609 51.191280,104.685272 
	C46.641930,104.951797 43.677158,99.267166 44.754089,93.983810 
	C48.008759,93.983810 51.325623,93.983818 54.642487,93.983818 
	C57.959846,93.983818 61.277206,93.983810 64.725639,93.983810 
	C64.441582,92.173195 64.315613,90.720177 63.976929,89.318542 
	C61.994968,81.116203 52.849560,77.000023 46.269787,81.315155 
	C39.334038,85.863739 38.955059,99.705788 45.578526,104.856163 
	C46.220097,105.355049 46.533997,106.275330 47.000000,107.000000 
	C43.307091,107.000000 39.614182,107.000000 35.272263,106.561302 
	C34.623249,94.517937 34.623249,82.913277 34.623249,70.495094 
	C26.994850,72.927467 27.918406,80.094749 25.594177,85.010254 
	C23.018318,90.457939 21.067333,96.201103 18.506248,102.669220 
	C14.204067,92.434479 10.104214,83.265038 6.559868,73.885666 
	C5.525644,71.148804 4.291512,70.699165 1.708455,71.091522 
	C1.478843,71.022751 1.000000,71.000000 1.000000,71.000000 
	C1.000000,47.762474 1.000000,24.524946 1.000000,1.000000 
	C13.019368,1.000000 25.041025,1.000000 37.873970,1.217617 
	C38.446404,1.917874 38.207554,2.400513 37.714226,2.964902 
	C37.346073,3.354323 37.232399,3.661995 37.051590,4.436007 
	C37.026093,13.942304 37.067726,22.982258 37.094086,32.293682 
	C37.375980,32.750961 37.673153,32.936775 38.126244,33.434738 
	C42.939507,36.348007 42.958706,32.597656 42.921486,29.976353 
	C42.784306,20.315155 42.333099,10.658416 42.000000,1.000000 
	C59.354229,1.000000 76.708458,1.000000 94.669731,1.452561 
	C95.191002,11.847264 95.032318,21.790131 95.130791,31.730450 
	C95.140770,32.738178 96.700073,33.730556 97.540390,34.730061 
	C98.354179,33.858685 99.885612,32.976341 99.872482,32.117607 
	C99.713905,21.743050 99.327248,11.371979 99.000000,1.000000 
	C112.616653,1.000000 126.233307,1.000000 140.000000,1.000000 
	C140.000000,27.020720 140.000000,53.041702 139.761581,79.552444 
	C139.523163,80.042206 139.063126,80.174553 138.805389,80.146797 
	C138.347870,80.385277 138.148071,80.651520 137.587219,81.161133 
	C137.150787,89.936348 137.075394,98.468170 137.000000,107.000000 
	C135.611115,107.000000 134.222214,107.000000 132.071228,106.840698 
	C130.579971,105.335159 130.122910,103.706490 129.072067,102.694168 
	C125.527573,99.279640 121.772141,96.084053 117.793335,92.533424 
	C122.870674,88.267761 126.784798,84.979362 130.698929,81.690956 
	C130.315567,81.172440 129.932205,80.653923 129.548843,80.135406 
	C125.194817,83.267014 120.840782,86.398621 115.999237,89.880875 
	C115.999237,83.995720 116.107780,79.012688 115.906517,74.042206 
	C115.866859,73.062683 114.632866,72.131523 113.566864,71.357048 
	C113.173798,82.685646 113.163551,93.835251 113.084785,105.316116 
	C113.010841,106.098251 113.005424,106.549126 113.000000,107.000000 
	C110.958336,107.000000 108.916664,107.000000 106.425659,106.585312 
	C105.984703,100.279839 106.199181,94.379974 105.940445,88.500938 
	C105.706345,83.182022 102.875572,80.388435 98.390602,79.989548 
	C91.032272,79.335106 87.143372,81.562164 86.803795,88.315414 
	C88.895691,86.401871 90.220551,85.287895 91.432350,84.062157 
	C94.431526,81.028488 99.430923,81.007629 101.727112,84.402550 
	C102.615761,85.716431 102.910942,87.834885 102.580154,89.397003 
	C102.419395,90.156158 100.230148,90.605370 98.897896,90.972458 
	C95.943459,91.786514 92.950317,92.460121 89.666466,93.210190 
	C88.537498,94.132317 87.715027,95.035255 86.944733,95.964828 
	C86.996918,95.991470 86.901344,95.923073 86.569397,96.154999 
	C85.143715,100.448997 86.634155,103.838432 89.000000,107.000000 
	C84.310745,107.000000 79.621490,107.000000 74.293808,106.556503 
	C73.771706,101.141792 73.917007,96.171059 73.996910,91.199265 
	C74.094040,85.155815 75.303238,83.783058 81.180664,82.946976 
	C82.063889,82.821327 82.879463,82.220093 83.892906,81.763878 
	C79.685837,78.907341 77.496819,79.329926 73.743073,83.275055 
	C72.869720,82.501114 72.009163,81.738518 70.942749,80.634796 
	C70.766289,88.856247 70.795685,97.418816 70.898804,106.230881 
	C70.981682,106.653595 70.990837,106.826797 71.000000,107.000000 
M97.890755,47.665878 
	C93.794273,53.550404 96.306602,59.835808 100.416084,62.948128 
	C104.219154,65.828384 110.438774,65.670464 114.044487,62.504982 
	C119.116959,58.051819 119.475075,51.241108 114.891045,46.405094 
	C110.519058,41.792782 103.561142,42.078117 97.890755,47.665878 
M76.946251,46.495266 
	C74.112541,49.793022 73.004547,53.256847 74.819717,57.612953 
	C76.736015,62.211708 80.055710,64.507523 84.778931,65.031326 
	C89.189270,65.520416 90.997459,63.720257 89.470047,59.067722 
	C85.771950,59.308121 81.315643,60.831360 80.065498,55.436726 
	C79.269333,52.001091 82.617577,49.716938 89.661629,48.436729 
	C90.017105,43.176544 88.800934,41.894920 84.051628,43.107376 
	C81.777321,43.687984 79.682922,44.973320 76.946251,46.495266 
M61.108467,50.133812 
	C62.333977,45.818764 65.399529,48.829517 67.799637,48.424286 
	C68.514290,44.870907 67.883072,42.751041 63.423122,43.937393 
	C62.180244,44.267998 60.435238,43.502834 59.525742,44.125000 
	C57.794067,45.309597 55.776726,46.894043 55.170021,48.737652 
	C53.856716,52.728363 56.689575,54.611656 60.008923,56.025787 
	C61.305180,56.578022 62.323444,57.782787 63.468327,58.690342 
	C63.228348,59.049183 62.988365,59.408028 62.748386,59.766869 
	C60.314484,59.913429 57.880581,60.059994 55.328209,60.213688 
	C55.328209,61.883095 55.328209,63.262287 55.328209,65.060768 
	C57.739723,65.060768 59.879848,65.206909 61.993282,65.031464 
	C66.953377,64.619690 70.875999,59.776981 68.712120,55.989361 
	C67.382156,53.661415 63.983574,52.515274 61.108467,50.133812 
M31.610432,48.978642 
	C35.864388,49.561588 35.035629,46.916882 34.680038,44.176384 
	C29.331553,44.025578 23.356874,42.266193 20.555361,48.264507 
	C19.188585,51.190899 19.209364,55.665394 20.426352,58.709934 
	C22.911367,64.926697 28.449276,66.020874 34.695560,64.631416 
	C34.695560,62.701687 34.695560,60.961052 34.695560,59.234505 
	C26.234013,58.833309 25.081524,58.305275 25.007120,54.693596 
	C24.927702,50.838516 27.044909,49.084602 31.610432,48.978642 
M46.378391,44.051273 
	C44.977665,44.142639 43.576939,44.234005 42.006298,44.336456 
	C42.006298,50.452614 41.857079,56.088352 42.132660,61.703236 
	C42.187542,62.821323 43.867489,63.859650 44.798088,64.934753 
	C45.862110,63.926155 47.828655,62.928692 47.841263,61.907116 
	C47.914036,56.008282 47.525307,50.103760 46.378391,44.051273 
M85.998436,16.916424 
	C85.923134,16.091206 86.142639,15.035230 85.713501,14.486979 
	C84.701515,13.194101 83.380470,12.143142 82.184433,10.994329 
	C81.456810,12.462190 80.237679,13.885870 80.100960,15.406847 
	C79.788948,18.878048 79.765572,22.423668 80.148796,25.880989 
	C80.272659,26.998436 82.029739,27.934853 83.039726,28.954077 
	C84.023468,27.908340 85.660851,26.971704 85.857338,25.794565 
	C86.290390,23.200087 85.996696,20.484308 85.998436,16.916424 
M109.928757,28.410328 
	C111.492035,27.889454 114.370865,27.447557 114.407639,26.835043 
	C114.669670,22.470078 114.524223,18.052916 114.085953,13.694853 
	C113.987198,12.712811 112.223686,11.898185 111.226524,11.006485 
	C110.486679,12.119631 109.149948,13.213009 109.112312,14.349416 
	C108.964615,18.808851 109.226456,23.281851 109.928757,28.410328 
M51.019295,19.544149 
	C51.169708,22.007349 51.085571,24.520756 51.596306,26.906828 
	C51.777847,27.754932 53.443729,28.872091 54.361176,28.810539 
	C55.275059,28.749229 56.788322,27.409916 56.846348,26.550447 
	C57.114578,22.577669 57.151348,18.562037 56.832462,14.597034 
	C56.757824,13.668992 54.970001,12.207659 53.977798,12.213683 
	C52.990345,12.219680 51.622875,13.589723 51.138420,14.679976 
	C50.644100,15.792422 51.021343,17.292152 51.019295,19.544149 
M23.457775,12.143538 
	C23.457775,17.694170 23.457775,23.244801 23.457775,29.623495 
	C25.183849,28.727715 27.569920,28.125740 27.625233,27.356228 
	C27.955130,22.766788 27.862358,18.131390 27.571676,13.532895 
	C27.535862,12.966317 25.480209,12.527418 23.457775,12.143538 
M10.538888,19.036257 
	C8.225118,20.671518 6.892957,26.106180 8.582814,27.877588 
	C9.249886,28.576853 10.650373,28.920322 11.665376,28.832212 
	C12.441357,28.764853 13.734735,27.793137 13.765274,27.172848 
	C13.909496,24.243412 15.170747,20.846508 10.538888,19.036257 
M128.996307,22.035210 
	C127.971764,20.906242 126.947212,19.777275 125.922661,18.648312 
	C124.964302,19.831329 123.247963,20.992968 123.213860,22.202055 
	C123.152946,24.361830 123.993317,26.591610 124.755020,28.683563 
	C124.873924,29.010122 127.294426,29.044319 127.413635,28.735785 
	C128.141220,26.852579 128.511551,24.831350 128.996307,22.035210 
M70.969376,21.885702 
	C69.735085,20.743587 68.500793,19.601475 66.647736,17.886797 
	C65.262413,28.167973 65.564629,28.842880 70.979637,28.565218 
	C70.979637,26.650354 70.979637,24.709360 70.969376,21.885702 
z"/>
<path fill="#76C038" opacity="1.000000" stroke="none" 
	d="
M1.938067,71.160301 
	C4.291512,70.699165 5.525644,71.148804 6.559868,73.885666 
	C10.104214,83.265038 14.204067,92.434479 18.506248,102.669220 
	C21.067333,96.201103 23.018318,90.457939 25.594177,85.010254 
	C27.918406,80.094749 26.994850,72.927467 34.623249,70.495094 
	C34.623249,82.913277 34.623249,94.517937 34.811623,106.561302 
	C34.555553,107.000000 34.111111,107.000000 33.319897,106.733261 
	C32.916904,106.297600 32.860676,106.128662 32.861977,105.496590 
	C32.919502,95.333321 32.919502,85.633186 32.919502,75.933044 
	C32.558765,75.904366 32.198032,75.875679 31.837296,75.846992 
	C31.591452,76.568573 31.345606,77.290154 31.056351,78.387772 
	C29.608416,82.356117 28.096840,85.910973 26.823889,89.549301 
	C24.798950,95.336937 22.933125,101.180244 21.000000,107.000000 
	C19.933331,107.000000 18.866661,107.000000 17.404877,106.625565 
	C12.959088,96.456543 8.908415,86.661964 4.857741,76.867386 
	C4.571827,76.930473 4.285914,76.993568 4.000000,77.056656 
	C4.000000,87.037773 4.000000,97.018883 4.000000,107.000000 
	C3.555556,107.000000 3.111111,107.000000 2.082146,106.583466 
	C1.644440,94.498062 1.791254,82.829178 1.938067,71.160301 
z"/>
<path fill="#75BF36" opacity="1.000000" stroke="none" 
	d="
M47.463184,107.000000 
	C46.533997,106.275330 46.220097,105.355049 45.578526,104.856163 
	C38.955059,99.705788 39.334038,85.863739 46.269787,81.315155 
	C52.849560,77.000023 61.994968,81.116203 63.976929,89.318542 
	C64.315613,90.720177 64.441582,92.173195 64.725639,93.983810 
	C61.277206,93.983810 57.959846,93.983818 54.642487,93.983818 
	C51.325623,93.983818 48.008759,93.983810 44.754089,93.983810 
	C43.677158,99.267166 46.641930,104.951797 51.191280,104.685272 
	C55.265079,104.446609 59.203934,101.904694 64.213364,99.993172 
	C62.292046,102.567268 60.832409,104.522827 59.686386,106.739197 
	C55.975456,107.000000 51.950912,107.000000 47.463184,107.000000 
M52.518688,82.019066 
	C46.494656,83.413773 44.823475,85.387039 44.363937,91.785088 
	C49.812561,91.785088 55.249184,91.785088 60.684158,91.785088 
	C60.691124,85.230652 60.445732,84.913681 52.518688,82.019066 
z"/>
<path fill="#000000" opacity="1.000000" stroke="none" 
	d="
M4.463183,107.000000 
	C4.000000,97.018883 4.000000,87.037773 4.000000,77.056656 
	C4.285914,76.993568 4.571827,76.930473 4.857741,76.867386 
	C8.908415,86.661964 12.959088,96.456543 17.004881,106.625565 
	C12.975455,107.000000 8.950912,107.000000 4.463183,107.000000 
z"/>
<path fill="#909194" opacity="1.000000" stroke="none" 
	d="
M37.968700,2.883152 
	C38.207554,2.400513 38.446404,1.917874 38.342628,1.217617 
	C39.066669,1.000000 40.133339,1.000000 41.600006,1.000000 
	C42.333099,10.658416 42.784306,20.315155 42.921486,29.976353 
	C42.958706,32.597656 42.939507,36.348007 38.010696,33.229401 
	C37.587421,32.428905 37.377464,32.199005 37.109360,32.022213 
	C37.067726,22.982258 37.026093,13.942304 37.226254,4.283283 
	C37.658028,3.418664 37.824909,3.158309 37.968700,2.883152 
z"/>
<path fill="#000000" opacity="1.000000" stroke="none" 
	d="
M21.460636,107.000000 
	C22.933125,101.180244 24.798950,95.336937 26.823889,89.549301 
	C28.096840,85.910973 29.608416,82.356117 31.428043,78.604553 
	C31.897062,82.926895 31.869106,87.411385 32.027397,91.889305 
	C32.193302,96.582733 32.537933,101.269844 32.804451,105.959717 
	C32.860676,106.128662 32.916904,106.297600 32.986565,106.733261 
	C29.307091,107.000000 25.614182,107.000000 21.460636,107.000000 
z"/>
<path fill="#75C037" opacity="1.000000" stroke="none" 
	d="
M113.949684,71.178055 
	C114.632866,72.131523 115.866859,73.062683 115.906517,74.042206 
	C116.107780,79.012688 115.999237,83.995720 115.999237,89.880875 
	C120.840782,86.398621 125.194817,83.267014 129.548843,80.135406 
	C129.932205,80.653923 130.315567,81.172440 130.698929,81.690956 
	C126.784798,84.979362 122.870674,88.267761 117.793335,92.533424 
	C121.772141,96.084053 125.527573,99.279640 129.072067,102.694168 
	C130.122910,103.706490 130.579971,105.335159 131.654572,106.840698 
	C131.250000,107.000000 130.500000,107.000000 129.679443,106.737808 
	C125.302444,102.183899 120.995987,97.892174 116.000000,92.913277 
	C116.000000,98.451103 116.000000,102.725555 116.000000,107.000000 
	C115.250000,107.000000 114.500000,107.000000 113.375000,107.000000 
	C113.005424,106.549126 113.010841,106.098251 113.293045,104.960831 
	C113.696442,93.242210 113.823059,82.210136 113.949684,71.178055 
z"/>
<path fill="#72BF30" opacity="1.000000" stroke="none" 
	d="
M89.972961,93.191002 
	C92.950317,92.460121 95.943459,91.786514 98.897896,90.972458 
	C100.230148,90.605370 102.419395,90.156158 102.580154,89.397003 
	C102.910942,87.834885 102.615761,85.716431 101.727112,84.402550 
	C99.430923,81.007629 94.431526,81.028488 91.432350,84.062157 
	C90.220551,85.287895 88.895691,86.401871 86.803795,88.315414 
	C87.143372,81.562164 91.032272,79.335106 98.390602,79.989548 
	C102.875572,80.388435 105.706345,83.182022 105.940445,88.500938 
	C106.199181,94.379974 105.984703,100.279839 105.988159,106.585312 
	C104.611107,107.000000 103.222221,107.000000 101.391731,106.657089 
	C100.264977,105.530319 99.579819,104.746452 99.033508,103.685051 
	C100.063202,102.920311 100.954048,102.433113 102.147476,102.061005 
	C103.225746,101.926903 104.001427,101.677711 104.777115,101.428520 
	C104.238625,100.285927 103.700142,99.143333 103.097702,97.576714 
	C102.973999,95.898003 102.914253,94.643311 102.777977,91.781395 
	C97.717278,93.729759 93.423103,95.383011 88.818382,96.968582 
	C87.972336,96.574951 87.436844,96.249008 86.901344,95.923073 
	C86.901344,95.923073 86.996918,95.991470 87.268730,95.921967 
	C88.351349,94.965309 89.162155,94.078156 89.972961,93.191002 
z"/>
<path fill="#909194" opacity="1.000000" stroke="none" 
	d="
M98.600006,1.000000 
	C99.327248,11.371979 99.713905,21.743050 99.872482,32.117607 
	C99.885612,32.976341 98.354179,33.858685 97.540390,34.730061 
	C96.700073,33.730556 95.140770,32.738178 95.130791,31.730450 
	C95.032318,21.790131 95.191002,11.847264 95.138390,1.452561 
	C96.066673,1.000000 97.133339,1.000000 98.600006,1.000000 
z"/>
<path fill="#71BE2F" opacity="1.000000" stroke="none" 
	d="
M71.375000,107.000000 
	C70.990837,106.826797 70.981682,106.653595 70.964325,105.766678 
	C71.020271,97.027283 71.084435,89.001602 71.148598,80.975914 
	C72.009163,81.738518 72.869720,82.501114 73.743073,83.275055 
	C77.496819,79.329926 79.685837,78.907341 83.892906,81.763878 
	C82.879463,82.220093 82.063889,82.821327 81.180664,82.946976 
	C75.303238,83.783058 74.094040,85.155815 73.996910,91.199265 
	C73.917007,96.171059 73.771706,101.141792 73.827698,106.556503 
	C73.250000,107.000000 72.500000,107.000000 71.375000,107.000000 
z"/>
<path fill="#000000" opacity="1.000000" stroke="none" 
	d="
M116.463181,107.000000 
	C116.000000,102.725555 116.000000,98.451103 116.000000,92.913277 
	C120.995987,97.892174 125.302444,102.183899 129.304443,106.737808 
	C124.975456,107.000000 120.950912,107.000000 116.463181,107.000000 
z"/>
<path fill="#76C039" opacity="1.000000" stroke="none" 
	d="
M86.569397,96.154999 
	C87.436844,96.249008 87.972336,96.574951 88.769028,97.376465 
	C89.016998,104.473335 91.769554,106.178413 98.894669,103.962585 
	C99.579819,104.746452 100.264977,105.530319 100.975067,106.657089 
	C97.307091,107.000000 93.614182,107.000000 89.460632,107.000000 
	C86.634155,103.838432 85.143715,100.448997 86.569397,96.154999 
z"/>
<path fill="#B2D49D" opacity="1.000000" stroke="none" 
	d="
M1.708455,71.091522 
	C1.791254,82.829178 1.644440,94.498062 1.748812,106.583466 
	C1.666666,106.180641 1.048040,105.362991 1.043150,104.541672 
	C0.978440,93.673859 1.000000,82.805519 1.000000,71.468658 
	C1.000000,71.000000 1.478843,71.022751 1.708455,71.091522 
z"/>
<path fill="#74C036" opacity="1.000000" stroke="none" 
	d="
M137.948273,80.917755 
	C138.148071,80.651520 138.347870,80.385277 138.793549,80.604324 
	C139.026291,89.726402 139.013138,98.363197 139.000000,107.000000 
	C139.000000,107.000000 138.500000,107.000000 138.243469,106.531372 
	C137.974045,97.681084 137.961151,89.299423 137.948273,80.917755 
z"/>
<path fill="#93C96D" opacity="1.000000" stroke="none" 
	d="
M139.500000,107.000000 
	C139.013138,98.363197 139.026291,89.726402 139.051270,80.632080 
	C139.063126,80.174553 139.523163,80.042206 139.761581,80.021103 
	C140.000000,89.000000 140.000000,98.000000 139.500000,107.000000 
z"/>
<path fill="#80C34E" opacity="1.000000" stroke="none" 
	d="
M137.587219,81.161133 
	C137.961151,89.299423 137.974045,97.681084 137.993469,106.531372 
	C138.000000,107.000000 137.500000,107.000000 137.250000,107.000000 
	C137.075394,98.468170 137.150787,89.936348 137.587219,81.161133 
z"/>
<path fill="#919295" opacity="1.000000" stroke="none" 
	d="
M98.147469,47.373543 
	C103.561142,42.078117 110.519058,41.792782 114.891045,46.405094 
	C119.475075,51.241108 119.116959,58.051819 114.044487,62.504982 
	C110.438774,65.670464 104.219154,65.828384 100.416084,62.948128 
	C96.306602,59.835808 93.794273,53.550404 98.147469,47.373543 
M110.381042,58.002979 
	C110.560905,55.501308 111.477402,52.696686 110.623428,50.620193 
	C110.166512,49.509171 105.743484,48.597641 104.736755,49.470959 
	C103.119331,50.874046 101.796600,54.058765 102.233650,56.084007 
	C103.106918,60.130596 106.794640,59.068462 110.381042,58.002979 
z"/>
<path fill="#929396" opacity="1.000000" stroke="none" 
	d="
M77.226646,46.217373 
	C79.682922,44.973320 81.777321,43.687984 84.051628,43.107376 
	C88.800934,41.894920 90.017105,43.176544 89.661629,48.436729 
	C82.617577,49.716938 79.269333,52.001091 80.065498,55.436726 
	C81.315643,60.831360 85.771950,59.308121 89.470047,59.067722 
	C90.997459,63.720257 89.189270,65.520416 84.778931,65.031326 
	C80.055710,64.507523 76.736015,62.211708 74.819717,57.612953 
	C73.004547,53.256847 74.112541,49.793022 77.226646,46.217373 
z"/>
<path fill="#919395" opacity="1.000000" stroke="none" 
	d="
M61.311157,50.486145 
	C63.983574,52.515274 67.382156,53.661415 68.712120,55.989361 
	C70.875999,59.776981 66.953377,64.619690 61.993282,65.031464 
	C59.879848,65.206909 57.739723,65.060768 55.328209,65.060768 
	C55.328209,63.262287 55.328209,61.883095 55.328209,60.213688 
	C57.880581,60.059994 60.314484,59.913429 62.748386,59.766869 
	C62.988365,59.408028 63.228348,59.049183 63.468327,58.690342 
	C62.323444,57.782787 61.305180,56.578022 60.008923,56.025787 
	C56.689575,54.611656 53.856716,52.728363 55.170021,48.737652 
	C55.776726,46.894043 57.794067,45.309597 59.525742,44.125000 
	C60.435238,43.502834 62.180244,44.267998 63.423122,43.937393 
	C67.883072,42.751041 68.514290,44.870907 67.799637,48.424286 
	C65.399529,48.829517 62.333977,45.818764 61.311157,50.486145 
z"/>
<path fill="#929396" opacity="1.000000" stroke="none" 
	d="
M31.180065,48.978268 
	C27.044909,49.084602 24.927702,50.838516 25.007120,54.693596 
	C25.081524,58.305275 26.234013,58.833309 34.695560,59.234505 
	C34.695560,60.961052 34.695560,62.701687 34.695560,64.631416 
	C28.449276,66.020874 22.911367,64.926697 20.426352,58.709934 
	C19.209364,55.665394 19.188585,51.190899 20.555361,48.264507 
	C23.356874,42.266193 29.331553,44.025578 34.680038,44.176384 
	C35.035629,46.916882 35.864388,49.561588 31.180065,48.978268 
z"/>
<path fill="#8F9093" opacity="1.000000" stroke="none" 
	d="
M46.835636,44.126217 
	C47.525307,50.103760 47.914036,56.008282 47.841263,61.907116 
	C47.828655,62.928692 45.862110,63.926155 44.798088,64.934753 
	C43.867489,63.859650 42.187542,62.821323 42.132660,61.703236 
	C41.857079,56.088352 42.006298,50.452614 42.006298,44.336456 
	C43.576939,44.234005 44.977665,44.142639 46.835636,44.126217 
z"/>
<path fill="#909194" opacity="1.000000" stroke="none" 
	d="
M85.999001,17.367226 
	C85.996696,20.484308 86.290390,23.200087 85.857338,25.794565 
	C85.660851,26.971704 84.023468,27.908340 83.039726,28.954079 
	C82.029739,27.934853 80.272659,26.998436 80.148796,25.880989 
	C79.765572,22.423668 79.788948,18.878048 80.100960,15.406847 
	C80.237679,13.885870 81.456810,12.462190 82.184433,10.994329 
	C83.380470,12.143142 84.701515,13.194101 85.713501,14.486979 
	C86.142639,15.035230 85.923134,16.091206 85.999001,17.367226 
z"/>
<path fill="#909194" opacity="1.000000" stroke="none" 
	d="
M109.632477,28.080070 
	C109.226456,23.281851 108.964615,18.808851 109.112312,14.349416 
	C109.149948,13.213009 110.486679,12.119631 111.226532,11.006487 
	C112.223686,11.898185 113.987198,12.712811 114.085953,13.694853 
	C114.524223,18.052916 114.669670,22.470078 114.407639,26.835043 
	C114.370865,27.447557 111.492035,27.889454 109.632477,28.080070 
z"/>
<path fill="#8F9093" opacity="1.000000" stroke="none" 
	d="
M51.018154,19.083237 
	C51.021343,17.292152 50.644100,15.792422 51.138420,14.679976 
	C51.622875,13.589723 52.990345,12.219680 53.977798,12.213683 
	C54.970001,12.207659 56.757824,13.668992 56.832462,14.597034 
	C57.151348,18.562037 57.114578,22.577669 56.846348,26.550447 
	C56.788322,27.409916 55.275059,28.749229 54.361176,28.810539 
	C53.443729,28.872091 51.777847,27.754932 51.596306,26.906828 
	C51.085571,24.520756 51.169708,22.007349 51.018154,19.083237 
z"/>
<path fill="#8E9093" opacity="1.000000" stroke="none" 
	d="
M23.909164,12.086446 
	C25.480209,12.527418 27.535862,12.966317 27.571676,13.532895 
	C27.862358,18.131390 27.955130,22.766788 27.625233,27.356228 
	C27.569920,28.125740 25.183849,28.727715 23.457775,29.623495 
	C23.457775,23.244801 23.457775,17.694170 23.909164,12.086446 
z"/>
<path fill="#8F9093" opacity="1.000000" stroke="none" 
	d="
M10.959393,19.037357 
	C15.170747,20.846508 13.909496,24.243412 13.765274,27.172848 
	C13.734735,27.793137 12.441357,28.764853 11.665376,28.832212 
	C10.650373,28.920322 9.249886,28.576853 8.582814,27.877588 
	C6.892957,26.106180 8.225118,20.671518 10.959393,19.037357 
z"/>
<path fill="#8F9093" opacity="1.000000" stroke="none" 
	d="
M128.998657,22.445677 
	C128.511551,24.831350 128.141220,26.852579 127.413635,28.735785 
	C127.294426,29.044319 124.873924,29.010122 124.755020,28.683563 
	C123.993317,26.591610 123.152946,24.361830 123.213860,22.202055 
	C123.247963,20.992968 124.964302,19.831329 125.922661,18.648310 
	C126.947212,19.777275 127.971764,20.906242 128.998657,22.445677 
z"/>
<path fill="#8E9093" opacity="1.000000" stroke="none" 
	d="
M70.974503,22.327034 
	C70.979637,24.709360 70.979637,26.650354 70.979637,28.565218 
	C65.564629,28.842880 65.262413,28.167973 66.647736,17.886797 
	C68.500793,19.601475 69.735085,20.743587 70.974503,22.327034 
z"/>
<path fill="#86C459" opacity="1.000000" stroke="none" 
	d="
M113.566864,71.357048 
	C113.823059,82.210136 113.696442,93.242210 113.361565,104.629578 
	C113.163551,93.835251 113.173798,82.685646 113.566864,71.357048 
z"/>
<path fill="#D2E3C6" opacity="1.000000" stroke="none" 
	d="
M70.942749,80.634796 
	C71.084435,89.001602 71.020271,97.027283 70.890602,105.517174 
	C70.795685,97.418816 70.766289,88.856247 70.942749,80.634796 
z"/>
<path fill="#76C039" opacity="1.000000" stroke="none" 
	d="
M89.666466,93.210190 
	C89.162155,94.078156 88.351349,94.965309 87.216553,95.895325 
	C87.715027,95.035255 88.537498,94.132317 89.666466,93.210190 
z"/>
<path fill="#9E9FA2" opacity="1.000000" stroke="none" 
	d="
M37.714226,2.964901 
	C37.824909,3.158309 37.658028,3.418664 37.293385,3.816941 
	C37.232399,3.661995 37.346073,3.354323 37.714226,2.964901 
z"/>
<path fill="#9E9FA2" opacity="1.000000" stroke="none" 
	d="
M37.094086,32.293682 
	C37.377464,32.199005 37.587421,32.428905 37.854778,32.917248 
	C37.673153,32.936775 37.375980,32.750961 37.094086,32.293682 
z"/>
<path fill="#B2D49C" opacity="1.000000" stroke="none" 
	d="
M32.861977,105.496590 
	C32.537933,101.269844 32.193302,96.582733 32.027397,91.889305 
	C31.869106,87.411385 31.897062,82.926895 31.471453,78.228516 
	C31.345606,77.290154 31.591452,76.568573 31.837296,75.846992 
	C32.198032,75.875679 32.558765,75.904366 32.919502,75.933044 
	C32.919502,85.633186 32.919502,95.333321 32.861977,105.496590 
z"/>
<path fill="#000000" opacity="1.000000" stroke="none" 
	d="
M52.914776,82.024239 
	C60.445732,84.913681 60.691124,85.230652 60.684158,91.785088 
	C55.249184,91.785088 49.812561,91.785088 44.363937,91.785088 
	C44.823475,85.387039 46.494656,83.413773 52.914776,82.024239 
z"/>
<path fill="#000000" opacity="1.000000" stroke="none" 
	d="
M99.033508,103.685051 
	C91.769554,106.178413 89.016998,104.473335 89.079575,97.444153 
	C93.423103,95.383011 97.717278,93.729759 102.777977,91.781395 
	C102.914253,94.643311 102.973999,95.898003 103.019638,97.922104 
	C102.618652,99.776314 102.231773,100.861115 101.844894,101.945908 
	C100.954048,102.433113 100.063202,102.920311 99.033508,103.685051 
z"/>
<path fill="#76C039" opacity="1.000000" stroke="none" 
	d="
M102.147476,102.061005 
	C102.231773,100.861115 102.618652,99.776314 103.083595,98.346130 
	C103.700142,99.143333 104.238625,100.285927 104.777115,101.428520 
	C104.001427,101.677711 103.225746,101.926903 102.147476,102.061005 
z"/>
<path fill="#000000" opacity="1.000000" stroke="none" 
	d="
M110.090210,58.306244 
	C106.794640,59.068462 103.106918,60.130596 102.233650,56.084007 
	C101.796600,54.058765 103.119331,50.874046 104.736755,49.470959 
	C105.743484,48.597641 110.166512,49.509171 110.623428,50.620193 
	C111.477402,52.696686 110.560905,55.501308 110.090210,58.306244 
z"/>
</svg>