<svg version="1.1" id="Layer_1" xmlns="http://www.w3.org/2000/svg" xmlns:xlink="http://www.w3.org/1999/xlink" x="0px" y="0px"
	 width="100%" viewBox="0 0 225 225" enable-background="new 0 0 225 225" xml:space="preserve">
<path fill="#FDFDFE" opacity="1.000000" stroke="none" 
	d="
M155.000000,226.000000 
	C103.333336,226.000000 52.166672,226.000000 1.000007,226.000000 
	C1.000005,151.000000 1.000005,76.000015 1.000002,1.000017 
	C75.999992,1.000011 150.999985,1.000011 225.999969,1.000006 
	C225.999985,75.999985 225.999985,150.999969 226.000000,225.999969 
	C202.500000,226.000000 179.000000,226.000000 155.000000,226.000000 
M51.311123,161.674667 
	C51.311123,161.674667 51.686134,161.865387 51.636475,162.720627 
	C52.102863,165.022324 52.569252,167.324005 53.815346,169.893005 
	C58.231892,167.699249 55.842266,163.862488 55.335239,161.012558 
	C55.155144,160.000244 51.198597,159.659790 48.624008,158.329895 
	C48.082798,156.885483 47.541588,155.441055 46.347229,153.722961 
	C45.899963,153.832169 45.452702,153.941391 44.082222,154.312195 
	C39.805599,154.253693 35.525818,154.087479 31.254576,154.212646 
	C30.190928,154.243820 29.154854,155.215942 28.106106,155.755585 
	C28.871250,156.430008 29.740221,157.019531 30.377369,157.798630 
	C31.350378,158.988434 32.573956,160.202087 32.939014,161.601776 
	C33.384369,163.309372 32.763966,165.285355 33.158443,167.019226 
	C33.411083,168.129684 34.664593,169.012436 35.469421,169.997269 
	C36.208874,168.953278 37.469410,167.964157 37.586220,166.854614 
	C37.888889,163.979752 37.687782,161.051834 37.687782,157.905731 
	C40.411995,157.905731 42.316185,157.905731 44.054916,158.825729 
	C44.042088,161.607285 43.782791,164.422180 44.152298,167.151993 
	C44.278831,168.086792 45.980709,168.808350 47.629784,169.472656 
	C47.777958,167.310745 47.926132,165.148834 48.537590,162.332321 
	C48.657539,162.093414 48.777489,161.854523 49.644039,161.507553 
	C50.141968,161.435471 50.639893,161.363388 51.311123,161.674667 
M130.547043,155.851654 
	C130.533081,159.420807 130.330963,163.005127 130.616760,166.550110 
	C130.705566,167.651657 132.117020,168.646561 133.659042,169.702377 
	C133.880051,167.431763 134.101044,165.161163 134.680435,162.389893 
	C134.752716,162.197800 134.824982,162.005722 135.779022,161.701660 
	C136.532501,163.532425 137.203690,165.403412 138.071167,167.178467 
	C138.569702,168.198593 139.283569,169.187103 140.141724,169.899109 
	C140.325241,170.051376 141.914291,169.111542 142.239761,168.394974 
	C144.717087,162.940903 141.097626,157.566696 135.491745,157.854996 
	C134.619171,156.502380 133.810379,155.248627 132.505402,153.787064 
	C132.330673,153.827347 132.155930,153.867630 131.346741,153.898697 
	C131.151276,154.242218 130.955811,154.585739 130.547043,155.851654 
M182.246902,158.837296 
	C178.329758,157.076416 176.602371,158.317657 176.983444,162.608765 
	C177.100662,163.928589 176.742401,165.338409 177.079010,166.577377 
	C177.405304,167.778473 178.344772,168.812973 179.014954,169.920639 
	C179.704285,168.838760 180.655762,167.838547 181.024002,166.656616 
	C181.638992,164.682724 180.237564,161.624023 184.479156,162.372971 
	C184.636688,164.190399 184.644028,166.039780 185.020630,167.810608 
	C185.187225,168.593903 185.999680,169.376068 186.722672,169.843933 
	C187.055008,170.059006 188.387558,169.545319 188.400894,169.312485 
	C188.569244,166.375870 189.026016,163.324554 188.369461,160.548416 
	C188.160904,159.666534 184.879974,159.511292 182.246902,158.837296 
M68.374451,161.119171 
	C67.758766,155.656250 63.370293,159.305893 61.005280,158.068176 
	C60.318237,159.512009 59.414940,160.898438 59.011665,162.417603 
	C58.681156,163.662628 58.708092,165.123444 59.013840,166.382401 
	C59.317841,167.634201 60.167244,168.753555 60.777489,169.930984 
	C61.551075,168.760422 62.936539,167.615997 62.987839,166.414597 
	C63.169018,162.171341 65.026634,160.682663 68.820656,162.641327 
	C68.371628,166.101746 69.210449,169.112823 72.960632,169.830429 
	C75.758675,170.365875 79.281578,171.592621 80.921852,166.512680 
	C80.916046,165.960648 80.910233,165.408615 81.058128,164.097580 
	C81.261993,160.860367 79.777855,158.703842 76.653847,158.029816 
	C73.354317,157.317917 70.489647,158.010818 68.374451,161.119171 
M159.562408,160.938705 
	C159.547531,162.433945 159.260727,163.992874 159.591904,165.407074 
	C159.944687,166.913559 160.882111,168.283127 161.564270,169.712463 
	C162.184601,168.370132 163.273483,167.049423 163.336670,165.681366 
	C163.520172,161.709167 165.606888,161.003021 169.396332,161.805435 
	C169.489136,163.724838 169.387619,165.711060 169.764252,167.602066 
	C169.939041,168.479584 170.933441,169.363632 171.782181,169.852859 
	C172.117432,170.046112 173.339096,169.337341 173.689819,168.756927 
	C175.137543,166.360992 173.458511,155.805298 170.838547,152.939178 
	C170.838547,154.336853 171.117874,155.287689 170.777496,155.885956 
	C170.162949,156.966156 169.291931,158.487381 168.323807,158.656693 
	C166.338486,159.003876 164.218124,158.579010 161.308151,158.291031 
	C160.798218,158.868637 160.288284,159.446243 159.562408,160.938705 
M105.935211,42.253056 
	C97.297440,43.105293 94.047600,46.559898 94.040047,54.927544 
	C94.031792,64.076668 94.159798,73.228142 93.983688,82.373878 
	C93.904396,86.491394 95.765526,88.936035 99.325996,90.457047 
	C100.499489,90.958351 101.662178,91.484909 102.923912,92.041412 
	C102.236786,95.326721 101.605804,98.343620 100.729469,102.533607 
	C105.249123,99.958527 108.969635,98.210823 112.269150,95.869759 
	C116.967041,92.536507 121.953232,91.385971 127.680183,91.571617 
	C137.816727,91.900208 147.972168,91.726257 158.118683,91.641571 
	C166.693192,91.570015 169.477310,88.713913 169.488983,80.270699 
	C169.500488,71.953323 169.483032,63.635902 169.493790,55.318523 
	C169.506409,45.564201 166.184479,42.263107 156.249374,42.255238 
	C139.780960,42.242195 123.312508,42.252022 105.935211,42.253056 
M53.831039,138.810791 
	C53.831039,142.444336 53.831039,146.077881 53.831039,150.014709 
	C58.261375,150.014709 62.160385,150.014709 66.629616,150.014709 
	C66.629616,138.087357 66.646454,126.472076 66.590157,114.857162 
	C66.586555,114.115929 66.222740,113.113647 65.673508,112.682976 
	C63.184864,110.731567 52.976921,112.837463 51.266983,115.567101 
	C49.383091,118.574425 47.528034,121.599815 45.016441,125.657829 
	C40.562283,115.972466 35.730953,108.487518 24.275009,113.237785 
	C24.275009,125.277908 24.275009,137.521713 24.275009,150.049774 
	C28.346376,150.049774 32.088936,150.049774 36.630081,150.049774 
	C36.630081,144.834351 36.630081,139.864426 36.630081,134.894485 
	C37.047047,134.791656 37.464012,134.688828 37.880978,134.585983 
	C40.201523,137.849518 42.522072,141.113068 45.224258,144.913330 
	C47.964756,140.820206 50.295631,137.338882 53.455898,132.618790 
	C53.654316,135.426483 53.742607,136.675827 53.831039,138.810791 
M102.653473,139.206909 
	C100.216934,138.210678 97.780396,137.214447 94.965393,136.063461 
	C92.915138,138.476471 90.823502,140.938171 88.829544,143.284927 
	C93.733330,150.233414 111.564453,152.218475 118.503693,147.798004 
	C122.535408,145.229706 124.662308,141.720337 124.550583,137.036041 
	C124.438988,132.357101 121.783325,129.254410 117.506760,127.682838 
	C114.551910,126.596992 111.435104,125.959976 108.434151,124.988136 
	C106.891579,124.488586 105.444145,123.695282 103.953720,123.034721 
	C104.161118,122.355042 104.368523,121.675369 104.575920,120.995689 
	C108.890686,121.948853 113.205452,122.902008 118.136902,123.991394 
	C119.655830,121.811111 121.501045,119.162483 123.315071,116.558617 
	C116.734383,110.952171 104.450195,109.207588 97.524544,112.792351 
	C93.056335,115.105125 90.473763,118.768112 90.554802,124.013390 
	C90.632935,129.069962 93.612595,131.962265 97.958023,133.621613 
	C100.742722,134.684982 103.702972,135.280304 106.555527,136.177628 
	C108.130035,136.672897 109.644691,137.358459 111.186325,137.958237 
	C111.077072,138.570450 110.967827,139.182663 110.858574,139.794876 
	C108.387260,139.647034 105.915939,139.499207 102.653473,139.206909 
M166.921997,106.090378 
	C170.341965,108.063644 173.761948,110.036911 178.420807,112.725006 
	C176.274506,107.360794 177.165787,104.043526 181.328842,101.986160 
	C181.839920,101.733589 182.380447,100.913803 182.384094,100.353485 
	C182.461517,88.406036 182.657928,76.450523 182.191711,64.521576 
	C182.143219,63.281048 178.076553,62.197563 175.874252,61.041210 
	C175.280975,62.733482 174.229172,64.411453 174.175858,66.120575 
	C173.973373,72.610390 174.140533,79.110703 174.081467,85.606293 
	C174.011795,93.267509 171.834198,95.436172 164.279785,95.448196 
	C151.121094,95.469147 137.962311,95.444038 124.803650,95.476028 
	C123.065628,95.480255 121.328148,95.706261 119.566002,95.831284 
	C120.333908,102.089867 123.165520,104.421257 129.980133,104.497025 
	C139.972931,104.608124 149.968582,104.464722 159.961319,104.578941 
	C162.054932,104.602867 164.141129,105.274490 166.921997,106.090378 
M128.160492,130.500549 
	C128.160492,136.739410 128.160492,142.978271 128.160492,149.279480 
	C132.848358,149.279480 136.726776,149.279480 140.760452,149.279480 
	C140.976974,145.830948 141.168701,142.777039 141.362076,139.697052 
	C144.855942,139.341492 147.865326,139.300293 150.754364,138.689743 
	C158.337585,137.087158 162.417969,131.867386 162.105362,124.580421 
	C161.808960,117.670830 157.326462,112.861435 149.614380,112.135811 
	C143.513840,111.561806 137.332977,111.629471 131.200089,111.816383 
	C130.155731,111.848206 128.384399,113.861694 128.301010,115.054230 
	C127.965637,119.849922 128.161224,124.682732 128.160492,130.500549 
M85.468071,116.066475 
	C84.722321,114.830185 84.096649,112.638954 83.209473,112.527382 
	C79.852341,112.105240 76.410393,112.357613 72.556633,112.357613 
	C72.556633,124.610619 72.506721,136.059845 72.653267,147.506546 
	C72.664742,148.402893 73.987953,149.977448 74.803291,150.047211 
	C78.184097,150.336441 81.604012,150.168640 84.820595,150.168640 
	C85.170799,148.866409 85.408340,148.391998 85.410011,147.916763 
	C85.446358,137.602386 85.456429,127.287918 85.468071,116.066475 
M124.468704,160.801422 
	C122.910629,160.235367 121.352562,159.669327 119.794495,159.103287 
	C119.871178,158.682083 119.947853,158.260864 120.024536,157.839661 
	C122.090164,157.700256 124.155792,157.560837 126.221420,157.421432 
	C126.394073,156.883911 126.566734,156.346390 126.739395,155.808853 
	C125.096199,155.211746 123.354454,153.949615 121.833153,154.175064 
	C119.611351,154.504333 116.354225,155.353333 115.625290,156.939697 
	C112.609627,163.502579 120.541206,162.556671 123.059921,166.209961 
	C121.393196,166.385849 120.300629,166.606537 119.212029,166.588394 
	C117.953873,166.567444 116.699211,166.336121 115.443039,166.196136 
	C115.197624,166.718231 114.952202,167.240326 114.706787,167.762405 
	C116.053604,168.518127 117.480400,170.013245 118.730827,169.877975 
	C121.462532,169.582504 124.361465,168.856339 126.610161,167.404709 
	C127.202858,167.022064 125.673447,163.352173 124.468704,160.801422 
M156.666489,164.736359 
	C155.906540,157.664520 153.025665,156.202042 145.479599,158.835922 
	C145.479599,160.464752 145.463745,162.002151 145.483734,163.539062 
	C145.507141,165.338776 145.200897,168.588379 145.661255,168.702927 
	C148.725189,169.465317 151.962921,169.770615 155.125885,169.667038 
	C155.683517,169.648773 156.155319,167.010452 156.666489,164.736359 
M84.416687,162.915665 
	C84.147041,164.836777 83.475616,168.389603 83.667381,168.436813 
	C87.122261,169.287537 90.681381,169.714920 94.218193,170.232880 
	C94.676376,169.783493 95.134552,169.334122 95.592735,168.884735 
	C94.584351,165.484665 94.443535,161.270142 92.274506,158.959625 
	C90.727501,157.311737 86.454582,158.222839 82.763000,157.944031 
	C83.873184,160.330994 84.342453,161.339935 84.416687,162.915665 
M203.109482,166.344238 
	C203.109482,163.930984 203.109482,161.517731 203.109482,158.838455 
	C200.885223,158.838455 199.349625,158.588715 197.936096,158.897614 
	C195.872070,159.348679 192.680908,159.710449 192.162125,160.995316 
	C191.350952,163.004303 192.367111,165.754486 192.622055,168.189331 
	C192.785950,169.754807 192.972977,171.317871 193.244568,173.722549 
	C195.065155,175.598755 197.479080,174.822556 200.510559,173.476303 
	C203.819916,172.006638 202.872589,169.574631 203.109482,166.344238 
M99.718689,154.732132 
	C98.615051,156.270523 96.515999,157.875397 96.613388,159.333572 
	C96.821075,162.443359 97.615021,165.812653 99.211456,168.442688 
	C100.658691,170.826920 103.450676,170.700516 106.169197,168.288010 
	C99.707375,165.200317 102.581177,162.174118 106.038994,159.459595 
	C103.941513,157.701523 102.167892,156.214905 99.718689,154.732132 
z"/>
<path fill="#2E93D4" opacity="1.000000" stroke="none" 
	d="
M106.389641,42.252632 
	C123.312508,42.252022 139.780960,42.242195 156.249374,42.255238 
	C166.184479,42.263107 169.506409,45.564201 169.493790,55.318523 
	C169.483032,63.635902 169.500488,71.953323 169.488983,80.270699 
	C169.477310,88.713913 166.693192,91.570015 158.118683,91.641571 
	C147.972168,91.726257 137.816727,91.900208 127.680183,91.571617 
	C121.953232,91.385971 116.967041,92.536507 112.269150,95.869759 
	C108.969635,98.210823 105.249123,99.958527 100.729469,102.533607 
	C101.605804,98.343620 102.236786,95.326721 102.923912,92.041412 
	C101.662178,91.484909 100.499489,90.958351 99.325996,90.457047 
	C95.765526,88.936035 93.904396,86.491394 93.983688,82.373878 
	C94.159798,73.228142 94.031792,64.076668 94.040047,54.927544 
	C94.047600,46.559898 97.297440,43.105293 106.389641,42.252632 
M151.271423,70.540527 
	C155.212784,69.323921 156.085983,66.528763 154.339630,63.222332 
	C152.853409,60.408401 149.975174,60.065125 147.595139,61.975029 
	C146.431595,62.908752 145.274445,65.530334 145.788483,66.505547 
	C146.702133,68.238884 148.889938,69.300613 151.271423,70.540527 
M108.979485,68.351105 
	C110.699257,69.028847 113.062248,70.741516 113.998970,70.159340 
	C115.714508,69.093124 117.777130,66.443962 117.477531,64.879524 
	C117.178413,63.317524 114.091927,61.138893 112.351906,61.246357 
	C108.890602,61.460125 107.483444,64.151230 108.979485,68.351105 
M126.936661,65.512886 
	C127.793907,67.012848 128.587524,69.718819 129.521301,69.768089 
	C131.629562,69.879318 134.847763,69.266357 135.655136,67.839424 
	C136.417557,66.491928 135.332047,62.774551 133.896774,61.783718 
	C130.912750,59.723732 128.215103,61.128761 126.936661,65.512886 
z"/>
<path fill="#565658" opacity="1.000000" stroke="none" 
	d="
M53.830967,138.367981 
	C53.742607,136.675827 53.654316,135.426483 53.455898,132.618790 
	C50.295631,137.338882 47.964756,140.820206 45.224258,144.913330 
	C42.522072,141.113068 40.201523,137.849518 37.880978,134.585983 
	C37.464012,134.688828 37.047047,134.791656 36.630081,134.894485 
	C36.630081,139.864426 36.630081,144.834351 36.630081,150.049774 
	C32.088936,150.049774 28.346376,150.049774 24.275009,150.049774 
	C24.275009,137.521713 24.275009,125.277908 24.275009,113.237785 
	C35.730953,108.487518 40.562283,115.972466 45.016441,125.657829 
	C47.528034,121.599815 49.383091,118.574425 51.266983,115.567101 
	C52.976921,112.837463 63.184864,110.731567 65.673508,112.682976 
	C66.222740,113.113647 66.586555,114.115929 66.590157,114.857162 
	C66.646454,126.472076 66.629616,138.087357 66.629616,150.014709 
	C62.160385,150.014709 58.261375,150.014709 53.831039,150.014709 
	C53.831039,146.077881 53.831039,142.444336 53.830967,138.367981 
z"/>
<path fill="#575759" opacity="1.000000" stroke="none" 
	d="
M103.049042,139.279144 
	C105.915939,139.499207 108.387260,139.647034 110.858574,139.794876 
	C110.967827,139.182663 111.077072,138.570450 111.186325,137.958237 
	C109.644691,137.358459 108.130035,136.672897 106.555527,136.177628 
	C103.702972,135.280304 100.742722,134.684982 97.958023,133.621613 
	C93.612595,131.962265 90.632935,129.069962 90.554802,124.013390 
	C90.473763,118.768112 93.056335,115.105125 97.524544,112.792351 
	C104.450195,109.207588 116.734383,110.952171 123.315071,116.558617 
	C121.501045,119.162483 119.655830,121.811111 118.136902,123.991394 
	C113.205452,122.902008 108.890686,121.948853 104.575920,120.995689 
	C104.368523,121.675369 104.161118,122.355042 103.953720,123.034721 
	C105.444145,123.695282 106.891579,124.488586 108.434151,124.988136 
	C111.435104,125.959976 114.551910,126.596992 117.506760,127.682838 
	C121.783325,129.254410 124.438988,132.357101 124.550583,137.036041 
	C124.662308,141.720337 122.535408,145.229706 118.503693,147.798004 
	C111.564453,152.218475 93.733330,150.233414 88.829544,143.284927 
	C90.823502,140.938171 92.915138,138.476471 94.965393,136.063461 
	C97.780396,137.214447 100.216934,138.210678 103.049042,139.279144 
z"/>
<path fill="#3295D5" opacity="1.000000" stroke="none" 
	d="
M166.576370,105.869019 
	C164.141129,105.274490 162.054932,104.602867 159.961319,104.578941 
	C149.968582,104.464722 139.972931,104.608124 129.980133,104.497025 
	C123.165520,104.421257 120.333908,102.089867 119.566002,95.831284 
	C121.328148,95.706261 123.065628,95.480255 124.803650,95.476028 
	C137.962311,95.444038 151.121094,95.469147 164.279785,95.448196 
	C171.834198,95.436172 174.011795,93.267509 174.081467,85.606293 
	C174.140533,79.110703 173.973373,72.610390 174.175858,66.120575 
	C174.229172,64.411453 175.280975,62.733482 175.874252,61.041214 
	C178.076553,62.197563 182.143219,63.281048 182.191711,64.521576 
	C182.657928,76.450523 182.461517,88.406036 182.384094,100.353485 
	C182.380447,100.913803 181.839920,101.733589 181.328842,101.986160 
	C177.165787,104.043526 176.274506,107.360794 178.420807,112.725006 
	C173.761948,110.036911 170.341965,108.063644 166.576370,105.869019 
z"/>
<path fill="#565658" opacity="1.000000" stroke="none" 
	d="
M128.160553,130.001190 
	C128.161224,124.682732 127.965637,119.849922 128.301010,115.054230 
	C128.384399,113.861694 130.155731,111.848206 131.200089,111.816383 
	C137.332977,111.629471 143.513840,111.561806 149.614380,112.135811 
	C157.326462,112.861435 161.808960,117.670830 162.105362,124.580421 
	C162.417969,131.867386 158.337585,137.087158 150.754364,138.689743 
	C147.865326,139.300293 144.855942,139.341492 141.362076,139.697052 
	C141.168701,142.777039 140.976974,145.830948 140.760452,149.279480 
	C136.726776,149.279480 132.848358,149.279480 128.160492,149.279480 
	C128.160492,142.978271 128.160492,136.739410 128.160553,130.001190 
M140.938339,128.254379 
	C143.044189,128.692505 145.238815,129.664398 147.217102,129.335403 
	C148.155334,129.179382 149.667969,125.844917 149.190826,125.166138 
	C148.138397,123.668915 146.090134,122.321281 144.266922,122.023895 
	C139.593048,121.261543 141.274536,125.063126 140.938339,128.254379 
z"/>
<path fill="#535355" opacity="1.000000" stroke="none" 
	d="
M85.469818,116.519974 
	C85.456429,127.287918 85.446358,137.602386 85.410011,147.916763 
	C85.408340,148.391998 85.170799,148.866409 84.820595,150.168640 
	C81.604012,150.168640 78.184097,150.336441 74.803291,150.047211 
	C73.987953,149.977448 72.664742,148.402893 72.653267,147.506546 
	C72.506721,136.059845 72.556633,124.610619 72.556633,112.357613 
	C76.410393,112.357613 79.852341,112.105240 83.209473,112.527382 
	C84.096649,112.638954 84.722321,114.830185 85.469818,116.519974 
z"/>
<path fill="#6C6C6E" opacity="1.000000" stroke="none" 
	d="
M124.793610,160.996613 
	C125.673447,163.352173 127.202858,167.022064 126.610161,167.404709 
	C124.361465,168.856339 121.462532,169.582504 118.730827,169.877975 
	C117.480400,170.013245 116.053604,168.518127 114.706787,167.762405 
	C114.952202,167.240326 115.197624,166.718231 115.443039,166.196136 
	C116.699211,166.336121 117.953873,166.567444 119.212029,166.588394 
	C120.300629,166.606537 121.393196,166.385849 123.059921,166.209961 
	C120.541206,162.556671 112.609627,163.502579 115.625290,156.939697 
	C116.354225,155.353333 119.611351,154.504333 121.833153,154.175064 
	C123.354454,153.949615 125.096199,155.211746 126.739395,155.808853 
	C126.566734,156.346390 126.394073,156.883911 126.221420,157.421432 
	C124.155792,157.560837 122.090164,157.700256 120.024536,157.839661 
	C119.947853,158.260864 119.871178,158.682083 119.794495,159.103287 
	C121.352562,159.669327 122.910629,160.235367 124.793610,160.996613 
z"/>
<path fill="#6F7071" opacity="1.000000" stroke="none" 
	d="
M156.666626,165.159225 
	C156.155319,167.010452 155.683517,169.648773 155.125885,169.667038 
	C151.962921,169.770615 148.725189,169.465317 145.661255,168.702927 
	C145.200897,168.588379 145.507141,165.338776 145.483734,163.539062 
	C145.463745,162.002151 145.479599,160.464752 145.479599,158.835922 
	C153.025665,156.202042 155.906540,157.664520 156.666626,165.159225 
z"/>
<path fill="#6A6B6C" opacity="1.000000" stroke="none" 
	d="
M84.614204,162.632263 
	C84.342453,161.339935 83.873184,160.330994 82.763000,157.944031 
	C86.454582,158.222839 90.727501,157.311737 92.274506,158.959625 
	C94.443535,161.270142 94.584351,165.484665 95.592735,168.884735 
	C95.134552,169.334122 94.676376,169.783493 94.218193,170.232880 
	C90.681381,169.714920 87.122261,169.287537 83.667381,168.436813 
	C83.475616,168.389603 84.147041,164.836777 84.614204,162.632263 
z"/>
<path fill="#757577" opacity="1.000000" stroke="none" 
	d="
M44.220375,157.905731 
	C42.316185,157.905731 40.411995,157.905731 37.687782,157.905731 
	C37.687782,161.051834 37.888889,163.979752 37.586220,166.854614 
	C37.469410,167.964157 36.208874,168.953278 35.469421,169.997269 
	C34.664593,169.012436 33.411083,168.129684 33.158443,167.019226 
	C32.763966,165.285355 33.384369,163.309372 32.939014,161.601776 
	C32.573956,160.202087 31.350378,158.988434 30.377369,157.798630 
	C29.740221,157.019531 28.871250,156.430008 28.106106,155.755585 
	C29.154854,155.215942 30.190928,154.243820 31.254576,154.212646 
	C35.525818,154.087479 39.805599,154.253693 44.545876,154.525772 
	C44.746475,155.794815 44.483425,156.850266 44.220375,157.905731 
z"/>
<path fill="#595A5C" opacity="1.000000" stroke="none" 
	d="
M203.107697,166.805267 
	C202.872589,169.574631 203.819916,172.006638 200.510559,173.476303 
	C197.479080,174.822556 195.065155,175.598755 193.244568,173.722549 
	C192.972977,171.317871 192.785950,169.754807 192.622055,168.189331 
	C192.367111,165.754486 191.350952,163.004303 192.162125,160.995316 
	C192.680908,159.710449 195.872070,159.348679 197.936096,158.897614 
	C199.349625,158.588715 200.885223,158.838455 203.109482,158.838455 
	C203.109482,161.517731 203.109482,163.930984 203.107697,166.805267 
M196.869385,161.104126 
	C193.709457,162.015686 194.530441,164.310822 195.574249,166.054626 
	C195.914505,166.623093 198.065903,166.107483 199.388962,166.087677 
	C198.800980,164.405243 198.213013,162.722794 196.869385,161.104126 
M196.010941,169.176544 
	C195.899582,169.277695 195.748367,169.361847 195.694748,169.487595 
	C195.670288,169.544983 195.856827,169.782364 195.916214,169.771179 
	C196.388702,169.682129 196.853622,169.552963 197.320877,169.436111 
	C197.055496,169.326950 196.790131,169.217789 196.010941,169.176544 
z"/>
<path fill="#6F7071" opacity="1.000000" stroke="none" 
	d="
M162.153366,158.472000 
	C164.218124,158.579010 166.338486,159.003876 168.323807,158.656693 
	C169.291931,158.487381 170.162949,156.966156 170.777496,155.885956 
	C171.117874,155.287689 170.838547,154.336853 170.838547,152.939178 
	C173.458511,155.805298 175.137543,166.360992 173.689819,168.756927 
	C173.339096,169.337341 172.117432,170.046112 171.782181,169.852859 
	C170.933441,169.363632 169.939041,168.479584 169.764252,167.602066 
	C169.387619,165.711060 169.489136,163.724838 169.396332,161.805435 
	C165.606888,161.003021 163.520172,161.709167 163.336670,165.681366 
	C163.273483,167.049423 162.184601,168.370132 161.564270,169.712463 
	C160.882111,168.283127 159.944687,166.913559 159.591904,165.407074 
	C159.260727,163.992874 159.547531,162.433945 160.052948,160.440887 
	C161.080109,159.452713 161.616730,158.962357 162.153366,158.472000 
M164.514496,160.404602 
	C164.514496,160.404602 164.587250,160.521072 164.514496,160.404602 
z"/>
<path fill="#6A6A6C" opacity="1.000000" stroke="none" 
	d="
M80.747459,167.323593 
	C79.281578,171.592621 75.758675,170.365875 72.960632,169.830429 
	C69.210449,169.112823 68.371628,166.101746 68.956741,162.176804 
	C69.092834,161.712280 69.114555,161.599350 69.114555,161.599350 
	C70.489647,158.010818 73.354317,157.317917 76.653847,158.029816 
	C79.777855,158.703842 81.261993,160.860367 80.550507,164.503479 
	C77.810524,165.087128 75.578171,165.264893 73.345818,165.442657 
	C73.372841,165.936569 73.399864,166.430481 73.426895,166.924393 
	C75.867081,167.057465 78.307274,167.190521 80.747459,167.323593 
z"/>
<path fill="#6F7072" opacity="1.000000" stroke="none" 
	d="
M100.056480,154.730209 
	C102.167892,156.214905 103.941513,157.701523 106.038994,159.459595 
	C102.581177,162.174118 99.707375,165.200317 106.169197,168.288010 
	C103.450676,170.700516 100.658691,170.826920 99.211456,168.442688 
	C97.615021,165.812653 96.821075,162.443359 96.613388,159.333572 
	C96.515999,157.875397 98.615051,156.270523 100.056480,154.730209 
z"/>
<path fill="#6B6B6D" opacity="1.000000" stroke="none" 
	d="
M44.137646,158.365723 
	C44.483425,156.850266 44.746475,155.794815 45.007484,154.394989 
	C45.452702,153.941391 45.899963,153.832169 46.673683,154.254440 
	C47.655426,156.194824 48.310711,157.603745 48.965996,159.012634 
	C51.198597,159.659790 55.155144,160.000244 55.335239,161.012558 
	C55.842266,163.862488 58.231892,167.699249 53.417068,169.364883 
	C52.574570,166.512970 52.130352,164.189178 51.686134,161.865387 
	C51.686134,161.865387 51.311123,161.674667 51.106857,161.267151 
	C50.234203,161.111618 49.565819,161.363617 48.897434,161.615631 
	C48.777489,161.854523 48.657539,162.093414 48.043457,162.853455 
	C47.353832,165.458847 47.158340,167.543091 46.962852,169.627335 
	C45.980709,168.808350 44.278831,168.086792 44.152298,167.151993 
	C43.782791,164.422180 44.042088,161.607285 44.137646,158.365723 
z"/>
<path fill="#7A7B7C" opacity="1.000000" stroke="none" 
	d="
M133.001587,153.994873 
	C133.810379,155.248627 134.619171,156.502380 135.491745,157.854996 
	C141.097626,157.566696 144.717087,162.940903 142.239761,168.394974 
	C141.914291,169.111542 140.325241,170.051376 140.141724,169.899109 
	C139.283569,169.187103 138.569702,168.198593 138.071167,167.178467 
	C137.203690,165.403412 136.532501,163.532425 135.192154,161.435120 
	C134.070724,158.777328 133.536163,156.386108 133.001587,153.994873 
z"/>
<path fill="#737475" opacity="1.000000" stroke="none" 
	d="
M68.744507,161.359253 
	C69.114555,161.599350 69.092834,161.712280 69.083481,161.768005 
	C65.026634,160.682663 63.169018,162.171341 62.987839,166.414597 
	C62.936539,167.615997 61.551075,168.760422 60.777489,169.930984 
	C60.167244,168.753555 59.317841,167.634201 59.013840,166.382401 
	C58.708092,165.123444 58.681156,163.662628 59.011665,162.417603 
	C59.414940,160.898438 60.318237,159.512009 61.005280,158.068176 
	C63.370293,159.305893 67.758766,155.656250 68.744507,161.359253 
z"/>
<path fill="#6F7071" opacity="1.000000" stroke="none" 
	d="
M184.070145,161.606461 
	C180.237564,161.624023 181.638992,164.682724 181.024002,166.656616 
	C180.655762,167.838547 179.704285,168.838760 179.014954,169.920639 
	C178.344772,168.812973 177.405304,167.778473 177.079010,166.577377 
	C176.742401,165.338409 177.100662,163.928589 176.983444,162.608765 
	C176.602371,158.317657 178.329758,157.076416 182.731491,159.191757 
	C183.500778,160.232971 183.785461,160.919708 184.070145,161.606461 
z"/>
<path fill="#6A6B6C" opacity="1.000000" stroke="none" 
	d="
M184.274658,161.989716 
	C183.785461,160.919708 183.500778,160.232971 183.110535,159.284882 
	C184.879974,159.511292 188.160904,159.666534 188.369461,160.548416 
	C189.026016,163.324554 188.569244,166.375870 188.400894,169.312485 
	C188.387558,169.545319 187.055008,170.059006 186.722672,169.843933 
	C185.999680,169.376068 185.187225,168.593903 185.020630,167.810608 
	C184.644028,166.039780 184.636688,164.190399 184.274658,161.989716 
z"/>
<path fill="#5A5B5C" opacity="1.000000" stroke="none" 
	d="
M132.753494,153.890961 
	C133.536163,156.386108 134.070724,158.777328 134.751266,161.491089 
	C134.824982,162.005722 134.752716,162.197800 134.203949,162.811646 
	C133.459290,165.385696 133.191132,167.537994 132.922958,169.690277 
	C132.117020,168.646561 130.705566,167.651657 130.616760,166.550110 
	C130.330963,163.005127 130.533081,159.420807 130.929565,155.320618 
	C131.535110,154.495697 131.758163,154.201797 131.981201,153.907898 
	C132.155930,153.867630 132.330673,153.827347 132.753494,153.890961 
z"/>
<path fill="#D3D3D4" opacity="1.000000" stroke="none" 
	d="
M80.834656,166.918137 
	C78.307274,167.190521 75.867081,167.057465 73.426895,166.924393 
	C73.399864,166.430481 73.372841,165.936569 73.345818,165.442657 
	C75.578171,165.264893 77.810524,165.087128 80.473656,164.882965 
	C80.910233,165.408615 80.916046,165.960648 80.834656,166.918137 
z"/>
<path fill="#757577" opacity="1.000000" stroke="none" 
	d="
M51.661308,162.292999 
	C52.130352,164.189178 52.574570,166.512970 53.027214,169.231232 
	C52.569252,167.324005 52.102863,165.022324 51.661308,162.292999 
z"/>
<path fill="#7A7B7C" opacity="1.000000" stroke="none" 
	d="
M133.291000,169.696320 
	C133.191132,167.537994 133.459290,165.385696 134.024750,163.061981 
	C134.101044,165.161163 133.880051,167.431763 133.291000,169.696320 
z"/>
<path fill="#757577" opacity="1.000000" stroke="none" 
	d="
M47.296318,169.549988 
	C47.158340,167.543091 47.353832,165.458847 47.811817,163.180756 
	C47.926132,165.148834 47.777958,167.310745 47.296318,169.549988 
z"/>
<path fill="#757577" opacity="1.000000" stroke="none" 
	d="
M48.794998,158.671265 
	C48.310711,157.603745 47.655426,156.194824 47.000259,154.391281 
	C47.541588,155.441055 48.082798,156.885483 48.794998,158.671265 
z"/>
<path fill="#757577" opacity="1.000000" stroke="none" 
	d="
M49.270737,161.561584 
	C49.565819,161.363617 50.234203,161.111618 51.020203,161.075470 
	C50.639893,161.363388 50.141968,161.435471 49.270737,161.561584 
z"/>
<path fill="#68696B" opacity="1.000000" stroke="none" 
	d="
M161.730759,158.381516 
	C161.616730,158.962357 161.080109,159.452713 160.160919,159.983459 
	C160.288284,159.446243 160.798218,158.868637 161.730759,158.381516 
z"/>
<path fill="#7A7B7C" opacity="1.000000" stroke="none" 
	d="
M131.663971,153.903290 
	C131.758163,154.201797 131.535110,154.495697 131.036209,154.859436 
	C130.955811,154.585739 131.151276,154.242218 131.663971,153.903290 
z"/>
<path fill="#E8F4FB" opacity="1.000000" stroke="none" 
	d="
M150.908081,70.591904 
	C148.889938,69.300613 146.702133,68.238884 145.788483,66.505547 
	C145.274445,65.530334 146.431595,62.908752 147.595139,61.975029 
	C149.975174,60.065125 152.853409,60.408401 154.339630,63.222332 
	C156.085983,66.528763 155.212784,69.323921 150.908081,70.591904 
z"/>
<path fill="#E8F4FB" opacity="1.000000" stroke="none" 
	d="
M108.797974,68.026489 
	C107.483444,64.151230 108.890602,61.460125 112.351906,61.246357 
	C114.091927,61.138893 117.178413,63.317524 117.477531,64.879524 
	C117.777130,66.443962 115.714508,69.093124 113.998970,70.159340 
	C113.062248,70.741516 110.699257,69.028847 108.797974,68.026489 
z"/>
<path fill="#E8F4FB" opacity="1.000000" stroke="none" 
	d="
M126.981812,65.122673 
	C128.215103,61.128761 130.912750,59.723732 133.896774,61.783718 
	C135.332047,62.774551 136.417557,66.491928 135.655136,67.839424 
	C134.847763,69.266357 131.629562,69.879318 129.521301,69.768089 
	C128.587524,69.718819 127.793907,67.012848 126.981812,65.122673 
z"/>
<path fill="#ECECEC" opacity="1.000000" stroke="none" 
	d="
M140.938919,127.807961 
	C141.274536,125.063126 139.593048,121.261543 144.266922,122.023895 
	C146.090134,122.321281 148.138397,123.668915 149.190826,125.166138 
	C149.667969,125.844917 148.155334,129.179382 147.217102,129.335403 
	C145.238815,129.664398 143.044189,128.692505 140.938919,127.807961 
z"/>
<path fill="#D3D3D4" opacity="1.000000" stroke="none" 
	d="
M197.247223,161.072235 
	C198.213013,162.722794 198.800980,164.405243 199.388962,166.087677 
	C198.065903,166.107483 195.914505,166.623093 195.574249,166.054626 
	C194.530441,164.310822 193.709457,162.015686 197.247223,161.072235 
z"/>
<path fill="#969697" opacity="1.000000" stroke="none" 
	d="
M196.267853,169.142578 
	C196.790131,169.217789 197.055496,169.326950 197.320877,169.436111 
	C196.853622,169.552963 196.388702,169.682129 195.916214,169.771179 
	C195.856827,169.782364 195.670288,169.544983 195.694748,169.487595 
	C195.748367,169.361847 195.899582,169.277695 196.267853,169.142578 
z"/>
<path fill="#68696B" opacity="1.000000" stroke="none" 
	d="
M164.550873,160.462830 
	C164.587250,160.521072 164.514496,160.404602 164.550873,160.462830 
z"/>
</svg>