<svg version="1.1" id="Layer_1" xmlns="http://www.w3.org/2000/svg" xmlns:xlink="http://www.w3.org/1999/xlink" x="0px" y="0px"
	 width="100%" viewBox="0 0 2400 1800" enable-background="new 0 0 2400 1800" xml:space="preserve">
<path fill="#FFFFFF" opacity="1.000000" stroke="none" 
	d="
M1412.000000,1802.000000 
	C941.389160,1802.000000 471.778320,1802.000000 2.083731,1802.000000 
	C2.083731,1202.127197 2.083731,602.254272 2.083731,2.190698 
	C801.777710,2.190698 1601.555542,2.190698 2401.666504,2.190698 
	C2401.666504,601.999878 2401.666504,1201.999878 2401.666504,1802.000000 
	C2072.253662,1802.000000 1742.626831,1802.000000 1412.000000,1802.000000 
M1979.590576,1312.407471 
	C1979.598633,1017.452209 1979.657349,722.496887 1979.535645,427.541656 
	C1979.523560,398.442841 1975.262573,369.780548 1967.763550,341.630798 
	C1930.291748,200.969879 1804.310303,89.326332 1644.975586,92.303383 
	C1606.328125,93.025482 1567.655762,92.410606 1528.994873,92.410614 
	C1273.366333,92.410652 1017.737671,92.445488 762.109070,92.364456 
	C731.966675,92.354897 702.163574,94.940239 673.122131,103.210449 
	C576.064636,130.849792 506.625458,191.570831 462.278168,281.402130 
	C437.969696,330.642090 427.918488,383.236481 427.953369,438.099426 
	C428.133698,721.723755 428.035400,1005.348206 428.041870,1288.972656 
	C428.042114,1299.288330 428.122009,1309.603882 427.793823,1321.781982 
	C428.406219,1350.747437 427.316101,1379.869751 429.970459,1408.646851 
	C436.320190,1477.487915 461.951111,1539.145630 506.129089,1592.286133 
	C569.441101,1668.442505 650.571655,1711.016968 750.273621,1711.307861 
	C1052.210693,1712.188965 1354.151733,1711.667725 1656.091309,1711.573242 
	C1689.651367,1711.562744 1722.590210,1706.474121 1754.141479,1694.933228 
	C1860.692139,1655.958618 1929.156860,1580.525269 1964.222412,1473.615967 
	C1981.260010,1421.671021 1980.669922,1367.998413 1979.590576,1312.407471 
z"/>
<path fill="#D11032" opacity="1.000000" stroke="none" 
	d="
M428.164795,1319.919556 
	C428.122009,1309.603882 428.042114,1299.288330 428.041870,1288.972656 
	C428.035400,1005.348206 428.133698,721.723755 427.953369,438.099426 
	C427.918488,383.236481 437.969696,330.642090 462.278168,281.402130 
	C506.625458,191.570831 576.064636,130.849792 673.122131,103.210449 
	C702.163574,94.940239 731.966675,92.354897 762.109070,92.364456 
	C1017.737671,92.445488 1273.366333,92.410652 1528.994873,92.410614 
	C1567.655762,92.410606 1606.328125,93.025482 1644.975586,92.303383 
	C1804.310303,89.326332 1930.291748,200.969879 1967.763550,341.630798 
	C1975.262573,369.780548 1979.523560,398.442841 1979.535645,427.541656 
	C1979.657349,722.496887 1979.598633,1017.452209 1979.035522,1314.012939 
	C1978.891846,1322.656860 1975.018311,1328.967896 1974.420898,1335.518799 
	C1972.986572,1351.247192 1968.536743,1366.172119 1963.779541,1380.910767 
	C1954.905029,1408.406250 1943.504761,1434.863159 1928.291138,1459.630981 
	C1913.640015,1483.483154 1897.442627,1506.085571 1877.270142,1525.545410 
	C1865.814575,1536.595947 1853.641113,1546.913574 1841.615845,1557.359619 
	C1821.985596,1574.411987 1799.879883,1587.848022 1777.196411,1600.298706 
	C1756.465210,1611.677979 1734.763428,1620.696533 1711.693848,1626.498047 
	C1696.213501,1630.391235 1680.781372,1634.002930 1664.752563,1634.004150 
	C1355.562866,1634.026611 1046.373047,1634.135620 737.184021,1633.674561 
	C721.209412,1633.650757 704.893372,1629.977905 689.349487,1625.749634 
	C663.063843,1618.599731 638.814697,1606.176147 615.499573,1592.216919 
	C586.046570,1574.582764 559.270020,1553.311646 534.721130,1529.392334 
	C524.771057,1519.697510 516.144958,1508.629028 507.070618,1498.053345 
	C488.771240,1476.726440 475.420471,1452.306274 463.516479,1427.070312 
	C458.718689,1416.899292 454.428375,1406.432739 450.722870,1395.815918 
	C445.385712,1380.524170 440.608795,1365.027832 435.949158,1349.511719 
	C433.017303,1339.748901 430.737244,1329.790283 428.164795,1319.919556 
M1382.466309,736.554077 
	C1407.018188,793.410034 1432.614746,849.841797 1455.905640,907.209656 
	C1505.295898,1028.862549 1546.495239,1153.399658 1583.742798,1279.261719 
	C1584.533325,1281.933105 1585.617920,1284.517456 1587.608276,1290.032227 
	C1590.797852,1285.646973 1592.466553,1282.664795 1594.766113,1280.294678 
	C1630.233765,1243.736572 1660.759766,1203.431274 1685.406860,1158.876587 
	C1756.516602,1030.330566 1778.632202,893.365967 1752.151733,749.187012 
	C1726.607544,610.106262 1660.467896,493.119995 1551.276367,402.873627 
	C1420.407471,294.710968 1270.086182,254.886459 1102.663818,285.988342 
	C986.880859,307.497192 889.097412,363.660400 808.904724,449.260010 
	C706.034363,559.066406 653.432556,690.360352 647.556641,840.466309 
	C644.994995,905.906677 653.004578,970.134094 671.587280,1032.984497 
	C672.193542,1035.035034 673.209473,1036.964355 674.783630,1040.753662 
	C721.547424,874.851379 767.759338,710.906921 814.544250,544.929626 
	C854.989807,615.931519 894.439087,685.184570 934.636536,755.750916 
	C1004.295715,618.899780 1074.071167,484.311646 1144.861328,349.829559 
	C1146.730835,351.295044 1147.613647,351.800232 1148.255371,352.520233 
	C1152.911255,357.743561 1157.635864,362.912140 1162.122803,368.278656 
	C1195.966309,408.756866 1225.653076,452.207520 1253.613525,496.865509 
	C1301.586060,573.486572 1343.497803,653.381775 1382.466309,736.554077 
M1382.900391,1274.126831 
	C1367.215210,1208.065430 1352.510376,1141.752319 1335.618774,1076.000854 
	C1309.093994,972.751587 1277.182007,871.140991 1237.731567,772.011658 
	C1213.200317,710.370728 1185.651001,650.164551 1151.873291,592.952942 
	C1150.058960,589.879944 1148.035522,586.930420 1145.276367,582.622742 
	C1073.816772,693.493652 1005.604675,804.839600 934.851013,916.188599 
	C897.091675,842.933289 860.123596,771.213135 822.186462,697.612976 
	C819.801941,703.681824 818.156738,707.550659 816.746948,711.503357 
	C774.251648,830.648987 731.815002,949.815552 689.199951,1068.918335 
	C687.041687,1074.950317 687.199585,1080.075806 689.571960,1086.023804 
	C720.105286,1162.575806 764.052307,1230.323486 822.918091,1288.050049 
	C916.713318,1380.030029 1028.802368,1433.537598 1159.958618,1445.338501 
	C1229.425415,1451.588745 1297.651489,1443.820435 1364.217529,1422.752563 
	C1379.044189,1418.059814 1393.593384,1412.489868 1409.387207,1406.930786 
	C1400.564453,1362.499756 1391.952393,1319.129272 1382.900391,1274.126831 
z"/>
<path fill="#9A1D22" opacity="1.000000" stroke="none" 
	d="
M427.979309,1320.850830 
	C430.737244,1329.790283 433.017303,1339.748901 435.949158,1349.511719 
	C440.608795,1365.027832 445.385712,1380.524170 450.722870,1395.815918 
	C454.428375,1406.432739 458.718689,1416.899292 463.516479,1427.070312 
	C475.420471,1452.306274 488.771240,1476.726440 507.070618,1498.053345 
	C516.144958,1508.629028 524.771057,1519.697510 534.721130,1529.392334 
	C559.270020,1553.311646 586.046570,1574.582764 615.499573,1592.216919 
	C638.814697,1606.176147 663.063843,1618.599731 689.349487,1625.749634 
	C704.893372,1629.977905 721.209412,1633.650757 737.184021,1633.674561 
	C1046.373047,1634.135620 1355.562866,1634.026611 1664.752563,1634.004150 
	C1680.781372,1634.002930 1696.213501,1630.391235 1711.693848,1626.498047 
	C1734.763428,1620.696533 1756.465210,1611.677979 1777.196411,1600.298706 
	C1799.879883,1587.848022 1821.985596,1574.411987 1841.615845,1557.359619 
	C1853.641113,1546.913574 1865.814575,1536.595947 1877.270142,1525.545410 
	C1897.442627,1506.085571 1913.640015,1483.483154 1928.291138,1459.630981 
	C1943.504761,1434.863159 1954.905029,1408.406250 1963.779541,1380.910767 
	C1968.536743,1366.172119 1972.986572,1351.247192 1974.420898,1335.518799 
	C1975.018311,1328.967896 1978.891846,1322.656860 1978.832886,1314.947266 
	C1980.669922,1367.998413 1981.260010,1421.671021 1964.222412,1473.615967 
	C1929.156860,1580.525269 1860.692139,1655.958618 1754.141479,1694.933228 
	C1722.590210,1706.474121 1689.651367,1711.562744 1656.091309,1711.573242 
	C1354.151733,1711.667725 1052.210693,1712.188965 750.273621,1711.307861 
	C650.571655,1711.016968 569.441101,1668.442505 506.129089,1592.286133 
	C461.951111,1539.145630 436.320190,1477.487915 429.970459,1408.646851 
	C427.316101,1379.869751 428.406219,1350.747437 427.979309,1320.850830 
z"/>
<path fill="#FFFEFE" opacity="1.000000" stroke="none" 
	d="
M1382.181763,735.858154 
	C1343.497803,653.381775 1301.586060,573.486572 1253.613525,496.865509 
	C1225.653076,452.207520 1195.966309,408.756866 1162.122803,368.278656 
	C1157.635864,362.912140 1152.911255,357.743561 1148.255371,352.520233 
	C1147.613647,351.800232 1146.730835,351.295044 1144.861328,349.829559 
	C1074.071167,484.311646 1004.295715,618.899780 934.636536,755.750916 
	C894.439087,685.184570 854.989807,615.931519 814.544250,544.929626 
	C767.759338,710.906921 721.547424,874.851379 674.783630,1040.753662 
	C673.209473,1036.964355 672.193542,1035.035034 671.587280,1032.984497 
	C653.004578,970.134094 644.994995,905.906677 647.556641,840.466309 
	C653.432556,690.360352 706.034363,559.066406 808.904724,449.260010 
	C889.097412,363.660400 986.880859,307.497192 1102.663818,285.988342 
	C1270.086182,254.886459 1420.407471,294.710968 1551.276367,402.873627 
	C1660.467896,493.119995 1726.607544,610.106262 1752.151733,749.187012 
	C1778.632202,893.365967 1756.516602,1030.330566 1685.406860,1158.876587 
	C1660.759766,1203.431274 1630.233765,1243.736572 1594.766113,1280.294678 
	C1592.466553,1282.664795 1590.797852,1285.646973 1587.608276,1290.032227 
	C1585.617920,1284.517456 1584.533325,1281.933105 1583.742798,1279.261719 
	C1546.495239,1153.399658 1505.295898,1028.862549 1455.905640,907.209656 
	C1432.614746,849.841797 1407.018188,793.410034 1382.181763,735.858154 
z"/>
<path fill="#FFFEFE" opacity="1.000000" stroke="none" 
	d="
M1383.120361,1274.942871 
	C1391.952393,1319.129272 1400.564453,1362.499756 1409.387207,1406.930786 
	C1393.593384,1412.489868 1379.044189,1418.059814 1364.217529,1422.752563 
	C1297.651489,1443.820435 1229.425415,1451.588745 1159.958618,1445.338501 
	C1028.802368,1433.537598 916.713318,1380.030029 822.918091,1288.050049 
	C764.052307,1230.323486 720.105286,1162.575806 689.571960,1086.023804 
	C687.199585,1080.075806 687.041687,1074.950317 689.199951,1068.918335 
	C731.815002,949.815552 774.251648,830.648987 816.746948,711.503357 
	C818.156738,707.550659 819.801941,703.681824 822.186462,697.612976 
	C860.123596,771.213135 897.091675,842.933289 934.851013,916.188599 
	C1005.604675,804.839600 1073.816772,693.493652 1145.276367,582.622742 
	C1148.035522,586.930420 1150.058960,589.879944 1151.873291,592.952942 
	C1185.651001,650.164551 1213.200317,710.370728 1237.731567,772.011658 
	C1277.182007,871.140991 1309.093994,972.751587 1335.618774,1076.000854 
	C1352.510376,1141.752319 1367.215210,1208.065430 1383.120361,1274.942871 
z"/>
</svg>