<svg id="svg" version="1.1" xmlns="http://www.w3.org/2000/svg" xmlns:xlink="http://www.w3.org/1999/xlink" width="400" height="400" viewBox="0, 0, 400,400"><g id="svgg"><path id="path0" d="M141.212 50.298 C 138.533 50.482,138.002 50.886,137.991 52.749 C 137.973 55.683,135.615 58.957,132.933 59.770 C 131.401 60.235,130.039 61.596,129.194 63.507 C 128.108 65.961,127.483 66.602,124.758 68.055 C 122.834 69.080,122.274 69.646,121.212 71.639 C 120.042 73.832,117.731 76.000,116.561 76.000 C 115.667 76.000,113.956 77.713,113.026 79.539 C 111.844 81.861,110.553 83.080,107.896 84.382 C 106.173 85.226,105.645 85.753,104.809 87.463 C 103.504 90.132,102.619 91.074,100.325 92.237 C 98.486 93.170,97.135 94.641,95.980 96.968 C 95.384 98.167,92.661 100.400,91.794 100.400 C 90.869 100.400,89.170 102.086,88.226 103.939 C 87.116 106.121,86.017 107.200,83.750 108.337 C 82.107 109.162,80.000 111.272,80.000 112.093 C 80.000 113.032,77.851 115.262,76.075 116.166 C 73.877 117.285,72.802 118.379,71.656 120.662 C 70.730 122.509,69.492 123.629,67.516 124.409 C 64.663 125.537,63.822 126.953,65.242 128.238 C 66.064 128.982,68.358 129.005,160.142 129.200 L 254.200 129.400 256.451 130.311 C 259.690 131.620,265.527 137.675,266.512 140.746 C 267.154 142.749,267.200 148.852,267.201 232.546 C 267.201 317.099,267.241 322.280,267.901 323.600 C 268.961 325.723,270.324 325.699,272.251 323.523 C 273.090 322.575,274.947 320.720,276.376 319.400 C 277.806 318.080,279.611 316.280,280.388 315.401 C 281.165 314.521,282.669 312.991,283.731 312.001 C 286.348 309.561,300.643 295.677,306.383 290.000 C 314.420 282.051,338.505 258.616,340.687 256.622 C 342.128 255.305,343.057 254.015,343.687 252.457 L 344.600 250.200 344.600 156.000 C 344.600 67.101,344.561 61.728,343.901 60.522 C 343.517 59.819,342.230 58.599,341.041 57.810 C 338.801 56.323,337.857 54.899,337.286 52.147 C 336.984 50.690,336.861 50.584,335.183 50.330 C 333.369 50.055,145.212 50.024,141.212 50.298 M118.600 190.781 C 114.492 191.111,113.827 191.503,112.977 194.096 C 112.598 195.253,111.638 197.460,110.844 199.000 L 109.400 201.800 109.400 241.800 L 109.400 281.800 110.256 283.400 C 110.727 284.280,111.388 285.931,111.725 287.069 C 113.406 292.738,108.408 292.200,159.400 292.200 C 208.026 292.200,204.935 292.380,206.181 289.482 C 208.441 284.225,208.433 284.408,208.304 240.800 L 208.185 200.600 206.735 196.618 C 204.921 191.638,204.669 191.435,199.615 190.860 C 195.266 190.365,124.625 190.297,118.600 190.781 " stroke="none" fill="#0b3968" fill-rule="evenodd"></path><path id="path1" d="M0.000 200.000 L 0.000 400.000 200.000 400.000 L 400.000 400.000 400.000 200.000 L 400.000 0.000 200.000 0.000 L 0.000 0.000 0.000 200.000 M344.560 49.607 C 346.779 50.278,346.838 50.363,347.788 54.200 C 349.691 61.885,349.599 56.681,349.600 156.723 C 349.600 221.038,349.466 251.758,349.175 253.723 C 348.323 259.499,347.110 261.643,343.948 262.964 C 342.334 263.638,340.763 265.320,339.578 267.644 C 339.039 268.699,337.890 269.780,335.912 271.091 C 333.651 272.589,332.741 273.498,331.691 275.310 C 330.666 277.079,329.863 277.896,328.260 278.801 C 325.833 280.171,324.544 281.475,323.088 284.032 C 322.292 285.431,321.477 286.167,319.639 287.147 C 317.670 288.196,316.922 288.909,315.529 291.064 C 314.231 293.071,313.220 294.080,311.285 295.302 C 309.343 296.529,308.366 297.507,307.134 299.458 C 305.899 301.414,304.994 302.318,303.261 303.330 C 301.940 304.101,300.501 305.367,299.800 306.375 C 298.145 308.753,295.638 311.273,294.157 312.048 C 293.475 312.404,291.901 313.969,290.659 315.526 C 289.417 317.083,287.401 319.021,286.179 319.831 C 284.789 320.754,283.355 322.193,282.347 323.678 C 281.355 325.139,279.941 326.566,278.668 327.391 C 277.530 328.129,275.970 329.584,275.200 330.625 C 272.229 334.642,271.061 335.601,269.147 335.591 C 266.247 335.577,262.485 333.439,261.066 331.000 C 260.717 330.401,260.550 307.036,260.400 237.800 C 260.223 155.906,260.130 145.275,259.589 144.300 C 259.253 143.695,257.493 141.850,255.679 140.200 L 252.380 137.200 160.090 137.206 C 57.017 137.212,55.487 137.178,55.034 134.830 C 53.971 129.318,54.454 124.800,56.107 124.800 C 56.679 124.800,57.715 124.103,58.817 122.978 C 59.798 121.976,61.834 120.311,63.343 119.278 C 65.087 118.084,66.357 116.867,66.832 115.938 C 67.242 115.133,68.419 113.783,69.448 112.937 C 72.016 110.826,73.857 108.992,76.131 106.283 C 77.269 104.927,78.857 103.579,80.001 102.999 C 81.068 102.459,82.050 101.671,82.185 101.249 C 82.729 99.534,84.907 97.174,87.774 95.192 C 90.036 93.628,91.078 92.598,91.871 91.141 C 92.892 89.265,95.840 86.800,97.062 86.800 C 97.351 86.800,98.320 85.640,99.216 84.222 C 101.108 81.226,103.033 79.414,105.407 78.397 C 106.655 77.862,107.215 77.333,107.550 76.372 C 108.231 74.417,109.864 72.486,111.570 71.615 C 113.847 70.454,115.538 68.889,116.451 67.099 C 117.478 65.087,118.955 63.689,120.970 62.823 C 122.194 62.297,122.909 61.538,124.216 59.374 C 125.636 57.025,126.329 56.331,128.746 54.841 C 131.144 53.362,131.600 52.909,131.600 52.003 C 131.600 50.533,132.750 49.608,135.062 49.216 C 138.931 48.560,342.353 48.940,344.560 49.607 M206.656 186.530 C 208.760 187.220,211.600 189.784,211.600 190.993 C 211.600 191.318,212.663 192.757,213.962 194.190 C 217.893 198.528,217.600 194.707,217.600 241.656 C 217.600 287.619,217.769 284.790,214.784 288.659 C 214.130 289.507,212.970 291.130,212.207 292.266 C 209.943 295.636,209.488 295.852,200.181 297.975 C 195.461 299.051,124.233 299.281,120.058 298.234 C 118.816 297.922,116.810 297.541,115.600 297.386 C 108.406 296.468,103.107 291.619,101.602 284.578 C 101.316 283.240,101.215 269.002,101.290 240.600 L 101.400 198.600 102.319 196.600 C 102.824 195.500,104.005 193.790,104.944 192.800 C 105.883 191.810,107.129 190.343,107.714 189.541 C 109.412 187.213,111.852 186.272,117.000 185.963 C 127.542 185.329,204.477 185.816,206.656 186.530 " stroke="none" fill="#fbfbfb" fill-rule="evenodd"></path><path id="path2" d="M189.132 49.500 C 216.045 49.557,259.965 49.557,286.732 49.500 C 313.499 49.443,291.480 49.397,237.800 49.397 C 184.120 49.397,162.219 49.443,189.132 49.500 M136.200 49.889 C 134.913 50.206,134.516 50.716,134.246 52.400 C 133.977 54.083,132.895 55.325,129.601 57.727 C 128.612 58.448,127.134 59.996,126.316 61.167 C 125.498 62.338,123.763 64.071,122.460 65.019 C 121.149 65.973,119.333 67.824,118.393 69.163 C 117.419 70.553,115.879 72.108,114.778 72.814 C 112.975 73.971,111.007 75.956,108.872 78.771 C 108.361 79.444,106.957 80.650,105.751 81.450 C 104.400 82.347,102.948 83.803,101.970 85.244 C 100.966 86.722,99.498 88.183,97.979 89.215 C 96.483 90.230,94.837 91.859,93.623 93.523 C 92.550 94.996,91.121 96.522,90.449 96.915 C 88.454 98.081,86.824 99.601,85.177 101.831 C 84.324 102.986,82.548 104.687,81.230 105.611 C 79.868 106.566,78.184 108.236,77.328 109.479 C 76.466 110.731,74.683 112.494,73.157 113.604 C 71.549 114.773,69.807 116.518,68.767 118.000 C 67.747 119.455,66.343 120.868,65.328 121.463 C 63.313 122.644,60.000 126.190,60.000 127.165 C 60.000 128.623,62.266 131.449,64.143 132.331 L 65.991 133.200 159.296 133.201 L 252.600 133.203 254.000 134.036 C 254.770 134.494,256.210 135.715,257.200 136.751 C 258.190 137.786,259.772 139.260,260.716 140.026 C 263.809 142.535,263.563 134.545,263.582 233.245 C 263.601 326.588,263.559 324.495,265.504 328.400 C 268.318 334.049,266.572 335.382,301.145 301.200 C 305.484 296.910,309.747 292.756,310.617 291.970 C 311.488 291.183,313.151 289.517,314.314 288.266 C 315.477 287.016,317.114 285.539,317.952 284.984 C 318.790 284.430,320.405 282.816,321.541 281.398 C 322.677 279.981,324.572 278.092,325.751 277.202 C 326.931 276.311,328.738 274.510,329.768 273.199 C 330.799 271.888,332.712 269.991,334.020 268.985 C 335.328 267.978,337.031 266.310,337.805 265.278 C 338.579 264.245,340.408 262.410,341.868 261.200 C 348.232 255.927,347.631 267.222,347.506 155.290 L 347.400 61.000 346.567 59.000 C 346.108 57.900,345.163 56.110,344.467 55.022 C 343.770 53.934,343.200 52.639,343.200 52.144 C 343.200 51.055,341.792 49.988,340.411 50.032 L 339.400 50.063 340.500 50.465 C 341.335 50.770,341.600 51.131,341.600 51.964 C 341.600 52.645,342.281 53.958,343.397 55.430 C 347.145 60.372,346.800 50.148,346.797 156.142 C 346.794 265.180,347.232 255.987,341.850 259.963 C 339.942 261.373,336.000 265.443,336.000 266.004 C 336.000 266.123,334.822 267.111,333.381 268.199 C 331.941 269.287,330.046 271.126,329.171 272.285 C 328.295 273.445,326.407 275.333,324.974 276.481 C 323.541 277.629,321.658 279.509,320.790 280.660 C 319.922 281.810,318.534 283.237,317.706 283.832 C 316.878 284.427,314.664 286.463,312.788 288.357 C 310.911 290.251,308.295 292.790,306.974 294.000 C 305.653 295.210,303.948 296.878,303.186 297.707 C 302.424 298.536,299.538 301.416,296.773 304.107 C 265.734 334.320,268.794 332.030,266.200 326.989 L 265.000 324.657 264.800 234.228 C 264.616 151.050,264.547 143.683,263.935 142.336 C 263.158 140.623,256.609 134.163,254.471 133.000 C 253.015 132.208,252.050 132.198,159.169 132.000 L 65.338 131.800 63.843 130.660 C 60.264 127.930,60.710 125.863,65.620 122.418 C 66.943 121.490,68.735 119.770,69.602 118.597 C 70.469 117.423,71.936 115.864,72.862 115.132 C 75.077 113.379,77.533 110.927,78.917 109.086 C 79.531 108.269,81.002 106.885,82.185 106.011 C 83.369 105.137,85.172 103.336,86.193 102.009 C 87.214 100.682,89.104 98.880,90.393 98.005 C 91.681 97.130,93.139 95.826,93.632 95.107 C 95.039 93.056,96.433 91.632,98.657 89.972 C 99.789 89.128,101.499 87.408,102.457 86.150 C 103.416 84.891,105.271 83.029,106.581 82.012 C 107.891 80.994,109.790 79.091,110.802 77.781 C 111.814 76.471,113.688 74.698,114.966 73.840 C 116.373 72.896,117.997 71.299,119.078 69.796 C 120.091 68.388,121.885 66.592,123.222 65.650 C 124.612 64.669,126.220 63.043,127.143 61.684 C 128.096 60.281,129.667 58.708,131.167 57.655 C 134.035 55.644,134.877 54.511,135.180 52.261 C 135.381 50.764,135.536 50.584,137.000 50.143 C 138.526 49.684,137.876 49.478,136.200 49.889 M117.600 187.971 C 113.001 188.333,111.120 189.409,108.939 192.926 C 108.368 193.847,107.228 195.500,106.406 196.600 C 103.882 199.975,104.000 197.761,104.000 241.811 C 104.000 287.370,103.675 282.752,107.296 288.680 C 111.842 296.123,110.966 296.001,160.021 295.997 C 208.080 295.992,208.005 296.004,210.811 288.467 C 211.275 287.220,212.228 285.304,212.928 284.209 L 214.200 282.218 214.200 241.809 L 214.200 201.400 212.887 199.200 C 212.165 197.990,210.956 195.718,210.199 194.152 C 208.682 191.010,206.815 189.105,204.511 188.346 C 202.846 187.798,124.108 187.458,117.600 187.971 M204.099 189.139 C 206.482 189.930,207.455 191.087,210.043 196.200 L 212.472 201.000 212.862 206.800 C 213.087 210.142,213.193 227.176,213.112 247.000 L 212.972 281.400 211.533 284.400 C 210.742 286.050,209.631 288.423,209.065 289.673 C 207.690 292.708,205.769 293.862,201.151 294.425 C 195.712 295.089,116.211 294.719,114.315 294.022 C 111.773 293.086,110.221 291.408,107.566 286.725 L 105.000 282.200 104.884 245.343 C 104.755 204.148,104.877 200.875,106.639 198.379 C 107.277 197.474,108.371 195.803,109.070 194.667 C 111.888 190.081,113.065 189.228,117.200 188.777 C 122.050 188.248,202.424 188.583,204.099 189.139 " stroke="none" fill="#8a9cb4" fill-rule="evenodd"></path><path id="path3" d="M137.000 50.141 C 135.536 50.584,135.381 50.764,135.180 52.261 C 134.877 54.511,134.035 55.644,131.167 57.655 C 129.667 58.708,128.096 60.281,127.143 61.684 C 126.220 63.043,124.612 64.669,123.222 65.650 C 121.885 66.592,120.091 68.388,119.078 69.796 C 117.997 71.299,116.373 72.896,114.966 73.840 C 113.688 74.698,111.814 76.471,110.802 77.781 C 109.790 79.091,107.891 80.994,106.581 82.012 C 105.271 83.029,103.416 84.891,102.457 86.150 C 101.499 87.408,99.789 89.128,98.657 89.972 C 96.433 91.632,95.039 93.056,93.632 95.107 C 93.139 95.826,91.681 97.130,90.393 98.005 C 89.104 98.880,87.214 100.682,86.193 102.009 C 85.172 103.336,83.369 105.137,82.185 106.011 C 81.002 106.885,79.531 108.269,78.917 109.086 C 77.533 110.927,75.077 113.379,72.862 115.132 C 71.936 115.864,70.469 117.423,69.602 118.597 C 68.735 119.770,66.943 121.490,65.620 122.418 C 60.710 125.863,60.264 127.930,63.843 130.660 L 65.338 131.800 159.169 132.000 C 252.050 132.198,253.015 132.208,254.471 133.000 C 256.609 134.163,263.158 140.623,263.935 142.336 C 264.547 143.683,264.616 151.050,264.800 234.228 L 265.000 324.657 266.200 326.989 C 268.582 331.618,268.411 331.706,281.264 319.200 C 287.029 313.590,294.009 306.798,296.773 304.107 C 299.538 301.416,302.424 298.536,303.186 297.707 C 303.948 296.878,305.653 295.210,306.974 294.000 C 308.295 292.790,310.911 290.251,312.788 288.357 C 314.664 286.463,316.878 284.427,317.706 283.832 C 318.534 283.237,319.922 281.810,320.790 280.660 C 321.658 279.509,323.541 277.629,324.974 276.481 C 326.407 275.333,328.295 273.445,329.171 272.285 C 330.046 271.126,331.941 269.287,333.381 268.199 C 334.822 267.111,336.000 266.123,336.000 266.004 C 336.000 265.443,339.942 261.373,341.850 259.963 C 347.232 255.987,346.794 265.180,346.797 156.142 C 346.800 50.148,347.145 60.372,343.397 55.430 C 342.286 53.965,341.600 52.644,341.600 51.969 C 341.600 49.673,347.714 49.806,238.800 49.728 C 161.371 49.673,138.236 49.767,137.000 50.141 M335.183 50.330 C 336.861 50.584,336.984 50.690,337.286 52.147 C 337.857 54.899,338.801 56.323,341.041 57.810 C 342.230 58.599,343.517 59.819,343.901 60.522 C 344.561 61.728,344.600 67.101,344.600 156.000 L 344.600 250.200 343.687 252.457 C 343.057 254.015,342.128 255.305,340.687 256.622 C 338.505 258.616,314.420 282.051,306.383 290.000 C 300.643 295.677,286.348 309.561,283.731 312.001 C 282.669 312.991,281.165 314.521,280.388 315.401 C 279.611 316.280,277.806 318.080,276.376 319.400 C 274.947 320.720,273.090 322.575,272.251 323.523 C 270.324 325.699,268.961 325.723,267.901 323.600 C 267.241 322.280,267.201 317.099,267.201 232.546 C 267.200 148.852,267.154 142.749,266.512 140.746 C 265.527 137.675,259.690 131.620,256.451 130.311 L 254.200 129.400 160.142 129.200 C 68.358 129.005,66.064 128.982,65.242 128.238 C 63.822 126.953,64.663 125.537,67.516 124.409 C 69.492 123.629,70.730 122.509,71.656 120.662 C 72.802 118.379,73.877 117.285,76.075 116.166 C 77.851 115.262,80.000 113.032,80.000 112.093 C 80.000 111.272,82.107 109.162,83.750 108.337 C 86.017 107.200,87.116 106.121,88.226 103.939 C 89.170 102.086,90.869 100.400,91.794 100.400 C 92.661 100.400,95.384 98.167,95.980 96.968 C 97.135 94.641,98.486 93.170,100.325 92.237 C 102.619 91.074,103.504 90.132,104.809 87.463 C 105.645 85.753,106.173 85.226,107.896 84.382 C 110.553 83.080,111.844 81.861,113.026 79.539 C 113.956 77.713,115.667 76.000,116.561 76.000 C 117.731 76.000,120.042 73.832,121.212 71.639 C 122.274 69.646,122.834 69.080,124.758 68.055 C 127.483 66.602,128.108 65.961,129.194 63.507 C 130.039 61.596,131.401 60.235,132.933 59.770 C 135.615 58.957,137.973 55.683,137.991 52.749 C 138.002 50.886,138.533 50.482,141.212 50.298 C 145.212 50.024,333.369 50.055,335.183 50.330 M117.200 188.777 C 113.065 189.228,111.888 190.081,109.070 194.667 C 108.371 195.803,107.277 197.474,106.639 198.379 C 104.877 200.875,104.755 204.148,104.884 245.343 L 105.000 282.200 107.566 286.725 C 110.221 291.408,111.773 293.086,114.315 294.022 C 116.211 294.719,195.712 295.089,201.151 294.425 C 205.769 293.862,207.690 292.708,209.065 289.673 C 209.631 288.423,210.742 286.050,211.533 284.400 L 212.972 281.400 213.112 247.000 C 213.193 227.176,213.087 210.142,212.862 206.800 L 212.472 201.000 210.043 196.200 C 207.455 191.087,206.482 189.930,204.099 189.139 C 202.424 188.583,122.050 188.248,117.200 188.777 M199.615 190.860 C 204.669 191.435,204.921 191.638,206.735 196.618 L 208.185 200.600 208.304 240.800 C 208.433 284.408,208.441 284.225,206.181 289.482 C 204.935 292.380,208.026 292.200,159.400 292.200 C 108.408 292.200,113.406 292.738,111.725 287.069 C 111.388 285.931,110.727 284.280,110.256 283.400 L 109.400 281.800 109.400 241.800 L 109.400 201.800 110.844 199.000 C 111.638 197.460,112.598 195.253,112.977 194.096 C 113.827 191.503,114.492 191.111,118.600 190.781 C 124.625 190.297,195.266 190.365,199.615 190.860 " stroke="none" fill="#748ca4" fill-rule="evenodd"></path><path id="path4" d="M135.062 49.216 C 132.750 49.608,131.600 50.533,131.600 52.003 C 131.600 52.909,131.144 53.362,128.746 54.841 C 126.329 56.331,125.636 57.025,124.216 59.374 C 122.909 61.538,122.194 62.297,120.970 62.823 C 118.955 63.689,117.478 65.087,116.451 67.099 C 115.538 68.889,113.847 70.454,111.570 71.615 C 109.864 72.486,108.231 74.417,107.550 76.372 C 107.215 77.333,106.655 77.862,105.407 78.397 C 103.033 79.414,101.108 81.226,99.216 84.222 C 98.320 85.640,97.351 86.800,97.062 86.800 C 95.840 86.800,92.892 89.265,91.871 91.141 C 91.078 92.598,90.036 93.628,87.774 95.192 C 84.907 97.174,82.729 99.534,82.185 101.249 C 82.050 101.671,81.068 102.459,80.001 102.999 C 78.857 103.579,77.269 104.927,76.131 106.283 C 73.857 108.992,72.016 110.826,69.448 112.937 C 68.419 113.783,67.242 115.133,66.832 115.938 C 66.357 116.867,65.087 118.084,63.343 119.278 C 61.834 120.311,59.798 121.976,58.817 122.978 C 57.715 124.103,56.679 124.800,56.107 124.800 C 54.454 124.800,53.971 129.318,55.034 134.830 C 55.487 137.178,57.017 137.212,160.090 137.206 L 252.380 137.200 255.679 140.200 C 257.493 141.850,259.253 143.695,259.589 144.300 C 260.130 145.275,260.223 155.906,260.400 237.800 C 260.550 307.036,260.717 330.401,261.066 331.000 C 262.485 333.439,266.247 335.577,269.147 335.591 C 271.061 335.601,272.229 334.642,275.200 330.625 C 275.970 329.584,277.530 328.129,278.668 327.391 C 279.941 326.566,281.355 325.139,282.347 323.678 C 283.355 322.193,284.789 320.754,286.179 319.831 C 287.401 319.021,289.417 317.083,290.659 315.526 C 291.901 313.969,293.475 312.404,294.157 312.048 C 295.638 311.273,298.145 308.753,299.800 306.375 C 300.501 305.367,301.940 304.101,303.261 303.330 C 304.994 302.318,305.899 301.414,307.134 299.458 C 308.366 297.507,309.343 296.529,311.285 295.302 C 313.220 294.080,314.231 293.071,315.529 291.064 C 316.922 288.909,317.670 288.196,319.639 287.147 C 321.477 286.167,322.292 285.431,323.088 284.032 C 324.544 281.475,325.833 280.171,328.260 278.801 C 329.863 277.896,330.666 277.079,331.691 275.310 C 332.741 273.498,333.651 272.589,335.912 271.091 C 337.890 269.780,339.039 268.699,339.578 267.644 C 340.763 265.320,342.334 263.638,343.948 262.964 C 347.110 261.643,348.323 259.499,349.175 253.723 C 349.886 248.908,349.757 63.391,349.040 59.800 C 348.316 56.169,347.173 51.563,346.808 50.800 C 345.928 48.962,349.217 49.019,239.800 48.951 C 183.260 48.916,136.128 49.035,135.062 49.216 M337.516 49.627 C 341.760 50.095,343.200 50.729,343.200 52.131 C 343.200 52.633,343.770 53.934,344.467 55.022 C 345.163 56.110,346.108 57.900,346.567 59.000 L 347.400 61.000 347.506 155.290 C 347.631 267.222,348.232 255.927,341.868 261.200 C 340.408 262.410,338.579 264.245,337.805 265.278 C 337.031 266.310,335.328 267.978,334.020 268.985 C 332.712 269.991,330.799 271.888,329.768 273.199 C 328.738 274.510,326.931 276.311,325.751 277.202 C 324.572 278.092,322.677 279.981,321.541 281.398 C 320.405 282.816,318.790 284.430,317.952 284.984 C 317.114 285.539,315.477 287.016,314.314 288.266 C 313.151 289.517,311.488 291.183,310.617 291.970 C 309.747 292.756,305.484 296.910,301.145 301.200 C 266.572 335.382,268.318 334.049,265.504 328.400 C 263.559 324.495,263.601 326.588,263.582 233.245 C 263.563 134.545,263.809 142.535,260.716 140.026 C 259.772 139.260,258.190 137.786,257.200 136.751 C 256.210 135.715,254.770 134.494,254.000 134.036 L 252.600 133.203 159.296 133.201 L 65.991 133.200 64.143 132.331 C 62.266 131.449,60.000 128.623,60.000 127.165 C 60.000 126.190,63.313 122.644,65.328 121.463 C 66.343 120.868,67.747 119.455,68.767 118.000 C 69.807 116.518,71.549 114.773,73.157 113.604 C 74.683 112.494,76.466 110.731,77.328 109.479 C 78.184 108.236,79.868 106.566,81.230 105.611 C 82.548 104.687,84.324 102.986,85.177 101.831 C 86.824 99.601,88.454 98.081,90.449 96.915 C 91.121 96.522,92.550 94.996,93.623 93.523 C 94.837 91.859,96.483 90.230,97.979 89.215 C 99.498 88.183,100.966 86.722,101.970 85.244 C 102.948 83.803,104.400 82.347,105.751 81.450 C 106.957 80.650,108.361 79.444,108.872 78.771 C 111.007 75.956,112.975 73.971,114.778 72.814 C 115.879 72.108,117.419 70.553,118.393 69.163 C 119.333 67.824,121.149 65.973,122.460 65.019 C 123.763 64.071,125.498 62.338,126.316 61.167 C 127.134 59.996,128.612 58.448,129.601 57.727 C 132.895 55.325,133.977 54.083,134.246 52.400 C 134.575 50.346,135.016 50.026,138.066 49.630 C 142.027 49.116,332.847 49.114,337.516 49.627 M117.000 185.963 C 111.852 186.272,109.412 187.213,107.714 189.541 C 107.129 190.343,105.883 191.810,104.944 192.800 C 104.005 193.790,102.824 195.500,102.319 196.600 L 101.400 198.600 101.290 240.600 C 101.215 269.002,101.316 283.240,101.602 284.578 C 103.107 291.619,108.406 296.468,115.600 297.386 C 116.810 297.541,118.816 297.922,120.058 298.234 C 124.233 299.281,195.461 299.051,200.181 297.975 C 209.488 295.852,209.943 295.636,212.207 292.266 C 212.970 291.130,214.130 289.507,214.784 288.659 C 217.769 284.790,217.600 287.619,217.600 241.656 C 217.600 194.707,217.893 198.528,213.962 194.190 C 212.663 192.757,211.600 191.318,211.600 190.993 C 211.600 189.784,208.760 187.220,206.656 186.530 C 204.477 185.816,127.542 185.329,117.000 185.963 M204.511 188.346 C 206.815 189.105,208.682 191.010,210.199 194.152 C 210.956 195.718,212.165 197.990,212.887 199.200 L 214.200 201.400 214.200 241.809 L 214.200 282.218 212.928 284.209 C 212.228 285.304,211.275 287.220,210.811 288.467 C 208.005 296.004,208.080 295.992,160.021 295.997 C 110.966 296.001,111.842 296.123,107.296 288.680 C 103.675 282.752,104.000 287.370,104.000 241.811 C 104.000 197.761,103.882 199.975,106.406 196.600 C 107.228 195.500,108.368 193.847,108.939 192.926 C 111.120 189.409,113.001 188.333,117.600 187.971 C 124.108 187.458,202.846 187.798,204.511 188.346 " stroke="none" fill="#9fb2c3" fill-rule="evenodd"></path></g></svg>