<svg version="1.1" id="Layer_1" xmlns="http://www.w3.org/2000/svg" xmlns:xlink="http://www.w3.org/1999/xlink" x="0px" y="0px"
	 width="100%" viewBox="0 0 200 200" enable-background="new 0 0 200 200" xml:space="preserve">
<path fill="#010100" opacity="1.000000" stroke="none" 
	d="
M1.000000,99.000000 
	C1.000000,66.369453 1.000000,33.738899 1.000000,1.054175 
	C67.556808,1.054175 134.113663,1.054175 201.000000,1.054175 
	C201.000000,33.353481 201.000000,65.708084 200.872375,98.956635 
	C199.453033,98.856064 198.032135,97.990479 196.890335,96.846344 
	C188.802505,88.742027 180.771896,80.580620 172.361221,72.071350 
	C148.462585,96.155838 124.932869,119.868553 101.728279,143.253601 
	C96.510132,138.268524 92.025513,133.984222 87.201752,129.375916 
	C111.059135,105.653831 134.703918,82.143150 158.423248,58.558334 
	C148.708572,48.790607 139.226608,39.256851 128.881714,28.855471 
	C119.472084,38.657555 110.223953,48.291405 100.605515,58.311005 
	C91.122383,48.577332 81.891991,39.103081 72.394302,29.354465 
	C70.278610,31.541901 68.458511,33.476559 66.582428,35.355320 
	C45.894451,56.072830 25.209414,76.793335 4.461327,97.450508 
	C3.623664,98.284508 2.167820,98.497612 1.000000,99.000000 
z"/>
<path fill="#010000" opacity="1.000000" stroke="none" 
	d="
M201.000000,103.000000 
	C201.000000,135.630539 201.000000,168.261093 201.000000,200.945816 
	C134.443207,200.945816 67.886360,200.945816 1.000000,200.945816 
	C1.000000,168.646515 1.000000,136.291916 1.313735,103.261154 
	C11.057509,111.810585 20.487549,121.036186 30.618984,130.947983 
	C54.352867,107.043526 77.752983,83.475235 100.777527,60.285217 
	C105.206932,64.559143 109.555969,68.755531 114.282059,73.315735 
	C90.638954,96.768951 67.095894,120.122932 43.686695,143.344116 
	C53.439190,153.154648 62.967072,162.739212 73.529747,173.364746 
	C82.515114,163.825851 91.508728,154.278198 101.426765,143.749176 
	C111.041473,153.841171 120.029686,163.275574 129.329590,173.037140 
	C134.202667,168.038223 138.669479,163.364502 143.234772,158.789017 
	C161.188416,140.795334 179.157883,122.817307 197.188553,104.900970 
	C198.144653,103.950928 199.715393,103.619438 201.000000,103.000000 
z"/>
<path fill="#F8572D" opacity="1.000000" stroke="none" 
	d="
M201.000000,102.600006 
	C199.715393,103.619438 198.144653,103.950928 197.188553,104.900970 
	C179.157883,122.817307 161.188416,140.795334 143.234772,158.789017 
	C138.669479,163.364502 134.202667,168.038223 129.329590,173.037140 
	C120.029686,163.275574 111.041473,153.841171 101.426765,143.749176 
	C91.508728,154.278198 82.515114,163.825851 73.529747,173.364746 
	C62.967072,162.739212 53.439190,153.154648 43.686695,143.344116 
	C67.095894,120.122932 90.638954,96.768951 114.282059,73.315735 
	C109.555969,68.755531 105.206932,64.559143 100.777527,60.285217 
	C77.752983,83.475235 54.352867,107.043526 30.618984,130.947983 
	C20.487549,121.036186 11.057509,111.810585 1.313735,102.792496 
	C1.000000,101.933327 1.000000,100.866661 1.000000,99.399994 
	C2.167820,98.497612 3.623664,98.284508 4.461327,97.450508 
	C25.209414,76.793335 45.894451,56.072830 66.582428,35.355320 
	C68.458511,33.476559 70.278610,31.541901 72.394302,29.354465 
	C81.891991,39.103081 91.122383,48.577332 100.605515,58.311005 
	C110.223953,48.291405 119.472084,38.657555 128.881714,28.855471 
	C139.226608,39.256851 148.708572,48.790607 158.423248,58.558334 
	C134.703918,82.143150 111.059135,105.653831 87.201752,129.375916 
	C92.025513,133.984222 96.510132,138.268524 101.728279,143.253601 
	C124.932869,119.868553 148.462585,96.155838 172.361221,72.071350 
	C180.771896,80.580620 188.802505,88.742027 196.890335,96.846344 
	C198.032135,97.990479 199.453033,98.856064 200.872375,99.425293 
	C201.000000,100.066673 201.000000,101.133339 201.000000,102.600006 
z"/>
</svg>