<svg version="1.1" id="Layer_1" xmlns="http://www.w3.org/2000/svg" xmlns:xlink="http://www.w3.org/1999/xlink" x="0px" y="0px"
	 width="100%" viewBox="0 0 330 330" enable-background="new 0 0 330 330" xml:space="preserve">
<path fill="#FFFFFF" opacity="1.000000" stroke="none" 
	d="
M331.000000,123.000000 
	C331.000000,192.640472 331.000000,261.780945 331.000000,330.960693 
	C221.067871,330.960693 111.135719,330.960693 1.101783,330.960693 
	C1.101783,221.109604 1.101783,111.219070 1.101783,1.164273 
	C110.999802,1.164273 220.999878,1.164273 331.000000,1.164273 
	C331.000000,41.530857 331.000000,82.015427 331.000000,123.000000 
M140.994522,170.142288 
	C140.994522,167.215469 140.994522,164.288635 140.994522,161.341080 
	C137.416840,161.341080 134.245071,161.341080 131.069107,161.341080 
	C131.069107,164.813354 131.069107,167.944580 130.150757,171.005463 
	C127.079536,171.028152 124.008324,171.050858 120.995399,170.145172 
	C120.995399,167.235474 120.995399,164.325760 120.995399,160.871857 
	C114.143448,160.871857 107.631844,160.871857 101.008621,159.982147 
	C100.981316,156.967224 100.954018,153.952286 101.854546,150.995392 
	C104.868973,150.995392 107.883400,150.995392 111.127991,150.995392 
	C111.127991,147.275024 111.127991,144.197525 112.042953,141.008453 
	C118.274513,141.008453 124.506065,141.008453 131.093369,141.008453 
	C131.093369,144.559540 131.093369,147.625534 131.093369,151.193008 
	C137.952011,151.193008 144.459732,151.193008 151.299072,151.193008 
	C151.299072,154.785477 151.299072,157.853195 151.299072,160.930878 
	C154.801239,160.930878 157.938553,160.930878 161.005356,161.874542 
	C161.005356,171.452652 161.005356,181.030762 161.005356,191.155548 
	C157.434937,191.155548 154.240204,191.155548 151.344635,191.155548 
	C151.344635,194.780121 151.344635,197.842148 151.344635,201.079803 
	C158.148727,201.079803 164.608734,201.079803 171.000015,201.006470 
	C171.000015,201.006470 170.926788,200.937576 170.994827,201.880264 
	C170.994827,208.137299 170.994827,214.394333 170.994827,220.808105 
	C177.820450,220.808105 184.205658,220.808105 191.113129,220.808105 
	C191.113129,210.784607 191.113129,200.938919 191.113129,191.079803 
	C194.780075,191.079803 197.924408,191.079803 201.000015,191.006470 
	C201.000015,191.006470 200.926788,190.937576 200.994827,191.880554 
	C200.994827,204.805115 200.994827,217.729675 200.994827,231.034241 
	C197.503113,231.034241 194.429764,231.034241 191.201019,231.034241 
	C191.201019,237.819107 191.201019,244.218704 191.201019,251.002319 
	C194.467209,251.002319 197.542374,251.002319 200.991974,251.002319 
	C200.991974,254.451813 200.991974,257.527039 200.991974,260.646912 
	C207.903137,260.646912 214.423492,260.646912 221.321411,260.646912 
	C221.321411,257.217346 221.321411,254.145477 221.321411,251.336472 
	C228.117432,251.336472 234.522736,251.336472 240.666016,251.336472 
	C240.666016,254.757797 240.666016,257.831818 240.666016,261.277771 
	C237.258957,261.277771 234.184906,261.277771 231.322067,261.277771 
	C231.322067,268.069611 231.322067,274.468689 231.322067,280.926819 
	C238.116684,280.926819 244.589630,280.926819 251.004593,281.854797 
	C251.004593,284.787506 251.004593,287.720245 251.004593,290.638367 
	C254.600342,290.638367 257.773010,290.638367 260.665894,290.638367 
	C260.665894,287.208038 260.665894,284.143646 260.665894,281.068756 
	C257.194794,281.068756 254.057571,281.068756 250.994247,280.142242 
	C250.994247,277.216309 250.994247,274.290405 250.994247,270.851868 
	C254.565460,270.851868 257.751984,270.851868 260.926514,270.851868 
	C260.926514,267.195129 260.926514,264.066223 261.844055,260.995392 
	C264.856079,261.039612 267.868103,261.083801 270.991425,262.026672 
	C270.991425,264.947968 270.991425,267.869263 270.991425,270.748505 
	C277.950836,270.748505 284.340546,270.748505 290.760406,270.748505 
	C290.760406,267.429199 290.760406,264.366272 290.760406,261.280029 
	C283.929321,261.280029 277.337372,261.280029 270.980499,260.304169 
	C270.980499,257.231659 270.980499,254.159149 270.980499,251.323334 
	C267.240784,251.323334 264.171173,251.323334 261.068451,251.323334 
	C261.068451,254.790771 261.068451,257.935150 260.141663,261.005737 
	C257.201263,261.005737 254.260895,261.005737 251.337769,261.005737 
	C251.337769,240.729599 251.337769,220.907349 251.337769,200.712219 
	C254.753433,200.712219 257.830811,200.712219 261.266846,200.712219 
	C261.266846,197.259247 261.266846,194.182816 261.266846,190.752014 
	C264.725952,190.752014 267.804565,190.752014 270.926819,190.752014 
	C270.926819,187.228241 270.926819,184.082840 271.854797,180.995407 
	C274.796906,180.995407 277.739014,180.995407 281.044189,180.995407 
	C281.044189,184.503113 281.044189,187.586502 281.044189,190.795898 
	C284.492737,190.795898 287.558350,190.795898 290.653076,190.795898 
	C290.653076,180.746155 290.653076,170.903900 290.653076,161.340836 
	C287.227783,161.340836 284.153931,161.340836 280.716858,161.340836 
	C280.716858,164.757095 280.716858,167.832458 280.716858,171.262482 
	C277.258942,171.262482 274.180847,171.262482 271.068756,171.262482 
	C271.068756,174.786591 271.068756,177.933121 270.125641,181.005646 
	C263.876434,181.005646 257.627258,181.005646 251.017334,181.005646 
	C251.017334,184.451492 251.017334,187.514603 251.017334,190.920197 
	C244.081070,190.920197 237.506165,190.920197 230.999985,190.993530 
	C230.999985,190.993530 231.073212,191.062424 231.005280,190.136307 
	C231.005280,187.195786 231.005280,184.255249 231.005280,180.952087 
	C234.509506,180.952087 237.581360,180.952087 240.639893,180.952087 
	C240.639893,170.733093 240.639893,160.898727 240.639893,151.075882 
	C227.163498,151.075882 214.047226,151.075882 200.994995,150.147583 
	C200.994995,147.112915 200.994995,144.078247 200.994995,141.069122 
	C197.163025,141.069122 194.043564,141.069122 190.994629,140.125763 
	C190.994629,133.863495 190.994629,127.601234 190.994629,121.203857 
	C194.500366,121.203857 197.565399,121.203857 201.007080,121.203857 
	C201.007080,124.464783 201.007080,127.545433 201.007080,130.803223 
	C204.449600,130.803223 207.514359,130.803223 210.683594,130.803223 
	C210.683594,120.793991 210.683594,110.953941 210.683594,100.920593 
	C207.222336,100.920593 204.076920,100.920593 201.000259,100.993942 
	C201.000259,100.993942 201.073441,101.062859 201.005203,100.120140 
	C201.005203,93.854698 201.005203,87.589249 201.005203,80.953171 
	C197.487061,80.953171 194.413818,80.953171 191.205719,80.953171 
	C191.205719,77.504707 191.205719,74.438683 191.205719,70.995834 
	C197.799561,70.995834 204.202072,70.995834 210.660156,70.995834 
	C210.660156,60.778107 210.660156,50.942665 210.660156,41.314007 
	C203.914139,41.314007 197.510773,41.314007 190.920456,41.314007 
	C190.920456,44.774441 190.920456,47.921516 190.993790,50.999851 
	C190.993790,50.999851 191.062668,50.926647 190.119659,50.994812 
	C170.392212,51.020992 150.664780,51.047176 130.995392,50.145340 
	C130.995392,47.212605 130.995392,44.279873 130.995392,41.361553 
	C127.399727,41.361553 124.227013,41.361553 121.334061,41.361553 
	C121.334061,44.791809 121.334061,47.856220 121.334061,50.931416 
	C124.805191,50.931416 127.942368,50.931416 131.005753,51.857906 
	C131.005753,54.795124 131.005753,57.732342 131.005753,61.025322 
	C127.509369,61.025322 124.439575,61.025322 121.359863,61.025322 
	C121.359863,64.591148 121.359863,67.767746 121.359863,71.310898 
	C124.790688,71.310898 127.859421,71.310898 131.277115,71.310898 
	C131.277115,74.758949 131.277115,77.831810 131.277115,81.079552 
	C134.787521,81.079552 137.928085,81.079552 140.999893,81.006218 
	C140.999893,81.006218 140.926697,80.937332 140.994705,81.855377 
	C141.021729,84.926575 141.048752,87.997765 140.130814,91.004898 
	C133.874771,91.004898 127.618744,91.004898 121.353188,91.004898 
	C121.353188,97.932930 121.353188,104.438766 121.353188,110.659454 
	C124.784531,110.659454 127.852112,110.659454 131.274673,110.659454 
	C131.274673,107.244461 131.274673,104.169907 131.274673,100.930946 
	C134.789413,100.930946 137.932632,100.930946 141.005386,101.874168 
	C141.028885,108.272476 141.052399,114.670792 140.147461,121.005013 
	C137.200745,121.005013 134.254028,121.005013 130.937744,121.005013 
	C130.937744,124.524574 130.937744,127.603851 130.937744,130.776779 
	C127.473465,130.776779 124.400818,130.776779 120.944519,130.776779 
	C120.944519,127.486732 120.944519,124.404327 120.944519,121.218552 
	C114.150444,121.218552 107.746620,121.218552 101.214569,121.218552 
	C101.214569,124.510811 101.214569,127.581917 101.214569,131.037598 
	C104.498932,131.037598 107.577209,131.037598 110.800026,131.037598 
	C110.971886,134.695145 111.125999,137.974945 110.304359,141.019501 
	C107.233345,141.019501 104.162331,141.019501 101.068649,141.019501 
	C101.068649,144.800522 101.068649,147.940048 100.141853,151.005753 
	C97.198189,151.005753 94.254524,151.005753 90.938751,151.005753 
	C90.938751,144.144943 90.938751,137.734756 90.938751,130.950775 
	C84.148643,130.950775 77.737564,130.950775 70.956436,130.950775 
	C70.956436,127.497086 70.956436,124.411217 70.956436,121.212448 
	C67.495621,121.212448 64.423576,121.212448 60.967346,121.212448 
	C60.967346,124.494835 60.967346,127.573463 60.967346,130.792587 
	C57.506386,130.792587 54.434425,130.792587 50.977390,130.792587 
	C50.977390,127.515701 50.977390,124.437073 50.977390,121.202606 
	C47.519135,121.202606 44.449310,121.202606 41.190418,121.202606 
	C41.190418,134.467987 41.190418,147.530777 41.190418,160.980698 
	C44.436478,160.980698 47.519684,160.980698 50.645836,160.980698 
	C50.645836,167.897247 50.645836,174.420486 50.645836,181.319382 
	C47.210556,181.319382 44.132019,181.319382 41.355438,181.319382 
	C41.355438,184.785690 41.355438,187.854156 41.355438,191.289001 
	C51.448009,191.289001 61.187096,191.289001 71.291687,191.289001 
	C71.291687,194.755600 71.291687,197.836441 71.291687,201.281647 
	C74.753250,201.281647 77.832932,201.281647 81.276642,201.281647 
	C81.276642,204.748993 81.276642,207.828522 81.276642,210.665985 
	C84.741280,210.665985 87.812737,210.665985 90.682846,210.665985 
	C90.682846,200.594070 90.682846,190.858337 90.682846,180.746368 
	C87.290367,180.746368 84.213608,180.746368 81.079552,180.746368 
	C81.079552,173.883789 81.079552,167.407578 81.006218,161.000107 
	C81.006218,161.000107 80.937332,161.073303 81.880127,161.005173 
	C88.338409,160.909973 94.796700,160.814774 101.019508,161.695801 
	C101.019508,164.764755 101.019508,167.833725 101.019508,170.931671 
	C108.152122,170.931671 114.615715,170.931671 121.005615,171.874725 
	C121.005615,178.232971 121.005615,184.591217 121.005615,191.073303 
	C117.197624,191.073303 114.067474,191.073303 110.995399,190.145294 
	C110.995399,187.212570 110.995399,184.279831 110.995399,181.361572 
	C107.399704,181.361572 104.227005,181.361572 101.334076,181.361572 
	C101.334076,184.795746 101.334076,187.858154 101.334076,190.931366 
	C104.805115,190.931366 107.942337,190.931366 111.005753,191.849380 
	C111.028267,194.920471 111.050781,197.991547 110.145287,201.004608 
	C107.212555,201.004608 104.279823,201.004608 101.361572,201.004608 
	C101.361572,204.600311 101.361572,207.772995 101.361572,210.665924 
	C104.791855,210.665924 107.856255,210.665924 110.931351,210.665924 
	C110.931351,207.194778 110.931351,204.057602 111.858147,200.994247 
	C114.801704,200.994247 117.745255,200.994247 121.055618,200.994247 
	C121.055618,211.185379 121.055618,220.922684 121.055618,230.719421 
	C128.045639,230.719421 134.650604,230.719421 141.019577,231.687149 
	C141.038330,234.814438 141.057083,237.941727 140.147400,241.005005 
	C137.220245,241.005005 134.293091,241.005005 131.339035,241.005005 
	C131.339035,244.578781 131.339035,247.750504 131.339035,250.924164 
	C134.808365,250.924164 137.938690,250.924164 141.005005,251.852600 
	C141.005005,254.780258 141.005005,257.707916 141.005005,260.659515 
	C144.580902,260.659515 147.753143,260.659515 150.930923,260.659515 
	C150.930923,257.187469 150.930923,254.055832 151.858017,250.994522 
	C154.794769,250.994522 157.731537,250.994522 160.807251,250.994522 
	C160.807251,257.823853 160.807251,264.212219 160.807251,271.152222 
	C157.438553,271.152222 154.243317,271.152222 151.343628,271.152222 
	C151.343628,274.773499 151.343628,277.837677 151.343628,281.079590 
	C158.147156,281.079590 164.607864,281.079590 170.999817,281.006256 
	C170.999817,281.006256 170.926605,280.937408 170.994705,281.863800 
	C170.994705,284.806152 170.994705,287.748505 170.994705,290.794739 
	C187.848572,290.794739 204.237961,290.794739 220.800903,290.794739 
	C220.800903,287.519196 220.800903,284.449799 220.800903,280.995270 
	C217.533905,280.995270 214.456100,280.995270 211.002594,280.995270 
	C211.002594,277.548401 211.002594,274.462463 211.002594,271.197998 
	C207.546204,271.197998 204.475113,271.197998 200.839417,271.197998 
	C200.839417,274.559113 200.839417,277.761292 200.839417,280.819824 
	C197.321915,280.819824 194.369827,280.819824 190.858490,280.819824 
	C190.858490,274.124481 190.858490,267.588959 190.858490,260.704865 
	C183.885422,260.704865 177.474442,260.704865 171.337830,260.704865 
	C171.337830,257.236145 171.337830,254.161316 171.337830,250.713135 
	C174.749817,250.713135 177.824310,250.713135 180.675873,250.713135 
	C180.675873,243.913040 180.675873,237.506958 180.675873,231.322418 
	C177.269623,231.322418 174.193085,231.322418 170.744537,231.322418 
	C170.744537,234.718231 170.744537,237.793015 170.744537,241.075882 
	C163.880707,241.075882 157.405792,241.075882 150.994980,240.158005 
	C151.039520,237.145599 151.084076,234.133194 152.026840,231.008682 
	C154.946609,231.008682 157.866379,231.008682 160.748840,231.008682 
	C160.748840,227.391098 160.748840,224.328888 160.748840,221.231903 
	C157.432526,221.231903 154.371933,221.231903 151.280624,221.231903 
	C151.280624,224.726944 151.280624,227.991287 150.315384,231.019638 
	C147.250504,230.970230 144.185638,230.920822 141.008682,229.973221 
	C141.008682,227.054626 141.008682,224.136047 141.008682,220.875336 
	C137.401443,220.875336 134.332413,220.875336 131.226166,220.875336 
	C131.226166,217.440582 131.226166,214.380585 131.226166,210.958710 
	C134.508163,210.958710 137.571365,210.958710 140.924149,210.958710 
	C140.924149,200.706345 140.924149,190.818649 141.852600,180.994995 
	C144.780258,180.994995 147.707901,180.994995 150.659515,180.994995 
	C150.659515,177.419113 150.659515,174.246872 150.659515,171.069077 
	C147.187454,171.069077 144.055832,171.069077 140.994522,170.142288 
M130.995407,270.145203 
	C130.995407,267.212494 130.995407,264.279755 130.995407,261.361603 
	C127.399666,261.361603 124.226990,261.361603 121.334106,261.361603 
	C121.334106,264.791901 121.334106,267.856293 121.334106,270.931244 
	C124.805283,270.931244 127.942467,270.931244 131.005753,271.857758 
	C131.005753,274.797760 131.005753,277.737793 131.005753,281.036865 
	C127.498581,281.036865 124.426025,281.036865 121.195160,281.036865 
	C121.195160,284.479156 121.195160,287.542725 121.195160,290.650513 
	C127.903046,290.650513 134.409653,290.650513 140.684601,290.650513 
	C140.684601,283.899994 140.684601,277.501404 140.684601,271.073181 
	C137.225449,271.073181 134.081436,271.073181 130.995407,270.145203 
M270.994995,130.147400 
	C270.994995,127.219742 270.994995,124.292084 270.994995,121.340492 
	C267.418121,121.340492 264.246460,121.340492 261.069061,121.340492 
	C261.069061,124.812531 261.069061,127.944183 260.141937,131.005478 
	C257.204102,131.005478 254.266235,131.005478 251.356964,131.005478 
	C251.356964,141.275986 251.356964,151.109406 251.356964,160.654510 
	C254.788757,160.654510 257.858887,160.654510 261.289734,160.654510 
	C261.289734,157.235138 261.289734,154.161880 261.289734,150.736404 
	C264.744110,150.736404 267.820282,150.736404 270.924133,150.736404 
	C270.924133,147.218018 270.924133,144.074463 271.852600,140.994995 
	C274.794342,140.994995 277.736115,140.994995 281.038971,140.994995 
	C281.038971,144.502884 281.038971,147.576843 281.038971,150.800613 
	C284.484955,150.800613 287.549774,150.800613 290.661346,150.800613 
	C290.661346,140.758743 290.661346,130.919464 290.661346,121.330933 
	C287.241364,121.330933 284.170471,121.330933 280.740723,121.330933 
	C280.740723,124.738037 280.740723,127.815315 280.740723,131.075851 
	C277.220825,131.075851 274.075928,131.075851 270.994995,130.147400 
M280.995422,210.145355 
	C280.995422,207.212616 280.995422,204.279877 280.995422,201.361572 
	C277.399719,201.361572 274.226990,201.361572 271.334076,201.361572 
	C271.334076,204.791840 271.334076,207.856247 271.334076,210.931442 
	C274.805237,210.931442 277.942413,210.931442 281.005615,211.874512 
	C281.005615,218.138031 281.005615,224.401535 281.005615,231.034332 
	C277.504242,231.034332 274.423950,231.034332 271.196716,231.034332 
	C271.196716,234.479294 271.196716,237.544281 271.196716,240.644348 
	C277.909119,240.644348 284.418945,240.644348 290.686646,240.644348 
	C290.686646,230.562500 290.686646,220.837784 290.686646,211.073395 
	C287.228210,211.073395 284.082794,211.073395 280.995422,210.145355 
M111.000000,50.533703 
	C111.000000,47.426422 111.000000,44.319141 111.000000,41.277534 
	C87.375748,41.277534 64.305832,41.277534 41.278450,41.277534 
	C41.278450,64.626091 41.278450,87.696022 41.278450,110.720642 
	C64.627937,110.720642 87.697876,110.720642 111.000000,110.720642 
	C111.000000,90.802483 111.000000,71.162781 111.000000,50.533703 
M44.651688,291.000000 
	C66.732903,291.000000 88.814125,291.000000 110.656425,291.000000 
	C110.656425,267.245026 110.656425,244.172836 110.656425,221.346222 
	C87.239708,221.346222 64.167473,221.346222 41.000103,221.346222 
	C41.000103,243.684753 41.010906,265.677216 40.981407,287.669617 
	C40.978802,289.614563 40.800388,291.489014 44.651688,291.000000 
M291.000000,65.500008 
	C291.000000,57.401802 291.000000,49.303600 291.000000,41.287407 
	C267.354584,41.287407 244.285156,41.287407 221.287384,41.287407 
	C221.287384,64.645363 221.287384,87.714790 221.287384,110.712631 
	C244.645325,110.712631 267.714752,110.712631 291.000000,110.712631 
	C291.000000,95.784203 291.000000,81.142105 291.000000,65.500008 
M232.475433,141.000000 
	C235.246124,141.000000 238.016830,141.000000 240.723663,141.000000 
	C240.723663,134.030350 240.723663,127.622948 240.723663,121.277161 
	C237.363617,121.277161 234.286270,121.277161 230.834717,121.277161 
	C230.834717,124.632576 230.834717,127.715080 230.834717,131.166687 
	C227.366028,131.166687 224.283615,131.166687 221.282059,131.166687 
	C221.282059,134.637421 221.282059,137.711151 221.282059,141.000000 
	C224.871140,141.000000 228.180389,141.000000 232.475433,141.000000 
M53.449291,211.000000 
	C55.889278,211.000000 58.329269,211.000000 60.729225,211.000000 
	C60.729225,207.385941 60.729225,204.312164 60.729225,201.270966 
	C54.045670,201.270966 47.636353,201.270966 41.274998,201.270966 
	C41.274998,204.622314 41.274998,207.696381 41.274998,211.000000 
	C45.189220,211.000000 48.830887,211.000000 53.449291,211.000000 
M287.416779,281.000000 
	C285.344666,281.000000 283.272552,281.000000 281.243835,281.000000 
	C281.243835,284.622589 281.243835,287.671021 281.243835,290.796600 
	C284.537750,290.796600 287.584564,290.796600 290.998566,290.796600 
	C290.998566,288.172485 291.230652,285.710907 290.878174,283.336121 
	C290.747070,282.452942 289.247314,281.772919 287.416779,281.000000 
z"/>
<path fill="#000000" opacity="1.000000" stroke="none" 
	d="
M171.068741,201.079803 
	C164.608734,201.079803 158.148727,201.079803 151.344635,201.079803 
	C151.344635,197.842148 151.344635,194.780121 151.344635,191.155548 
	C154.240204,191.155548 157.434937,191.155548 161.005356,191.155548 
	C161.005356,181.030762 161.005356,171.452652 161.003891,161.437195 
	C161.002426,160.999863 160.930084,161.069992 161.393768,161.037537 
	C164.800369,161.005066 167.743286,161.005066 171.050629,161.005066 
	C171.050629,157.485855 171.050629,154.410065 171.050629,151.209900 
	C174.502533,151.209900 177.569153,151.209900 180.803146,151.209900 
	C180.803146,157.816620 180.803146,164.212921 180.803146,171.169739 
	C177.428192,171.169739 174.232208,171.169739 171.178970,171.169739 
	C171.178970,174.681488 171.178970,177.630722 171.178970,180.655899 
	C177.876495,180.655899 184.390091,180.655899 191.270935,180.655899 
	C191.270935,173.909317 191.270935,167.506577 191.270935,160.744446 
	C194.726303,160.744446 197.806793,160.744446 201.069977,160.744446 
	C201.069977,157.223557 201.069977,154.076782 201.034943,150.966248 
	C200.999924,151.002457 200.930939,151.075882 200.930939,151.075882 
	C214.047226,151.075882 227.163498,151.075882 240.639893,151.075882 
	C240.639893,160.898727 240.639893,170.733093 240.639893,180.952087 
	C237.581360,180.952087 234.509506,180.952087 231.005280,180.952087 
	C231.005280,184.255249 231.005280,187.195786 230.575256,190.570450 
	C227.212479,191.004593 224.279755,191.004593 221.361649,191.004593 
	C221.361649,194.600372 221.361649,197.773041 221.361649,200.665863 
	C224.791992,200.665863 227.856384,200.665863 230.931259,200.665863 
	C230.931259,197.194611 230.931259,194.057404 230.931259,190.920197 
	C237.506165,190.920197 244.081070,190.920197 251.017334,190.920197 
	C251.017334,187.514603 251.017334,184.451492 251.017334,181.005646 
	C257.627258,181.005646 263.876434,181.005646 270.562836,181.005981 
	C271.000031,181.006317 270.926819,180.937424 270.926819,180.937424 
	C270.926819,184.082840 270.926819,187.228241 270.926819,190.752014 
	C267.804565,190.752014 264.725952,190.752014 261.266846,190.752014 
	C261.266846,194.182816 261.266846,197.259247 261.266846,200.712219 
	C257.830811,200.712219 254.753433,200.712219 251.337769,200.712219 
	C251.337769,220.907349 251.337769,240.729599 251.337769,261.005737 
	C254.260895,261.005737 257.201263,261.005737 260.570679,261.005981 
	C260.999725,261.006195 260.926514,260.937286 260.926514,260.937286 
	C260.926514,264.066223 260.926514,267.195129 260.926514,270.851868 
	C257.751984,270.851868 254.565460,270.851868 250.994247,270.851868 
	C250.994247,274.290405 250.994247,277.216309 250.993958,280.571136 
	C250.993683,281.000031 251.062576,280.926819 251.062576,280.926819 
	C244.589630,280.926819 238.116684,280.926819 231.322067,280.926819 
	C231.322067,274.468689 231.322067,268.069611 231.322067,261.277771 
	C234.184906,261.277771 237.258957,261.277771 240.666016,261.277771 
	C240.666016,257.831818 240.666016,254.757797 240.666016,251.336472 
	C234.522736,251.336472 228.117432,251.336472 221.321411,251.336472 
	C221.321411,254.145477 221.321411,257.217346 221.321411,260.646912 
	C214.423492,260.646912 207.903137,260.646912 200.991974,260.646912 
	C200.991974,257.527039 200.991974,254.451813 200.991974,251.002319 
	C197.542374,251.002319 194.467209,251.002319 191.201019,251.002319 
	C191.201019,244.218704 191.201019,237.819107 191.201019,231.034241 
	C194.429764,231.034241 197.503113,231.034241 200.994827,231.034241 
	C200.994827,217.729675 200.994827,204.805115 201.424805,191.437988 
	C204.787521,190.995407 207.720245,190.995407 210.638351,190.995407 
	C210.638351,187.399628 210.638351,184.226959 210.638351,181.334137 
	C207.208008,181.334137 204.143616,181.334137 201.068741,181.334137 
	C201.068741,184.805389 201.068741,187.942596 201.068741,191.079803 
	C197.924408,191.079803 194.780075,191.079803 191.113129,191.079803 
	C191.113129,200.938919 191.113129,210.784607 191.113129,220.808105 
	C184.205658,220.808105 177.820450,220.808105 170.994827,220.808105 
	C170.994827,214.394333 170.994827,208.137299 171.424805,201.437836 
	C174.787521,200.995407 177.720245,200.995407 180.638351,200.995407 
	C180.638351,197.399628 180.638351,194.226959 180.638351,191.334137 
	C177.208008,191.334137 174.143616,191.334137 171.068741,191.334137 
	C171.068741,194.805389 171.068741,197.942596 171.068741,201.079803 
M241.000000,230.477325 
	C241.000000,224.047653 241.000000,217.617996 241.000000,211.295593 
	C230.670151,211.295593 220.932373,211.295593 211.296524,211.295593 
	C211.296524,221.331558 211.296524,231.069382 211.296524,240.702515 
	C221.333572,240.702515 231.071381,240.702515 241.000000,240.702515 
	C241.000000,237.426590 241.000000,234.446564 241.000000,230.477325 
M221.000000,165.520355 
	C221.000000,164.099945 221.000000,162.679535 221.000000,161.215958 
	C217.435196,161.215958 214.387985,161.215958 211.349915,161.215958 
	C211.349915,164.606628 211.349915,167.768158 211.349915,170.865143 
	C214.630753,170.865143 217.560715,170.865143 221.000000,170.865143 
	C221.000000,169.317139 221.000000,167.896576 221.000000,165.520355 
z"/>
<path fill="#000000" opacity="1.000000" stroke="none" 
	d="
M141.075775,91.068962 
	C141.048752,87.997765 141.021729,84.926575 141.424713,81.425385 
	C144.787430,80.995399 147.720169,80.995399 150.638428,80.995399 
	C150.638428,77.399704 150.638428,74.227005 150.638428,71.334076 
	C147.204163,71.334076 144.141678,71.334076 141.068634,71.334076 
	C141.068634,74.805115 141.068634,77.942337 141.068634,81.079552 
	C137.928085,81.079552 134.787521,81.079552 131.277115,81.079552 
	C131.277115,77.831810 131.277115,74.758949 131.277115,71.310898 
	C127.859421,71.310898 124.790688,71.310898 121.359863,71.310898 
	C121.359863,67.767746 121.359863,64.591148 121.359863,61.025322 
	C124.439575,61.025322 127.509369,61.025322 131.005753,61.025322 
	C131.005753,57.732342 131.005753,54.795124 131.005981,51.429031 
	C131.006210,51.000153 130.937332,51.073360 130.937332,51.073360 
	C150.664780,51.047176 170.392212,51.020992 190.562134,51.424736 
	C191.004608,54.787395 191.004608,57.720131 191.004608,60.638443 
	C194.601395,60.638443 197.773224,60.638443 200.665924,60.638443 
	C200.665924,57.208187 200.665924,54.143780 200.665924,51.068588 
	C197.194809,51.068588 194.057632,51.068588 190.920456,51.068588 
	C190.920456,47.921516 190.920456,44.774441 190.920456,41.314007 
	C197.510773,41.314007 203.914139,41.314007 210.660156,41.314007 
	C210.660156,50.942665 210.660156,60.778107 210.660156,70.995834 
	C204.202072,70.995834 197.799561,70.995834 191.205719,70.995834 
	C191.205719,74.438683 191.205719,77.504707 191.205719,80.953171 
	C194.413818,80.953171 197.487061,80.953171 201.005203,80.953171 
	C201.005203,87.589249 201.005203,93.854698 200.580566,100.562378 
	C197.143967,100.960388 194.132004,100.916168 191.064331,100.422615 
	C191.008621,97.077560 191.008621,94.181839 191.008621,91.073288 
	C183.995850,91.073288 177.466599,91.073288 170.966370,90.609283 
	C170.995392,87.203293 170.995392,84.261299 170.995392,80.955826 
	C174.505356,80.955826 177.577896,80.955826 180.803848,80.955826 
	C180.803848,74.179855 180.803848,67.786026 180.803848,61.361744 
	C177.414398,61.361744 174.234711,61.361744 170.680389,61.361744 
	C170.680389,64.798805 170.680389,67.871529 170.680389,71.309250 
	C167.225616,71.309250 164.155869,71.309250 161.318146,71.309250 
	C161.318146,78.099358 161.318146,84.500809 161.318146,90.931351 
	C164.783920,90.931351 167.931747,90.931351 171.042603,91.403030 
	C171.005630,101.475319 171.005630,111.075928 171.005630,120.778122 
	C174.523590,120.778122 177.591751,120.778122 181.043930,120.778122 
	C181.043930,114.158607 181.043930,107.749046 181.043930,101.199867 
	C184.700073,101.028008 187.977402,100.873955 191.137115,101.207848 
	C191.019485,104.768303 191.019485,107.840805 191.019485,110.676712 
	C194.755783,110.676712 197.826691,110.676712 200.931503,110.676712 
	C200.931503,107.209312 200.931503,104.064949 200.931503,100.920593 
	C204.076920,100.920593 207.222336,100.920593 210.683594,100.920593 
	C210.683594,110.953941 210.683594,120.793991 210.683594,130.803223 
	C207.514359,130.803223 204.449600,130.803223 201.007080,130.803223 
	C201.007080,127.545433 201.007080,124.464783 201.007080,121.203857 
	C197.565399,121.203857 194.500366,121.203857 190.994629,121.203857 
	C190.994629,127.601234 190.994629,133.863495 190.996094,140.562943 
	C190.997543,141.000122 191.069992,140.930084 190.598053,140.962555 
	C183.763748,140.995041 177.401382,140.995041 170.699951,140.995041 
	C170.699951,137.206284 170.699951,134.142090 170.699951,130.930008 
	C167.199951,130.930008 164.065018,130.930008 160.965042,130.964996 
	C161.000000,131.000000 161.069992,131.069916 161.037537,130.606125 
	C161.005066,127.217178 161.005066,124.292023 161.005066,120.930077 
	C154.048294,120.930077 147.489151,120.930077 140.966248,120.965088 
	C141.002472,121.000107 141.075897,121.069099 141.075897,121.069099 
	C141.052399,114.670792 141.028885,108.272476 141.003906,101.437057 
	C141.002426,100.999939 140.930008,101.070000 141.389420,101.037521 
	C144.920105,100.978935 147.991364,100.952820 151.033630,101.390709 
	C151.004608,104.787445 151.004608,107.720177 151.004608,110.638428 
	C154.600311,110.638428 157.772995,110.638428 160.665924,110.638428 
	C160.665924,107.208145 160.665924,104.143745 160.665924,101.068649 
	C157.194778,101.068649 154.057602,101.068649 150.957336,100.605469 
	C150.994247,97.109406 150.994247,94.076508 150.994247,90.930038 
	C147.165253,90.930038 144.047623,90.930038 140.966187,90.965042 
	C141.002380,91.000046 141.075790,91.068962 141.075775,91.068962 
z"/>
<path fill="#000000" opacity="1.000000" stroke="none" 
	d="
M81.079552,160.931366 
	C81.079552,167.407578 81.079552,173.883789 81.079552,180.746368 
	C84.213608,180.746368 87.290367,180.746368 90.682846,180.746368 
	C90.682846,190.858337 90.682846,200.594070 90.682846,210.665985 
	C87.812737,210.665985 84.741280,210.665985 81.276642,210.665985 
	C81.276642,207.828522 81.276642,204.748993 81.276642,201.281647 
	C77.832932,201.281647 74.753250,201.281647 71.291687,201.281647 
	C71.291687,197.836441 71.291687,194.755600 71.291687,191.289001 
	C61.187096,191.289001 51.448009,191.289001 41.355438,191.289001 
	C41.355438,187.854156 41.355438,184.785690 41.355438,181.319382 
	C44.132019,181.319382 47.210556,181.319382 50.645836,181.319382 
	C50.645836,174.420486 50.645836,167.897247 50.645836,160.980698 
	C47.519684,160.980698 44.436478,160.980698 41.190418,160.980698 
	C41.190418,147.530777 41.190418,134.467987 41.190418,121.202606 
	C44.449310,121.202606 47.519135,121.202606 50.977390,121.202606 
	C50.977390,124.437073 50.977390,127.515701 50.977390,130.792587 
	C54.434425,130.792587 57.506386,130.792587 60.967346,130.792587 
	C60.967346,127.573463 60.967346,124.494835 60.967346,121.212448 
	C64.423576,121.212448 67.495621,121.212448 70.956436,121.212448 
	C70.956436,124.411217 70.956436,127.497086 70.956436,130.950775 
	C77.737564,130.950775 84.148643,130.950775 90.938751,130.950775 
	C90.938751,137.734756 90.938751,144.144943 90.938751,151.005753 
	C94.254524,151.005753 97.198189,151.005753 100.570885,151.005997 
	C100.999916,151.006241 100.926712,150.937363 100.926712,150.937363 
	C100.954018,153.952286 100.981316,156.967224 101.095139,160.392105 
	C101.181664,160.802063 101.254982,160.719574 101.254982,160.719574 
	C94.796700,160.814774 88.338409,160.909973 81.437759,160.575317 
	C80.995399,157.131073 80.995399,154.116669 80.995399,150.871658 
	C77.275192,150.871658 74.197769,150.871658 71.064499,150.422516 
	C71.008644,147.053604 71.008644,144.133850 71.008644,141.251038 
	C67.390656,141.251038 64.328835,141.251038 61.231735,141.251038 
	C61.231735,144.567169 61.231735,147.627747 61.231735,150.719528 
	C64.726509,150.719528 67.990776,150.719528 71.137291,151.207428 
	C71.019531,154.766418 71.019531,157.837494 71.019531,160.931366 
	C74.800430,160.931366 77.939987,160.931366 81.079552,160.931366 
M65.523895,181.000000 
	C67.271317,181.000000 69.018730,181.000000 70.771156,181.000000 
	C70.771156,177.409851 70.771156,174.361496 70.771156,171.189362 
	C67.493401,171.189362 64.446136,171.189362 61.000095,171.189362 
	C61.000095,173.466370 61.200008,175.585495 60.952614,177.651062 
	C60.593639,180.648285 61.966869,181.406036 65.523895,181.000000 
z"/>
<path fill="#000000" opacity="1.000000" stroke="none" 
	d="
M111.000000,51.028397 
	C111.000000,71.162781 111.000000,90.802483 111.000000,110.720642 
	C87.697876,110.720642 64.627937,110.720642 41.278450,110.720642 
	C41.278450,87.696022 41.278450,64.626091 41.278450,41.277534 
	C64.305832,41.277534 87.375748,41.277534 111.000000,41.277534 
	C111.000000,44.319141 111.000000,47.426422 111.000000,51.028397 
M51.000275,53.680462 
	C51.000275,69.426918 51.000275,85.173378 51.000275,100.645500 
	C68.110825,100.645500 84.517601,100.645500 100.642456,100.645500 
	C100.642456,83.883041 100.642456,67.476166 100.642456,51.000107 
	C84.955742,51.000107 69.626198,50.964920 54.297684,51.073902 
	C53.195934,51.081734 52.101669,52.142437 51.000275,53.680462 
z"/>
<path fill="#000000" opacity="1.000000" stroke="none" 
	d="
M44.166199,290.999878 
	C40.800388,291.489014 40.978802,289.614563 40.981407,287.669617 
	C41.010906,265.677216 41.000103,243.684753 41.000103,221.346222 
	C64.167473,221.346222 87.239708,221.346222 110.656425,221.346222 
	C110.656425,244.172836 110.656425,267.245026 110.656425,291.000000 
	C88.814125,291.000000 66.732903,291.000000 44.166199,290.999878 
M75.500000,281.000000 
	C83.930717,281.000000 92.361435,281.000000 100.713333,281.000000 
	C100.713333,264.022125 100.713333,247.619064 100.713333,231.286652 
	C84.022148,231.286652 67.619118,231.286652 51.286629,231.286652 
	C51.286629,247.977814 51.286629,264.380829 51.286629,281.000000 
	C59.214230,281.000000 66.857132,281.000000 75.500000,281.000000 
z"/>
<path fill="#000000" opacity="1.000000" stroke="none" 
	d="
M291.000000,66.000000 
	C291.000000,81.142105 291.000000,95.784203 291.000000,110.712631 
	C267.714752,110.712631 244.645325,110.712631 221.287384,110.712631 
	C221.287384,87.714790 221.287384,64.645363 221.287384,41.287407 
	C244.285156,41.287407 267.354584,41.287407 291.000000,41.287407 
	C291.000000,49.303600 291.000000,57.401802 291.000000,66.000000 
M281.000000,62.517143 
	C281.000000,58.746262 281.000000,54.975380 281.000000,51.282547 
	C264.031158,51.282547 247.627853,51.282547 231.283066,51.282547 
	C231.283066,67.969887 231.283066,84.373199 231.283066,100.716415 
	C247.970947,100.716415 264.374298,100.716415 281.000000,100.716415 
	C281.000000,88.126297 281.000000,75.818642 281.000000,62.517143 
z"/>
<path fill="#000000" opacity="1.000000" stroke="none" 
	d="
M150.930878,241.075882 
	C157.405792,241.075882 163.880707,241.075882 170.744537,241.075882 
	C170.744537,237.793015 170.744537,234.718231 170.744537,231.322418 
	C174.193085,231.322418 177.269623,231.322418 180.675873,231.322418 
	C180.675873,237.506958 180.675873,243.913040 180.675873,250.713135 
	C177.824310,250.713135 174.749817,250.713135 171.337830,250.713135 
	C171.337830,254.161316 171.337830,257.236145 171.337830,260.704865 
	C177.474442,260.704865 183.885422,260.704865 190.858490,260.704865 
	C190.858490,267.588959 190.858490,274.124481 190.858490,280.819824 
	C194.369827,280.819824 197.321915,280.819824 200.839417,280.819824 
	C200.839417,277.761292 200.839417,274.559113 200.839417,271.197998 
	C204.475113,271.197998 207.546204,271.197998 211.002594,271.197998 
	C211.002594,274.462463 211.002594,277.548401 211.002594,280.995270 
	C214.456100,280.995270 217.533905,280.995270 220.800903,280.995270 
	C220.800903,284.449799 220.800903,287.519196 220.800903,290.794739 
	C204.237961,290.794739 187.848572,290.794739 170.994705,290.794739 
	C170.994705,287.748505 170.994705,284.806152 171.424683,281.429626 
	C174.787384,280.995422 177.720123,280.995422 180.638428,280.995422 
	C180.638428,277.399719 180.638428,274.226990 180.638428,271.334076 
	C177.208160,271.334076 174.143753,271.334076 171.068558,271.334076 
	C171.068558,274.805237 171.068558,277.942413 171.068558,281.079590 
	C164.607864,281.079590 158.147156,281.079590 151.343628,281.079590 
	C151.343628,277.837677 151.343628,274.773499 151.343628,271.152222 
	C154.243317,271.152222 157.438553,271.152222 160.807251,271.152222 
	C160.807251,264.212219 160.807251,257.823853 160.807251,250.994522 
	C157.731537,250.994522 154.794769,250.994522 151.428955,250.996063 
	C150.999908,250.997620 151.069992,251.070007 151.037521,250.610443 
	C151.026703,247.077271 151.048355,244.003632 151.034958,240.966232 
	C150.999924,241.002457 150.930878,241.075882 150.930878,241.075882 
z"/>
<path fill="#000000" opacity="1.000000" stroke="none" 
	d="
M111.280113,141.254761 
	C111.125999,137.974945 110.971886,134.695145 110.800026,131.037598 
	C107.577209,131.037598 104.498932,131.037598 101.214569,131.037598 
	C101.214569,127.581917 101.214569,124.510811 101.214569,121.218552 
	C107.746620,121.218552 114.150444,121.218552 120.944519,121.218552 
	C120.944519,124.404327 120.944519,127.486732 120.944519,130.776779 
	C124.400818,130.776779 127.473465,130.776779 130.937744,130.776779 
	C130.937744,127.603851 130.937744,124.524574 130.937744,121.005013 
	C134.254028,121.005013 137.200745,121.005013 140.611679,121.037056 
	C141.075897,121.069099 141.002472,121.000107 140.998718,121.428925 
	C140.994949,124.782875 140.994949,127.708015 140.994949,131.069916 
	C147.951660,131.069916 154.510818,131.069916 161.069992,131.069916 
	C161.069992,131.069916 161.000000,131.000000 160.997528,131.437134 
	C160.973404,141.606186 160.951752,151.338089 160.930084,161.069992 
	C160.930084,161.069992 161.002426,160.999863 161.039154,160.965363 
	C157.938553,160.930878 154.801239,160.930878 151.299072,160.930878 
	C151.299072,157.853195 151.299072,154.785477 151.299072,151.193008 
	C144.459732,151.193008 137.952011,151.193008 131.093369,151.193008 
	C131.093369,147.625534 131.093369,144.559540 131.093369,141.008453 
	C124.506065,141.008453 118.274513,141.008453 111.620316,141.094971 
	C111.197685,141.181488 111.280113,141.254761 111.280113,141.254761 
z"/>
<path fill="#000000" opacity="1.000000" stroke="none" 
	d="
M140.924149,180.930954 
	C140.924149,190.818649 140.924149,200.706345 140.924149,210.958710 
	C137.571365,210.958710 134.508163,210.958710 131.226166,210.958710 
	C131.226166,214.380585 131.226166,217.440582 131.226166,220.875336 
	C134.332413,220.875336 137.401443,220.875336 141.008682,220.875336 
	C141.008682,224.136047 141.008682,227.054626 141.095428,230.387512 
	C141.182175,230.801788 141.255569,230.719421 141.255569,230.719421 
	C134.650604,230.719421 128.045639,230.719421 121.055618,230.719421 
	C121.055618,220.922684 121.055618,211.185379 121.055618,200.994247 
	C117.745255,200.994247 114.801704,200.994247 111.429115,200.994003 
	C111.000084,200.993759 111.073288,201.062637 111.073288,201.062637 
	C111.050781,197.991547 111.028267,194.920471 111.005981,191.424744 
	C111.006218,191.000107 110.937332,191.073303 110.937332,191.073303 
	C114.067474,191.073303 117.197624,191.073303 121.005615,191.073303 
	C121.005615,184.591217 121.005615,178.232971 121.005791,171.437531 
	C121.005966,171.000351 120.937103,171.073547 120.937103,171.073547 
	C124.008324,171.050858 127.079536,171.028152 130.575439,171.003922 
	C131.000107,171.002380 130.930038,170.929993 130.962494,171.393616 
	C130.994949,174.890350 130.994949,177.923447 130.994949,181.069962 
	C134.834595,181.069962 137.952301,181.069962 141.033783,181.034943 
	C140.997574,180.999939 140.924149,180.930954 140.924149,180.930954 
z"/>
<path fill="#000000" opacity="1.000000" stroke="none" 
	d="
M280.937408,211.073395 
	C284.082794,211.073395 287.228210,211.073395 290.686646,211.073395 
	C290.686646,220.837784 290.686646,230.562500 290.686646,240.644348 
	C284.418945,240.644348 277.909119,240.644348 271.196716,240.644348 
	C271.196716,237.544281 271.196716,234.479294 271.196716,231.034332 
	C274.423950,231.034332 277.504242,231.034332 281.005615,231.034332 
	C281.005615,224.401535 281.005615,218.138031 281.005920,211.437347 
	C281.006256,211.000183 280.937408,211.073395 280.937408,211.073395 
z"/>
<path fill="#000000" opacity="1.000000" stroke="none" 
	d="
M271.034393,181.042984 
	C271.068756,177.933121 271.068756,174.786591 271.068756,171.262482 
	C274.180847,171.262482 277.258942,171.262482 280.716858,171.262482 
	C280.716858,167.832458 280.716858,164.757095 280.716858,161.340836 
	C284.153931,161.340836 287.227783,161.340836 290.653076,161.340836 
	C290.653076,170.903900 290.653076,180.746155 290.653076,190.795898 
	C287.558350,190.795898 284.492737,190.795898 281.044189,190.795898 
	C281.044189,187.586502 281.044189,184.503113 281.044189,180.995407 
	C277.739014,180.995407 274.796906,180.995407 271.390808,180.966415 
	C270.926819,180.937424 271.000031,181.006317 271.034393,181.042984 
z"/>
<path fill="#000000" opacity="1.000000" stroke="none" 
	d="
M270.924133,140.930923 
	C270.924133,144.074463 270.924133,147.218018 270.924133,150.736404 
	C267.820282,150.736404 264.744110,150.736404 261.289734,150.736404 
	C261.289734,154.161880 261.289734,157.235138 261.289734,160.654510 
	C257.858887,160.654510 254.788757,160.654510 251.356964,160.654510 
	C251.356964,151.109406 251.356964,141.275986 251.356964,131.005478 
	C254.266235,131.005478 257.204102,131.005478 260.570984,131.003937 
	C261.000061,131.002411 260.930023,130.929993 260.962463,131.393570 
	C260.994934,134.890274 260.994934,137.923401 260.994934,141.069962 
	C264.834564,141.069962 267.952301,141.069962 271.033783,141.034943 
	C270.997559,140.999924 270.924133,140.930923 270.924133,140.930923 
z"/>
<path fill="#000000" opacity="1.000000" stroke="none" 
	d="
M270.931000,131.075851 
	C274.075928,131.075851 277.220825,131.075851 280.740723,131.075851 
	C280.740723,127.815315 280.740723,124.738037 280.740723,121.330933 
	C284.170471,121.330933 287.241364,121.330933 290.661346,121.330933 
	C290.661346,130.919464 290.661346,140.758743 290.661346,150.800613 
	C287.549774,150.800613 284.484955,150.800613 281.038971,150.800613 
	C281.038971,147.576843 281.038971,144.502884 281.038971,140.994995 
	C277.736115,140.994995 274.794342,140.994995 271.388367,140.962952 
	C270.924133,140.930923 270.997559,140.999924 271.001282,140.575348 
	C271.026703,137.077179 271.048370,134.003601 271.034973,130.966217 
	C270.999969,131.002441 270.931000,131.075851 270.931000,131.075851 
z"/>
<path fill="#000000" opacity="1.000000" stroke="none" 
	d="
M231.982529,141.000000 
	C228.180389,141.000000 224.871140,141.000000 221.282059,141.000000 
	C221.282059,137.711151 221.282059,134.637421 221.282059,131.166687 
	C224.283615,131.166687 227.366028,131.166687 230.834717,131.166687 
	C230.834717,127.715080 230.834717,124.632576 230.834717,121.277161 
	C234.286270,121.277161 237.363617,121.277161 240.723663,121.277161 
	C240.723663,127.622948 240.723663,134.030350 240.723663,141.000000 
	C238.016830,141.000000 235.246124,141.000000 231.982529,141.000000 
z"/>
<path fill="#000000" opacity="1.000000" stroke="none" 
	d="
M141.039139,100.965439 
	C137.932632,100.930946 134.789413,100.930946 131.274673,100.930946 
	C131.274673,104.169907 131.274673,107.244461 131.274673,110.659454 
	C127.852112,110.659454 124.784531,110.659454 121.353188,110.659454 
	C121.353188,104.438766 121.353188,97.932930 121.353188,91.004898 
	C127.618744,91.004898 133.874771,91.004898 140.603302,91.036926 
	C141.075790,91.068962 141.002380,91.000046 140.998657,91.424637 
	C140.973297,94.922821 140.951645,97.996414 140.930008,101.070000 
	C140.930008,101.070000 141.002426,100.999939 141.039139,100.965439 
z"/>
<path fill="#000000" opacity="1.000000" stroke="none" 
	d="
M130.937424,271.073181 
	C134.081436,271.073181 137.225449,271.073181 140.684601,271.073181 
	C140.684601,277.501404 140.684601,283.899994 140.684601,290.650513 
	C134.409653,290.650513 127.903046,290.650513 121.195160,290.650513 
	C121.195160,287.542725 121.195160,284.479156 121.195160,281.036865 
	C124.426025,281.036865 127.498581,281.036865 131.005753,281.036865 
	C131.005753,277.737793 131.005753,274.797760 131.006042,271.428864 
	C131.006317,270.999969 130.937424,271.073181 130.937424,271.073181 
z"/>
<path fill="#000000" opacity="1.000000" stroke="none" 
	d="
M52.960922,211.000000 
	C48.830887,211.000000 45.189220,211.000000 41.274998,211.000000 
	C41.274998,207.696381 41.274998,204.622314 41.274998,201.270966 
	C47.636353,201.270966 54.045670,201.270966 60.729225,201.270966 
	C60.729225,204.312164 60.729225,207.385941 60.729225,211.000000 
	C58.329269,211.000000 55.889278,211.000000 52.960922,211.000000 
z"/>
<path fill="#000000" opacity="1.000000" stroke="none" 
	d="
M270.745422,261.280029 
	C277.337372,261.280029 283.929321,261.280029 290.760406,261.280029 
	C290.760406,264.366272 290.760406,267.429199 290.760406,270.748505 
	C284.340546,270.748505 277.950836,270.748505 270.991425,270.748505 
	C270.991425,267.869263 270.991425,264.947968 270.905029,261.612152 
	C270.818665,261.197632 270.745422,261.280029 270.745422,261.280029 
z"/>
<path fill="#000000" opacity="1.000000" stroke="none" 
	d="
M121.042641,170.966003 
	C114.615715,170.931671 108.152122,170.931671 101.019508,170.931671 
	C101.019508,167.833725 101.019508,164.764755 101.137245,161.207687 
	C101.254982,160.719574 101.181664,160.802063 101.150955,160.836960 
	C107.631844,160.871857 114.143448,160.871857 120.995399,160.871857 
	C120.995399,164.325760 120.995399,167.235474 120.966248,170.609360 
	C120.937103,171.073547 121.005966,171.000351 121.042641,170.966003 
z"/>
<path fill="#000000" opacity="1.000000" stroke="none" 
	d="
M151.280624,231.255630 
	C151.280624,227.991287 151.280624,224.726944 151.280624,221.231903 
	C154.371933,221.231903 157.432526,221.231903 160.748840,221.231903 
	C160.748840,224.328888 160.748840,227.391098 160.748840,231.008682 
	C157.866379,231.008682 154.946609,231.008682 151.612549,231.095444 
	C151.198273,231.182205 151.280624,231.255630 151.280624,231.255630 
z"/>
<path fill="#000000" opacity="1.000000" stroke="none" 
	d="
M141.075836,241.069016 
	C141.057083,237.941727 141.038330,234.814438 141.137573,231.203278 
	C141.255569,230.719421 141.182175,230.801788 141.151459,230.836609 
	C144.185638,230.920822 147.250504,230.970230 150.798004,231.137634 
	C151.280624,231.255630 151.198273,231.182205 151.163452,231.151489 
	C151.084076,234.133194 151.039520,237.145599 150.962921,240.616943 
	C150.930878,241.075882 150.999924,241.002457 150.575363,240.998703 
	C147.077209,240.973297 144.003601,240.951645 140.966217,240.965012 
	C141.002426,241.000031 141.075836,241.069016 141.075836,241.069016 
z"/>
<path fill="#000000" opacity="1.000000" stroke="none" 
	d="
M141.069016,250.924164 
	C137.938690,250.924164 134.808365,250.924164 131.339035,250.924164 
	C131.339035,247.750504 131.339035,244.578781 131.339035,241.005005 
	C134.293091,241.005005 137.220245,241.005005 140.611618,241.037018 
	C141.075836,241.069016 141.002426,241.000031 140.998688,241.424622 
	C140.973297,244.922791 140.951645,247.996399 140.965012,251.033783 
	C141.000031,250.997574 141.069016,250.924164 141.069016,250.924164 
z"/>
<path fill="#000000" opacity="1.000000" stroke="none" 
	d="
M150.965424,250.960907 
	C150.930923,254.055832 150.930923,257.187469 150.930923,260.659515 
	C147.753143,260.659515 144.580902,260.659515 141.005005,260.659515 
	C141.005005,257.707916 141.005005,254.780258 141.037018,251.388382 
	C141.069016,250.924164 141.000031,250.997574 141.424622,251.001312 
	C144.922791,251.026703 147.996399,251.048355 151.069992,251.070007 
	C151.069992,251.070007 150.999908,250.997620 150.965424,250.960907 
z"/>
<path fill="#000000" opacity="1.000000" stroke="none" 
	d="
M110.965714,200.957092 
	C110.931351,204.057602 110.931351,207.194778 110.931351,210.665924 
	C107.856255,210.665924 104.791855,210.665924 101.361572,210.665924 
	C101.361572,207.772995 101.361572,204.600311 101.361572,201.004608 
	C104.279823,201.004608 107.212555,201.004608 110.609283,201.033630 
	C111.073288,201.062637 111.000084,200.993759 110.965714,200.957092 
z"/>
<path fill="#000000" opacity="1.000000" stroke="none" 
	d="
M261.034088,261.042847 
	C261.068451,257.935150 261.068451,254.790771 261.068451,251.323334 
	C264.171173,251.323334 267.240784,251.323334 270.980499,251.323334 
	C270.980499,254.159149 270.980499,257.231659 270.862976,260.792114 
	C270.745422,261.280029 270.818665,261.197632 270.849396,261.162842 
	C267.868103,261.083801 264.856079,261.039612 261.385284,260.966339 
	C260.926514,260.937286 260.999725,261.006195 261.034088,261.042847 
z"/>
<path fill="#000000" opacity="1.000000" stroke="none" 
	d="
M131.042984,270.965607 
	C127.942467,270.931244 124.805283,270.931244 121.334106,270.931244 
	C121.334106,267.856293 121.334106,264.791901 121.334106,261.361603 
	C124.226990,261.361603 127.399666,261.361603 130.995407,261.361603 
	C130.995407,264.279755 130.995407,267.212494 130.966415,270.609192 
	C130.937424,271.073181 131.006317,270.999969 131.042984,270.965607 
z"/>
<path fill="#000000" opacity="1.000000" stroke="none" 
	d="
M131.042877,50.965782 
	C127.942368,50.931416 124.805191,50.931416 121.334061,50.931416 
	C121.334061,47.856220 121.334061,44.791809 121.334061,41.361553 
	C124.227013,41.361553 127.399727,41.361553 130.995392,41.361553 
	C130.995392,44.279873 130.995392,47.212605 130.966370,50.609352 
	C130.937332,51.073360 131.006210,51.000153 131.042877,50.965782 
z"/>
<path fill="#000000" opacity="1.000000" stroke="none" 
	d="
M250.957016,281.034393 
	C254.057571,281.068756 257.194794,281.068756 260.665894,281.068756 
	C260.665894,284.143646 260.665894,287.208038 260.665894,290.638367 
	C257.773010,290.638367 254.600342,290.638367 251.004593,290.638367 
	C251.004593,287.720245 251.004593,284.787506 251.033585,281.390808 
	C251.062576,280.926819 250.993683,281.000031 250.957016,281.034393 
z"/>
<path fill="#000000" opacity="1.000000" stroke="none" 
	d="
M287.894226,281.000122 
	C289.247314,281.772919 290.747070,282.452942 290.878174,283.336121 
	C291.230652,285.710907 290.998566,288.172485 290.998566,290.796600 
	C287.584564,290.796600 284.537750,290.796600 281.243835,290.796600 
	C281.243835,287.671021 281.243835,284.622589 281.243835,281.000000 
	C283.272552,281.000000 285.344666,281.000000 287.894226,281.000122 
z"/>
<path fill="#000000" opacity="1.000000" stroke="none" 
	d="
M261.034546,131.039124 
	C261.069061,127.944183 261.069061,124.812531 261.069061,121.340492 
	C264.246460,121.340492 267.418121,121.340492 270.994995,121.340492 
	C270.994995,124.292084 270.994995,127.219742 270.963013,130.611633 
	C270.931000,131.075851 270.999969,131.002441 270.575378,130.998688 
	C267.077209,130.973297 264.003601,130.951645 260.930023,130.929993 
	C260.930023,130.929993 261.000061,131.002411 261.034546,131.039124 
z"/>
<path fill="#000000" opacity="1.000000" stroke="none" 
	d="
M101.034286,151.042908 
	C101.068649,147.940048 101.068649,144.800522 101.068649,141.019501 
	C104.162331,141.019501 107.233345,141.019501 110.792236,141.137131 
	C111.280113,141.254761 111.197685,141.181488 111.162842,141.150757 
	C111.127991,144.197525 111.127991,147.275024 111.127991,150.995392 
	C107.883400,150.995392 104.868973,150.995392 101.390625,150.966370 
	C100.926712,150.937363 100.999916,151.006241 101.034286,151.042908 
z"/>
<path fill="#000000" opacity="1.000000" stroke="none" 
	d="
M190.960831,141.034622 
	C194.043564,141.069122 197.163025,141.069122 200.994995,141.069122 
	C200.994995,144.078247 200.994995,147.112915 200.962967,150.611725 
	C200.930939,151.075882 200.999924,151.002457 200.571320,150.998703 
	C197.109711,150.994949 194.076691,150.994949 191.069992,150.994949 
	C191.069992,147.165390 191.069992,144.047745 191.069992,140.930084 
	C191.069992,140.930084 190.997543,141.000122 190.960831,141.034622 
z"/>
<path fill="#000000" opacity="1.000000" stroke="none" 
	d="
M131.034607,171.039093 
	C131.069107,167.944580 131.069107,164.813354 131.069107,161.341080 
	C134.245071,161.341080 137.416840,161.341080 140.994522,161.341080 
	C140.994522,164.288635 140.994522,167.215469 140.996063,170.571198 
	C140.997620,171.000092 141.070007,170.930008 140.610443,170.962479 
	C137.077271,170.973297 134.003662,170.951645 130.930038,170.929993 
	C130.930038,170.929993 131.000107,171.002380 131.034607,171.039093 
z"/>
<path fill="#000000" opacity="1.000000" stroke="none" 
	d="
M140.960907,171.034576 
	C144.055832,171.069077 147.187454,171.069077 150.659515,171.069077 
	C150.659515,174.246872 150.659515,177.419113 150.659515,180.994995 
	C147.707901,180.994995 144.780258,180.994995 141.388367,180.962982 
	C140.924149,180.930954 140.997574,180.999939 141.001312,180.575348 
	C141.026703,177.077179 141.048355,174.003601 141.070007,170.930008 
	C141.070007,170.930008 140.997620,171.000092 140.960907,171.034576 
z"/>
<path fill="#000000" opacity="1.000000" stroke="none" 
	d="
M111.042885,190.965729 
	C107.942337,190.931366 104.805115,190.931366 101.334076,190.931366 
	C101.334076,187.858154 101.334076,184.795746 101.334076,181.361572 
	C104.227005,181.361572 107.399704,181.361572 110.995399,181.361572 
	C110.995399,184.279831 110.995399,187.212570 110.966370,190.609299 
	C110.937332,191.073303 111.006218,191.000107 111.042885,190.965729 
z"/>
<path fill="#000000" opacity="1.000000" stroke="none" 
	d="
M281.042908,210.965820 
	C277.942413,210.931442 274.805237,210.931442 271.334076,210.931442 
	C271.334076,207.856247 271.334076,204.791840 271.334076,201.361572 
	C274.226990,201.361572 277.399719,201.361572 280.995422,201.361572 
	C280.995422,204.279877 280.995422,207.212616 280.966431,210.609375 
	C280.937408,211.073395 281.006256,211.000183 281.042908,210.965820 
z"/>
<path fill="#FFFFFF" opacity="1.000000" stroke="none" 
	d="
M190.598053,140.962555 
	C191.069992,144.047745 191.069992,147.165390 191.069992,150.994949 
	C194.076691,150.994949 197.109711,150.994949 200.606354,150.962494 
	C201.069977,154.076782 201.069977,157.223557 201.069977,160.744446 
	C197.806793,160.744446 194.726303,160.744446 191.270935,160.744446 
	C191.270935,167.506577 191.270935,173.909317 191.270935,180.655899 
	C184.390091,180.655899 177.876495,180.655899 171.178970,180.655899 
	C171.178970,177.630722 171.178970,174.681488 171.178970,171.169739 
	C174.232208,171.169739 177.428192,171.169739 180.803146,171.169739 
	C180.803146,164.212921 180.803146,157.816620 180.803146,151.209900 
	C177.569153,151.209900 174.502533,151.209900 171.050629,151.209900 
	C171.050629,154.410065 171.050629,157.485855 171.050629,161.005066 
	C167.743286,161.005066 164.800369,161.005066 161.393768,161.037537 
	C160.951752,151.338089 160.973404,141.606186 160.962570,131.402145 
	C164.065018,130.930008 167.199951,130.930008 170.699951,130.930008 
	C170.699951,134.142090 170.699951,137.206284 170.699951,140.995041 
	C177.401382,140.995041 183.763748,140.995041 190.598053,140.962555 
z"/>
<path fill="#FFFFFF" opacity="1.000000" stroke="none" 
	d="
M241.000000,230.971939 
	C241.000000,234.446564 241.000000,237.426590 241.000000,240.702515 
	C231.071381,240.702515 221.333572,240.702515 211.296524,240.702515 
	C211.296524,231.069382 211.296524,221.331558 211.296524,211.295593 
	C220.932373,211.295593 230.670151,211.295593 241.000000,211.295593 
	C241.000000,217.617996 241.000000,224.047653 241.000000,230.971939 
M231.000000,226.476105 
	C231.000000,224.728683 231.000000,222.981277 231.000000,221.228851 
	C227.409836,221.228851 224.361496,221.228851 221.189362,221.228851 
	C221.189362,224.506699 221.189362,227.553894 221.189362,230.999908 
	C223.466354,230.999908 225.585495,230.800034 227.651047,231.047409 
	C230.648239,231.406372 231.406052,230.033142 231.000000,226.476105 
z"/>
<path fill="#FFFFFF" opacity="1.000000" stroke="none" 
	d="
M221.000000,165.998199 
	C221.000000,167.896576 221.000000,169.317139 221.000000,170.865143 
	C217.560715,170.865143 214.630753,170.865143 211.349915,170.865143 
	C211.349915,167.768158 211.349915,164.606628 211.349915,161.215958 
	C214.387985,161.215958 217.435196,161.215958 221.000000,161.215958 
	C221.000000,162.679535 221.000000,164.099945 221.000000,165.998199 
z"/>
<path fill="#FFFFFF" opacity="1.000000" stroke="none" 
	d="
M201.034378,191.043137 
	C201.068741,187.942596 201.068741,184.805389 201.068741,181.334137 
	C204.143616,181.334137 207.208008,181.334137 210.638351,181.334137 
	C210.638351,184.226959 210.638351,187.399628 210.638351,190.995407 
	C207.720245,190.995407 204.787521,190.995407 201.390778,190.966492 
	C200.926788,190.937576 201.000015,191.006470 201.034378,191.043137 
z"/>
<path fill="#FFFFFF" opacity="1.000000" stroke="none" 
	d="
M171.034378,201.043137 
	C171.068741,197.942596 171.068741,194.805389 171.068741,191.334137 
	C174.143616,191.334137 177.208008,191.334137 180.638351,191.334137 
	C180.638351,194.226959 180.638351,197.399628 180.638351,200.995407 
	C177.720245,200.995407 174.787521,200.995407 171.390778,200.966492 
	C170.926788,200.937576 171.000015,201.006470 171.034378,201.043137 
z"/>
<path fill="#FFFFFF" opacity="1.000000" stroke="none" 
	d="
M230.965622,190.956863 
	C230.931259,194.057404 230.931259,197.194611 230.931259,200.665863 
	C227.856384,200.665863 224.791992,200.665863 221.361649,200.665863 
	C221.361649,197.773041 221.361649,194.600372 221.361649,191.004593 
	C224.279755,191.004593 227.212479,191.004593 230.609222,191.033508 
	C231.073212,191.062424 230.999985,190.993530 230.965622,190.956863 
z"/>
<path fill="#FFFFFF" opacity="1.000000" stroke="none" 
	d="
M191.254730,100.719902 
	C187.977402,100.873955 184.700073,101.028008 181.043930,101.199867 
	C181.043930,107.749046 181.043930,114.158607 181.043930,120.778122 
	C177.591751,120.778122 174.523590,120.778122 171.005630,120.778122 
	C171.005630,111.075928 171.005630,101.475319 171.005936,91.437401 
	C171.006241,91.000084 170.937363,91.073288 170.937363,91.073288 
	C177.466599,91.073288 183.995850,91.073288 191.008621,91.073288 
	C191.008621,94.181839 191.008621,97.077560 191.095062,100.387802 
	C191.181488,100.802315 191.254730,100.719902 191.254730,100.719902 
z"/>
<path fill="#FFFFFF" opacity="1.000000" stroke="none" 
	d="
M171.042908,90.965714 
	C167.931747,90.931351 164.783920,90.931351 161.318146,90.931351 
	C161.318146,84.500809 161.318146,78.099358 161.318146,71.309250 
	C164.155869,71.309250 167.225616,71.309250 170.680389,71.309250 
	C170.680389,67.871529 170.680389,64.798805 170.680389,61.361744 
	C174.234711,61.361744 177.414398,61.361744 180.803848,61.361744 
	C180.803848,67.786026 180.803848,74.179855 180.803848,80.955826 
	C177.577896,80.955826 174.505356,80.955826 170.995392,80.955826 
	C170.995392,84.261299 170.995392,87.203293 170.966370,90.609283 
	C170.937363,91.073288 171.006241,91.000084 171.042908,90.965714 
z"/>
<path fill="#FFFFFF" opacity="1.000000" stroke="none" 
	d="
M161.037537,130.606125 
	C154.510818,131.069916 147.951660,131.069916 140.994949,131.069916 
	C140.994949,127.708015 140.994949,124.782875 140.962479,121.393906 
	C147.489151,120.930077 154.048294,120.930077 161.005066,120.930077 
	C161.005066,124.292023 161.005066,127.217178 161.037537,130.606125 
z"/>
<path fill="#FFFFFF" opacity="1.000000" stroke="none" 
	d="
M190.957123,51.034218 
	C194.057632,51.068588 197.194809,51.068588 200.665924,51.068588 
	C200.665924,54.143780 200.665924,57.208187 200.665924,60.638443 
	C197.773224,60.638443 194.601395,60.638443 191.004608,60.638443 
	C191.004608,57.720131 191.004608,54.787395 191.033630,51.390656 
	C191.062668,50.926647 190.993790,50.999851 190.957123,51.034218 
z"/>
<path fill="#FFFFFF" opacity="1.000000" stroke="none" 
	d="
M141.034271,81.042885 
	C141.068634,77.942337 141.068634,74.805115 141.068634,71.334076 
	C144.141678,71.334076 147.204163,71.334076 150.638428,71.334076 
	C150.638428,74.227005 150.638428,77.399704 150.638428,80.995399 
	C147.720169,80.995399 144.787430,80.995399 141.390701,80.966370 
	C140.926697,80.937332 140.999893,81.006218 141.034271,81.042885 
z"/>
<path fill="#FFFFFF" opacity="1.000000" stroke="none" 
	d="
M200.965881,100.957268 
	C200.931503,104.064949 200.931503,107.209312 200.931503,110.676712 
	C197.826691,110.676712 194.755783,110.676712 191.019485,110.676712 
	C191.019485,107.840805 191.019485,104.768303 191.137115,101.207848 
	C191.254730,100.719902 191.181488,100.802315 191.150757,100.837128 
	C194.132004,100.916168 197.143967,100.960388 200.614685,101.033737 
	C201.073441,101.062859 201.000259,100.993942 200.965881,100.957268 
z"/>
<path fill="#FFFFFF" opacity="1.000000" stroke="none" 
	d="
M141.389420,101.037521 
	C140.951645,97.996414 140.973297,94.922821 140.962463,91.389633 
	C144.047623,90.930038 147.165253,90.930038 150.994247,90.930038 
	C150.994247,94.076508 150.994247,97.109406 150.994003,100.571106 
	C150.993759,100.999916 151.062637,100.926712 151.062637,100.926712 
	C147.991364,100.952820 144.920105,100.978935 141.389420,101.037521 
z"/>
<path fill="#FFFFFF" opacity="1.000000" stroke="none" 
	d="
M150.957092,101.034286 
	C154.057602,101.068649 157.194778,101.068649 160.665924,101.068649 
	C160.665924,104.143745 160.665924,107.208145 160.665924,110.638428 
	C157.772995,110.638428 154.600311,110.638428 151.004608,110.638428 
	C151.004608,107.720177 151.004608,104.787445 151.033630,101.390717 
	C151.062637,100.926712 150.993759,100.999916 150.957092,101.034286 
z"/>
<path fill="#FFFFFF" opacity="1.000000" stroke="none" 
	d="
M71.255051,150.719528 
	C67.990776,150.719528 64.726509,150.719528 61.231735,150.719528 
	C61.231735,147.627747 61.231735,144.567169 61.231735,141.251038 
	C64.328835,141.251038 67.390656,141.251038 71.008644,141.251038 
	C71.008644,144.133850 71.008644,147.053604 71.095207,150.387665 
	C71.181770,150.801971 71.255051,150.719528 71.255051,150.719528 
z"/>
<path fill="#FFFFFF" opacity="1.000000" stroke="none" 
	d="
M81.042885,160.965729 
	C77.939987,160.931366 74.800430,160.931366 71.019531,160.931366 
	C71.019531,157.837494 71.019531,154.766418 71.137291,151.207428 
	C71.255051,150.719528 71.181770,150.801971 71.151062,150.836823 
	C74.197769,150.871658 77.275192,150.871658 80.995399,150.871658 
	C80.995399,154.116669 80.995399,157.131073 80.966370,160.609390 
	C80.937332,161.073303 81.006218,161.000107 81.042885,160.965729 
z"/>
<path fill="#FFFFFF" opacity="1.000000" stroke="none" 
	d="
M65.052002,181.000000 
	C61.966869,181.406036 60.593639,180.648285 60.952614,177.651062 
	C61.200008,175.585495 61.000095,173.466370 61.000095,171.189362 
	C64.446136,171.189362 67.493401,171.189362 70.771156,171.189362 
	C70.771156,174.361496 70.771156,177.409851 70.771156,181.000000 
	C69.018730,181.000000 67.271317,181.000000 65.052002,181.000000 
z"/>
<path fill="#FFFFFF" opacity="1.000000" stroke="none" 
	d="
M51.002098,53.197029 
	C52.101669,52.142437 53.195934,51.081734 54.297684,51.073902 
	C69.626198,50.964920 84.955742,51.000107 100.642456,51.000107 
	C100.642456,67.476166 100.642456,83.883041 100.642456,100.645500 
	C84.517601,100.645500 68.110825,100.645500 51.000275,100.645500 
	C51.000275,85.173378 51.000275,69.426918 51.002098,53.197029 
M71.521156,61.000000 
	C68.082939,61.000000 64.644722,61.000000 61.280434,61.000000 
	C61.280434,71.299576 61.280434,81.036568 61.280434,90.719193 
	C71.300346,90.719193 81.037354,90.719193 90.718811,90.719193 
	C90.718811,80.698807 90.718811,70.961884 90.718811,61.000000 
	C84.465088,61.000000 78.490784,61.000000 71.521156,61.000000 
z"/>
<path fill="#FFFFFF" opacity="1.000000" stroke="none" 
	d="
M75.000015,281.000000 
	C66.857132,281.000000 59.214230,281.000000 51.286629,281.000000 
	C51.286629,264.380829 51.286629,247.977814 51.286629,231.286652 
	C67.619118,231.286652 84.022148,231.286652 100.713333,231.286652 
	C100.713333,247.619064 100.713333,264.022125 100.713333,281.000000 
	C92.361435,281.000000 83.930717,281.000000 75.000015,281.000000 
M61.000290,268.322266 
	C61.777992,269.214325 62.540462,270.866333 63.335716,270.882294 
	C72.444283,271.064819 81.557831,270.998474 90.769577,270.998474 
	C90.769577,260.805328 90.769577,251.068268 90.769577,241.232742 
	C80.800598,241.232742 71.063492,241.232742 61.000015,241.232742 
	C61.000015,250.090302 61.000015,258.719269 61.000290,268.322266 
z"/>
<path fill="#FFFFFF" opacity="1.000000" stroke="none" 
	d="
M281.000000,63.014065 
	C281.000000,75.818642 281.000000,88.126297 281.000000,100.716415 
	C264.374298,100.716415 247.970947,100.716415 231.283066,100.716415 
	C231.283066,84.373199 231.283066,67.969887 231.283066,51.282547 
	C247.627853,51.282547 264.031158,51.282547 281.000000,51.282547 
	C281.000000,54.975380 281.000000,58.746262 281.000000,63.014065 
M241.000000,66.599747 
	C241.000000,74.688972 241.000000,82.778198 241.000000,90.675690 
	C251.386749,90.675690 261.126373,90.675690 270.673645,90.675690 
	C270.673645,80.609093 270.673645,70.869362 270.673645,61.151550 
	C260.727631,61.151550 251.108704,61.151550 241.000000,61.151550 
	C241.000000,62.737991 241.000000,64.180328 241.000000,66.599747 
z"/>
<path fill="#FFFFFF" opacity="1.000000" stroke="none" 
	d="
M151.037521,250.610443 
	C147.996399,251.048355 144.922791,251.026703 141.389587,251.037521 
	C140.951645,247.996399 140.973297,244.922791 140.962479,241.389587 
	C144.003601,240.951645 147.077209,240.973297 150.610397,240.962479 
	C151.048355,244.003632 151.026703,247.077271 151.037521,250.610443 
z"/>
<path fill="#FFFFFF" opacity="1.000000" stroke="none" 
	d="
M171.034180,281.042908 
	C171.068558,277.942413 171.068558,274.805237 171.068558,271.334076 
	C174.143753,271.334076 177.208160,271.334076 180.638428,271.334076 
	C180.638428,274.226990 180.638428,277.399719 180.638428,280.995422 
	C177.720123,280.995422 174.787384,280.995422 171.390625,280.966431 
	C170.926605,280.937408 170.999817,281.006256 171.034180,281.042908 
z"/>
<path fill="#FFFFFF" opacity="1.000000" stroke="none" 
	d="
M140.610443,170.962479 
	C141.048355,174.003601 141.026703,177.077179 141.037537,180.610367 
	C137.952301,181.069962 134.834595,181.069962 130.994949,181.069962 
	C130.994949,177.923447 130.994949,174.890350 130.962494,171.393616 
	C134.003662,170.951645 137.077271,170.973297 140.610443,170.962479 
z"/>
<path fill="#FFFFFF" opacity="1.000000" stroke="none" 
	d="
M260.962463,131.393570 
	C264.003601,130.951645 267.077209,130.973297 270.610413,130.962479 
	C271.048370,134.003601 271.026703,137.077179 271.037537,140.610367 
	C267.952301,141.069962 264.834564,141.069962 260.994934,141.069962 
	C260.994934,137.923401 260.994934,134.890274 260.962463,131.393570 
z"/>
<path fill="#000000" opacity="1.000000" stroke="none" 
	d="
M231.000000,226.947998 
	C231.406052,230.033142 230.648239,231.406372 227.651047,231.047409 
	C225.585495,230.800034 223.466354,230.999908 221.189362,230.999908 
	C221.189362,227.553894 221.189362,224.506699 221.189362,221.228851 
	C224.361496,221.228851 227.409836,221.228851 231.000000,221.228851 
	C231.000000,222.981277 231.000000,224.728683 231.000000,226.947998 
z"/>
<path fill="#000000" opacity="1.000000" stroke="none" 
	d="
M72.018814,61.000000 
	C78.490784,61.000000 84.465088,61.000000 90.718811,61.000000 
	C90.718811,70.961884 90.718811,80.698807 90.718811,90.719193 
	C81.037354,90.719193 71.300346,90.719193 61.280434,90.719193 
	C61.280434,81.036568 61.280434,71.299576 61.280434,61.000000 
	C64.644722,61.000000 68.082939,61.000000 72.018814,61.000000 
z"/>
<path fill="#000000" opacity="1.000000" stroke="none" 
	d="
M61.000153,267.835236 
	C61.000015,258.719269 61.000015,250.090302 61.000015,241.232742 
	C71.063492,241.232742 80.800598,241.232742 90.769577,241.232742 
	C90.769577,251.068268 90.769577,260.805328 90.769577,270.998474 
	C81.557831,270.998474 72.444283,271.064819 63.335716,270.882294 
	C62.540462,270.866333 61.777992,269.214325 61.000153,267.835236 
z"/>
<path fill="#000000" opacity="1.000000" stroke="none" 
	d="
M241.000000,66.111206 
	C241.000000,64.180328 241.000000,62.737991 241.000000,61.151550 
	C251.108704,61.151550 260.727631,61.151550 270.673645,61.151550 
	C270.673645,70.869362 270.673645,80.609093 270.673645,90.675690 
	C261.126373,90.675690 251.386749,90.675690 241.000000,90.675690 
	C241.000000,82.778198 241.000000,74.688972 241.000000,66.111206 
z"/>
</svg>