<svg version="1.1" id="Layer_1" xmlns="http://www.w3.org/2000/svg" xmlns:xlink="http://www.w3.org/1999/xlink" x="0px" y="0px"
	 width="100%" viewBox="0 0 583 583" enable-background="new 0 0 583 583" xml:space="preserve">
<path fill="#000000" opacity="1.000000" stroke="none" 
	d="
M1.000000,142.000000 
	C1.000000,94.666679 1.000000,47.833363 1.000000,1.000031 
	C195.333252,1.000021 389.666504,1.000021 583.999817,1.000010 
	C583.999878,195.333206 583.999878,389.666412 583.999939,583.999756 
	C389.666840,583.999817 195.333710,583.999817 1.000282,583.999878 
	C1.000000,436.833344 1.000000,289.666656 1.000000,142.000000 
M42.766941,44.747574 
	C42.823456,45.502777 42.879974,46.257980 42.707531,47.913570 
	C42.782360,51.938175 42.857189,55.962784 42.746838,60.910069 
	C42.824459,84.268509 42.902081,107.626945 42.762188,131.903946 
	C42.821651,142.275635 42.881115,152.647339 42.715588,163.881516 
	C42.791237,166.249954 42.866886,168.618408 42.763111,171.909973 
	C42.869732,177.933105 42.976353,183.956253 42.980434,190.749557 
	C43.383373,192.494446 43.786308,194.239349 44.201160,196.722092 
	C45.395916,199.538712 46.495384,202.400360 47.801105,205.164566 
	C55.526165,221.518509 74.140862,231.434982 93.279060,228.827942 
	C111.817711,226.302567 125.648933,213.581345 130.649078,195.452499 
	C130.899506,193.573456 131.149933,191.694397 131.361465,189.589279 
	C131.361465,189.589279 131.134171,189.620316 131.711929,188.901184 
	C131.737778,179.282104 131.763611,169.663025 131.940216,159.113251 
	C131.886505,153.414322 131.832779,147.715408 131.933395,141.088425 
	C131.886261,125.725876 131.839142,110.363319 131.924530,94.502892 
	C131.879013,94.337303 131.833511,94.171707 131.933075,93.499779 
	C131.952454,93.325294 131.971832,93.150803 132.921768,92.844040 
	C144.605667,92.762680 156.289566,92.681320 168.861053,92.797859 
	C171.581131,92.730309 174.301193,92.662758 177.940536,92.769051 
	C193.945663,92.710136 209.950806,92.651222 226.756226,92.790993 
	C229.437988,92.733055 232.119736,92.675117 235.527817,92.800629 
	C237.024628,92.734085 238.521454,92.667542 240.937698,92.774094 
	C246.951523,92.716187 252.965332,92.658272 259.825897,92.796944 
	C261.556824,92.731812 263.287720,92.666672 265.938782,92.774544 
	C277.282501,92.715614 288.626251,92.656693 300.891998,92.795761 
	C311.271881,92.731308 321.651733,92.666855 332.755402,92.772926 
	C333.492279,92.716911 334.229187,92.660896 335.870209,92.801682 
	C339.257782,92.736023 342.645355,92.670364 346.928162,92.775360 
	C350.269897,92.720901 353.611603,92.666443 357.722656,92.811859 
	C359.543091,92.793587 361.363525,92.775307 363.710541,92.909874 
	C363.889130,92.871071 364.067719,92.832268 364.923950,93.012848 
	C368.543091,93.507385 372.180176,93.897240 375.778351,94.514091 
	C393.884918,97.618202 409.648712,105.798271 424.385895,117.499931 
	C428.605164,121.661484 432.824402,125.823036 437.228424,130.634964 
	C448.085999,143.660278 454.763763,158.731094 458.874512,175.539581 
	C458.948273,175.697861 459.022064,175.856125 459.035217,176.743805 
	C459.363220,178.160599 459.691223,179.577408 459.915375,181.679367 
	C460.098053,182.812592 460.280701,183.945831 460.368256,185.828400 
	C460.559723,186.552887 460.751190,187.277374 460.801788,188.929764 
	C459.697296,200.906021 458.592834,212.882278 457.128906,225.470093 
	C453.776855,237.978058 447.800690,249.214691 439.982605,260.189850 
	C431.401001,270.299988 422.819397,280.410095 413.720947,290.892151 
	C403.220367,303.084900 392.719818,315.277679 381.718842,327.866486 
	C369.362366,342.244293 357.005890,356.622101 344.098755,371.310638 
	C341.258270,374.552490 338.284210,377.688019 335.602356,381.056152 
	C327.681702,391.003784 324.263428,402.267181 326.005646,415.776642 
	C327.518311,427.240387 333.341003,436.331696 341.876343,444.616943 
	C342.208496,444.819550 342.540649,445.022186 342.838287,445.126465 
	C342.838287,445.126465 342.743744,445.170349 342.928284,445.830505 
	C356.293243,461.208252 369.658203,476.585999 383.286713,492.579742 
	C394.819153,505.806122 406.351624,519.032532 418.164917,532.851990 
	C428.210907,544.303650 438.256897,555.755371 448.648529,567.830383 
	C456.136078,575.596985 465.211548,580.008179 476.911255,580.983459 
	C485.066315,581.531189 492.890839,580.430969 500.804321,576.148560 
	C524.671997,563.487793 532.491516,533.589355 517.257385,511.674744 
	C512.643250,505.037140 506.729218,499.303162 501.187561,492.554474 
	C494.561859,484.977112 487.936157,477.399750 481.053833,469.189880 
	C472.495026,459.410675 463.936188,449.631470 455.082458,439.229034 
	C446.551056,429.453735 438.019653,419.678467 429.711090,409.221924 
	C430.947205,407.677917 432.142120,406.098694 433.425995,404.595459 
	C443.280060,393.058136 453.151367,381.535522 463.595459,369.676727 
	C475.706360,355.576355 487.817261,341.475983 500.448212,327.062805 
	C508.678802,315.480042 516.909363,303.897308 525.673584,291.857574 
	C530.179871,281.602692 534.686218,271.347839 539.662354,260.544617 
	C542.434875,248.695343 545.207397,236.846069 548.208557,224.450912 
	C548.153015,223.878204 548.097473,223.305496 548.168762,222.278030 
	C548.168762,222.278030 547.926575,221.872803 548.000366,221.294128 
	C548.640076,214.524704 549.279785,207.755280 550.094360,200.080017 
	C549.999573,196.385406 549.904785,192.690781 549.922668,188.493057 
	C549.868835,188.329819 549.815002,188.166595 549.912659,187.336029 
	C549.838501,186.890106 549.764343,186.444168 549.830139,185.229462 
	C549.600830,183.465240 549.371460,181.701035 549.281189,179.150421 
	C549.134827,178.100220 548.988464,177.050034 548.939209,175.469727 
	C548.877014,175.301208 548.814880,175.132675 548.833801,174.161835 
	C548.303162,171.069534 547.772522,167.977234 547.305786,164.148331 
	C547.144165,163.430908 546.982544,162.713470 546.864319,161.196320 
	C543.628784,150.035385 540.393188,138.874451 537.110718,127.000145 
	C535.381226,123.029076 533.942017,118.898682 531.866272,115.117699 
	C526.307251,104.992081 520.814331,94.800591 514.619995,85.064819 
	C511.118469,79.561333 506.285828,74.904755 501.901062,69.209915 
	C496.197693,63.496094 490.494354,57.782272 484.679016,51.673237 
	C484.512848,51.416077 484.277252,51.300606 483.748016,50.987473 
	C483.748016,50.987473 483.361755,50.860100 483.045288,50.240040 
	C475.897858,44.867008 469.200470,38.706776 461.498474,34.303894 
	C449.698761,27.558567 437.207001,22.023855 424.497803,15.533943 
	C422.997894,15.059751 421.497986,14.585557 419.401031,13.749134 
	C418.286896,13.459173 417.172760,13.169212 415.498047,12.411136 
	C397.476715,6.707408 379.025177,3.670979 359.200836,3.197706 
	C342.448151,3.302237 325.695496,3.406769 308.016907,3.429748 
	C276.992065,3.418174 245.967239,3.392930 214.942398,3.408204 
	C209.643921,3.410813 204.345535,3.586689 198.147476,3.397635 
	C193.107437,3.472836 188.067413,3.548036 182.128723,3.383019 
	C178.414307,3.464856 174.699890,3.546694 170.079971,3.385659 
	C150.706207,3.480882 131.332443,3.576104 111.055656,3.435525 
	C105.060326,3.449845 99.064995,3.464165 92.211342,3.186078 
	C89.018913,3.324023 85.826477,3.461968 82.064186,3.618262 
	C81.713310,3.751665 81.362442,3.885068 80.200668,3.943882 
	C62.646461,6.727834 48.176640,19.692940 44.090183,36.364407 
	C44.090183,36.364407 44.223770,36.648369 43.907379,37.304253 
	C43.596931,39.540882 43.286480,41.777515 42.766941,44.747574 
M42.739834,500.907013 
	C42.810711,513.276794 42.881588,525.646606 42.757900,538.880249 
	C44.472561,567.150940 70.695099,586.626282 98.003418,579.917358 
	C110.651283,576.810120 119.635735,568.787903 127.498138,558.016846 
	C137.795731,546.080200 148.093338,534.143494 158.931686,521.843201 
	C163.104614,516.945740 167.277542,512.048218 171.974335,506.783356 
	C176.766663,501.160004 181.558990,495.536682 186.932999,489.502655 
	C193.934723,481.326141 200.936462,473.149628 208.500580,464.612183 
	C215.258774,456.717072 222.016983,448.821930 229.335068,440.515167 
	C234.067795,434.972778 238.800507,429.430420 244.083557,423.485413 
	C249.787750,416.805481 255.491959,410.125549 261.781067,403.080566 
	C264.660583,399.666260 267.540070,396.251923 270.986023,392.434113 
	C275.656036,386.947968 280.326050,381.461792 285.577179,375.650513 
	C293.090210,366.850830 300.603241,358.051117 308.711151,348.919556 
	C318.850281,337.080231 328.989410,325.240906 339.726807,313.052246 
	C350.393585,300.653076 361.060364,288.253906 372.242310,275.437134 
	C381.209076,264.982208 390.175812,254.527313 399.730835,243.765503 
	C401.570831,241.645844 403.426819,239.539810 405.247864,237.404007 
	C411.034515,230.617203 415.277710,223.117035 416.272217,213.100891 
	C416.157623,204.775208 416.178253,196.409500 412.619110,188.619568 
	C399.875458,160.727203 362.511719,153.770462 340.944641,175.651230 
	C331.984314,184.741898 324.140045,194.932571 315.199280,204.968460 
	C312.921631,207.579590 310.619293,210.169693 308.370941,212.805801 
	C301.861359,220.438049 295.373505,228.088791 288.274109,236.052689 
	C278.526093,247.425461 268.778046,258.798248 258.680847,270.294342 
	C258.453278,270.442505 258.342194,270.652283 257.853516,271.313995 
	C257.751495,271.497406 257.649445,271.680817 256.999481,272.194366 
	C245.966873,285.061554 234.934250,297.928741 223.305328,311.118896 
	C213.368912,322.699493 203.432495,334.280090 193.151962,345.989075 
	C192.939957,346.155609 192.847519,346.372986 192.294235,346.966797 
	C191.183426,348.311951 190.072601,349.657135 188.422012,351.387726 
	C182.917831,357.862000 177.413651,364.336304 171.325150,371.154236 
	C167.188324,376.043762 163.051514,380.933258 158.330795,386.165344 
	C153.242401,392.157990 148.154007,398.150635 142.504730,404.487274 
	C139.309967,408.272186 136.115204,412.057129 132.536011,415.936584 
	C132.536011,415.936584 132.144470,415.994934 132.025406,415.061035 
	C132.008789,387.697662 132.009689,360.334290 131.945557,332.971008 
	C131.939819,330.520203 131.512482,328.070404 131.304825,324.825897 
	C130.569107,321.843872 130.096176,318.766602 129.055435,315.895142 
	C121.850555,296.016388 101.088356,283.893707 80.211700,287.251343 
	C59.381760,290.601471 42.682163,309.328064 42.749260,329.916870 
	C42.822792,353.611206 42.896328,377.305511 42.740868,401.912933 
	C42.815636,423.273041 42.890400,444.633179 42.735233,466.907837 
	C42.810043,477.935516 42.884853,488.963165 42.739834,500.907013 
z"/>
<path fill="#18CFEF" opacity="1.000000" stroke="none" 
	d="
M437.043671,129.984589 
	C432.824402,125.823036 428.605164,121.661484 424.193542,116.850159 
	C423.814423,115.568939 423.740784,114.873260 423.424103,114.315605 
	C418.013916,104.788643 415.560211,94.707588 418.030060,83.833977 
	C419.160553,78.857063 420.730225,73.979912 422.369080,68.862923 
	C434.311554,49.005543 457.598907,42.982235 476.220703,49.023205 
	C478.554138,49.780170 480.979156,50.254704 483.361755,50.860100 
	C483.361755,50.860100 483.748016,50.987473 483.934570,51.339592 
	C484.290039,51.914047 484.513336,52.039627 484.791016,52.068451 
	C490.494354,57.782272 496.197693,63.496094 501.988342,69.925903 
	C502.220001,71.285889 502.249084,71.984795 502.525696,72.565872 
	C509.619080,87.466682 506.743317,111.484047 493.062592,122.530479 
	C491.151062,124.073936 489.675934,126.157806 487.655029,128.066467 
	C473.969604,136.705338 459.882843,138.504456 444.959137,132.835052 
	C442.337952,131.839279 439.683014,130.932480 437.043671,129.984589 
z"/>
<path fill="#19BDCC" opacity="1.000000" stroke="none" 
	d="
M346.032928,92.604721 
	C342.645355,92.670364 339.257782,92.736023 335.310852,92.454063 
	C333.844849,92.271767 332.938232,92.437080 332.031616,92.602402 
	C321.651733,92.666855 311.271881,92.731308 300.265198,92.402542 
	C298.093048,91.670845 296.547760,91.332367 295.001862,90.525620 
	C295.000854,77.287605 294.999603,64.517868 295.000244,51.748135 
	C295.000824,39.807602 294.935638,27.866501 295.036591,15.926807 
	C295.080444,10.736801 298.222382,8.707754 303.137299,10.330648 
	C303.821594,10.556591 304.619202,10.439290 306.804840,10.561296 
	C304.230621,8.101274 302.613495,6.555858 301.465393,5.004599 
	C321.283356,4.996369 340.632263,4.993985 360.209045,5.252982 
	C360.831451,6.241978 361.043182,7.341725 361.648956,7.639267 
	C367.314850,10.422278 366.449646,14.558718 364.613678,19.328304 
	C364.110474,20.635622 364.867584,22.929966 365.815125,24.196045 
	C368.278168,27.487255 368.607605,30.544146 365.795776,33.614624 
	C363.539307,36.078629 363.829102,38.214420 365.957397,40.590805 
	C368.577271,43.516083 368.474701,46.658806 365.857178,49.536148 
	C363.648224,51.964325 363.716980,54.104702 365.895660,56.512707 
	C368.514709,59.407463 368.563965,62.577709 365.912872,65.451904 
	C363.459900,68.111282 364.292877,70.124229 365.988495,72.912186 
	C367.140228,74.805870 367.734161,78.558647 366.635498,80.011314 
	C363.546722,84.095390 363.897491,88.335640 364.246307,92.793465 
	C364.067719,92.832268 363.889130,92.871071 363.263123,92.518738 
	C362.208282,91.752892 361.600922,91.378181 360.824646,91.120590 
	C360.439453,91.408615 360.263733,91.614220 359.738647,91.882858 
	C358.566589,91.925064 357.784576,91.938942 356.667969,91.733582 
	C352.899872,91.877792 349.466400,92.241257 346.032928,92.604721 
z"/>
<path fill="#1CB9D1" opacity="1.000000" stroke="none" 
	d="
M300.996338,5.010446 
	C302.613495,6.555858 304.230621,8.101274 306.804840,10.561296 
	C304.619202,10.439290 303.821594,10.556591 303.137299,10.330648 
	C298.222382,8.707754 295.080444,10.736801 295.036591,15.926807 
	C294.935638,27.866501 295.000824,39.807602 295.000244,51.748135 
	C294.999603,64.517868 295.000854,77.287605 294.532928,90.527786 
	C285.988586,90.999161 277.910919,90.914207 269.838074,91.073486 
	C268.222198,91.105362 266.624634,92.068031 265.018646,92.601532 
	C263.287720,92.666672 261.556824,92.731812 259.203674,92.384422 
	C255.180374,91.647942 251.772125,91.016548 248.380447,91.095680 
	C245.582870,91.160950 242.804916,92.067337 240.018265,92.600998 
	C238.521454,92.667542 237.024628,92.734085 235.199692,92.287506 
	C233.582077,86.778847 231.698746,81.844398 231.176834,76.769920 
	C230.693771,72.073456 231.981171,67.223877 231.931427,62.447529 
	C231.841873,53.849289 231.223892,45.257797 231.037964,36.658920 
	C230.885117,29.590490 231.075592,22.515259 231.040924,15.443398 
	C231.022720,11.731068 232.498138,9.413636 236.407318,9.039044 
	C237.648880,8.920076 238.880920,8.702108 240.407318,8.488945 
	C239.422195,7.064550 238.710373,6.035332 238.467377,5.002668 
	C259.622894,5.002964 280.309631,5.006707 300.996338,5.010446 
z"/>
<path fill="#1189CC" opacity="1.000000" stroke="none" 
	d="
M344.649414,370.999939 
	C357.005890,356.622101 369.362366,342.244293 382.278870,327.955078 
	C384.985168,333.031769 388.603607,333.472748 393.451874,332.168182 
	C396.311951,331.398651 399.549988,332.020081 402.617859,332.039307 
	C410.030029,332.085785 417.442078,332.146942 424.854218,332.194397 
	C425.012543,332.195404 425.170319,332.063080 425.330200,332.058472 
	C433.083344,331.835052 440.836609,331.615143 448.590393,331.415619 
	C448.904572,331.407532 449.220947,331.675842 449.541321,331.688568 
	C456.953491,331.984070 464.366272,332.262939 471.779266,332.536194 
	C471.935913,332.541962 472.094055,332.411896 472.255341,332.400726 
	C481.351349,331.768951 490.569458,331.789307 498.944397,327.333527 
	C499.194153,327.200653 499.596802,327.355103 499.928162,327.375610 
	C487.817261,341.475983 475.706360,355.576355 462.988831,369.710724 
	C458.209045,370.496185 454.039612,371.873840 449.862030,371.899078 
	C419.209290,372.084290 388.554810,372.038574 357.901184,371.954102 
	C353.483093,371.941956 349.066620,371.332825 344.649414,370.999939 
z"/>
<path fill="#0BCCC6" opacity="1.000000" stroke="none" 
	d="
M131.792023,95.000771 
	C131.839142,110.363319 131.886261,125.725876 131.401794,141.546661 
	C121.583565,141.051178 111.909279,144.318268 102.945198,139.357178 
	C102.066345,138.870789 100.304001,139.463516 99.182030,140.019806 
	C93.130974,143.020004 87.206306,142.883865 81.034996,140.216263 
	C79.309334,139.470337 76.958260,139.865448 74.958008,140.164581 
	C73.546585,140.375656 72.234970,141.850601 70.892616,141.830673 
	C61.932255,141.697617 52.975605,141.314270 44.011803,140.556488 
	C43.991756,137.059448 43.977669,134.018158 43.968082,130.509689 
	C43.987247,116.031441 44.001911,102.020370 44.400547,88.080658 
	C48.529854,88.680946 52.283699,89.685883 56.018383,89.619118 
	C60.755127,89.534416 65.469421,88.156708 70.205513,88.079544 
	C84.007217,87.854652 97.814995,87.981255 111.620316,88.007576 
	C118.388527,88.020477 124.924698,86.997131 131.049683,84.390564 
	C131.376663,86.871880 131.708374,88.936363 132.029221,91.330017 
	C132.009308,92.098213 132.000275,92.537262 131.991226,92.976303 
	C131.971832,93.150803 131.952454,93.325294 131.767059,93.863861 
	C131.485825,94.523994 131.549484,94.781609 131.792023,95.000771 
z"/>
<path fill="#F37022" opacity="1.000000" stroke="none" 
	d="
M223.901642,310.795929 
	C234.934250,297.928741 245.966873,285.061554 257.638245,272.106110 
	C261.327301,275.088043 264.107239,275.425903 268.510773,273.531708 
	C272.180359,271.953217 277.787415,271.913635 281.324188,273.654755 
	C287.313843,276.603363 292.403564,276.703400 298.266418,274.090332 
	C300.296509,273.185547 303.431030,272.994293 305.349213,273.932556 
	C311.193512,276.791168 316.564728,276.793182 322.454468,274.033997 
	C324.522186,273.065338 327.829803,273.258362 329.976318,274.232239 
	C335.542664,276.757751 340.610931,276.613495 346.178284,274.180176 
	C348.428406,273.196747 351.853485,273.347900 354.127350,274.363281 
	C357.008942,275.650055 359.257294,276.231323 361.971558,274.409393 
	C365.591675,271.979401 368.875000,272.671265 371.727142,275.854736 
	C361.060364,288.253906 350.393585,300.653076 339.328308,312.893311 
	C335.843903,312.821625 332.758301,312.973114 329.672150,312.984222 
	C320.204956,313.018372 310.735504,313.124878 301.270905,312.966125 
	C290.834686,312.791077 280.404633,312.245422 269.968414,312.076843 
	C264.977539,311.996246 259.532806,310.653839 255.875244,316.016235 
	C255.504456,316.559814 252.879532,316.397827 252.084961,315.686798 
	C246.508835,310.697083 239.679306,312.034760 234.287308,314.068420 
	C228.855774,316.116974 226.299759,315.361725 223.901642,310.795929 
z"/>
<path fill="#14BEC5" opacity="1.000000" stroke="none" 
	d="
M364.585144,92.903152 
	C363.897491,88.335640 363.546722,84.095390 366.635498,80.011314 
	C367.734161,78.558647 367.140228,74.805870 365.988495,72.912186 
	C364.292877,70.124229 363.459900,68.111282 365.912872,65.451904 
	C368.563965,62.577709 368.514709,59.407463 365.895660,56.512707 
	C363.716980,54.104702 363.648224,51.964325 365.857178,49.536148 
	C368.474701,46.658806 368.577271,43.516083 365.957397,40.590805 
	C363.829102,38.214420 363.539307,36.078629 365.795776,33.614624 
	C368.607605,30.544146 368.278168,27.487255 365.815125,24.196045 
	C364.867584,22.929966 364.110474,20.635622 364.613678,19.328304 
	C366.449646,14.558718 367.314850,10.422278 361.648956,7.639267 
	C361.043182,7.341725 360.831451,6.241978 360.207703,5.059538 
	C359.978485,4.604712 359.963318,4.217898 360.030884,4.039004 
	C360.098450,3.860110 360.114990,3.478012 360.114990,3.478012 
	C379.025177,3.670979 397.476715,6.707408 415.524475,12.845397 
	C411.952148,12.930261 410.277344,14.033415 411.424683,18.030621 
	C412.004272,20.049892 411.971649,22.284542 411.977600,24.422476 
	C412.021057,39.992229 411.959015,55.562500 412.081512,71.131424 
	C412.092621,72.547127 413.166138,73.954460 413.746307,75.365677 
	C414.823029,74.142281 416.553528,73.057289 416.847595,71.668213 
	C417.578918,68.213501 419.167145,67.556389 422.100708,69.057510 
	C420.730225,73.979912 419.160553,78.857063 418.030060,83.833977 
	C415.560211,94.707588 418.013916,104.788643 423.424103,114.315605 
	C423.740784,114.873260 423.814423,115.568939 424.017151,116.566124 
	C409.648712,105.798271 393.884918,97.618202 375.778351,94.514091 
	C372.180176,93.897240 368.543091,93.507385 364.585144,92.903152 
z"/>
<path fill="#1892D1" opacity="1.000000" stroke="none" 
	d="
M500.188171,327.219177 
	C499.596802,327.355103 499.194153,327.200653 498.944397,327.333527 
	C490.569458,331.789307 481.351349,331.768951 472.255341,332.400726 
	C472.094055,332.411896 471.935913,332.541962 471.779266,332.536194 
	C464.366272,332.262939 456.953491,331.984070 449.541321,331.688568 
	C449.220947,331.675842 448.904572,331.407532 448.590393,331.415619 
	C440.836609,331.615143 433.083344,331.835052 425.330200,332.058472 
	C425.170319,332.063080 425.012543,332.195404 424.854218,332.194397 
	C417.442078,332.146942 410.030029,332.085785 402.617859,332.039307 
	C399.549988,332.020081 396.311951,331.398651 393.451874,332.168182 
	C388.603607,333.472748 384.985168,333.031769 382.529053,327.757080 
	C392.719818,315.277679 403.220367,303.084900 414.294250,290.989929 
	C416.189240,294.067352 417.628021,296.965668 421.715179,295.896301 
	C422.948425,295.573639 424.170807,294.954498 425.216034,294.214081 
	C428.835541,291.650177 453.958771,291.155182 457.751099,293.201996 
	C460.359558,294.609833 463.421844,295.663513 466.354614,295.879364 
	C471.979858,296.293396 477.658447,296.062286 483.312317,295.958466 
	C484.925812,295.928894 487.150574,295.982758 488.027893,295.022949 
	C491.210083,291.541473 495.171173,292.082336 499.137634,291.976349 
	C506.596497,291.777069 514.050293,291.380341 521.509521,291.214233 
	C522.710876,291.187469 523.929443,291.928467 525.140015,292.314575 
	C516.909363,303.897308 508.678802,315.480042 500.188171,327.219177 
z"/>
<path fill="#1456A9" opacity="1.000000" stroke="none" 
	d="
M448.302887,567.207031 
	C438.256897,555.755371 428.210907,544.303650 418.116150,532.175232 
	C418.647858,529.800842 419.741547,528.098145 419.724945,526.406311 
	C419.622406,515.966736 418.915283,505.524231 419.072083,495.092682 
	C419.423340,471.722473 420.186432,448.358643 420.664429,424.989777 
	C420.684937,423.987488 419.533051,422.961212 419.081055,421.644836 
	C422.151581,417.571930 425.068451,413.800354 428.236511,410.012115 
	C428.821228,409.964691 429.154755,409.933960 429.488251,409.903198 
	C438.019653,419.678467 446.551056,429.453735 454.845612,439.665955 
	C451.655121,443.196259 450.563446,458.930664 453.272400,463.742218 
	C455.271393,467.292786 453.913849,470.453705 453.650421,474.044983 
	C452.740021,486.455139 452.495239,499.002594 453.362396,511.402283 
	C453.631897,515.255615 455.483368,518.711365 453.116943,522.571594 
	C452.238312,524.004944 452.098816,526.034729 452.048157,527.804749 
	C451.910461,532.619263 451.710297,537.463379 452.091583,542.251465 
	C452.398010,546.099060 453.167603,549.996033 454.363281,553.665344 
	C455.948273,558.529297 453.341309,564.937988 448.302887,567.207031 
z"/>
<path fill="#F79825" opacity="1.000000" stroke="none" 
	d="
M126.887581,558.431641 
	C119.635735,568.787903 110.651283,576.810120 98.003418,579.917358 
	C70.695099,586.626282 44.472561,567.150940 43.096561,538.114380 
	C43.623379,533.231567 43.811535,529.114563 44.403828,524.991333 
	C52.017632,524.323364 59.219067,523.226135 66.438652,523.089722 
	C81.932465,522.797058 97.439003,523.186951 112.933334,522.908264 
	C119.168144,522.796204 125.384598,521.663391 131.691116,521.456665 
	C131.736679,527.320801 131.700516,532.723511 131.596802,538.217163 
	C131.450531,538.536804 131.481232,538.752136 131.719025,538.977173 
	C131.816681,539.000183 132.017166,538.991699 131.945908,539.368164 
	C131.729752,540.494690 131.584854,541.244751 131.178375,542.201843 
	C130.671249,544.267029 130.425690,546.125183 130.148285,548.369995 
	C129.040146,551.981567 127.963867,555.206604 126.887581,558.431641 
z"/>
<path fill="#10C6D2" opacity="1.000000" stroke="none" 
	d="
M131.054382,83.973740 
	C124.924698,86.997131 118.388527,88.020477 111.620316,88.007576 
	C97.814995,87.981255 84.007217,87.854652 70.205513,88.079544 
	C65.469421,88.156708 60.755127,89.534416 56.018383,89.619118 
	C52.283699,89.685883 48.529854,88.680946 44.394341,87.610977 
	C44.000610,81.934334 44.129623,76.794090 43.950348,71.664619 
	C43.814056,67.765106 43.285851,63.879295 42.932022,59.987389 
	C42.857189,55.962784 42.782360,51.938175 43.042618,47.220345 
	C43.585388,45.688404 43.793068,44.849697 44.077400,43.610931 
	C44.177288,41.023376 44.200531,38.835873 44.223770,36.648369 
	C44.223770,36.648369 44.090183,36.364407 44.556190,36.458111 
	C50.452000,41.466190 56.912415,42.553410 63.986595,42.058865 
	C70.065086,41.633930 76.209389,41.290051 82.267593,41.717697 
	C86.810120,42.038361 89.692482,41.659657 90.252083,36.311058 
	C90.378685,35.101067 92.766785,33.419743 94.234581,33.286674 
	C95.366371,33.184071 97.695961,35.112629 97.755226,36.230228 
	C98.068947,42.145824 101.972610,42.024952 106.191704,42.040379 
	C110.320282,42.055473 113.820023,41.884312 114.273491,36.352432 
	C114.373306,35.134747 117.060806,33.472740 118.699944,33.288265 
	C119.656006,33.180672 120.909195,35.586868 122.005363,36.881828 
	C123.456520,38.596165 124.642220,40.657646 126.396393,41.956020 
	C127.921051,43.084515 130.077454,43.359505 131.960632,44.479561 
	C131.974609,54.367390 132.067627,63.788429 131.947311,73.206741 
	C131.901428,76.798950 131.366470,80.384926 131.054382,83.973740 
z"/>
<path fill="#FBC532" opacity="1.000000" stroke="none" 
	d="
M42.977333,329.005219 
	C42.682163,309.328064 59.381760,290.601471 80.211700,287.251343 
	C101.088356,283.893707 121.850555,296.016388 129.055435,315.895142 
	C130.096176,318.766602 130.569107,321.843872 131.176971,325.704468 
	C131.002884,333.035828 130.956619,339.488586 130.704163,345.628082 
	C130.140747,343.119263 129.783554,340.923767 129.180222,337.215393 
	C127.242020,339.969299 126.109680,341.578186 124.663170,343.633453 
	C120.123062,341.276794 115.905983,342.071228 111.962646,345.990906 
	C111.211578,346.737488 107.794769,345.925812 106.517822,344.800537 
	C103.219353,341.893799 100.464149,341.783234 97.509544,344.982635 
	C95.043831,347.652649 92.647285,347.335205 90.284615,344.800598 
	C87.466614,341.777588 84.592079,341.725677 81.751778,344.766998 
	C79.408669,347.275970 77.002098,347.716431 74.530533,345.012939 
	C71.334702,341.517212 68.461288,342.067871 65.153015,345.109955 
	C64.027924,346.144501 60.761063,346.757935 60.070168,346.035736 
	C56.544224,342.350006 52.842731,342.066010 48.347488,343.738495 
	C47.156303,344.181671 45.468632,343.290405 44.006302,342.548096 
	C43.661564,337.724609 43.319447,333.364899 42.977333,329.005219 
z"/>
<path fill="#F26423" opacity="1.000000" stroke="none" 
	d="
M223.603485,310.957397 
	C226.299759,315.361725 228.855774,316.116974 234.287308,314.068420 
	C239.679306,312.034760 246.508835,310.697083 252.084961,315.686798 
	C252.879532,316.397827 255.504456,316.559814 255.875244,316.016235 
	C259.532806,310.653839 264.977539,311.996246 269.968414,312.076843 
	C280.404633,312.245422 290.834686,312.791077 301.270905,312.966125 
	C310.735504,313.124878 320.204956,313.018372 329.672150,312.984222 
	C332.758301,312.973114 335.843903,312.821625 339.029175,313.067993 
	C328.989410,325.240906 318.850281,337.080231 308.196045,348.756042 
	C304.028137,346.100281 300.887360,345.985840 297.823700,349.842102 
	C295.299896,353.018890 292.519440,352.528564 290.214600,349.042664 
	C287.402069,344.788849 284.631958,344.835968 281.718536,349.187134 
	C279.225616,352.910278 276.719849,352.806000 274.142365,348.871735 
	C271.540710,344.900543 268.460876,344.910950 265.845825,348.899811 
	C263.272797,352.824554 260.769592,352.910614 258.267059,349.160370 
	C255.360779,344.805084 252.617218,344.776093 249.774109,349.070618 
	C247.364685,352.710052 244.779938,352.838867 242.416183,349.437317 
	C239.074814,344.628998 237.123062,344.691528 233.444427,349.670929 
	C231.542358,352.245575 228.567429,353.292236 226.764877,350.642212 
	C223.140015,345.313080 219.833069,346.817719 215.466827,349.445435 
	C209.017303,353.326874 206.109283,352.510925 200.108231,347.633362 
	C198.491806,346.319519 195.731384,346.413177 193.496094,345.860718 
	C203.432495,334.280090 213.368912,322.699493 223.603485,310.957397 
z"/>
<path fill="#06D0BA" opacity="1.000000" stroke="none" 
	d="
M44.017754,141.012222 
	C52.975605,141.314270 61.932255,141.697617 70.892616,141.830673 
	C72.234970,141.850601 73.546585,140.375656 74.958008,140.164581 
	C76.958260,139.865448 79.309334,139.470337 81.034996,140.216263 
	C87.206306,142.883865 93.130974,143.020004 99.182030,140.019806 
	C100.304001,139.463516 102.066345,138.870789 102.945198,139.357178 
	C111.909279,144.318268 121.583565,141.051178 131.324631,142.010696 
	C131.832779,147.715408 131.886505,153.414322 131.674683,159.938538 
	C131.273392,168.501694 131.137619,176.239563 130.656708,184.058487 
	C126.938423,187.751389 122.642136,188.988083 117.860809,188.987701 
	C112.263283,188.987244 106.665749,188.997025 101.068222,188.997818 
	C88.419052,188.999619 75.767929,189.122330 63.121899,188.923080 
	C59.346695,188.863602 55.529823,188.141357 51.833015,187.286224 
	C47.614342,186.310379 45.667648,187.375778 45.020306,191.647385 
	C44.799927,193.101593 44.469429,194.539093 44.189243,195.984238 
	C43.786308,194.239349 43.383373,192.494446 43.248562,190.015625 
	C43.325306,183.183395 43.133923,177.085129 42.942535,170.986847 
	C42.866886,168.618408 42.791237,166.249954 43.074760,163.114990 
	C43.628536,155.236374 43.823143,148.124298 44.017754,141.012222 
z"/>
<path fill="#0B80C5" opacity="1.000000" stroke="none" 
	d="
M429.599670,409.562561 
	C429.154755,409.933960 428.821228,409.964691 428.094971,409.656525 
	C423.236847,408.545197 418.783417,407.200073 414.303925,407.106720 
	C400.362366,406.816193 386.362549,407.715942 372.478302,406.777710 
	C360.988251,406.001221 349.601776,404.568176 338.078186,405.989075 
	C334.538391,406.425537 330.949219,406.461517 327.619720,406.666290 
	C327.041962,409.845398 326.575775,412.410553 326.109619,414.975708 
	C324.263428,402.267181 327.681702,391.003784 335.602356,381.056152 
	C338.284210,377.688019 341.258270,374.552490 344.374084,371.155273 
	C349.066620,371.332825 353.483093,371.941956 357.901184,371.954102 
	C388.554810,372.038574 419.209290,372.084290 449.862030,371.899078 
	C454.039612,371.873840 458.209045,370.496185 462.699768,369.876526 
	C453.151367,381.535522 443.280060,393.058136 433.425995,404.595459 
	C432.142120,406.098694 430.947205,407.677917 429.599670,409.562561 
z"/>
<path fill="#F68220" opacity="1.000000" stroke="none" 
	d="
M288.877136,235.732285 
	C295.373505,228.088791 301.861359,220.438049 308.370941,212.805801 
	C310.619293,210.169693 312.921631,207.579590 315.700012,205.118347 
	C318.338043,207.605087 320.386627,207.516479 322.523438,205.189362 
	C325.182526,202.293472 327.250793,202.256531 329.448639,206.061539 
	C330.312866,207.557755 332.932404,208.749298 334.805756,208.828949 
	C342.378143,209.150848 349.973724,209.110580 357.555939,208.960037 
	C363.513733,208.841721 369.461609,208.180481 375.418884,208.089706 
	C384.997681,207.943726 394.581787,208.160217 404.161072,208.031418 
	C407.536469,207.986038 410.904266,207.376556 414.556030,206.995361 
	C414.896576,208.656723 415.444153,211.328049 415.991699,213.999390 
	C415.277710,223.117035 411.034515,230.617203 405.247864,237.404007 
	C403.426819,239.539810 401.570831,241.645844 399.102631,243.770447 
	C394.708344,243.588242 390.933472,243.504059 387.178925,243.182251 
	C384.028870,242.912247 380.913422,242.186829 377.762451,241.995132 
	C375.078247,241.831848 372.060974,241.432510 369.744263,242.426743 
	C367.026764,243.592972 365.175995,243.620483 362.381836,242.536621 
	C359.784821,241.529236 356.167145,241.535645 353.578674,242.560379 
	C350.764801,243.674362 348.924408,243.462692 346.216461,242.418976 
	C343.733826,241.462128 340.227509,241.357697 337.843933,242.405563 
	C334.887115,243.705460 332.793335,243.984024 330.079559,242.181000 
	C327.302032,240.335602 324.345215,240.518005 321.991058,243.192871 
	C319.320496,246.227264 316.796265,246.296188 314.057098,243.255188 
	C311.423065,240.330948 308.906647,240.753769 305.819153,243.106949 
	C304.011322,244.484818 301.192810,245.036560 298.816223,245.070648 
	C292.720184,245.158066 289.571045,241.637360 288.877136,235.732285 
z"/>
<path fill="#23B2D9" opacity="1.000000" stroke="none" 
	d="
M131.049683,84.390564 
	C131.366470,80.384926 131.901428,76.798950 131.947311,73.206741 
	C132.067627,63.788429 131.974609,54.367390 131.949829,44.082542 
	C129.724777,30.690231 124.418640,19.910887 113.787415,12.432462 
	C109.766899,9.604268 105.260086,7.467365 101.425827,5.008930 
	C105.237366,4.558781 108.598022,4.115055 111.958687,3.671327 
	C131.332443,3.576104 150.706207,3.480882 170.526642,3.872229 
	C170.982178,8.299915 170.998215,12.241032 170.998703,16.182150 
	C171.001282,37.294533 171.052170,58.407162 170.952896,79.519081 
	C170.934601,83.409164 170.978287,86.801651 175.709015,88.036057 
	C176.664719,88.285446 177.246231,89.968880 177.816513,91.147316 
	C177.428925,91.734047 177.225098,92.164627 177.021271,92.595207 
	C174.301193,92.662758 171.581131,92.730309 168.219788,92.383957 
	C165.846863,91.646454 164.117554,91.058037 162.383209,91.042862 
	C152.269485,90.954361 142.154587,91.000320 132.040085,91.000854 
	C131.708374,88.936363 131.376663,86.871880 131.049683,84.390564 
z"/>
<path fill="#F57A21" opacity="1.000000" stroke="none" 
	d="
M288.575623,235.892487 
	C289.571045,241.637360 292.720184,245.158066 298.816223,245.070648 
	C301.192810,245.036560 304.011322,244.484818 305.819153,243.106949 
	C308.906647,240.753769 311.423065,240.330948 314.057098,243.255188 
	C316.796265,246.296188 319.320496,246.227264 321.991058,243.192871 
	C324.345215,240.518005 327.302032,240.335602 330.079559,242.181000 
	C332.793335,243.984024 334.887115,243.705460 337.843933,242.405563 
	C340.227509,241.357697 343.733826,241.462128 346.216461,242.418976 
	C348.924408,243.462692 350.764801,243.674362 353.578674,242.560379 
	C356.167145,241.535645 359.784821,241.529236 362.381836,242.536621 
	C365.175995,243.620483 367.026764,243.592972 369.744263,242.426743 
	C372.060974,241.432510 375.078247,241.831848 377.762451,241.995132 
	C380.913422,242.186829 384.028870,242.912247 387.178925,243.182251 
	C390.933472,243.504059 394.708344,243.588242 398.808502,243.923889 
	C390.175812,254.527313 381.209076,264.982208 371.984741,275.645935 
	C368.875000,272.671265 365.591675,271.979401 361.971558,274.409393 
	C359.257294,276.231323 357.008942,275.650055 354.127350,274.363281 
	C351.853485,273.347900 348.428406,273.196747 346.178284,274.180176 
	C340.610931,276.613495 335.542664,276.757751 329.976318,274.232239 
	C327.829803,273.258362 324.522186,273.065338 322.454468,274.033997 
	C316.564728,276.793182 311.193512,276.791168 305.349213,273.932556 
	C303.431030,272.994293 300.296509,273.185547 298.266418,274.090332 
	C292.403564,276.703400 287.313843,276.603363 281.324188,273.654755 
	C277.787415,271.913635 272.180359,271.953217 268.510773,273.531708 
	C264.107239,275.425903 261.327301,275.088043 257.912201,271.941040 
	C257.649445,271.680817 257.751495,271.497406 258.237122,271.016296 
	C258.789825,270.560516 258.926270,270.377991 259.030029,270.171021 
	C268.778046,258.798248 278.526093,247.425461 288.575623,235.892487 
z"/>
<path fill="#20B6D6" opacity="1.000000" stroke="none" 
	d="
M237.998566,5.006115 
	C238.710373,6.035332 239.422195,7.064550 240.407318,8.488945 
	C238.880920,8.702108 237.648880,8.920076 236.407318,9.039044 
	C232.498138,9.413636 231.022720,11.731068 231.040924,15.443398 
	C231.075592,22.515259 230.885117,29.590490 231.037964,36.658920 
	C231.223892,45.257797 231.841873,53.849289 231.931427,62.447529 
	C231.981171,67.223877 230.693771,72.073456 231.176834,76.769920 
	C231.698746,81.844398 233.582077,86.778847 234.836533,92.195786 
	C232.119736,92.675117 229.437988,92.733055 226.160767,92.377716 
	C223.831543,91.644234 222.100266,91.063606 220.363586,91.046959 
	C210.576843,90.953186 200.788818,90.994965 190.890472,90.646057 
	C186.922806,85.474159 187.159683,77.341911 190.312744,71.908821 
	C192.134140,68.770348 192.828522,64.820206 193.285629,61.142834 
	C193.424286,60.027386 191.048553,58.626717 189.871155,57.314812 
	C187.195236,54.333260 187.270538,51.360958 190.061096,48.510075 
	C191.255737,47.289631 192.567215,46.183540 194.106659,44.766838 
	C190.539276,41.911514 187.492126,39.472569 184.262024,36.887192 
	C187.656998,34.251972 190.805054,31.808407 194.434479,28.991192 
	C190.549606,25.971481 187.398285,23.521961 185.126450,21.756054 
	C187.776520,17.934561 190.759460,14.849858 192.252136,11.161977 
	C193.983063,6.885461 192.325378,5.366420 187.533081,4.949778 
	C186.004288,4.816864 184.527802,4.082434 183.027374,3.623236 
	C188.067413,3.548036 193.107437,3.472836 198.825928,3.817300 
	C201.260971,4.491907 203.016281,4.956658 204.774414,4.967602 
	C215.848770,5.036541 226.923782,5.004674 237.998566,5.006115 
z"/>
<path fill="#0D5FB0" opacity="1.000000" stroke="none" 
	d="
M448.475708,567.518677 
	C453.341309,564.937988 455.948273,558.529297 454.363281,553.665344 
	C453.167603,549.996033 452.398010,546.099060 452.091583,542.251465 
	C451.710297,537.463379 451.910461,532.619263 452.048157,527.804749 
	C452.098816,526.034729 452.238312,524.004944 453.116943,522.571594 
	C455.483368,518.711365 453.631897,515.255615 453.362396,511.402283 
	C452.495239,499.002594 452.740021,486.455139 453.650421,474.044983 
	C453.913849,470.453705 455.271393,467.292786 453.272400,463.742218 
	C450.563446,458.930664 451.655121,443.196259 454.993042,439.977570 
	C463.936188,449.631470 472.495026,459.410675 480.888550,469.764343 
	C478.139435,474.239502 478.150818,477.617950 482.221252,480.708221 
	C485.986694,483.567017 485.898743,486.030609 481.912994,488.977081 
	C479.110535,491.048828 478.726471,493.085815 480.066254,496.255035 
	C481.183838,498.898712 481.374634,501.931091 482.004028,504.785095 
	C482.766113,508.240845 483.670502,511.670380 484.279877,515.152100 
	C484.515198,516.496765 484.188171,517.964966 483.983765,519.357300 
	C482.890900,526.800964 481.481049,534.212158 480.763489,541.690430 
	C480.453735,544.918518 481.441284,548.299683 482.027008,551.577759 
	C482.735016,555.540405 483.850281,559.440918 484.358673,563.423340 
	C484.557892,564.983887 483.871918,566.842407 483.099518,568.307007 
	C480.869751,572.534668 478.390900,576.630981 476.009827,580.778870 
	C465.211548,580.008179 456.136078,575.596985 448.475708,567.518677 
z"/>
<path fill="#0577C0" opacity="1.000000" stroke="none" 
	d="
M326.057617,415.376160 
	C326.575775,412.410553 327.041962,409.845398 327.619720,406.666290 
	C330.949219,406.461517 334.538391,406.425537 338.078186,405.989075 
	C349.601776,404.568176 360.988251,406.001221 372.478302,406.777710 
	C386.362549,407.715942 400.362366,406.816193 414.303925,407.106720 
	C418.783417,407.200073 423.236847,408.545197 427.843750,409.673187 
	C425.068451,413.800354 422.151581,417.571930 418.805450,421.830322 
	C414.327820,426.944366 410.693939,432.038757 406.131317,436.086212 
	C399.733093,441.762115 392.643921,446.659149 385.638245,451.905731 
	C385.426147,451.922119 385.004211,451.976471 384.671204,451.980682 
	C383.540070,452.310364 382.741943,452.635834 381.543732,452.963776 
	C380.079346,453.036926 379.015076,453.107605 377.543274,453.163086 
	C373.426605,453.417328 369.717438,453.686737 365.679871,453.755249 
	C357.815552,450.759674 350.279663,447.965027 342.743744,445.170349 
	C342.743744,445.170349 342.838287,445.126465 342.713470,444.914124 
	C342.255554,444.497131 341.922455,444.292480 341.589355,444.087799 
	C333.341003,436.331696 327.518311,427.240387 326.057617,415.376160 
z"/>
<path fill="#22A1DB" opacity="1.000000" stroke="none" 
	d="
M440.493500,259.806458 
	C447.800690,249.214691 453.776855,237.978058 457.790894,225.193787 
	C463.561279,224.611862 468.668610,224.065613 473.778320,224.042404 
	C495.494659,223.943817 517.212341,224.081955 538.927612,223.905609 
	C541.932617,223.881210 544.927185,222.581894 547.926575,221.872803 
	C547.926575,221.872803 548.168762,222.278030 547.901245,222.758850 
	C547.749146,223.825378 547.864502,224.411087 547.979858,224.996796 
	C545.207397,236.846069 542.434875,248.695343 539.067627,260.665039 
	C527.951660,260.946167 517.430786,261.164062 506.908813,261.249817 
	C498.212494,261.320709 489.514923,261.228149 480.817902,261.221649 
	C473.574066,261.216217 466.324158,261.416504 459.088257,261.179565 
	C452.881653,260.976349 446.691132,260.283020 440.493500,259.806458 
z"/>
<path fill="#1D99D6" opacity="1.000000" stroke="none" 
	d="
M440.238037,259.998169 
	C446.691132,260.283020 452.881653,260.976349 459.088257,261.179565 
	C466.324158,261.416504 473.574066,261.216217 480.817902,261.221649 
	C489.514923,261.228149 498.212494,261.320709 506.908813,261.249817 
	C517.430786,261.164062 527.951660,260.946167 538.832764,260.939209 
	C534.686218,271.347839 530.179871,281.602692 525.406799,292.086060 
	C523.929443,291.928467 522.710876,291.187469 521.509521,291.214233 
	C514.050293,291.380341 506.596497,291.777069 499.137634,291.976349 
	C495.171173,292.082336 491.210083,291.541473 488.027893,295.022949 
	C487.150574,295.982758 484.925812,295.928894 483.312317,295.958466 
	C477.658447,296.062286 471.979858,296.293396 466.354614,295.879364 
	C463.421844,295.663513 460.359558,294.609833 457.751099,293.201996 
	C453.958771,291.155182 428.835541,291.650177 425.216034,294.214081 
	C424.170807,294.954498 422.948425,295.573639 421.715179,295.896301 
	C417.628021,296.965668 416.189240,294.067352 414.552673,290.803986 
	C422.819397,280.410095 431.401001,270.299988 440.238037,259.998169 
z"/>
<path fill="#F68C1F" opacity="1.000000" stroke="none" 
	d="
M416.131958,213.550140 
	C415.444153,211.328049 414.896576,208.656723 414.556030,206.995361 
	C410.904266,207.376556 407.536469,207.986038 404.161072,208.031418 
	C394.581787,208.160217 384.997681,207.943726 375.418884,208.089706 
	C369.461609,208.180481 363.513733,208.841721 357.555939,208.960037 
	C349.973724,209.110580 342.378143,209.150848 334.805756,208.828949 
	C332.932404,208.749298 330.312866,207.557755 329.448639,206.061539 
	C327.250793,202.256531 325.182526,202.293472 322.523438,205.189362 
	C320.386627,207.516479 318.338043,207.605087 315.994507,204.945618 
	C324.140045,194.932571 331.984314,184.741898 340.944641,175.651230 
	C362.511719,153.770462 399.875458,160.727203 412.619110,188.619568 
	C416.178253,196.409500 416.157623,204.775208 416.131958,213.550140 
z"/>
<path fill="#28AAE1" opacity="1.000000" stroke="none" 
	d="
M547.963501,221.583466 
	C544.927185,222.581894 541.932617,223.881210 538.927612,223.905609 
	C517.212341,224.081955 495.494659,223.943817 473.778320,224.042404 
	C468.668610,224.065613 463.561279,224.611862 457.970581,224.888000 
	C458.592834,212.882278 459.697296,200.906021 461.223694,188.533920 
	C462.362823,188.542084 463.148285,188.859650 463.786377,189.363785 
	C468.845673,193.360886 470.799957,193.100830 474.352478,187.893127 
	C476.403595,184.886353 479.746521,185.549362 482.147644,189.038696 
	C483.031128,190.322556 484.877838,191.574463 486.334564,191.634109 
	C487.508484,191.682175 488.795593,189.959030 489.961975,188.940933 
	C491.349976,187.729462 492.665375,185.444839 494.007233,185.448532 
	C495.352173,185.452255 496.655273,187.743118 498.043304,188.955307 
	C499.209106,189.973358 500.506561,191.686676 501.680634,191.634232 
	C503.136749,191.569199 504.999237,190.316055 505.856445,189.025131 
	C508.611053,184.876862 511.439087,184.866806 514.136047,189.324829 
	C516.234863,192.794083 519.810303,192.737305 521.908447,189.201401 
	C524.569763,184.716431 527.426880,184.719101 530.093872,189.209000 
	C532.058411,192.516266 535.508667,192.676559 537.729919,189.823914 
	C538.881470,188.345078 540.999512,186.082932 542.036316,186.385269 
	C543.924805,186.935959 545.948914,188.849838 546.804993,190.707230 
	C548.289368,193.927765 548.926880,197.538681 549.919556,200.985870 
	C549.279785,207.755280 548.640076,214.524704 547.963501,221.583466 
z"/>
<path fill="#F15B25" opacity="1.000000" stroke="none" 
	d="
M193.324036,345.924896 
	C195.731384,346.413177 198.491806,346.319519 200.108231,347.633362 
	C206.109283,352.510925 209.017303,353.326874 215.466827,349.445435 
	C219.833069,346.817719 223.140015,345.313080 226.764877,350.642212 
	C228.567429,353.292236 231.542358,352.245575 233.444427,349.670929 
	C237.123062,344.691528 239.074814,344.628998 242.416183,349.437317 
	C244.779938,352.838867 247.364685,352.710052 249.774109,349.070618 
	C252.617218,344.776093 255.360779,344.805084 258.267059,349.160370 
	C260.769592,352.910614 263.272797,352.824554 265.845825,348.899811 
	C268.460876,344.910950 271.540710,344.900543 274.142365,348.871735 
	C276.719849,352.806000 279.225616,352.910278 281.718536,349.187134 
	C284.631958,344.835968 287.402069,344.788849 290.214600,349.042664 
	C292.519440,352.528564 295.299896,353.018890 297.823700,349.842102 
	C300.887360,345.985840 304.028137,346.100281 307.898621,348.921997 
	C300.603241,358.051117 293.090210,366.850830 285.085632,375.526947 
	C283.723816,375.029022 282.854095,374.331329 281.983246,374.329956 
	C272.417114,374.315002 262.850342,374.499023 253.284592,374.454041 
	C232.132584,374.354645 210.981186,374.133545 189.829193,374.031342 
	C187.864258,374.021820 185.903595,374.630280 183.929352,374.736725 
	C179.440201,374.978790 174.873749,375.300293 171.909470,370.810577 
	C177.413651,364.336304 182.917831,357.862000 189.074463,351.171509 
	C190.776169,349.517242 191.825424,348.079224 192.874664,346.641205 
	C192.847519,346.372986 192.939957,346.155609 193.324036,345.924896 
z"/>
<path fill="#26B2E5" opacity="1.000000" stroke="none" 
	d="
M437.136047,130.309784 
	C439.683014,130.932480 442.337952,131.839279 444.959137,132.835052 
	C459.882843,138.504456 473.969604,136.705338 487.794373,128.412140 
	C490.109955,128.976578 491.934082,129.417633 493.777252,129.521942 
	C495.573914,129.623642 497.391968,129.274765 499.197296,129.307480 
	C508.164368,129.469955 517.133911,129.923615 526.094971,129.784012 
	C529.792358,129.726410 533.470642,128.440674 537.157593,127.713516 
	C540.393188,138.874451 543.628784,150.035385 546.385498,161.596680 
	C520.256897,161.998093 494.607056,161.987366 468.957336,162.023361 
	C466.977509,162.026138 464.804596,161.923630 463.086853,162.689575 
	C461.948944,163.197006 460.499237,165.577759 460.853912,166.412552 
	C462.347992,169.929077 461.135681,172.502182 458.950043,175.021194 
	C454.763763,158.731094 448.085999,143.660278 437.136047,130.309784 
z"/>
<path fill="#03D4B0" opacity="1.000000" stroke="none" 
	d="
M44.195202,196.353165 
	C44.469429,194.539093 44.799927,193.101593 45.020306,191.647385 
	C45.667648,187.375778 47.614342,186.310379 51.833015,187.286224 
	C55.529823,188.141357 59.346695,188.863602 63.121899,188.923080 
	C75.767929,189.122330 88.419052,188.999619 101.068222,188.997818 
	C106.665749,188.997025 112.263283,188.987244 117.860809,188.987701 
	C122.642136,188.988083 126.938423,187.751389 130.663681,184.528763 
	C131.055237,186.485413 131.094696,188.052872 131.134171,189.620316 
	C131.134171,189.620316 131.361465,189.589279 131.104553,189.951874 
	C130.616928,192.235519 130.386230,194.156540 130.155518,196.077576 
	C125.648933,213.581345 111.817711,226.302567 93.279060,228.827942 
	C74.140862,231.434982 55.526165,221.518509 47.801105,205.164566 
	C46.495384,202.400360 45.395916,199.538712 44.195202,196.353165 
z"/>
<path fill="#1C4BA2" opacity="1.000000" stroke="none" 
	d="
M385.850311,451.889343 
	C392.643921,446.659149 399.733093,441.762115 406.131317,436.086212 
	C410.693939,432.038757 414.327820,426.944366 418.651733,422.131653 
	C419.533051,422.961212 420.684937,423.987488 420.664429,424.989777 
	C420.186432,448.358643 419.423340,471.722473 419.072083,495.092682 
	C418.915283,505.524231 419.622406,515.966736 419.724945,526.406311 
	C419.741547,528.098145 418.647858,529.800842 417.975708,531.878662 
	C406.351624,519.032532 394.819153,505.806122 383.437408,492.057007 
	C384.674347,490.167114 386.240601,488.952911 386.736328,487.397552 
	C387.514709,484.955536 387.731720,482.293640 387.896454,479.706390 
	C388.156067,475.629333 388.248688,471.537415 388.274170,467.450928 
	C388.297394,463.728333 387.775635,459.964050 388.186768,456.295776 
	C388.454529,453.906799 388.502869,452.389954 385.850311,451.889343 
z"/>
<path fill="#13C2DA" opacity="1.000000" stroke="none" 
	d="
M100.974945,5.015350 
	C105.260086,7.467365 109.766899,9.604268 113.787415,12.432462 
	C124.418640,19.910887 129.724777,30.690231 131.943863,43.614662 
	C130.077454,43.359505 127.921051,43.084515 126.396393,41.956020 
	C124.642220,40.657646 123.456520,38.596165 122.005363,36.881828 
	C120.909195,35.586868 119.656006,33.180672 118.699944,33.288265 
	C117.060806,33.472740 114.373306,35.134747 114.273491,36.352432 
	C113.820023,41.884312 110.320282,42.055473 106.191704,42.040379 
	C101.972610,42.024952 98.068947,42.145824 97.755226,36.230228 
	C97.695961,35.112629 95.366371,33.184071 94.234581,33.286674 
	C92.766785,33.419743 90.378685,35.101067 90.252083,36.311058 
	C89.692482,41.659657 86.810120,42.038361 82.267593,41.717697 
	C76.209389,41.290051 70.065086,41.633930 63.986595,42.058865 
	C56.912415,42.553410 50.452000,41.466190 44.655449,36.336590 
	C48.176640,19.692940 62.646461,6.727834 80.946579,4.214086 
	C88.119980,4.661310 94.547462,4.838329 100.974945,5.015350 
z"/>
<path fill="#CE353C" opacity="1.000000" stroke="none" 
	d="
M228.775177,440.926788 
	C222.016983,448.821930 215.258774,456.717072 207.854401,464.635376 
	C202.453506,464.105835 197.702682,463.119110 192.943344,463.076019 
	C173.089081,462.896332 153.232224,463.000366 133.004852,463.000366 
	C133.004852,468.101379 133.004852,473.554535 133.003357,479.339355 
	C132.999756,480.113312 132.997650,480.555573 132.759003,480.999634 
	C132.522461,481.001434 132.049347,481.006134 131.990112,480.544556 
	C131.815048,476.046143 131.699203,472.009277 131.661438,467.512726 
	C131.837723,462.036987 131.935944,457.020935 132.258759,451.660645 
	C132.760376,447.052704 133.037384,442.789001 133.325912,438.347931 
	C141.994339,438.868439 150.519516,439.738281 159.050751,439.802216 
	C169.760391,439.882477 180.473892,439.242249 191.188187,439.050293 
	C193.808670,439.003296 196.442093,439.726624 199.063782,439.689301 
	C207.682678,439.566711 216.298294,439.174744 224.916870,439.109589 
	C226.198318,439.099884 227.488846,440.291138 228.775177,440.926788 
z"/>
<path fill="#D83F36" opacity="1.000000" stroke="none" 
	d="
M229.055115,440.720978 
	C227.488846,440.291138 226.198318,439.099884 224.916870,439.109589 
	C216.298294,439.174744 207.682678,439.566711 199.063782,439.689301 
	C196.442093,439.726624 193.808670,439.003296 191.188187,439.050293 
	C180.473892,439.242249 169.760391,439.882477 159.050751,439.802216 
	C150.519516,439.738281 141.994339,438.868439 133.325912,438.347931 
	C133.037384,442.789001 132.760376,447.052704 132.199234,451.194550 
	C131.785614,439.427429 131.656128,427.782135 131.681320,416.102264 
	C131.835983,416.067688 132.144470,415.994934 132.144470,415.994934 
	C132.144470,415.994934 132.536011,415.936584 132.890228,416.221710 
	C134.870026,417.697418 136.418442,419.774536 138.134659,419.923920 
	C145.251724,420.543427 152.418839,420.604034 159.569519,420.798523 
	C160.364120,420.820099 161.169571,420.200623 161.972610,420.193909 
	C167.365021,420.148987 172.758362,420.164459 178.150909,420.214020 
	C180.433670,420.234985 182.720688,420.535278 184.996368,420.451874 
	C194.919952,420.088165 204.888794,418.880920 214.741028,419.521271 
	C219.694138,419.843201 224.266693,420.685333 229.306213,419.350586 
	C236.560318,417.429260 241.183334,419.344635 243.533234,423.888031 
	C238.800507,429.430420 234.067795,434.972778 229.055115,440.720978 
z"/>
<path fill="#E54D2E" opacity="1.000000" stroke="none" 
	d="
M270.419586,392.837616 
	C267.540070,396.251923 264.660583,399.666260 261.265839,403.015167 
	C254.464584,403.633057 248.182190,404.865326 241.891937,404.906799 
	C210.893906,405.111176 179.893768,405.015289 148.894485,404.963287 
	C146.951080,404.960052 145.008560,404.428894 143.065628,404.143311 
	C148.154007,398.150635 153.242401,392.157990 158.829803,386.310913 
	C161.604050,387.297882 163.834381,388.313751 166.171356,388.915314 
	C167.577087,389.277130 169.148956,388.999115 170.646164,388.999176 
	C200.591156,389.000488 230.536240,388.964569 260.481018,389.046844 
	C264.153900,389.056946 268.337189,388.371582 270.419586,392.837616 
z"/>
<path fill="#12C2C2" opacity="1.000000" stroke="none" 
	d="
M422.369080,68.862930 
	C419.167145,67.556389 417.578918,68.213501 416.847595,71.668213 
	C416.553528,73.057289 414.823029,74.142281 413.746307,75.365677 
	C413.166138,73.954460 412.092621,72.547127 412.081512,71.131424 
	C411.959015,55.562500 412.021057,39.992229 411.977600,24.422476 
	C411.971649,22.284542 412.004272,20.049892 411.424683,18.030621 
	C410.277344,14.033415 411.952148,12.930261 415.804779,13.079454 
	C417.172760,13.169212 418.286896,13.459173 419.804474,14.228968 
	C421.808258,15.130971 423.408630,15.553140 425.008972,15.975309 
	C437.207001,22.023855 449.698761,27.558567 461.498474,34.303894 
	C469.200470,38.706776 475.897858,44.867008 483.203522,50.550072 
	C480.979156,50.254704 478.554138,49.780170 476.220703,49.023205 
	C457.598907,42.982235 434.311554,49.005543 422.369080,68.862930 
M427.999634,42.333344 
	C427.879181,39.726166 427.758728,37.118988 427.638275,34.511810 
	C427.021179,34.539520 426.404114,34.567230 425.787048,34.594940 
	C425.787048,38.865181 425.787048,43.135422 425.787048,47.405663 
	C426.276367,47.455940 426.765686,47.506218 427.255005,47.556499 
	C427.502716,46.110783 427.750458,44.665066 427.999634,42.333344 
z"/>
<path fill="#0867B5" opacity="1.000000" stroke="none" 
	d="
M476.460571,580.881165 
	C478.390900,576.630981 480.869751,572.534668 483.099518,568.307007 
	C483.871918,566.842407 484.557892,564.983887 484.358673,563.423340 
	C483.850281,559.440918 482.735016,555.540405 482.027008,551.577759 
	C481.441284,548.299683 480.453735,544.918518 480.763489,541.690430 
	C481.481049,534.212158 482.890900,526.800964 483.983765,519.357300 
	C484.188171,517.964966 484.515198,516.496765 484.279877,515.152100 
	C483.670502,511.670380 482.766113,508.240845 482.004028,504.785095 
	C481.374634,501.931091 481.183838,498.898712 480.066254,496.255035 
	C478.726471,493.085815 479.110535,491.048828 481.912994,488.977081 
	C485.898743,486.030609 485.986694,483.567017 482.221252,480.708221 
	C478.150818,477.617950 478.139435,474.239502 481.016846,470.080597 
	C487.936157,477.399750 494.561859,484.977112 501.195862,493.325989 
	C498.853363,503.919464 499.156036,513.842224 499.940216,523.805786 
	C500.106323,525.916870 499.540894,528.075623 499.463531,530.217834 
	C499.314392,534.345581 499.238373,538.476746 499.196716,542.607239 
	C499.153778,546.864380 499.271851,551.124451 499.167450,555.379517 
	C499.031036,560.935669 497.593597,566.797302 503.016876,570.130371 
	C501.916229,572.480103 501.014740,574.404663 500.113251,576.329224 
	C492.890839,580.430969 485.066315,581.531189 476.460571,580.881165 
z"/>
<path fill="#EB5329" opacity="1.000000" stroke="none" 
	d="
M270.702820,392.635864 
	C268.337189,388.371582 264.153900,389.056946 260.481018,389.046844 
	C230.536240,388.964569 200.591156,389.000488 170.646164,388.999176 
	C169.148956,388.999115 167.577087,389.277130 166.171356,388.915314 
	C163.834381,388.313751 161.604050,387.297882 159.121735,386.139648 
	C163.051514,380.933258 167.188324,376.043762 171.617310,370.982422 
	C174.873749,375.300293 179.440201,374.978790 183.929352,374.736725 
	C185.903595,374.630280 187.864258,374.021820 189.829193,374.031342 
	C210.981186,374.133545 232.132584,374.354645 253.284592,374.454041 
	C262.850342,374.499023 272.417114,374.315002 281.983246,374.329956 
	C282.854095,374.331329 283.723816,375.029022 284.795044,375.689514 
	C280.326050,381.461792 275.656036,386.947968 270.702820,392.635864 
z"/>
<path fill="#DE4631" opacity="1.000000" stroke="none" 
	d="
M142.785187,404.315308 
	C145.008560,404.428894 146.951080,404.960052 148.894485,404.963287 
	C179.893768,405.015289 210.893906,405.111176 241.891937,404.906799 
	C248.182190,404.865326 254.464584,403.633057 260.973389,403.197693 
	C255.491959,410.125549 249.787750,416.805481 243.808395,423.686707 
	C241.183334,419.344635 236.560318,417.429260 229.306213,419.350586 
	C224.266693,420.685333 219.694138,419.843201 214.741028,419.521271 
	C204.888794,418.880920 194.919952,420.088165 184.996368,420.451874 
	C182.720688,420.535278 180.433670,420.234985 178.150909,420.214020 
	C172.758362,420.164459 167.365021,420.148987 161.972610,420.193909 
	C161.169571,420.200623 160.364120,420.820099 159.569519,420.798523 
	C152.418839,420.604034 145.251724,420.543427 138.134659,419.923920 
	C136.418442,419.774536 134.870026,417.697418 133.082428,416.174438 
	C136.115204,412.057129 139.309967,408.272186 142.785187,404.315308 
z"/>
<path fill="#22B5D8" opacity="1.000000" stroke="none" 
	d="
M182.578049,3.503128 
	C184.527802,4.082434 186.004288,4.816864 187.533081,4.949778 
	C192.325378,5.366420 193.983063,6.885461 192.252136,11.161977 
	C190.759460,14.849858 187.776520,17.934561 185.126450,21.756054 
	C187.398285,23.521961 190.549606,25.971481 194.434479,28.991192 
	C190.805054,31.808407 187.656998,34.251972 184.262024,36.887192 
	C187.492126,39.472569 190.539276,41.911514 194.106659,44.766838 
	C192.567215,46.183540 191.255737,47.289631 190.061096,48.510075 
	C187.270538,51.360958 187.195236,54.333260 189.871155,57.314812 
	C191.048553,58.626717 193.424286,60.027386 193.285629,61.142834 
	C192.828522,64.820206 192.134140,68.770348 190.312744,71.908821 
	C187.159683,77.341911 186.922806,85.474159 190.427155,90.649017 
	C186.049805,90.994690 182.025040,90.992928 178.000275,90.991165 
	C177.246231,89.968880 176.664719,88.285446 175.709015,88.036057 
	C170.978287,86.801651 170.934601,83.409164 170.952896,79.519081 
	C171.052170,58.407162 171.001282,37.294533 170.998703,16.182150 
	C170.998215,12.241032 170.982178,8.299915 170.979401,3.993665 
	C174.699890,3.546694 178.414307,3.464856 182.578049,3.503128 
z"/>
<path fill="#C42944" opacity="1.000000" stroke="none" 
	d="
M132.049347,481.006134 
	C132.049347,481.006134 132.522461,481.001434 132.947754,481.039734 
	C133.250320,480.387909 133.127594,479.697815 133.004852,479.007690 
	C133.004852,473.554535 133.004852,468.101379 133.004852,463.000366 
	C153.232224,463.000366 173.089081,462.896332 192.943344,463.076019 
	C197.702682,463.119110 202.453506,464.105835 207.573212,464.815826 
	C200.936462,473.149628 193.934723,481.326141 186.492462,489.276367 
	C184.173859,488.366730 182.303101,487.115509 180.416580,487.091309 
	C167.053055,486.919830 153.686295,486.999847 140.320572,486.999695 
	C138.060089,486.999664 135.799622,486.999664 133.021942,486.999664 
	C133.021942,488.779877 133.021942,490.406952 133.018158,492.449860 
	C133.004913,494.256134 132.995453,495.646576 132.755920,497.027710 
	C132.525864,497.018402 132.065109,497.012238 131.992798,496.549255 
	C131.963425,491.059540 132.006378,486.032837 132.049347,481.006134 
z"/>
<path fill="#046CB8" opacity="1.000000" stroke="none" 
	d="
M500.458801,576.238892 
	C501.014740,574.404663 501.916229,572.480103 503.016876,570.130371 
	C497.593597,566.797302 499.031036,560.935669 499.167450,555.379517 
	C499.271851,551.124451 499.153778,546.864380 499.196716,542.607239 
	C499.238373,538.476746 499.314392,534.345581 499.463531,530.217834 
	C499.540894,528.075623 500.106323,525.916870 499.940216,523.805786 
	C499.156036,513.842224 498.853363,503.919464 501.307373,493.626404 
	C506.729218,499.303162 512.643250,505.037140 517.257385,511.674744 
	C532.491516,533.589355 524.671997,563.487793 500.458801,576.238892 
z"/>
<path fill="#22BAE7" opacity="1.000000" stroke="none" 
	d="
M537.134155,127.356842 
	C533.470642,128.440674 529.792358,129.726410 526.094971,129.784012 
	C517.133911,129.923615 508.164368,129.469955 499.197296,129.307480 
	C497.391968,129.274765 495.573914,129.623642 493.777252,129.521942 
	C491.934082,129.417633 490.109955,128.976578 488.138123,128.337219 
	C489.675934,126.157806 491.151062,124.073936 493.062592,122.530479 
	C506.743317,111.484047 509.619080,87.466682 502.525696,72.565872 
	C502.249084,71.984795 502.220001,71.285889 502.064148,70.254295 
	C506.285828,74.904755 511.118469,79.561333 514.619995,85.064819 
	C520.814331,94.800591 526.307251,104.992081 531.866272,115.117699 
	C533.942017,118.898682 535.381226,123.029076 537.134155,127.356842 
z"/>
<path fill="#28AFE3" opacity="1.000000" stroke="none" 
	d="
M458.912292,175.280396 
	C461.135681,172.502182 462.347992,169.929077 460.853912,166.412552 
	C460.499237,165.577759 461.948944,163.197006 463.086853,162.689575 
	C464.804596,161.923630 466.977509,162.026138 468.957336,162.023361 
	C494.607056,161.987366 520.256897,161.998093 546.363770,161.996521 
	C546.982544,162.713470 547.144165,163.430908 547.020020,164.796524 
	C547.407043,168.617859 548.079895,171.790985 548.752686,174.964127 
	C548.814880,175.132675 548.877014,175.301208 548.529907,175.709610 
	C547.117432,175.206848 545.533936,174.656708 545.212524,173.687851 
	C543.902893,169.740417 541.071838,168.847397 537.403015,168.981598 
	C534.574219,169.085068 531.732727,168.894882 528.908813,169.051285 
	C527.477539,169.130554 526.072754,169.687546 524.656006,170.028564 
	C524.713745,170.686905 524.771484,171.345261 524.829224,172.003601 
	C528.834717,172.003601 532.875061,171.692780 536.830872,172.136078 
	C538.778687,172.354340 540.570190,173.967606 542.432434,174.949600 
	C540.603760,175.965057 538.872620,177.509445 536.923035,177.868683 
	C534.183289,178.373505 531.281494,177.998962 528.448975,177.999130 
	C521.511780,177.999542 514.573242,178.081482 507.638062,177.963333 
	C504.328766,177.906967 501.029724,177.394394 497.718994,177.230057 
	C495.233704,177.106674 492.735687,177.265182 490.245941,177.199997 
	C484.323730,177.044968 478.351105,177.241226 472.499969,176.498688 
	C468.566711,175.999542 466.154236,176.881577 464.284119,180.299255 
	C463.319733,182.061707 461.756165,183.496292 460.463379,185.079041 
	C460.280701,183.945831 460.098053,182.812592 460.171997,181.082794 
	C459.984375,178.995605 459.540131,177.505005 459.095856,176.014404 
	C459.022064,175.856125 458.948273,175.697861 458.912292,175.280396 
M474.746155,169.000183 
	C472.720917,169.271225 470.695679,169.542267 468.670471,169.813309 
	C468.747040,170.337738 468.823578,170.862167 468.900146,171.386597 
	C474.985748,171.386597 481.071320,171.386597 487.156891,171.386597 
	C487.197449,170.722580 487.238007,170.058563 487.278534,169.394547 
	C483.407501,169.263031 479.536438,169.131516 474.746155,169.000183 
z"/>
<path fill="#28AFE3" opacity="1.000000" stroke="none" 
	d="
M460.415802,185.453720 
	C461.756165,183.496292 463.319733,182.061707 464.284119,180.299255 
	C466.154236,176.881577 468.566711,175.999542 472.499969,176.498688 
	C478.351105,177.241226 484.323730,177.044968 490.245941,177.199997 
	C492.735687,177.265182 495.233704,177.106674 497.718994,177.230057 
	C501.029724,177.394394 504.328766,177.906967 507.638062,177.963333 
	C514.573242,178.081482 521.511780,177.999542 528.448975,177.999130 
	C531.281494,177.998962 534.183289,178.373505 536.923035,177.868683 
	C538.872620,177.509445 540.603760,175.965057 542.432434,174.949600 
	C540.570190,173.967606 538.778687,172.354340 536.830872,172.136078 
	C532.875061,171.692780 528.834717,172.003601 524.829224,172.003601 
	C524.771484,171.345261 524.713745,170.686905 524.656006,170.028564 
	C526.072754,169.687546 527.477539,169.130554 528.908813,169.051285 
	C531.732727,168.894882 534.574219,169.085068 537.403015,168.981598 
	C541.071838,168.847397 543.902893,169.740417 545.212524,173.687851 
	C545.533936,174.656708 547.117432,175.206848 548.481445,175.974670 
	C548.988464,177.050034 549.134827,178.100220 548.975830,179.819687 
	C549.010315,182.325394 549.350220,184.161819 549.690125,185.998245 
	C549.764343,186.444168 549.838501,186.890106 549.663818,187.708923 
	C549.546692,188.386597 549.678345,188.691391 549.809998,188.996170 
	C549.904785,192.690781 549.999573,196.385406 550.006958,200.532944 
	C548.926880,197.538681 548.289368,193.927765 546.804993,190.707230 
	C545.948914,188.849838 543.924805,186.935959 542.036316,186.385269 
	C540.999512,186.082932 538.881470,188.345078 537.729919,189.823914 
	C535.508667,192.676559 532.058411,192.516266 530.093872,189.209000 
	C527.426880,184.719101 524.569763,184.716431 521.908447,189.201401 
	C519.810303,192.737305 516.234863,192.794083 514.136047,189.324829 
	C511.439087,184.866806 508.611053,184.876862 505.856445,189.025131 
	C504.999237,190.316055 503.136749,191.569199 501.680634,191.634232 
	C500.506561,191.686676 499.209106,189.973358 498.043304,188.955307 
	C496.655273,187.743118 495.352173,185.452255 494.007233,185.448532 
	C492.665375,185.444839 491.349976,187.729462 489.961975,188.940933 
	C488.795593,189.959030 487.508484,191.682175 486.334564,191.634109 
	C484.877838,191.574463 483.031128,190.322556 482.147644,189.038696 
	C479.746521,185.549362 476.403595,184.886353 474.352478,187.893127 
	C470.799957,193.100830 468.845673,193.360886 463.786377,189.363785 
	C463.148285,188.859650 462.362823,188.542084 461.294128,188.069977 
	C460.751190,187.277374 460.559723,186.552887 460.415802,185.453720 
M506.451263,180.000290 
	C504.957733,180.034042 503.312836,179.688522 502.012817,180.207230 
	C500.688019,180.735825 499.702423,182.114471 498.568329,183.120956 
	C499.735992,183.895111 500.978485,185.415421 502.057648,185.307190 
	C505.672546,184.944687 509.229126,184.000443 512.808044,183.278961 
	C512.822632,182.599701 512.837219,181.920441 512.851807,181.241180 
	C511.010529,180.827911 509.169312,180.414658 506.451263,180.000290 
z"/>
<path fill="#BB2049" opacity="1.000000" stroke="none" 
	d="
M133.021942,492.034027 
	C133.021942,490.406952 133.021942,488.779877 133.021942,486.999664 
	C135.799622,486.999664 138.060089,486.999664 140.320572,486.999695 
	C153.686295,486.999847 167.053055,486.919830 180.416580,487.091309 
	C182.303101,487.115509 184.173859,488.366730 186.201599,489.481689 
	C181.558990,495.536682 176.766663,501.160004 171.226654,506.934113 
	C159.909332,506.719940 149.341415,506.282349 138.769058,506.032623 
	C135.429047,505.953735 134.013306,504.623138 133.951508,501.260071 
	C133.894913,498.180084 133.351089,495.109009 133.021942,492.034027 
z"/>
<path fill="#23409B" opacity="1.000000" stroke="none" 
	d="
M385.638245,451.905731 
	C388.502869,452.389954 388.454529,453.906799 388.186768,456.295776 
	C387.775635,459.964050 388.297394,463.728333 388.274170,467.450928 
	C388.248688,471.537415 388.156067,475.629333 387.896454,479.706390 
	C387.731720,482.293640 387.514709,484.955536 386.736328,487.397552 
	C386.240601,488.952911 384.674347,490.167114 383.305634,491.749023 
	C369.658203,476.585999 356.293243,461.208252 342.835999,445.500427 
	C350.279663,447.965027 357.815552,450.759674 366.002075,453.994263 
	C370.418732,454.015533 374.184753,453.596893 377.950775,453.178253 
	C379.015076,453.107605 380.079346,453.036926 381.879730,452.965363 
	C383.411926,452.635132 384.208069,452.305786 385.004211,451.976440 
	C385.004211,451.976471 385.426147,451.922119 385.638245,451.905731 
z"/>
<path fill="#B5194E" opacity="1.000000" stroke="none" 
	d="
M133.018173,492.449860 
	C133.351089,495.109009 133.894913,498.180084 133.951508,501.260071 
	C134.013306,504.623138 135.429047,505.953735 138.769058,506.032623 
	C149.341415,506.282349 159.909332,506.719940 170.964722,507.117798 
	C167.277542,512.048218 163.104614,516.945740 158.252258,521.842529 
	C151.516434,521.781616 145.434937,521.365173 139.412689,521.789551 
	C135.572113,522.060242 133.842407,521.391907 133.925110,517.236206 
	C133.986069,514.173889 133.344681,511.097656 133.008392,507.566772 
	C132.995682,503.749603 132.990829,500.393311 132.985992,497.037018 
	C132.995453,495.646576 133.004913,494.256134 133.018173,492.449860 
z"/>
<path fill="#AC1153" opacity="1.000000" stroke="none" 
	d="
M133.016235,508.027618 
	C133.344681,511.097656 133.986069,514.173889 133.925110,517.236206 
	C133.842407,521.391907 135.572113,522.060242 139.412689,521.789551 
	C145.434937,521.365173 151.516434,521.781616 157.981888,522.024414 
	C148.093338,534.143494 137.795731,546.080200 127.192856,558.224243 
	C127.963867,555.206604 129.040146,551.981567 130.343506,548.095703 
	C130.860382,545.621582 131.150162,543.808228 131.439941,541.994873 
	C131.584854,541.244751 131.729752,540.494690 132.172363,539.023865 
	C132.652145,528.211304 132.834198,518.119446 133.016235,508.027618 
z"/>
<path fill="#28C2E8" opacity="1.000000" stroke="none" 
	d="
M238.467377,5.002668 
	C226.923782,5.004674 215.848770,5.036541 204.774414,4.967602 
	C203.016281,4.956658 201.260971,4.491907 199.275726,3.959743 
	C204.345535,3.586689 209.643921,3.410813 214.942398,3.408204 
	C245.967239,3.392930 276.992065,3.418174 308.847076,3.663138 
	C326.439270,4.003651 343.201294,4.110775 359.963318,4.217898 
	C359.963318,4.217898 359.978485,4.604712 359.979858,4.798156 
	C340.632263,4.993985 321.283356,4.996369 301.465393,5.004601 
	C280.309631,5.006707 259.622894,5.002964 238.467377,5.002668 
z"/>
<path fill="#27BBE4" opacity="1.000000" stroke="none" 
	d="
M177.816513,91.147316 
	C182.025040,90.992928 186.049805,90.994690 190.537903,90.993500 
	C200.788818,90.994965 210.576843,90.953186 220.363586,91.046959 
	C222.100266,91.063606 223.831543,91.644234 225.760620,92.278366 
	C209.950806,92.651222 193.945663,92.710136 177.480896,92.682129 
	C177.225098,92.164627 177.428925,91.734047 177.816513,91.147316 
z"/>
<path fill="#CF9227" opacity="1.000000" stroke="none" 
	d="
M130.910370,345.941376 
	C130.956619,339.488586 131.002884,333.035828 131.165039,326.101562 
	C131.512482,328.070404 131.939819,330.520203 131.945557,332.971008 
	C132.009689,360.334290 132.008789,387.697662 132.084930,415.527985 
	C132.144470,415.994934 131.835983,416.067688 131.545166,415.751587 
	C131.132797,413.926910 131.011246,412.418304 130.910965,410.447205 
	C130.924957,388.636932 130.917664,367.289154 130.910370,345.941376 
z"/>
<path fill="#FFCC3D" opacity="1.000000" stroke="none" 
	d="
M42.863297,329.461060 
	C43.319447,333.364899 43.661564,337.724609 44.004765,343.015350 
	C44.005215,361.297882 44.004578,378.649384 44.002228,396.417175 
	C43.996239,398.221008 43.991966,399.608521 43.733231,400.996582 
	C43.309135,400.998016 43.139496,400.998932 42.969864,400.999847 
	C42.896328,377.305511 42.822792,353.611206 42.863297,329.461060 
z"/>
<path fill="#27BBE4" opacity="1.000000" stroke="none" 
	d="
M132.029221,91.330017 
	C142.154587,91.000320 152.269485,90.954361 162.383209,91.042862 
	C164.117554,91.058037 165.846863,91.646454 167.775986,92.285011 
	C156.289566,92.681320 144.605667,92.762680 132.456497,92.910172 
	C132.000275,92.537262 132.009308,92.098213 132.029221,91.330017 
z"/>
<path fill="#16D8DD" opacity="1.000000" stroke="none" 
	d="
M42.839432,60.448730 
	C43.285851,63.879295 43.814056,67.765106 43.950348,71.664619 
	C44.129623,76.794090 44.000610,81.934334 44.010368,87.539627 
	C44.001911,102.020370 43.987247,116.031441 43.722336,130.514130 
	C43.472084,130.985764 42.979698,130.985382 42.979698,130.985382 
	C42.902081,107.626945 42.824459,84.268509 42.839432,60.448730 
z"/>
<path fill="#1EC3DA" opacity="1.000000" stroke="none" 
	d="
M265.478699,92.688034 
	C266.624634,92.068031 268.222198,91.105362 269.838074,91.073486 
	C277.910919,90.914207 285.988586,90.999161 294.533508,90.996056 
	C296.547760,91.332367 298.093048,91.670845 299.804169,92.303543 
	C288.626251,92.656693 277.282501,92.715614 265.478699,92.688034 
z"/>
<path fill="#FFBE41" opacity="1.000000" stroke="none" 
	d="
M42.855362,401.456390 
	C43.139496,400.998932 43.309135,400.998016 43.738056,401.465637 
	C43.998226,421.289459 43.999111,440.644714 43.999985,460.428284 
	C43.998627,462.569855 43.997284,464.283081 43.738243,465.995483 
	C43.308762,465.994232 43.136967,465.993774 42.965168,465.993286 
	C42.890400,444.633179 42.815636,423.273041 42.855362,401.456390 
z"/>
<path fill="#138699" opacity="1.000000" stroke="none" 
	d="
M360.030884,4.039004 
	C343.201294,4.110775 326.439270,4.003651 309.310028,3.703914 
	C325.695496,3.406769 342.448151,3.302237 359.657898,3.337859 
	C360.114990,3.478012 360.098450,3.860110 360.030884,4.039004 
z"/>
<path fill="#28C2E8" opacity="1.000000" stroke="none" 
	d="
M101.425827,5.008928 
	C94.547462,4.838329 88.119980,4.661310 81.352036,4.251380 
	C81.362442,3.885068 81.713310,3.751665 82.797371,3.751904 
	C86.710258,3.749859 89.889961,3.614172 93.069664,3.478486 
	C99.064995,3.464165 105.060326,3.449845 111.507172,3.553426 
	C108.598022,4.115055 105.237366,4.558781 101.425827,5.008928 
z"/>
<path fill="#1EC3DA" opacity="1.000000" stroke="none" 
	d="
M240.477982,92.687546 
	C242.804916,92.067337 245.582870,91.160950 248.380447,91.095680 
	C251.772125,91.016548 255.180374,91.647942 258.780304,92.286133 
	C252.965332,92.658272 246.951523,92.716187 240.477982,92.687546 
z"/>
<path fill="#FFAA2D" opacity="1.000000" stroke="none" 
	d="
M43.999695,524.997559 
	C43.811535,529.114563 43.623379,533.231567 43.193840,537.682495 
	C42.881588,525.646606 42.810711,513.276794 43.108238,500.449707 
	C43.648972,499.992096 43.821297,499.991791 43.995399,500.460999 
	C43.998020,508.952881 43.998859,516.975220 43.999695,524.997559 
z"/>
<path fill="#FCB139" opacity="1.000000" stroke="none" 
	d="
M43.993622,499.991486 
	C43.821297,499.991791 43.648972,499.992096 43.218155,499.991638 
	C42.884853,488.963165 42.810043,477.935516 42.850201,466.450562 
	C43.136967,465.993774 43.308762,465.994232 43.742851,466.464539 
	C44.001305,477.953461 43.997463,488.972473 43.993622,499.991486 
z"/>
<path fill="#0EDFCD" opacity="1.000000" stroke="none" 
	d="
M42.870941,131.444672 
	C42.979698,130.985382 43.472084,130.985764 43.717831,130.981323 
	C43.977669,134.018158 43.991756,137.059448 44.011803,140.556488 
	C43.823143,148.124298 43.628536,155.236374 43.187256,162.683746 
	C42.881115,152.647339 42.821651,142.275635 42.870941,131.444672 
z"/>
<path fill="#14BEC5" opacity="1.000000" stroke="none" 
	d="
M131.423050,189.260742 
	C131.094696,188.052872 131.055237,186.485413 131.008820,184.447693 
	C131.137619,176.239563 131.273392,168.501694 131.599304,160.403900 
	C131.763611,169.663025 131.737778,179.282104 131.423050,189.260742 
z"/>
<path fill="#1EC3DA" opacity="1.000000" stroke="none" 
	d="
M346.480530,92.690041 
	C349.466400,92.241257 352.899872,91.877792 356.641693,91.897598 
	C356.950043,92.280853 356.953339,92.611992 356.953339,92.611992 
	C353.611603,92.666443 350.269897,92.720901 346.480530,92.690041 
z"/>
<path fill="#0EDFCD" opacity="1.000000" stroke="none" 
	d="
M42.852825,171.448410 
	C43.133923,177.085129 43.325306,183.183395 43.299831,189.630524 
	C42.976353,183.956253 42.869732,177.933105 42.852825,171.448410 
z"/>
<path fill="#26B2E5" opacity="1.000000" stroke="none" 
	d="
M548.793213,174.562988 
	C548.079895,171.790985 547.407043,168.617859 546.988037,165.164825 
	C547.772522,167.977234 548.303162,171.069534 548.793213,174.562988 
z"/>
<path fill="#26B2E5" opacity="1.000000" stroke="none" 
	d="
M549.760132,185.613861 
	C549.350220,184.161819 549.010315,182.325394 548.906250,180.212891 
	C549.371460,181.701035 549.600830,183.465240 549.760132,185.613861 
z"/>
<path fill="#13C2DA" opacity="1.000000" stroke="none" 
	d="
M44.065575,36.976311 
	C44.200531,38.835873 44.177288,41.023376 43.821213,43.610001 
	C43.317593,44.010792 43.146809,44.012470 42.976028,44.014145 
	C43.286480,41.777515 43.596931,39.540882 44.065575,36.976311 
z"/>
<path fill="#138699" opacity="1.000000" stroke="none" 
	d="
M92.640503,3.332282 
	C89.889961,3.614172 86.710258,3.749859 83.082306,3.742729 
	C85.826477,3.461968 89.018913,3.324023 92.640503,3.332282 
z"/>
<path fill="#F26423" opacity="1.000000" stroke="none" 
	d="
M192.584457,346.804016 
	C191.825424,348.079224 190.776169,349.517242 189.344345,350.978790 
	C190.072601,349.657135 191.183426,348.311951 192.584457,346.804016 
z"/>
<path fill="#06D0BA" opacity="1.000000" stroke="none" 
	d="
M130.402313,195.765045 
	C130.386230,194.156540 130.616928,192.235519 131.123993,190.064911 
	C131.149933,191.694397 130.899506,193.573456 130.402313,195.765045 
z"/>
<path fill="#14BEC5" opacity="1.000000" stroke="none" 
	d="
M424.753387,15.754625 
	C423.408630,15.553140 421.808258,15.130971 420.102997,14.410083 
	C421.497986,14.585557 422.997894,15.059751 424.753387,15.754625 
z"/>
<path fill="#26B2E5" opacity="1.000000" stroke="none" 
	d="
M459.065552,176.379105 
	C459.540131,177.505005 459.984375,178.995605 460.223938,180.740204 
	C459.691223,179.577408 459.363220,178.160599 459.065552,176.379105 
z"/>
<path fill="#14BEC5" opacity="1.000000" stroke="none" 
	d="
M357.338013,92.711929 
	C356.953339,92.611992 356.950043,92.280853 356.976318,92.116837 
	C357.784576,91.938942 358.566589,91.925064 359.906372,91.769669 
	C360.677734,91.451393 360.854187,91.243164 360.993530,91.003464 
	C361.600922,91.378181 362.208282,91.752892 362.999817,92.442314 
	C361.363525,92.775307 359.543091,92.793587 357.338013,92.711929 
z"/>
<path fill="#1EC3DA" opacity="1.000000" stroke="none" 
	d="
M332.393494,92.687660 
	C332.938232,92.437080 333.844849,92.271767 334.858765,92.355667 
	C334.229187,92.660896 333.492279,92.716911 332.393494,92.687660 
z"/>
<path fill="#16D8DD" opacity="1.000000" stroke="none" 
	d="
M42.871483,44.380859 
	C43.146809,44.012470 43.317593,44.010792 43.744560,44.010052 
	C43.793068,44.849697 43.585388,45.688404 43.157097,46.770149 
	C42.879974,46.257980 42.823456,45.502777 42.871483,44.380859 
z"/>
<path fill="#28AAE1" opacity="1.000000" stroke="none" 
	d="
M548.094238,224.723846 
	C547.864502,224.411087 547.749146,223.825378 547.837830,222.986237 
	C548.097473,223.305496 548.153015,223.878204 548.094238,224.723846 
z"/>
<path fill="#26B2E5" opacity="1.000000" stroke="none" 
	d="
M549.866333,188.744614 
	C549.678345,188.691391 549.546692,188.386597 549.588135,188.042603 
	C549.815002,188.166595 549.868835,188.329819 549.866333,188.744614 
z"/>
<path fill="#23409B" opacity="1.000000" stroke="none" 
	d="
M341.732849,444.352356 
	C341.922455,444.292480 342.255554,444.497131 342.730713,444.963318 
	C342.540649,445.022186 342.208496,444.819550 341.732849,444.352356 
z"/>
<path fill="#F37022" opacity="1.000000" stroke="none" 
	d="
M258.855438,270.232666 
	C258.926270,270.377991 258.789825,270.560516 258.484131,270.821167 
	C258.342194,270.652283 258.453278,270.442505 258.855438,270.232666 
z"/>
<path fill="#14BEC5" opacity="1.000000" stroke="none" 
	d="
M131.858276,94.751831 
	C131.549484,94.781609 131.485825,94.523994 131.694519,94.117020 
	C131.833511,94.171707 131.879013,94.337303 131.858276,94.751831 
z"/>
<path fill="#12C2C2" opacity="1.000000" stroke="none" 
	d="
M484.735016,51.870842 
	C484.513336,52.039627 484.290039,51.914047 484.046661,51.509266 
	C484.277252,51.300606 484.512848,51.416077 484.735016,51.870842 
z"/>
<path fill="#1EC3DA" opacity="1.000000" stroke="none" 
	d="
M360.824646,91.120590 
	C360.854187,91.243164 360.677734,91.451393 360.296387,91.741341 
	C360.263733,91.614220 360.439453,91.408615 360.824646,91.120590 
z"/>
<path fill="#FAA42F" opacity="1.000000" stroke="none" 
	d="
M43.995403,500.460999 
	C43.997463,488.972473 44.001305,477.953461 44.000542,466.465393 
	C43.997284,464.283081 43.998627,462.569855 44.334503,460.556641 
	C46.250984,462.568970 46.837997,465.658844 50.657284,465.921783 
	C59.996384,466.564758 69.260941,466.576324 78.698700,468.138000 
	C91.375626,470.235687 104.732231,468.201813 117.797821,467.987701 
	C122.391853,467.912445 126.988113,467.973602 131.583359,467.972443 
	C131.699203,472.009277 131.815048,476.046143 131.990112,480.544556 
	C132.006378,486.032837 131.963425,491.059540 131.938446,497.014343 
	C131.840744,505.626678 131.725067,513.310913 131.609406,520.995117 
	C125.384598,521.663391 119.168144,522.796204 112.933334,522.908264 
	C97.439003,523.186951 81.932465,522.797058 66.438652,523.089722 
	C59.219067,523.226135 52.017632,524.323364 44.403831,524.991333 
	C43.998859,516.975220 43.998020,508.952881 43.995403,500.460999 
z"/>
<path fill="#B51B3D" opacity="1.000000" stroke="none" 
	d="
M131.691101,521.456665 
	C131.725067,513.310913 131.840744,505.626678 132.010757,497.477356 
	C132.065109,497.012238 132.525864,497.018402 132.755920,497.027710 
	C132.990829,500.393311 132.995682,503.749603 133.008392,507.566772 
	C132.834198,518.119446 132.652145,528.211304 132.243622,538.647461 
	C132.017166,538.991699 131.816681,539.000183 131.770020,538.772827 
	C131.723358,538.545471 131.664368,538.126160 131.664368,538.126160 
	C131.700516,532.723511 131.736679,527.320801 131.691101,521.456665 
z"/>
<path fill="#CF9227" opacity="1.000000" stroke="none" 
	d="
M131.178375,542.201843 
	C131.150162,543.808228 130.860382,545.621582 130.375366,547.709167 
	C130.425690,546.125183 130.671249,544.267029 131.178375,542.201843 
z"/>
<path fill="#CF9227" opacity="1.000000" stroke="none" 
	d="
M131.596817,538.217163 
	C131.664368,538.126160 131.723358,538.545471 131.672363,538.749878 
	C131.481232,538.752136 131.450531,538.536804 131.596817,538.217163 
z"/>
<path fill="#FCBC37" opacity="1.000000" stroke="none" 
	d="
M44.003941,396.000854 
	C44.004578,378.649384 44.005215,361.297882 44.007393,343.479156 
	C45.468632,343.290405 47.156303,344.181671 48.347488,343.738495 
	C52.842731,342.066010 56.544224,342.350006 60.070168,346.035736 
	C60.761063,346.757935 64.027924,346.144501 65.153015,345.109955 
	C68.461288,342.067871 71.334702,341.517212 74.530533,345.012939 
	C77.002098,347.716431 79.408669,347.275970 81.751778,344.766998 
	C84.592079,341.725677 87.466614,341.777588 90.284615,344.800598 
	C92.647285,347.335205 95.043831,347.652649 97.509544,344.982635 
	C100.464149,341.783234 103.219353,341.893799 106.517822,344.800537 
	C107.794769,345.925812 111.211578,346.737488 111.962646,345.990906 
	C115.905983,342.071228 120.123062,341.276794 124.663170,343.633453 
	C126.109680,341.578186 127.242020,339.969299 129.180222,337.215393 
	C129.783554,340.923767 130.140747,343.119263 130.704163,345.628082 
	C130.917664,367.289154 130.924957,388.636932 130.698883,410.109863 
	C130.190765,405.838715 129.916031,401.442383 129.700714,397.996826 
	C126.419441,398.712982 123.475182,399.891418 120.522049,399.914154 
	C99.552643,400.075317 78.580437,399.890869 57.611473,400.078461 
	C52.511017,400.124115 47.761074,399.982605 44.003941,396.000854 
z"/>
<path fill="#1C4BA2" opacity="1.000000" stroke="none" 
	d="
M377.543274,453.163086 
	C374.184753,453.596893 370.418732,454.015533 366.330505,454.195160 
	C369.717438,453.686737 373.426605,453.417328 377.543274,453.163086 
z"/>
<path fill="#1C4BA2" opacity="1.000000" stroke="none" 
	d="
M384.671204,451.980652 
	C384.208069,452.305786 383.411926,452.635132 382.279816,452.962891 
	C382.741943,452.635834 383.540070,452.310364 384.671204,451.980652 
z"/>
<path fill="#FCB139" opacity="1.000000" stroke="none" 
	d="
M44.002228,396.417175 
	C47.761074,399.982605 52.511017,400.124115 57.611473,400.078461 
	C78.580437,399.890869 99.552643,400.075317 120.522049,399.914154 
	C123.475182,399.891418 126.419441,398.712982 129.700714,397.996826 
	C129.916031,401.442383 130.190765,405.838715 130.677582,410.572388 
	C131.011246,412.418304 131.132797,413.926910 131.390503,415.786194 
	C131.656128,427.782135 131.785614,439.427429 131.974640,451.538818 
	C131.935944,457.020935 131.837723,462.036987 131.661438,467.512726 
	C126.988113,467.973602 122.391853,467.912445 117.797821,467.987701 
	C104.732231,468.201813 91.375626,470.235687 78.698700,468.138000 
	C69.260941,466.576324 59.996384,466.564758 50.657284,465.921783 
	C46.837997,465.658844 46.250984,462.568970 44.334518,460.128326 
	C43.999111,440.644714 43.998226,421.289459 43.992516,401.465088 
	C43.991966,399.608521 43.996239,398.221008 44.002228,396.417175 
z"/>
<path fill="#BB2049" opacity="1.000000" stroke="none" 
	d="
M133.003357,479.339355 
	C133.127594,479.697815 133.250320,480.387909 133.184311,481.037964 
	C132.997650,480.555573 132.999756,480.113312 133.003357,479.339355 
z"/>
<path fill="#14BEC5" opacity="1.000000" stroke="none" 
	d="
M427.998901,42.776344 
	C427.750458,44.665066 427.502716,46.110783 427.255005,47.556499 
	C426.765686,47.506218 426.276367,47.455940 425.787048,47.405663 
	C425.787048,43.135422 425.787048,38.865181 425.787048,34.594940 
	C426.404114,34.567230 427.021179,34.539520 427.638275,34.511810 
	C427.758728,37.118988 427.879181,39.726166 427.998901,42.776344 
z"/>
<path fill="#28AFE3" opacity="1.000000" stroke="none" 
	d="
M475.205750,169.000092 
	C479.536438,169.131516 483.407501,169.263031 487.278534,169.394547 
	C487.238007,170.058563 487.197449,170.722580 487.156891,171.386597 
	C481.071320,171.386597 474.985748,171.386597 468.900146,171.386597 
	C468.823578,170.862167 468.747040,170.337738 468.670471,169.813309 
	C470.695679,169.542267 472.720917,169.271225 475.205750,169.000092 
z"/>
<path fill="#28AFE3" opacity="1.000000" stroke="none" 
	d="
M506.889648,180.000854 
	C509.169312,180.414658 511.010529,180.827911 512.851807,181.241180 
	C512.837219,181.920441 512.822632,182.599701 512.808044,183.278961 
	C509.229126,184.000443 505.672546,184.944687 502.057648,185.307190 
	C500.978485,185.415421 499.735992,183.895111 498.568329,183.120941 
	C499.702423,182.114471 500.688019,180.735825 502.012817,180.207230 
	C503.312836,179.688522 504.957733,180.034042 506.889648,180.000854 
z"/>
</svg>