<svg version="1.1" id="Layer_1" xmlns="http://www.w3.org/2000/svg" xmlns:xlink="http://www.w3.org/1999/xlink" x="0px" y="0px"
	 width="100%" viewBox="0 0 512 512" enable-background="new 0 0 512 512" xml:space="preserve">
<path fill="#FEFDFD" opacity="1.000000" stroke="none" 
	d="
M151.000000,0.999999 
	C271.624603,1.000000 392.249237,1.000000 512.936890,1.000000 
	C512.936890,171.565125 512.936890,342.130280 512.936890,513.000000 
	C392.976837,513.000000 272.953430,513.000000 152.256287,512.632019 
	C153.573242,511.295380 155.648392,510.467438 157.539444,509.332703 
	C164.268433,505.294800 170.839172,500.985596 177.645401,497.085541 
	C190.442688,489.752625 203.488373,482.847412 216.197601,475.368134 
	C230.563187,466.914062 244.601318,457.905243 258.917511,449.365021 
	C268.705597,443.526031 278.809418,438.217743 288.624573,432.422424 
	C308.604492,420.625244 328.466797,408.629028 348.411743,396.772339 
	C364.277344,387.340759 380.458954,378.409729 396.003235,368.478577 
	C408.347870,360.591705 416.614227,348.979187 418.554626,334.300842 
	C419.412079,327.814728 418.197510,320.511047 415.963959,314.281067 
	C412.139618,303.613831 404.200958,295.497223 394.691864,289.597168 
	C378.160400,279.339905 361.182312,269.803375 344.436615,259.888397 
	C343.328491,259.232330 342.075409,258.021790 341.885010,256.900177 
	C341.761169,256.170715 343.297272,254.888885 344.337463,254.272736 
	C361.188782,244.290970 378.543793,235.074783 394.834412,224.254440 
	C411.914551,212.909668 422.234863,197.837265 417.169006,175.421600 
	C414.457184,163.422150 408.219177,154.373810 398.632294,147.867142 
	C387.092804,140.035248 374.693298,133.476898 362.731293,126.259132 
	C352.887878,120.319679 343.221985,114.083168 333.327576,108.231674 
	C321.839691,101.437798 310.105804,95.059448 298.627777,88.249451 
	C282.509430,78.686333 266.564911,68.830833 250.478989,59.212475 
	C233.085037,48.811989 215.668503,38.446922 198.158722,28.243320 
	C184.993637,20.571547 171.655457,13.197159 158.419220,5.646762 
	C155.886673,4.202106 153.470093,2.554156 151.000000,0.999999 
z"/>
<path fill="#FD5205" opacity="1.000000" stroke="none" 
	d="
M150.531342,0.999999 
	C153.470093,2.554156 155.886673,4.202106 158.419220,5.646762 
	C171.655457,13.197159 184.993637,20.571547 198.158722,28.243320 
	C215.668503,38.446922 233.085037,48.811989 250.478989,59.212475 
	C266.564911,68.830833 282.509430,78.686333 298.627777,88.249451 
	C310.105804,95.059448 321.839691,101.437798 333.327576,108.231674 
	C343.221985,114.083168 352.887878,120.319679 362.731293,126.259132 
	C374.693298,133.476898 387.092804,140.035248 398.632294,147.867142 
	C408.219177,154.373810 414.457184,163.422150 417.169006,175.421600 
	C422.234863,197.837265 411.914551,212.909668 394.834412,224.254440 
	C378.543793,235.074783 361.188782,244.290970 344.337463,254.272736 
	C343.297272,254.888885 341.761169,256.170715 341.885010,256.900177 
	C342.075409,258.021790 343.328491,259.232330 344.436615,259.888397 
	C361.182312,269.803375 378.160400,279.339905 394.691864,289.597168 
	C404.200958,295.497223 412.139618,303.613831 415.963959,314.281067 
	C418.197510,320.511047 419.412079,327.814728 418.554626,334.300842 
	C416.614227,348.979187 408.347870,360.591705 396.003235,368.478577 
	C380.458954,378.409729 364.277344,387.340759 348.411743,396.772339 
	C328.466797,408.629028 308.604492,420.625244 288.624573,432.422424 
	C278.809418,438.217743 268.705597,443.526031 258.917511,449.365021 
	C244.601318,457.905243 230.563187,466.914062 216.197601,475.368134 
	C203.488373,482.847412 190.442688,489.752625 177.645401,497.085541 
	C170.839172,500.985596 164.268433,505.294800 157.539444,509.332703 
	C155.648392,510.467438 153.573242,511.295380 151.791260,512.632019 
	C143.312439,513.000000 134.624878,513.000000 125.533989,512.619873 
	C122.811172,511.119751 120.481377,510.020477 118.173920,508.876129 
	C105.760681,502.720154 99.570984,491.964111 96.535919,478.835815 
	C96.896797,446.020935 96.932686,413.492432 97.008835,380.541504 
	C97.250580,378.309082 97.195595,376.424835 97.694817,374.701111 
	C101.162041,362.729004 106.339241,351.515106 113.330032,340.982971 
	C114.369156,340.561493 115.281052,340.286163 115.710953,339.672943 
	C124.069412,327.750244 135.348755,319.422729 148.077728,312.696960 
	C151.717178,310.773956 154.780991,307.761536 158.454437,305.148987 
	C184.918884,289.382141 211.037659,273.714966 237.778885,257.674408 
	C236.315674,256.439972 235.354752,255.374390 234.176605,254.674469 
	C221.285339,247.015854 208.337234,239.452881 195.450043,231.787415 
	C179.571716,222.342789 163.793610,212.728470 147.864273,203.371170 
	C135.407837,196.053955 123.351242,188.290115 114.857239,176.232788 
	C105.881134,163.491119 97.805717,150.320511 96.969421,133.654755 
	C97.029564,130.362030 96.958420,127.538330 96.959190,124.714645 
	C96.967125,95.477722 96.986649,66.240799 97.027924,36.578560 
	C97.714554,23.484806 110.167862,7.628729 121.936150,3.697567 
	C123.125130,3.300391 123.986565,1.922674 125.000000,1.000000 
	C133.354233,1.000000 141.708466,1.000000 150.531342,0.999999 
M305.025208,362.057709 
	C305.025208,362.057709 305.123474,362.093292 305.873718,362.075500 
	C310.629608,359.134583 315.385498,356.193634 320.801178,353.014893 
	C333.275391,345.430389 345.749634,337.845886 358.895996,329.852692 
	C357.127075,328.450195 355.878357,327.207489 354.410004,326.334076 
	C334.173492,314.296967 313.848480,302.407135 293.694427,290.234070 
	C289.437836,287.663086 286.253815,287.572998 281.948151,290.408081 
	C273.912598,295.699158 265.340485,300.175415 256.223175,304.925446 
	C250.096497,308.230133 243.887619,311.393982 237.879211,314.901276 
	C235.040451,316.558350 232.585754,318.873383 229.566040,321.066284 
	C229.566040,321.066284 229.141083,321.123413 228.397720,320.990295 
	C222.561325,324.318329 216.657318,327.535034 210.917511,331.022064 
	C208.107651,332.729095 205.603058,334.938629 202.349701,337.246216 
	C191.738327,343.537079 181.213028,349.979340 170.490036,356.073822 
	C160.812500,361.574188 151.605072,367.531769 146.600479,377.964661 
	C144.720917,381.882874 142.461105,386.149811 142.366119,390.303284 
	C141.894287,410.936096 142.071838,431.584076 142.075882,452.226715 
	C142.076187,453.771484 142.509186,455.316193 142.850998,457.593445 
	C148.867798,454.217468 154.200653,451.368164 159.394852,448.285248 
	C178.396255,437.007263 197.341537,425.634827 216.328522,414.332458 
	C225.171021,409.068787 234.032242,403.835175 242.937439,398.678558 
	C250.924026,394.053864 258.982544,389.553345 267.741455,385.069092 
	C274.448975,381.186890 281.202911,377.381378 287.831482,373.368774 
	C289.496002,372.361176 290.758331,370.689148 292.632904,369.197418 
	C292.632904,369.197418 293.063293,369.083130 293.817413,369.151276 
	C297.578918,366.810425 301.340424,364.469574 305.025208,362.057709 
M352.636627,179.554901 
	C351.027344,178.766693 349.418091,177.978485 347.409546,177.081802 
	C347.409546,177.081802 347.036285,176.903275 346.879944,176.248474 
	C341.284088,172.720230 335.744202,169.098480 330.069275,165.702393 
	C327.144531,163.952118 323.979553,162.603333 320.495087,160.937973 
	C320.495087,160.937973 320.053711,160.856400 319.655304,160.324417 
	C311.071411,155.250870 302.487549,150.177322 293.976471,144.994232 
	C293.976471,144.994232 293.915466,145.107758 293.633148,144.480591 
	C286.766876,140.645264 279.900604,136.809937 272.520447,132.481430 
	C271.148407,131.922394 269.661316,131.547775 268.422607,130.774994 
	C259.004913,124.899536 249.780472,118.699539 240.211502,113.085274 
	C230.284348,107.260857 219.865555,102.271301 209.967239,96.401505 
	C188.770172,83.831429 167.776855,70.917961 146.668793,58.197060 
	C145.625336,57.568226 144.000320,56.840000 143.165634,57.240585 
	C142.393478,57.611168 141.990677,59.435146 141.987030,60.620792 
	C141.930618,78.939651 141.776062,97.262184 142.102036,115.575714 
	C142.193359,120.706497 143.562103,125.855820 144.696030,130.917969 
	C146.894852,140.734116 153.403229,147.673508 161.431320,152.825394 
	C173.308182,160.447174 185.693420,167.277679 197.873474,174.425873 
	C214.242142,184.032227 230.647491,193.576385 246.988342,203.229767 
	C260.612183,211.278091 274.165802,219.445251 287.648773,227.499023 
	C296.819885,222.147263 305.725525,216.903305 314.687500,211.757446 
	C316.657593,210.626205 318.827820,209.843491 321.612457,208.846527 
	C328.824707,204.641617 336.065765,200.484573 343.220001,196.183167 
	C344.371399,195.490936 345.135712,194.154953 346.069366,193.027954 
	C346.069366,193.027954 346.119324,193.101746 346.876282,193.176498 
	C351.731293,190.757278 357.899139,189.986969 359.938477,182.893692 
	C357.288574,181.901398 355.044342,181.061020 352.982300,180.008972 
	C352.982300,180.008972 352.803986,180.218719 352.636627,179.554901 
z"/>
<path fill="#FEFEFD" opacity="1.000000" stroke="none" 
	d="
M124.531342,1.000000 
	C123.986565,1.922674 123.125130,3.300391 121.936150,3.697567 
	C110.167862,7.628729 97.714554,23.484806 96.785904,36.840744 
	C95.742355,40.517807 94.307419,43.504009 94.292099,46.497475 
	C94.153755,73.529541 94.205193,100.563324 94.412285,127.594994 
	C94.429008,129.777405 96.014839,131.947800 96.871513,134.123779 
	C97.805717,150.320511 105.881134,163.491119 114.857239,176.232788 
	C123.351242,188.290115 135.407837,196.053955 147.864273,203.371170 
	C163.793610,212.728470 179.571716,222.342789 195.450043,231.787415 
	C208.337234,239.452881 221.285339,247.015854 234.176605,254.674469 
	C235.354752,255.374390 236.315674,256.439972 237.778885,257.674408 
	C211.037659,273.714966 184.918884,289.382141 158.090820,305.078552 
	C150.633392,309.105713 143.993423,313.301971 137.111862,317.055328 
	C126.719254,322.723633 119.138306,331.099182 112.978401,340.971802 
	C106.339241,351.515106 101.162041,362.729004 97.694817,374.701111 
	C97.195595,376.424835 97.250580,378.309082 96.747604,380.812561 
	C95.679153,383.931824 94.269058,386.351685 94.246681,388.784302 
	C94.063240,408.726868 93.739388,428.683105 94.300735,448.611450 
	C94.586884,458.769928 92.102875,469.185974 96.210922,479.122162 
	C99.570984,491.964111 105.760681,502.720154 118.173920,508.876129 
	C120.481377,510.020477 122.811172,511.119751 125.065331,512.619873 
	C83.690468,513.000000 42.380939,513.000000 1.035706,513.000000 
	C1.035706,342.455444 1.035706,171.910858 1.035706,1.000000 
	C42.020168,1.000000 83.041428,1.000000 124.531342,1.000000 
z"/>
<path fill="#FDFCFB" opacity="1.000000" stroke="none" 
	d="
M320.053711,160.856400 
	C320.053711,160.856400 320.495087,160.937973 320.763489,161.362885 
	C321.295715,162.357040 321.402374,163.177292 321.847931,163.456329 
	C325.836426,165.954056 329.790649,168.533371 333.941284,170.737823 
	C338.197266,172.998230 342.662598,174.864502 347.036285,176.903275 
	C347.036285,176.903275 347.409546,177.081802 347.705750,177.466644 
	C349.602661,178.640549 351.203308,179.429642 352.803986,180.218719 
	C352.803986,180.218719 352.982300,180.008972 352.918640,180.466888 
	C354.267853,182.402557 355.680695,183.880295 357.047577,185.309982 
	C353.052704,188.158295 349.586029,190.630020 346.119324,193.101746 
	C346.119324,193.101746 346.069366,193.027954 345.704285,193.035156 
	C337.448273,197.575302 329.542145,202.082504 321.700745,206.699615 
	C321.183289,207.004318 321.159363,208.147247 320.905884,208.900269 
	C318.827820,209.843491 316.657593,210.626205 314.687500,211.757446 
	C305.725525,216.903305 296.819885,222.147263 287.648773,227.499023 
	C274.165802,219.445251 260.612183,211.278091 246.988342,203.229767 
	C230.647491,193.576385 214.242142,184.032227 197.873474,174.425873 
	C185.693420,167.277679 173.308182,160.447174 161.431320,152.825394 
	C153.403229,147.673508 146.894852,140.734116 144.696030,130.917969 
	C143.562103,125.855820 142.193359,120.706497 142.102036,115.575714 
	C141.776062,97.262184 141.930618,78.939651 141.987030,60.620792 
	C141.990677,59.435146 142.393478,57.611168 143.165634,57.240585 
	C144.000320,56.840000 145.625336,57.568226 146.668793,58.197060 
	C167.776855,70.917961 188.770172,83.831429 209.967239,96.401505 
	C219.865555,102.271301 230.284348,107.260857 240.211502,113.085274 
	C249.780472,118.699539 259.004913,124.899536 268.422607,130.774994 
	C269.661316,131.547775 271.148407,131.922394 272.809998,133.073532 
	C274.239960,134.566101 275.273041,135.672958 276.539246,136.331635 
	C282.295410,139.326019 288.117249,142.194199 293.915466,145.107758 
	C293.915466,145.107758 293.976471,144.994232 294.016418,145.379272 
	C302.068207,150.814362 310.070496,155.879791 318.116577,160.874710 
	C318.579926,161.162354 319.399780,160.875763 320.053711,160.856400 
z"/>
<path fill="#FEFCFB" opacity="1.000000" stroke="none" 
	d="
M256.991669,304.990753 
	C265.340485,300.175415 273.912598,295.699158 281.948151,290.408081 
	C286.253815,287.572998 289.437836,287.663086 293.694427,290.234070 
	C313.848480,302.407135 334.173492,314.296967 354.410004,326.334076 
	C355.878357,327.207489 357.127075,328.450195 358.895996,329.852692 
	C345.749634,337.845886 333.275391,345.430389 320.106750,353.041595 
	C314.649384,356.076630 309.886444,359.084961 305.123474,362.093292 
	C305.123474,362.093292 305.025208,362.057709 304.699463,362.148438 
	C300.603577,364.520477 296.833435,366.801788 293.063293,369.083130 
	C293.063293,369.083130 292.632904,369.197418 292.047852,369.177094 
	C285.370911,372.731506 279.218750,376.208984 273.218292,379.931122 
	C270.967133,381.327484 269.068604,383.292358 267.009308,384.998047 
	C258.982544,389.553345 250.924026,394.053864 242.937439,398.678558 
	C234.032242,403.835175 225.171021,409.068787 216.328522,414.332458 
	C197.341537,425.634827 178.396255,437.007263 159.394852,448.285248 
	C154.200653,451.368164 148.867798,454.217468 142.850998,457.593445 
	C142.509186,455.316193 142.076187,453.771484 142.075882,452.226715 
	C142.071838,431.584076 141.894287,410.936096 142.366119,390.303284 
	C142.461105,386.149811 144.720917,381.882874 146.600479,377.964661 
	C151.605072,367.531769 160.812500,361.574188 170.490036,356.073822 
	C181.213028,349.979340 191.738327,343.537079 203.027786,337.121155 
	C209.263550,333.902222 214.909668,330.954254 220.344727,327.658203 
	C223.454224,325.772430 226.220352,323.320465 229.141083,321.123413 
	C229.141083,321.123413 229.566040,321.066284 230.129669,321.018127 
	C233.836121,319.231812 237.051819,317.611908 240.105988,315.729858 
	C245.784225,312.230804 251.368347,308.578979 256.991669,304.990753 
z"/>
<path fill="#F19D76" opacity="1.000000" stroke="none" 
	d="
M96.969421,133.654755 
	C96.014839,131.947800 94.429008,129.777405 94.412285,127.594994 
	C94.205193,100.563324 94.153755,73.529541 94.292099,46.497475 
	C94.307419,43.504009 95.742355,40.517807 96.760925,37.266052 
	C96.986649,66.240799 96.967125,95.477722 96.959190,124.714645 
	C96.958420,127.538330 97.029564,130.362030 96.969421,133.654755 
z"/>
<path fill="#F09D77" opacity="1.000000" stroke="none" 
	d="
M96.535919,478.835815 
	C92.102875,469.185974 94.586884,458.769928 94.300735,448.611450 
	C93.739388,428.683105 94.063240,408.726868 94.246681,388.784302 
	C94.269058,386.351685 95.679153,383.931824 96.707352,381.234985 
	C96.932686,413.492432 96.896797,446.020935 96.535919,478.835815 
z"/>
<path fill="#EC9469" opacity="1.000000" stroke="none" 
	d="
M113.330032,340.982971 
	C119.138306,331.099182 126.719254,322.723633 137.111862,317.055328 
	C143.993423,313.301971 150.633392,309.105713 157.745148,305.178223 
	C154.780991,307.761536 151.717178,310.773956 148.077728,312.696960 
	C135.348755,319.422729 124.069412,327.750244 115.710953,339.672943 
	C115.281052,340.286163 114.369156,340.561493 113.330032,340.982971 
z"/>
<path fill="#EE8F62" opacity="1.000000" stroke="none" 
	d="
M346.958130,176.575867 
	C342.662598,174.864502 338.197266,172.998230 333.941284,170.737823 
	C329.790649,168.533371 325.836426,165.954056 321.847931,163.456329 
	C321.402374,163.177292 321.295715,162.357040 320.977509,161.430450 
	C323.979553,162.603333 327.144531,163.952118 330.069275,165.702393 
	C335.744202,169.098480 341.284088,172.720230 346.958130,176.575867 
z"/>
<path fill="#F08859" opacity="1.000000" stroke="none" 
	d="
M228.769409,321.056854 
	C226.220352,323.320465 223.454224,325.772430 220.344727,327.658203 
	C214.909668,330.954254 209.263550,333.902222 203.333099,336.958405 
	C205.603058,334.938629 208.107651,332.729095 210.917511,331.022064 
	C216.657318,327.535034 222.561325,324.318329 228.769409,321.056854 
z"/>
<path fill="#F08859" opacity="1.000000" stroke="none" 
	d="
M256.607422,304.958099 
	C251.368347,308.578979 245.784225,312.230804 240.105988,315.729858 
	C237.051819,317.611908 233.836121,319.231812 230.325165,320.930115 
	C232.585754,318.873383 235.040451,316.558350 237.879211,314.901276 
	C243.887619,311.393982 250.096497,308.230133 256.607422,304.958099 
z"/>
<path fill="#EF9972" opacity="1.000000" stroke="none" 
	d="
M267.375366,385.033569 
	C269.068604,383.292358 270.967133,381.327484 273.218292,379.931122 
	C279.218750,376.208984 285.370911,372.731506 291.834106,369.239624 
	C290.758331,370.689148 289.496002,372.361176 287.831482,373.368774 
	C281.202911,377.381378 274.448975,381.186890 267.375366,385.033569 
z"/>
<path fill="#EE8F62" opacity="1.000000" stroke="none" 
	d="
M321.259155,208.873398 
	C321.159363,208.147247 321.183289,207.004318 321.700745,206.699615 
	C329.542145,202.082504 337.448273,197.575302 345.709106,193.079437 
	C345.135712,194.154953 344.371399,195.490936 343.220001,196.183167 
	C336.065765,200.484573 328.824707,204.641617 321.259155,208.873398 
z"/>
<path fill="#F19366" opacity="1.000000" stroke="none" 
	d="
M319.854492,160.590408 
	C319.399780,160.875763 318.579926,161.162354 318.116577,160.874710 
	C310.070496,155.879791 302.068207,150.814362 293.980011,145.434036 
	C302.487549,150.177322 311.071411,155.250870 319.854492,160.590408 
z"/>
<path fill="#F19366" opacity="1.000000" stroke="none" 
	d="
M293.774292,144.794189 
	C288.117249,142.194199 282.295410,139.326019 276.539246,136.331635 
	C275.273041,135.672958 274.239960,134.566101 273.066925,133.320114 
	C279.900604,136.809937 286.766876,140.645264 293.774292,144.794189 
z"/>
<path fill="#EE8F62" opacity="1.000000" stroke="none" 
	d="
M346.497803,193.139130 
	C349.586029,190.630020 353.052704,188.158295 357.047577,185.309982 
	C355.680695,183.880295 354.267853,182.402557 352.827576,180.572723 
	C355.044342,181.061020 357.288574,181.901398 359.938477,182.893692 
	C357.899139,189.986969 351.731293,190.757278 346.497803,193.139130 
z"/>
<path fill="#EE9C75" opacity="1.000000" stroke="none" 
	d="
M305.498596,362.084412 
	C309.886444,359.084961 314.649384,356.076630 319.776886,353.160522 
	C315.385498,356.193634 310.629608,359.134583 305.498596,362.084412 
z"/>
<path fill="#EE9C75" opacity="1.000000" stroke="none" 
	d="
M293.440369,369.117188 
	C296.833435,366.801788 300.603577,364.520477 304.737823,362.183960 
	C301.340424,364.469574 297.578918,366.810425 293.440369,369.117188 
z"/>
<path fill="#EE8F62" opacity="1.000000" stroke="none" 
	d="
M352.720306,179.886810 
	C351.203308,179.429642 349.602661,178.640549 347.905396,177.520874 
	C349.418091,177.978485 351.027344,178.766693 352.720306,179.886810 
z"/>
</svg>