<svg version="1.1" id="Layer_1" xmlns="http://www.w3.org/2000/svg" xmlns:xlink="http://www.w3.org/1999/xlink" x="0px" y="0px"
	 width="100%" viewBox="0 0 124 144" enable-background="new 0 0 124 144" xml:space="preserve">
<path fill="#FEFFFE" opacity="1.000000" stroke="none" 
	d="
M125.000000,69.000000 
	C125.000000,94.286293 125.000000,119.572578 125.000000,144.929443 
	C83.790558,144.929443 42.580967,144.929443 1.000000,144.929443 
	C1.000000,133.315063 1.000000,121.626190 1.212794,109.362770 
	C1.680562,108.584129 1.860353,108.327385 1.979363,108.008522 
	C1.993765,107.999054 2.016431,107.973083 2.481603,108.029861 
	C29.947905,108.359589 56.949036,108.632538 84.198944,109.204315 
	C90.030586,110.207924 90.030586,110.207924 89.989044,101.988312 
	C90.000000,102.000000 89.976471,101.977974 90.347237,101.982605 
	C94.293686,100.961479 96.898270,99.074905 97.109116,94.652931 
	C98.153870,93.876236 99.055077,93.385826 100.102531,93.203186 
	C101.324608,93.665970 103.295471,94.090057 103.341904,93.935600 
	C104.029846,91.647354 104.462593,89.282379 105.060486,86.721207 
	C105.359573,86.238869 105.615326,86.057434 106.307602,85.972565 
	C110.291061,84.977554 112.901123,83.085510 113.126587,78.612473 
	C116.328270,76.407089 120.471870,75.706116 120.789253,70.924316 
	C120.834457,70.243172 122.168686,69.647575 123.255264,69.009308 
	C124.069473,69.004150 124.534737,69.002075 125.000000,69.000000 
z"/>
<path fill="#FFFFFF" opacity="1.000000" stroke="none" 
	d="
M1.000000,25.000000 
	C1.000000,17.016779 1.000000,9.033557 1.000000,1.025168 
	C42.229855,1.025168 83.459724,1.025168 125.000000,1.025168 
	C125.000000,21.019825 125.000000,41.041252 124.617233,61.521660 
	C123.718605,60.818935 122.714828,59.624748 122.789558,58.502377 
	C122.940071,56.241673 123.138954,54.967857 120.331139,53.666405 
	C117.091148,52.164631 113.663620,50.305477 112.701347,45.571030 
	C111.504898,39.684425 104.557785,37.106472 99.612770,40.008774 
	C98.465683,39.768475 97.428734,39.772968 96.953979,39.258583 
	C93.793396,35.834091 90.803253,32.252663 87.655968,28.815409 
	C85.543655,26.508484 83.377853,24.866438 79.691467,24.896961 
	C53.462494,25.114153 27.230818,25.005156 1.000000,25.000000 
M95.410805,33.481133 
	C95.410805,33.481133 95.520302,33.415462 95.410805,33.481133 
M96.580002,31.519020 
	C96.580002,31.519020 96.477539,31.579548 96.580002,31.519020 
z"/>
<path fill="#FDFEFC" opacity="1.000000" stroke="none" 
	d="
M0.999999,102.000000 
	C1.000000,79.312439 1.000000,56.624878 1.350698,33.469658 
	C2.807554,33.317684 3.913712,33.633366 5.321595,34.119278 
	C7.748349,37.193008 9.873377,40.096504 12.041588,43.320793 
	C12.726873,44.083561 13.368977,44.525528 14.351076,45.009533 
	C16.474028,46.370476 18.256983,47.689388 20.135590,49.223858 
	C20.422380,49.710495 20.680536,49.878838 21.308369,50.107872 
	C26.742054,55.519184 31.873083,60.767075 36.786549,66.117737 
	C36.295078,66.415924 36.119755,66.677444 35.913673,67.298599 
	C35.882526,68.777893 35.980724,69.963646 35.975334,71.432312 
	C34.979862,72.508118 34.087975,73.301033 32.861389,73.960297 
	C28.090584,72.369820 27.010521,76.782364 24.436882,78.535545 
	C22.635056,79.762970 21.124506,81.417984 18.727240,83.557213 
	C18.311111,84.489716 17.703123,86.809517 16.376820,88.596039 
	C14.469908,91.164650 12.218694,93.553749 9.786051,95.635780 
	C7.047643,97.979507 3.944491,99.897064 0.999999,102.000000 
z"/>
<path fill="#DBFBFD" opacity="1.000000" stroke="none" 
	d="
M1.000000,25.428463 
	C27.230818,25.005156 53.462494,25.114153 79.691467,24.896961 
	C83.377853,24.866438 85.543655,26.508484 87.655968,28.815409 
	C90.803253,32.252663 93.793396,35.834091 96.953979,39.258583 
	C97.428734,39.772968 98.465683,39.768475 99.769577,40.357143 
	C100.529137,42.474003 100.761696,44.237732 100.681435,45.884827 
	C95.057060,40.488220 89.913582,35.020397 84.339981,30.033289 
	C82.467018,28.357414 79.507965,27.049372 77.031357,27.025555 
	C53.394451,26.798254 29.754539,26.877012 6.115514,26.895376 
	C4.892008,26.896326 3.668695,27.146835 2.056511,27.323841 
	C3.457078,29.211201 4.521689,30.645836 5.470854,32.101814 
	C5.355407,32.123161 5.126190,32.174095 4.773768,32.097927 
	C3.280898,31.681173 2.140449,31.340588 1.000000,31.000000 
	C1.000000,29.285643 1.000000,27.571283 1.000000,25.428463 
z"/>
<path fill="#FBFDFA" opacity="1.000000" stroke="none" 
	d="
M100.994255,46.001457 
	C100.761696,44.237732 100.529137,42.474003 100.139771,40.361908 
	C104.557785,37.106472 111.504898,39.684425 112.701347,45.571030 
	C113.663620,50.305477 117.091148,52.164631 120.331139,53.666405 
	C123.138954,54.967857 122.940071,56.241673 122.789558,58.502377 
	C122.714828,59.624748 123.718605,60.818935 124.617233,61.990318 
	C125.000000,64.041664 125.000000,66.083336 125.000000,68.562500 
	C124.534737,69.002075 124.069473,69.004150 122.994911,68.755508 
	C121.409386,65.430992 121.619553,61.506893 117.007149,60.651138 
	C114.098267,55.559074 111.058266,51.016613 104.995499,50.006584 
	C105.000000,50.000153 104.988777,50.010162 104.900543,49.777233 
	C104.616562,49.251541 104.345734,49.072010 103.999771,49.003067 
	C103.999695,49.000431 103.994385,48.999950 103.904831,48.767738 
	C103.618080,48.243698 103.346191,48.066330 102.999809,48.001785 
	C103.000000,48.000153 102.996582,48.000397 102.906281,47.768394 
	C102.618660,47.244568 102.346672,47.067257 101.999855,47.002380 
	C101.999695,47.000305 101.995560,47.000038 101.905167,46.768097 
	C101.617210,46.244453 101.345016,46.067543 100.999039,46.002800 
	C100.999893,46.000175 100.994255,46.001457 100.994255,46.001457 
z"/>
<path fill="#CDE9EF" opacity="1.000000" stroke="none" 
	d="
M0.999999,102.399994 
	C3.944491,99.897064 7.047643,97.979507 9.786051,95.635780 
	C12.218694,93.553749 14.469908,91.164650 16.376820,88.596039 
	C17.703123,86.809517 18.311111,84.489716 18.727240,83.557213 
	C21.124506,81.417984 22.635056,79.762970 24.436882,78.535545 
	C27.010521,76.782364 28.090584,72.369820 32.733505,74.275322 
	C23.254524,84.695282 13.568734,94.666580 3.602098,104.784973 
	C2.801672,105.277267 2.282092,105.622467 1.575409,106.058899 
	C1.388307,106.150139 1.000000,106.000000 1.000000,106.000000 
	C1.000000,104.933327 1.000000,103.866661 0.999999,102.399994 
z"/>
<path fill="#E3FDF9" opacity="1.000000" stroke="none" 
	d="
M1.000000,31.333332 
	C2.140449,31.340588 3.280898,31.681173 4.734790,32.295013 
	C5.048233,32.568272 5.016149,32.971909 5.016017,33.216198 
	C5.015885,33.460487 5.019870,33.949047 5.019870,33.949047 
	C3.913712,33.633366 2.807554,33.317684 1.350698,33.000999 
	C1.000000,32.555557 1.000000,32.111111 1.000000,31.333332 
z"/>
<path fill="#FEFFFE" opacity="1.000000" stroke="none" 
	d="
M1.000000,106.333328 
	C1.000000,106.000000 1.388307,106.150139 1.530688,106.465256 
	C1.768033,107.035866 1.862997,107.291344 1.915673,107.661194 
	C1.873384,107.775566 2.016431,107.973083 2.016431,107.973083 
	C2.016431,107.973083 1.993765,107.999054 1.739030,107.958092 
	C1.484295,107.917130 1.000000,108.000000 1.000000,108.000000 
	C1.000000,107.555557 1.000000,107.111107 1.000000,106.333328 
z"/>
<path fill="#CDE9EF" opacity="1.000000" stroke="none" 
	d="
M1.000000,108.250000 
	C1.000000,108.000000 1.484295,107.917130 1.724629,107.967560 
	C1.860353,108.327385 1.680562,108.584129 1.212794,108.894112 
	C1.000000,109.000000 1.000000,108.500000 1.000000,108.250000 
z"/>
<path fill="#CDE9EF" opacity="1.000000" stroke="none" 
	d="
M117.025528,61.025970 
	C121.619553,61.506893 121.409386,65.430992 122.645966,68.758591 
	C122.168686,69.647575 120.834457,70.243172 120.789253,70.924316 
	C120.471870,75.706116 116.328270,76.407089 112.823624,78.762352 
	C110.210617,81.469185 108.071548,83.715858 105.932480,85.962524 
	C105.615326,86.057434 105.359573,86.238869 104.769798,86.879272 
	C102.901680,89.132950 101.428986,91.014175 99.956284,92.895416 
	C99.055077,93.385826 98.153870,93.876236 96.795830,94.802277 
	C95.231667,95.495407 94.124329,95.752907 93.132713,95.695969 
	C102.294052,86.003700 111.339676,76.625870 120.398758,67.234085 
	C119.247993,65.516434 118.342934,64.165527 117.512527,62.678452 
	C117.513870,62.210323 117.287910,62.043686 116.949341,62.028778 
	C116.989395,62.015190 116.940331,62.084114 116.965851,61.819916 
	C117.002762,61.379135 117.014145,61.202553 117.025528,61.025970 
z"/>
<path fill="#CDE9EF" opacity="1.000000" stroke="none" 
	d="
M2.481603,108.029861 
	C2.016431,107.973083 1.873384,107.775566 2.374603,107.547890 
	C27.146160,107.295906 51.416595,107.294922 75.686623,107.195305 
	C77.320648,107.188606 78.951630,106.437126 80.910919,106.158981 
	C84.500565,103.539139 87.763313,100.792366 91.027008,98.391479 
	C90.677460,99.817574 90.326965,100.897774 89.976471,101.977974 
	C89.976471,101.977974 90.000000,102.000000 89.685547,102.129471 
	C87.564110,104.474457 85.757141,106.689972 83.950165,108.905495 
	C56.949036,108.632538 29.947905,108.359589 2.481603,108.029861 
z"/>
<path fill="#FAFDF4" opacity="1.000000" stroke="none" 
	d="
M84.198944,109.204315 
	C85.757141,106.689972 87.564110,104.474457 89.674583,102.117783 
	C90.030586,110.207924 90.030586,110.207924 84.198944,109.204315 
z"/>
<path fill="#FAFDF4" opacity="1.000000" stroke="none" 
	d="
M100.102531,93.203186 
	C101.428986,91.014175 102.901680,89.132950 104.665070,87.093643 
	C104.462593,89.282379 104.029846,91.647354 103.341904,93.935600 
	C103.295471,94.090057 101.324608,93.665970 100.102531,93.203186 
z"/>
<path fill="#FAFDF4" opacity="1.000000" stroke="none" 
	d="
M90.347237,101.982605 
	C90.326965,100.897774 90.677460,99.817574 91.024628,98.374008 
	C91.021309,98.010635 91.046318,98.026489 91.362968,97.986290 
	C92.123062,97.303360 92.566513,96.660637 93.004898,96.010757 
	C92.999847,96.003609 93.016991,96.010406 93.016991,96.010406 
	C94.124329,95.752907 95.231667,95.495407 96.652290,95.088562 
	C96.898270,99.074905 94.293686,100.961479 90.347237,101.982605 
z"/>
<path fill="#FAFDF4" opacity="1.000000" stroke="none" 
	d="
M106.307610,85.972572 
	C108.071548,83.715858 110.210617,81.469185 112.652649,79.072647 
	C112.901123,83.085510 110.291061,84.977554 106.307610,85.972572 
z"/>
<path fill="#DBFBFD" opacity="1.000000" stroke="none" 
	d="
M95.465553,33.448296 
	C95.520302,33.415462 95.410805,33.481133 95.465553,33.448296 
z"/>
<path fill="#DBFBFD" opacity="1.000000" stroke="none" 
	d="
M96.528770,31.549284 
	C96.477539,31.579548 96.580002,31.519020 96.528770,31.549284 
z"/>
<path fill="#0C2A61" opacity="1.000000" stroke="none" 
	d="
M3.882941,104.637878 
	C13.568734,94.666580 23.254524,84.695282 33.068203,74.408966 
	C34.087975,73.301033 34.979862,72.508118 36.275711,71.308266 
	C38.090343,69.587532 39.501007,68.273750 41.178154,67.165207 
	C42.927387,68.921661 44.389217,70.493515 45.896206,72.020798 
	C57.021500,83.295921 68.155792,94.562164 78.800308,105.886261 
	C54.996834,105.963356 31.680233,106.010620 8.363922,105.948502 
	C6.869107,105.944519 5.376547,105.094391 3.882941,104.637878 
z"/>
<path fill="#DBFBFD" opacity="1.000000" stroke="none" 
	d="
M40.911671,66.959961 
	C39.501007,68.273750 38.090343,69.587532 36.379303,71.025360 
	C35.980724,69.963646 35.882526,68.777893 36.124245,67.188515 
	C36.726658,66.586136 36.906639,66.329491 37.004112,66.014961 
	C31.873083,60.767075 26.742054,55.519184 21.200659,49.902699 
	C20.597956,49.276398 20.347836,49.101131 20.039936,49.008301 
	C18.256983,47.689388 16.474028,46.370476 14.305172,44.692509 
	C13.278983,43.888966 12.638694,43.444485 11.998405,43.000000 
	C9.873377,40.096504 7.748349,37.193008 5.321596,34.119278 
	C5.019870,33.949047 5.015885,33.460487 5.333503,33.202301 
	C5.862979,32.936012 6.074837,32.927910 6.602757,33.001045 
	C18.249769,44.374844 29.580719,55.667404 40.911671,66.959961 
z"/>
<path fill="#E3FDF9" opacity="1.000000" stroke="none" 
	d="
M12.041588,43.320793 
	C12.638694,43.444485 13.278983,43.888966 13.965176,44.650475 
	C13.368977,44.525528 12.726873,44.083561 12.041588,43.320793 
z"/>
<path fill="#E4FBF9" opacity="1.000000" stroke="none" 
	d="
M36.786549,66.117737 
	C36.906639,66.329491 36.726658,66.586136 36.253590,66.894974 
	C36.119755,66.677444 36.295078,66.415924 36.786549,66.117737 
z"/>
<path fill="#E4FBF9" opacity="1.000000" stroke="none" 
	d="
M20.135588,49.223862 
	C20.347836,49.101131 20.597956,49.276398 20.898003,49.739273 
	C20.680536,49.878838 20.422380,49.710495 20.135588,49.223862 
z"/>
<path fill="#2EB7F8" opacity="1.000000" stroke="none" 
	d="
M41.178154,67.165207 
	C29.580719,55.667404 18.249769,44.374844 6.465777,32.759281 
	C5.870590,32.317680 5.728446,32.199078 5.586300,32.080471 
	C4.521689,30.645836 3.457078,29.211201 2.056511,27.323841 
	C3.668695,27.146835 4.892008,26.896326 6.115514,26.895376 
	C29.754539,26.877012 53.394451,26.798254 77.031357,27.025555 
	C79.507965,27.049372 82.467018,28.357414 84.339981,30.033289 
	C89.913582,35.020397 95.057060,40.488220 100.681435,45.884827 
	C100.994255,46.001457 100.999893,46.000175 101.071243,46.248081 
	C101.426918,46.664005 101.711243,46.832024 101.995560,47.000038 
	C101.995560,47.000038 101.999695,47.000305 102.072151,47.247639 
	C102.428596,47.663445 102.712593,47.831921 102.996582,48.000397 
	C102.996582,48.000397 103.000000,48.000153 103.072159,48.246040 
	C103.427681,48.661266 103.711029,48.830608 103.994385,48.999950 
	C103.994385,48.999950 103.999695,49.000431 104.067902,49.250267 
	C104.420334,49.670120 104.704552,49.840141 104.988777,50.010162 
	C104.988777,50.010162 105.000000,50.000153 105.108978,50.320801 
	C109.125420,54.455673 113.032875,58.269890 116.940331,62.084114 
	C116.940331,62.084114 116.989395,62.015190 117.034882,62.253792 
	C117.080368,62.492390 117.437874,62.814625 117.437874,62.814621 
	C118.342934,64.165527 119.247993,65.516434 120.398758,67.234085 
	C111.339676,76.625870 102.294052,86.003700 93.132713,95.695969 
	C93.016991,96.010406 92.999847,96.003609 92.701202,96.067711 
	C91.950485,96.763374 91.498398,97.394928 91.046318,98.026489 
	C91.046318,98.026489 91.021309,98.010635 91.023682,98.028114 
	C87.763313,100.792366 84.500565,103.539139 80.584625,106.121902 
	C79.716705,105.915649 79.501976,105.873421 79.287254,105.831200 
	C68.155792,94.562164 57.021500,83.295921 45.896206,72.020798 
	C44.389217,70.493515 42.927387,68.921661 41.178154,67.165207 
z"/>
<path fill="#FDFEFC" opacity="1.000000" stroke="none" 
	d="
M5.470854,32.101814 
	C5.728446,32.199078 5.870590,32.317680 6.149714,32.678040 
	C6.074837,32.927910 5.862979,32.936012 5.333635,32.958015 
	C5.016149,32.971909 5.048233,32.568272 5.087212,32.371185 
	C5.126190,32.174095 5.355407,32.123161 5.470854,32.101814 
z"/>
<path fill="#DBFBFD" opacity="1.000000" stroke="none" 
	d="
M116.965851,61.819916 
	C113.032875,58.269890 109.125420,54.455673 105.104477,50.327236 
	C111.058266,51.016613 114.098267,55.559074 117.007149,60.651138 
	C117.014145,61.202553 117.002762,61.379135 116.965851,61.819916 
z"/>
<path fill="#DBFBFD" opacity="1.000000" stroke="none" 
	d="
M104.900543,49.777233 
	C104.704552,49.840141 104.420334,49.670120 104.067978,49.252899 
	C104.345734,49.072010 104.616562,49.251541 104.900543,49.777233 
z"/>
<path fill="#DBFBFD" opacity="1.000000" stroke="none" 
	d="
M103.904831,48.767738 
	C103.711029,48.830608 103.427681,48.661266 103.071976,48.247669 
	C103.346191,48.066330 103.618080,48.243698 103.904831,48.767738 
z"/>
<path fill="#DBFBFD" opacity="1.000000" stroke="none" 
	d="
M102.906281,47.768394 
	C102.712593,47.831921 102.428596,47.663445 102.072311,47.249710 
	C102.346672,47.067257 102.618660,47.244568 102.906281,47.768394 
z"/>
<path fill="#DBFBFD" opacity="1.000000" stroke="none" 
	d="
M101.905167,46.768097 
	C101.711243,46.832024 101.426918,46.664005 101.070396,46.250710 
	C101.345016,46.067543 101.617210,46.244453 101.905167,46.768097 
z"/>
<path fill="#081E41" opacity="1.000000" stroke="none" 
	d="
M78.800308,105.886261 
	C79.501976,105.873421 79.716705,105.915649 80.257736,105.994965 
	C78.951630,106.437126 77.320648,107.188606 75.686623,107.195305 
	C51.416595,107.294922 27.146160,107.295906 2.416892,107.433517 
	C1.862997,107.291344 1.768033,107.035866 1.717790,106.374023 
	C2.282092,105.622467 2.801672,105.277267 3.602096,104.784973 
	C5.376547,105.094391 6.869107,105.944519 8.363922,105.948502 
	C31.680233,106.010620 54.996834,105.963356 78.800308,105.886261 
z"/>
<path fill="#DBFBFD" opacity="1.000000" stroke="none" 
	d="
M117.512527,62.678455 
	C117.437874,62.814625 117.080368,62.492390 116.994827,62.267380 
	C117.287910,62.043686 117.513870,62.210323 117.512527,62.678455 
z"/>
<path fill="#CDE9EF" opacity="1.000000" stroke="none" 
	d="
M91.362968,97.986290 
	C91.498398,97.394928 91.950485,96.763374 92.706261,96.074860 
	C92.566513,96.660637 92.123062,97.303360 91.362968,97.986290 
z"/>
</svg>