<svg version="1.1" id="Layer_1" xmlns="http://www.w3.org/2000/svg" xmlns:xlink="http://www.w3.org/1999/xlink" x="0px" y="0px"
	 width="100%" viewBox="0 0 1400 1400" enable-background="new 0 0 1400 1400" xml:space="preserve">
<path fill="#FEFFFF" opacity="1.000000" stroke="none" 
	d="
M1401.000000,534.000000 
	C1401.000000,823.307556 1401.000000,1112.115112 1401.000000,1400.922729 
	C1400.859131,1400.948486 1400.718140,1400.996826 1400.577271,1400.996826 
	C934.118835,1401.000000 467.660400,1401.000000 1.000000,1401.000000 
	C1.000000,1167.754761 1.000000,934.509583 1.000000,701.264343 
	C1.000000,467.951813 1.000000,234.639267 1.000000,1.163359 
	C467.666626,1.163359 934.333313,1.163359 1401.000000,1.163359 
	C1401.000000,178.532318 1401.000000,356.016174 1401.000000,534.000000 
M927.412170,1295.910889 
	C970.849915,1279.587158 1012.067688,1258.872192 1050.916016,1233.470825 
	C1141.374390,1174.323975 1212.592163,1097.338379 1264.055786,1002.330078 
	C1309.940186,917.622253 1334.793579,826.963379 1339.297241,730.694946 
	C1342.244263,667.698303 1336.109741,605.625488 1320.511230,544.560486 
	C1295.882202,448.142151 1251.059326,362.106445 1185.901611,286.901001 
	C1107.409058,196.304520 1010.935547,132.661469 896.751282,96.028656 
	C853.684021,82.211746 809.541870,73.531792 764.540588,69.199387 
	C756.387085,68.414436 748.195129,68.028976 739.224365,67.403549 
	C741.057800,71.904907 742.503784,75.405289 743.912292,78.920677 
	C761.721497,123.368179 777.151184,168.625824 789.896118,214.782700 
	C790.876709,218.333878 792.323730,219.805008 796.047913,220.421082 
	C804.229919,221.774612 812.338379,223.665283 820.396851,225.660049 
	C919.384949,250.163254 1003.140442,300.267487 1070.880737,376.432068 
	C1142.386108,456.829987 1182.772461,551.058594 1192.714722,658.156677 
	C1196.877930,703.001404 1194.524170,747.645752 1186.109497,791.951843 
	C1169.223389,880.865051 1130.923584,959.453064 1070.461060,1026.611816 
	C988.154480,1118.033936 885.573669,1171.704834 763.328430,1187.158325 
	C711.671021,1193.688477 660.255737,1191.558594 609.209045,1181.486572 
	C543.086548,1168.440063 482.232208,1142.719971 426.753418,1104.458008 
	C414.612366,1096.084595 403.004547,1086.938110 390.265869,1077.491089 
	C393.046112,1076.872070 394.447174,1076.486206 395.873199,1076.253418 
	C434.692627,1069.916748 473.745087,1065.790161 513.035339,1063.918457 
	C521.335327,1063.523193 530.443604,1065.059326 537.703613,1062.093140 
	C544.982910,1059.119141 550.501709,1051.721436 556.646545,1046.103394 
	C619.576782,988.569031 671.283142,922.404053 709.810791,846.192444 
	C752.391968,761.962769 775.390259,672.328613 782.807068,578.516418 
	C786.716003,529.073914 786.101257,479.606384 781.775574,430.215057 
	C777.124207,377.104492 768.413513,324.624603 755.939758,272.793701 
	C735.545044,188.049728 707.404175,106.032822 669.072266,27.636271 
	C668.322693,26.103254 667.513733,24.599287 666.341187,22.321634 
	C665.801697,24.833851 665.435791,26.288387 665.180420,27.762070 
	C658.141052,68.383705 651.568787,109.092636 643.981873,149.611618 
	C630.829468,219.853195 614.201355,289.310913 594.914551,358.118103 
	C566.086487,460.964478 530.854736,561.527466 486.987122,658.984619 
	C450.115509,740.899475 407.645477,819.723999 356.690887,893.809937 
	C341.790741,915.474304 326.124451,936.610474 310.948486,958.087097 
	C306.873199,963.854309 303.309631,969.983154 299.305237,976.269226 
	C298.254211,974.830078 297.440399,973.802917 296.718445,972.714844 
	C246.427567,896.918945 219.061813,813.624146 214.935806,722.722229 
	C212.677170,672.960876 217.884995,623.994507 230.683945,575.860840 
	C251.025467,499.361206 287.761139,431.684631 340.952545,373.107300 
	C404.993195,302.582245 483.092743,254.640167 574.885132,229.116821 
	C578.123657,228.216309 579.388184,226.683945 580.017944,223.611053 
	C587.557983,186.817780 595.293762,150.064377 602.747742,113.253860 
	C605.371521,100.296898 607.365234,87.212349 609.783264,73.405846 
	C602.485229,74.665138 595.967590,75.748062 589.465637,76.918228 
	C530.695923,87.495094 474.537048,106.057228 421.228882,132.911560 
	C303.013947,192.463043 211.540833,280.117706 147.295197,395.837677 
	C103.757584,474.258179 78.732681,558.484314 71.174904,647.828979 
	C66.489853,703.213501 69.075974,758.306885 78.841217,813.071045 
	C91.448669,883.774353 115.284241,950.434448 150.743225,1012.857056 
	C206.048584,1110.217407 281.671631,1187.984619 377.633240,1245.656006 
	C474.422699,1303.825195 579.579956,1333.481567 692.413147,1335.933716 
	C730.130981,1336.753540 767.631287,1334.036377 804.909912,1328.115601 
	C846.567444,1321.499512 887.160950,1310.915771 927.412170,1295.910889 
M980.068359,561.391724 
	C935.137512,470.065063 877.082275,387.894745 807.419556,313.678375 
	C844.856750,456.772949 847.290527,599.427246 801.731567,741.042786 
	C756.372681,882.036072 675.121643,999.215759 562.324036,1094.863770 
	C593.189392,1089.735596 623.976257,1084.397461 654.840698,1079.553589 
	C687.374756,1074.447754 719.957031,1069.630127 752.566223,1065.026855 
	C783.869568,1060.607910 815.211243,1056.439697 846.579346,1052.506714 
	C873.830933,1049.090210 901.128845,1046.026611 928.432556,1043.048218 
	C952.763977,1040.394043 977.128967,1038.045288 1001.486389,1035.635376 
	C1004.160034,1035.370850 1005.867920,1034.617798 1007.143372,1031.883179 
	C1029.056030,984.901306 1042.697632,935.637573 1047.863403,884.077209 
	C1052.560059,837.198181 1050.091064,790.564026 1041.723755,744.262390 
	C1030.209351,680.546448 1008.746521,620.137634 980.068359,561.391724 
z"/>
<path fill="#032069" opacity="1.000000" stroke="none" 
	d="
M927.034302,1296.012695 
	C887.160950,1310.915771 846.567444,1321.499512 804.909912,1328.115601 
	C767.631287,1334.036377 730.130981,1336.753540 692.413147,1335.933716 
	C579.579956,1333.481567 474.422699,1303.825195 377.633240,1245.656006 
	C281.671631,1187.984619 206.048584,1110.217407 150.743225,1012.857056 
	C115.284241,950.434448 91.448669,883.774353 78.841217,813.071045 
	C69.075974,758.306885 66.489853,703.213501 71.174904,647.828979 
	C78.732681,558.484314 103.757584,474.258179 147.295197,395.837677 
	C211.540833,280.117706 303.013947,192.463043 421.228882,132.911560 
	C474.537048,106.057228 530.695923,87.495094 589.465637,76.918228 
	C595.967590,75.748062 602.485229,74.665138 609.783264,73.405846 
	C607.365234,87.212349 605.371521,100.296898 602.747742,113.253860 
	C595.293762,150.064377 587.557983,186.817780 580.017944,223.611053 
	C579.388184,226.683945 578.123657,228.216309 574.885132,229.116821 
	C483.092743,254.640167 404.993195,302.582245 340.952545,373.107300 
	C287.761139,431.684631 251.025467,499.361206 230.683945,575.860840 
	C217.884995,623.994507 212.677170,672.960876 214.935806,722.722229 
	C219.061813,813.624146 246.427567,896.918945 296.718445,972.714844 
	C297.440399,973.802917 298.254211,974.830078 299.305237,976.269226 
	C303.309631,969.983154 306.873199,963.854309 310.948486,958.087097 
	C326.124451,936.610474 341.790741,915.474304 356.690887,893.809937 
	C407.645477,819.723999 450.115509,740.899475 486.987122,658.984619 
	C530.854736,561.527466 566.086487,460.964478 594.914551,358.118103 
	C614.201355,289.310913 630.829468,219.853195 643.981873,149.611618 
	C651.568787,109.092636 658.141052,68.383705 665.180420,27.762070 
	C665.435791,26.288387 665.801697,24.833851 666.341187,22.321634 
	C667.513733,24.599287 668.322693,26.103254 669.072266,27.636271 
	C707.404175,106.032822 735.545044,188.049728 755.939758,272.793701 
	C768.413513,324.624603 777.124207,377.104492 781.775574,430.215057 
	C786.101257,479.606384 786.716003,529.073914 782.807068,578.516418 
	C775.390259,672.328613 752.391968,761.962769 709.810791,846.192444 
	C671.283142,922.404053 619.576782,988.569031 556.646545,1046.103394 
	C550.501709,1051.721436 544.982910,1059.119141 537.703613,1062.093140 
	C530.443604,1065.059326 521.335327,1063.523193 513.035339,1063.918457 
	C473.745087,1065.790161 434.692627,1069.916748 395.873199,1076.253418 
	C394.447174,1076.486206 393.046112,1076.872070 390.265869,1077.491089 
	C403.004547,1086.938110 414.612366,1096.084595 426.753418,1104.458008 
	C482.232208,1142.719971 543.086548,1168.440063 609.209045,1181.486572 
	C660.255737,1191.558594 711.671021,1193.688477 763.328430,1187.158325 
	C885.573669,1171.704834 988.154480,1118.033936 1070.461060,1026.611816 
	C1130.923584,959.453064 1169.223389,880.865051 1186.109497,791.951843 
	C1194.524170,747.645752 1196.877930,703.001404 1192.714722,658.156677 
	C1182.772461,551.058594 1142.386108,456.829987 1070.880737,376.432068 
	C1003.140442,300.267487 919.384949,250.163254 820.396851,225.660049 
	C812.338379,223.665283 804.229919,221.774612 796.047913,220.421082 
	C792.323730,219.805008 790.876709,218.333878 789.896118,214.782700 
	C777.151184,168.625824 761.721497,123.368179 743.912292,78.920677 
	C742.503784,75.405289 741.057800,71.904907 739.224365,67.403549 
	C748.195129,68.028976 756.387085,68.414436 764.540588,69.199387 
	C809.541870,73.531792 853.684021,82.211746 896.751282,96.028656 
	C1010.935547,132.661469 1107.409058,196.304520 1185.901611,286.901001 
	C1251.059326,362.106445 1295.882202,448.142151 1320.511230,544.560486 
	C1336.109741,605.625488 1342.244263,667.698303 1339.297241,730.694946 
	C1334.793579,826.963379 1309.940186,917.622253 1264.055786,1002.330078 
	C1212.592163,1097.338379 1141.374390,1174.323975 1050.916016,1233.470825 
	C1012.067688,1258.872192 970.849915,1279.587158 927.034302,1296.012695 
z"/>
<path fill="#032069" opacity="1.000000" stroke="none" 
	d="
M980.214722,561.736877 
	C1008.746521,620.137634 1030.209351,680.546448 1041.723755,744.262390 
	C1050.091064,790.564026 1052.560059,837.198181 1047.863403,884.077209 
	C1042.697632,935.637573 1029.056030,984.901306 1007.143372,1031.883179 
	C1005.867920,1034.617798 1004.160034,1035.370850 1001.486389,1035.635376 
	C977.128967,1038.045288 952.763977,1040.394043 928.432556,1043.048218 
	C901.128845,1046.026611 873.830933,1049.090210 846.579346,1052.506714 
	C815.211243,1056.439697 783.869568,1060.607910 752.566223,1065.026855 
	C719.957031,1069.630127 687.374756,1074.447754 654.840698,1079.553589 
	C623.976257,1084.397461 593.189392,1089.735596 562.324036,1094.863770 
	C675.121643,999.215759 756.372681,882.036072 801.731567,741.042786 
	C847.290527,599.427246 844.856750,456.772949 807.419556,313.678375 
	C877.082275,387.894745 935.137512,470.065063 980.214722,561.736877 
z"/>
</svg>