<svg version="1.1" id="Layer_1" xmlns="http://www.w3.org/2000/svg" xmlns:xlink="http://www.w3.org/1999/xlink" x="0px" y="0px"
	 width="100%" viewBox="0 0 200 200" enable-background="new 0 0 200 200" xml:space="preserve">
<path fill="#0C466F" opacity="1.000000" stroke="none" 
	d="
M201.000000,197.000000 
	C200.914551,199.019363 201.970367,201.894745 197.164154,200.757248 
	C194.190903,200.341492 192.053329,200.018295 189.915604,200.017349 
	C130.336441,199.991150 70.757263,200.005157 11.178090,199.991455 
	C0.780277,199.989075 2.134645,200.907776 1.983511,190.530777 
	C1.991028,129.579254 1.993389,69.096344 2.001044,8.613437 
	C2.001879,2.010552 2.016022,1.996441 8.602921,1.996210 
	C70.252220,1.994050 131.901657,2.050083 193.550583,1.898089 
	C198.483582,1.885926 200.158112,3.060643 200.116394,8.264457 
	C199.874649,38.420704 199.976120,68.579895 200.037811,98.737938 
	C200.042084,100.825935 200.664856,102.912674 201.000000,105.000000 
	C201.000000,106.066788 201.000000,107.133575 200.755417,108.934822 
	C200.340500,110.639221 200.022415,111.609016 200.021393,112.579132 
	C199.993347,139.304184 199.982239,166.029297 200.039154,192.754257 
	C200.042175,194.170181 200.665466,195.584778 201.000000,197.000000 
M62.194828,20.428879 
	C60.835598,22.519415 59.317642,24.524691 58.141788,26.713728 
	C46.904278,47.634182 44.442581,77.348358 66.645271,102.922150 
	C73.629768,110.967117 80.655640,118.978531 87.501053,127.140762 
	C90.378929,130.572266 93.105042,134.191681 95.439507,138.007492 
	C104.074326,152.121506 101.211235,165.090683 87.124657,174.002731 
	C81.019928,177.864960 74.246094,180.669571 67.521629,184.083817 
	C89.425568,184.083817 111.081444,183.961914 132.733643,184.189590 
	C136.922562,184.233612 139.445908,182.776871 141.726700,179.492767 
	C154.301834,161.386047 157.227051,129.833969 143.332657,110.037498 
	C137.136978,101.210022 129.885590,93.129852 123.275734,84.584900 
	C116.941856,76.396713 110.014389,68.516548 104.817375,59.640553 
	C99.055817,49.800373 101.435493,39.739559 110.079956,32.226383 
	C114.168823,28.672625 118.980705,25.860800 123.733368,23.190474 
	C127.246216,21.216747 131.193069,20.015461 135.482986,18.249180 
	C134.386673,18.062176 133.928619,17.915773 133.470535,17.915709 
	C111.312561,17.912594 89.154373,17.886322 66.997086,18.013969 
	C65.581108,18.022127 64.172058,19.233881 62.194828,20.428879 
z"/>
<path fill="#164260" opacity="1.000000" stroke="none" 
	d="
M201.000000,104.531342 
	C200.664856,102.912674 200.042084,100.825935 200.037811,98.737938 
	C199.976120,68.579895 199.874649,38.420704 200.116394,8.264457 
	C200.158112,3.060643 198.483582,1.885926 193.550583,1.898089 
	C131.901657,2.050083 70.252220,1.994050 8.602921,1.996210 
	C2.016022,1.996441 2.001879,2.010552 2.001044,8.613437 
	C1.993389,69.096344 1.991028,129.579254 1.738656,190.531006 
	C1.490188,190.999863 1.000000,191.000000 1.000000,191.000000 
	C1.000000,127.722778 1.000000,64.445564 1.000000,1.084172 
	C67.551392,1.084172 134.102921,1.084172 201.000000,1.084172 
	C201.000000,35.353455 201.000000,69.708069 201.000000,104.531342 
z"/>
<path fill="#194162" opacity="1.000000" stroke="none" 
	d="
M1.000000,191.486572 
	C1.000000,191.000000 1.490188,190.999863 1.735043,190.999634 
	C2.134645,200.907776 0.780277,199.989075 11.178090,199.991455 
	C70.757263,200.005157 130.336441,199.991150 189.915604,200.017349 
	C192.053329,200.018295 194.190903,200.341492 196.664276,200.757248 
	C131.666656,201.000000 66.333328,201.000000 1.000000,201.000000 
	C1.000000,197.959320 1.000000,194.966232 1.000000,191.486572 
z"/>
<path fill="#164260" opacity="1.000000" stroke="none" 
	d="
M201.000000,196.531342 
	C200.665466,195.584778 200.042175,194.170181 200.039154,192.754257 
	C199.982239,166.029297 199.993347,139.304184 200.021393,112.579132 
	C200.022415,111.609016 200.340500,110.639221 200.755417,109.334641 
	C201.000000,138.020889 201.000000,167.041794 201.000000,196.531342 
z"/>
<path fill="#FCFEFE" opacity="1.000000" stroke="none" 
	d="
M62.477310,20.157299 
	C64.172058,19.233881 65.581108,18.022127 66.997086,18.013969 
	C89.154373,17.886322 111.312561,17.912594 133.470535,17.915709 
	C133.928619,17.915773 134.386673,18.062176 135.482986,18.249180 
	C131.193069,20.015461 127.246216,21.216747 123.733368,23.190474 
	C118.980705,25.860800 114.168823,28.672625 110.079956,32.226383 
	C101.435493,39.739559 99.055817,49.800373 104.817375,59.640553 
	C110.014389,68.516548 116.941856,76.396713 123.275734,84.584900 
	C129.885590,93.129852 137.136978,101.210022 143.332657,110.037498 
	C157.227051,129.833969 154.301834,161.386047 141.726700,179.492767 
	C139.445908,182.776871 136.922562,184.233612 132.733643,184.189590 
	C111.081444,183.961914 89.425568,184.083817 67.521629,184.083817 
	C74.246094,180.669571 81.019928,177.864960 87.124657,174.002731 
	C101.211235,165.090683 104.074326,152.121506 95.439507,138.007492 
	C93.105042,134.191681 90.378929,130.572266 87.501053,127.140762 
	C80.655640,118.978531 73.629768,110.967117 66.645271,102.922150 
	C44.442581,77.348358 46.904278,47.634182 58.141788,26.713728 
	C59.317642,24.524691 60.835598,22.519415 62.477310,20.157299 
z"/>
</svg>