<svg version="1.1" id="Layer_1" xmlns="http://www.w3.org/2000/svg" xmlns:xlink="http://www.w3.org/1999/xlink" x="0px" y="0px"
	 width="100%" viewBox="0 0 256 256" enable-background="new 0 0 256 256" xml:space="preserve">
<path fill="#000000" opacity="1.000000" stroke="none" 
	d="
M149.000000,257.000000 
	C99.333336,257.000000 50.166672,257.000000 1.000007,257.000000 
	C1.000004,171.666672 1.000004,86.333351 1.000002,1.000018 
	C86.333321,1.000012 171.666641,1.000012 257.000000,1.000006 
	C257.000000,86.333313 257.000000,171.666626 257.000000,256.999969 
	C221.166672,257.000000 185.333328,257.000000 149.000000,257.000000 
M167.500000,228.956390 
	C186.161209,228.959442 204.824295,228.821701 223.482269,229.068848 
	C227.907410,229.127472 229.068237,227.894165 229.058136,223.477478 
	C228.914032,160.496094 228.916092,97.514160 229.058594,34.532753 
	C229.068558,30.130108 227.911255,28.933262 223.481918,28.943413 
	C160.667114,29.087366 97.851738,29.093159 35.037010,28.933172 
	C30.217352,28.920898 28.927084,30.232779 28.939148,35.042751 
	C29.096285,97.690865 29.095631,160.339661 28.931168,222.987747 
	C28.918470,227.823578 30.235699,229.092484 35.038548,229.072083 
	C78.858406,228.885834 122.679367,228.958588 167.500000,228.956390 
z"/>
<path fill="#0C466F" opacity="1.000000" stroke="none" 
	d="
M167.000000,228.956039 
	C122.679367,228.958588 78.858406,228.885834 35.038548,229.072083 
	C30.235699,229.092484 28.918470,227.823578 28.931168,222.987747 
	C29.095631,160.339661 29.096285,97.690865 28.939148,35.042751 
	C28.927084,30.232779 30.217352,28.920898 35.037010,28.933172 
	C97.851738,29.093159 160.667114,29.087366 223.481918,28.943413 
	C227.911255,28.933262 229.068558,30.130108 229.058594,34.532753 
	C228.916092,97.514160 228.914032,160.496094 229.058136,223.477478 
	C229.068237,227.894165 227.907410,229.127472 223.482269,229.068848 
	C204.824295,228.821701 186.161209,228.959442 167.000000,228.956039 
M163.027374,46.944950 
	C163.027374,46.944950 163.128555,47.005962 163.754089,47.053757 
	C163.928772,46.240417 164.103455,45.427082 164.278152,44.613747 
	C161.166855,44.968334 158.055573,45.322922 154.030273,45.838173 
	C149.034988,45.785946 144.039719,45.733715 138.683395,45.020901 
	C134.440094,45.240704 130.196777,45.460506 125.072029,45.840534 
	C122.383972,45.802444 119.695923,45.764355 116.788124,45.503452 
	C116.457596,45.380135 116.190132,45.466801 115.060570,45.910275 
	C108.895439,45.916515 102.716927,46.168571 96.570351,45.833996 
	C93.053955,45.642590 91.015190,47.074532 89.214203,49.752590 
	C78.165230,66.182381 75.552864,84.199242 79.679596,103.217110 
	C82.519806,116.306068 90.874001,126.419205 99.209503,136.429642 
	C107.189934,146.013672 115.823204,155.158722 122.865799,165.393814 
	C132.710602,179.701370 129.375809,193.181061 114.567390,202.371307 
	C108.629112,206.056656 102.074516,208.748932 95.243652,212.172272 
	C97.603989,212.172272 99.515488,212.174667 101.426987,212.171890 
	C121.421806,212.142914 141.417450,212.012131 161.410690,212.176193 
	C165.028290,212.205872 167.373734,211.068604 169.208145,208.131546 
	C182.329941,187.122208 185.215729,164.928680 173.701889,142.757385 
	C168.046356,131.866959 158.967865,122.758224 151.470718,112.818825 
	C145.079330,104.345390 137.933502,96.307503 132.590790,87.213669 
	C127.104782,77.875931 129.368683,67.635002 137.741104,60.624157 
	C142.990829,56.228191 149.468353,53.298512 156.256042,49.848877 
	C158.491837,48.914017 160.727646,47.979153 163.027374,46.944950 
z"/>
<path fill="#FCFEFE" opacity="1.000000" stroke="none" 
	d="
M139.044434,45.681488 
	C144.039719,45.733715 149.034988,45.785946 154.918793,45.860191 
	C158.247726,46.256794 160.688141,46.631378 163.128555,47.005959 
	C163.128555,47.005962 163.027374,46.944950 162.625229,46.961594 
	C159.947052,47.889141 157.671036,48.800045 155.395004,49.710949 
	C149.468353,53.298512 142.990829,56.228191 137.741104,60.624157 
	C129.368683,67.635002 127.104782,77.875931 132.590790,87.213669 
	C137.933502,96.307503 145.079330,104.345390 151.470718,112.818825 
	C158.967865,122.758224 168.046356,131.866959 173.701889,142.757385 
	C185.215729,164.928680 182.329941,187.122208 169.208145,208.131546 
	C167.373734,211.068604 165.028290,212.205872 161.410690,212.176193 
	C141.417450,212.012131 121.421806,212.142914 101.426987,212.171890 
	C99.515488,212.174667 97.603989,212.172272 95.243652,212.172272 
	C102.074516,208.748932 108.629112,206.056656 114.567390,202.371307 
	C129.375809,193.181061 132.710602,179.701370 122.865799,165.393814 
	C115.823204,155.158722 107.189934,146.013672 99.209503,136.429642 
	C90.874001,126.419205 82.519806,116.306068 79.679596,103.217110 
	C75.552864,84.199242 78.165230,66.182381 89.214203,49.752590 
	C91.015190,47.074532 93.053955,45.642590 96.570351,45.833996 
	C102.716927,46.168571 108.895439,45.916515 115.781921,45.914513 
	C116.671478,45.854591 116.839676,45.790428 117.007866,45.726265 
	C119.695923,45.764355 122.383972,45.802444 125.970192,45.863602 
	C130.927048,45.818275 134.985748,45.749882 139.044434,45.681488 
z"/>
<path fill="#295571" opacity="1.000000" stroke="none" 
	d="
M138.863922,45.351196 
	C134.985748,45.749882 130.927048,45.818275 126.410919,45.783489 
	C130.196777,45.460506 134.440094,45.240704 138.863922,45.351196 
z"/>
<path fill="#295571" opacity="1.000000" stroke="none" 
	d="
M163.441315,47.029858 
	C160.688141,46.631378 158.247726,46.256794 155.375793,45.779858 
	C158.055573,45.322922 161.166855,44.968334 164.278152,44.613747 
	C164.103455,45.427082 163.928772,46.240417 163.441315,47.029858 
z"/>
<path fill="#295571" opacity="1.000000" stroke="none" 
	d="
M155.825531,49.779915 
	C157.671036,48.800045 159.947052,47.889141 162.593262,47.011261 
	C160.727646,47.979153 158.491837,48.914017 155.825531,49.779915 
z"/>
<path fill="#295571" opacity="1.000000" stroke="none" 
	d="
M116.897995,45.614861 
	C116.839676,45.790428 116.671478,45.854591 116.244507,45.841103 
	C116.190132,45.466801 116.457596,45.380135 116.897995,45.614861 
z"/>
</svg>