<svg version="1.1" id="Layer_1" xmlns="http://www.w3.org/2000/svg" xmlns:xlink="http://www.w3.org/1999/xlink" x="0px" y="0px"
	 width="100%" viewBox="0 0 400 400" enable-background="new 0 0 400 400" xml:space="preserve">
<path fill="#FF6200" opacity="1.000000" stroke="none" 
	d="
M190.000000,401.000000 
	C126.686302,401.000000 63.872597,401.000000 1.029448,401.000000 
	C1.029448,267.727966 1.029448,134.455917 1.029448,1.091938 
	C134.230316,1.091938 267.460724,1.091938 400.845581,1.091938 
	C400.845581,134.333191 400.845581,267.666565 400.845581,401.000000 
	C330.789337,401.000000 260.644653,401.000000 190.000000,401.000000 
M274.148163,129.773956 
	C253.593674,134.750824 232.736359,137.552048 210.469604,138.773453 
	C217.508514,132.193054 223.799347,126.312012 230.997314,119.582924 
	C167.902374,120.186699 112.215858,138.833191 60.942867,174.717224 
	C90.662910,178.403137 117.012581,187.961807 139.383759,206.021027 
	C148.273972,213.197662 155.594894,214.178589 166.418884,211.299561 
	C199.665649,202.456314 232.052322,191.587479 262.537811,175.607849 
	C289.261566,161.599991 309.751434,141.682037 319.315338,112.163071 
	C319.713959,110.932762 319.903320,109.634666 320.190186,108.368156 
	C306.751129,119.848633 291.054688,125.133072 274.148163,129.773956 
M183.313950,255.226395 
	C184.844208,257.931305 186.374466,260.636200 187.823914,263.198242 
	C210.180038,251.732407 232.027679,240.149414 254.213547,229.255249 
	C276.357361,218.381760 298.971313,208.535248 323.058105,202.447662 
	C267.634216,200.327744 213.380539,206.675415 160.897415,223.095581 
	C168.331970,233.693619 175.656235,244.134460 183.313950,255.226395 
M198.882172,292.801239 
	C200.597961,301.175507 202.313751,309.549774 204.164368,318.582092 
	C229.660309,292.317749 254.743759,266.478333 279.827209,240.638931 
	C279.611145,240.313416 279.395050,239.987915 279.178986,239.662399 
	C250.720108,251.894562 222.261215,264.126740 193.689682,276.407318 
	C195.443756,281.904449 197.056305,286.957977 198.882172,292.801239 
M239.916260,317.312378 
	C240.787003,317.507812 241.657761,317.703217 243.074799,318.021240 
	C242.707764,315.843231 242.376114,313.875122 241.955475,311.378937 
	C240.493896,313.019318 239.601624,314.020782 238.682800,315.052002 
	C237.263229,313.519379 236.017136,312.174072 234.434814,310.465759 
	C234.434814,313.420776 234.434814,315.741089 234.434814,319.452972 
	C235.628586,317.575043 236.077652,316.868591 236.261154,316.579926 
	C237.372665,316.993713 238.453247,317.396027 239.916260,317.312378 
M230.005859,311.817810 
	C229.459869,311.737549 228.913895,311.657318 228.367889,311.577087 
	C228.418274,311.437683 228.485428,311.173309 228.516602,311.177460 
	C229.058456,311.250061 229.595886,311.355682 230.005859,311.817810 
z"/>
<path fill="#FFFEFE" opacity="1.000000" stroke="none" 
	d="
M274.538727,129.647125 
	C291.054688,125.133072 306.751129,119.848633 320.190186,108.368156 
	C319.903320,109.634666 319.713959,110.932762 319.315338,112.163071 
	C309.751434,141.682037 289.261566,161.599991 262.537811,175.607849 
	C232.052322,191.587479 199.665649,202.456314 166.418884,211.299561 
	C155.594894,214.178589 148.273972,213.197662 139.383759,206.021027 
	C117.012581,187.961807 90.662910,178.403137 60.942867,174.717224 
	C112.215858,138.833191 167.902374,120.186699 230.997314,119.582924 
	C223.799347,126.312012 217.508514,132.193054 210.469604,138.773453 
	C232.736359,137.552048 253.593674,134.750824 274.538727,129.647125 
z"/>
<path fill="#FFFDFC" opacity="1.000000" stroke="none" 
	d="
M183.147217,254.900848 
	C175.656235,244.134460 168.331970,233.693619 160.897415,223.095581 
	C213.380539,206.675415 267.634216,200.327744 323.058105,202.447662 
	C298.971313,208.535248 276.357361,218.381760 254.213547,229.255249 
	C232.027679,240.149414 210.180038,251.732407 187.823914,263.198242 
	C186.374466,260.636200 184.844208,257.931305 183.147217,254.900848 
z"/>
<path fill="#FFFDFB" opacity="1.000000" stroke="none" 
	d="
M198.775513,292.406372 
	C197.056305,286.957977 195.443756,281.904449 193.689682,276.407318 
	C222.261215,264.126740 250.720108,251.894562 279.178986,239.662399 
	C279.395050,239.987915 279.611145,240.313416 279.827209,240.638931 
	C254.743759,266.478333 229.660309,292.317749 204.164368,318.582092 
	C202.313751,309.549774 200.597961,301.175507 198.775513,292.406372 
z"/>
<path fill="#FFBA8F" opacity="1.000000" stroke="none" 
	d="
M239.725037,317.555359 
	C238.453247,317.396027 237.372665,316.993713 236.261154,316.579926 
	C236.077652,316.868591 235.628586,317.575043 234.434814,319.452972 
	C234.434814,315.741089 234.434814,313.420776 234.434814,310.465759 
	C236.017136,312.174072 237.263229,313.519379 238.682800,315.052002 
	C239.601624,314.020782 240.493896,313.019318 241.955475,311.378937 
	C242.376114,313.875122 242.707764,315.843231 243.074799,318.021240 
	C241.657761,317.703217 240.787003,317.507812 239.725037,317.555359 
z"/>
<path fill="#FFBA8F" opacity="1.000000" stroke="none" 
	d="
M230.070068,311.635925 
	C229.595886,311.355682 229.058456,311.250061 228.516602,311.177460 
	C228.485428,311.173309 228.418274,311.437683 228.367889,311.577087 
	C228.913895,311.657318 229.459869,311.737549 230.070068,311.635925 
z"/>
</svg>