<?xml version="1.0" standalone="no"?>
<!DOCTYPE svg PUBLIC "-//W3C//DTD SVG 20010904//EN"
 "http://www.w3.org/TR/2001/REC-SVG-20010904/DTD/svg10.dtd">
<svg version="1.0" xmlns="http://www.w3.org/2000/svg"
 width="380.000000pt" height="256.000000pt" viewBox="0 0 380.000000 256.000000"
 preserveAspectRatio="xMidYMid meet">

<g transform="translate(0.000000,256.000000) scale(0.100000,-0.100000)"
fill="#000000" stroke="none">
<path d="M1880 2368 c-40 -15 -57 -36 -86 -106 -14 -37 -39 -92 -54 -122 -37
-72 -47 -125 -27 -136 13 -8 14 -21 7 -84 -5 -41 -9 -131 -9 -200 l1 -125 38
205 c43 231 72 354 101 420 20 44 46 80 59 80 4 0 19 -23 34 -50 31 -57 73
-214 107 -403 l23 -127 -59 -60 c-69 -70 -66 -77 7 -20 28 23 53 38 56 35 3
-2 8 -22 12 -42 8 -37 8 -37 9 14 l1 52 83 59 c203 146 373 242 431 242 28 0
28 -1 23 -39 -5 -39 -71 -183 -141 -311 l-36 -65 60 64 c158 168 229 341 165
401 -21 20 -31 22 -78 17 -32 -3 -81 -19 -117 -37 -35 -18 -87 -39 -114 -47
-78 -23 -117 -50 -111 -76 5 -18 -4 -30 -42 -59 -26 -20 -61 -50 -77 -67 -17
-17 -33 -31 -36 -31 -4 0 -10 44 -14 98 -13 183 -42 330 -86 427 -15 33 -33
65 -41 72 -27 22 -63 31 -89 21z"/>
<path d="M448 1548 c-73 -19 -117 -94 -102 -176 9 -54 30 -81 77 -103 37 -16
68 -19 259 -19 253 0 248 2 248 -89 0 -42 -5 -62 -17 -72 -12 -11 -77 -15
-281 -19 l-265 -5 0 -40 0 -40 269 0 c239 0 274 2 317 19 68 26 87 60 87 156
0 88 -19 128 -73 153 -29 14 -70 17 -246 17 -252 0 -261 2 -261 70 0 27 6 52
13 59 9 7 102 12 273 13 l259 3 3 43 3 42 -263 -1 c-145 -1 -280 -5 -300 -11z"/>
<path d="M1130 1270 l0 -291 53 3 52 3 3 108 3 107 202 0 c111 0 219 5 239 10
20 6 48 24 62 41 24 28 26 38 26 128 0 107 -9 129 -63 159 -28 15 -68 17 -304
20 l-273 3 0 -291z m526 175 c19 -29 16 -127 -5 -148 -8 -8 -72 -13 -211 -15
l-200 -3 0 95 0 96 200 0 200 0 16 -25z"/>
<path d="M1852 1273 l3 -288 53 -3 52 -3 0 290 0 291 -55 0 -55 0 2 -287z"/>
<path d="M2175 1551 c-98 -24 -105 -44 -105 -287 l0 -196 33 -33 c48 -48 102
-56 371 -53 l229 3 0 40 0 40 -252 5 c-235 5 -254 6 -267 24 -11 15 -14 57
-14 177 0 135 2 160 18 178 16 20 26 21 266 24 l249 2 0 40 0 40 -249 2 c-137
0 -262 -2 -279 -6z"/>
<path d="M2886 1546 c-22 -8 -51 -26 -65 -41 -26 -25 -26 -26 -29 -220 -4
-227 1 -243 76 -278 44 -21 62 -22 292 -22 225 0 248 2 285 20 22 11 50 35 62
54 22 32 23 44 23 210 0 199 -8 230 -70 266 -32 18 -54 20 -285 22 -197 2
-258 0 -289 -11z m518 -92 c13 -13 16 -44 16 -180 0 -221 22 -204 -258 -204
-181 0 -221 3 -240 16 -21 15 -22 21 -22 188 0 120 4 176 12 184 9 9 77 12
244 12 198 0 235 -2 248 -16z"/>
<path d="M1296 889 c-71 -76 -154 -199 -178 -261 -24 -65 -24 -122 2 -148 38
-38 147 -19 247 43 21 13 59 29 85 36 69 19 111 48 105 71 -4 15 14 35 71 85
l77 65 2 -48 c14 -275 76 -518 145 -566 81 -57 167 40 208 237 6 32 22 77 36
100 26 45 32 105 12 112 -10 4 -13 45 -11 168 l2 162 -15 -75 c-9 -41 -29
-146 -45 -232 -46 -247 -100 -408 -135 -408 -34 0 -83 139 -129 365 -19 96
-35 185 -35 197 0 14 25 48 68 92 37 38 54 59 37 47 -16 -12 -49 -35 -72 -52
l-42 -30 -5 23 c-3 13 -7 32 -9 43 -3 11 -5 -3 -6 -32 l-1 -51 -92 -68 c-184
-135 -378 -244 -435 -244 -13 0 -15 8 -11 45 6 51 50 148 131 288 31 53 55 97
53 97 -2 0 -29 -27 -60 -61z"/>
<path d="M2707 883 c-15 -14 -6 -41 18 -57 30 -20 23 -40 -11 -32 -13 4 -24 2
-24 -3 0 -13 35 -20 54 -9 24 13 20 43 -9 62 -28 19 -24 40 6 31 11 -4 19 -2
19 4 0 12 -43 15 -53 4z"/>
<path d="M2792 878 c-21 -21 -15 -75 10 -92 29 -20 34 -20 58 4 22 22 27 69 8
88 -15 15 -61 15 -76 0z m57 -12 c7 -8 11 -27 9 -43 -2 -22 -8 -28 -28 -28
-20 0 -26 6 -28 28 -6 53 20 76 47 43z"/>
<path d="M2900 835 l0 -55 33 1 c23 1 26 3 10 6 -20 4 -23 11 -23 54 0 27 -4
49 -10 49 -5 0 -10 -25 -10 -55z"/>
<path d="M2972 844 c3 -54 28 -78 66 -63 19 7 22 16 22 59 0 64 -18 66 -22 3
-3 -40 -6 -48 -23 -48 -17 0 -20 8 -23 48 -2 26 -8 47 -13 47 -6 0 -9 -20 -7
-46z"/>
<path d="M3093 883 c13 -3 17 -15 17 -54 0 -27 5 -49 10 -49 6 0 10 22 10 49
0 39 4 51 18 54 9 3 -3 5 -28 5 -25 0 -37 -2 -27 -5z"/>
<path d="M3180 835 c0 -30 5 -55 10 -55 6 0 10 25 10 55 0 30 -4 55 -10 55 -5
0 -10 -25 -10 -55z"/>
<path d="M3232 878 c-22 -22 -15 -76 13 -94 23 -15 27 -15 50 0 28 18 35 72
13 94 -15 15 -61 15 -76 0z m56 -7 c8 -5 12 -22 10 -42 -2 -29 -7 -34 -28 -34
-20 0 -26 6 -28 28 -6 51 12 70 46 48z"/>
<path d="M3340 835 c0 -62 17 -75 22 -17 l3 37 23 -37 c13 -21 28 -38 33 -38
5 0 8 26 7 58 l-1 57 -6 -45 -6 -45 -24 43 c-35 59 -51 55 -51 -13z"/>
<path d="M3467 883 c-15 -14 -6 -40 18 -53 30 -16 28 -35 -4 -34 -25 1 -28
-11 -5 -20 20 -8 54 10 54 29 0 7 -12 23 -26 34 -26 20 -24 47 2 37 8 -3 14
-1 14 4 0 11 -43 14 -53 3z"/>
</g>
</svg>
