<svg version="1.1" id="Layer_1" xmlns="http://www.w3.org/2000/svg" xmlns:xlink="http://www.w3.org/1999/xlink" x="0px" y="0px"
	 width="100%" viewBox="0 0 550 91" enable-background="new 0 0 550 91" xml:space="preserve">
<path fill="#FDFDFD" opacity="1.000000" stroke="none" 
	d="
M1.000000,64.000000 
	C1.000000,43.059437 1.000000,22.118874 1.000000,1.000000 
	C31.353994,1.000000 61.708340,1.000000 92.713806,1.437483 
	C93.364937,24.121387 93.364937,46.367809 93.364937,68.601151 
	C97.888962,68.601151 101.790359,68.601151 106.000000,68.601151 
	C106.000000,45.868252 106.000000,23.434126 106.000000,1.000000 
	C143.687561,1.000000 181.375122,1.000000 219.484589,1.466625 
	C219.906494,24.188246 219.906494,46.443241 219.906494,68.698784 
	C224.251373,68.698784 228.124039,68.698784 232.368393,68.698784 
	C232.368393,60.830864 232.368393,53.304897 232.368393,44.626434 
	C238.295837,52.784473 243.479477,60.042793 248.844284,67.164635 
	C249.621445,68.196320 251.436401,69.341316 252.479660,69.111397 
	C255.745041,68.391754 258.870941,67.039169 262.390564,65.813553 
	C255.930893,57.803196 249.902328,50.327446 243.805618,42.767185 
	C249.062347,37.078987 254.153473,31.569975 259.459839,25.828077 
	C255.952347,24.335411 253.098892,23.121071 250.079178,21.835979 
	C244.373062,28.315054 238.790207,34.654175 233.207367,40.993294 
	C232.804901,40.768993 232.402451,40.544697 232.000000,40.320396 
	C232.000000,27.213596 232.000000,14.106798 232.000000,1.000000 
	C338.282135,1.000000 444.564301,1.000000 550.923218,1.000000 
	C550.923218,31.267376 550.923218,61.534992 550.923218,92.000000 
	C384.979156,92.000000 218.958237,92.000000 52.231590,91.584557 
	C51.525864,82.174232 51.525864,73.179352 51.525864,62.998180 
	C57.611763,69.655807 64.011559,71.283936 71.341301,69.333374 
	C85.171043,65.653084 92.392921,48.593616 86.309959,34.032883 
	C82.744759,25.498899 75.436020,20.531696 66.236221,21.746901 
	C61.288559,22.400436 56.596378,24.988108 51.822632,26.691046 
	C51.677666,26.018637 51.342579,24.464359 51.037521,23.049395 
	C47.097919,23.049395 43.485088,23.049395 39.456528,23.049395 
	C39.456528,24.915936 39.456524,26.550089 39.456528,28.184242 
	C39.456562,45.325310 39.485378,62.466461 39.435787,79.607384 
	C39.423836,83.738640 39.152210,87.869148 39.000000,92.000000 
	C26.419218,92.000000 13.838435,92.000000 1.000000,92.000000 
	C1.000000,83.314133 1.000000,74.625732 1.329227,65.586823 
	C8.237175,70.208984 15.554002,71.177422 23.348206,69.050812 
	C28.653965,67.603172 32.616859,64.491241 33.819958,58.880615 
	C35.022228,53.273827 32.843071,48.809578 28.444048,45.319828 
	C24.933298,42.534740 21.249653,39.930660 18.012281,36.857018 
	C16.804367,35.710194 15.661057,32.940865 16.243402,31.838661 
	C17.053282,30.305792 19.491859,28.847900 21.273569,28.798058 
	C23.948851,28.723219 26.659067,29.897186 29.668953,30.615175 
	C30.635403,29.074520 31.768963,27.267471 32.949989,25.384748 
	C27.865269,21.951344 22.276190,21.126064 16.312231,21.806332 
	C10.556796,22.462814 5.973445,25.087902 4.157692,30.625587 
	C2.227392,36.512623 4.748814,41.347000 9.542597,45.022907 
	C12.705282,47.448071 16.328175,49.458481 18.903997,52.392849 
	C20.408510,54.106789 21.477613,57.999271 20.528593,59.594543 
	C19.455685,61.398067 15.804044,62.687870 13.451569,62.449142 
	C10.571410,62.156860 7.875722,60.046799 4.850900,58.603733 
	C3.640633,60.299683 2.320316,62.149841 1.000000,64.000000 
M280.498749,13.959280 
	C280.743805,13.272900 280.988861,12.586520 281.233948,11.900140 
	C280.485260,12.268819 279.736603,12.637497 278.189453,12.960412 
	C277.329865,13.900024 276.470276,14.839636 275.610687,15.779247 
	C276.100189,16.220709 276.589691,16.662170 277.079193,17.103630 
	C278.016205,16.080479 278.953217,15.057328 280.498749,13.959280 
M374.825378,69.075592 
	C377.071503,69.075592 379.317596,69.075592 381.602570,69.075592 
	C381.784302,67.723526 381.945526,67.081291 381.946106,66.438911 
	C381.964203,46.980980 381.980408,27.522997 381.932678,8.065179 
	C381.930084,7.014124 381.369995,5.964438 380.513062,4.807578 
	C380.346405,4.896350 380.179779,4.985124 379.152222,4.997793 
	C377.427246,5.049854 375.702271,5.101916 373.446960,5.096418 
	C373.331146,5.392149 373.215332,5.687881 372.932495,6.910007 
	C373.001678,27.275682 373.070831,47.641357 373.083405,68.498207 
	C373.273865,68.829033 373.556335,68.957428 374.825378,69.075592 
M475.950623,24.925194 
	C475.938751,33.854721 475.926910,42.784248 475.564240,52.031998 
	C475.346985,52.295433 475.276855,52.593464 475.033844,53.586914 
	C471.699738,60.152657 466.742462,62.842793 460.656067,61.389263 
	C454.983765,60.034622 452.249115,55.915653 452.112305,48.456287 
	C452.069519,46.124172 452.105408,43.790615 452.105408,41.457718 
	C452.105377,35.188087 452.105408,28.918461 452.105408,22.645782 
	C448.900146,22.645782 446.338440,22.645782 443.794373,22.645782 
	C443.794373,33.438843 443.295898,43.914261 443.942505,54.318508 
	C444.522980,63.658573 450.681244,69.033813 459.874023,69.799263 
	C465.886566,70.299919 471.076172,68.250412 475.687683,64.073685 
	C475.870087,65.369087 475.985077,66.185616 476.020966,67.833031 
	C479.990631,69.628693 482.415863,69.375549 484.223389,66.076668 
	C484.159760,52.052216 484.096130,38.027760 484.052002,23.204304 
	C481.265137,22.105413 478.473541,20.959095 475.950623,24.925194 
M528.492188,27.985847 
	C528.492188,27.985847 528.021240,28.101503 527.530334,27.620544 
	C523.064575,23.028585 517.557617,21.174316 511.269257,21.671553 
	C502.348480,22.376932 495.829010,26.857309 492.491028,35.110046 
	C488.767242,44.316612 489.355774,53.436047 495.589996,61.489704 
	C503.200409,71.321175 516.579468,72.590012 526.414856,64.662109 
	C526.655579,64.525375 526.774292,64.318604 527.277344,63.808041 
	C527.518921,63.533192 527.760437,63.258339 528.485840,63.034809 
	C528.485840,63.034809 528.932922,63.226795 528.822388,63.979298 
	C528.882202,64.985909 528.942017,65.992516 528.906250,67.851379 
	C531.587219,68.297867 534.268127,68.744354 537.069397,69.210876 
	C537.069397,47.121197 537.069397,25.938190 537.069397,3.578572 
	C534.002319,4.499165 531.500427,5.250104 528.817383,6.923129 
	C528.855103,13.874939 528.892822,20.826748 528.492188,27.985847 
M146.100098,68.642021 
	C150.155701,68.642021 154.211304,68.642021 158.274078,68.642021 
	C158.274078,53.207127 158.274078,37.979328 158.274078,22.639177 
	C154.072067,22.639177 150.164047,22.639177 145.925583,22.639177 
	C145.925583,32.017605 145.969345,41.144653 145.907837,50.270996 
	C145.875168,55.120602 144.101257,59.140499 139.291687,60.928783 
	C131.871063,63.687889 126.423836,59.576736 126.280724,51.056004 
	C126.122368,41.628319 126.244530,32.195923 126.244530,22.579840 
	C121.947327,22.579840 118.192627,22.579840 114.089394,22.579840 
	C114.089394,34.186604 113.694572,45.634033 114.223846,57.038574 
	C114.596146,65.060822 120.382805,69.544167 128.506592,70.065567 
	C135.117691,70.489876 140.649765,68.216331 145.941940,63.312962 
	C145.941940,65.494392 145.941940,66.635925 146.100098,68.642021 
M179.302246,59.474930 
	C179.301895,53.313759 179.142197,47.147388 179.343033,40.992783 
	C179.574478,33.899982 183.694290,29.838390 190.109238,29.953789 
	C196.095703,30.061483 198.953201,33.669586 198.973404,41.242081 
	C198.997711,50.349850 198.979156,59.457733 198.979156,68.546539 
	C203.313950,68.546539 207.184647,68.546539 211.199326,68.546539 
	C211.199326,57.397881 211.369217,46.574108 211.143524,35.758587 
	C210.974640,27.665606 206.206955,22.786108 198.377914,21.781616 
	C191.758301,20.932297 185.876846,22.359528 180.888107,26.957460 
	C180.621826,27.202873 180.087891,27.157864 179.587128,27.268200 
	C179.337173,25.678007 179.122421,24.311613 178.926712,23.066471 
	C174.742432,23.066471 170.978287,23.066471 167.069641,23.066471 
	C167.069641,38.369968 167.069641,53.434902 167.069641,68.630798 
	C171.193359,68.630798 175.099152,68.630798 179.302261,68.630798 
	C179.302261,65.750603 179.302261,63.109035 179.302246,59.474930 
M432.289612,31.317604 
	C425.160522,22.363775 414.453705,19.267601 403.791138,23.076504 
	C394.580719,26.366663 388.049805,35.800953 388.064148,45.794964 
	C388.078949,56.103527 394.635773,65.267555 404.344513,68.549011 
	C414.178864,71.872902 425.012390,68.912086 431.461761,61.137878 
	C438.292755,52.903652 438.748505,42.522488 432.289612,31.317604 
M332.150208,43.854042 
	C333.099579,37.920826 335.729034,33.052410 341.515137,30.701368 
	C349.212250,27.573830 355.294830,30.895937 360.661041,36.809605 
	C362.817871,34.330032 364.584320,32.299278 366.313049,30.311871 
	C355.223938,19.084133 339.166565,18.747553 329.618134,29.098387 
	C320.297699,39.202053 321.250397,55.603153 331.662170,64.287064 
	C342.329834,73.184410 358.212769,71.345795 366.632782,59.946728 
	C364.876953,58.341141 363.089417,56.706532 361.167542,54.949104 
	C355.405853,60.368752 349.318237,64.218491 341.364166,60.440647 
	C334.785156,57.315899 332.095001,51.762444 332.150208,43.854042 
M288.561859,30.004513 
	C283.794800,28.445215 279.932343,23.893280 274.430878,25.107384 
	C272.916534,29.962683 274.819977,32.369537 278.792938,33.848267 
	C281.575653,34.883999 284.208466,36.330700 286.885620,37.640068 
	C291.950287,40.117134 296.998718,42.627430 302.656097,45.421326 
	C293.792297,49.775295 285.753418,53.696587 277.740723,57.670734 
	C273.240631,59.902683 272.666351,62.446857 275.671783,66.995049 
	C286.798096,61.567177 298.015533,56.256523 309.018707,50.533947 
	C310.486786,49.770420 311.549377,46.920273 311.550232,45.035862 
	C311.550995,43.382591 310.199066,41.005390 308.749054,40.199657 
	C302.382629,36.662006 295.763824,33.578598 288.561859,30.004513 
M277.625000,18.502329 
	C277.625000,18.502329 277.452728,18.397667 277.452728,18.397667 
	C277.452728,18.397667 277.473450,18.606943 277.625000,18.502329 
M279.717072,17.428419 
	C279.548492,17.403015 279.379883,17.377611 279.211304,17.352215 
	C279.281830,17.457384 279.352386,17.562553 279.717072,17.428419 
z"/>
<path fill="#080808" opacity="1.000000" stroke="none" 
	d="
M39.463184,92.000000 
	C39.152210,87.869148 39.423836,83.738640 39.435787,79.607384 
	C39.485378,62.466461 39.456562,45.325310 39.456528,28.184242 
	C39.456524,26.550089 39.456528,24.915936 39.456528,23.049395 
	C43.485088,23.049395 47.097919,23.049395 51.037521,23.049395 
	C51.342579,24.464359 51.677666,26.018637 51.822632,26.691046 
	C56.596378,24.988108 61.288559,22.400436 66.236221,21.746901 
	C75.436020,20.531696 82.744759,25.498899 86.309959,34.032883 
	C92.392921,48.593616 85.171043,65.653084 71.341301,69.333374 
	C64.011559,71.283936 57.611763,69.655807 51.525864,62.998180 
	C51.525864,73.179352 51.525864,82.174232 51.762932,91.584557 
	C47.975456,92.000000 43.950912,92.000000 39.463184,92.000000 
M65.035934,62.767872 
	C67.446251,60.905491 70.660812,59.522655 72.112213,57.088505 
	C76.060570,50.466747 76.167374,43.150024 73.412941,36.004719 
	C71.837654,31.918266 68.904533,29.132656 64.072922,28.982344 
	C59.104527,28.827772 55.296700,31.159897 54.024666,35.572121 
	C52.609634,40.480358 51.899876,45.836109 52.170734,50.928551 
	C52.569614,58.428013 56.722385,61.973206 65.035934,62.767872 
z"/>
<path fill="#020202" opacity="1.000000" stroke="none" 
	d="
M231.539368,1.000000 
	C232.000000,14.106798 232.000000,27.213596 232.000000,40.320396 
	C232.402451,40.544697 232.804901,40.768993 233.207367,40.993294 
	C238.790207,34.654175 244.373062,28.315054 250.079178,21.835979 
	C253.098892,23.121071 255.952347,24.335411 259.459839,25.828077 
	C254.153473,31.569975 249.062347,37.078987 243.805618,42.767185 
	C249.902328,50.327446 255.930893,57.803196 262.390564,65.813553 
	C258.870941,67.039169 255.745041,68.391754 252.479660,69.111397 
	C251.436401,69.341316 249.621445,68.196320 248.844284,67.164635 
	C243.479477,60.042793 238.295837,52.784473 232.368393,44.626434 
	C232.368393,53.304897 232.368393,60.830864 232.368393,68.698784 
	C228.124039,68.698784 224.251373,68.698784 219.906494,68.698784 
	C219.906494,46.443241 219.906494,24.188246 219.953247,1.466625 
	C223.692902,1.000000 227.385818,1.000000 231.539368,1.000000 
z"/>
<path fill="#0C0C0C" opacity="1.000000" stroke="none" 
	d="
M105.536819,1.000000 
	C106.000000,23.434126 106.000000,45.868252 106.000000,68.601151 
	C101.790359,68.601151 97.888962,68.601151 93.364937,68.601151 
	C93.364937,46.367809 93.364937,24.121387 93.182465,1.437483 
	C97.024544,1.000000 101.049088,1.000000 105.536819,1.000000 
z"/>
<path fill="#050505" opacity="1.000000" stroke="none" 
	d="
M1.000000,64.250000 
	C2.320316,62.149841 3.640633,60.299683 4.850900,58.603733 
	C7.875722,60.046799 10.571410,62.156860 13.451569,62.449142 
	C15.804044,62.687870 19.455685,61.398067 20.528593,59.594543 
	C21.477613,57.999271 20.408510,54.106789 18.903997,52.392849 
	C16.328175,49.458481 12.705282,47.448071 9.542597,45.022907 
	C4.748814,41.347000 2.227392,36.512623 4.157692,30.625587 
	C5.973445,25.087902 10.556796,22.462814 16.312231,21.806332 
	C22.276190,21.126064 27.865269,21.951344 32.949989,25.384748 
	C31.768963,27.267471 30.635403,29.074520 29.668953,30.615175 
	C26.659067,29.897186 23.948851,28.723219 21.273569,28.798058 
	C19.491859,28.847900 17.053282,30.305792 16.243402,31.838661 
	C15.661057,32.940865 16.804367,35.710194 18.012281,36.857018 
	C21.249653,39.930660 24.933298,42.534740 28.444048,45.319828 
	C32.843071,48.809578 35.022228,53.273827 33.819958,58.880615 
	C32.616859,64.491241 28.653965,67.603172 23.348206,69.050812 
	C15.554002,71.177422 8.237175,70.208984 1.329227,65.118164 
	C1.000000,65.000000 1.000000,64.500000 1.000000,64.250000 
z"/>
<path fill="#070707" opacity="1.000000" stroke="none" 
	d="
M146.021027,68.209732 
	C145.941940,66.635925 145.941940,65.494392 145.941940,63.312962 
	C140.649765,68.216331 135.117691,70.489876 128.506592,70.065567 
	C120.382805,69.544167 114.596146,65.060822 114.223846,57.038574 
	C113.694572,45.634033 114.089394,34.186604 114.089394,22.579840 
	C118.192627,22.579840 121.947327,22.579840 126.244530,22.579840 
	C126.244530,32.195923 126.122368,41.628319 126.280724,51.056004 
	C126.423836,59.576736 131.871063,63.687889 139.291687,60.928783 
	C144.101257,59.140499 145.875168,55.120602 145.907837,50.270996 
	C145.969345,41.144653 145.925583,32.017605 145.925583,22.639177 
	C150.164047,22.639177 154.072067,22.639177 158.274078,22.639177 
	C158.274078,37.979328 158.274078,53.207127 158.274078,68.642021 
	C154.211304,68.642021 150.155701,68.642021 146.021027,68.209732 
z"/>
<path fill="#020202" opacity="1.000000" stroke="none" 
	d="
M179.302246,59.971199 
	C179.302261,63.109035 179.302261,65.750603 179.302261,68.630798 
	C175.099152,68.630798 171.193359,68.630798 167.069641,68.630798 
	C167.069641,53.434902 167.069641,38.369968 167.069641,23.066471 
	C170.978287,23.066471 174.742432,23.066471 178.926712,23.066471 
	C179.122421,24.311613 179.337173,25.678007 179.587128,27.268200 
	C180.087891,27.157864 180.621826,27.202873 180.888107,26.957460 
	C185.876846,22.359528 191.758301,20.932297 198.377914,21.781616 
	C206.206955,22.786108 210.974640,27.665606 211.143524,35.758587 
	C211.369217,46.574108 211.199326,57.397881 211.199326,68.546539 
	C207.184647,68.546539 203.313950,68.546539 198.979156,68.546539 
	C198.979156,59.457733 198.997711,50.349850 198.973404,41.242081 
	C198.953201,33.669586 196.095703,30.061483 190.109238,29.953789 
	C183.694290,29.838390 179.574478,33.899982 179.343033,40.992783 
	C179.142197,47.147388 179.301895,53.313759 179.302246,59.971199 
z"/>
<path fill="#65A80E" opacity="1.000000" stroke="none" 
	d="
M526.044922,64.711411 
	C516.579468,72.590012 503.200409,71.321175 495.589996,61.489704 
	C489.355774,53.436047 488.767242,44.316612 492.491028,35.110046 
	C495.829010,26.857309 502.348480,22.376932 511.269257,21.671553 
	C517.557617,21.174316 523.064575,23.028585 527.896729,28.003819 
	C528.485596,28.184246 528.708069,27.981398 528.930542,27.778553 
	C528.892822,20.826748 528.855103,13.874939 529.353882,6.462576 
	C531.800476,6.105147 533.710571,6.208272 535.997559,6.331745 
	C535.997559,8.697687 535.997498,10.497736 535.997498,12.297784 
	C535.997498,28.230942 535.998108,44.164097 535.997253,60.097256 
	C535.996887,66.988449 535.995483,66.988449 529.001831,66.999130 
	C528.942017,65.992516 528.882202,64.985909 528.832031,63.413033 
	C528.561829,62.892345 528.281921,62.937920 528.002014,62.983490 
	C527.760437,63.258339 527.518921,63.533192 526.875854,64.003777 
	C526.287415,64.333443 526.144287,64.504074 526.044922,64.711411 
M529.001465,45.490486 
	C528.578064,37.630344 524.301941,31.739794 517.841492,30.117119 
	C511.183441,28.444815 504.768127,31.034698 501.524261,36.704483 
	C498.139191,42.621033 498.631500,50.827915 502.683289,56.027313 
	C506.325928,60.701649 512.012268,62.793404 517.247620,61.384903 
	C523.963623,59.578045 528.003479,54.407063 529.001465,45.490486 
z"/>
<path fill="#65A80F" opacity="1.000000" stroke="none" 
	d="
M432.517639,31.603828 
	C438.748505,42.522488 438.292755,52.903652 431.461761,61.137878 
	C425.012390,68.912086 414.178864,71.872902 404.344513,68.549011 
	C394.635773,65.267555 388.078949,56.103527 388.064148,45.794964 
	C388.049805,35.800953 394.580719,26.366663 403.791138,23.076504 
	C414.453705,19.267601 425.160522,22.363775 432.517639,31.603828 
M419.406769,60.180645 
	C426.329071,55.768906 429.362701,49.031521 427.565216,42.061527 
	C425.666443,34.698765 420.158813,29.894688 413.240784,29.566875 
	C406.934692,29.268063 401.412018,32.487217 398.800018,38.247860 
	C395.947388,44.539181 396.495178,50.667912 400.861542,56.037594 
	C405.591034,61.853867 411.705353,63.350777 419.406769,60.180645 
z"/>
<path fill="#66A811" opacity="1.000000" stroke="none" 
	d="
M475.915039,51.713776 
	C475.926910,42.784248 475.938751,33.854721 476.463989,24.464138 
	C479.329071,24.003159 481.680817,24.003233 484.032532,24.003307 
	C484.096130,38.027760 484.159760,52.052216 483.685303,66.536018 
	C480.798157,66.997627 478.449097,66.999886 476.100037,67.002144 
	C475.985077,66.185616 475.870087,65.369087 475.687683,64.073685 
	C471.076172,68.250412 465.886566,70.299919 459.874023,69.799263 
	C450.681244,69.033813 444.522980,63.658573 443.942505,54.318508 
	C443.295898,43.914261 443.794373,33.438843 443.794373,22.645782 
	C446.338440,22.645782 448.900146,22.645782 452.105408,22.645782 
	C452.105408,28.918461 452.105377,35.188087 452.105408,41.457718 
	C452.105408,43.790615 452.069519,46.124172 452.112305,48.456287 
	C452.249115,55.915653 454.983765,60.034622 460.656067,61.389263 
	C466.742462,62.842793 471.699738,60.152657 475.348358,53.087357 
	C475.826385,52.319393 475.910431,52.028049 475.915039,51.713776 
z"/>
<path fill="#66A811" opacity="1.000000" stroke="none" 
	d="
M332.144104,44.268700 
	C332.095001,51.762444 334.785156,57.315899 341.364166,60.440647 
	C349.318237,64.218491 355.405853,60.368752 361.167542,54.949104 
	C363.089417,56.706532 364.876953,58.341141 366.632782,59.946728 
	C358.212769,71.345795 342.329834,73.184410 331.662170,64.287064 
	C321.250397,55.603153 320.297699,39.202053 329.618134,29.098387 
	C339.166565,18.747553 355.223938,19.084133 366.313049,30.311871 
	C364.584320,32.299278 362.817871,34.330032 360.661041,36.809605 
	C355.294830,30.895937 349.212250,27.573830 341.515137,30.701368 
	C335.729034,33.052410 333.099579,37.920826 332.144104,44.268700 
z"/>
<path fill="#65A80F" opacity="1.000000" stroke="none" 
	d="
M288.899170,30.167503 
	C295.763824,33.578598 302.382629,36.662006 308.749054,40.199657 
	C310.199066,41.005390 311.550995,43.382591 311.550232,45.035862 
	C311.549377,46.920273 310.486786,49.770420 309.018707,50.533947 
	C298.015533,56.256523 286.798096,61.567177 275.671783,66.995049 
	C272.666351,62.446857 273.240631,59.902683 277.740723,57.670734 
	C285.753418,53.696587 293.792297,49.775295 302.656097,45.421326 
	C296.998718,42.627430 291.950287,40.117134 286.885620,37.640068 
	C284.208466,36.330700 281.575653,34.883999 278.792938,33.848267 
	C274.819977,32.369537 272.916534,29.962683 274.430878,25.107384 
	C279.932343,23.893280 283.794800,28.445215 288.899170,30.167503 
z"/>
<path fill="#64A70B" opacity="1.000000" stroke="none" 
	d="
M373.977295,5.153977 
	C375.702271,5.101916 377.427246,5.049854 379.674133,5.226977 
	C380.361053,5.699088 380.583496,5.865138 380.914154,6.423328 
	C380.929901,26.946619 380.894836,47.000893 380.648682,67.180878 
	C380.195007,67.541168 380.021881,67.819077 379.521362,68.175873 
	C377.534180,68.175896 375.943909,68.140373 374.050659,68.074936 
	C373.545166,68.032356 373.342590,68.019691 373.140015,68.007034 
	C373.070831,47.641357 373.001678,27.275682 373.205048,6.358821 
	C373.715424,5.644238 373.881989,5.426351 373.977295,5.153977 
z"/>
<path fill="#61A60C" opacity="1.000000" stroke="none" 
	d="
M528.953979,67.425255 
	C535.995483,66.988449 535.996887,66.988449 535.997253,60.097256 
	C535.998108,44.164097 535.997498,28.230942 535.997498,12.297784 
	C535.997498,10.497736 535.997559,8.697687 535.997559,6.331745 
	C533.710571,6.208272 531.800476,6.105147 529.444458,6.001533 
	C531.500427,5.250104 534.002319,4.499165 537.069397,3.578572 
	C537.069397,25.938190 537.069397,47.121197 537.069397,69.210876 
	C534.268127,68.744354 531.587219,68.297867 528.953979,67.425255 
z"/>
<path fill="#97C271" opacity="1.000000" stroke="none" 
	d="
M374.353638,68.104858 
	C375.943909,68.140373 377.534180,68.175896 379.781799,68.105789 
	C380.579315,67.685158 380.719543,67.370163 380.859772,67.055168 
	C380.894836,47.000893 380.929901,26.946619 380.962769,6.162791 
	C380.996826,5.260198 381.033142,5.087158 381.069427,4.914117 
	C381.369995,5.964438 381.930084,7.014124 381.932678,8.065179 
	C381.980408,27.522997 381.964203,46.980980 381.946106,66.438911 
	C381.945526,67.081291 381.784302,67.723526 381.602570,69.075592 
	C379.317596,69.075592 377.071503,69.075592 374.482361,68.784073 
	C374.139343,68.492546 374.353638,68.104858 374.353638,68.104858 
z"/>
<path fill="#60A50C" opacity="1.000000" stroke="none" 
	d="
M476.060486,67.417587 
	C478.449097,66.999886 480.798157,66.997627 483.589050,66.996170 
	C482.415863,69.375549 479.990631,69.628693 476.060486,67.417587 
z"/>
<path fill="#60A50C" opacity="1.000000" stroke="none" 
	d="
M484.042267,23.603806 
	C481.680817,24.003233 479.329071,24.003159 476.538513,24.000546 
	C478.473541,20.959095 481.265137,22.105413 484.042267,23.603806 
z"/>
<path fill="#72AE31" opacity="1.000000" stroke="none" 
	d="
M279.890198,14.034176 
	C278.953217,15.057328 278.016205,16.080479 277.079193,17.103630 
	C276.589691,16.662170 276.100189,16.220709 275.610687,15.779247 
	C276.470276,14.839636 277.329865,13.900024 278.674011,13.212086 
	C279.277435,13.814266 279.521301,14.004405 279.890198,14.034176 
z"/>
<path fill="#FAFCF8" opacity="1.000000" stroke="none" 
	d="
M280.194458,13.996728 
	C279.521301,14.004405 279.277435,13.814266 279.073242,13.234968 
	C279.736603,12.637497 280.485260,12.268819 281.233948,11.900141 
	C280.988861,12.586520 280.743805,13.272900 280.194458,13.996728 
z"/>
<path fill="#61A60C" opacity="1.000000" stroke="none" 
	d="
M528.243896,63.009151 
	C528.281921,62.937920 528.561829,62.892345 528.887329,63.036781 
	C528.932922,63.226795 528.485840,63.034809 528.243896,63.009151 
z"/>
<path fill="#61A60C" opacity="1.000000" stroke="none" 
	d="
M526.229858,64.686760 
	C526.144287,64.504074 526.287415,64.333443 526.622681,64.120659 
	C526.774292,64.318604 526.655579,64.525375 526.229858,64.686760 
z"/>
<path fill="#5BA300" opacity="1.000000" stroke="none" 
	d="
M374.050659,68.074936 
	C374.353638,68.104858 374.139343,68.492546 374.035095,68.687965 
	C373.556335,68.957428 373.273865,68.829033 373.111694,68.252625 
	C373.342590,68.019691 373.545166,68.032356 374.050659,68.074936 
z"/>
<path fill="#60A50C" opacity="1.000000" stroke="none" 
	d="
M475.739624,51.872887 
	C475.910431,52.028049 475.826385,52.319393 475.508362,52.756950 
	C475.276855,52.593464 475.346985,52.295433 475.739624,51.872887 
z"/>
<path fill="#61A60C" opacity="1.000000" stroke="none" 
	d="
M528.711365,27.882198 
	C528.708069,27.981398 528.485596,28.184246 528.142212,28.244299 
	C528.021240,28.101503 528.492188,27.985847 528.711365,27.882198 
z"/>
<path fill="#5BA300" opacity="1.000000" stroke="none" 
	d="
M373.712128,5.125197 
	C373.881989,5.426351 373.715424,5.644238 373.288574,5.895624 
	C373.215332,5.687881 373.331146,5.392149 373.712128,5.125197 
z"/>
<path fill="#5BA300" opacity="1.000000" stroke="none" 
	d="
M380.791260,4.860848 
	C381.033142,5.087158 380.996826,5.260198 380.911926,5.693775 
	C380.583496,5.865138 380.361053,5.699088 380.104553,5.265030 
	C380.179779,4.985124 380.346405,4.896350 380.791260,4.860848 
z"/>
<path fill="#DDEAD2" opacity="1.000000" stroke="none" 
	d="
M277.549225,18.554636 
	C277.473450,18.606943 277.452728,18.397667 277.452728,18.397667 
	C277.452728,18.397667 277.625000,18.502329 277.549225,18.554636 
z"/>
<path fill="#B7D3A0" opacity="1.000000" stroke="none" 
	d="
M279.570007,17.548071 
	C279.352386,17.562553 279.281830,17.457384 279.211304,17.352211 
	C279.379883,17.377611 279.548492,17.403015 279.570007,17.548071 
z"/>
<path fill="#FBFBFB" opacity="1.000000" stroke="none" 
	d="
M64.646400,62.819443 
	C56.722385,61.973206 52.569614,58.428013 52.170734,50.928551 
	C51.899876,45.836109 52.609634,40.480358 54.024666,35.572121 
	C55.296700,31.159897 59.104527,28.827772 64.072922,28.982344 
	C68.904533,29.132656 71.837654,31.918266 73.412941,36.004719 
	C76.167374,43.150024 76.060570,50.466747 72.112213,57.088505 
	C70.660812,59.522655 67.446251,60.905491 64.646400,62.819443 
z"/>
<path fill="#FDFEFC" opacity="1.000000" stroke="none" 
	d="
M529.000977,45.915962 
	C528.003479,54.407063 523.963623,59.578045 517.247620,61.384903 
	C512.012268,62.793404 506.325928,60.701649 502.683289,56.027313 
	C498.631500,50.827915 498.139191,42.621033 501.524261,36.704483 
	C504.768127,31.034698 511.183441,28.444815 517.841492,30.117119 
	C524.301941,31.739794 528.578064,37.630344 529.000977,45.915962 
z"/>
<path fill="#FCFDFB" opacity="1.000000" stroke="none" 
	d="
M419.084290,60.393509 
	C411.705353,63.350777 405.591034,61.853867 400.861542,56.037594 
	C396.495178,50.667912 395.947388,44.539181 398.800018,38.247860 
	C401.412018,32.487217 406.934692,29.268063 413.240784,29.566875 
	C420.158813,29.894688 425.666443,34.698765 427.565216,42.061527 
	C429.362701,49.031521 426.329071,55.768906 419.084290,60.393509 
z"/>
<path fill="#5BA300" opacity="1.000000" stroke="none" 
	d="
M380.648682,67.180878 
	C380.719543,67.370163 380.579315,67.685158 380.178711,68.070236 
	C380.021881,67.819077 380.195007,67.541168 380.648682,67.180878 
z"/>
</svg>