<svg version="1.1" id="Layer_1" xmlns="http://www.w3.org/2000/svg" xmlns:xlink="http://www.w3.org/1999/xlink" x="0px" y="0px"
	 width="100%" viewBox="0 0 125 123" enable-background="new 0 0 125 123" xml:space="preserve">
<path fill="#888991" opacity="1.000000" stroke="none" 
	d="
M82.000000,124.000000 
	C69.645775,124.000000 57.291546,124.000000 44.632809,123.722572 
	C42.126255,122.301140 39.843624,121.287857 37.736980,119.989098 
	C30.889463,115.767570 23.023451,112.493027 17.577816,106.884529 
	C11.052843,100.164413 5.562407,92.034401 2.935493,82.561714 
	C2.841207,82.221710 1.669546,82.180473 1.000000,82.000000 
	C1.000000,69.312439 1.000000,56.624878 1.374738,43.582184 
	C2.053219,43.148758 2.580077,43.139572 2.628798,42.982281 
	C5.502892,33.703671 10.408181,25.297178 17.177103,18.724058 
	C22.951525,13.116671 30.639574,9.474792 37.503014,4.997027 
	C39.631817,3.608181 41.832321,2.329252 44.000000,1.000000 
	C56.687561,1.000000 69.375122,1.000000 82.398956,1.398642 
	C84.885307,2.857704 87.151947,3.734483 89.164253,5.011927 
	C96.042519,9.378371 103.734482,12.975451 109.399414,18.596153 
	C115.022156,24.174992 120.077255,30.879877 122.404732,39.012077 
	C122.935287,40.865864 124.767105,42.347225 126.000000,44.000000 
	C126.000000,56.020893 126.000000,68.041786 125.707451,80.378670 
	C124.937302,80.968437 124.219025,81.124268 124.018356,81.533752 
	C121.197006,87.291183 119.315094,93.751289 115.491959,98.723579 
	C108.193024,108.216423 99.583649,116.528381 87.572479,120.260628 
	C85.525337,120.896744 83.848114,122.723366 82.000000,124.000000 
M60.871204,117.791985 
	C64.923553,117.218224 69.090034,117.057121 73.001862,115.975243 
	C79.064896,114.298401 85.262756,112.608818 90.844482,109.809914 
	C99.085403,105.677574 106.237740,99.761040 110.637634,91.459976 
	C113.601006,85.869118 116.367233,79.934952 117.770172,73.821281 
	C119.247429,67.383774 120.967270,60.664616 118.136887,53.852074 
	C115.646988,47.859016 114.561218,41.194843 111.538666,35.529522 
	C105.665207,24.520599 96.405449,17.254082 84.785919,12.152421 
	C72.845123,6.909702 60.842716,5.727177 48.815403,9.377136 
	C39.320145,12.258688 30.616570,17.105396 23.337658,24.628864 
	C13.595501,34.698341 8.765852,46.676384 7.348701,60.087673 
	C6.269379,70.301918 9.741986,80.019714 14.544312,88.790359 
	C18.578199,96.157585 24.457397,102.238312 31.588947,107.254234 
	C40.261246,113.353836 50.090214,115.451736 60.871204,117.791985 
z"/>
<path fill="#030202" opacity="1.000000" stroke="none" 
	d="
M82.468658,124.000000 
	C83.848114,122.723366 85.525337,120.896744 87.572479,120.260628 
	C99.583649,116.528381 108.193024,108.216423 115.491959,98.723579 
	C119.315094,93.751289 121.197006,87.291183 124.018356,81.533752 
	C124.219025,81.124268 124.937302,80.968437 125.707451,80.847328 
	C126.000000,95.260872 126.000000,109.521736 126.000000,124.000000 
	C111.646500,124.000000 97.291908,124.000000 82.468658,124.000000 
z"/>
<path fill="#020202" opacity="1.000000" stroke="none" 
	d="
M126.000000,43.531342 
	C124.767105,42.347225 122.935287,40.865864 122.404732,39.012077 
	C120.077255,30.879877 115.022156,24.174992 109.399414,18.596153 
	C103.734482,12.975451 96.042519,9.378371 89.164253,5.011927 
	C87.151947,3.734483 84.885307,2.857704 82.867615,1.398642 
	C97.260025,1.000000 111.520042,1.000000 126.000000,1.000000 
	C126.000000,15.020128 126.000000,29.041407 126.000000,43.531342 
z"/>
<path fill="#020201" opacity="1.000000" stroke="none" 
	d="
M1.000000,82.468658 
	C1.669546,82.180473 2.841207,82.221710 2.935493,82.561714 
	C5.562407,92.034401 11.052843,100.164413 17.577816,106.884529 
	C23.023451,112.493027 30.889463,115.767570 37.736980,119.989098 
	C39.843624,121.287857 42.126255,122.301140 44.164150,123.722572 
	C29.740849,124.000000 15.481695,124.000000 1.000000,124.000000 
	C1.000000,110.313240 1.000000,96.625282 1.000000,82.468658 
z"/>
<path fill="#010101" opacity="1.000000" stroke="none" 
	d="
M43.531342,1.000000 
	C41.832321,2.329252 39.631817,3.608181 37.503014,4.997027 
	C30.639574,9.474792 22.951525,13.116671 17.177103,18.724058 
	C10.408181,25.297178 5.502892,33.703671 2.628798,42.982281 
	C2.580077,43.139572 2.053219,43.148758 1.374738,43.113525 
	C1.000000,29.072454 1.000000,15.144910 1.000000,1.000000 
	C15.020146,1.000000 29.041414,1.000000 43.531342,1.000000 
z"/>
<path fill="#060606" opacity="1.000000" stroke="none" 
	d="
M60.433517,117.768311 
	C50.090214,115.451736 40.261246,113.353836 31.588947,107.254234 
	C24.457397,102.238312 18.578199,96.157585 14.544312,88.790359 
	C9.741986,80.019714 6.269379,70.301918 7.348701,60.087673 
	C8.765852,46.676384 13.595501,34.698341 23.337658,24.628864 
	C30.616570,17.105396 39.320145,12.258688 48.815403,9.377136 
	C60.842716,5.727177 72.845123,6.909702 84.785919,12.152421 
	C96.405449,17.254082 105.665207,24.520599 111.538666,35.529522 
	C114.561218,41.194843 115.646988,47.859016 118.136887,53.852074 
	C120.967270,60.664616 119.247429,67.383774 117.770172,73.821281 
	C116.367233,79.934952 113.601006,85.869118 110.637634,91.459976 
	C106.237740,99.761040 99.085403,105.677574 90.844482,109.809914 
	C85.262756,112.608818 79.064896,114.298401 73.001862,115.975243 
	C69.090034,117.057121 64.923553,117.218224 60.433517,117.768311 
M89.485703,25.780327 
	C88.371239,24.871675 87.256767,23.963024 86.422157,22.734243 
	C85.962952,22.575558 85.503754,22.416872 84.279060,22.112236 
	C82.564522,21.652267 80.849991,21.192299 78.894501,20.198170 
	C78.262100,19.857555 77.629707,19.516941 76.198555,19.017849 
	C75.115265,19.057869 74.031982,19.097889 72.578880,18.543438 
	C71.385422,18.089331 70.191963,17.635223 68.227348,17.045189 
	C67.501099,15.363271 66.774841,13.681353 66.072098,11.259455 
	C65.047630,10.933851 64.023155,10.608248 62.250843,10.218822 
	C61.731323,11.429958 61.211800,12.641096 60.315037,14.415181 
	C59.891331,15.339803 59.467621,16.264423 58.524834,17.064848 
	C58.350445,17.100077 58.176060,17.135307 57.286736,17.081322 
	C56.206699,17.754969 55.126659,18.428616 53.238064,19.019156 
	C52.159218,19.067850 51.080368,19.116545 49.342716,19.144896 
	C48.711674,19.722713 48.080627,20.300531 46.924355,21.138771 
	C38.375523,20.917439 24.324373,35.954357 22.069639,42.957932 
	C20.334806,48.346615 18.412989,53.675102 16.654974,58.795444 
	C14.370070,58.988415 12.591058,59.138664 10.693064,59.298958 
	C9.803872,63.297565 9.860757,66.185532 15.000408,66.105240 
	C15.795822,66.092812 16.953186,67.448540 17.368591,68.417809 
	C20.263338,75.172188 21.400761,82.534393 26.050690,88.716209 
	C33.071384,98.049835 42.029850,103.679230 53.332207,106.122391 
	C55.663052,106.626236 58.454430,107.907547 59.699646,109.737961 
	C61.043903,111.713974 59.586533,116.051567 63.718189,115.477440 
	C64.890625,115.314514 65.550362,111.444084 66.438133,109.271034 
	C66.562332,108.967041 66.645828,108.646408 66.753021,108.334999 
	C68.842850,107.565186 70.874908,106.510551 73.032127,106.072952 
	C84.763504,103.693230 94.571350,98.477180 101.033516,87.952682 
	C101.964859,86.435860 103.418037,85.239464 104.477470,83.867531 
	C104.477470,83.867531 104.486923,83.887802 104.717857,83.159294 
	C104.826462,82.146446 104.935074,81.133606 105.529770,79.972443 
	C105.621056,79.659050 105.712341,79.345650 105.993690,78.399178 
	C106.037300,77.741219 106.080917,77.083267 106.621918,76.030342 
	C107.013504,75.353378 107.405098,74.676422 107.970085,73.120567 
	C107.926064,71.629402 107.882034,70.138229 108.375725,68.354706 
	C108.899315,67.565109 109.422913,66.775505 110.636620,65.971741 
	C111.090302,65.907524 111.543976,65.843300 112.601273,65.854416 
	C113.330330,64.919296 114.059380,63.984165 114.850670,62.238422 
	C115.324776,57.987194 112.223145,59.140305 109.622833,58.487865 
	C109.037247,57.745098 108.451660,57.002331 107.983948,55.387371 
	C107.934952,53.925522 107.885956,52.463676 107.894478,50.369381 
	C107.284355,49.570084 106.674232,48.770786 106.115334,47.299301 
	C106.025063,46.859749 105.934792,46.420200 105.899963,45.457787 
	C105.566521,45.109226 105.233070,44.760666 104.855103,43.554749 
	C104.751915,42.707432 104.648720,41.860119 104.588402,40.756886 
	C104.588402,40.756886 104.263901,40.708351 104.263901,40.708351 
	C104.263901,40.708351 104.184418,41.049385 103.555428,40.728737 
	C102.608154,39.486744 101.660873,38.244747 100.845703,36.331375 
	C100.282646,35.691845 99.719589,35.052319 98.994492,33.782108 
	C96.979210,31.860331 94.963928,29.938555 92.571205,27.504868 
	C91.714195,27.071468 90.857193,26.638071 89.485703,25.780327 
z"/>
<path fill="#85868D" opacity="1.000000" stroke="none" 
	d="
M106.124527,76.425308 
	C106.080917,77.083267 106.037300,77.741219 105.753296,78.883713 
	C105.328949,79.601906 105.172539,79.852745 105.043678,80.120758 
	C104.935074,81.133606 104.826462,82.146446 104.636047,83.529800 
	C104.554245,83.900307 104.629715,83.894775 104.629715,83.894775 
	C103.418037,85.239464 101.964859,86.435860 101.033516,87.952682 
	C94.571350,98.477180 84.763504,103.693230 73.032127,106.072952 
	C70.874908,106.510551 68.842850,107.565186 66.750595,108.334244 
	C66.645828,108.646408 66.562332,108.967041 66.438133,109.271034 
	C65.550362,111.444084 64.890625,115.314514 63.718189,115.477440 
	C59.586533,116.051567 61.043903,111.713974 59.699646,109.737961 
	C58.454430,107.907547 55.663052,106.626236 53.332207,106.122391 
	C42.029850,103.679230 33.071384,98.049835 26.050690,88.716209 
	C21.400761,82.534393 20.263338,75.172188 17.368591,68.417809 
	C16.953186,67.448540 15.795822,66.092812 15.000408,66.105240 
	C9.860757,66.185532 9.803872,63.297565 10.693064,59.298958 
	C12.591058,59.138664 14.370070,58.988415 16.654974,58.795444 
	C18.412989,53.675102 20.334806,48.346615 22.069639,42.957932 
	C24.324373,35.954357 38.375523,20.917439 47.514320,20.958664 
	C48.736702,20.240784 49.369114,19.703012 50.001522,19.165241 
	C51.080368,19.116545 52.159218,19.067850 53.895916,19.215317 
	C55.703072,18.664499 56.852371,17.917521 58.001671,17.170540 
	C58.176060,17.135307 58.350445,17.100077 59.050919,17.253914 
	C63.249725,17.271328 61.731003,15.487238 60.692276,13.852234 
	C61.211800,12.641096 61.731323,11.429958 62.774658,10.521631 
	C64.215179,11.216106 65.131882,11.607770 66.048592,11.999434 
	C66.774841,13.681353 67.501099,15.363271 68.702782,17.407949 
	C70.435043,18.226444 71.691864,18.682177 72.948692,19.137909 
	C74.031982,19.097889 75.115265,19.057869 76.628174,19.372940 
	C77.750343,20.062796 78.442902,20.397562 79.135452,20.732328 
	C80.849991,21.192299 82.564522,21.652267 84.833199,22.333366 
	C85.624474,22.743057 85.876129,22.909683 86.142303,23.054375 
	C87.256767,23.963024 88.371239,24.871675 89.880905,26.267174 
	C91.166962,27.174942 92.057800,27.595861 92.948647,28.016781 
	C94.963928,29.938555 96.979210,31.860331 99.112228,34.418953 
	C99.724503,35.704784 100.219055,36.353771 100.713600,37.002754 
	C101.660873,38.244747 102.608154,39.486744 103.960152,40.880997 
	C104.364876,41.033257 104.545532,41.012802 104.545532,41.012802 
	C104.648720,41.860119 104.751915,42.707432 104.961929,44.197876 
	C105.327354,45.220886 105.585938,45.600765 105.844521,45.980644 
	C105.934792,46.420200 106.025063,46.859749 105.943161,47.861156 
	C106.459641,49.282616 107.148300,50.142223 107.836960,51.001831 
	C107.885956,52.463676 107.934952,53.925522 107.836128,56.084023 
	C108.449158,57.523693 109.210007,58.266716 109.970856,59.009735 
	C112.223145,59.140305 115.324776,57.987194 114.530006,62.718224 
	C113.472115,64.058380 112.734886,64.918732 111.997658,65.779083 
	C111.543976,65.843300 111.090302,65.907524 110.008087,66.001740 
	C108.865700,66.903519 108.351852,67.775291 107.838005,68.647064 
	C107.882034,70.138229 107.926064,71.629402 107.608253,73.706810 
	C106.872459,75.003807 106.498497,75.714554 106.124527,76.425308 
M42.059288,65.975182 
	C36.458374,65.975182 30.857458,65.975182 24.387753,65.975182 
	C25.556704,69.975853 26.219120,73.361740 27.517942,76.482780 
	C31.775894,86.714523 39.447159,93.914619 49.531658,97.850609 
	C52.589821,99.044212 56.657475,102.521881 60.925819,98.109428 
	C61.006222,96.144814 60.827572,94.123077 61.244469,92.232674 
	C61.614773,90.553528 62.645805,89.020088 63.385204,87.422340 
	C64.192162,88.946045 65.324158,90.389740 65.723885,92.013680 
	C66.224693,94.048286 66.124443,96.230827 66.404076,99.071518 
	C68.068878,99.406021 70.049431,100.490501 71.343956,99.945503 
	C77.015038,97.557953 82.487434,94.698479 88.750465,91.944321 
	C90.504456,89.975739 92.258446,88.007149 94.258080,85.393051 
	C95.237915,83.929184 96.217751,82.465324 97.699036,80.806534 
	C98.154427,80.282082 98.609825,79.757622 99.014305,78.395882 
	C99.433273,76.265472 99.852242,74.135056 100.787010,71.961533 
	C101.283905,71.347878 101.780807,70.734230 102.141891,69.321991 
	C102.083519,68.243652 102.025146,67.165314 101.617584,65.400528 
	C97.009346,63.348839 92.445633,62.718201 87.254929,65.959129 
	C86.503838,65.913681 85.752747,65.868225 84.829399,65.102974 
	C84.554008,63.134556 84.278618,61.166142 84.923286,59.015312 
	C90.449997,59.015312 95.976707,59.015312 101.645279,59.015312 
	C101.937508,57.409252 102.163544,56.166965 102.828674,54.684513 
	C101.995247,53.787582 101.161819,52.890652 100.322044,51.188164 
	C100.388344,50.385296 100.454643,49.582428 100.583069,48.357517 
	C100.108353,47.904491 99.633636,47.451469 98.993828,46.325344 
	C98.649544,45.776691 98.305260,45.228039 97.751419,44.435204 
	C97.601318,44.280525 97.435783,44.144646 97.084503,43.339397 
	C96.407303,42.219578 95.730095,41.099758 95.325287,39.454685 
	C94.433228,34.884502 92.211060,31.771442 86.397926,31.797829 
	C85.593224,31.147261 84.788513,30.496691 83.571541,29.504555 
	C83.268883,29.315235 82.966217,29.125916 82.179634,28.417770 
	C80.127602,27.704128 78.075569,26.990488 75.929565,25.703295 
	C74.425148,22.459846 72.397202,22.453966 69.126823,24.883953 
	C68.093796,25.260015 67.060768,25.636078 65.749641,26.303991 
	C65.870407,26.883215 65.991173,27.462439 66.345764,28.877565 
	C66.168869,30.590302 65.991966,32.303036 65.052582,33.958908 
	C64.036850,32.435215 62.883911,30.982737 62.045307,29.367100 
	C61.261078,27.856211 60.810211,26.172291 59.425606,24.775959 
	C58.617825,24.768534 57.810047,24.761106 56.911392,24.458973 
	C56.606682,24.554583 56.301968,24.650192 55.227966,24.846529 
	C54.452763,24.820192 53.677559,24.793856 52.415588,24.643383 
	C51.910000,25.230576 51.404415,25.817768 50.196121,26.498079 
	C34.352478,32.640350 24.598495,47.160908 25.661041,58.941696 
	C31.420862,58.941696 37.206619,58.941696 43.057446,59.824757 
	C43.036396,61.886974 43.015343,63.949188 42.059288,65.975182 
z"/>
<path fill="#84858C" opacity="1.000000" stroke="none" 
	d="
M57.644203,17.125931 
	C56.852371,17.917521 55.703072,18.664499 54.300194,19.256870 
	C55.126659,18.428616 56.206699,17.754969 57.644203,17.125931 
z"/>
<path fill="#84858C" opacity="1.000000" stroke="none" 
	d="
M72.763786,18.840673 
	C71.691864,18.682177 70.435043,18.226444 69.088364,17.475914 
	C70.191963,17.635223 71.385422,18.089331 72.763786,18.840673 
z"/>
<path fill="#84858C" opacity="1.000000" stroke="none" 
	d="
M60.503654,14.133707 
	C61.731003,15.487238 63.249725,17.271328 59.310463,17.316013 
	C59.467621,16.264423 59.891331,15.339803 60.503654,14.133707 
z"/>
<path fill="#84858C" opacity="1.000000" stroke="none" 
	d="
M112.299469,65.816750 
	C112.734886,64.918732 113.472115,64.058380 114.498886,63.123535 
	C114.059380,63.984165 113.330330,64.919296 112.299469,65.816750 
z"/>
<path fill="#84858C" opacity="1.000000" stroke="none" 
	d="
M109.796844,58.748802 
	C109.210007,58.266716 108.449158,57.523693 107.777191,56.520119 
	C108.451660,57.002331 109.037247,57.745098 109.796844,58.748802 
z"/>
<path fill="#84858C" opacity="1.000000" stroke="none" 
	d="
M108.106865,68.500885 
	C108.351852,67.775291 108.865700,66.903519 109.663033,66.008820 
	C109.422913,66.775505 108.899315,67.565109 108.106865,68.500885 
z"/>
<path fill="#84858C" opacity="1.000000" stroke="none" 
	d="
M107.865723,50.685608 
	C107.148300,50.142223 106.459641,49.282616 105.917542,48.197250 
	C106.674232,48.770786 107.284355,49.570084 107.865723,50.685608 
z"/>
<path fill="#84858C" opacity="1.000000" stroke="none" 
	d="
M66.060349,11.629444 
	C65.131882,11.607770 64.215179,11.216106 63.148579,10.553543 
	C64.023155,10.608248 65.047630,10.933851 66.060349,11.629444 
z"/>
<path fill="#84858C" opacity="1.000000" stroke="none" 
	d="
M79.014977,20.465248 
	C78.442902,20.397562 77.750343,20.062796 77.027550,19.452179 
	C77.629707,19.516941 78.262100,19.857555 79.014977,20.465248 
z"/>
<path fill="#84858C" opacity="1.000000" stroke="none" 
	d="
M92.759926,27.760826 
	C92.057800,27.595861 91.166962,27.174942 90.138153,26.479347 
	C90.857193,26.638071 91.714195,27.071468 92.759926,27.760826 
z"/>
<path fill="#84858C" opacity="1.000000" stroke="none" 
	d="
M106.373222,76.227829 
	C106.498497,75.714554 106.872459,75.003807 107.521553,74.146255 
	C107.405098,74.676422 107.013504,75.353378 106.373222,76.227829 
z"/>
<path fill="#84858C" opacity="1.000000" stroke="none" 
	d="
M49.672119,19.155067 
	C49.369114,19.703012 48.736702,20.240784 47.776936,20.828453 
	C48.080627,20.300531 48.711674,19.722713 49.672119,19.155067 
z"/>
<path fill="#84858C" opacity="1.000000" stroke="none" 
	d="
M100.779648,36.667065 
	C100.219055,36.353771 99.724503,35.704784 99.193237,34.734299 
	C99.719589,35.052319 100.282646,35.691845 100.779648,36.667065 
z"/>
<path fill="#84858C" opacity="1.000000" stroke="none" 
	d="
M86.282227,22.894308 
	C85.876129,22.909683 85.624474,22.743057 85.215942,22.406342 
	C85.503754,22.416872 85.962952,22.575558 86.282227,22.894308 
z"/>
<path fill="#84858C" opacity="1.000000" stroke="none" 
	d="
M105.872238,45.719215 
	C105.585938,45.600765 105.327354,45.220886 104.984192,44.626556 
	C105.233070,44.760666 105.566521,45.109226 105.872238,45.719215 
z"/>
<path fill="#84858C" opacity="1.000000" stroke="none" 
	d="
M105.286728,80.046600 
	C105.172539,79.852745 105.328949,79.601906 105.658264,79.200256 
	C105.712341,79.345650 105.621056,79.659050 105.286728,80.046600 
z"/>
<path fill="#84858C" opacity="1.000000" stroke="none" 
	d="
M104.553589,83.881149 
	C104.629715,83.894775 104.554245,83.900307 104.520584,83.894058 
	C104.486923,83.887802 104.477470,83.867531 104.553589,83.881149 
z"/>
<path fill="#84858C" opacity="1.000000" stroke="none" 
	d="
M104.566971,40.884842 
	C104.545532,41.012802 104.364876,41.033257 104.274643,41.041321 
	C104.184418,41.049385 104.263901,40.708351 104.263901,40.708351 
	C104.263901,40.708351 104.588402,40.756886 104.566971,40.884842 
z"/>
<path fill="#040404" opacity="1.000000" stroke="none" 
	d="
M97.960968,44.679390 
	C98.305260,45.228039 98.649544,45.776691 99.069229,46.984558 
	C99.603409,48.022366 100.062180,48.400963 100.520950,48.779560 
	C100.454643,49.582428 100.388344,50.385296 100.233170,51.925442 
	C100.892731,53.416702 101.641159,54.170689 102.389587,54.924675 
	C102.163544,56.166965 101.937508,57.409252 101.645279,59.015312 
	C95.976707,59.015312 90.449997,59.015312 84.109016,59.062778 
	C82.819397,59.091457 82.344048,59.072666 81.877869,58.650993 
	C82.425934,55.576385 80.899956,54.994480 78.760406,54.664452 
	C78.718742,52.790138 78.614464,51.348293 78.579590,49.556015 
	C78.659019,48.492508 78.669044,47.779438 78.779037,46.695610 
	C76.767303,40.937378 73.800751,36.324333 67.632561,34.278301 
	C66.818375,34.277885 66.353104,34.294815 65.943535,34.219582 
	C65.999245,34.127422 65.815063,34.015770 65.815063,34.015770 
	C65.991966,32.303036 66.168869,30.590302 66.333664,28.212364 
	C66.223618,27.035486 66.125679,26.523813 66.027740,26.012138 
	C67.060768,25.636078 68.093796,25.260015 69.932465,24.886818 
	C72.499908,25.352072 74.261726,25.814459 76.023537,26.276846 
	C78.075569,26.990488 80.127602,27.704128 82.470062,28.996161 
	C83.168266,29.665075 83.576035,29.755598 83.983810,29.846121 
	C84.788513,30.496691 85.593224,31.147261 86.859657,32.151207 
	C89.898552,34.996368 92.475716,37.488155 95.052887,39.979942 
	C95.730095,41.099758 96.407303,42.219578 97.158531,43.896667 
	C97.232559,44.453938 97.539948,44.750229 97.539948,44.750229 
	C97.539948,44.750229 97.960968,44.679390 97.960968,44.679390 
z"/>
<path fill="#040303" opacity="1.000000" stroke="none" 
	d="
M52.902355,24.767517 
	C53.677559,24.793856 54.452763,24.820192 55.863419,24.853764 
	C56.666668,24.825226 56.834465,24.789454 57.002266,24.753679 
	C57.810047,24.761106 58.617825,24.768534 59.829845,25.072664 
	C60.345558,27.821289 60.549736,30.275331 60.493668,32.723412 
	C60.481842,33.239853 59.516323,33.734451 58.626045,34.202095 
	C57.396641,34.799126 56.547062,35.455914 55.663479,36.063229 
	C52.053581,38.544441 49.062527,41.453396 48.520412,46.587982 
	C48.377937,49.854141 48.297329,52.664677 47.846798,55.363892 
	C46.640202,56.154335 45.803524,57.056091 44.741241,57.971130 
	C44.007885,58.303509 43.500130,58.622601 42.992374,58.941696 
	C37.206619,58.941696 31.420862,58.941696 25.661041,58.941696 
	C24.598495,47.160908 34.352478,32.640350 50.790268,26.575012 
	C51.890400,26.023804 52.396378,25.395662 52.902355,24.767517 
z"/>
<path fill="#030303" opacity="1.000000" stroke="none" 
	d="
M101.966774,66.086975 
	C102.025146,67.165314 102.083519,68.243652 101.898170,69.794327 
	C101.193367,70.845993 100.732292,71.425323 100.271217,72.004646 
	C99.852242,74.135056 99.433273,76.265472 98.785744,78.959526 
	C98.103989,80.015938 97.650787,80.508698 97.197594,81.001465 
	C96.217751,82.465324 95.237915,83.929184 93.853928,85.889587 
	C91.643814,88.260811 89.837852,90.135498 88.031891,92.010193 
	C82.487434,94.698479 77.015038,97.557953 71.343956,99.945503 
	C70.049431,100.490501 68.068878,99.406021 66.576157,98.427948 
	C67.063644,94.294083 67.379059,90.803787 67.715355,87.082405 
	C69.989906,87.082405 72.147232,87.329002 74.218552,87.012581 
	C76.261963,86.700424 78.218330,85.818527 80.573517,85.134125 
	C81.273750,84.047615 81.613365,83.013550 82.305130,81.736969 
	C82.733376,77.446861 82.653603,73.386658 82.979500,69.359283 
	C83.078659,68.133934 84.296295,66.999084 85.001663,65.822784 
	C85.752747,65.868225 86.503838,65.913681 88.087395,65.959076 
	C93.268829,66.001671 97.617805,66.044319 101.966774,66.086975 
z"/>
<path fill="#030303" opacity="1.000000" stroke="none" 
	d="
M60.636864,98.828926 
	C56.657475,102.521881 52.589821,99.044212 49.531658,97.850609 
	C39.447159,93.914619 31.775894,86.714523 27.517942,76.482780 
	C26.219120,73.361740 25.556704,69.975853 24.387753,65.975182 
	C30.857458,65.975182 36.458374,65.975182 42.520226,66.460129 
	C42.980598,71.040657 42.824631,75.145546 43.069019,79.226463 
	C43.147903,80.543800 44.279175,81.798111 44.952805,83.432816 
	C45.611656,84.229622 46.246735,84.674858 46.825531,85.136887 
	C46.769245,85.153694 46.796219,85.268044 46.956860,85.641312 
	C51.222530,86.565384 55.327560,87.116188 58.825790,87.585571 
	C59.431950,91.348671 60.034405,95.088799 60.636864,98.828926 
z"/>
<path fill="#636362" opacity="1.000000" stroke="none" 
	d="
M60.781342,98.469177 
	C60.034405,95.088799 59.431950,91.348671 58.825790,87.585571 
	C55.327560,87.116188 51.222530,86.565384 47.437038,85.591263 
	C58.575348,85.174156 69.394119,85.180374 80.212891,85.186584 
	C78.218330,85.818527 76.261963,86.700424 74.218552,87.012581 
	C72.147232,87.329002 69.989906,87.082405 67.715355,87.082405 
	C67.379059,90.803787 67.063644,94.294083 66.515930,98.066956 
	C66.124443,96.230827 66.224693,94.048286 65.723885,92.013680 
	C65.324158,90.389740 64.192162,88.946045 63.385201,87.422340 
	C62.645805,89.020088 61.614773,90.553528 61.244469,92.232674 
	C60.827572,94.123077 61.006222,96.144814 60.781342,98.469177 
z"/>
<path fill="#605F5F" opacity="1.000000" stroke="none" 
	d="
M44.929031,83.081253 
	C44.279175,81.798111 43.147903,80.543800 43.069019,79.226463 
	C42.824631,75.145546 42.980598,71.040657 42.987728,66.478241 
	C43.015343,63.949188 43.036396,61.886974 43.024910,59.383224 
	C43.500130,58.622601 44.007885,58.303509 44.909882,58.229401 
	C45.417961,58.645638 45.531799,58.816879 45.580074,59.404778 
	C45.603928,67.120628 45.693344,74.419830 45.618202,81.931519 
	C45.278770,82.456421 45.103905,82.768837 44.929031,83.081253 
z"/>
<path fill="#84858C" opacity="1.000000" stroke="none" 
	d="
M84.915527,65.462875 
	C84.296295,66.999084 83.078659,68.133934 82.979500,69.359283 
	C82.653603,73.386658 82.733376,77.446861 82.089828,81.385361 
	C81.637802,73.868797 81.753250,66.461342 81.868698,59.053879 
	C82.344048,59.072666 82.819397,59.091457 83.648987,59.153984 
	C84.278618,61.166142 84.554008,63.134556 84.915527,65.462875 
z"/>
<path fill="#84858C" opacity="1.000000" stroke="none" 
	d="
M58.990234,34.239113 
	C59.516323,33.734451 60.481842,33.239853 60.493668,32.723412 
	C60.549736,30.275331 60.345558,27.821289 60.223358,24.966946 
	C60.810211,26.172291 61.261078,27.856211 62.045307,29.367100 
	C62.883911,30.982737 64.036850,32.435215 65.433823,33.987339 
	C65.815063,34.015770 65.999245,34.127422 65.791046,34.519501 
	C63.385315,34.687428 61.187778,34.463272 58.990234,34.239113 
z"/>
<path fill="#84858C" opacity="1.000000" stroke="none" 
	d="
M95.189087,39.717316 
	C92.475716,37.488155 89.898552,34.996368 87.180008,32.197479 
	C92.211060,31.771442 94.433228,34.884502 95.189087,39.717316 
z"/>
<path fill="#84858C" opacity="1.000000" stroke="none" 
	d="
M101.792175,65.743744 
	C97.617805,66.044319 93.268829,66.001671 88.459473,65.893105 
	C92.445633,62.718201 97.009346,63.348839 101.792175,65.743744 
z"/>
<path fill="#84858C" opacity="1.000000" stroke="none" 
	d="
M88.391174,91.977257 
	C89.837852,90.135498 91.643814,88.260811 93.731102,86.212341 
	C92.258446,88.007149 90.504456,89.975739 88.391174,91.977257 
z"/>
<path fill="#84858C" opacity="1.000000" stroke="none" 
	d="
M75.976547,25.990070 
	C74.261726,25.814459 72.499908,25.352072 70.368034,24.816902 
	C72.397202,22.453966 74.425148,22.459846 75.976547,25.990070 
z"/>
<path fill="#84858C" opacity="1.000000" stroke="none" 
	d="
M102.609131,54.804596 
	C101.641159,54.170689 100.892731,53.416702 100.236343,52.328224 
	C101.161819,52.890652 101.995247,53.787582 102.609131,54.804596 
z"/>
<path fill="#84858C" opacity="1.000000" stroke="none" 
	d="
M100.529114,71.983093 
	C100.732292,71.425323 101.193367,70.845993 101.966080,70.193619 
	C101.780807,70.734230 101.283905,71.347878 100.529114,71.983093 
z"/>
<path fill="#84858C" opacity="1.000000" stroke="none" 
	d="
M52.658974,24.705452 
	C52.396378,25.395662 51.890400,26.023804 51.141624,26.528454 
	C51.404415,25.817768 51.910000,25.230576 52.658974,24.705452 
z"/>
<path fill="#84858C" opacity="1.000000" stroke="none" 
	d="
M100.552010,48.568539 
	C100.062180,48.400963 99.603409,48.022366 99.151779,47.321106 
	C99.633636,47.451469 100.108353,47.904491 100.552010,48.568539 
z"/>
<path fill="#84858C" opacity="1.000000" stroke="none" 
	d="
M65.888687,26.158066 
	C66.125679,26.523813 66.223618,27.035486 66.216751,27.794413 
	C65.991173,27.462439 65.870407,26.883215 65.888687,26.158066 
z"/>
<path fill="#84858C" opacity="1.000000" stroke="none" 
	d="
M97.448318,80.903999 
	C97.650787,80.508698 98.103989,80.015938 98.811203,79.378166 
	C98.609825,79.757622 98.154427,80.282082 97.448318,80.903999 
z"/>
<path fill="#84858C" opacity="1.000000" stroke="none" 
	d="
M56.956829,24.606327 
	C56.834465,24.789454 56.666668,24.825226 56.248066,24.803400 
	C56.301968,24.650192 56.606682,24.554583 56.956829,24.606327 
z"/>
<path fill="#84858C" opacity="1.000000" stroke="none" 
	d="
M83.777679,29.675339 
	C83.576035,29.755598 83.168266,29.665075 82.712021,29.255573 
	C82.966217,29.125916 83.268883,29.315235 83.777679,29.675339 
z"/>
<path fill="#84858C" opacity="1.000000" stroke="none" 
	d="
M97.856194,44.557297 
	C97.960968,44.679390 97.539948,44.750229 97.539948,44.750229 
	C97.539948,44.750229 97.232559,44.453938 97.243690,44.240753 
	C97.435783,44.144646 97.601318,44.280525 97.856194,44.557297 
z"/>
<path fill="#8C8D97" opacity="1.000000" stroke="none" 
	d="
M81.877869,58.650993 
	C81.753250,66.461342 81.637802,73.868797 81.737671,81.627876 
	C81.613365,83.013550 81.273750,84.047615 80.573517,85.134125 
	C69.394119,85.180374 58.575348,85.174156 47.276398,85.217995 
	C46.796219,85.268044 46.769245,85.153694 46.990440,84.947693 
	C49.899891,82.238197 45.994701,82.851547 45.782764,81.719025 
	C45.693344,74.419830 45.603928,67.120628 45.885571,59.317482 
	C46.951172,57.716740 47.645710,56.619953 48.585320,55.710762 
	C50.161514,55.906734 51.492641,55.915104 53.216927,55.964569 
	C58.397488,55.851254 63.184887,55.696838 68.355164,55.436123 
	C69.520592,55.226326 70.303131,55.122833 71.313263,55.004425 
	C71.540848,54.989506 71.996986,54.987488 71.995949,55.232151 
	C71.994911,55.476814 71.990791,55.966122 72.269638,56.178207 
	C74.309502,56.038414 76.070526,55.686535 78.048676,55.277298 
	C78.265800,55.219944 78.697792,55.096928 78.697792,55.096928 
	C80.899956,54.994480 82.425934,55.576385 81.877869,58.650993 
M61.520996,74.973862 
	C62.454517,75.677048 63.388039,76.380234 64.245247,77.025932 
	C65.236572,73.134888 66.083008,69.812531 66.958076,66.377792 
	C64.572876,65.931564 62.551674,65.553444 59.794392,65.037605 
	C60.235149,66.683563 60.182724,68.655174 60.985382,69.106689 
	C64.303246,70.973061 62.282383,72.590302 61.520996,74.973862 
z"/>
<path fill="#8E8F92" opacity="1.000000" stroke="none" 
	d="
M67.972282,55.542427 
	C63.184887,55.696838 58.397488,55.851254 53.356041,55.644169 
	C53.068237,52.852230 53.034485,50.421783 53.030746,47.625870 
	C53.566685,45.221313 54.072601,43.182228 54.578518,41.143143 
	C54.087917,40.987991 53.597313,40.832840 53.106712,40.677689 
	C52.396172,42.481579 51.685627,44.285473 50.674759,46.101089 
	C49.777050,46.119328 49.179665,46.125839 48.582279,46.132355 
	C49.062527,41.453396 52.053581,38.544441 55.663479,36.063229 
	C56.547062,35.455914 57.396641,34.799126 58.626045,34.202095 
	C61.187778,34.463272 63.385315,34.687428 65.735336,34.611664 
	C66.353104,34.294815 66.818375,34.277885 67.670990,34.610096 
	C69.044296,36.623089 70.030273,38.286945 70.665070,40.053432 
	C69.436813,40.954689 68.559738,41.753307 67.295456,42.379898 
	C58.309578,40.244762 54.389259,45.921551 56.207726,53.987579 
	C60.332455,54.532719 64.152367,55.037571 67.972282,55.542427 
z"/>
<path fill="#A1A2A8" opacity="1.000000" stroke="none" 
	d="
M67.682663,42.551926 
	C68.559738,41.753307 69.436813,40.954689 70.701416,40.318321 
	C71.110649,40.657131 71.132362,40.833691 71.261688,41.162674 
	C71.533768,41.506050 71.730949,41.653160 72.286545,41.854488 
	C73.586067,42.933189 74.500809,43.983490 75.550987,44.874065 
	C76.517990,45.694096 77.630600,46.342411 78.679070,47.066368 
	C78.669044,47.779438 78.659019,48.492508 78.263794,49.685097 
	C77.862907,51.887959 77.847221,53.611309 77.831543,55.334656 
	C76.070526,55.686535 74.309502,56.038414 72.356216,56.068485 
	C72.274734,55.463985 72.219086,55.210922 71.996986,54.987488 
	C71.996986,54.987488 71.540848,54.989506 71.434738,54.631195 
	C71.534271,52.219086 71.739906,50.165283 71.923813,47.778217 
	C71.072227,46.609959 70.242386,45.774963 69.286484,44.655045 
	C68.667831,43.764050 68.175247,43.157990 67.682663,42.551926 
z"/>
<path fill="#84858C" opacity="1.000000" stroke="none" 
	d="
M71.154076,41.010246 
	C71.132362,40.833691 71.110649,40.657131 71.052597,40.215687 
	C70.030273,38.286945 69.044296,36.623089 68.019897,34.627438 
	C73.800751,36.324333 76.767303,40.937378 78.779037,46.695610 
	C77.630600,46.342411 76.517990,45.694096 75.550987,44.874065 
	C74.500809,43.983490 73.586067,42.933189 72.161896,41.722137 
	C71.536621,41.318611 71.350800,41.158115 71.154076,41.010246 
z"/>
<path fill="#84858C" opacity="1.000000" stroke="none" 
	d="
M78.048668,55.277298 
	C77.847221,53.611309 77.862907,51.887959 78.194382,50.035530 
	C78.614464,51.348293 78.718742,52.790138 78.760406,54.664452 
	C78.697792,55.096928 78.265800,55.219944 78.048668,55.277298 
z"/>
<path fill="#BDBEC0" opacity="1.000000" stroke="none" 
	d="
M53.000729,47.991341 
	C53.034485,50.421783 53.068237,52.852230 52.962879,55.603073 
	C51.492641,55.915104 50.161514,55.906734 48.565132,55.672386 
	C48.299870,55.446411 48.216717,55.475208 48.216717,55.475208 
	C48.297329,52.664677 48.377937,49.854141 48.520412,46.587982 
	C49.179665,46.125839 49.777050,46.119328 50.819939,46.343727 
	C51.843872,47.046871 52.422298,47.519104 53.000729,47.991341 
z"/>
<path fill="#8E8F92" opacity="1.000000" stroke="none" 
	d="
M47.846798,55.363892 
	C48.216717,55.475208 48.299870,55.446411 48.320061,55.484787 
	C47.645710,56.619953 46.951172,57.716740 45.951138,58.900826 
	C45.531799,58.816879 45.417961,58.645638 45.135483,58.216122 
	C45.803524,57.056091 46.640202,56.154335 47.846798,55.363892 
z"/>
<path fill="#8E8F92" opacity="1.000000" stroke="none" 
	d="
M45.618202,81.931519 
	C45.994701,82.851547 49.899891,82.238197 47.046722,84.930893 
	C46.246735,84.674858 45.611656,84.229622 44.952805,83.432816 
	C45.103905,82.768837 45.278770,82.456421 45.618202,81.931519 
z"/>
<path fill="#030303" opacity="1.000000" stroke="none" 
	d="
M67.295456,42.379898 
	C68.175247,43.157990 68.667831,43.764050 69.170059,44.973061 
	C70.101654,46.421169 71.023598,47.266327 71.945541,48.111485 
	C71.739906,50.165283 71.534271,52.219086 71.207153,54.646111 
	C70.303131,55.122833 69.520592,55.226326 68.355164,55.436123 
	C64.152367,55.037571 60.332455,54.532719 56.207726,53.987579 
	C54.389259,45.921551 58.309578,40.244762 67.295456,42.379898 
z"/>
<path fill="#090908" opacity="1.000000" stroke="none" 
	d="
M61.315277,74.657471 
	C62.282383,72.590302 64.303246,70.973061 60.985382,69.106689 
	C60.182724,68.655174 60.235149,66.683563 59.794392,65.037605 
	C62.551674,65.553444 64.572876,65.931564 66.958076,66.377792 
	C66.083008,69.812531 65.236572,73.134888 64.245247,77.025932 
	C63.388039,76.380234 62.454517,75.677048 61.315277,74.657471 
z"/>
<path fill="#8E8F92" opacity="1.000000" stroke="none" 
	d="
M71.995949,55.232151 
	C72.219086,55.210922 72.274734,55.463985 72.077362,55.856400 
	C71.990791,55.966122 71.994911,55.476814 71.995949,55.232151 
z"/>
<path fill="#8C8D97" opacity="1.000000" stroke="none" 
	d="
M53.030746,47.625870 
	C52.422298,47.519104 51.843872,47.046871 51.120262,46.332001 
	C51.685627,44.285473 52.396172,42.481579 53.106712,40.677689 
	C53.597313,40.832840 54.087917,40.987991 54.578518,41.143143 
	C54.072601,43.182228 53.566685,45.221313 53.030746,47.625870 
z"/>
<path fill="#8E8F92" opacity="1.000000" stroke="none" 
	d="
M71.923805,47.778217 
	C71.023598,47.266327 70.101654,46.421169 69.296127,45.257992 
	C70.242386,45.774963 71.072227,46.609959 71.923805,47.778217 
z"/>
<path fill="#8E8F92" opacity="1.000000" stroke="none" 
	d="
M71.261688,41.162674 
	C71.350800,41.158115 71.536621,41.318611 71.836182,41.624084 
	C71.730949,41.653160 71.533768,41.506050 71.261688,41.162674 
z"/>
</svg>