<svg id="svg" version="1.1" xmlns="http://www.w3.org/2000/svg" xmlns:xlink="http://www.w3.org/1999/xlink" width="400" height="400" viewBox="0, 0, 400,400"><g id="svgg"><path id="path0" d="M131.567 20.562 C 130.499 20.910,129.974 21.487,129.011 23.372 L 127.800 25.743 127.694 69.172 C 127.624 97.870,127.728 113.262,128.001 114.551 C 129.047 119.497,133.980 121.911,136.957 118.934 C 139.548 116.342,139.382 119.686,139.391 70.000 L 139.400 25.000 138.529 23.373 C 137.094 20.693,134.446 19.623,131.567 20.562 M260.309 21.183 C 257.924 23.064,257.979 21.908,257.983 70.200 C 257.985 97.646,258.133 114.705,258.377 115.541 C 260.278 122.066,267.743 121.433,269.214 114.623 C 269.920 111.352,269.555 25.868,268.826 23.909 C 267.604 20.626,262.917 19.126,260.309 21.183 M98.800 50.679 C 97.829 51.179,97.063 52.066,96.300 53.572 L 95.200 55.743 95.200 76.695 C 95.200 99.419,95.266 100.218,97.344 102.621 C 100.243 105.975,105.328 104.023,106.372 99.155 C 106.644 97.886,106.800 89.697,106.800 76.644 L 106.800 56.128 105.588 53.703 C 103.766 50.057,101.751 49.159,98.800 50.679 M163.714 50.764 C 162.991 51.217,161.977 52.462,161.398 53.604 L 160.368 55.637 160.484 77.319 C 160.598 98.635,160.615 99.032,161.473 100.889 C 163.705 105.721,169.445 105.244,171.278 100.074 C 172.180 97.528,172.024 55.388,171.107 53.800 C 169.030 50.205,166.355 49.106,163.714 50.764 M228.713 50.672 C 228.116 51.055,227.075 52.490,226.400 53.861 L 225.173 56.353 225.287 77.676 C 225.399 98.792,225.409 99.016,226.282 100.650 C 228.781 105.320,233.207 105.576,235.778 101.199 C 236.909 99.275,237.296 57.013,236.209 54.168 C 234.885 50.700,231.286 49.021,228.713 50.672 M293.678 50.785 C 292.855 51.302,291.989 52.404,291.382 53.707 L 290.408 55.800 290.404 76.829 C 290.400 99.780,290.421 100.018,292.719 102.771 C 295.230 105.779,300.229 104.017,301.534 99.664 C 302.413 96.728,302.155 55.773,301.244 53.800 C 299.659 50.366,296.410 49.071,293.678 50.785 M196.794 72.554 C 195.831 72.869,195.083 73.563,194.248 74.915 L 193.067 76.829 193.104 88.115 C 193.145 100.313,193.203 100.698,195.361 102.986 C 198.011 105.796,201.494 104.695,203.543 100.400 C 204.591 98.204,204.593 98.181,204.597 88.000 L 204.600 77.800 203.501 75.714 C 202.896 74.567,202.086 73.462,201.701 73.258 C 200.054 72.385,198.148 72.112,196.794 72.554 M65.695 73.018 C 62.951 74.941,61.355 92.308,63.237 99.780 C 64.644 105.368,70.522 105.875,73.318 100.650 C 74.731 98.007,74.673 78.848,73.242 75.680 C 71.850 72.598,68.155 71.295,65.695 73.018 M326.195 72.846 C 323.628 74.095,323.411 75.161,323.278 87.170 C 323.136 99.963,323.147 100.048,325.128 102.340 C 327.956 105.611,331.468 104.918,333.696 100.650 C 334.515 99.081,334.558 98.461,334.579 88.000 L 334.600 77.000 333.420 75.128 C 331.785 72.534,328.783 71.587,326.195 72.846 M181.520 147.793 C 172.646 149.308,168.090 155.270,167.694 165.888 C 167.281 176.961,170.385 181.462,182.128 186.819 C 192.845 191.708,186.368 201.852,174.467 198.818 C 167.617 197.072,167.614 197.074,167.606 204.624 C 167.599 211.494,167.494 211.323,172.400 212.417 C 183.908 214.981,194.266 211.058,197.597 202.872 C 202.966 189.679,197.873 175.868,186.517 172.829 C 185.591 172.581,184.724 172.201,184.590 171.983 C 184.456 171.766,183.624 171.221,182.743 170.771 C 179.090 168.907,179.170 163.724,182.882 161.732 C 184.494 160.867,190.048 160.770,192.853 161.558 C 196.165 162.487,196.400 162.118,196.400 156.005 C 196.400 148.524,196.223 148.311,189.600 147.805 C 187.730 147.663,185.840 147.483,185.400 147.406 C 184.960 147.329,183.214 147.503,181.520 147.793 M106.804 148.039 C 98.983 149.571,90.978 158.476,88.752 168.121 C 86.997 175.721,86.696 185.873,88.102 190.000 C 88.439 190.990,88.921 192.811,89.174 194.046 C 91.913 207.443,108.992 217.014,120.503 211.603 C 122.899 210.477,123.040 209.982,123.018 202.716 C 122.995 194.633,123.135 194.811,118.020 196.415 C 110.612 198.737,105.175 196.255,101.736 188.982 C 99.922 185.144,100.008 175.021,101.888 171.143 C 105.275 164.154,112.893 161.183,119.191 164.395 C 122.437 166.051,122.556 165.873,122.906 158.865 C 123.245 152.073,122.935 149.969,121.450 148.996 C 119.649 147.816,110.874 147.242,106.804 148.039 M230.955 148.179 C 222.983 150.427,217.202 156.702,213.496 167.128 C 210.980 174.209,211.647 190.932,214.688 197.000 C 220.272 208.142,227.801 213.431,237.600 213.097 C 241.780 212.955,245.043 212.024,246.971 210.424 C 247.730 209.794,247.909 197.324,247.178 195.960 C 246.673 195.014,244.767 195.222,242.229 196.498 C 236.563 199.349,229.669 196.055,226.266 188.872 C 224.423 184.981,224.347 175.246,226.129 171.400 C 229.409 164.325,237.526 161.168,243.797 164.530 C 247.409 166.466,247.600 166.110,247.600 157.449 C 247.600 150.030,247.390 149.436,244.400 148.399 C 242.199 147.636,233.391 147.491,230.955 148.179 M279.200 148.169 C 273.368 149.930,267.770 155.048,264.499 161.611 C 263.345 163.927,262.400 166.137,262.400 166.521 C 262.400 166.905,262.015 168.250,261.545 169.510 C 260.006 173.632,260.006 184.914,261.544 190.600 C 263.815 198.994,265.237 201.585,270.761 207.400 C 273.755 210.552,280.063 213.173,284.695 213.190 C 287.621 213.200,294.843 211.301,295.419 210.370 C 295.555 210.149,296.417 209.496,297.334 208.919 C 307.906 202.267,313.398 180.537,307.989 166.763 C 304.953 159.035,298.673 150.400,296.088 150.400 C 295.881 150.400,294.593 149.823,293.225 149.117 C 290.294 147.606,282.753 147.096,279.200 148.169 M140.400 148.791 C 139.661 149.258,139.087 208.360,139.800 210.563 L 140.200 211.800 145.000 212.000 C 149.206 212.175,149.887 212.113,150.500 211.500 C 151.516 210.484,151.590 150.735,150.577 149.289 C 149.900 148.322,141.772 147.925,140.400 148.791 M289.140 164.286 C 295.732 167.381,299.377 178.115,296.585 186.206 C 291.338 201.412,277.371 200.429,273.215 184.561 C 271.114 176.540,275.389 166.502,282.018 163.892 C 283.332 163.375,287.716 163.617,289.140 164.286 M21.600 305.165 C 10.671 308.914,6.385 320.874,12.586 330.321 C 14.446 333.157,22.424 338.400,24.877 338.400 C 25.200 338.400,26.350 338.849,27.432 339.398 C 28.514 339.947,29.589 340.397,29.820 340.398 C 30.397 340.401,34.746 343.269,36.120 344.553 C 39.761 347.954,39.239 355.436,35.114 358.991 C 32.158 361.539,31.423 361.791,27.000 361.777 C 21.191 361.759,18.676 360.020,15.980 354.156 C 14.313 350.532,13.679 350.071,11.038 350.567 C 9.132 350.924,8.670 351.631,9.001 353.686 C 9.751 358.347,13.273 363.833,17.076 366.266 C 27.238 372.766,40.949 367.810,44.263 356.439 C 47.044 346.893,43.062 338.239,33.862 333.836 C 29.238 331.624,24.576 329.600,24.102 329.600 C 23.637 329.600,20.094 327.322,18.862 326.231 C 16.414 324.063,15.928 319.511,17.781 316.106 C 21.521 309.234,33.056 310.192,36.845 317.690 C 39.036 322.028,44.961 322.815,44.290 318.679 C 43.555 314.147,39.278 308.676,34.600 306.283 C 32.059 304.983,24.121 304.301,21.600 305.165 M361.708 305.881 C 359.228 306.360,359.330 304.975,359.381 337.410 C 359.432 370.582,359.173 368.000,362.448 368.000 C 365.266 368.000,365.200 368.360,365.200 352.873 L 365.200 339.003 366.245 335.864 C 367.976 330.667,370.083 328.965,374.399 329.277 C 380.219 329.698,380.851 331.824,380.820 350.897 C 380.793 368.156,380.757 367.981,384.286 367.994 C 386.841 368.003,386.800 368.288,386.800 350.497 C 386.800 332.526,386.523 330.469,383.518 326.144 C 380.309 321.525,373.230 320.720,368.548 324.442 C 365.506 326.859,365.427 326.665,365.200 316.160 C 364.965 305.291,364.952 305.255,361.708 305.881 M146.089 306.623 L 145.200 307.245 145.200 337.000 L 145.200 366.755 146.089 367.377 C 147.075 368.068,149.470 368.196,150.400 367.608 C 151.247 367.073,151.279 307.659,150.433 306.640 C 149.750 305.817,147.254 305.807,146.089 306.623 M181.944 306.765 L 181.000 307.529 180.892 336.777 C 180.776 368.272,180.718 367.398,182.970 367.821 C 186.698 368.520,186.834 367.952,186.784 351.966 C 186.737 337.256,186.927 335.898,189.556 332.131 C 191.304 329.625,192.129 329.200,195.239 329.200 C 201.600 329.200,202.326 331.810,202.375 354.871 C 202.404 368.420,202.300 368.000,205.614 368.000 C 208.560 368.000,208.464 368.654,208.324 349.482 L 208.200 332.600 207.200 330.012 C 204.326 322.575,195.874 319.656,190.443 324.225 C 189.261 325.220,187.220 326.153,186.908 325.841 C 186.808 325.741,186.698 321.492,186.663 316.398 C 186.604 307.731,186.550 307.099,185.824 306.568 C 184.739 305.775,183.061 305.860,181.944 306.765 M55.931 312.455 C 54.523 312.970,54.000 314.575,54.000 318.383 C 54.000 321.901,53.676 322.502,51.400 323.208 C 47.290 324.483,47.612 329.299,51.867 330.185 C 53.708 330.569,53.700 330.507,53.860 346.121 C 54.045 364.247,54.559 366.365,59.264 368.389 C 63.421 370.177,66.601 369.195,67.030 365.990 C 67.418 363.092,66.835 362.163,64.450 361.881 C 59.844 361.335,59.871 361.436,59.898 344.750 C 59.922 329.486,59.808 330.000,63.186 330.000 C 66.274 330.000,66.800 329.474,66.800 326.386 C 66.800 323.677,66.329 323.200,63.652 323.200 C 60.236 323.200,60.110 323.023,59.937 317.985 C 59.747 312.418,58.968 311.343,55.931 312.455 M306.946 312.468 C 305.647 313.097,305.200 314.522,305.200 318.037 C 305.200 321.482,304.289 323.200,302.462 323.200 C 299.004 323.200,298.812 329.191,302.250 329.836 C 304.789 330.312,304.800 330.378,304.800 344.654 C 304.800 357.899,305.160 362.016,306.555 364.713 C 308.874 369.197,316.679 370.817,317.980 367.085 C 319.000 364.160,318.056 362.000,315.757 362.000 C 311.193 362.000,311.010 361.375,310.962 345.601 C 310.913 329.211,310.686 330.310,314.226 329.800 C 317.903 329.270,318.000 329.182,318.000 326.400 C 318.000 323.634,317.870 323.515,314.468 323.161 C 311.100 322.810,311.037 322.713,310.861 317.577 C 310.679 312.257,309.786 311.092,306.946 312.468 M162.657 313.000 C 162.056 313.601,161.674 315.898,161.496 319.987 C 161.393 322.333,161.118 322.624,158.200 323.469 C 155.638 324.210,156.536 330.000,159.213 330.000 C 161.393 330.000,161.382 329.931,161.618 346.067 C 161.894 364.927,162.417 366.878,167.663 368.621 C 172.371 370.185,174.894 368.826,174.717 364.823 L 174.600 362.200 172.395 361.963 C 167.644 361.452,167.603 361.310,167.608 345.000 C 167.612 329.742,167.478 330.299,171.228 329.975 C 174.683 329.676,174.800 329.572,174.800 326.805 C 174.800 323.739,174.267 323.200,171.233 323.200 C 167.953 323.200,167.600 322.703,167.600 318.087 C 167.600 313.265,167.199 312.400,164.964 312.400 C 163.980 312.400,163.003 312.654,162.657 313.000 M82.400 322.989 C 77.515 324.324,73.712 328.718,72.438 334.497 C 70.017 345.476,70.506 353.989,73.935 360.600 C 80.383 373.029,96.833 371.586,101.046 358.222 C 101.912 355.473,101.683 355.212,98.400 355.212 C 95.813 355.212,95.540 355.355,94.594 357.200 C 91.271 363.682,84.024 364.098,79.934 358.042 C 78.993 356.649,76.800 350.321,76.800 349.000 C 76.800 347.747,78.146 347.600,89.619 347.600 L 101.182 347.600 101.838 346.598 C 103.162 344.577,101.609 334.827,99.144 329.689 C 97.889 327.073,94.148 323.429,92.283 323.007 C 86.855 321.776,86.836 321.776,82.400 322.989 M119.372 322.397 C 114.259 323.148,109.862 327.601,109.299 332.600 C 108.808 336.953,113.715 337.077,115.746 332.762 C 119.057 325.727,129.034 327.582,130.227 335.454 C 130.695 338.545,129.336 339.625,123.464 340.828 C 112.601 343.053,108.630 346.900,108.099 355.710 C 107.392 367.449,119.607 373.779,127.466 365.746 C 129.696 363.466,129.730 363.469,131.006 366.000 C 132.158 368.285,134.563 368.845,135.777 367.111 C 136.507 366.069,136.697 340.837,136.020 334.945 C 134.955 325.685,128.764 321.019,119.372 322.397 M276.967 322.730 C 272.893 323.936,270.387 325.970,268.748 329.400 C 266.652 333.784,267.306 335.723,270.812 335.524 L 273.000 335.400 274.000 333.344 C 277.486 326.176,286.723 326.949,288.424 334.551 C 289.291 338.426,287.049 340.308,280.446 341.248 C 269.789 342.766,264.330 350.944,267.254 361.009 C 269.695 369.408,279.672 371.956,286.000 365.797 C 288.051 363.800,288.804 363.877,289.767 366.183 C 290.669 368.340,293.634 368.614,294.396 366.611 C 295.026 364.953,294.482 333.376,293.782 331.000 C 291.754 324.118,284.435 320.518,276.967 322.730 M333.200 322.910 C 330.325 323.894,327.950 325.567,326.827 327.400 C 318.340 341.246,321.412 363.914,332.330 368.018 C 336.499 369.585,340.368 369.415,344.322 367.490 C 347.368 366.007,351.600 359.375,351.600 356.086 C 351.600 351.807,346.559 352.768,344.337 357.471 C 342.458 361.448,339.507 362.923,335.694 361.791 C 325.603 358.794,325.967 331.151,336.123 329.254 C 339.794 328.568,344.400 331.095,344.400 333.796 C 344.400 336.040,350.588 336.931,351.336 334.795 C 351.859 333.301,349.591 328.154,347.461 326.000 C 343.867 322.365,338.311 321.161,333.200 322.910 M214.598 323.752 C 213.860 324.291,213.860 324.379,214.573 327.452 C 216.136 334.184,216.777 337.083,217.169 339.200 C 217.643 341.762,218.831 347.476,219.957 352.600 C 220.804 356.457,221.226 358.455,222.202 363.227 C 223.098 367.600,223.469 368.000,226.641 368.000 C 229.536 368.000,231.200 366.943,231.200 365.102 C 231.200 364.588,231.491 363.095,231.847 361.784 C 232.559 359.158,233.643 354.329,234.625 349.400 C 234.976 347.640,235.499 345.480,235.787 344.600 C 236.074 343.720,236.438 341.873,236.595 340.495 C 237.014 336.806,239.201 334.862,239.757 337.683 C 240.168 339.769,242.046 348.316,242.419 349.800 C 242.640 350.680,243.148 352.947,243.549 354.838 C 243.949 356.729,244.402 358.479,244.555 358.727 C 244.708 358.975,245.095 360.668,245.415 362.489 C 246.213 367.034,246.822 367.768,249.922 367.919 C 253.653 368.100,253.699 368.020,255.983 357.400 C 256.457 355.200,257.193 351.870,257.620 350.000 C 258.047 348.130,258.565 345.485,258.772 344.122 C 258.979 342.759,259.328 341.308,259.547 340.898 C 259.767 340.488,260.227 338.634,260.570 336.776 C 260.913 334.919,261.464 332.422,261.793 331.227 C 263.487 325.086,263.043 323.200,259.903 323.200 C 257.259 323.200,257.127 323.503,255.225 333.907 C 254.515 337.787,252.707 346.919,251.589 352.269 C 251.108 354.568,250.363 355.526,249.695 354.705 C 249.115 353.991,245.200 337.661,245.200 335.953 C 245.200 335.458,244.943 334.051,244.629 332.826 C 244.315 331.602,243.774 329.350,243.426 327.822 C 242.041 321.741,235.094 320.995,234.231 326.836 C 233.890 329.147,232.114 337.255,231.391 339.800 C 231.079 340.900,230.637 343.119,230.409 344.732 C 230.181 346.345,229.801 348.025,229.564 348.466 C 229.328 348.908,228.919 350.558,228.655 352.134 C 227.846 356.965,225.941 355.431,224.985 349.180 C 224.667 347.101,224.140 344.230,223.812 342.800 C 223.485 341.370,223.211 339.750,223.203 339.200 C 223.196 338.650,222.832 337.059,222.395 335.664 C 221.958 334.270,221.600 332.549,221.600 331.840 C 221.600 330.270,220.100 324.403,219.520 323.704 C 218.959 323.028,215.543 323.061,214.598 323.752 M90.154 329.217 C 92.925 330.254,94.649 332.698,95.303 336.518 C 96.070 340.998,95.819 341.128,86.385 341.135 C 78.366 341.142,77.999 341.034,78.002 338.686 C 78.012 331.668,84.076 326.943,90.154 329.217 M129.424 346.569 C 130.442 347.316,130.500 353.379,129.510 355.656 C 126.501 362.582,117.649 364.420,114.973 358.674 C 112.510 353.383,115.821 348.809,123.094 347.458 C 124.906 347.122,126.706 346.661,127.094 346.435 C 128.055 345.876,128.513 345.902,129.424 346.569 M287.917 346.500 C 288.688 347.429,288.904 352.437,288.264 354.508 C 285.425 363.686,274.179 365.083,273.040 356.400 C 272.459 351.972,275.513 348.580,280.994 347.567 C 282.212 347.342,283.791 346.904,284.504 346.595 C 286.130 345.888,287.380 345.853,287.917 346.500 " stroke="none" fill="#44556c" fill-rule="evenodd"></path><path id="path1" d="M0.000 200.000 L 0.000 400.000 200.000 400.000 L 400.000 400.000 400.000 200.000 L 400.000 0.000 200.000 0.000 L 0.000 0.000 0.000 200.000 M137.087 21.272 C 137.401 21.533,138.050 22.479,138.529 23.373 L 139.400 25.000 139.391 70.000 C 139.382 119.686,139.548 116.342,136.957 118.934 C 133.980 121.911,129.047 119.497,128.001 114.551 C 127.728 113.262,127.624 97.870,127.694 69.172 L 127.800 25.743 129.011 23.372 C 130.639 20.186,134.552 19.168,137.087 21.272 M267.323 21.528 C 269.435 23.512,269.370 22.105,269.516 69.000 C 269.610 99.494,269.520 113.208,269.214 114.623 C 267.743 121.433,260.278 122.066,258.377 115.541 C 257.650 113.046,257.860 26.602,258.599 24.122 C 259.717 20.370,264.558 18.930,267.323 21.528 M103.804 50.803 C 104.119 51.065,104.922 52.370,105.588 53.703 L 106.800 56.128 106.800 76.644 C 106.800 89.697,106.644 97.886,106.372 99.155 C 105.328 104.023,100.243 105.975,97.344 102.621 C 95.266 100.218,95.200 99.419,95.200 76.695 L 95.200 55.743 96.300 53.572 C 97.934 50.346,101.616 48.988,103.804 50.803 M169.495 51.504 C 171.929 54.409,171.800 52.988,171.800 76.800 C 171.800 101.007,171.845 100.563,169.177 102.974 C 166.457 105.431,163.158 104.538,161.473 100.889 C 160.615 99.032,160.598 98.635,160.484 77.319 L 160.368 55.637 161.398 53.604 C 163.277 49.895,167.277 48.858,169.495 51.504 M234.423 51.422 C 236.857 53.753,236.844 53.612,236.716 77.800 C 236.586 102.450,236.711 101.415,233.619 103.499 C 230.956 105.293,228.192 104.220,226.282 100.650 C 225.409 99.016,225.399 98.792,225.287 77.676 L 225.173 56.353 226.400 53.861 C 228.394 49.810,231.694 48.807,234.423 51.422 M299.478 51.254 C 302.014 53.589,301.982 53.262,301.991 76.754 C 302.001 100.693,302.039 100.325,299.291 102.857 C 296.117 105.783,292.644 104.442,291.015 99.661 C 290.492 98.128,290.401 94.702,290.404 76.829 L 290.408 55.800 291.382 53.707 C 293.092 50.034,296.900 48.880,299.478 51.254 M201.701 73.258 C 202.086 73.462,202.896 74.567,203.501 75.714 L 204.600 77.800 204.597 88.000 C 204.593 98.181,204.591 98.204,203.543 100.400 C 201.494 104.695,198.011 105.796,195.361 102.986 C 193.203 100.698,193.145 100.313,193.104 88.115 L 193.067 76.829 194.248 74.915 C 195.974 72.119,198.494 71.559,201.701 73.258 M71.162 72.980 C 73.768 74.328,74.200 76.521,74.200 88.400 C 74.200 100.242,74.059 100.933,71.136 103.393 C 68.471 105.635,64.222 103.691,63.237 99.780 C 62.243 95.834,62.676 77.283,63.806 75.354 C 65.515 72.437,68.346 71.524,71.162 72.980 M331.301 72.828 C 331.817 73.063,332.770 74.098,333.420 75.128 L 334.600 77.000 334.579 88.000 C 334.555 100.283,334.420 100.966,331.536 103.393 C 328.891 105.618,324.149 103.293,323.390 99.400 C 322.613 95.415,323.397 76.144,324.395 74.688 C 325.900 72.493,328.833 71.703,331.301 72.828 M189.600 147.805 C 196.223 148.311,196.400 148.524,196.400 156.005 C 196.400 162.118,196.165 162.487,192.853 161.558 C 190.048 160.770,184.494 160.867,182.882 161.732 C 179.170 163.724,179.090 168.907,182.743 170.771 C 183.624 171.221,184.456 171.766,184.590 171.983 C 184.724 172.201,185.591 172.581,186.517 172.829 C 197.873 175.868,202.966 189.679,197.597 202.872 C 194.266 211.058,183.908 214.981,172.400 212.417 C 167.494 211.323,167.599 211.494,167.606 204.624 C 167.614 197.074,167.617 197.072,174.467 198.818 C 186.368 201.852,192.845 191.708,182.128 186.819 C 170.385 181.462,167.281 176.961,167.694 165.888 C 168.090 155.270,172.646 149.308,181.520 147.793 C 183.214 147.503,184.960 147.329,185.400 147.406 C 185.840 147.483,187.730 147.663,189.600 147.805 M117.566 148.010 C 122.940 148.707,123.369 149.580,122.906 158.865 C 122.556 165.873,122.437 166.051,119.191 164.395 C 112.893 161.183,105.275 164.154,101.888 171.143 C 100.008 175.021,99.922 185.144,101.736 188.982 C 105.175 196.255,110.612 198.737,118.020 196.415 C 123.135 194.811,122.995 194.633,123.018 202.716 C 123.040 209.982,122.899 210.477,120.503 211.603 C 112.987 215.137,102.723 212.679,95.937 205.720 C 93.140 202.852,89.793 197.074,89.174 194.046 C 88.921 192.811,88.439 190.990,88.102 190.000 C 86.205 184.433,87.530 168.987,90.425 162.921 C 96.119 150.989,104.604 146.327,117.566 148.010 M244.400 148.399 C 247.390 149.436,247.600 150.030,247.600 157.449 C 247.600 166.110,247.409 166.466,243.797 164.530 C 237.526 161.168,229.409 164.325,226.129 171.400 C 224.347 175.246,224.423 184.981,226.266 188.872 C 229.669 196.055,236.563 199.349,242.229 196.498 C 244.767 195.222,246.673 195.014,247.178 195.960 C 247.909 197.324,247.730 209.794,246.971 210.424 C 242.268 214.327,230.512 213.864,224.787 209.550 C 220.360 206.215,217.567 202.743,214.688 197.000 C 211.647 190.932,210.980 174.209,213.496 167.128 C 217.202 156.702,222.983 150.427,230.955 148.179 C 233.391 147.491,242.199 147.636,244.400 148.399 M293.225 149.117 C 294.593 149.823,295.881 150.400,296.088 150.400 C 298.673 150.400,304.953 159.035,307.989 166.763 C 313.398 180.537,307.906 202.267,297.334 208.919 C 296.417 209.496,295.555 210.149,295.419 210.370 C 294.843 211.301,287.621 213.200,284.695 213.190 C 280.063 213.173,273.755 210.552,270.761 207.400 C 265.237 201.585,263.815 198.994,261.544 190.600 C 260.006 184.914,260.006 173.632,261.545 169.510 C 262.015 168.250,262.400 166.905,262.400 166.521 C 262.400 162.719,269.973 152.812,275.000 150.037 C 280.324 147.099,288.510 146.685,293.225 149.117 M150.577 149.289 C 151.590 150.735,151.516 210.484,150.500 211.500 C 149.887 212.113,149.206 212.175,145.000 212.000 L 140.200 211.800 139.800 210.563 C 139.087 208.360,139.661 149.258,140.400 148.791 C 141.772 147.925,149.900 148.322,150.577 149.289 M282.018 163.892 C 275.389 166.502,271.114 176.540,273.215 184.561 C 277.371 200.429,291.338 201.412,296.585 186.206 C 300.629 174.487,291.322 160.230,282.018 163.892 M34.600 306.283 C 39.278 308.676,43.555 314.147,44.290 318.679 C 44.961 322.815,39.036 322.028,36.845 317.690 C 33.056 310.192,21.521 309.234,17.781 316.106 C 15.928 319.511,16.414 324.063,18.862 326.231 C 20.094 327.322,23.637 329.600,24.102 329.600 C 24.302 329.600,25.756 330.159,27.333 330.842 C 41.459 336.962,44.382 340.089,44.719 349.439 C 45.233 363.748,35.483 371.613,21.490 368.178 C 16.625 366.984,12.736 363.371,10.318 357.800 C 8.233 352.994,8.426 351.057,11.038 350.567 C 13.679 350.071,14.313 350.532,15.980 354.156 C 18.676 360.020,21.191 361.759,27.000 361.777 C 35.546 361.804,40.934 354.439,37.820 346.987 C 36.999 345.021,31.393 340.405,29.820 340.398 C 29.589 340.397,28.514 339.947,27.432 339.398 C 26.350 338.849,25.200 338.400,24.877 338.400 C 22.424 338.400,14.446 333.157,12.586 330.321 C 6.385 320.874,10.671 308.914,21.600 305.165 C 24.121 304.301,32.059 304.983,34.600 306.283 M364.451 306.260 C 364.867 306.761,365.048 309.152,365.200 316.160 C 365.427 326.665,365.506 326.859,368.548 324.442 C 373.230 320.720,380.309 321.525,383.518 326.144 C 386.523 330.469,386.800 332.526,386.800 350.497 C 386.800 368.288,386.841 368.003,384.286 367.994 C 380.757 367.981,380.793 368.156,380.820 350.897 C 380.851 331.824,380.219 329.698,374.399 329.277 C 370.083 328.965,367.976 330.667,366.245 335.864 L 365.200 339.003 365.200 352.873 C 365.200 368.360,365.266 368.000,362.448 368.000 C 359.173 368.000,359.432 370.582,359.381 337.410 C 359.337 309.290,359.368 307.894,360.075 306.995 C 361.161 305.615,363.577 305.209,364.451 306.260 M150.433 306.640 C 151.279 307.659,151.247 367.073,150.400 367.608 C 149.470 368.196,147.075 368.068,146.089 367.377 L 145.200 366.755 145.200 337.000 L 145.200 307.245 146.089 306.623 C 147.254 305.807,149.750 305.817,150.433 306.640 M185.824 306.568 C 186.550 307.099,186.604 307.731,186.663 316.398 C 186.698 321.492,186.808 325.741,186.908 325.841 C 187.220 326.153,189.261 325.220,190.443 324.225 C 195.874 319.656,204.326 322.575,207.200 330.012 L 208.200 332.600 208.324 349.482 C 208.464 368.654,208.560 368.000,205.614 368.000 C 202.300 368.000,202.404 368.420,202.375 354.871 C 202.326 331.810,201.600 329.200,195.239 329.200 C 192.129 329.200,191.304 329.625,189.556 332.131 C 186.927 335.898,186.737 337.256,186.784 351.966 C 186.834 367.952,186.698 368.520,182.970 367.821 C 180.718 367.398,180.776 368.272,180.892 336.777 L 181.000 307.529 181.944 306.765 C 183.061 305.860,184.739 305.775,185.824 306.568 M58.848 312.758 C 59.709 313.456,59.797 313.877,59.937 317.985 C 60.110 323.023,60.236 323.200,63.652 323.200 C 66.329 323.200,66.800 323.677,66.800 326.386 C 66.800 329.474,66.274 330.000,63.186 330.000 C 59.808 330.000,59.922 329.486,59.898 344.750 C 59.871 361.436,59.844 361.335,64.450 361.881 C 66.835 362.163,67.418 363.092,67.030 365.990 C 66.601 369.195,63.421 370.177,59.264 368.389 C 54.559 366.365,54.045 364.247,53.860 346.121 C 53.700 330.507,53.708 330.569,51.867 330.185 C 49.374 329.666,48.800 329.002,48.800 326.640 C 48.800 324.262,49.045 323.938,51.400 323.208 C 53.676 322.502,54.000 321.901,54.000 318.383 C 54.000 314.575,54.523 312.970,55.931 312.455 C 57.488 311.885,57.810 311.918,58.848 312.758 M309.866 312.591 C 310.621 313.120,310.727 313.653,310.861 317.577 C 311.037 322.713,311.100 322.810,314.468 323.161 C 317.870 323.515,318.000 323.634,318.000 326.400 C 318.000 329.182,317.903 329.270,314.226 329.800 C 310.686 330.310,310.913 329.211,310.962 345.601 C 311.010 361.375,311.193 362.000,315.757 362.000 C 318.056 362.000,319.000 364.160,317.980 367.085 C 316.679 370.817,308.874 369.197,306.555 364.713 C 305.160 362.016,304.800 357.899,304.800 344.654 C 304.800 330.378,304.789 330.312,302.250 329.836 C 298.812 329.191,299.004 323.200,302.462 323.200 C 304.289 323.200,305.200 321.482,305.200 318.037 C 305.200 312.959,307.147 310.687,309.866 312.591 M167.136 313.419 C 167.391 313.979,167.600 316.080,167.600 318.087 C 167.600 322.703,167.953 323.200,171.233 323.200 C 174.267 323.200,174.800 323.739,174.800 326.805 C 174.800 329.572,174.683 329.676,171.228 329.975 C 167.478 330.299,167.612 329.742,167.608 345.000 C 167.603 361.310,167.644 361.452,172.395 361.963 L 174.600 362.200 174.717 364.823 C 174.894 368.826,172.371 370.185,167.663 368.621 C 162.417 366.878,161.894 364.927,161.618 346.067 C 161.382 329.931,161.393 330.000,159.213 330.000 C 156.536 330.000,155.638 324.210,158.200 323.469 C 161.118 322.624,161.393 322.333,161.496 319.987 C 161.786 313.348,162.219 312.400,164.964 312.400 C 166.406 312.400,166.744 312.559,167.136 313.419 M89.600 322.413 C 90.590 322.629,91.798 322.897,92.283 323.007 C 94.148 323.429,97.889 327.073,99.144 329.689 C 101.609 334.827,103.162 344.577,101.838 346.598 L 101.182 347.600 89.619 347.600 C 78.146 347.600,76.800 347.747,76.800 349.000 C 76.800 350.321,78.993 356.649,79.934 358.042 C 84.024 364.098,91.271 363.682,94.594 357.200 C 95.540 355.355,95.813 355.212,98.400 355.212 C 101.683 355.212,101.912 355.473,101.046 358.222 C 96.833 371.586,80.383 373.029,73.935 360.600 C 70.506 353.989,70.017 345.476,72.438 334.497 C 74.287 326.108,81.919 320.734,89.600 322.413 M126.543 322.598 C 131.988 324.250,135.284 328.544,136.020 334.945 C 136.697 340.837,136.507 366.069,135.777 367.111 C 134.563 368.845,132.158 368.285,131.006 366.000 C 129.730 363.469,129.696 363.466,127.466 365.746 C 119.607 373.779,107.392 367.449,108.099 355.710 C 108.630 346.900,112.601 343.053,123.464 340.828 C 129.336 339.625,130.695 338.545,130.227 335.454 C 129.034 327.582,119.057 325.727,115.746 332.762 C 113.715 337.077,108.808 336.953,109.299 332.600 C 110.133 325.199,118.712 320.222,126.543 322.598 M286.090 322.787 C 289.392 323.773,292.690 327.295,293.782 331.000 C 294.482 333.376,295.026 364.953,294.396 366.611 C 293.634 368.614,290.669 368.340,289.767 366.183 C 288.804 363.877,288.051 363.800,286.000 365.797 C 279.672 371.956,269.695 369.408,267.254 361.009 C 264.330 350.944,269.789 342.766,280.446 341.248 C 287.049 340.308,289.291 338.426,288.424 334.551 C 286.723 326.949,277.486 326.176,274.000 333.344 L 273.000 335.400 270.812 335.524 C 267.306 335.723,266.652 333.784,268.748 329.400 C 271.559 323.518,279.017 320.674,286.090 322.787 M341.042 322.624 C 346.827 323.966,352.697 330.906,351.336 334.795 C 350.588 336.931,344.400 336.040,344.400 333.796 C 344.400 331.095,339.794 328.568,336.123 329.254 C 328.162 330.741,325.345 350.128,331.835 358.762 C 335.709 363.915,341.579 363.309,344.337 357.471 C 346.559 352.768,351.600 351.807,351.600 356.086 C 351.600 359.375,347.368 366.007,344.322 367.490 C 340.368 369.415,336.499 369.585,332.330 368.018 C 321.412 363.914,318.340 341.246,326.827 327.400 C 329.318 323.335,335.357 321.306,341.042 322.624 M219.520 323.704 C 220.100 324.403,221.600 330.270,221.600 331.840 C 221.600 332.549,221.958 334.270,222.395 335.664 C 222.832 337.059,223.196 338.650,223.203 339.200 C 223.211 339.750,223.485 341.370,223.812 342.800 C 224.140 344.230,224.667 347.101,224.985 349.180 C 225.941 355.431,227.846 356.965,228.655 352.134 C 228.919 350.558,229.328 348.908,229.564 348.466 C 229.801 348.025,230.181 346.345,230.409 344.732 C 230.637 343.119,231.079 340.900,231.391 339.800 C 232.114 337.255,233.890 329.147,234.231 326.836 C 235.094 320.995,242.041 321.741,243.426 327.822 C 243.774 329.350,244.315 331.602,244.629 332.826 C 244.943 334.051,245.200 335.458,245.200 335.953 C 245.200 337.661,249.115 353.991,249.695 354.705 C 250.363 355.526,251.108 354.568,251.589 352.269 C 252.707 346.919,254.515 337.787,255.225 333.907 C 257.127 323.503,257.259 323.200,259.903 323.200 C 263.043 323.200,263.487 325.086,261.793 331.227 C 261.464 332.422,260.913 334.919,260.570 336.776 C 260.227 338.634,259.767 340.488,259.547 340.898 C 259.328 341.308,258.979 342.759,258.772 344.122 C 258.565 345.485,258.047 348.130,257.620 350.000 C 257.193 351.870,256.457 355.200,255.983 357.400 C 253.699 368.020,253.653 368.100,249.922 367.919 C 246.822 367.768,246.213 367.034,245.415 362.489 C 245.095 360.668,244.708 358.975,244.555 358.727 C 244.402 358.479,243.949 356.729,243.549 354.838 C 243.148 352.947,242.640 350.680,242.419 349.800 C 242.046 348.316,240.168 339.769,239.757 337.683 C 239.201 334.862,237.014 336.806,236.595 340.495 C 236.438 341.873,236.074 343.720,235.787 344.600 C 235.499 345.480,234.976 347.640,234.625 349.400 C 233.643 354.329,232.559 359.158,231.847 361.784 C 231.491 363.095,231.200 364.588,231.200 365.102 C 231.200 366.943,229.536 368.000,226.641 368.000 C 223.469 368.000,223.098 367.600,222.202 363.227 C 221.226 358.455,220.804 356.457,219.957 352.600 C 218.831 347.476,217.643 341.762,217.169 339.200 C 216.777 337.083,216.136 334.184,214.573 327.452 C 213.860 324.379,213.860 324.291,214.598 323.752 C 215.543 323.061,218.959 323.028,219.520 323.704 M84.215 329.118 C 80.720 330.319,78.008 334.497,78.002 338.686 C 77.999 341.034,78.366 341.142,86.385 341.135 C 95.819 341.128,96.070 340.998,95.303 336.518 C 94.229 330.249,89.706 327.229,84.215 329.118 M127.094 346.435 C 126.706 346.661,124.906 347.122,123.094 347.458 C 115.821 348.809,112.510 353.383,114.973 358.674 C 117.104 363.250,123.283 363.322,127.339 358.820 C 131.539 354.158,131.337 343.965,127.094 346.435 M284.504 346.595 C 283.791 346.904,282.212 347.342,280.994 347.567 C 275.513 348.580,272.459 351.972,273.040 356.400 C 273.473 359.700,274.097 360.629,276.480 361.521 C 283.011 363.964,289.342 357.838,288.593 349.800 C 288.227 345.875,287.490 345.297,284.504 346.595 " stroke="none" fill="#fafafa" fill-rule="evenodd"></path></g></svg>