<svg id="svg" version="1.1" xmlns="http://www.w3.org/2000/svg" xmlns:xlink="http://www.w3.org/1999/xlink" width="400" height="400" viewBox="0, 0, 400,400"><g id="svgg"><path id="path0" d="M0.000 200.000 L 0.000 400.000 200.000 400.000 L 400.000 400.000 400.000 200.000 L 400.000 0.000 200.000 0.000 L 0.000 0.000 0.000 200.000 M207.928 87.900 C 208.055 88.798,208.074 88.800,215.779 88.800 C 222.156 88.800,223.589 88.905,224.000 89.400 C 224.274 89.730,224.836 90.000,225.249 90.000 C 225.662 90.000,226.000 90.172,226.000 90.382 C 226.000 90.593,227.305 90.818,228.900 90.882 C 231.561 90.990,231.811 91.074,231.928 91.900 C 232.048 92.744,232.246 92.800,235.132 92.800 C 237.859 92.800,238.331 92.914,239.287 93.800 C 240.051 94.509,240.816 94.800,241.913 94.800 C 243.037 94.800,243.712 95.067,244.380 95.778 C 244.885 96.316,245.862 96.811,246.549 96.878 C 247.496 96.970,247.831 97.219,247.928 97.900 C 248.007 98.454,248.333 98.800,248.779 98.800 C 249.177 98.800,249.726 99.070,250.000 99.400 C 250.274 99.730,250.836 100.000,251.249 100.000 C 251.662 100.000,252.000 100.180,252.000 100.400 C 252.000 100.620,252.338 100.800,252.751 100.800 C 253.164 100.800,253.726 101.070,254.000 101.400 C 254.274 101.730,254.765 102.000,255.091 102.000 C 255.418 102.000,256.039 102.450,256.471 103.000 C 257.037 103.719,257.643 104.000,258.629 104.000 C 259.383 104.000,260.000 104.180,260.000 104.400 C 260.000 104.620,260.338 104.800,260.751 104.800 C 261.164 104.800,261.726 105.070,262.000 105.400 C 262.274 105.730,262.836 106.000,263.249 106.000 C 263.662 106.000,264.000 106.167,264.000 106.372 C 264.000 106.577,264.405 106.802,264.900 106.872 C 265.478 106.954,265.846 107.322,265.928 107.900 C 266.007 108.454,266.333 108.800,266.779 108.800 C 267.177 108.800,267.726 109.070,268.000 109.400 C 268.274 109.730,268.732 110.000,269.018 110.000 C 269.687 110.000,272.000 112.303,272.000 112.969 C 272.000 113.564,273.088 114.567,274.138 114.941 C 274.544 115.086,274.970 115.563,275.085 116.002 C 275.199 116.441,275.497 116.806,275.747 116.813 C 276.425 116.833,278.000 118.253,278.000 118.845 C 278.000 119.632,280.461 122.000,281.278 122.000 C 281.834 122.000,282.000 122.316,282.000 123.372 C 282.000 124.489,282.167 124.768,282.896 124.872 C 283.417 124.946,283.853 125.335,283.937 125.800 C 284.182 127.146,285.239 128.000,286.662 128.000 C 287.915 128.000,288.000 128.086,288.000 129.351 C 288.000 130.094,288.270 130.926,288.600 131.200 C 288.930 131.474,289.200 131.946,289.200 132.249 C 289.200 132.552,289.425 132.806,289.700 132.813 C 290.473 132.834,291.897 134.171,292.061 135.029 C 292.144 135.463,292.600 135.856,293.104 135.928 C 293.635 136.004,294.000 136.336,294.000 136.743 C 294.000 137.121,294.900 138.317,296.000 139.400 C 297.888 141.259,298.000 141.486,298.000 143.436 C 298.000 144.785,298.208 145.675,298.600 146.000 C 298.930 146.274,299.200 146.836,299.200 147.249 C 299.200 147.662,299.380 148.000,299.600 148.000 C 299.820 148.000,300.000 148.338,300.000 148.751 C 300.000 149.164,300.270 149.726,300.600 150.000 C 300.930 150.274,301.200 150.823,301.200 151.221 C 301.200 151.667,301.546 151.993,302.100 152.072 C 302.678 152.154,303.046 152.522,303.128 153.100 C 303.198 153.595,303.423 154.000,303.628 154.000 C 303.833 154.000,304.000 154.338,304.000 154.751 C 304.000 155.164,304.270 155.726,304.600 156.000 C 304.966 156.304,305.200 157.180,305.200 158.249 C 305.200 159.212,305.380 160.000,305.600 160.000 C 305.820 160.000,306.000 160.788,306.000 161.751 C 306.000 162.820,306.234 163.696,306.600 164.000 C 306.966 164.304,307.200 165.180,307.200 166.249 C 307.200 167.212,307.380 168.000,307.600 168.000 C 307.820 168.000,308.000 168.338,308.000 168.751 C 308.000 169.164,308.270 169.726,308.600 170.000 C 309.076 170.395,309.200 171.556,309.200 175.625 C 309.200 178.612,309.367 180.856,309.600 181.000 C 309.820 181.136,310.000 181.755,310.000 182.375 C 310.000 182.995,310.270 183.726,310.600 184.000 C 310.993 184.326,311.200 185.217,311.200 186.579 C 311.200 188.282,311.382 188.831,312.200 189.600 L 313.200 190.539 313.200 199.021 C 313.200 206.072,313.099 207.586,312.600 208.000 C 312.106 208.410,312.000 209.823,312.000 216.030 L 312.000 223.561 310.600 224.921 C 309.457 226.031,309.200 226.576,309.200 227.891 C 309.200 228.835,308.952 229.708,308.600 230.000 C 308.270 230.274,308.000 230.836,308.000 231.249 C 308.000 231.662,307.820 232.000,307.600 232.000 C 307.380 232.000,307.200 232.788,307.200 233.751 C 307.200 234.820,306.966 235.696,306.600 236.000 C 306.234 236.304,306.000 237.180,306.000 238.249 C 306.000 239.212,305.820 240.000,305.600 240.000 C 305.380 240.000,305.200 240.788,305.200 241.751 C 305.200 242.820,304.966 243.696,304.600 244.000 C 304.270 244.274,304.000 244.836,304.000 245.249 C 304.000 245.662,303.833 246.000,303.628 246.000 C 303.423 246.000,303.198 246.405,303.128 246.900 C 303.046 247.478,302.678 247.846,302.100 247.928 C 301.546 248.007,301.200 248.333,301.200 248.779 C 301.200 249.177,300.930 249.726,300.600 250.000 C 300.270 250.274,300.000 250.836,300.000 251.249 C 300.000 251.662,299.820 252.000,299.600 252.000 C 299.380 252.000,299.200 252.338,299.200 252.751 C 299.200 253.164,298.930 253.726,298.600 254.000 C 298.270 254.274,298.000 254.836,298.000 255.249 C 298.000 255.662,297.820 256.000,297.600 256.000 C 297.380 256.000,297.200 256.338,297.200 256.751 C 297.200 257.164,296.930 257.726,296.600 258.000 C 296.270 258.274,296.000 258.836,296.000 259.249 C 296.000 259.662,295.820 260.000,295.600 260.000 C 295.380 260.000,295.200 260.338,295.200 260.751 C 295.200 261.164,294.930 261.726,294.600 262.000 C 294.270 262.274,294.000 262.737,294.000 263.030 C 294.000 263.322,293.370 264.173,292.600 264.921 C 291.830 265.669,291.200 266.556,291.200 266.891 C 291.200 267.227,290.930 267.726,290.600 268.000 C 290.270 268.274,290.000 268.732,290.000 269.018 C 290.000 269.986,287.593 272.000,286.435 272.000 C 285.120 272.000,283.207 273.941,283.187 275.297 C 283.170 276.410,282.005 277.864,280.971 278.061 C 280.545 278.142,280.144 278.598,280.075 279.079 C 279.998 279.619,279.619 279.998,279.079 280.075 C 278.598 280.144,278.142 280.545,278.061 280.971 C 277.864 282.005,276.410 283.170,275.297 283.187 C 273.941 283.207,272.000 285.120,272.000 286.435 C 272.000 287.593,269.986 290.000,269.018 290.000 C 268.732 290.000,268.274 290.270,268.000 290.600 C 267.726 290.930,267.177 291.200,266.779 291.200 C 266.333 291.200,266.007 291.546,265.928 292.100 C 265.846 292.678,265.478 293.046,264.900 293.128 C 264.405 293.198,264.000 293.423,264.000 293.628 C 264.000 293.833,263.662 294.000,263.249 294.000 C 262.836 294.000,262.274 294.270,262.000 294.600 C 261.726 294.930,261.164 295.200,260.751 295.200 C 260.338 295.200,260.000 295.380,260.000 295.600 C 260.000 295.820,259.383 296.000,258.629 296.000 C 257.643 296.000,257.037 296.281,256.471 297.000 C 256.039 297.550,255.418 298.000,255.091 298.000 C 254.765 298.000,254.274 298.270,254.000 298.600 C 253.726 298.930,253.164 299.200,252.751 299.200 C 252.338 299.200,252.000 299.380,252.000 299.600 C 252.000 299.820,251.415 300.000,250.700 300.000 C 249.709 300.001,249.031 300.381,247.848 301.600 C 246.748 302.735,245.962 303.200,245.148 303.200 C 244.517 303.200,244.000 303.380,244.000 303.600 C 244.000 303.820,243.212 304.000,242.249 304.000 C 241.180 304.000,240.304 304.234,240.000 304.600 C 239.696 304.966,238.820 305.200,237.751 305.200 C 236.788 305.200,236.000 305.380,236.000 305.600 C 236.000 305.820,235.383 306.000,234.629 306.000 C 233.643 306.000,233.037 306.281,232.471 307.000 C 231.946 307.667,231.288 308.000,230.491 308.000 C 229.835 308.000,229.074 308.270,228.800 308.600 C 228.470 308.997,227.575 309.200,226.151 309.200 C 224.968 309.200,224.000 309.373,224.000 309.586 C 224.000 309.799,222.256 310.022,220.100 310.086 C 216.400 310.194,216.193 310.246,216.072 311.100 C 215.934 312.075,208.000 312.566,208.000 311.600 C 208.000 310.977,189.801 311.068,188.795 311.696 C 188.162 312.091,187.838 312.091,187.205 311.696 C 186.768 311.423,185.530 311.200,184.454 311.200 C 183.203 311.200,182.318 310.984,182.000 310.600 C 181.672 310.204,180.778 310.000,179.375 310.000 C 178.205 310.000,177.136 309.820,177.000 309.600 C 176.864 309.380,176.245 309.200,175.625 309.200 C 175.005 309.200,174.274 308.930,174.000 308.600 C 173.696 308.234,172.820 308.000,171.751 308.000 C 170.788 308.000,170.000 307.820,170.000 307.600 C 170.000 307.367,168.683 307.200,166.849 307.200 C 164.536 307.200,163.566 307.040,163.200 306.600 C 162.926 306.270,162.165 306.000,161.509 306.000 C 160.712 306.000,160.054 305.667,159.529 305.000 C 159.096 304.450,158.406 304.000,157.995 304.000 C 157.584 304.000,157.136 303.820,157.000 303.600 C 156.864 303.380,155.795 303.200,154.625 303.200 C 153.222 303.200,152.328 302.996,152.000 302.600 C 151.623 302.145,150.600 302.000,147.775 302.000 C 145.721 302.000,143.936 301.820,143.800 301.600 C 143.664 301.380,141.979 301.200,140.056 301.200 C 138.133 301.200,136.389 301.034,136.180 300.831 C 135.971 300.628,133.550 300.373,130.800 300.266 C 128.050 300.158,124.585 299.874,123.100 299.635 C 121.615 299.396,119.185 299.010,117.700 298.778 C 110.013 297.575,104.423 291.783,103.435 284.000 C 103.081 281.209,104.518 274.388,105.796 272.800 C 106.644 271.746,106.966 271.050,106.462 271.362 C 106.208 271.519,106.000 271.454,106.000 271.218 C 106.000 270.782,106.175 270.382,107.343 268.138 C 108.160 266.569,108.180 265.447,107.400 264.800 C 107.070 264.526,106.800 263.784,106.800 263.151 C 106.800 262.518,106.620 262.000,106.400 262.000 C 106.180 262.000,106.000 261.381,106.000 260.624 C 106.000 259.867,105.831 259.143,105.625 259.016 C 105.144 258.718,104.000 256.432,104.000 255.768 C 104.000 255.487,103.550 254.904,103.000 254.471 C 102.333 253.946,102.000 253.288,102.000 252.491 C 102.000 251.835,101.730 251.074,101.400 250.800 C 101.070 250.526,100.800 249.797,100.800 249.179 C 100.800 248.319,100.589 248.026,99.900 247.928 C 99.330 247.847,98.954 247.479,98.875 246.925 C 98.798 246.379,98.421 246.002,97.875 245.925 C 97.115 245.816,96.984 245.512,96.876 243.605 C 96.744 241.270,95.990 240.000,94.738 240.000 C 94.133 240.000,94.000 239.684,94.000 238.249 C 94.000 237.180,93.766 236.304,93.400 236.000 C 93.034 235.696,92.800 234.820,92.800 233.751 C 92.800 232.788,92.620 232.000,92.400 232.000 C 92.180 232.000,92.000 231.662,92.000 231.249 C 92.000 230.836,91.730 230.274,91.400 230.000 C 90.924 229.605,90.800 228.444,90.800 224.375 C 90.800 221.388,90.633 219.144,90.400 219.000 C 90.180 218.864,90.000 218.245,90.000 217.625 C 90.000 217.005,89.730 216.274,89.400 216.000 C 89.007 215.674,88.800 214.783,88.800 213.421 C 88.800 211.714,88.619 211.169,87.792 210.393 L 86.785 209.446 86.892 200.823 C 87.000 192.222,87.002 192.200,87.900 192.072 C 88.795 191.945,88.800 191.904,88.800 184.821 C 88.800 178.977,88.908 177.609,89.400 177.200 C 89.730 176.926,90.000 176.400,90.000 176.031 C 90.000 175.662,90.172 175.188,90.381 174.979 C 90.591 174.769,90.816 173.158,90.881 171.399 C 90.992 168.428,91.064 168.191,91.900 168.072 C 92.454 167.993,92.800 167.667,92.800 167.221 C 92.800 166.823,93.070 166.274,93.400 166.000 C 93.827 165.646,94.000 164.708,94.000 162.751 C 94.000 161.184,94.172 160.000,94.400 160.000 C 94.620 160.000,94.800 159.212,94.800 158.249 C 94.800 157.180,95.034 156.304,95.400 156.000 C 95.730 155.726,96.000 155.164,96.000 154.751 C 96.000 154.338,96.167 154.000,96.372 154.000 C 96.577 154.000,96.802 153.595,96.872 153.100 C 96.954 152.522,97.322 152.154,97.900 152.072 C 98.454 151.993,98.800 151.667,98.800 151.221 C 98.800 150.823,99.070 150.274,99.400 150.000 C 99.730 149.726,100.000 149.164,100.000 148.751 C 100.000 148.338,100.180 148.000,100.400 148.000 C 100.620 148.000,100.800 147.662,100.800 147.249 C 100.800 146.836,101.070 146.274,101.400 146.000 C 101.730 145.726,102.000 145.235,102.000 144.909 C 102.000 144.582,102.450 143.961,103.000 143.529 C 103.719 142.963,104.000 142.357,104.000 141.371 C 104.000 140.617,104.180 140.000,104.400 140.000 C 104.620 140.000,104.800 139.662,104.800 139.249 C 104.800 138.836,105.070 138.274,105.400 138.000 C 105.730 137.726,106.000 137.164,106.000 136.751 C 106.000 136.338,106.167 136.000,106.372 136.000 C 106.577 136.000,106.802 135.595,106.872 135.100 C 106.954 134.522,107.322 134.154,107.900 134.072 C 108.454 133.993,108.800 133.667,108.800 133.221 C 108.800 132.823,109.070 132.274,109.400 132.000 C 109.730 131.726,110.000 131.268,110.000 130.982 C 110.000 130.014,112.407 128.000,113.565 128.000 C 114.721 128.000,116.800 126.106,116.800 125.052 C 116.800 124.747,117.070 124.274,117.400 124.000 C 117.730 123.726,118.000 123.177,118.000 122.779 C 118.000 122.335,118.346 122.006,118.896 121.928 C 119.411 121.854,119.856 121.462,119.944 121.004 C 120.138 119.987,122.907 118.005,124.146 117.997 C 125.196 117.990,128.000 114.549,128.000 113.266 C 128.000 112.570,128.180 112.000,128.400 112.000 C 128.620 112.000,128.800 111.668,128.800 111.262 C 128.800 110.856,129.181 110.181,129.646 109.762 C 130.111 109.343,130.653 108.578,130.851 108.061 C 131.048 107.545,131.551 107.033,131.968 106.924 C 132.385 106.815,132.815 106.385,132.924 105.968 C 133.033 105.551,133.545 105.046,134.061 104.845 C 134.578 104.645,135.529 103.922,136.175 103.240 C 136.821 102.558,137.645 102.000,138.005 102.000 C 138.366 102.000,139.083 101.550,139.600 101.000 C 140.280 100.277,140.956 100.000,142.046 100.000 C 142.875 100.000,143.672 99.808,143.817 99.573 C 143.962 99.338,144.327 99.240,144.628 99.355 C 144.928 99.471,145.281 99.393,145.411 99.183 C 145.541 98.972,147.246 98.800,149.200 98.800 C 151.154 98.800,152.864 98.620,153.000 98.400 C 153.136 98.180,153.597 98.000,154.024 98.000 C 154.485 98.000,154.800 97.726,154.800 97.326 C 154.800 96.244,156.427 94.800,157.646 94.800 C 158.255 94.800,158.864 94.620,159.000 94.400 C 159.136 94.180,159.755 94.000,160.375 94.000 C 160.995 94.000,161.726 93.730,162.000 93.400 C 162.354 92.973,163.292 92.800,165.249 92.800 C 166.816 92.800,168.000 92.628,168.000 92.400 C 168.000 92.180,168.338 92.000,168.751 92.000 C 169.164 92.000,169.726 91.730,170.000 91.400 C 170.353 90.974,171.289 90.800,173.221 90.800 C 175.741 90.800,175.954 90.733,176.072 89.900 C 176.199 89.006,176.249 88.999,184.100 88.892 C 191.421 88.791,192.000 88.730,192.000 88.058 C 192.000 86.827,192.331 86.780,200.175 86.892 C 207.741 86.999,207.801 87.007,207.928 87.900 " stroke="none" fill="#184953" fill-rule="evenodd"></path><path id="path1" d="M147.089 114.801 C 143.654 117.504,144.060 117.924,181.174 150.000 C 190.190 157.792,195.568 162.447,206.649 172.051 C 210.362 175.269,217.360 181.289,222.200 185.430 C 243.717 203.838,244.054 204.202,243.482 208.462 C 242.977 212.228,242.154 212.796,220.338 224.440 C 210.802 229.530,198.770 235.987,193.600 238.790 C 163.971 254.853,164.643 254.564,161.023 252.811 C 157.434 251.074,157.000 248.787,157.601 234.777 C 158.537 212.936,158.076 213.063,141.110 239.316 C 114.659 280.246,114.800 280.013,114.800 282.841 C 114.800 288.477,117.377 288.977,141.400 287.997 C 146.900 287.772,158.960 287.325,168.200 287.003 C 196.129 286.031,197.480 285.139,181.913 277.948 C 175.156 274.827,171.539 272.623,171.000 271.296 C 169.830 268.418,170.030 267.069,171.925 265.062 C 173.751 263.129,176.656 261.936,210.529 249.203 C 278.425 223.682,276.729 224.343,280.288 222.039 C 287.076 217.645,288.145 208.939,282.639 202.904 C 279.912 199.915,268.364 192.043,196.600 144.252 C 146.636 110.980,149.661 112.779,147.089 114.801 " stroke="none" fill="#f3f9f9" fill-rule="evenodd"></path><path id="path2" d="M145.331 105.618 C 138.215 107.025,134.829 114.847,138.240 122.000 C 139.294 124.212,140.758 125.884,148.043 133.200 C 158.664 143.865,164.381 149.929,164.913 151.092 C 165.138 151.583,165.654 152.090,166.061 152.219 C 166.467 152.348,166.800 152.690,166.800 152.978 C 166.800 153.266,167.070 153.726,167.400 154.000 C 168.766 155.133,167.756 157.705,165.805 158.063 C 165.367 158.144,164.943 158.554,164.861 158.976 C 164.673 159.956,163.953 160.674,162.972 160.860 C 162.366 160.976,162.174 161.400,162.081 162.834 C 161.984 164.315,161.702 164.905,160.587 165.957 C 159.831 166.670,158.924 167.917,158.573 168.727 C 158.221 169.537,157.768 170.470,157.566 170.800 C 157.364 171.130,157.035 171.760,156.836 172.200 C 156.637 172.640,155.647 173.802,154.637 174.783 C 153.627 175.764,152.800 176.889,152.800 177.283 C 152.800 177.677,152.620 178.000,152.400 178.000 C 152.180 178.000,152.000 178.338,152.000 178.751 C 152.000 179.164,151.730 179.726,151.400 180.000 C 151.070 180.274,150.800 180.836,150.800 181.249 C 150.800 181.662,150.620 182.000,150.400 182.000 C 150.180 182.000,150.000 182.338,150.000 182.751 C 150.000 183.164,149.730 183.726,149.400 184.000 C 149.007 184.326,148.800 185.217,148.800 186.579 C 148.800 188.282,148.618 188.831,147.800 189.600 C 147.015 190.337,146.800 190.934,146.800 192.374 C 146.800 193.776,147.035 194.462,147.800 195.287 C 148.350 195.880,148.800 196.621,148.800 196.934 C 148.800 197.246,149.070 197.726,149.400 198.000 C 149.730 198.274,150.000 198.994,150.000 199.600 C 150.000 200.206,149.730 200.926,149.400 201.200 C 149.070 201.474,148.800 202.216,148.800 202.849 C 148.800 203.482,148.620 204.000,148.400 204.000 C 148.180 204.000,148.000 204.329,148.000 204.730 C 148.000 205.132,147.550 205.883,147.000 206.400 C 146.450 206.917,146.000 207.657,146.000 208.046 C 146.000 208.435,145.831 208.857,145.625 208.984 C 145.151 209.278,144.000 211.563,144.000 212.212 C 144.000 212.482,143.730 212.926,143.400 213.200 C 143.070 213.474,142.800 214.019,142.800 214.412 C 142.800 215.377,135.379 230.513,132.706 235.000 C 131.527 236.980,129.600 240.310,128.424 242.400 C 125.657 247.320,120.601 255.957,115.187 265.016 C 106.556 279.457,105.554 282.690,107.988 288.249 C 111.115 295.391,114.632 296.175,141.000 295.607 C 202.438 294.283,200.087 294.474,203.652 290.516 C 208.578 285.047,205.994 278.816,196.794 273.980 C 188.179 269.452,188.268 268.227,197.411 265.430 C 199.385 264.826,201.630 264.101,202.400 263.819 C 203.170 263.536,204.520 263.090,205.400 262.828 C 206.280 262.566,207.630 262.111,208.400 261.817 C 209.170 261.523,210.700 261.000,211.800 260.656 C 213.674 260.069,217.318 258.762,221.000 257.356 C 221.880 257.020,223.140 256.603,223.800 256.429 C 224.460 256.255,226.350 255.479,228.000 254.705 C 235.431 251.218,236.672 250.669,237.800 250.371 C 239.929 249.810,242.514 248.776,246.400 246.933 C 248.490 245.942,251.280 244.688,252.600 244.148 C 253.920 243.607,255.360 243.001,255.800 242.802 C 256.240 242.603,257.860 241.904,259.400 241.249 C 260.940 240.594,264.900 238.864,268.200 237.405 C 271.500 235.946,275.548 234.207,277.195 233.542 C 288.659 228.913,294.384 221.671,294.396 211.784 C 294.408 201.652,291.775 198.015,275.709 185.974 C 270.039 181.725,263.960 177.055,262.200 175.596 C 260.440 174.138,257.380 171.826,255.400 170.458 C 251.442 167.725,248.919 165.770,245.640 162.894 C 244.452 161.852,243.012 160.803,242.440 160.561 C 241.868 160.320,241.153 159.825,240.851 159.461 C 240.549 159.098,240.085 158.800,239.821 158.800 C 239.556 158.800,238.917 158.350,238.400 157.800 C 237.883 157.250,237.236 156.800,236.961 156.800 C 236.686 156.800,235.927 156.350,235.273 155.800 C 234.619 155.250,233.919 154.800,233.717 154.800 C 233.515 154.800,232.821 154.238,232.175 153.551 C 231.529 152.864,230.460 152.050,229.800 151.742 C 229.140 151.434,227.790 150.561,226.800 149.801 C 225.810 149.041,223.560 147.679,221.800 146.775 C 220.040 145.870,218.006 144.741,217.280 144.265 C 216.554 143.789,215.074 142.815,213.990 142.100 C 212.906 141.385,211.835 140.800,211.610 140.800 C 211.384 140.800,211.200 140.633,211.200 140.430 C 211.200 139.854,207.456 137.752,202.000 135.263 C 201.230 134.912,199.294 133.758,197.699 132.699 C 196.103 131.640,194.483 130.659,194.099 130.520 C 193.714 130.380,192.648 129.756,191.728 129.133 C 190.808 128.510,189.951 128.000,189.822 128.000 C 189.693 128.000,188.645 127.397,187.494 126.659 C 186.342 125.922,184.050 124.544,182.400 123.597 C 180.750 122.650,178.770 121.470,178.000 120.974 C 175.571 119.411,171.194 116.800,171.002 116.800 C 170.901 116.800,168.519 115.334,165.709 113.542 C 158.248 108.783,153.712 106.467,150.545 105.796 C 147.504 105.151,147.663 105.157,145.331 105.618 M153.017 108.050 C 154.346 108.594,158.723 111.191,162.742 113.820 C 166.761 116.449,175.663 122.269,182.525 126.753 C 197.258 136.381,245.180 168.305,255.200 175.166 C 259.050 177.802,265.350 182.081,269.200 184.675 C 279.678 191.734,283.881 194.750,286.223 196.890 C 296.913 206.660,294.397 222.774,281.162 229.305 C 277.291 231.215,251.647 241.112,209.372 257.011 C 177.284 269.078,178.159 268.327,189.823 273.802 C 201.172 279.130,202.669 280.324,203.366 284.600 C 203.865 287.664,201.349 290.927,197.647 292.018 C 196.110 292.471,188.439 292.879,168.000 293.594 C 161.070 293.837,150.630 294.203,144.800 294.408 C 115.559 295.438,111.839 294.764,108.795 287.881 C 106.802 283.377,107.787 279.468,113.056 270.960 C 117.383 263.975,142.092 225.011,147.529 216.600 C 152.665 208.656,157.413 206.067,161.631 208.910 C 165.329 211.401,165.883 214.089,165.152 226.000 C 163.822 247.679,163.402 247.297,179.000 238.603 C 181.860 237.009,185.640 234.934,187.400 233.991 C 189.160 233.049,192.580 231.160,195.000 229.795 C 197.420 228.429,203.720 225.015,209.000 222.208 C 214.280 219.400,220.130 216.281,222.000 215.275 C 223.870 214.270,226.660 212.775,228.200 211.953 C 233.650 209.044,234.898 207.343,233.335 204.957 C 232.781 204.111,222.623 195.331,209.827 184.637 C 208.272 183.338,205.290 180.722,203.200 178.826 C 201.110 176.929,198.050 174.214,196.400 172.793 C 194.750 171.372,191.780 168.754,189.800 166.976 C 187.820 165.197,183.848 161.685,180.974 159.171 C 178.100 156.657,173.420 152.529,170.574 149.997 C 167.728 147.466,164.680 144.782,163.800 144.033 C 162.920 143.284,160.850 141.466,159.200 139.993 C 157.550 138.520,153.410 134.854,150.000 131.846 C 140.648 123.597,138.400 120.562,138.400 116.188 C 138.400 108.833,145.405 104.932,153.017 108.050 " stroke="none" fill="#127b70" fill-rule="evenodd"></path><path id="path3" d="M144.410 110.475 C 138.094 114.763,139.880 119.392,151.987 130.108 C 167.691 144.008,210.174 181.193,215.615 185.800 C 217.693 187.560,222.455 191.587,226.197 194.750 C 242.591 208.605,242.942 207.346,219.179 219.970 C 210.720 224.464,199.390 230.561,194.000 233.520 C 158.744 252.876,160.880 253.101,162.212 230.165 C 163.036 215.967,162.897 214.470,160.562 212.420 C 158.843 210.911,157.279 210.843,154.999 212.180 C 152.520 213.632,151.801 214.673,134.844 241.328 C 131.599 246.427,125.909 255.367,122.199 261.194 C 109.516 281.112,109.023 282.279,111.265 287.049 C 113.999 292.865,115.360 292.994,157.400 291.419 C 165.760 291.105,176.560 290.737,181.400 290.600 C 196.786 290.164,199.970 289.239,199.988 285.200 C 200.001 282.360,198.351 280.873,191.718 277.746 C 189.123 276.523,185.380 274.758,183.400 273.824 C 177.081 270.842,175.757 268.886,178.497 266.580 C 180.226 265.125,179.770 265.308,207.958 254.741 C 221.511 249.660,237.190 243.745,242.800 241.597 C 248.410 239.448,258.040 235.766,264.200 233.414 C 286.389 224.944,290.221 221.730,290.187 211.621 C 290.159 203.152,287.968 200.529,271.800 189.604 C 266.960 186.334,258.590 180.656,253.200 176.985 C 227.750 159.654,157.005 112.880,153.456 111.038 C 150.200 109.348,146.417 109.112,144.410 110.475 M153.693 112.528 C 158.352 115.140,273.987 192.369,280.800 197.419 C 292.207 205.875,291.882 219.247,280.118 225.502 C 276.566 227.390,271.313 229.409,211.600 251.838 C 178.895 264.121,178.078 264.455,176.210 266.269 C 172.771 269.609,174.990 271.756,187.569 277.255 C 196.249 281.050,198.731 283.159,197.762 285.916 C 196.798 288.657,194.631 288.962,170.200 289.797 C 160.080 290.143,147.570 290.599,142.400 290.811 C 115.790 291.900,111.648 290.891,111.609 283.315 C 111.590 279.655,109.608 282.982,139.192 237.000 C 153.696 214.456,154.356 213.609,157.430 213.603 C 160.899 213.595,161.373 216.182,160.655 231.208 C 159.937 246.222,160.231 248.370,163.167 249.587 C 165.642 250.611,166.200 250.361,189.400 237.812 C 196.220 234.123,208.550 227.501,216.800 223.096 C 246.343 207.321,245.738 209.401,225.772 192.272 C 219.408 186.811,210.600 179.228,206.200 175.421 C 201.800 171.613,189.290 160.794,178.400 151.378 C 143.391 121.107,143.693 121.388,142.806 118.220 C 141.042 111.920,147.026 108.792,153.693 112.528 " stroke="none" fill="#78b1af" fill-rule="evenodd"></path><path id="path4" d="M144.704 107.348 C 140.690 108.838,138.400 112.050,138.400 116.188 C 138.400 120.562,140.648 123.597,150.000 131.846 C 153.410 134.854,157.550 138.520,159.200 139.993 C 160.850 141.466,162.920 143.284,163.800 144.033 C 164.680 144.782,167.728 147.466,170.574 149.997 C 173.420 152.529,178.100 156.657,180.974 159.171 C 183.848 161.685,187.820 165.197,189.800 166.976 C 191.780 168.754,194.750 171.372,196.400 172.793 C 198.050 174.214,201.110 176.929,203.200 178.826 C 205.290 180.722,208.272 183.338,209.827 184.637 C 222.623 195.331,232.781 204.111,233.335 204.957 C 234.898 207.343,233.650 209.044,228.200 211.953 C 226.660 212.775,223.870 214.270,222.000 215.275 C 220.130 216.281,214.280 219.400,209.000 222.208 C 203.720 225.015,197.420 228.429,195.000 229.795 C 192.580 231.160,189.160 233.049,187.400 233.991 C 185.640 234.934,181.860 237.009,179.000 238.603 C 163.402 247.297,163.822 247.679,165.152 226.000 C 165.883 214.089,165.329 211.401,161.631 208.910 C 157.413 206.067,152.665 208.656,147.529 216.600 C 142.092 225.011,117.383 263.975,113.056 270.960 C 107.787 279.468,106.802 283.377,108.795 287.881 C 111.839 294.764,115.559 295.438,144.800 294.408 C 150.630 294.203,161.070 293.837,168.000 293.594 C 188.439 292.879,196.110 292.471,197.647 292.018 C 201.349 290.927,203.865 287.664,203.366 284.600 C 202.669 280.324,201.172 279.130,189.823 273.802 C 183.723 270.939,182.800 270.309,182.800 269.008 C 182.800 266.979,182.478 267.125,209.372 257.011 C 251.647 241.112,277.291 231.215,281.162 229.305 C 294.397 222.774,296.913 206.660,286.223 196.890 C 283.881 194.750,279.678 191.734,269.200 184.675 C 265.350 182.081,259.050 177.802,255.200 175.166 C 245.180 168.305,197.258 136.381,182.525 126.753 C 175.663 122.269,166.761 116.449,162.742 113.820 C 152.716 107.262,148.759 105.842,144.704 107.348 M153.456 111.038 C 157.005 112.880,227.750 159.654,253.200 176.985 C 258.590 180.656,266.960 186.334,271.800 189.604 C 287.968 200.529,290.159 203.152,290.187 211.621 C 290.221 221.730,286.389 224.944,264.200 233.414 C 258.040 235.766,248.410 239.448,242.800 241.597 C 237.190 243.745,221.511 249.660,207.958 254.741 C 179.770 265.308,180.226 265.125,178.497 266.580 C 175.757 268.886,177.081 270.842,183.400 273.824 C 185.380 274.758,189.123 276.523,191.718 277.746 C 198.351 280.873,200.001 282.360,199.988 285.200 C 199.970 289.239,196.786 290.164,181.400 290.600 C 176.560 290.737,165.760 291.105,157.400 291.419 C 115.360 292.994,113.999 292.865,111.265 287.049 C 109.023 282.279,109.516 281.112,122.199 261.194 C 125.909 255.367,131.599 246.427,134.844 241.328 C 151.801 214.673,152.520 213.632,154.999 212.180 C 157.279 210.843,158.843 210.911,160.562 212.420 C 162.897 214.470,163.036 215.967,162.212 230.165 C 161.443 243.407,161.547 245.583,163.014 247.050 C 165.230 249.267,165.658 249.080,194.000 233.520 C 199.390 230.561,210.720 224.464,219.179 219.970 C 242.942 207.346,242.591 208.605,226.197 194.750 C 222.455 191.587,217.693 187.560,215.615 185.800 C 212.095 182.819,192.553 165.755,169.587 145.609 C 141.138 120.653,141.553 121.077,141.282 116.670 C 140.901 110.475,146.966 107.669,153.456 111.038 " stroke="none" fill="#609894" fill-rule="evenodd"></path><path id="path5" d="M192.275 87.058 C 192.124 87.210,192.000 87.660,192.000 88.058 C 192.000 88.730,191.421 88.791,184.100 88.892 C 176.249 88.999,176.199 89.006,176.072 89.900 C 175.954 90.733,175.741 90.800,173.221 90.800 C 171.289 90.800,170.353 90.974,170.000 91.400 C 169.726 91.730,169.164 92.000,168.751 92.000 C 168.338 92.000,168.000 92.180,168.000 92.400 C 168.000 92.628,166.816 92.800,165.249 92.800 C 163.292 92.800,162.354 92.973,162.000 93.400 C 161.726 93.730,160.995 94.000,160.375 94.000 C 159.755 94.000,159.136 94.180,159.000 94.400 C 158.864 94.620,158.255 94.800,157.646 94.800 C 156.427 94.800,154.800 96.244,154.800 97.326 C 154.800 97.726,154.485 98.000,154.024 98.000 C 153.597 98.000,153.136 98.180,153.000 98.400 C 152.864 98.620,151.154 98.800,149.200 98.800 C 147.246 98.800,145.541 98.972,145.411 99.183 C 145.281 99.393,144.928 99.471,144.628 99.355 C 144.327 99.240,143.962 99.338,143.817 99.573 C 143.672 99.808,142.875 100.000,142.046 100.000 C 140.956 100.000,140.280 100.277,139.600 101.000 C 139.083 101.550,138.366 102.000,138.005 102.000 C 137.645 102.000,136.821 102.558,136.175 103.240 C 135.529 103.922,134.578 104.645,134.061 104.845 C 133.545 105.046,133.033 105.551,132.924 105.968 C 132.815 106.385,132.385 106.815,131.968 106.924 C 131.551 107.033,131.048 107.545,130.851 108.061 C 130.653 108.578,130.111 109.343,129.646 109.762 C 129.181 110.181,128.800 110.856,128.800 111.262 C 128.800 111.668,128.620 112.000,128.400 112.000 C 128.180 112.000,128.000 112.570,128.000 113.266 C 128.000 114.549,125.196 117.990,124.146 117.997 C 122.907 118.005,120.138 119.987,119.944 121.004 C 119.856 121.462,119.411 121.854,118.896 121.928 C 118.346 122.006,118.000 122.335,118.000 122.779 C 118.000 123.177,117.730 123.726,117.400 124.000 C 117.070 124.274,116.800 124.747,116.800 125.052 C 116.800 126.106,114.721 128.000,113.565 128.000 C 112.407 128.000,110.000 130.014,110.000 130.982 C 110.000 131.268,109.730 131.726,109.400 132.000 C 109.070 132.274,108.800 132.823,108.800 133.221 C 108.800 133.667,108.454 133.993,107.900 134.072 C 107.322 134.154,106.954 134.522,106.872 135.100 C 106.802 135.595,106.577 136.000,106.372 136.000 C 106.167 136.000,106.000 136.338,106.000 136.751 C 106.000 137.164,105.730 137.726,105.400 138.000 C 105.070 138.274,104.800 138.836,104.800 139.249 C 104.800 139.662,104.620 140.000,104.400 140.000 C 104.180 140.000,104.000 140.617,104.000 141.371 C 104.000 142.357,103.719 142.963,103.000 143.529 C 102.450 143.961,102.000 144.582,102.000 144.909 C 102.000 145.235,101.730 145.726,101.400 146.000 C 101.070 146.274,100.800 146.836,100.800 147.249 C 100.800 147.662,100.620 148.000,100.400 148.000 C 100.180 148.000,100.000 148.338,100.000 148.751 C 100.000 149.164,99.730 149.726,99.400 150.000 C 99.070 150.274,98.800 150.823,98.800 151.221 C 98.800 151.667,98.454 151.993,97.900 152.072 C 97.322 152.154,96.954 152.522,96.872 153.100 C 96.802 153.595,96.577 154.000,96.372 154.000 C 96.167 154.000,96.000 154.338,96.000 154.751 C 96.000 155.164,95.730 155.726,95.400 156.000 C 95.034 156.304,94.800 157.180,94.800 158.249 C 94.800 159.212,94.620 160.000,94.400 160.000 C 94.172 160.000,94.000 161.184,94.000 162.751 C 94.000 164.708,93.827 165.646,93.400 166.000 C 93.070 166.274,92.800 166.823,92.800 167.221 C 92.800 167.667,92.454 167.993,91.900 168.072 C 91.064 168.191,90.992 168.428,90.881 171.399 C 90.816 173.158,90.591 174.769,90.381 174.979 C 90.172 175.188,90.000 175.662,90.000 176.031 C 90.000 176.400,89.730 176.926,89.400 177.200 C 88.908 177.609,88.800 178.977,88.800 184.821 C 88.800 191.904,88.795 191.945,87.900 192.072 C 87.002 192.200,87.000 192.222,86.892 200.823 L 86.785 209.446 87.792 210.393 C 88.619 211.169,88.800 211.714,88.800 213.421 C 88.800 214.783,89.007 215.674,89.400 216.000 C 89.730 216.274,90.000 217.005,90.000 217.625 C 90.000 218.245,90.180 218.864,90.400 219.000 C 90.633 219.144,90.800 221.388,90.800 224.375 C 90.800 228.444,90.924 229.605,91.400 230.000 C 91.730 230.274,92.000 230.836,92.000 231.249 C 92.000 231.662,92.180 232.000,92.400 232.000 C 92.620 232.000,92.800 232.788,92.800 233.751 C 92.800 234.820,93.034 235.696,93.400 236.000 C 93.766 236.304,94.000 237.180,94.000 238.249 C 94.000 239.684,94.133 240.000,94.738 240.000 C 95.990 240.000,96.744 241.270,96.876 243.605 C 96.984 245.512,97.115 245.816,97.875 245.925 C 98.421 246.002,98.798 246.379,98.875 246.925 C 98.954 247.479,99.330 247.847,99.900 247.928 C 100.589 248.026,100.800 248.319,100.800 249.179 C 100.800 249.797,101.070 250.526,101.400 250.800 C 101.730 251.074,102.000 251.835,102.000 252.491 C 102.000 253.288,102.333 253.946,103.000 254.471 C 103.550 254.904,104.000 255.487,104.000 255.768 C 104.000 256.432,105.144 258.718,105.625 259.016 C 105.831 259.143,106.000 259.867,106.000 260.624 C 106.000 261.381,106.180 262.000,106.400 262.000 C 106.620 262.000,106.800 262.518,106.800 263.151 C 106.800 263.784,107.070 264.526,107.400 264.800 C 108.180 265.447,108.160 266.569,107.343 268.138 C 106.175 270.382,106.000 270.782,106.000 271.218 C 106.000 271.454,106.208 271.519,106.462 271.362 C 106.966 271.050,106.644 271.746,105.796 272.800 C 104.518 274.388,103.081 281.209,103.435 284.000 C 104.423 291.783,110.013 297.575,117.700 298.778 C 119.185 299.010,121.615 299.396,123.100 299.635 C 124.585 299.874,128.050 300.158,130.800 300.266 C 133.550 300.373,135.971 300.628,136.180 300.831 C 136.389 301.034,138.133 301.200,140.056 301.200 C 141.979 301.200,143.664 301.380,143.800 301.600 C 143.936 301.820,145.721 302.000,147.775 302.000 C 150.600 302.000,151.623 302.145,152.000 302.600 C 152.328 302.996,153.222 303.200,154.625 303.200 C 155.795 303.200,156.864 303.380,157.000 303.600 C 157.136 303.820,157.584 304.000,157.995 304.000 C 158.406 304.000,159.096 304.450,159.529 305.000 C 160.054 305.667,160.712 306.000,161.509 306.000 C 162.165 306.000,162.926 306.270,163.200 306.600 C 163.566 307.040,164.536 307.200,166.849 307.200 C 168.683 307.200,170.000 307.367,170.000 307.600 C 170.000 307.820,170.788 308.000,171.751 308.000 C 172.820 308.000,173.696 308.234,174.000 308.600 C 174.274 308.930,175.005 309.200,175.625 309.200 C 176.245 309.200,176.864 309.380,177.000 309.600 C 177.136 309.820,178.205 310.000,179.375 310.000 C 180.778 310.000,181.672 310.204,182.000 310.600 C 182.318 310.984,183.203 311.200,184.454 311.200 C 185.530 311.200,186.768 311.423,187.205 311.696 C 187.838 312.091,188.162 312.091,188.795 311.696 C 189.801 311.068,208.000 310.977,208.000 311.600 C 208.000 312.566,215.934 312.075,216.072 311.100 C 216.193 310.246,216.400 310.194,220.100 310.086 C 222.256 310.022,224.000 309.799,224.000 309.586 C 224.000 309.373,224.968 309.200,226.151 309.200 C 227.575 309.200,228.470 308.997,228.800 308.600 C 229.074 308.270,229.835 308.000,230.491 308.000 C 231.288 308.000,231.946 307.667,232.471 307.000 C 233.037 306.281,233.643 306.000,234.629 306.000 C 235.383 306.000,236.000 305.820,236.000 305.600 C 236.000 305.380,236.788 305.200,237.751 305.200 C 238.820 305.200,239.696 304.966,240.000 304.600 C 240.304 304.234,241.180 304.000,242.249 304.000 C 243.212 304.000,244.000 303.820,244.000 303.600 C 244.000 303.380,244.517 303.200,245.148 303.200 C 245.962 303.200,246.748 302.735,247.848 301.600 C 249.031 300.381,249.709 300.001,250.700 300.000 C 251.415 300.000,252.000 299.820,252.000 299.600 C 252.000 299.380,252.338 299.200,252.751 299.200 C 253.164 299.200,253.726 298.930,254.000 298.600 C 254.274 298.270,254.765 298.000,255.091 298.000 C 255.418 298.000,256.039 297.550,256.471 297.000 C 257.037 296.281,257.643 296.000,258.629 296.000 C 259.383 296.000,260.000 295.820,260.000 295.600 C 260.000 295.380,260.338 295.200,260.751 295.200 C 261.164 295.200,261.726 294.930,262.000 294.600 C 262.274 294.270,262.836 294.000,263.249 294.000 C 263.662 294.000,264.000 293.833,264.000 293.628 C 264.000 293.423,264.405 293.198,264.900 293.128 C 265.478 293.046,265.846 292.678,265.928 292.100 C 266.007 291.546,266.333 291.200,266.779 291.200 C 267.177 291.200,267.726 290.930,268.000 290.600 C 268.274 290.270,268.732 290.000,269.018 290.000 C 269.986 290.000,272.000 287.593,272.000 286.435 C 272.000 285.120,273.941 283.207,275.297 283.187 C 276.410 283.170,277.864 282.005,278.061 280.971 C 278.142 280.545,278.598 280.144,279.079 280.075 C 279.619 279.998,279.998 279.619,280.075 279.079 C 280.144 278.598,280.545 278.142,280.971 278.061 C 282.005 277.864,283.170 276.410,283.187 275.297 C 283.207 273.941,285.120 272.000,286.435 272.000 C 287.593 272.000,290.000 269.986,290.000 269.018 C 290.000 268.732,290.270 268.274,290.600 268.000 C 290.930 267.726,291.200 267.227,291.200 266.891 C 291.200 266.556,291.830 265.669,292.600 264.921 C 293.370 264.173,294.000 263.322,294.000 263.030 C 294.000 262.737,294.270 262.274,294.600 262.000 C 294.930 261.726,295.200 261.164,295.200 260.751 C 295.200 260.338,295.380 260.000,295.600 260.000 C 295.820 260.000,296.000 259.662,296.000 259.249 C 296.000 258.836,296.270 258.274,296.600 258.000 C 296.930 257.726,297.200 257.164,297.200 256.751 C 297.200 256.338,297.380 256.000,297.600 256.000 C 297.820 256.000,298.000 255.662,298.000 255.249 C 298.000 254.836,298.270 254.274,298.600 254.000 C 298.930 253.726,299.200 253.164,299.200 252.751 C 299.200 252.338,299.380 252.000,299.600 252.000 C 299.820 252.000,300.000 251.662,300.000 251.249 C 300.000 250.836,300.270 250.274,300.600 250.000 C 300.930 249.726,301.200 249.177,301.200 248.779 C 301.200 248.333,301.546 248.007,302.100 247.928 C 302.678 247.846,303.046 247.478,303.128 246.900 C 303.198 246.405,303.423 246.000,303.628 246.000 C 303.833 246.000,304.000 245.662,304.000 245.249 C 304.000 244.836,304.270 244.274,304.600 244.000 C 304.966 243.696,305.200 242.820,305.200 241.751 C 305.200 240.788,305.380 240.000,305.600 240.000 C 305.820 240.000,306.000 239.212,306.000 238.249 C 306.000 237.180,306.234 236.304,306.600 236.000 C 306.966 235.696,307.200 234.820,307.200 233.751 C 307.200 232.788,307.380 232.000,307.600 232.000 C 307.820 232.000,308.000 231.662,308.000 231.249 C 308.000 230.836,308.270 230.274,308.600 230.000 C 308.952 229.708,309.200 228.835,309.200 227.891 C 309.200 226.576,309.457 226.031,310.600 224.921 L 312.000 223.561 312.000 216.030 C 312.000 209.823,312.106 208.410,312.600 208.000 C 313.099 207.586,313.200 206.072,313.200 199.021 L 313.200 190.539 312.200 189.600 C 311.382 188.831,311.200 188.282,311.200 186.579 C 311.200 185.217,310.993 184.326,310.600 184.000 C 310.270 183.726,310.000 182.995,310.000 182.375 C 310.000 181.755,309.820 181.136,309.600 181.000 C 309.367 180.856,309.200 178.612,309.200 175.625 C 309.200 171.556,309.076 170.395,308.600 170.000 C 308.270 169.726,308.000 169.164,308.000 168.751 C 308.000 168.338,307.820 168.000,307.600 168.000 C 307.380 168.000,307.200 167.212,307.200 166.249 C 307.200 165.180,306.966 164.304,306.600 164.000 C 306.234 163.696,306.000 162.820,306.000 161.751 C 306.000 160.788,305.820 160.000,305.600 160.000 C 305.380 160.000,305.200 159.212,305.200 158.249 C 305.200 157.180,304.966 156.304,304.600 156.000 C 304.270 155.726,304.000 155.164,304.000 154.751 C 304.000 154.338,303.833 154.000,303.628 154.000 C 303.423 154.000,303.198 153.595,303.128 153.100 C 303.046 152.522,302.678 152.154,302.100 152.072 C 301.546 151.993,301.200 151.667,301.200 151.221 C 301.200 150.823,300.930 150.274,300.600 150.000 C 300.270 149.726,300.000 149.164,300.000 148.751 C 300.000 148.338,299.820 148.000,299.600 148.000 C 299.380 148.000,299.200 147.662,299.200 147.249 C 299.200 146.836,298.930 146.274,298.600 146.000 C 298.208 145.675,298.000 144.785,298.000 143.436 C 298.000 141.486,297.888 141.259,296.000 139.400 C 294.900 138.317,294.000 137.121,294.000 136.743 C 294.000 136.336,293.635 136.004,293.104 135.928 C 292.600 135.856,292.144 135.463,292.061 135.029 C 291.897 134.171,290.473 132.834,289.700 132.813 C 289.425 132.806,289.200 132.552,289.200 132.249 C 289.200 131.946,288.930 131.474,288.600 131.200 C 288.270 130.926,288.000 130.094,288.000 129.351 C 288.000 128.086,287.915 128.000,286.662 128.000 C 285.239 128.000,284.182 127.146,283.937 125.800 C 283.853 125.335,283.417 124.946,282.896 124.872 C 282.167 124.768,282.000 124.489,282.000 123.372 C 282.000 122.316,281.834 122.000,281.278 122.000 C 280.461 122.000,278.000 119.632,278.000 118.845 C 278.000 118.253,276.425 116.833,275.747 116.813 C 275.497 116.806,275.199 116.441,275.085 116.002 C 274.970 115.563,274.544 115.086,274.138 114.941 C 273.088 114.567,272.000 113.564,272.000 112.969 C 272.000 112.303,269.687 110.000,269.018 110.000 C 268.732 110.000,268.274 109.730,268.000 109.400 C 267.726 109.070,267.177 108.800,266.779 108.800 C 266.333 108.800,266.007 108.454,265.928 107.900 C 265.846 107.322,265.478 106.954,264.900 106.872 C 264.405 106.802,264.000 106.577,264.000 106.372 C 264.000 106.167,263.662 106.000,263.249 106.000 C 262.836 106.000,262.274 105.730,262.000 105.400 C 261.726 105.070,261.164 104.800,260.751 104.800 C 260.338 104.800,260.000 104.620,260.000 104.400 C 260.000 104.180,259.383 104.000,258.629 104.000 C 257.643 104.000,257.037 103.719,256.471 103.000 C 256.039 102.450,255.418 102.000,255.091 102.000 C 254.765 102.000,254.274 101.730,254.000 101.400 C 253.726 101.070,253.164 100.800,252.751 100.800 C 252.338 100.800,252.000 100.620,252.000 100.400 C 252.000 100.180,251.662 100.000,251.249 100.000 C 250.836 100.000,250.274 99.730,250.000 99.400 C 249.726 99.070,249.177 98.800,248.779 98.800 C 248.333 98.800,248.007 98.454,247.928 97.900 C 247.831 97.219,247.496 96.970,246.549 96.878 C 245.862 96.811,244.885 96.316,244.380 95.778 C 243.712 95.067,243.037 94.800,241.913 94.800 C 240.816 94.800,240.051 94.509,239.287 93.800 C 238.331 92.914,237.859 92.800,235.132 92.800 C 232.246 92.800,232.048 92.744,231.928 91.900 C 231.811 91.074,231.561 90.990,228.900 90.882 C 227.305 90.818,226.000 90.593,226.000 90.382 C 226.000 90.172,225.662 90.000,225.249 90.000 C 224.836 90.000,224.274 89.730,224.000 89.400 C 223.589 88.905,222.156 88.800,215.779 88.800 C 208.074 88.800,208.055 88.798,207.928 87.900 C 207.799 86.995,193.127 86.206,192.275 87.058 M150.545 105.796 C 153.712 106.467,158.248 108.783,165.709 113.542 C 168.519 115.334,170.901 116.800,171.002 116.800 C 171.194 116.800,175.571 119.411,178.000 120.974 C 178.770 121.470,180.750 122.650,182.400 123.597 C 184.050 124.544,186.342 125.922,187.494 126.659 C 188.645 127.397,189.693 128.000,189.822 128.000 C 189.951 128.000,190.808 128.510,191.728 129.133 C 192.648 129.756,193.714 130.380,194.099 130.520 C 194.483 130.659,196.103 131.640,197.699 132.699 C 199.294 133.758,201.230 134.912,202.000 135.263 C 207.456 137.752,211.200 139.854,211.200 140.430 C 211.200 140.633,211.384 140.800,211.610 140.800 C 211.835 140.800,212.906 141.385,213.990 142.100 C 215.074 142.815,216.554 143.789,217.280 144.265 C 218.006 144.741,220.040 145.870,221.800 146.775 C 223.560 147.679,225.810 149.041,226.800 149.801 C 227.790 150.561,229.140 151.434,229.800 151.742 C 230.460 152.050,231.529 152.864,232.175 153.551 C 232.821 154.238,233.515 154.800,233.717 154.800 C 233.919 154.800,234.619 155.250,235.273 155.800 C 235.927 156.350,236.686 156.800,236.961 156.800 C 237.236 156.800,237.883 157.250,238.400 157.800 C 238.917 158.350,239.556 158.800,239.821 158.800 C 240.085 158.800,240.549 159.098,240.851 159.461 C 241.153 159.825,241.868 160.320,242.440 160.561 C 243.012 160.803,244.452 161.852,245.640 162.894 C 248.919 165.770,251.442 167.725,255.400 170.458 C 257.380 171.826,260.440 174.138,262.200 175.596 C 263.960 177.055,270.039 181.725,275.709 185.974 C 291.775 198.015,294.408 201.652,294.396 211.784 C 294.384 221.671,288.659 228.913,277.195 233.542 C 275.548 234.207,271.500 235.946,268.200 237.405 C 264.900 238.864,260.940 240.594,259.400 241.249 C 257.860 241.904,256.240 242.603,255.800 242.802 C 255.360 243.001,253.920 243.607,252.600 244.148 C 251.280 244.688,248.490 245.942,246.400 246.933 C 242.514 248.776,239.929 249.810,237.800 250.371 C 236.672 250.669,235.431 251.218,228.000 254.705 C 226.350 255.479,224.460 256.255,223.800 256.429 C 223.140 256.603,221.880 257.020,221.000 257.356 C 217.318 258.762,213.674 260.069,211.800 260.656 C 210.700 261.000,209.170 261.523,208.400 261.817 C 207.630 262.111,206.280 262.566,205.400 262.828 C 204.520 263.090,203.170 263.536,202.400 263.819 C 201.630 264.101,199.385 264.826,197.411 265.430 C 188.268 268.227,188.179 269.452,196.794 273.980 C 205.994 278.816,208.578 285.047,203.652 290.516 C 200.087 294.474,202.438 294.283,141.000 295.607 C 114.632 296.175,111.115 295.391,107.988 288.249 C 105.554 282.690,106.556 279.457,115.187 265.016 C 120.601 255.957,125.657 247.320,128.424 242.400 C 129.600 240.310,131.527 236.980,132.706 235.000 C 135.379 230.513,142.800 215.377,142.800 214.412 C 142.800 214.019,143.070 213.474,143.400 213.200 C 143.730 212.926,144.000 212.482,144.000 212.212 C 144.000 211.563,145.151 209.278,145.625 208.984 C 145.831 208.857,146.000 208.435,146.000 208.046 C 146.000 207.657,146.450 206.917,147.000 206.400 C 147.550 205.883,148.000 205.132,148.000 204.730 C 148.000 204.329,148.180 204.000,148.400 204.000 C 148.620 204.000,148.800 203.482,148.800 202.849 C 148.800 202.216,149.070 201.474,149.400 201.200 C 149.730 200.926,150.000 200.206,150.000 199.600 C 150.000 198.994,149.730 198.274,149.400 198.000 C 149.070 197.726,148.800 197.246,148.800 196.934 C 148.800 196.621,148.350 195.880,147.800 195.287 C 147.035 194.462,146.800 193.776,146.800 192.374 C 146.800 190.934,147.015 190.337,147.800 189.600 C 148.618 188.831,148.800 188.282,148.800 186.579 C 148.800 185.217,149.007 184.326,149.400 184.000 C 149.730 183.726,150.000 183.164,150.000 182.751 C 150.000 182.338,150.180 182.000,150.400 182.000 C 150.620 182.000,150.800 181.662,150.800 181.249 C 150.800 180.836,151.070 180.274,151.400 180.000 C 151.730 179.726,152.000 179.164,152.000 178.751 C 152.000 178.338,152.180 178.000,152.400 178.000 C 152.620 178.000,152.800 177.677,152.800 177.283 C 152.800 176.889,153.627 175.764,154.637 174.783 C 155.647 173.802,156.637 172.640,156.836 172.200 C 157.035 171.760,157.364 171.130,157.566 170.800 C 157.768 170.470,158.221 169.537,158.573 168.727 C 158.924 167.917,159.831 166.670,160.587 165.957 C 161.702 164.905,161.984 164.315,162.081 162.834 C 162.174 161.400,162.366 160.976,162.972 160.860 C 163.953 160.674,164.673 159.956,164.861 158.976 C 164.943 158.554,165.367 158.144,165.805 158.063 C 167.756 157.705,168.766 155.133,167.400 154.000 C 167.070 153.726,166.800 153.266,166.800 152.978 C 166.800 152.690,166.467 152.348,166.061 152.219 C 165.654 152.090,165.138 151.583,164.913 151.092 C 164.381 149.929,158.664 143.865,148.043 133.200 C 140.758 125.884,139.294 124.212,138.240 122.000 C 134.829 114.847,138.215 107.025,145.331 105.618 C 147.663 105.157,147.504 105.151,150.545 105.796 " stroke="none" fill="#126c6c" fill-rule="evenodd"></path><path id="path6" d="M145.800 111.153 C 143.159 112.311,141.950 115.165,142.806 118.220 C 143.693 121.388,143.391 121.107,178.400 151.378 C 189.290 160.794,201.800 171.613,206.200 175.421 C 210.600 179.228,219.408 186.811,225.772 192.272 C 238.615 203.290,239.598 204.309,239.892 206.918 C 240.291 210.458,239.727 210.853,216.800 223.096 C 208.550 227.501,196.220 234.123,189.400 237.812 C 166.200 250.361,165.642 250.611,163.167 249.587 C 160.231 248.370,159.937 246.222,160.655 231.208 C 161.373 216.182,160.899 213.595,157.430 213.603 C 154.356 213.609,153.696 214.456,139.192 237.000 C 109.608 282.982,111.590 279.655,111.609 283.315 C 111.648 290.891,115.790 291.900,142.400 290.811 C 147.570 290.599,160.080 290.143,170.200 289.797 C 194.631 288.962,196.798 288.657,197.762 285.916 C 198.731 283.159,196.249 281.050,187.569 277.255 C 174.990 271.756,172.771 269.609,176.210 266.269 C 178.078 264.455,178.895 264.121,211.600 251.838 C 271.313 229.409,276.566 227.390,280.118 225.502 C 291.882 219.247,292.207 205.875,280.800 197.419 C 273.987 192.369,158.352 115.140,153.693 112.528 C 151.064 111.055,147.456 110.426,145.800 111.153 M152.487 115.245 C 155.700 116.884,256.672 184.116,275.039 196.846 C 286.565 204.834,289.044 211.181,283.681 218.971 C 280.999 222.868,285.089 221.177,210.529 249.203 C 167.579 265.348,168.396 264.891,171.000 271.296 C 171.539 272.623,175.156 274.827,181.913 277.948 C 197.480 285.139,196.129 286.031,168.200 287.003 C 158.960 287.325,146.900 287.772,141.400 287.997 C 117.377 288.977,114.800 288.477,114.800 282.841 C 114.800 280.013,114.659 280.246,141.110 239.316 C 158.076 213.063,158.537 212.936,157.601 234.777 C 157.000 248.787,157.434 251.074,161.023 252.811 C 164.643 254.564,163.971 254.853,193.600 238.790 C 198.770 235.987,210.802 229.530,220.338 224.440 C 242.154 212.796,242.977 212.228,243.482 208.462 C 244.054 204.202,243.717 203.838,222.200 185.430 C 217.360 181.289,210.362 175.269,206.649 172.051 C 195.568 162.447,190.190 157.792,181.174 150.000 C 156.237 128.448,147.320 120.461,146.674 119.099 C 144.670 114.877,147.756 112.831,152.487 115.245 " stroke="none" fill="#9cbcbc" fill-rule="evenodd"></path></g></svg>