<svg id="svg" version="1.1" xmlns="http://www.w3.org/2000/svg" xmlns:xlink="http://www.w3.org/1999/xlink" width="400" height="400" viewBox="0, 0, 400,400"><g id="svgg"><path id="path0" d="M0.000 200.000 L 0.000 400.000 200.000 400.000 L 400.000 400.000 400.000 200.000 L 400.000 0.000 200.000 0.000 L 0.000 0.000 0.000 200.000 M153.271 111.325 C 154.662 112.053,160.660 115.857,166.600 119.778 C 172.540 123.698,183.700 131.061,191.400 136.140 C 206.071 145.817,236.301 166.003,249.600 175.003 C 285.649 199.397,284.069 198.266,286.383 201.332 C 291.464 208.065,291.068 216.699,285.401 222.758 C 282.424 225.940,279.127 227.439,255.400 236.397 C 251.440 237.892,242.530 241.273,235.600 243.911 C 228.670 246.549,213.464 252.279,201.809 256.644 C 171.322 268.064,170.684 268.815,185.844 275.427 C 198.535 280.962,201.461 283.565,198.976 287.113 C 197.023 289.902,199.186 289.744,132.549 291.940 C 114.864 292.522,110.979 290.957,111.014 283.264 C 111.033 279.182,111.187 278.893,124.207 258.600 C 127.031 254.200,132.330 245.920,135.983 240.200 C 153.013 213.535,153.152 213.343,156.165 212.192 C 158.214 211.410,159.553 211.823,160.910 213.657 C 162.314 215.555,162.417 217.635,161.743 230.464 C 160.884 246.813,161.184 248.404,165.129 248.396 C 167.579 248.391,167.488 248.436,191.600 235.334 C 202.930 229.178,217.060 221.563,223.000 218.411 C 243.333 207.623,243.249 208.751,224.885 193.099 C 210.131 180.524,198.428 170.370,172.200 147.384 C 140.494 119.598,141.598 120.726,141.601 116.113 C 141.606 110.570,147.339 108.217,153.271 111.325 " stroke="none" fill="#184953" fill-rule="evenodd"></path><path id="path1" d="M144.496 110.798 C 142.636 111.932,141.603 113.828,141.601 116.113 C 141.598 120.262,142.520 121.330,157.400 134.395 C 193.618 166.198,207.955 178.670,224.885 193.099 C 243.249 208.751,243.333 207.623,223.000 218.411 C 217.060 221.563,202.930 229.178,191.600 235.334 C 167.488 248.436,167.579 248.391,165.129 248.396 C 161.184 248.404,160.884 246.813,161.743 230.464 C 162.417 217.635,162.314 215.555,160.910 213.657 C 159.553 211.823,158.214 211.410,156.165 212.192 C 153.152 213.343,153.013 213.535,135.983 240.200 C 132.330 245.920,127.031 254.200,124.207 258.600 C 111.187 278.893,111.033 279.182,111.014 283.264 C 110.979 290.957,114.864 292.522,132.549 291.940 C 199.186 289.744,197.023 289.902,198.976 287.113 C 201.461 283.565,198.535 280.962,185.844 275.427 C 170.684 268.815,171.322 268.064,201.809 256.644 C 213.464 252.279,228.670 246.549,235.600 243.911 C 242.530 241.273,251.440 237.892,255.400 236.397 C 279.127 227.439,282.424 225.940,285.401 222.758 C 291.068 216.699,291.464 208.065,286.383 201.332 C 284.391 198.692,282.653 197.374,268.800 187.997 C 262.530 183.753,253.890 177.906,249.600 175.003 C 236.301 166.003,206.071 145.817,191.400 136.140 C 183.700 131.061,172.540 123.698,166.600 119.778 C 150.911 109.423,148.415 108.409,144.496 110.798 " stroke="none" fill="#f3f9f9" fill-rule="evenodd"></path></g></svg>