<svg version="1.1" id="Layer_1" xmlns="http://www.w3.org/2000/svg" xmlns:xlink="http://www.w3.org/1999/xlink" x="0px" y="0px"
	 width="100%" viewBox="0 0 200 200" enable-background="new 0 0 200 200" xml:space="preserve">
<path fill="#1A3C4A" opacity="1.000000" stroke="none" 
	d="
M88.000000,1.000001 
	C96.687561,1.000000 105.375130,1.000000 114.642349,1.327548 
	C122.073303,4.422431 128.995071,7.029356 135.756912,10.000272 
	C143.156403,13.251349 150.932297,16.056211 157.573334,20.504829 
	C163.917862,24.754831 169.125931,30.755203 174.627213,36.194862 
	C180.005356,41.512760 185.283279,46.780857 187.518219,54.582474 
	C188.803192,59.068020 192.127945,62.952126 194.388870,67.184753 
	C195.148834,68.607452 195.738220,70.237213 195.926758,71.829048 
	C196.724442,78.563461 197.198364,85.339371 198.140350,92.051025 
	C198.339951,93.473122 200.008347,94.689072 201.000000,96.000000 
	C201.000000,100.024544 201.000000,104.049088 200.654434,108.663330 
	C199.539551,111.855019 198.526306,114.414612 198.064804,117.070091 
	C197.529724,120.148849 198.458313,123.867538 197.052612,126.344116 
	C190.194916,138.425964 188.835617,153.328842 177.206421,163.050812 
	C169.941055,169.124664 164.840240,178.328110 156.913589,182.939087 
	C146.054016,189.256134 133.430542,192.537567 121.571609,197.142136 
	C118.365173,198.387131 115.189690,199.711868 112.000000,201.000000 
	C107.310745,201.000000 102.621490,201.000000 97.339630,200.654510 
	C94.646080,199.543106 92.560226,198.166763 90.441635,198.114410 
	C79.888695,197.853561 69.701004,196.374603 60.398972,190.957855 
	C57.102951,189.038513 53.943710,186.403519 50.374092,185.549500 
	C45.251598,184.323914 41.910404,181.578522 38.938751,177.514389 
	C36.924923,174.760239 34.428062,172.065109 31.562178,170.286041 
	C24.397243,165.838242 20.431252,158.846176 17.124538,151.777740 
	C12.237432,141.331085 8.602621,130.302368 4.281870,119.583061 
	C3.599254,117.889572 2.114097,116.519569 1.000000,115.000000 
	C1.000000,103.979103 1.000000,92.958214 1.328866,81.369614 
	C3.034152,78.584251 4.755847,76.507942 5.731034,74.126007 
	C12.130267,58.495602 17.970934,42.555321 32.065342,31.704636 
	C32.572880,31.313902 32.796204,30.569445 33.278374,30.127846 
	C36.760864,26.938431 40.092350,23.543053 43.838562,20.695606 
	C46.859810,18.399197 50.447647,16.863552 53.690567,14.840445 
	C62.123199,9.579712 71.092377,6.011536 81.071114,4.826929 
	C83.497978,4.538829 85.696495,2.327187 88.000000,1.000001 
M145.327972,18.162437 
	C141.771393,16.355181 138.339584,14.225053 134.637421,12.794579 
	C114.872086,5.157472 94.518890,5.057600 74.384254,10.221213 
	C66.220833,12.314755 58.346863,16.818672 51.292927,21.623135 
	C43.002285,27.269926 34.526695,33.450867 28.305603,41.155743 
	C16.836119,55.360790 9.447627,71.514793 7.558432,90.434448 
	C5.074082,115.314407 11.108365,137.365494 25.709724,157.045532 
	C40.832218,177.427948 61.677780,189.238281 86.466133,193.912231 
	C97.137871,195.924454 107.814636,195.295074 118.618767,193.223907 
	C131.263519,190.799896 142.891495,186.327499 153.340683,179.088791 
	C169.298462,168.034027 180.711273,153.222992 188.882828,135.563339 
	C194.227295,124.013390 195.307709,111.764137 195.642822,99.632774 
	C195.943756,88.739044 192.456085,78.085442 188.834961,67.628105 
	C181.129822,45.376644 165.948135,29.922146 145.327972,18.162437 
z"/>
<path fill="#1C3949" opacity="1.000000" stroke="none" 
	d="
M201.000000,95.531342 
	C200.008347,94.689072 198.339951,93.473122 198.140350,92.051025 
	C197.198364,85.339371 196.724442,78.563461 195.926758,71.829048 
	C195.738220,70.237213 195.148834,68.607452 194.388870,67.184753 
	C192.127945,62.952126 188.803192,59.068020 187.518219,54.582474 
	C185.283279,46.780857 180.005356,41.512760 174.627213,36.194862 
	C169.125931,30.755203 163.917862,24.754831 157.573334,20.504829 
	C150.932297,16.056211 143.156403,13.251349 135.756912,10.000272 
	C128.995071,7.029356 122.073303,4.422431 115.111008,1.327548 
	C143.597214,1.000000 172.194427,1.000000 201.000000,1.000000 
	C201.000000,32.353920 201.000000,63.708302 201.000000,95.531342 
z"/>
<path fill="#1C3949" opacity="1.000000" stroke="none" 
	d="
M1.000000,115.468658 
	C2.114097,116.519569 3.599254,117.889572 4.281870,119.583061 
	C8.602621,130.302368 12.237432,141.331085 17.124538,151.777740 
	C20.431252,158.846176 24.397243,165.838242 31.562178,170.286041 
	C34.428062,172.065109 36.924923,174.760239 38.938751,177.514389 
	C41.910404,181.578522 45.251598,184.323914 50.374092,185.549500 
	C53.943710,186.403519 57.102951,189.038513 60.398972,190.957855 
	C69.701004,196.374603 79.888695,197.853561 90.441635,198.114410 
	C92.560226,198.166763 94.646080,199.543106 96.873512,200.654510 
	C65.077103,201.000000 33.154205,201.000000 1.000000,201.000000 
	C1.000000,172.646194 1.000000,144.291748 1.000000,115.468658 
z"/>
<path fill="#1C3949" opacity="1.000000" stroke="none" 
	d="
M112.468658,201.000000 
	C115.189690,199.711868 118.365173,198.387131 121.571609,197.142136 
	C133.430542,192.537567 146.054016,189.256134 156.913589,182.939087 
	C164.840240,178.328110 169.941055,169.124664 177.206421,163.050812 
	C188.835617,153.328842 190.194916,138.425964 197.052612,126.344116 
	C198.458313,123.867538 197.529724,120.148849 198.064804,117.070091 
	C198.526306,114.414612 199.539551,111.855019 200.654434,109.126518 
	C201.000000,139.592361 201.000000,170.184738 201.000000,201.000000 
	C171.646149,201.000000 142.291733,201.000000 112.468658,201.000000 
z"/>
<path fill="#1C3949" opacity="1.000000" stroke="none" 
	d="
M87.531342,1.000001 
	C85.696495,2.327187 83.497978,4.538829 81.071114,4.826929 
	C71.092377,6.011536 62.123199,9.579712 53.690567,14.840445 
	C50.447647,16.863552 46.859810,18.399197 43.838562,20.695606 
	C40.092350,23.543053 36.760864,26.938431 33.278374,30.127846 
	C32.796204,30.569445 32.572880,31.313902 32.065342,31.704636 
	C17.970934,42.555321 12.130267,58.495602 5.731034,74.126007 
	C4.755847,76.507942 3.034152,78.584251 1.328866,80.900955 
	C1.000000,54.403370 1.000000,27.806740 1.000000,1.000000 
	C29.687220,1.000000 58.374950,1.000000 87.531342,1.000001 
z"/>
<path fill="#1A3F4C" opacity="1.000000" stroke="none" 
	d="
M145.659958,18.329206 
	C165.948135,29.922146 181.129822,45.376644 188.834961,67.628105 
	C192.456085,78.085442 195.943756,88.739044 195.642822,99.632774 
	C195.307709,111.764137 194.227295,124.013390 188.882828,135.563339 
	C180.711273,153.222992 169.298462,168.034027 153.340683,179.088791 
	C142.891495,186.327499 131.263519,190.799896 118.618767,193.223907 
	C107.814636,195.295074 97.137871,195.924454 86.466133,193.912231 
	C61.677780,189.238281 40.832218,177.427948 25.709724,157.045532 
	C11.108365,137.365494 5.074082,115.314407 7.558432,90.434448 
	C9.447627,71.514793 16.836119,55.360790 28.305603,41.155743 
	C34.526695,33.450867 43.002285,27.269926 51.292927,21.623135 
	C58.346863,16.818672 66.220833,12.314755 74.384254,10.221213 
	C94.518890,5.057600 114.872086,5.157472 134.637421,12.794579 
	C138.339584,14.225053 141.771393,16.355181 145.659958,18.329206 
M46.483440,27.949057 
	C40.384048,34.046513 33.218155,39.405994 28.390188,46.383224 
	C15.212505,65.427208 8.474929,86.366180 10.748244,110.162514 
	C12.518110,128.688889 19.952364,144.408035 31.166016,158.424240 
	C37.746742,166.649658 45.967545,173.349854 55.364693,178.868927 
	C74.139130,189.895401 94.203735,193.543686 115.241203,190.477341 
	C134.775787,187.630051 151.403763,178.752823 165.600616,164.282913 
	C183.199875,146.345139 191.208023,125.262383 192.087357,100.660133 
	C192.492264,89.332146 188.920044,78.906937 185.451950,68.591080 
	C182.905640,61.017063 179.058990,53.530518 174.282379,47.131809 
	C165.470291,35.327225 154.309509,26.159449 140.770355,19.547741 
	C130.053909,14.314482 119.364494,10.659703 107.416344,10.985180 
	C104.921196,11.053149 102.403542,10.727221 99.926117,10.936396 
	C91.070786,11.684067 81.759743,11.136791 73.505196,13.809700 
	C64.181152,16.828922 55.810974,22.793911 46.483440,27.949057 
z"/>
<path fill="#19424E" opacity="1.000000" stroke="none" 
	d="
M46.754707,27.713448 
	C55.810974,22.793911 64.181152,16.828922 73.505196,13.809700 
	C81.759743,11.136791 91.070786,11.684067 99.926117,10.936396 
	C102.403542,10.727221 104.921196,11.053149 107.416344,10.985180 
	C119.364494,10.659703 130.053909,14.314482 140.770355,19.547741 
	C154.309509,26.159449 165.470291,35.327225 174.282379,47.131809 
	C179.058990,53.530518 182.905640,61.017063 185.451950,68.591080 
	C188.920044,78.906937 192.492264,89.332146 192.087357,100.660133 
	C191.208023,125.262383 183.199875,146.345139 165.600616,164.282913 
	C151.403763,178.752823 134.775787,187.630051 115.241203,190.477341 
	C94.203735,193.543686 74.139130,189.895401 55.364693,178.868927 
	C45.967545,173.349854 37.746742,166.649658 31.166016,158.424240 
	C19.952364,144.408035 12.518110,128.688889 10.748244,110.162514 
	C8.474929,86.366180 15.212505,65.427208 28.390188,46.383224 
	C33.218155,39.405994 40.384048,34.046513 46.754707,27.713448 
M18.091911,131.166855 
	C19.859060,134.373917 21.896385,137.463791 23.346935,140.808167 
	C29.883411,155.878677 40.884109,166.614090 54.650085,175.281006 
	C68.611641,184.071075 83.699089,188.435104 99.916397,188.910660 
	C116.037704,189.383362 130.982071,185.069626 145.146713,177.130646 
	C157.255676,170.343826 166.763474,160.534164 174.543518,149.855576 
	C184.838715,135.724731 189.625000,119.013802 189.163986,100.991493 
	C188.947861,92.543037 186.989075,84.642609 185.392471,76.486755 
	C182.733398,62.903492 175.389404,52.153870 166.642441,42.406689 
	C153.805908,28.102274 137.771973,18.382229 118.740486,14.519952 
	C102.985435,11.322598 87.254601,12.287284 72.036575,17.519453 
	C57.120045,22.647968 44.578262,31.379089 34.053032,43.298557 
	C23.454985,55.300484 17.481499,69.547035 14.295765,84.697899 
	C11.078357,99.999413 12.870020,115.482918 18.091911,131.166855 
z"/>
<path fill="#19434F" opacity="1.000000" stroke="none" 
	d="
M17.928108,130.811798 
	C12.870020,115.482918 11.078357,99.999413 14.295765,84.697899 
	C17.481499,69.547035 23.454985,55.300484 34.053032,43.298557 
	C44.578262,31.379089 57.120045,22.647968 72.036575,17.519453 
	C87.254601,12.287284 102.985435,11.322598 118.740486,14.519952 
	C137.771973,18.382229 153.805908,28.102274 166.642441,42.406689 
	C175.389404,52.153870 182.733398,62.903492 185.392471,76.486755 
	C186.989075,84.642609 188.947861,92.543037 189.163986,100.991493 
	C189.625000,119.013802 184.838715,135.724731 174.543518,149.855576 
	C166.763474,160.534164 157.255676,170.343826 145.146713,177.130646 
	C130.982071,185.069626 116.037704,189.383362 99.916397,188.910660 
	C83.699089,188.435104 68.611641,184.071075 54.650085,175.281006 
	C40.884109,166.614090 29.883411,155.878677 23.346935,140.808167 
	C21.896385,137.463791 19.859060,134.373917 17.928108,130.811798 
M171.000000,54.000000 
	C171.000000,54.000000 171.000000,53.999825 170.962082,53.259125 
	C168.772812,46.362213 164.248322,41.449005 157.476715,37.702675 
	C156.651138,37.135044 155.825577,36.567413 154.868057,35.348244 
	C153.912033,34.565594 152.956024,33.782944 151.500000,33.000061 
	C151.333328,32.999989 151.166672,32.999920 150.817032,32.361301 
	C149.211349,31.240944 147.605682,30.120586 145.500000,29.000000 
	C145.333328,28.999924 145.166672,28.999847 144.849304,28.312265 
	C144.373688,27.653677 144.044525,26.714369 143.400589,26.378389 
	C132.883072,20.890783 121.927979,16.263615 110.077538,15.148930 
	C90.150734,13.274559 71.477905,17.979856 54.497517,28.507742 
	C50.162872,31.195234 46.806168,35.460041 43.000000,39.000000 
	C43.000000,39.000000 43.000153,39.000153 42.334454,39.131680 
	C41.223022,40.421173 40.111588,41.710663 39.000000,43.000000 
	C39.000000,43.000000 39.000153,43.000153 38.324654,43.134586 
	C36.440636,44.931423 34.004883,46.414253 32.771511,48.581390 
	C28.285511,56.463673 23.431507,64.271095 20.122213,72.661278 
	C12.569166,91.810822 13.822322,111.261887 20.458958,130.451645 
	C21.191990,132.571198 23.449192,134.163605 24.999708,136.666992 
	C24.999870,137.111328 25.000034,137.555664 25.039749,138.734131 
	C27.693115,142.822754 30.346483,146.911377 33.000000,151.500000 
	C33.000000,151.500000 33.000153,152.000000 33.118767,152.641418 
	C34.079227,153.760941 35.039692,154.880478 36.498512,156.289505 
	C36.999058,156.859665 37.499607,157.429840 38.133144,158.671677 
	C40.088814,160.447784 42.044483,162.223892 44.410316,164.400757 
	C44.940140,164.600510 45.469967,164.800247 46.137238,165.678375 
	C46.682068,166.494980 47.040989,167.608353 47.799652,168.083618 
	C58.926922,175.054367 69.798340,182.606262 83.186485,184.775314 
	C85.638733,185.172592 88.109512,185.542343 90.585686,185.688461 
	C97.454369,186.093735 104.493324,187.468964 111.169472,186.475311 
	C124.872002,184.435883 137.963242,179.772751 149.541977,172.001114 
	C153.642151,169.249115 156.548584,164.718567 160.384369,160.720383 
	C160.627213,160.512436 160.832428,160.272308 161.673187,159.866684 
	C162.626297,159.231461 163.672241,158.700333 164.518661,157.945480 
	C178.569778,145.414368 183.928497,128.465225 186.744446,110.888199 
	C189.400711,94.308006 184.895264,78.321777 178.340698,63.069813 
	C177.329193,60.716125 174.817780,59.007034 173.000000,56.500008 
	C173.000000,56.500008 173.000000,56.000172 172.837128,55.410004 
	C172.224747,54.939953 171.612381,54.469898 171.000000,54.000000 
z"/>
<path fill="#184751" opacity="1.000000" stroke="none" 
	d="
M145.000000,28.999771 
	C145.166672,28.999847 145.333328,28.999924 145.820618,29.335045 
	C147.760818,30.780008 149.380402,31.889927 151.000000,32.999847 
	C151.166672,32.999920 151.333328,32.999989 151.815979,33.325928 
	C153.087982,34.434460 154.043991,35.217121 155.000000,35.999779 
	C155.825577,36.567413 156.651138,37.135044 157.805038,38.188019 
	C161.088898,42.448963 164.044449,46.224560 166.663422,49.933449 
	C164.438522,48.298458 162.552124,46.727867 160.661469,45.162411 
	C157.775864,42.773129 154.887299,40.387394 151.750000,38.000076 
	C151.500000,38.000000 151.000000,37.999847 150.930862,37.659569 
	C146.469513,32.689526 141.909836,28.344812 134.750000,28.000126 
	C134.333328,27.999939 134.166672,27.999859 133.921997,27.650394 
	C133.077530,26.476692 132.445404,25.155640 131.523422,24.906292 
	C123.845428,22.829821 116.211296,20.019012 108.378975,19.201153 
	C90.622917,17.347042 74.140739,22.463295 58.624077,30.805237 
	C56.447525,31.975380 54.860020,34.241203 52.749962,35.999962 
	C52.500076,36.000080 52.000305,36.000317 51.663979,36.066856 
	C49.218391,38.422215 47.109131,40.711029 44.855118,43.249039 
	C44.140194,43.998814 43.570023,44.499393 42.663574,45.066608 
	C40.218273,47.422215 38.109245,49.711185 36.000145,52.250114 
	C36.000069,52.500076 35.999866,53.000000 35.704819,53.081451 
	C34.939907,53.775318 34.470047,54.387733 34.000160,55.250114 
	C34.000130,55.500076 34.000000,56.000000 33.684731,56.101479 
	C32.912971,57.135307 32.456486,58.067654 31.759575,59.232952 
	C30.679409,61.310604 29.839666,63.155300 28.754824,65.233513 
	C27.673149,67.311348 26.836575,69.155678 25.837526,71.280136 
	C25.116747,72.706848 24.558443,73.853424 23.769466,75.276535 
	C16.393782,94.671181 18.185860,113.486885 25.612450,132.048645 
	C26.222525,133.573441 27.846811,134.692444 29.057339,136.333939 
	C29.743244,138.111923 30.371658,139.555954 31.064623,141.353546 
	C34.261909,151.318817 42.614639,156.590836 49.202351,163.315872 
	C49.772949,163.898346 51.050480,163.788330 51.999817,164.000000 
	C52.000000,164.000000 51.999821,164.000610 52.065872,164.326324 
	C53.087948,165.434692 54.043972,166.217346 55.249962,167.000000 
	C55.499924,167.000000 55.999847,167.000000 56.099373,167.329590 
	C58.465878,168.772797 60.732861,169.886398 62.999924,171.000000 
	C63.000000,171.000000 62.999920,171.000000 63.098549,171.328369 
	C65.504860,173.118683 67.637550,175.214630 70.156830,175.910004 
	C75.328178,177.337402 80.706635,178.014526 86.333305,179.000305 
	C87.111084,179.000290 87.555389,179.000458 88.127274,179.337097 
	C91.503242,180.115738 94.751617,180.557877 98.375000,181.000000 
	C99.500000,181.000000 100.250000,181.000000 101.312241,181.185074 
	C103.152779,181.816864 104.779785,182.849106 106.192657,182.610962 
	C113.045883,181.455795 119.862450,180.050827 126.638992,178.502365 
	C127.884872,178.217682 128.885925,176.861572 130.314545,175.848267 
	C135.701004,173.302032 140.915680,171.157516 145.771698,168.384857 
	C147.607666,167.336578 148.615356,164.837662 150.140533,162.807892 
	C150.488525,162.373032 150.728790,162.167969 151.417786,162.000519 
	C153.222885,162.000290 154.611450,162.000153 155.933167,162.337051 
	C149.353775,172.380478 138.587677,175.844315 128.689941,179.789230 
	C115.560898,185.022095 101.728363,186.234009 87.431145,183.268219 
	C78.197792,181.352890 69.442329,179.012878 61.427322,173.994553 
	C56.384487,170.837173 51.148903,167.987640 45.999790,165.000000 
	C45.469967,164.800247 44.940140,164.600510 44.138680,163.864532 
	C41.911407,161.552200 39.955780,159.776108 38.000153,158.000000 
	C37.499607,157.429840 36.999058,156.859665 36.231155,155.789963 
	C34.975914,154.193619 33.988033,153.096802 33.000153,152.000000 
	C33.000153,152.000000 33.000000,151.500000 32.935684,150.897339 
	C30.247641,146.196442 27.623917,142.098221 25.000195,138.000000 
	C25.000034,137.555664 24.999870,137.111328 24.933516,135.974960 
	C12.030045,106.376366 15.062343,78.933838 32.473217,52.816715 
	C34.652840,49.547176 36.824696,46.272465 39.000153,43.000153 
	C39.000153,43.000153 39.000000,43.000000 39.332886,42.934235 
	C40.777229,41.579033 41.888691,40.289593 43.000153,39.000153 
	C43.000153,39.000153 43.000000,39.000000 43.338150,38.932816 
	C44.510357,38.344551 45.477379,37.957546 46.158405,37.282162 
	C55.424534,28.092779 67.362564,23.162979 79.296837,19.835054 
	C94.483986,15.600051 110.399734,14.605197 125.711731,21.056496 
	C132.119278,23.756145 138.569290,26.355059 145.000000,28.999771 
z"/>
<path fill="#184751" opacity="1.000000" stroke="none" 
	d="
M173.000000,56.000172 
	C173.000000,56.000172 173.000000,56.500008 173.070526,57.096542 
	C183.321701,77.045456 188.301117,97.147469 183.080505,119.092438 
	C180.621490,129.429062 176.258392,138.845367 170.879211,147.799316 
	C169.123123,150.722397 165.674530,152.628677 162.948273,154.717361 
	C162.597900,153.956482 162.299255,153.478241 162.000458,152.666672 
	C162.000000,151.888901 161.999695,151.444443 161.999786,150.666870 
	C162.000656,149.889572 162.001160,149.445389 162.376434,149.001160 
	C163.500809,149.000931 164.250412,149.000778 165.225250,149.172806 
	C166.300323,148.563339 167.150162,147.781677 168.000000,146.750000 
	C168.000000,146.500000 168.000000,146.000000 168.319061,145.908173 
	C169.425415,144.544250 170.212708,143.272125 171.000000,141.750000 
	C171.000000,141.500000 171.000000,141.000000 171.324890,140.891174 
	C178.151611,131.619751 180.316208,120.840691 182.881470,110.237938 
	C183.188095,108.970551 182.322510,107.419548 182.000183,105.550018 
	C182.000061,102.400032 182.000031,99.700012 182.223495,96.695892 
	C181.955948,92.355682 181.824402,88.235672 180.905655,84.299393 
	C178.270554,73.009308 174.192596,62.295734 167.000000,53.000080 
	C167.000000,53.000000 167.000000,53.000153 167.000000,52.666744 
	C167.000000,51.888790 167.000000,51.444241 167.306229,51.081806 
	C168.741638,52.109219 169.870819,53.054520 171.000000,53.999825 
	C171.000000,53.999825 171.000000,54.000000 171.081436,54.295013 
	C171.775253,55.060070 172.387619,55.530121 173.000000,56.000172 
z"/>
<path fill="#184550" opacity="1.000000" stroke="none" 
	d="
M46.068512,165.339188 
	C51.148903,167.987640 56.384487,170.837173 61.427322,173.994553 
	C69.442329,179.012878 78.197792,181.352890 87.431145,183.268219 
	C101.728363,186.234009 115.560898,185.022095 128.689941,179.789230 
	C138.587677,175.844315 149.353775,172.380478 156.215820,162.285278 
	C157.043533,161.597626 157.521759,161.298813 158.333328,161.000000 
	C159.111099,161.000000 159.555557,161.000000 160.000000,161.000000 
	C156.548584,164.718567 153.642151,169.249115 149.541977,172.001114 
	C137.963242,179.772751 124.872002,184.435883 111.169472,186.475311 
	C104.493324,187.468964 97.454369,186.093735 90.585686,185.688461 
	C88.109512,185.542343 85.638733,185.172592 83.186485,184.775314 
	C69.798340,182.606262 58.926922,175.054367 47.799652,168.083618 
	C47.040989,167.608353 46.682068,166.494980 46.068512,165.339188 
z"/>
<path fill="#184550" opacity="1.000000" stroke="none" 
	d="
M163.000000,155.000000 
	C165.674530,152.628677 169.123123,150.722397 170.879211,147.799316 
	C176.258392,138.845367 180.621490,129.429062 183.080505,119.092438 
	C188.301117,97.147469 183.321701,77.045456 173.070526,57.346458 
	C174.817780,59.007034 177.329193,60.716125 178.340698,63.069813 
	C184.895264,78.321777 189.400711,94.308006 186.744446,110.888199 
	C183.928497,128.465225 178.569778,145.414368 164.518661,157.945480 
	C163.672241,158.700333 162.626297,159.231461 161.336594,159.600006 
	C161.000000,158.888901 161.000000,158.444443 161.199997,157.765717 
	C161.933319,156.687607 162.466660,155.843796 163.000000,155.000000 
z"/>
<path fill="#184550" opacity="1.000000" stroke="none" 
	d="
M144.924652,28.656017 
	C138.569290,26.355059 132.119278,23.756145 125.711731,21.056496 
	C110.399734,14.605197 94.483986,15.600051 79.296837,19.835054 
	C67.362564,23.162979 55.424534,28.092779 46.158405,37.282162 
	C45.477379,37.957546 44.510357,38.344551 43.338226,38.932892 
	C46.806168,35.460041 50.162872,31.195234 54.497517,28.507742 
	C71.477905,17.979856 90.150734,13.274559 110.077538,15.148930 
	C121.927979,16.263615 132.883072,20.890783 143.400589,26.378389 
	C144.044525,26.714369 144.373688,27.653677 144.924652,28.656017 
z"/>
<path fill="#184550" opacity="1.000000" stroke="none" 
	d="
M38.662403,43.067368 
	C36.824696,46.272465 34.652840,49.547176 32.473217,52.816715 
	C15.062343,78.933838 12.030045,106.376366 24.933413,135.641724 
	C23.449192,134.163605 21.191990,132.571198 20.458958,130.451645 
	C13.822322,111.261887 12.569166,91.810822 20.122213,72.661278 
	C23.431507,64.271095 28.285511,56.463673 32.771511,48.581390 
	C34.004883,46.414253 36.440636,44.931423 38.662403,43.067368 
z"/>
<path fill="#184550" opacity="1.000000" stroke="none" 
	d="
M170.981049,53.629475 
	C169.870819,53.054520 168.741638,52.109219 167.306229,50.831924 
	C167.000000,50.499928 167.000000,50.000153 167.000000,50.000153 
	C164.044449,46.224560 161.088898,42.448963 158.066681,38.336761 
	C164.248322,41.449005 168.772812,46.362213 170.981049,53.629475 
z"/>
<path fill="#184550" opacity="1.000000" stroke="none" 
	d="
M25.019972,138.367065 
	C27.623917,142.098221 30.247641,146.196442 32.935608,150.647339 
	C30.346483,146.911377 27.693115,142.822754 25.019972,138.367065 
z"/>
<path fill="#184550" opacity="1.000000" stroke="none" 
	d="
M38.066650,158.335846 
	C39.955780,159.776108 41.911407,161.552200 43.933598,163.664154 
	C42.044483,162.223892 40.088814,160.447784 38.066650,158.335846 
z"/>
<path fill="#184550" opacity="1.000000" stroke="none" 
	d="
M150.908508,32.680573 
	C149.380402,31.889927 147.760818,30.780008 146.070618,29.335159 
	C147.605682,30.120586 149.211349,31.240944 150.908508,32.680573 
z"/>
<path fill="#184550" opacity="1.000000" stroke="none" 
	d="
M42.667305,39.065918 
	C41.888691,40.289593 40.777229,41.579033 39.332962,42.934311 
	C40.111588,41.710663 41.223022,40.421173 42.667305,39.065918 
z"/>
<path fill="#184550" opacity="1.000000" stroke="none" 
	d="
M33.059460,152.320709 
	C33.988033,153.096802 34.975914,154.193619 35.981976,155.645203 
	C35.039692,154.880478 34.079227,153.760941 33.059460,152.320709 
z"/>
<path fill="#184751" opacity="1.000000" stroke="none" 
	d="
M161.000000,158.000000 
	C161.000000,158.444443 161.000000,158.888901 161.000000,159.666672 
	C160.832428,160.272308 160.627213,160.512436 160.192184,160.860199 
	C159.555557,161.000000 159.111099,161.000000 158.399307,160.674225 
	C159.087982,159.565628 160.043991,158.782822 161.000000,158.000000 
z"/>
<path fill="#184550" opacity="1.000000" stroke="none" 
	d="
M154.934021,35.674011 
	C154.043991,35.217121 153.087982,34.434460 152.065979,33.326042 
	C152.956024,33.782944 153.912033,34.565594 154.934021,35.674011 
z"/>
<path fill="#184550" opacity="1.000000" stroke="none" 
	d="
M172.918564,55.705086 
	C172.387619,55.530121 171.775253,55.060070 171.081436,54.294933 
	C171.612381,54.469898 172.224747,54.939953 172.918564,55.705086 
z"/>
<path fill="#174A53" opacity="1.000000" stroke="none" 
	d="
M24.000137,75.000000 
	C24.558443,73.853424 25.116747,72.706848 26.155022,71.187820 
	C27.423302,68.876915 28.211613,66.938461 28.999924,65.000000 
	C29.839666,63.155300 30.679409,61.310604 32.074841,59.131470 
	C33.087021,57.864689 33.543510,56.932346 34.000000,56.000000 
	C34.000000,56.000000 34.000130,55.500076 34.295181,55.168617 
	C35.060112,54.224770 35.529991,53.612385 35.999870,53.000000 
	C35.999866,53.000000 36.000069,52.500076 36.336403,52.183430 
	C38.781776,49.577847 40.890812,47.288910 42.999847,44.999973 
	C43.570023,44.499393 44.140194,43.998814 45.191418,43.182457 
	C47.781750,40.577896 49.891026,38.289108 52.000305,36.000317 
	C52.000305,36.000317 52.500076,36.000080 53.095200,35.929989 
	C54.421932,35.481117 55.132889,35.054050 55.888294,34.730911 
	C64.998253,30.833963 73.789268,25.350086 83.300896,23.417833 
	C100.346664,19.955050 117.591164,21.058813 134.000000,27.999777 
	C134.166672,27.999859 134.333328,27.999939 134.934174,28.283155 
	C140.578903,31.710810 145.789444,34.855328 151.000000,37.999847 
	C151.000000,37.999847 151.500000,38.000000 151.816650,38.336647 
	C157.088882,43.448910 162.044434,48.224529 167.000000,53.000153 
	C167.000000,53.000153 167.000000,53.000000 167.000122,53.417206 
	C167.597885,56.115326 168.075790,58.436363 168.823303,60.667042 
	C169.767044,63.483318 170.930634,66.225922 171.671906,68.902092 
	C166.453659,62.202305 161.381348,55.726154 156.714233,48.970078 
	C149.518570,38.553707 138.238922,33.773670 127.519394,29.056746 
	C116.940819,24.401844 105.260399,23.466867 93.337723,24.800823 
	C68.550171,27.574148 49.632378,38.992023 36.237976,60.062439 
	C22.779354,81.233879 21.083977,103.745155 28.741764,126.974609 
	C33.756729,142.187180 44.461613,153.698303 56.873287,163.465012 
	C63.215084,168.455353 70.712097,171.188278 78.588684,173.048828 
	C80.907578,173.596573 82.872963,175.640915 84.583664,176.999619 
	C82.777977,176.999893 81.388985,176.999954 79.895584,176.680130 
	C78.193985,175.573715 76.596786,174.787155 74.666336,174.000473 
	C73.888718,174.000214 73.444366,174.000107 72.775330,173.765167 
	C71.366943,173.020432 70.183250,172.510513 68.662033,171.997269 
	C66.549644,171.662613 64.774780,171.331299 62.999920,171.000000 
	C62.999920,171.000000 63.000000,171.000000 62.842888,170.689148 
	C60.457130,169.252182 58.228489,168.126099 55.999847,167.000000 
	C55.999847,167.000000 55.499924,167.000000 55.183975,166.674225 
	C53.911957,165.565826 52.955891,164.783218 51.999821,164.000610 
	C51.999821,164.000610 52.000000,164.000000 51.932430,163.662445 
	C49.343243,160.816528 46.731365,158.391602 44.319500,155.781799 
	C39.818340,150.911240 35.433384,145.933273 31.000072,141.000000 
	C30.371658,139.555954 29.743244,138.111923 29.037321,135.956879 
	C28.823345,134.597000 28.809793,133.889511 28.532469,133.307755 
	C21.249527,118.030251 20.789495,101.967628 22.938992,85.582977 
	C23.399939,82.069382 23.651903,78.528381 24.000137,75.000000 
z"/>
<path fill="#184852" opacity="1.000000" stroke="none" 
	d="
M133.921997,27.650394 
	C117.591164,21.058813 100.346664,19.955050 83.300896,23.417833 
	C73.789268,25.350086 64.998253,30.833963 55.888294,34.730911 
	C55.132889,35.054050 54.421932,35.481117 53.345085,35.929871 
	C54.860020,34.241203 56.447525,31.975380 58.624077,30.805237 
	C74.140739,22.463295 90.622917,17.347042 108.378975,19.201153 
	C116.211296,20.019012 123.845428,22.829821 131.523422,24.906292 
	C132.445404,25.155640 133.077530,26.476692 133.921997,27.650394 
z"/>
<path fill="#184852" opacity="1.000000" stroke="none" 
	d="
M23.769464,75.276535 
	C23.651903,78.528381 23.399939,82.069382 22.938992,85.582977 
	C20.789495,101.967628 21.249527,118.030251 28.532469,133.307755 
	C28.809793,133.889511 28.823345,134.597000 28.979832,135.622955 
	C27.846811,134.692444 26.222525,133.573441 25.612450,132.048645 
	C18.185860,113.486885 16.393782,94.671181 23.769464,75.276535 
z"/>
<path fill="#174A53" opacity="1.000000" stroke="none" 
	d="
M87.999695,179.000610 
	C87.555389,179.000458 87.111084,179.000290 86.454445,178.748306 
	C86.494743,177.997650 86.747368,177.498825 87.297363,176.786072 
	C102.018608,177.727081 116.285873,177.429260 129.942261,172.339996 
	C129.589676,173.786240 129.294846,174.893127 128.684845,176.101990 
	C125.920456,176.471344 123.464561,176.688965 121.023453,177.016754 
	C116.344635,177.644989 111.674210,178.335770 106.717590,179.052185 
	C105.956589,179.402527 105.478294,179.701263 104.642578,180.002731 
	C103.190102,180.336975 102.095055,180.668488 101.000000,181.000000 
	C100.250000,181.000000 99.500000,181.000000 98.076889,180.781464 
	C94.269081,180.042145 91.134392,179.521378 87.999695,179.000610 
z"/>
<path fill="#184852" opacity="1.000000" stroke="none" 
	d="
M107.000305,179.000595 
	C111.674210,178.335770 116.344635,177.644989 121.023453,177.016754 
	C123.464561,176.688965 125.920456,176.471344 128.934845,176.101990 
	C129.500000,176.000000 130.000000,176.000000 130.000000,176.000000 
	C128.885925,176.861572 127.884872,178.217682 126.638992,178.502365 
	C119.862450,180.050827 113.045883,181.455795 106.192657,182.610962 
	C104.779785,182.849106 103.152779,181.816864 101.312241,181.185074 
	C102.095055,180.668488 103.190102,180.336975 104.839226,180.158035 
	C105.928970,179.873947 106.464638,179.437271 107.000305,179.000595 
z"/>
<path fill="#184852" opacity="1.000000" stroke="none" 
	d="
M31.064621,141.353546 
	C35.433384,145.933273 39.818340,150.911240 44.319500,155.781799 
	C46.731365,158.391602 49.343243,160.816528 51.932243,163.662445 
	C51.050480,163.788330 49.772949,163.898346 49.202351,163.315872 
	C42.614639,156.590836 34.261909,151.318817 31.064621,141.353546 
z"/>
<path fill="#184852" opacity="1.000000" stroke="none" 
	d="
M161.199997,157.765717 
	C160.043991,158.782822 159.087982,159.565628 158.065979,160.674225 
	C157.521759,161.298813 157.043533,161.597626 156.282654,161.948212 
	C154.611450,162.000153 153.222885,162.000290 151.417450,161.750366 
	C151.000381,161.333542 151.000198,161.166763 151.218018,160.749390 
	C153.957367,157.999191 156.478683,155.499588 159.375061,153.000000 
	C160.500290,153.000000 161.250458,153.000000 162.000610,153.000000 
	C162.299255,153.478241 162.597900,153.956482 162.948273,154.717361 
	C162.466660,155.843796 161.933319,156.687607 161.199997,157.765717 
z"/>
<path fill="#184852" opacity="1.000000" stroke="none" 
	d="
M87.000000,177.000000 
	C86.747368,177.498825 86.494743,177.997650 86.120972,178.748474 
	C80.706635,178.014526 75.328178,177.337402 70.156830,175.910004 
	C67.637550,175.214630 65.504860,173.118683 63.098549,171.328369 
	C64.774780,171.331299 66.549644,171.662613 68.744110,172.299164 
	C70.442474,173.069611 71.721245,173.534805 73.000015,174.000000 
	C73.444366,174.000107 73.888718,174.000214 74.770889,174.320251 
	C76.805801,175.426788 78.402901,176.213394 80.000000,177.000000 
	C81.388985,176.999954 82.777977,176.999893 84.916931,176.999725 
	C86.111267,176.999741 86.555634,176.999863 87.000000,177.000000 
z"/>
<path fill="#184A53" opacity="1.000000" stroke="none" 
	d="
M130.314545,175.848282 
	C130.000000,176.000000 129.500000,176.000000 129.250000,176.000000 
	C129.294846,174.893127 129.589676,173.786240 130.275482,172.339676 
	C131.110779,171.999786 131.555084,171.999588 132.355392,171.934204 
	C138.474472,168.912674 144.237534,165.956329 150.000610,163.000000 
	C148.615356,164.837662 147.607666,167.336578 145.771698,168.384857 
	C140.915680,171.157516 135.701004,173.302032 130.314545,175.848282 
z"/>
<path fill="#184852" opacity="1.000000" stroke="none" 
	d="
M167.000000,52.666744 
	C162.044434,48.224529 157.088882,43.448910 152.066650,38.336723 
	C154.887299,40.387394 157.775864,42.773129 160.661469,45.162411 
	C162.552124,46.727867 164.438522,48.298458 166.663422,49.933449 
	C167.000000,50.000153 167.000000,50.499928 167.000000,50.749809 
	C167.000000,51.444241 167.000000,51.888790 167.000000,52.666744 
z"/>
<path fill="#184852" opacity="1.000000" stroke="none" 
	d="
M150.930862,37.659569 
	C145.789444,34.855328 140.578903,31.710810 135.184174,28.283264 
	C141.909836,28.344812 146.469513,32.689526 150.930862,37.659569 
z"/>
<path fill="#174A53" opacity="1.000000" stroke="none" 
	d="
M150.140533,162.807892 
	C144.237534,165.956329 138.474472,168.912674 132.453766,171.606750 
	C138.464081,167.896347 144.732040,164.448166 151.000000,161.000000 
	C151.000198,161.166763 151.000381,161.333542 151.000900,161.750458 
	C150.728790,162.167969 150.488525,162.373032 150.140533,162.807892 
z"/>
<path fill="#184852" opacity="1.000000" stroke="none" 
	d="
M88.127274,179.337097 
	C91.134392,179.521378 94.269081,180.042145 97.701889,180.781464 
	C94.751617,180.557877 91.503242,180.115738 88.127274,179.337097 
z"/>
<path fill="#184852" opacity="1.000000" stroke="none" 
	d="
M51.663979,36.066856 
	C49.891026,38.289108 47.781750,40.577896 45.336170,42.933266 
	C47.109131,40.711029 49.218391,38.422215 51.663979,36.066856 
z"/>
<path fill="#184852" opacity="1.000000" stroke="none" 
	d="
M42.663574,45.066608 
	C40.890812,47.288910 38.781776,49.577847 36.336479,51.933472 
	C38.109245,49.711185 40.218273,47.422215 42.663574,45.066608 
z"/>
<path fill="#184852" opacity="1.000000" stroke="none" 
	d="
M56.099369,167.329605 
	C58.228489,168.126099 60.457130,169.252182 62.842812,170.689148 
	C60.732861,169.886398 58.465878,168.772797 56.099369,167.329605 
z"/>
<path fill="#184852" opacity="1.000000" stroke="none" 
	d="
M28.754824,65.233513 
	C28.211613,66.938461 27.423302,68.876915 26.317495,70.907684 
	C26.836575,69.155678 27.673149,67.311348 28.754824,65.233513 
z"/>
<path fill="#184852" opacity="1.000000" stroke="none" 
	d="
M52.065872,164.326324 
	C52.955891,164.783218 53.911957,165.565826 54.934013,166.674225 
	C54.043972,166.217346 53.087948,165.434692 52.065872,164.326324 
z"/>
<path fill="#184852" opacity="1.000000" stroke="none" 
	d="
M33.684731,56.101479 
	C33.543510,56.932346 33.087021,57.864689 32.315266,58.898514 
	C32.456486,58.067654 32.912971,57.135307 33.684731,56.101479 
z"/>
<path fill="#184852" opacity="1.000000" stroke="none" 
	d="
M35.704819,53.081451 
	C35.529991,53.612385 35.060112,54.224770 34.295212,54.918655 
	C34.470047,54.387733 34.939907,53.775318 35.704819,53.081451 
z"/>
<path fill="#174E55" opacity="1.000000" stroke="none" 
	d="
M151.218018,160.749390 
	C144.732040,164.448166 138.464081,167.896347 132.097748,171.671951 
	C131.555084,171.999588 131.110779,171.999786 130.333237,172.000305 
	C116.285873,177.429260 102.018608,177.727081 87.297363,176.786072 
	C86.555634,176.999863 86.111267,176.999741 85.333633,176.999512 
	C82.872963,175.640915 80.907578,173.596573 78.588684,173.048828 
	C70.712097,171.188278 63.215084,168.455353 56.873287,163.465012 
	C44.461613,153.698303 33.756729,142.187180 28.741764,126.974609 
	C21.083977,103.745155 22.779354,81.233879 36.237976,60.062439 
	C49.632378,38.992023 68.550171,27.574148 93.337723,24.800823 
	C105.260399,23.466867 116.940819,24.401844 127.519394,29.056746 
	C138.238922,33.773670 149.518570,38.553707 156.714233,48.970078 
	C161.381348,55.726154 166.453659,62.202305 171.729767,69.241463 
	C172.410278,70.785934 172.705444,71.892815 173.023499,73.394440 
	C174.693604,82.068344 176.909760,90.283394 177.851654,98.642036 
	C179.188995,110.510078 175.465363,121.648521 170.740417,132.344559 
	C168.212601,138.066895 164.938797,143.459702 162.001663,149.001221 
	C162.001160,149.445389 162.000656,149.889572 161.663483,150.688141 
	C160.551208,151.695023 159.775604,152.347519 159.000000,153.000000 
	C156.478683,155.499588 153.957367,157.999191 151.218018,160.749390 
M57.749825,157.000015 
	C58.499783,157.000214 59.249737,157.000412 60.008881,157.761734 
	C61.174541,159.612823 61.921490,162.426483 63.578777,163.147415 
	C70.535973,166.173843 77.824348,168.426559 84.881355,171.238876 
	C94.956505,175.253952 105.189323,173.206848 115.300629,172.045547 
	C128.148972,170.569855 138.882568,163.888382 148.404831,155.733978 
	C154.368149,150.627289 160.131805,144.641846 164.057739,137.924316 
	C175.225311,118.815903 175.908829,98.118080 169.761963,77.295746 
	C167.199783,68.616356 163.590775,60.168503 155.864899,54.160278 
	C150.287979,49.823261 145.918945,43.818535 140.090256,39.942474 
	C125.807838,30.444706 109.826744,25.498611 92.639885,28.272972 
	C55.466469,34.273632 35.605362,56.535793 28.393875,91.386810 
	C27.045649,97.902397 27.303598,105.197517 28.691700,111.735580 
	C31.282915,123.940361 35.109661,136.003189 43.827290,145.503265 
	C47.743546,149.771011 52.580612,153.193802 57.749825,157.000015 
z"/>
<path fill="#174A53" opacity="1.000000" stroke="none" 
	d="
M162.376434,149.001160 
	C164.938797,143.459702 168.212601,138.066895 170.740417,132.344559 
	C175.465363,121.648521 179.188995,110.510078 177.851654,98.642036 
	C176.909760,90.283394 174.693604,82.068344 173.365021,73.499123 
	C178.101440,75.350418 176.794968,79.431145 177.052200,83.282303 
	C177.402527,84.043350 177.701263,84.521675 178.000061,85.333282 
	C178.000305,86.110939 178.000458,86.555321 178.013748,87.327438 
	C178.351257,88.436790 178.675629,89.218391 179.019257,90.370323 
	C180.025681,92.827095 181.012848,94.913544 182.000000,97.000000 
	C182.000031,99.700012 182.000061,102.400032 181.776733,105.859360 
	C181.035568,109.412453 180.517792,112.206230 179.746445,115.057190 
	C179.328583,115.742920 179.164291,116.371460 178.933823,117.358215 
	C176.560410,123.716446 174.186371,129.692154 171.989594,135.732330 
	C171.387054,137.389053 171.315308,139.238815 171.000000,141.000000 
	C171.000000,141.000000 171.000000,141.500000 170.635223,141.783890 
	C169.513641,143.378525 168.756821,144.689255 168.000000,146.000000 
	C168.000000,146.000000 168.000000,146.500000 167.663651,146.771362 
	C166.551529,147.695358 165.775772,148.347977 165.000000,149.000610 
	C164.250412,149.000778 163.500809,149.000931 162.376434,149.001160 
z"/>
<path fill="#184852" opacity="1.000000" stroke="none" 
	d="
M178.000610,86.999695 
	C178.000458,86.555321 178.000305,86.110939 178.155396,85.136642 
	C177.873962,84.070999 177.437286,83.535286 177.000610,82.999573 
	C176.794968,79.431145 178.101440,75.350418 173.342102,73.104378 
	C172.705444,71.892815 172.410278,70.785934 172.057251,69.339676 
	C170.930634,66.225922 169.767044,63.483318 168.823303,60.667042 
	C168.075790,58.436363 167.597885,56.115326 167.000122,53.417286 
	C174.192596,62.295734 178.270554,73.009308 180.905655,84.299393 
	C181.824402,88.235672 181.955948,92.355682 182.223511,96.695892 
	C181.012848,94.913544 180.025681,92.827095 179.211853,90.142181 
	C178.923676,88.695709 178.462143,87.847702 178.000610,86.999695 
z"/>
<path fill="#184852" opacity="1.000000" stroke="none" 
	d="
M180.000000,115.000000 
	C180.517792,112.206230 181.035568,109.412453 181.776794,106.309341 
	C182.322510,107.419548 183.188095,108.970551 182.881470,110.237938 
	C180.316208,120.840691 178.151611,131.619751 171.324890,140.891174 
	C171.315308,139.238815 171.387054,137.389053 171.989594,135.732330 
	C174.186371,129.692154 176.560410,123.716446 179.134216,117.153107 
	C179.600525,116.059845 179.800262,115.529922 180.000000,115.000000 
z"/>
<path fill="#184852" opacity="1.000000" stroke="none" 
	d="
M168.319061,145.908173 
	C168.756821,144.689255 169.513641,143.378525 170.635239,142.033890 
	C170.212708,143.272125 169.425415,144.544250 168.319061,145.908173 
z"/>
<path fill="#184852" opacity="1.000000" stroke="none" 
	d="
M165.225250,149.172806 
	C165.775772,148.347977 166.551529,147.695358 167.663651,147.021362 
	C167.150162,147.781677 166.300323,148.563339 165.225250,149.172806 
z"/>
<path fill="#174A53" opacity="1.000000" stroke="none" 
	d="
M159.375061,153.000000 
	C159.775604,152.347519 160.551208,151.695023 161.663101,151.021271 
	C161.999695,151.444443 162.000000,151.888901 162.000458,152.666672 
	C161.250458,153.000000 160.500290,153.000000 159.375061,153.000000 
z"/>
<path fill="#184A53" opacity="1.000000" stroke="none" 
	d="
M79.895584,176.680130 
	C78.402901,176.213394 76.805801,175.426788 75.104149,174.320404 
	C76.596786,174.787155 78.193985,175.573715 79.895584,176.680130 
z"/>
<path fill="#184A53" opacity="1.000000" stroke="none" 
	d="
M72.775330,173.765167 
	C71.721245,173.534805 70.442474,173.069611 69.081635,172.302505 
	C70.183250,172.510513 71.366943,173.020432 72.775330,173.765167 
z"/>
<path fill="#184A53" opacity="1.000000" stroke="none" 
	d="
M106.717590,179.052185 
	C106.464638,179.437271 105.928970,179.873947 105.196648,180.155304 
	C105.478294,179.701263 105.956589,179.402527 106.717590,179.052185 
z"/>
<path fill="#165056" opacity="1.000000" stroke="none" 
	d="
M56.999847,157.000000 
	C52.580612,153.193802 47.743546,149.771011 43.827290,145.503265 
	C35.109661,136.003189 31.282915,123.940361 28.691700,111.735580 
	C27.303598,105.197517 27.045649,97.902397 28.393875,91.386810 
	C35.605362,56.535793 55.466469,34.273632 92.639885,28.272972 
	C109.826744,25.498611 125.807838,30.444706 140.090256,39.942474 
	C145.918945,43.818535 150.287979,49.823261 155.864899,54.160278 
	C163.590775,60.168503 167.199783,68.616356 169.761963,77.295746 
	C175.908829,98.118080 175.225311,118.815903 164.057739,137.924316 
	C160.131805,144.641846 154.368149,150.627289 148.404831,155.733978 
	C138.882568,163.888382 128.148972,170.569855 115.300629,172.045547 
	C105.189323,173.206848 94.956505,175.253952 84.881355,171.238876 
	C77.824348,168.426559 70.535973,166.173843 63.578777,163.147415 
	C61.921490,162.426483 61.174541,159.612823 60.254555,157.380646 
	C60.667072,156.999283 60.833916,156.999039 61.333862,156.999237 
	C62.111103,157.000198 62.555248,157.000717 63.021347,157.370117 
	C65.958107,162.635254 71.109665,164.202927 75.942207,165.908066 
	C85.505440,169.282425 95.142960,171.126541 105.622818,170.270126 
	C118.437370,169.222916 129.824173,166.077377 140.392685,158.446701 
	C148.219757,152.795364 154.715439,146.440430 160.246674,138.527191 
	C165.686844,130.744217 168.518051,122.201111 169.841476,113.206871 
	C171.363815,102.860779 170.774200,92.550865 168.296158,82.130478 
	C164.586792,66.532295 155.594223,54.249992 143.520523,45.285576 
	C130.273422,35.449944 114.836868,29.456131 97.301041,30.880810 
	C75.202980,32.676144 57.097271,41.848232 44.429031,59.767914 
	C32.367077,76.829987 26.973803,96.085381 33.195587,116.952255 
	C35.394081,124.325638 38.459698,131.652634 42.408916,138.232910 
	C46.457081,144.978027 52.071148,150.783340 56.999847,157.000000 
z"/>
<path fill="#165258" opacity="1.000000" stroke="none" 
	d="
M61.000763,156.998779 
	C60.833916,156.999039 60.667072,156.999283 60.249962,157.000076 
	C59.249737,157.000412 58.499783,157.000214 57.374836,157.000000 
	C52.071148,150.783340 46.457081,144.978027 42.408916,138.232910 
	C38.459698,131.652634 35.394081,124.325638 33.195587,116.952255 
	C26.973803,96.085381 32.367077,76.829987 44.429031,59.767914 
	C57.097271,41.848232 75.202980,32.676144 97.301041,30.880810 
	C114.836868,29.456131 130.273422,35.449944 143.520523,45.285576 
	C155.594223,54.249992 164.586792,66.532295 168.296158,82.130478 
	C170.774200,92.550865 171.363815,102.860779 169.841476,113.206871 
	C168.518051,122.201111 165.686844,130.744217 160.246674,138.527191 
	C154.715439,146.440430 148.219757,152.795364 140.392685,158.446701 
	C129.824173,166.077377 118.437370,169.222916 105.622818,170.270126 
	C95.142960,171.126541 85.505440,169.282425 75.942207,165.908066 
	C71.109665,164.202927 65.958107,162.635254 63.355446,157.434784 
	C65.112099,157.753311 66.556610,158.376038 68.400955,158.999023 
	C69.867088,158.999695 70.933395,159.000153 72.072517,159.348541 
	C73.449989,160.854233 74.564301,162.484970 76.088089,163.098175 
	C96.318352,171.239182 115.855728,169.911896 134.927704,159.092407 
	C147.202835,152.128738 156.260666,142.413391 162.493866,129.894424 
	C167.933838,118.968544 169.065216,107.044151 168.256241,95.333527 
	C166.786377,74.055923 156.817902,56.564308 139.011307,44.946129 
	C119.278717,32.071308 97.994247,29.468977 75.343147,38.540150 
	C49.629707,48.837700 34.001850,73.871902 33.053436,100.811409 
	C32.719673,110.291908 35.651104,119.043625 39.544964,127.684288 
	C44.076569,137.740143 49.342064,146.892059 59.100651,152.811218 
	C60.182617,153.467499 60.388550,155.568039 61.000763,156.998779 
z"/>
<path fill="#184A53" opacity="1.000000" stroke="none" 
	d="
M178.013748,87.327438 
	C178.462143,87.847702 178.923676,88.695709 179.192596,89.771851 
	C178.675629,89.218391 178.351257,88.436790 178.013748,87.327438 
z"/>
<path fill="#184A53" opacity="1.000000" stroke="none" 
	d="
M177.052200,83.282303 
	C177.437286,83.535286 177.873962,84.070999 178.155319,84.803360 
	C177.701263,84.521675 177.402527,84.043350 177.052200,83.282303 
z"/>
<path fill="#184A53" opacity="1.000000" stroke="none" 
	d="
M179.746445,115.057190 
	C179.800262,115.529922 179.600525,116.059845 179.200409,116.794884 
	C179.164291,116.371460 179.328583,115.742920 179.746445,115.057190 
z"/>
<path fill="#155459" opacity="1.000000" stroke="none" 
	d="
M68.001129,158.998779 
	C66.556610,158.376038 65.112099,157.753311 63.333485,157.065887 
	C62.555248,157.000717 62.111103,157.000198 61.333862,156.999237 
	C60.388550,155.568039 60.182617,153.467499 59.100651,152.811218 
	C49.342064,146.892059 44.076569,137.740143 39.544964,127.684288 
	C35.651104,119.043625 32.719673,110.291908 33.053436,100.811409 
	C34.001850,73.871902 49.629707,48.837700 75.343147,38.540150 
	C97.994247,29.468977 119.278717,32.071308 139.011307,44.946129 
	C156.817902,56.564308 166.786377,74.055923 168.256241,95.333527 
	C169.065216,107.044151 167.933838,118.968544 162.493866,129.894424 
	C156.260666,142.413391 147.202835,152.128738 134.927704,159.092407 
	C115.855728,169.911896 96.318352,171.239182 76.088089,163.098175 
	C74.564301,162.484970 73.449989,160.854233 72.474121,159.349243 
	C74.249939,159.273575 75.880600,159.203781 77.116135,159.868454 
	C92.798012,168.304886 108.664558,167.625259 124.627831,160.912125 
	C139.014603,154.861923 151.266235,146.720032 157.939682,131.478012 
	C165.406143,114.424706 167.247375,97.251976 161.440765,79.647583 
	C159.811386,74.707649 155.877441,70.527863 153.000458,65.749542 
	C153.000290,65.499695 153.000000,65.000000 152.937805,64.652809 
	C149.720901,60.507519 146.796524,56.486050 143.369354,52.952194 
	C132.007477,41.236629 117.109436,36.514038 101.725365,36.484974 
	C87.305595,36.457729 73.080315,40.841793 61.376175,50.280865 
	C45.711967,62.913620 37.968990,79.552895 36.933586,99.621620 
	C36.172272,114.377686 42.656708,126.721092 49.264389,139.032364 
	C50.103306,140.595413 53.031700,141.037018 54.996101,142.405029 
	C54.931076,145.137970 55.245392,147.148407 58.528030,146.857574 
	C58.715462,146.845810 59.013348,147.074585 59.221218,147.263428 
	C59.953571,147.636551 60.478054,147.820816 61.095001,148.309540 
	C61.916374,150.104980 62.496033,151.699097 63.428879,153.049194 
	C64.009972,153.890198 65.124939,154.362320 66.162796,155.280075 
	C66.883896,156.706360 67.442513,157.852570 68.001129,158.998779 
z"/>
<path fill="#15565A" opacity="1.000000" stroke="none" 
	d="
M153.000610,65.999390 
	C155.877441,70.527863 159.811386,74.707649 161.440765,79.647583 
	C167.247375,97.251976 165.406143,114.424706 157.939682,131.478012 
	C151.266235,146.720032 139.014603,154.861923 124.627831,160.912125 
	C108.664558,167.625259 92.798012,168.304886 77.116135,159.868454 
	C75.880600,159.203781 74.249939,159.273575 72.401306,159.001312 
	C70.933395,159.000153 69.867088,158.999695 68.400955,158.999023 
	C67.442513,157.852570 66.883896,156.706360 66.616867,155.279999 
	C69.938972,154.999908 72.969482,154.999954 76.374893,155.000122 
	C77.499557,155.000565 78.249321,155.000885 79.008293,155.388855 
	C79.648529,156.819824 80.091606,158.566452 80.940819,158.793396 
	C86.847984,160.372040 92.775963,162.235764 98.817101,162.874237 
	C111.223953,164.185455 122.413467,159.407394 132.963272,153.776093 
	C140.840973,149.571091 147.832458,143.851562 152.604599,135.871124 
	C162.265076,119.715965 165.734390,102.581177 160.456314,84.293777 
	C158.640533,78.002426 155.523300,72.086708 153.000610,65.999390 
z"/>
<path fill="#F4FBFB" opacity="1.000000" stroke="none" 
	d="
M59.013348,147.074585 
	C59.013348,147.074585 58.715462,146.845810 58.312756,146.563354 
	C54.631981,144.183762 56.628170,141.532104 57.328899,138.755524 
	C57.998806,137.318756 58.488132,136.162094 59.116844,134.685944 
	C60.270428,132.624832 61.284637,130.883179 62.653133,129.178192 
	C65.419250,125.901070 67.831085,122.587273 70.219025,119.268433 
	C70.195137,119.263382 70.236443,119.262344 70.490913,119.126709 
	C71.110039,118.324173 71.474693,117.657280 72.073608,116.780952 
	C72.919220,115.493492 73.530571,114.415459 74.428635,113.149887 
	C75.873718,111.025826 77.032089,109.089302 78.151947,107.147751 
	C78.113426,107.142715 78.127022,107.219208 78.379257,107.112869 
	C78.803467,106.691673 78.975449,106.376808 79.111282,106.057541 
	C79.075127,106.053139 79.084961,106.125305 79.400543,106.104614 
	C80.137161,106.063484 80.558197,106.043037 81.127632,106.269455 
	C81.544434,107.024551 81.812843,107.532791 81.979523,108.450150 
	C81.510193,114.889816 81.142593,120.920372 80.707748,128.054108 
	C84.153740,126.025963 86.642189,124.561378 89.097618,123.081345 
	C89.064590,123.065887 89.054367,123.138092 89.331421,123.107430 
	C89.880814,122.841225 90.153145,122.605675 90.289368,122.345345 
	C90.153267,122.320564 90.413040,122.415840 90.750893,122.334053 
	C93.466415,120.913322 95.844086,119.574387 98.185623,118.212997 
	C98.149490,118.190552 98.144844,118.275513 98.411041,118.179825 
	C98.843231,117.750259 99.009224,117.416382 99.504997,117.092270 
	C100.559090,116.695969 101.283417,116.289894 102.280945,115.927139 
	C102.740082,115.658417 102.926025,115.346397 103.071297,115.032806 
	C103.030632,115.031227 103.029976,115.112617 103.358849,115.074043 
	C104.105026,114.927620 104.522331,114.819771 105.271301,114.647057 
	C111.216286,111.556007 116.829620,108.529816 123.499756,104.933899 
	C115.896179,98.897873 109.008804,93.430397 102.025169,87.708008 
	C101.630775,87.259583 101.332649,87.066055 100.998100,86.654053 
	C100.887932,86.107635 100.685745,85.913338 100.185104,85.553932 
	C94.010231,80.249237 88.005386,75.243309 81.692841,70.137154 
	C80.954567,70.010300 80.523994,69.983665 80.043915,69.602524 
	C78.680458,68.115913 77.366493,66.983803 75.994247,65.622467 
	C75.742599,65.109283 75.474190,64.963608 75.037872,64.698471 
	C74.642319,64.252960 74.339630,64.065178 74.012512,63.684433 
	C73.969292,63.210056 73.840195,62.994804 73.490021,62.578857 
	C72.797951,61.810368 72.216629,61.308735 71.574829,60.495163 
	C71.101936,59.748463 70.689537,59.313705 70.266129,58.722500 
	C70.255119,58.566055 70.130821,58.278069 70.461700,58.194790 
	C72.725151,55.690380 74.974686,54.805847 77.970139,56.883389 
	C79.101242,57.662380 80.052986,58.225914 81.237686,59.031517 
	C82.983307,60.210583 84.495979,61.147572 86.169937,62.371559 
	C88.215607,63.793350 90.099998,64.928139 92.093056,66.297150 
	C92.666359,66.724007 93.130989,66.916656 93.755264,67.375763 
	C94.294312,67.791580 94.673714,67.940948 95.215805,68.381851 
	C106.631897,76.101990 117.885292,83.530602 129.289978,91.200935 
	C129.949341,91.675339 130.457428,91.908020 130.958450,92.102516 
	C130.951401,92.064331 130.876007,92.082893 131.032471,92.357071 
	C132.101242,93.130188 133.013519,93.629128 133.938095,94.088516 
	C133.950378,94.048958 133.876938,94.087280 134.031448,94.361938 
	C135.093460,95.135414 136.000946,95.634239 136.914474,96.095322 
	C136.920502,96.057587 136.848419,96.083008 136.954056,96.329170 
	C137.383392,96.686287 137.707092,96.797241 138.041168,96.941620 
	C138.051544,96.975052 138.114395,96.944244 138.268433,97.186394 
	C138.928101,97.671906 139.433701,97.915260 139.937180,98.121918 
	C139.935043,98.085213 139.864059,98.104401 140.023926,98.383934 
	C141.444946,99.465813 142.706116,100.268150 144.027313,101.297012 
	C144.220444,101.839874 144.455917,102.028168 144.866638,102.461258 
	C145.327972,104.553658 145.716446,106.273201 145.979355,108.289436 
	C145.585785,109.394730 145.317795,110.203339 144.802689,111.179413 
	C144.252792,111.850952 143.950012,112.355019 143.396683,112.917908 
	C142.759720,113.307228 142.373291,113.637741 141.680756,113.975418 
	C140.879150,114.292747 140.383652,114.602905 139.921371,114.927734 
	C139.954590,114.942398 139.955994,114.869789 139.598602,114.874512 
	C138.622299,115.190453 138.003387,115.501678 137.261597,115.779907 
	C137.138702,115.746918 137.013947,115.968727 136.680954,115.962128 
	C135.787903,116.263496 135.227844,116.571457 134.481705,116.870552 
	C134.295624,116.861679 134.010864,117.101967 133.698196,117.078842 
	C132.868256,117.350327 132.350998,117.644943 131.608063,117.931465 
	C131.382401,117.923378 131.002441,118.167511 130.683105,118.158203 
	C130.032715,118.394798 129.701660,118.640694 129.018356,118.893181 
	C114.403503,124.218513 100.140900,129.537247 84.729874,135.284256 
	C89.299423,137.114059 92.651047,138.456161 96.291122,140.002869 
	C98.700058,141.436066 100.820541,142.664658 102.682510,143.974411 
	C101.900040,144.545609 101.376068,145.035645 100.392700,145.543060 
	C94.477234,145.737091 89.008720,145.747177 83.569809,146.153519 
	C80.357079,146.393570 77.191216,147.260712 73.610107,147.735260 
	C71.853416,147.654877 70.490891,147.685059 68.884048,147.364441 
	C65.430923,147.033936 62.222137,147.054260 59.013348,147.074585 
z"/>
<path fill="#14595B" opacity="1.000000" stroke="none" 
	d="
M153.000458,65.749542 
	C155.523300,72.086708 158.640533,78.002426 160.456314,84.293777 
	C165.734390,102.581177 162.265076,119.715965 152.604599,135.871124 
	C147.832458,143.851562 140.840973,149.571091 132.963272,153.776093 
	C122.413467,159.407394 111.223953,164.185455 98.817101,162.874237 
	C92.775963,162.235764 86.847984,160.372040 80.940819,158.793396 
	C80.091606,158.566452 79.648529,156.819824 79.389969,155.460327 
	C85.192215,156.429428 90.560150,158.247009 96.064957,158.886673 
	C106.807350,160.134949 116.968216,158.112442 126.919151,153.380081 
	C137.187363,148.496841 144.739197,141.112762 151.332077,131.897156 
	C152.154648,131.365265 152.837402,131.032471 153.107468,130.493027 
	C159.580734,117.563042 162.756042,103.987068 159.531998,89.651291 
	C158.200958,83.732834 157.974670,76.963692 151.937378,72.651855 
	C144.238297,58.667793 132.873795,49.656849 117.918533,44.704704 
	C117.224709,43.939999 116.612350,43.470280 115.666649,43.000500 
	C114.888832,43.000381 114.444366,43.000324 113.658264,42.766739 
	C103.954185,42.930210 94.530777,42.818874 85.254158,43.931480 
	C80.370499,44.517216 75.743301,47.241405 71.070068,48.657940 
	C72.539047,46.988495 73.717857,45.071114 75.380852,44.449886 
	C79.536407,42.897537 83.856911,41.663544 88.208305,40.779865 
	C107.855743,36.789871 125.808647,39.567200 140.776962,54.199200 
	C144.660095,57.995079 148.915558,61.410061 153.000000,65.000000 
	C153.000000,65.000000 153.000290,65.499695 153.000458,65.749542 
z"/>
<path fill="#15565A" opacity="1.000000" stroke="none" 
	d="
M152.937805,64.652809 
	C148.915558,61.410061 144.660095,57.995079 140.776962,54.199200 
	C125.808647,39.567200 107.855743,36.789871 88.208305,40.779865 
	C83.856911,41.663544 79.536407,42.897537 75.380852,44.449886 
	C73.717857,45.071114 72.539047,46.988495 70.788338,48.873940 
	C69.178391,49.816391 67.753792,49.941414 66.686935,50.624870 
	C54.672390,58.321716 46.355370,68.941429 42.634388,82.748535 
	C38.205570,99.182137 38.372372,115.226891 48.268822,130.042404 
	C48.710346,130.703400 48.964760,131.578186 49.041565,132.378784 
	C49.391754,136.029160 51.374111,137.867691 55.002129,138.403107 
	C54.998814,139.867783 54.995438,140.932968 54.992065,141.998169 
	C53.031700,141.037018 50.103306,140.595413 49.264389,139.032364 
	C42.656708,126.721092 36.172272,114.377686 36.933586,99.621620 
	C37.968990,79.552895 45.711967,62.913620 61.376175,50.280865 
	C73.080315,40.841793 87.305595,36.457729 101.725365,36.484974 
	C117.109436,36.514038 132.007477,41.236629 143.369354,52.952194 
	C146.796524,56.486050 149.720901,60.507519 152.937805,64.652809 
z"/>
<path fill="#14595B" opacity="1.000000" stroke="none" 
	d="
M76.000000,155.000000 
	C72.969482,154.999954 69.938972,154.999908 66.454376,154.999939 
	C65.124939,154.362320 64.009972,153.890198 63.428879,153.049194 
	C62.496033,151.699097 61.916374,150.104980 61.495289,148.308838 
	C63.869740,148.338577 65.936363,148.673492 68.114449,149.334518 
	C70.817268,151.440414 73.408638,153.220215 76.000000,155.000000 
z"/>
<path fill="#205658" opacity="1.000000" stroke="none" 
	d="
M54.996101,142.405029 
	C54.995438,140.932968 54.998814,139.867783 55.270737,138.531128 
	C56.075630,138.518311 56.611973,138.776978 57.148319,139.035629 
	C56.628170,141.532104 54.631981,144.183762 58.125328,146.575134 
	C55.245392,147.148407 54.931076,145.137970 54.996101,142.405029 
z"/>
<path fill="#205658" opacity="1.000000" stroke="none" 
	d="
M68.002991,149.008408 
	C65.936363,148.673492 63.869740,148.338577 61.402824,148.004395 
	C60.478054,147.820816 59.953571,147.636551 59.221218,147.263428 
	C62.222137,147.054260 65.430923,147.033936 68.728455,147.606445 
	C68.545792,148.468979 68.274391,148.738693 68.002991,149.008408 
z"/>
<path fill="#135C5D" opacity="1.000000" stroke="none" 
	d="
M68.114456,149.334518 
	C68.274391,148.738693 68.545792,148.468979 68.972778,147.957245 
	C70.490891,147.685059 71.853416,147.654877 73.682266,148.096405 
	C74.627602,149.215500 74.965012,150.130936 75.606888,150.470032 
	C85.039314,155.453003 95.592079,156.519669 105.634727,155.630234 
	C125.931618,153.832611 141.355453,143.665878 150.647415,124.855217 
	C157.934631,110.102951 157.052505,95.080650 151.938721,80.341217 
	C147.555298,67.706902 138.417877,58.895657 126.396248,52.447975 
	C115.377373,46.538101 104.244789,45.161926 92.291656,47.178295 
	C88.532372,47.812450 84.764336,48.394737 81.107971,48.661831 
	C85.611610,46.882118 89.915543,44.804413 94.425529,44.152790 
	C100.871262,43.221481 107.467781,43.333702 113.999901,43.000275 
	C114.444366,43.000324 114.888832,43.000381 115.748123,43.295467 
	C116.775299,44.060230 117.387650,44.529961 118.000000,44.999695 
	C132.873795,49.656849 144.238297,58.667793 152.003647,73.010666 
	C157.794586,86.035118 160.067444,98.858917 156.989975,112.197144 
	C155.443039,118.901848 153.024429,125.405434 151.000000,131.999969 
	C144.739197,141.112762 137.187363,148.496841 126.919151,153.380081 
	C116.968216,158.112442 106.807350,160.134949 96.064957,158.886673 
	C90.560150,158.247009 85.192215,156.429428 79.380753,155.072708 
	C78.249321,155.000885 77.499557,155.000565 76.374893,155.000122 
	C73.408638,153.220215 70.817268,151.440414 68.114456,149.334518 
z"/>
<path fill="#145F60" opacity="1.000000" stroke="none" 
	d="
M81.000305,49.000763 
	C84.764336,48.394737 88.532372,47.812450 92.291656,47.178295 
	C104.244789,45.161926 115.377373,46.538101 126.396248,52.447975 
	C138.417877,58.895657 147.555298,67.706902 151.938721,80.341217 
	C157.052505,95.080650 157.934631,110.102951 150.647415,124.855217 
	C141.355453,143.665878 125.931618,153.832611 105.634727,155.630234 
	C95.592079,156.519669 85.039314,155.453003 75.606888,150.470032 
	C74.965012,150.130936 74.627602,149.215500 74.076431,148.206970 
	C77.191216,147.260712 80.357079,146.393570 83.569809,146.153519 
	C89.008720,145.747177 94.477234,145.737091 100.423111,145.991486 
	C101.284523,153.372528 101.584129,153.577911 108.204239,151.501205 
	C108.836319,151.302917 109.489769,151.149872 110.144623,151.050369 
	C128.820374,148.212784 140.211716,136.128662 148.188934,120.285789 
	C152.681458,111.363609 153.783310,101.937531 151.120728,91.787285 
	C148.525711,81.894646 145.363953,72.299095 137.674286,65.633080 
	C131.652130,60.412609 124.469284,55.315426 116.967041,53.348236 
	C108.916306,51.237221 100.189568,46.379700 91.292809,51.698544 
	C90.632301,52.093422 89.361641,51.321625 88.398560,51.397179 
	C87.418327,51.474083 86.467690,51.928234 85.391174,52.251057 
	C86.447609,54.173866 87.223862,55.586735 87.795258,57.200233 
	C87.059875,57.599049 86.529366,57.797237 85.828339,57.712234 
	C84.229042,56.323334 82.800247,55.217625 80.502838,53.439720 
	C80.747948,56.052391 80.876343,57.420921 81.004730,58.789448 
	C80.052986,58.225914 79.101242,57.662380 78.013809,56.439529 
	C77.919250,55.187061 77.960381,54.593903 78.201881,53.795547 
	C78.601601,53.060234 78.800957,52.530117 79.266144,51.831253 
	C80.021423,50.775257 80.510864,49.888012 81.000305,49.000763 
M92.848595,147.033264 
	C92.175995,147.545944 91.503387,148.058624 90.830780,148.571304 
	C92.887962,149.051514 94.945137,149.531708 97.002319,150.011917 
	C97.138016,149.352478 97.273712,148.693054 97.409409,148.033630 
	C96.135666,147.694946 94.861931,147.356247 92.848595,147.033264 
z"/>
<path fill="#136261" opacity="1.000000" stroke="none" 
	d="
M88.000114,56.999603 
	C87.223862,55.586735 86.447609,54.173866 85.391174,52.251057 
	C86.467690,51.928234 87.418327,51.474083 88.398560,51.397179 
	C89.361641,51.321625 90.632301,52.093422 91.292809,51.698544 
	C100.189568,46.379700 108.916306,51.237221 116.967041,53.348236 
	C124.469284,55.315426 131.652130,60.412609 137.674286,65.633080 
	C145.363953,72.299095 148.525711,81.894646 151.120728,91.787285 
	C153.783310,101.937531 152.681458,111.363609 148.188934,120.285789 
	C140.211716,136.128662 128.820374,148.212784 110.144623,151.050369 
	C109.489769,151.149872 108.836319,151.302917 108.204239,151.501205 
	C101.584129,153.577911 101.284523,153.372528 100.882507,145.974121 
	C101.376068,145.035645 101.900040,144.545609 102.837044,144.291473 
	C104.643723,148.020264 106.849716,148.519394 109.907288,146.457428 
	C110.844162,145.825623 112.021309,145.559280 113.065308,145.075684 
	C118.983398,142.334259 125.452599,140.351318 130.647400,136.603729 
	C135.615189,133.019913 139.663467,127.882729 143.233017,122.807365 
	C144.321014,121.260399 142.484161,117.656357 141.988708,114.737869 
	C141.989319,114.310295 141.988098,114.139267 141.986877,113.968246 
	C142.373291,113.637741 142.759720,113.307228 143.672318,112.907593 
	C144.482269,112.229630 144.766052,111.620789 145.049820,111.011948 
	C145.317795,110.203339 145.585785,109.394730 146.296600,108.217781 
	C150.587280,104.410553 147.851898,103.194984 144.793793,102.088409 
	C144.455917,102.028168 144.220444,101.839874 144.039200,100.951538 
	C143.991196,99.918533 143.991348,99.457527 144.330322,99.011475 
	C145.864059,99.105980 147.058990,99.185524 148.373962,99.273064 
	C146.135757,93.926094 143.006134,89.167435 142.276520,84.065552 
	C141.199173,76.532021 137.243301,71.145821 132.066544,66.531105 
	C125.912567,61.045250 118.479187,57.594269 110.209396,56.638866 
	C105.750504,56.123737 101.181335,56.632580 96.691811,56.288918 
	C93.706779,56.060425 90.694374,54.050007 88.000114,56.999603 
z"/>
<path fill="#0F8275" opacity="1.000000" stroke="none" 
	d="
M100.355133,85.852699 
	C100.685745,85.913338 100.887932,86.107635 101.147598,86.865685 
	C101.596153,87.518166 101.858795,87.740547 102.121429,87.962921 
	C109.008804,93.430397 115.896179,98.897873 123.499756,104.933899 
	C116.829620,108.529816 111.216286,111.556007 105.075218,114.528473 
	C104.041641,114.687370 103.535805,114.899994 103.029976,115.112610 
	C103.029976,115.112617 103.030632,115.031227 102.866013,115.146332 
	C102.433884,115.428452 102.202667,115.635918 102.007744,115.883827 
	C101.283417,116.289894 100.559090,116.695969 99.283722,117.243431 
	C98.536728,117.681717 98.340782,117.978615 98.144844,118.275513 
	C98.144844,118.275513 98.149490,118.190552 97.883896,118.136681 
	C97.415054,118.041367 97.211807,117.999916 96.859482,117.641586 
	C95.339325,113.104576 91.024048,112.352455 88.267128,109.901344 
	C82.939697,105.164864 88.107033,99.042511 88.429581,93.550232 
	C88.542076,91.634651 91.765907,89.723129 93.841209,88.174866 
	C94.922188,87.368408 96.595665,87.356148 98.296661,86.845222 
	C99.179588,86.421089 99.767357,86.136894 100.355133,85.852699 
z"/>
<path fill="#126865" opacity="1.000000" stroke="none" 
	d="
M87.795258,57.200233 
	C90.694374,54.050007 93.706779,56.060425 96.691811,56.288918 
	C101.181335,56.632580 105.750504,56.123737 110.209396,56.638866 
	C118.479187,57.594269 125.912567,61.045250 132.066544,66.531105 
	C137.243301,71.145821 141.199173,76.532021 142.276520,84.065552 
	C143.006134,89.167435 146.135757,93.926094 148.373962,99.273064 
	C147.058990,99.185524 145.864059,99.105980 144.042633,98.795074 
	C142.232101,98.410614 141.048080,98.257507 139.864059,98.104401 
	C139.864059,98.104401 139.935043,98.085213 139.777069,97.884750 
	C139.117523,97.437607 138.615952,97.190926 138.114395,96.944244 
	C138.114395,96.944244 138.051544,96.975052 137.877838,96.759201 
	C137.457993,96.317230 137.172760,96.163788 136.848419,96.083008 
	C136.848419,96.083008 136.920502,96.057587 136.941132,95.742874 
	C136.971603,94.957535 136.981430,94.486923 136.993073,93.594383 
	C137.017746,90.247475 138.193878,86.528893 136.835266,84.554573 
	C133.501755,79.710335 129.238907,75.415146 124.915802,71.362152 
	C117.156731,64.087852 106.922798,63.554565 97.137238,62.101616 
	C94.525040,61.713753 92.098305,62.661030 91.984383,66.062935 
	C90.099998,64.928139 88.215607,63.793350 86.168106,61.962578 
	C86.002953,60.176205 86.000900,59.085815 85.998848,57.995426 
	C86.529366,57.797237 87.059875,57.599049 87.795258,57.200233 
z"/>
<path fill="#136F69" opacity="1.000000" stroke="none" 
	d="
M92.093056,66.297150 
	C92.098305,62.661030 94.525040,61.713753 97.137238,62.101616 
	C106.922798,63.554565 117.156731,64.087852 124.915802,71.362152 
	C129.238907,75.415146 133.501755,79.710335 136.835266,84.554573 
	C138.193878,86.528893 137.017746,90.247475 136.604095,93.590263 
	C135.434540,94.034470 134.655731,94.060875 133.876938,94.087280 
	C133.876938,94.087280 133.950378,94.048958 133.856003,93.753670 
	C132.799759,92.999886 131.837875,92.541389 130.876007,92.082893 
	C130.876007,92.082893 130.951401,92.064331 130.793274,91.872437 
	C130.136337,91.440086 129.637512,91.199646 129.138687,90.959206 
	C117.885292,83.530602 106.631897,76.101990 95.001709,68.176857 
	C94.281822,67.489990 93.938721,67.299644 93.595619,67.109306 
	C93.130989,66.916656 92.666359,66.724007 92.093056,66.297150 
z"/>
<path fill="#136060" opacity="1.000000" stroke="none" 
	d="
M62.298847,129.141541 
	C61.284637,130.883179 60.270428,132.624832 58.787537,134.684021 
	C57.879807,135.000549 57.440762,134.999527 56.935204,134.641434 
	C54.316757,128.520538 51.049587,122.958763 49.352886,116.953293 
	C45.024563,101.633240 45.984959,86.584732 54.712559,72.829369 
	C58.186771,67.353745 61.344563,61.035820 69.287239,60.206429 
	C70.261833,60.543858 70.948578,60.675480 71.635315,60.807102 
	C72.216629,61.308735 72.797951,61.810368 73.039627,62.608742 
	C69.277115,62.773689 66.852493,63.641792 66.832352,67.806412 
	C66.827103,68.892632 65.732445,70.116692 64.876717,71.033432 
	C56.836948,79.646347 53.513344,90.521835 53.432762,101.592575 
	C53.362659,111.223930 56.688885,120.806213 62.298847,129.141541 
z"/>
<path fill="#126764" opacity="1.000000" stroke="none" 
	d="
M62.653133,129.178192 
	C56.688885,120.806213 53.362659,111.223930 53.432762,101.592575 
	C53.513344,90.521835 56.836948,79.646347 64.876717,71.033432 
	C65.732445,70.116692 66.827103,68.892632 66.832352,67.806412 
	C66.852493,63.641792 69.277115,62.773689 73.150391,62.875603 
	C73.840195,62.994804 73.969292,63.210056 74.161530,63.896004 
	C74.600235,64.519089 74.865479,64.737648 75.130730,64.956207 
	C75.474190,64.963608 75.742599,65.109283 76.035538,65.975052 
	C76.423836,67.701958 76.712547,68.847054 76.805481,70.154251 
	C75.093399,70.984100 72.915222,71.233559 72.180901,72.395500 
	C69.652458,76.396347 67.472511,80.642387 65.447998,84.931068 
	C62.180012,91.853874 59.069046,98.824020 62.577187,106.748100 
	C63.182056,108.114365 62.747162,109.993340 62.619377,111.621887 
	C62.214523,116.781509 64.803642,119.415436 70.242912,119.273483 
	C67.831085,122.587273 65.419250,125.901070 62.653133,129.178192 
z"/>
<path fill="#145B5C" opacity="1.000000" stroke="none" 
	d="
M57.001717,134.998489 
	C57.440762,134.999527 57.879807,135.000549 58.648155,135.003510 
	C58.488132,136.162094 57.998806,137.318756 57.328899,138.755524 
	C56.611973,138.776978 56.075630,138.518311 55.270676,138.131638 
	C51.374111,137.867691 49.391754,136.029160 49.041565,132.378784 
	C48.964760,131.578186 48.710346,130.703400 48.268822,130.042404 
	C38.372372,115.226891 38.205570,99.182137 42.634388,82.748535 
	C46.355370,68.941429 54.672390,58.321716 66.686935,50.624870 
	C67.753792,49.941414 69.178391,49.816391 70.718567,49.216003 
	C75.743301,47.241405 80.370499,44.517216 85.254158,43.931480 
	C94.530777,42.818874 103.954185,42.930210 113.658264,42.766739 
	C107.467781,43.333702 100.871262,43.221481 94.425529,44.152790 
	C89.915543,44.804413 85.611610,46.882118 81.107971,48.661831 
	C80.510864,49.888012 80.021423,50.775257 79.180634,51.546940 
	C74.194931,49.849609 73.883957,49.943401 72.838242,53.235077 
	C74.559731,53.487991 76.280624,53.744370 78.001511,54.000748 
	C77.960381,54.593903 77.919250,55.187061 77.834450,56.224075 
	C74.974686,54.805847 72.725151,55.690380 70.465370,57.881645 
	C70.478615,54.809479 69.359207,55.132099 67.304832,56.061314 
	C56.607605,60.899796 51.442692,70.418617 47.302349,80.411324 
	C43.568707,89.422478 43.780136,99.166473 43.913750,108.836220 
	C44.018810,116.439423 48.013790,122.347450 51.436764,128.512161 
	C52.791504,130.952042 55.117786,132.852448 57.001717,134.998489 
z"/>
<path fill="#166F69" opacity="1.000000" stroke="none" 
	d="
M96.002670,139.798264 
	C92.651047,138.456161 89.299423,137.114059 84.729874,135.284256 
	C100.140900,129.537247 114.403503,124.218513 129.312958,118.825043 
	C130.307343,118.556038 130.654892,118.361771 131.002441,118.167511 
	C131.002441,118.167511 131.382401,117.923378 131.969086,117.956291 
	C133.036728,117.996300 133.517715,118.003395 134.054932,118.354630 
	C136.022675,123.257736 131.534088,122.495262 129.418442,123.871567 
	C131.637756,127.777298 129.557144,130.678757 126.748360,132.309464 
	C122.211693,134.943298 117.272003,136.960480 112.345642,138.823151 
	C107.682274,140.586395 102.846695,141.623032 98.157181,138.468674 
	C97.867966,138.274139 96.740250,139.326202 96.002670,139.798264 
z"/>
<path fill="#11736B" opacity="1.000000" stroke="none" 
	d="
M100.185104,85.553932 
	C99.767357,86.136894 99.179588,86.421089 98.123795,86.560051 
	C95.038261,84.122543 92.489983,81.744331 89.782814,79.563354 
	C87.322357,77.581139 85.579994,78.418571 84.430588,81.232162 
	C83.490219,83.534058 82.888275,86.321434 81.206688,87.908798 
	C75.965454,92.856392 77.270889,98.333954 79.023834,104.380569 
	C79.047379,105.194786 79.066170,105.660042 79.084961,106.125305 
	C79.084961,106.125305 79.075127,106.053139 78.887238,106.198303 
	C78.508575,106.635376 78.317795,106.927292 78.127022,107.219208 
	C78.127022,107.219208 78.113426,107.142715 77.772575,107.146645 
	C76.335121,109.212860 75.238518,111.275139 74.141914,113.337425 
	C73.530571,114.415459 72.919220,115.493492 71.766937,116.785980 
	C70.817406,117.000618 70.408798,117.000809 69.868668,116.681625 
	C69.940277,109.648277 65.827972,103.107544 68.986862,96.265915 
	C71.435944,90.961601 73.679115,85.558655 76.250572,80.315666 
	C77.950386,76.849884 80.069283,73.589638 82.000549,70.237373 
	C88.005386,75.243309 94.010231,80.249237 100.185104,85.553932 
z"/>
<path fill="#0E7B70" opacity="1.000000" stroke="none" 
	d="
M79.019089,104.031624 
	C77.270889,98.333954 75.965454,92.856392 81.206688,87.908798 
	C82.888275,86.321434 83.490219,83.534058 84.430588,81.232162 
	C85.579994,78.418571 87.322357,77.581139 89.782814,79.563354 
	C92.489983,81.744331 95.038261,84.122543 97.828644,86.699989 
	C96.595665,87.356148 94.922188,87.368408 93.841209,88.174866 
	C91.765907,89.723129 88.542076,91.634651 88.429581,93.550232 
	C88.107033,99.042511 82.939697,105.164864 88.267128,109.901344 
	C91.024048,112.352455 95.339325,113.104576 96.500549,117.661980 
	C93.943245,118.954765 90.230743,118.093681 90.413040,122.415840 
	C90.413040,122.415840 90.153267,122.320564 90.021179,122.394440 
	C89.610847,122.691566 89.332603,122.914825 89.054367,123.138092 
	C89.054367,123.138092 89.064590,123.065887 88.701035,123.052765 
	C87.009834,122.806503 85.682175,122.573380 84.653358,122.392723 
	C85.444870,116.838188 84.982224,112.226227 82.081253,108.041031 
	C81.812843,107.532791 81.544434,107.024551 81.055260,105.973801 
	C80.229362,104.964737 79.624229,104.498177 79.019089,104.031624 
z"/>
<path fill="#136764" opacity="1.000000" stroke="none" 
	d="
M96.291122,140.002869 
	C96.740250,139.326202 97.867966,138.274139 98.157181,138.468674 
	C102.846695,141.623032 107.682274,140.586395 112.345642,138.823151 
	C117.272003,136.960480 122.211693,134.943298 126.748360,132.309464 
	C129.557144,130.678757 131.637756,127.777298 129.418442,123.871567 
	C131.534088,122.495262 136.022675,123.257736 134.059906,118.127365 
	C134.008652,117.555962 134.010864,117.101967 134.010864,117.101967 
	C134.010864,117.101967 134.295624,116.861679 134.808380,116.862244 
	C135.885406,116.564781 136.449677,116.266762 137.013947,115.968735 
	C137.013947,115.968727 137.138702,115.746918 137.620010,115.781357 
	C138.719543,115.500450 139.337769,115.185112 139.955994,114.869781 
	C139.955994,114.869789 139.954590,114.942398 140.270935,114.965591 
	C141.053818,114.990662 141.520325,114.992538 141.986847,114.994415 
	C142.484161,117.656357 144.321014,121.260399 143.233017,122.807365 
	C139.663467,127.882729 135.615189,133.019913 130.647400,136.603729 
	C125.452599,140.351318 118.983398,142.334259 113.065308,145.075684 
	C112.021309,145.559280 110.844162,145.825623 109.907288,146.457428 
	C106.849716,148.519394 104.643723,148.020264 103.095551,144.210312 
	C100.820541,142.664658 98.700058,141.436066 96.291122,140.002869 
z"/>
<path fill="#106C67" opacity="1.000000" stroke="none" 
	d="
M81.692841,70.137154 
	C80.069283,73.589638 77.950386,76.849884 76.250572,80.315666 
	C73.679115,85.558655 71.435944,90.961601 68.986862,96.265915 
	C65.827972,103.107544 69.940277,109.648277 69.883987,117.060440 
	C70.099380,118.259850 70.167915,118.761101 70.236443,119.262344 
	C70.236443,119.262344 70.195137,119.263382 70.219025,119.268433 
	C64.803642,119.415436 62.214523,116.781509 62.619377,111.621887 
	C62.747162,109.993340 63.182056,108.114365 62.577187,106.748100 
	C59.069046,98.824020 62.180012,91.853874 65.447998,84.931068 
	C67.472511,80.642387 69.652458,76.396347 72.180901,72.395500 
	C72.915222,71.233559 75.093399,70.984100 77.192123,70.154007 
	C78.547501,69.980118 79.320465,69.968575 80.093422,69.957031 
	C80.523994,69.983665 80.954567,70.010300 81.692841,70.137154 
z"/>
<path fill="#135C5D" opacity="1.000000" stroke="none" 
	d="
M56.935204,134.641434 
	C55.117786,132.852448 52.791504,130.952042 51.436764,128.512161 
	C48.013790,122.347450 44.018810,116.439423 43.913750,108.836220 
	C43.780136,99.166473 43.568707,89.422478 47.302349,80.411324 
	C51.442692,70.418617 56.607605,60.899796 67.304832,56.061314 
	C69.359207,55.132099 70.478615,54.809479 70.134491,57.964920 
	C70.130821,58.278069 70.255119,58.566055 70.027054,58.878319 
	C69.532448,59.460594 69.265915,59.730606 68.999382,60.000618 
	C61.344563,61.035820 58.186771,67.353745 54.712559,72.829369 
	C45.984959,86.584732 45.024563,101.633240 49.352886,116.953293 
	C51.049587,122.958763 54.316757,128.520538 56.935204,134.641434 
z"/>
<path fill="#207971" opacity="1.000000" stroke="none" 
	d="
M81.979523,108.450150 
	C84.982224,112.226227 85.444870,116.838188 84.653358,122.392723 
	C85.682175,122.573380 87.009834,122.806503 88.734070,123.068214 
	C86.642189,124.561378 84.153740,126.025963 80.707748,128.054108 
	C81.142593,120.920372 81.510193,114.889816 81.979523,108.450150 
z"/>
<path fill="#136261" opacity="1.000000" stroke="none" 
	d="
M85.828339,57.712234 
	C86.000900,59.085815 86.002953,60.176205 86.006821,61.675575 
	C84.495979,61.147572 82.983307,60.210583 81.237686,59.031517 
	C80.876343,57.420921 80.747948,56.052391 80.502838,53.439720 
	C82.800247,55.217625 84.229042,56.323334 85.828339,57.712234 
z"/>
<path fill="#207971" opacity="1.000000" stroke="none" 
	d="
M90.750893,122.334053 
	C90.230743,118.093681 93.943245,118.954765 96.649635,117.978851 
	C97.211807,117.999916 97.415054,118.041367 97.920029,118.159134 
	C95.844086,119.574387 93.466415,120.913322 90.750893,122.334053 
z"/>
<path fill="#256866" opacity="1.000000" stroke="none" 
	d="
M144.866638,102.461258 
	C147.851898,103.194984 150.587280,104.410553 146.422180,107.921097 
	C145.716446,106.273201 145.327972,104.553658 144.866638,102.461258 
z"/>
<path fill="#207971" opacity="1.000000" stroke="none" 
	d="
M74.428635,113.149887 
	C75.238518,111.275139 76.335121,109.212860 77.811096,107.151672 
	C77.032089,109.089302 75.873718,111.025826 74.428635,113.149887 
z"/>
<path fill="#136060" opacity="1.000000" stroke="none" 
	d="
M80.043915,69.602524 
	C79.320465,69.968575 78.547501,69.980118 77.387901,69.991913 
	C76.712547,68.847054 76.423836,67.701958 76.093826,66.204277 
	C77.366493,66.983803 78.680458,68.115913 80.043915,69.602524 
z"/>
<path fill="#256866" opacity="1.000000" stroke="none" 
	d="
M140.023926,98.383934 
	C141.048080,98.257507 142.232101,98.410614 143.703827,98.780121 
	C143.991348,99.457527 143.991196,99.918533 143.979156,100.725021 
	C142.706116,100.268150 141.444946,99.465813 140.023926,98.383934 
z"/>
<path fill="#256866" opacity="1.000000" stroke="none" 
	d="
M134.031448,94.361938 
	C134.655731,94.060875 135.434540,94.034470 136.602295,94.012184 
	C136.981430,94.486923 136.971603,94.957535 136.935104,95.780609 
	C136.000946,95.634239 135.093460,95.135414 134.031448,94.361938 
z"/>
<path fill="#256866" opacity="1.000000" stroke="none" 
	d="
M131.032471,92.357071 
	C131.837875,92.541389 132.799759,92.999886 133.843719,93.793228 
	C133.013519,93.629128 132.101242,93.130188 131.032471,92.357071 
z"/>
<path fill="#145B5C" opacity="1.000000" stroke="none" 
	d="
M69.287239,60.206429 
	C69.265915,59.730606 69.532448,59.460594 70.038055,59.034763 
	C70.689537,59.313705 71.101936,59.748463 71.574829,60.495163 
	C70.948578,60.675480 70.261833,60.543858 69.287239,60.206429 
z"/>
<path fill="#207971" opacity="1.000000" stroke="none" 
	d="
M79.023834,104.380569 
	C79.624229,104.498177 80.229362,104.964737 80.906868,105.726944 
	C80.558197,106.043037 80.137161,106.063484 79.400543,106.104614 
	C79.066170,105.660042 79.047379,105.194786 79.023834,104.380569 
z"/>
<path fill="#256866" opacity="1.000000" stroke="none" 
	d="
M144.802704,111.179420 
	C144.766052,111.620789 144.482269,112.229630 143.922867,112.848778 
	C143.950012,112.355019 144.252792,111.850952 144.802704,111.179420 
z"/>
<path fill="#126764" opacity="1.000000" stroke="none" 
	d="
M70.490913,119.126709 
	C70.167915,118.761101 70.099380,118.259850 70.015518,117.379799 
	C70.408798,117.000809 70.817406,117.000618 71.532684,116.995407 
	C71.474693,117.657280 71.110039,118.324173 70.490913,119.126709 
z"/>
<path fill="#256866" opacity="1.000000" stroke="none" 
	d="
M138.268433,97.186394 
	C138.615952,97.190926 139.117523,97.437607 139.779205,97.921455 
	C139.433701,97.915260 138.928101,97.671906 138.268433,97.186394 
z"/>
<path fill="#256866" opacity="1.000000" stroke="none" 
	d="
M129.289978,91.200935 
	C129.637512,91.199646 130.136337,91.440086 130.800323,91.910614 
	C130.457428,91.908020 129.949341,91.675339 129.289978,91.200935 
z"/>
<path fill="#0E7B70" opacity="1.000000" stroke="none" 
	d="
M103.358849,115.074036 
	C103.535805,114.899994 104.041641,114.687370 104.743561,114.593338 
	C104.522331,114.819771 104.105026,114.927620 103.358849,115.074036 
z"/>
<path fill="#256866" opacity="1.000000" stroke="none" 
	d="
M141.988708,114.737869 
	C141.520325,114.992538 141.053818,114.990662 140.237732,114.950928 
	C140.383652,114.602905 140.879150,114.292747 141.680756,113.975418 
	C141.988098,114.139267 141.989319,114.310295 141.988708,114.737869 
z"/>
<path fill="#256866" opacity="1.000000" stroke="none" 
	d="
M139.598602,114.874512 
	C139.337769,115.185112 138.719543,115.500450 137.742889,115.814346 
	C138.003387,115.501678 138.622299,115.190453 139.598602,114.874512 
z"/>
<path fill="#256866" opacity="1.000000" stroke="none" 
	d="
M136.680954,115.962135 
	C136.449677,116.266762 135.885406,116.564781 134.994446,116.871117 
	C135.227844,116.571457 135.787903,116.263496 136.680954,115.962135 
z"/>
<path fill="#256866" opacity="1.000000" stroke="none" 
	d="
M133.698196,117.078842 
	C134.010864,117.101967 134.008652,117.555962 134.003662,117.783226 
	C133.517715,118.003395 133.036728,117.996300 132.194733,117.964378 
	C132.350998,117.644943 132.868256,117.350327 133.698196,117.078842 
z"/>
<path fill="#256866" opacity="1.000000" stroke="none" 
	d="
M136.954056,96.329170 
	C137.172760,96.163788 137.457993,96.317230 137.867462,96.725769 
	C137.707092,96.797241 137.383392,96.686287 136.954056,96.329170 
z"/>
<path fill="#256866" opacity="1.000000" stroke="none" 
	d="
M130.683105,118.158203 
	C130.654892,118.361771 130.307343,118.556038 129.665192,118.818451 
	C129.701660,118.640694 130.032715,118.394798 130.683105,118.158203 
z"/>
<path fill="#207971" opacity="1.000000" stroke="none" 
	d="
M78.379257,107.112869 
	C78.317795,106.927292 78.508575,106.635376 78.923386,106.202698 
	C78.975449,106.376808 78.803467,106.691673 78.379257,107.112869 
z"/>
<path fill="#0E7B70" opacity="1.000000" stroke="none" 
	d="
M102.025169,87.708008 
	C101.858795,87.740547 101.596153,87.518166 101.184021,87.084167 
	C101.332649,87.066055 101.630775,87.259583 102.025169,87.708008 
z"/>
<path fill="#126865" opacity="1.000000" stroke="none" 
	d="
M93.755264,67.375763 
	C93.938721,67.299644 94.281822,67.489990 94.839020,67.885330 
	C94.673714,67.940948 94.294312,67.791580 93.755264,67.375763 
z"/>
<path fill="#136060" opacity="1.000000" stroke="none" 
	d="
M75.037872,64.698471 
	C74.865479,64.737648 74.600235,64.519089 74.185959,64.088959 
	C74.339630,64.065178 74.642319,64.252960 75.037872,64.698471 
z"/>
<path fill="#0E7B70" opacity="1.000000" stroke="none" 
	d="
M102.280945,115.927139 
	C102.202667,115.635918 102.433884,115.428452 102.906677,115.147903 
	C102.926025,115.346397 102.740082,115.658417 102.280945,115.927139 
z"/>
<path fill="#207971" opacity="1.000000" stroke="none" 
	d="
M98.411041,118.179825 
	C98.340782,117.978615 98.536728,117.681717 98.953949,117.233658 
	C99.009224,117.416382 98.843231,117.750259 98.411041,118.179825 
z"/>
<path fill="#207971" opacity="1.000000" stroke="none" 
	d="
M89.331421,123.107422 
	C89.332603,122.914825 89.610847,122.691566 90.157288,122.419220 
	C90.153145,122.605675 89.880814,122.841225 89.331421,123.107422 
z"/>
<path fill="#145B5C" opacity="1.000000" stroke="none" 
	d="
M151.332077,131.897156 
	C153.024429,125.405434 155.443039,118.901848 156.989975,112.197144 
	C160.067444,98.858917 157.794586,86.035118 152.066284,73.358604 
	C157.974670,76.963692 158.200958,83.732834 159.531998,89.651291 
	C162.756042,103.987068 159.580734,117.563042 153.107468,130.493027 
	C152.837402,131.032471 152.154648,131.365265 151.332077,131.897156 
z"/>
<path fill="#145B5C" opacity="1.000000" stroke="none" 
	d="
M117.918533,44.704704 
	C117.387650,44.529961 116.775299,44.060230 116.081474,43.295528 
	C116.612350,43.470280 117.224709,43.939999 117.918533,44.704704 
z"/>
<path fill="#135C5D" opacity="1.000000" stroke="none" 
	d="
M78.201889,53.795547 
	C76.280624,53.744370 74.559731,53.487991 72.838242,53.235077 
	C73.883957,49.943401 74.194931,49.849609 78.914803,51.715691 
	C78.800957,52.530117 78.601601,53.060234 78.201889,53.795547 
z"/>
<path fill="#136060" opacity="1.000000" stroke="none" 
	d="
M93.218391,147.025421 
	C94.861931,147.356247 96.135666,147.694946 97.409409,148.033630 
	C97.273712,148.693054 97.138016,149.352478 97.002319,150.011917 
	C94.945137,149.531708 92.887962,149.051514 90.830780,148.571304 
	C91.503387,148.058624 92.175995,147.545944 93.218391,147.025421 
z"/>
</svg>