<svg version="1.1" id="Layer_1" xmlns="http://www.w3.org/2000/svg" xmlns:xlink="http://www.w3.org/1999/xlink" x="0px" y="0px"
	 width="100%" viewBox="0 0 512 512" enable-background="new 0 0 512 512" xml:space="preserve">
<path fill="#FEFEFE" opacity="1.000000" stroke="none" 
	d="
M512.604431,317.697327 
	C513.000000,381.650818 512.968506,445.301727 513.089294,508.952301 
	C513.095581,512.270752 512.571167,513.102844 509.049438,513.100464 
	C341.091278,512.985352 173.133057,512.982300 5.174944,513.111938 
	C1.365322,513.114868 0.917944,512.081238 0.919801,508.676941 
	C1.011345,340.885376 1.012216,173.093796 0.915032,5.302257 
	C0.913028,1.841705 1.443696,0.889396 5.195759,0.892182 
	C172.987244,1.016770 340.778839,1.016911 508.570374,0.895495 
	C512.477539,0.892668 513.243225,1.929133 513.092834,5.572036 
	C512.783936,13.057449 513.000000,20.564524 513.000000,28.531342 
	C512.149902,29.823681 511.255615,29.551376 510.060364,28.904644 
	C508.873077,27.925125 508.298004,26.899755 507.423645,25.676373 
	C505.907257,23.333784 504.531647,21.319798 502.098022,19.811741 
	C501.289825,19.181992 500.842682,18.669186 500.214844,17.863270 
	C498.733063,15.741785 497.228333,14.126585 494.953461,12.843456 
	C492.886658,11.677314 491.066376,10.770525 488.891479,9.797176 
	C485.697662,8.183827 483.507385,5.424328 479.663940,5.025107 
	C477.086517,4.392973 474.826904,4.296872 472.156128,4.360769 
	C470.388306,4.431281 469.018036,4.400738 467.215576,4.370154 
	C464.975769,4.432929 463.243378,3.959528 461.023712,3.658758 
	C390.432556,3.541883 320.308594,3.653413 250.184692,3.633447 
	C248.851547,3.633068 247.520401,3.693279 245.729980,3.897162 
	C244.363693,4.070932 243.460968,4.182160 242.121246,4.290371 
	C241.120026,4.333066 240.552139,4.343236 239.570770,4.367261 
	C238.029236,4.367333 237.004349,4.689553 235.731262,5.581678 
	C232.385391,8.682152 232.570847,12.407795 232.569473,16.070057 
	C232.557739,47.308853 232.567520,78.547653 232.562561,110.240494 
	C232.344727,111.913277 232.708725,113.055855 233.121948,114.641800 
	C233.321609,115.674332 233.421310,116.270134 233.677017,117.299690 
	C235.417206,120.635033 238.014145,121.871300 241.164398,122.257759 
	C245.957489,122.845741 250.735138,123.423920 255.590530,123.421646 
	C334.876038,123.384552 414.161530,123.393532 493.447052,123.400459 
	C496.949066,123.400764 500.429626,123.263283 503.907928,122.768288 
	C506.699158,122.371071 509.549408,121.995949 512.613708,123.706223 
	C513.000000,147.354233 513.000000,170.708450 513.000000,194.531342 
	C511.390198,196.469971 509.378937,196.550217 507.369995,196.604752 
	C505.038452,196.668076 502.705719,196.636642 500.373505,196.636658 
	C342.445496,196.637482 184.517471,196.636658 26.589460,196.642761 
	C23.259436,196.642883 19.922174,196.499664 16.146093,197.046402 
	C13.862086,197.273956 12.230732,197.906113 10.447512,199.322647 
	C7.633255,201.867981 7.585797,204.930054 7.579494,207.901855 
	C7.511916,239.768143 7.503907,271.634583 7.579979,303.500854 
	C7.590109,307.744171 8.246706,311.836517 12.848938,314.432404 
	C18.429756,316.404541 23.762039,316.372192 29.104036,316.371857 
	C186.861328,316.362183 344.618622,316.360321 502.375916,316.389191 
	C505.668610,316.389801 509.061249,315.810303 512.604431,317.697327 
z"/>
<path fill="#00A9C5" opacity="1.000000" stroke="none" 
	d="
M512.651306,211.648941 
	C513.000000,241.354233 513.000000,270.708466 513.000000,300.531342 
	C509.737427,303.788605 505.644531,303.868591 501.714722,304.329407 
	C499.241974,304.619385 496.720947,304.415009 494.221527,304.415009 
	C340.752136,304.416199 187.282776,304.413605 33.813396,304.433044 
	C30.827496,304.433411 27.811705,304.084991 24.431942,305.068909 
	C23.165602,305.722015 22.266586,305.890533 20.888069,305.762817 
	C16.245667,304.108398 16.207079,299.238251 13.123140,296.213623 
	C12.201941,290.149109 12.628658,284.478210 12.610748,278.821899 
	C12.549013,259.324860 12.572419,239.827469 12.603110,220.330261 
	C12.607007,217.854553 12.269878,215.305435 13.891547,212.605194 
	C17.514904,207.241043 22.875887,207.276566 27.944193,206.668793 
	C29.758568,206.451218 31.606239,206.586655 33.438889,206.586639 
	C185.889908,206.585129 338.340912,206.590912 490.791931,206.561783 
	C496.320679,206.560730 501.731110,207.191681 507.062164,208.584961 
	C509.000732,209.091614 510.918701,209.693817 512.651306,211.648941 
z"/>
<path fill="#00A9C5" opacity="1.000000" stroke="none" 
	d="
M243.655090,3.104506 
	C245.166687,1.436065 246.751343,2.029898 248.173813,2.029380 
	C319.141602,2.003541 390.109436,2.014603 461.541138,2.094451 
	C463.121918,3.538144 463.162262,5.214753 463.428986,6.858320 
	C464.236755,11.835891 466.751221,14.153561 471.667328,14.605616 
	C472.163605,14.651252 472.663574,14.644180 473.161774,14.661898 
	C487.779724,15.181742 487.787811,15.175355 497.137939,26.362709 
	C497.992523,27.385258 498.733459,28.590378 499.833374,29.277897 
	C503.985992,31.873512 505.194946,35.312183 504.594788,40.241005 
	C503.860107,46.274651 507.128601,50.647339 512.719055,53.731827 
	C513.000000,71.354225 513.000000,88.708458 513.000000,106.531342 
	C508.762390,111.444984 503.404205,112.526962 497.507019,112.522278 
	C437.688171,112.474754 377.869202,112.491615 318.050293,112.492714 
	C297.888489,112.493080 277.726685,112.491005 257.564880,112.494362 
	C256.231934,112.494583 254.896362,112.443932 253.566452,112.523224 
	C244.591324,113.058365 242.520355,111.191956 242.514999,102.351837 
	C242.496307,71.525940 242.501495,40.700020 242.520035,9.874124 
	C242.521317,7.730609 242.196686,5.517490 243.655090,3.104506 
z"/>
<path fill="#0094AB" opacity="1.000000" stroke="none" 
	d="
M15.266413,212.626373 
	C13.383759,214.482635 14.044276,216.434921 14.041625,218.183975 
	C14.002282,244.138718 14.017315,270.093536 14.023600,296.515961 
	C15.858179,299.483887 14.935320,303.963593 19.727173,304.765076 
	C20.750355,304.999695 21.500261,305.000610 22.625122,305.000763 
	C25.420017,303.326202 28.174227,304.035706 30.775888,304.035095 
	C186.818604,303.999054 342.861328,303.986908 498.903992,304.085480 
	C503.322418,304.088287 507.827576,302.309570 512.602051,304.695099 
	C513.000000,306.066681 513.000000,307.133331 513.000000,308.600006 
	C511.539825,310.336700 509.721466,310.517578 507.869934,310.585846 
	C505.872009,310.659515 503.873047,310.632721 501.874512,310.632751 
	C343.645935,310.634064 185.417328,310.634460 27.188745,310.633057 
	C12.158698,310.632935 10.585212,309.057465 10.584738,294.027802 
	C10.583902,267.545349 10.564400,241.062866 10.598920,214.580429 
	C10.606758,208.567307 11.505991,202.669662 13.665112,196.544403 
	C15.786737,194.460831 18.035858,195.014160 20.139135,195.013947 
	C184.113647,194.997070 348.088165,194.997589 512.531372,194.998398 
	C513.000000,198.030594 513.000000,201.061188 513.000000,204.545898 
	C511.314087,206.471786 509.349426,206.319031 507.320923,206.055557 
	C501.067017,205.243271 494.770172,204.551437 488.483124,204.548492 
	C336.223083,204.477142 183.963043,204.484863 31.702990,204.526306 
	C26.784803,204.527649 21.772175,204.462936 17.046173,207.430450 
	C16.442005,209.326813 16.291651,210.880234 15.266413,212.626373 
z"/>
<path fill="#007387" opacity="1.000000" stroke="none" 
	d="
M13.637014,196.099579 
	C9.966411,230.145432 12.844841,264.266510 12.031549,298.316589 
	C11.827943,306.840851 14.128278,309.008392 22.458078,309.008240 
	C185.659607,309.005402 348.861145,309.002106 512.531372,308.999451 
	C513.000000,311.700012 513.000000,314.400024 513.000000,317.550018 
	C349.531128,318.001282 186.062271,318.001190 22.593403,318.013062 
	C19.118784,318.013306 15.786398,317.381317 12.171028,315.977509 
	C8.914175,311.259369 8.347608,306.228912 8.357574,300.970612 
	C8.417154,269.536438 8.384324,238.102051 8.392458,206.667740 
	C8.393145,204.013840 8.201034,201.324326 9.692537,198.400635 
	C10.664680,196.670547 12.014848,196.419388 13.637014,196.099579 
z"/>
<path fill="#009DB7" opacity="1.000000" stroke="none" 
	d="
M15.444164,208.231491 
	C15.262442,205.708221 16.566084,204.311386 18.817070,204.069992 
	C22.927549,203.629196 27.055149,203.046844 31.175787,203.045441 
	C183.748398,202.993652 336.321045,202.972641 488.893585,203.086838 
	C496.636322,203.092636 504.378113,204.334000 512.560181,205.000031 
	C513.000000,205.444443 513.000000,205.888901 513.000000,206.666672 
	C511.036438,208.710541 508.664001,208.774673 506.371155,208.251068 
	C501.293335,207.091461 496.160858,206.993683 491.002655,206.993820 
	C337.731964,206.997742 184.461243,206.997543 31.190546,206.994446 
	C26.039986,206.994339 20.919006,207.265411 15.444164,208.231491 
z"/>
<path fill="#004855" opacity="1.000000" stroke="none" 
	d="
M513.000000,123.562500 
	C506.061707,124.332329 499.123627,124.947861 492.185059,124.953712 
	C411.975708,125.021317 331.766266,125.012604 251.556900,124.952103 
	C247.288834,124.948883 242.990326,124.511673 238.763168,123.888474 
	C235.327118,123.381912 232.739746,121.466034 232.092072,117.374184 
	C232.780106,116.419655 233.502411,116.033661 234.748810,115.795288 
	C237.441772,115.550743 239.637878,116.020584 242.254517,116.633163 
	C243.270325,116.801964 243.840164,116.962448 244.808395,117.371552 
	C248.066544,119.970734 251.520126,119.382042 254.790466,119.385353 
	C294.617035,119.425659 334.443634,119.411125 374.270233,119.411278 
	C412.263824,119.411423 450.257385,119.404175 488.250977,119.423775 
	C491.574768,119.425491 494.914886,119.235527 498.214203,119.889374 
	C498.865295,120.018410 498.054657,120.089622 498.682922,119.944283 
	C498.834778,119.909157 498.274170,119.377167 497.842529,118.674820 
	C498.893311,114.363075 502.232544,115.956635 505.282776,115.557831 
	C507.934875,115.734642 510.196472,115.276993 512.621338,116.717056 
	C513.000000,119.041664 513.000000,121.083336 513.000000,123.562500 
z"/>
<path fill="#009DB7" opacity="1.000000" stroke="none" 
	d="
M243.542542,2.747409 
	C243.936066,36.298405 243.966415,69.920166 244.000854,103.541931 
	C244.008041,110.552597 245.725296,112.034119 252.504868,111.111198 
	C254.141586,110.888397 255.827698,111.004974 257.491089,111.004890 
	C334.223419,111.001022 410.955780,110.986641 487.688110,111.022652 
	C496.116150,111.026604 504.624725,111.818718 512.622620,107.005295 
	C513.000000,108.714355 513.000000,110.428719 513.000000,112.571533 
	C507.662445,116.042656 501.739868,115.638466 495.984680,115.572105 
	C464.360901,115.207535 432.737213,115.455017 401.113892,115.436600 
	C351.178528,115.407509 301.242981,115.319893 251.307648,115.488274 
	C241.850677,115.520164 239.607727,113.289337 239.597748,103.671455 
	C239.565277,72.378471 239.578125,41.085449 239.598175,9.792452 
	C239.599442,7.810500 239.380310,5.779262 240.681580,3.532470 
	C241.727081,3.038679 242.453964,2.928429 243.542542,2.747409 
z"/>
<path fill="#00A1BA" opacity="1.000000" stroke="none" 
	d="
M15.000883,208.417603 
	C18.420792,205.955978 22.171936,205.967590 26.007330,205.968506 
	C182.417984,206.005676 338.828674,206.022293 495.239227,205.911484 
	C500.921326,205.907471 506.441010,207.320496 512.550049,207.000198 
	C513.000000,208.388885 513.000000,209.777786 513.000000,211.583344 
	C503.357574,208.313828 493.327698,207.933960 483.127716,207.940002 
	C332.682648,208.029312 182.237503,208.015549 31.792444,207.926376 
	C27.754330,207.923981 23.932240,209.171158 19.927544,209.067535 
	C17.420504,209.002655 17.747925,212.290619 15.357542,212.940735 
	C14.997864,211.610123 14.998096,210.222092 15.000883,208.417603 
z"/>
<path fill="#00A1BA" opacity="1.000000" stroke="none" 
	d="
M513.000000,304.600006 
	C349.979126,305.001923 186.958237,305.003845 23.468719,305.002899 
	C23.170416,303.597351 23.997313,302.998260 25.371569,303.012543 
	C26.869999,303.028076 28.368824,303.000793 29.867476,303.000793 
	C180.403793,303.000000 330.940094,303.009674 481.476410,302.978638 
	C491.740234,302.976501 502.084717,303.908783 512.585083,301.001038 
	C513.000000,302.066681 513.000000,303.133331 513.000000,304.600006 
z"/>
<path fill="#008BA2" opacity="1.000000" stroke="none" 
	d="
M240.666656,3.083888 
	C241.000763,36.938435 240.998154,70.727943 241.004120,104.517448 
	C241.005554,112.630173 242.401932,113.999680 250.587814,113.999702 
	C333.313843,113.999924 416.039886,113.970261 498.765808,114.079628 
	C503.289429,114.085602 507.636597,112.906448 512.559937,113.001244 
	C513.000000,113.444443 513.000000,113.888893 513.000000,114.666672 
	C511.167511,116.823112 508.545135,115.317230 506.289215,116.780350 
	C503.541321,117.190941 501.071167,117.347557 498.346191,117.802750 
	C496.859375,119.262787 495.319031,119.401909 493.882690,118.903214 
	C488.531677,117.045349 483.008484,117.645546 477.543823,117.643105 
	C406.965942,117.611519 336.387970,117.671440 265.810333,117.539886 
	C259.316010,117.527786 252.914185,119.273056 245.962891,118.054329 
	C244.332138,117.482597 243.245728,116.865776 241.712738,116.105827 
	C240.225555,115.180763 239.411316,114.246132 238.699677,112.627655 
	C237.436356,109.831566 237.602066,107.315964 237.600403,104.836998 
	C237.579208,73.149635 237.581909,41.462269 237.601318,9.774910 
	C237.602524,7.800046 237.379639,5.775389 238.674744,3.542578 
	C239.437637,3.117608 239.885361,3.068228 240.666656,3.083888 
z"/>
<path fill="#009DB7" opacity="1.000000" stroke="none" 
	d="
M513.000000,53.562500 
	C505.214844,51.784374 501.567413,45.985283 503.354004,37.769440 
	C503.911530,35.205803 503.415924,33.854240 501.555511,32.241272 
	C496.604523,27.948774 491.450195,23.792063 488.033966,18.048643 
	C487.015228,16.335947 485.628845,15.967937 483.863861,15.991277 
	C480.870422,16.030863 477.876068,16.003347 474.882111,16.002695 
	C464.581757,16.000452 462.000061,13.398182 462.003418,2.594136 
	C463.432587,2.429603 464.860138,2.691935 466.646912,3.044056 
	C467.439911,3.634492 467.861908,4.139135 468.131012,4.758181 
	C471.142853,11.686102 473.846741,13.634291 481.003998,12.403457 
	C486.769348,11.411991 490.336029,12.145129 493.307495,18.137472 
	C495.157593,21.868509 498.990601,25.419834 502.932404,27.840883 
	C506.185272,29.838781 507.678192,32.385956 507.272858,36.020081 
	C506.754517,40.667427 508.656281,44.010090 512.712158,46.745464 
	C513.000000,49.041668 513.000000,51.083332 513.000000,53.562500 
z"/>
<path fill="#006B7D" opacity="1.000000" stroke="none" 
	d="
M488.790405,8.778614 
	C490.947357,9.673800 492.797211,10.392095 494.859039,11.371281 
	C496.237366,13.909555 497.824097,15.740967 500.600403,16.802187 
	C501.213928,17.439413 501.560791,17.867817 501.982910,18.564016 
	C503.507172,21.115038 504.602295,23.733919 507.831299,24.786386 
	C508.719971,25.770761 509.314270,26.576796 510.006226,27.687189 
	C511.173065,29.719923 511.584076,31.737181 512.765137,33.759777 
	C513.000000,36.370556 513.000000,38.741116 513.000000,41.555836 
	C510.334320,43.654034 508.955475,42.039421 508.005951,39.875088 
	C507.129211,37.876694 506.884338,35.695259 507.020172,33.516361 
	C507.173462,31.057631 506.300049,29.509651 503.863892,28.562452 
	C501.592651,27.679356 492.896729,18.174068 492.026337,15.742148 
	C490.937683,12.700224 488.880066,11.811795 485.863159,11.956896 
	C483.051270,12.092134 480.246857,12.682845 477.409363,12.198546 
	C472.717010,11.397670 470.829895,8.737453 471.768066,3.483549 
	C474.467163,3.136474 476.933136,2.443002 479.620850,3.796395 
	C482.239990,6.589745 485.171204,7.953475 488.790405,8.778614 
z"/>
<path fill="#008BA2" opacity="1.000000" stroke="none" 
	d="
M471.620575,3.090980 
	C472.158783,9.341093 473.699036,10.945719 479.589355,11.004020 
	C481.420990,11.022148 483.262573,11.111572 485.083008,10.963843 
	C489.182037,10.631208 491.130035,11.902240 493.684052,15.916615 
	C496.473999,20.301819 499.350708,26.108759 505.341827,27.911083 
	C508.222595,28.777691 507.735535,30.948017 508.086731,33.063782 
	C508.634003,36.361130 507.247345,40.694588 512.608582,41.991310 
	C513.000000,43.388889 513.000000,44.777779 513.000000,46.583336 
	C508.110840,46.318680 505.731140,43.457993 506.035126,38.583061 
	C506.315460,34.087410 505.288055,31.192060 501.199799,27.912989 
	C497.235321,24.733225 491.828705,21.744810 490.534912,15.567614 
	C489.976990,12.903871 487.120911,12.666904 484.712830,13.096603 
	C482.605103,13.472709 480.568909,14.062899 478.371124,14.031457 
	C470.898407,13.924558 468.161804,11.549376 467.007202,3.521921 
	C468.406219,3.093158 469.806244,3.052474 471.620575,3.090980 
z"/>
<path fill="#001A20" opacity="1.000000" stroke="none" 
	d="
M513.000000,33.583336 
	C510.065918,33.339478 510.249664,30.952204 510.098938,28.372234 
	C510.854645,28.316984 511.605377,28.642420 512.678101,28.983929 
	C513.000000,30.388889 513.000000,31.777779 513.000000,33.583336 
z"/>
<path fill="#007B91" opacity="1.000000" stroke="none" 
	d="
M506.447449,117.056892 
	C507.050720,113.313576 510.118439,115.723122 512.575317,115.001495 
	C513.000000,115.444443 513.000000,115.888893 513.000000,116.666672 
	C510.961151,117.026489 508.922333,117.052971 506.447449,117.056892 
z"/>
<path fill="#008196" opacity="1.000000" stroke="none" 
	d="
M10.657194,390.602264 
	C13.205928,388.422333 15.807288,387.939789 18.732929,387.941528 
	C107.962624,387.994873 197.192352,387.983246 286.422089,387.967285 
	C289.400024,387.966766 292.398926,387.737030 294.875763,390.498962 
	C295.195862,391.117035 295.380768,391.379486 295.730316,391.820679 
	C295.873657,392.014465 296.058899,392.356476 296.049316,392.550720 
	C296.588074,393.571686 296.435333,394.531738 296.725708,395.741394 
	C296.899170,396.042267 297.071533,396.362030 297.054108,396.542786 
	C297.885925,398.469910 297.461456,400.333527 297.463318,402.136475 
	C297.493713,431.625183 297.448761,461.114044 297.517853,490.602600 
	C297.530426,495.967499 297.144897,501.224579 295.249207,506.785339 
	C293.246704,509.969391 290.492004,510.032227 287.617401,510.031128 
	C212.718277,510.002441 137.819168,510.000336 62.456802,509.915344 
	C59.216637,504.587006 54.958374,502.374420 48.735817,503.622131 
	C47.772442,503.861816 47.122036,503.922760 46.161179,503.927063 
	C45.281582,503.908875 44.713360,503.931061 43.972069,504.400879 
	C43.591900,504.680420 43.435059,504.786987 42.996719,504.934235 
	C40.590195,503.027374 37.889927,502.397369 35.062370,501.370239 
	C33.016651,498.373169 31.146057,495.682312 27.159927,495.204102 
	C26.504580,495.042053 26.237408,494.895935 26.011566,494.354309 
	C24.446243,490.878052 22.685104,487.848297 18.853344,486.190155 
	C18.237204,486.001282 18.054237,485.841858 17.980169,485.352234 
	C17.103357,481.974091 15.487598,479.300323 12.421904,477.222046 
	C10.318921,473.535278 10.091082,469.591583 8.940052,465.513428 
	C8.119242,463.027405 8.488753,460.857513 8.470480,458.711060 
	C8.316027,440.568512 8.473131,422.425598 8.394229,404.283112 
	C8.374489,399.744354 8.905777,395.320282 10.657194,390.602264 
z"/>
<path fill="#007285" opacity="1.000000" stroke="none" 
	d="
M231.524353,112.317467 
	C231.111465,78.225052 231.052795,44.441162 231.002014,10.657258 
	C230.997421,7.598807 232.322571,5.327260 235.477737,3.939251 
	C239.282532,4.500225 237.916382,7.274030 237.926041,9.082117 
	C238.038818,30.174133 237.941422,51.267113 238.016724,72.359436 
	C238.062973,85.308411 237.683701,98.260574 238.305054,111.683823 
	C236.421829,115.320084 234.113968,113.452736 231.524353,112.317467 
z"/>
<path fill="#001A20" opacity="1.000000" stroke="none" 
	d="
M9.571654,198.104736 
	C9.853958,231.409653 9.888366,264.865723 9.697478,298.320526 
	C9.664853,304.038361 10.547958,309.521606 11.798098,315.410309 
	C7.430726,313.183105 5.826671,309.307617 5.842826,304.269470 
	C5.948887,271.193298 5.938637,238.116608 5.885368,205.040237 
	C5.880606,202.082886 7.153718,200.033905 9.571654,198.104736 
z"/>
<path fill="#001A20" opacity="1.000000" stroke="none" 
	d="
M10.539263,390.272949 
	C8.783934,412.529572 10.247270,434.950806 9.744779,457.339691 
	C9.692986,459.647369 9.257851,461.946411 8.968637,464.681702 
	C6.852688,461.396423 5.921887,457.411102 5.931752,453.146454 
	C5.970477,436.405975 5.917169,419.665161 5.981752,402.924835 
	C5.999515,398.320770 6.737939,393.863647 10.539263,390.272949 
z"/>
<path fill="#007B91" opacity="1.000000" stroke="none" 
	d="
M238.297409,113.213028 
	C236.686264,110.883270 237.003052,108.515236 237.002579,106.203117 
	C236.996017,74.258354 237.007751,42.313583 236.976212,10.368847 
	C236.974274,8.404911 237.429382,6.372991 236.163361,4.191760 
	C236.339508,2.728124 237.380936,3.060755 238.639679,3.095906 
	C238.992447,37.233524 238.999344,71.300064 238.988007,105.366600 
	C238.987228,107.697052 238.922653,110.018051 239.916412,112.635323 
	C239.556625,113.376381 239.106857,113.496651 238.297409,113.213028 
z"/>
<path fill="#006374" opacity="1.000000" stroke="none" 
	d="
M295.384857,507.039795 
	C299.168884,470.782562 296.007080,434.204926 297.008881,397.212006 
	C298.190338,397.273468 298.005890,398.345245 298.006653,399.310913 
	C298.033997,432.723419 298.048523,466.135925 298.078888,499.548431 
	C298.081360,502.251038 297.501678,504.734375 295.384857,507.039795 
z"/>
<path fill="#006B7D" opacity="1.000000" stroke="none" 
	d="
M47.913944,503.317261 
	C55.016663,500.455933 60.832085,502.996368 61.996124,509.459717 
	C60.266281,509.887970 58.538998,509.938904 56.387035,509.907532 
	C54.710152,505.848419 50.496628,505.782440 47.913944,503.317261 
z"/>
<path fill="#004855" opacity="1.000000" stroke="none" 
	d="
M47.620136,502.977173 
	C49.035133,504.409027 50.614086,503.838623 51.989143,504.036072 
	C54.896225,504.453461 56.101467,506.229034 55.970329,509.441162 
	C54.224358,509.554932 52.486359,509.284607 50.369385,508.927795 
	C48.634544,507.287170 46.766941,506.475281 44.835915,505.170593 
	C44.473152,504.452911 44.465405,503.998260 44.783962,503.261719 
	C45.745113,502.985504 46.495235,502.987457 47.620136,502.977173 
z"/>
<path fill="#006374" opacity="1.000000" stroke="none" 
	d="
M237.604721,113.001862 
	C238.427734,113.018829 238.864014,113.027557 239.626450,113.045692 
	C240.444427,113.633186 240.936234,114.211281 241.687408,114.917557 
	C242.569382,115.689812 242.723358,116.444519 242.250214,117.633774 
	C239.959595,117.641350 237.896194,117.308800 235.431107,116.970535 
	C234.366577,116.147583 233.275558,116.041893 232.283142,115.213699 
	C231.730484,114.214722 231.381119,113.436584 231.099899,112.333694 
	C233.184677,112.337173 235.201340,112.665398 237.604721,113.001862 
z"/>
<path fill="#004855" opacity="1.000000" stroke="none" 
	d="
M18.685183,486.355957 
	C23.670177,485.762909 25.523422,488.828949 25.961777,493.727234 
	C23.260740,491.955688 20.516556,489.829773 18.685183,486.355957 
z"/>
<path fill="#004855" opacity="1.000000" stroke="none" 
	d="
M488.952515,8.634258 
	C485.555817,8.680028 481.383423,9.797732 479.951447,4.437230 
	C483.995697,3.173519 485.757538,7.084248 488.952515,8.634258 
z"/>
<path fill="#004855" opacity="1.000000" stroke="none" 
	d="
M508.009766,24.639713 
	C504.239868,25.311977 501.839813,23.960884 502.048218,19.235600 
	C505.120850,19.470085 506.493591,21.907047 508.009766,24.639713 
z"/>
<path fill="#004855" opacity="1.000000" stroke="none" 
	d="
M27.019234,495.335114 
	C30.884247,494.732147 34.163387,495.575897 34.906761,500.666077 
	C31.333769,500.667969 30.394302,496.525360 27.019234,495.335114 
z"/>
<path fill="#004855" opacity="1.000000" stroke="none" 
	d="
M12.181432,477.359009 
	C16.903152,477.226807 17.695215,480.592377 17.977798,484.757874 
	C16.122311,482.618622 13.562360,480.627960 12.181432,477.359009 
z"/>
<path fill="#004855" opacity="1.000000" stroke="none" 
	d="
M500.840179,16.672943 
	C497.588135,17.191044 495.142792,16.311073 495.061157,12.034966 
	C497.840881,12.154809 499.027710,14.610434 500.840179,16.672943 
z"/>
<path fill="#001A20" opacity="1.000000" stroke="none" 
	d="
M44.569344,504.614197 
	C47.103271,505.057983 49.140720,505.654968 49.952641,508.490814 
	C47.138897,508.942871 44.880596,507.778595 42.904297,505.291992 
	C42.715214,504.974915 42.920666,505.121948 43.007385,505.030090 
	C43.424843,504.624420 43.821354,504.475159 44.569344,504.614197 
z"/>
<path fill="#005563" opacity="1.000000" stroke="none" 
	d="
M232.034546,115.329391 
	C233.189789,115.065514 234.445206,114.822052 234.969940,116.630157 
	C234.312881,116.976944 233.596375,116.989075 232.521973,117.003471 
	C232.105804,116.559135 232.047531,116.112534 232.034546,115.329391 
z"/>
<path fill="#006374" opacity="1.000000" stroke="none" 
	d="
M296.955475,395.673767 
	C296.009064,395.389984 295.962280,394.443115 296.019714,393.105927 
	C297.231567,393.268890 296.953094,394.351105 296.955475,395.673767 
z"/>
<path fill="#006374" opacity="1.000000" stroke="none" 
	d="
M295.888519,391.739685 
	C295.556152,391.867981 295.327728,391.634430 295.110291,391.076660 
	C295.322632,391.048004 295.613007,391.256470 295.888519,391.739685 
z"/>
<path fill="#00A1BA" opacity="1.000000" stroke="none" 
	d="
M19.942347,304.643066 
	C14.442072,305.600586 13.421870,302.398285 14.017735,297.416626 
	C15.298236,297.051483 17.052162,296.990448 16.851933,298.697662 
	C16.528593,301.454559 18.786066,302.488892 19.942347,304.643066 
z"/>
<path fill="#005563" opacity="1.000000" stroke="none" 
	d="
M243.802795,117.246750 
	C269.093109,115.578850 294.216888,116.158524 319.331787,116.123245 
	C366.967804,116.056328 414.604401,115.990410 462.239716,116.184982 
	C473.909790,116.232651 485.724640,114.535828 497.664276,118.049438 
	C500.136871,120.164314 503.292206,117.837997 505.703400,120.057716 
	C504.148010,121.476540 502.432953,120.972672 500.921936,120.973137 
	C417.221527,120.998940 333.521088,120.997223 249.820663,120.990257 
	C247.737549,120.990082 245.323303,121.609840 244.370300,118.309586 
	C243.943497,117.875938 243.778488,117.709480 243.802795,117.246750 
z"/>
<path fill="#007B91" opacity="1.000000" stroke="none" 
	d="
M243.954254,116.631241 
	C244.005600,117.132889 244.019089,117.315292 244.070541,117.770050 
	C243.644348,118.027863 243.180161,118.013321 242.369476,117.986343 
	C242.005966,117.241440 241.988953,116.508972 241.959351,115.411125 
	C242.863480,115.063110 243.660660,115.266411 243.954254,116.631241 
z"/>
<path fill="#00A8C3" opacity="1.000000" stroke="none" 
	d="
M13.031984,456.268311 
	C14.497515,451.590515 14.053997,447.220612 13.923187,442.925446 
	C13.569244,431.303680 14.786688,419.667480 13.142666,408.044067 
	C12.229610,401.588684 15.028111,398.983032 21.624825,398.982819 
	C109.927773,398.979919 198.230713,398.979401 286.533661,398.983887 
	C293.643311,398.984253 295.000092,400.343536 295.003082,407.440002 
	C295.010223,424.267548 295.542633,441.118408 294.817566,457.914764 
	C294.301056,469.880859 294.113617,481.829376 294.034698,493.791779 
	C294.011658,497.285858 292.401672,499.057281 288.872070,499.015167 
	C287.872620,499.003265 286.872803,499.019318 285.873169,499.019257 
	C207.066956,499.015137 128.260742,498.998810 49.454556,499.049347 
	C46.288395,499.051361 43.729675,498.812561 41.923477,495.622833 
	C40.375332,492.888885 37.709789,491.480377 34.309982,491.984650 
	C33.180473,492.152191 31.400129,492.293060 31.058132,491.278839 
	C28.918110,484.932800 20.481363,482.405121 20.979103,474.539246 
	C21.127054,472.201141 19.693352,470.321899 17.959661,469.754181 
	C12.652898,468.016479 12.681662,464.040863 12.980078,459.732513 
	C13.049015,458.737244 13.004086,457.734039 13.031984,456.268311 
z"/>
<path fill="#006B7D" opacity="1.000000" stroke="none" 
	d="
M44.897701,504.467346 
	C44.471684,504.803040 44.078770,504.844269 43.389977,504.911865 
	C43.079796,503.806396 42.418549,502.270538 44.801285,502.749084 
	C44.973595,503.380005 44.952202,503.776459 44.897701,504.467346 
z"/>
</svg>