<svg version="1.1" id="Layer_1" xmlns="http://www.w3.org/2000/svg" xmlns:xlink="http://www.w3.org/1999/xlink" x="0px" y="0px"
	 width="100%" viewBox="0 0 256 256" enable-background="new 0 0 256 256" xml:space="preserve">
<path fill="#E6E6E6" opacity="1.000000" stroke="none" 
	d="
M3.999998,257.000000 
	C3.000950,257.000000 2.001899,257.000000 1.002137,257.000000 
	C1.001425,171.748657 1.001425,86.497314 1.001425,1.000000 
	C68.020691,1.000000 135.041687,1.000000 202.527756,1.223493 
	C202.992828,1.446985 202.950256,1.891997 202.671692,2.004990 
	C201.891937,2.728865 201.390732,3.339748 200.590576,4.101540 
	C200.177322,5.131608 200.063034,6.010768 199.648376,6.940477 
	C198.881943,7.291321 198.415878,7.591615 197.648773,8.026259 
	C196.861038,9.093283 196.374344,10.025955 195.614807,11.063072 
	C194.858536,11.763921 194.375107,12.360323 193.614868,13.084253 
	C193.188354,13.794110 193.038651,14.376438 192.660675,15.029202 
	C192.143158,15.286020 191.982498,15.550528 191.672653,16.008593 
	C190.891983,16.734791 190.389160,17.345556 189.616852,18.078510 
	C189.213242,18.765825 189.079086,19.330954 188.641205,20.035069 
	C187.520706,21.434649 186.703949,22.695244 185.601913,24.075073 
	C184.506653,25.115175 183.696655,26.036043 182.618713,27.080605 
	C182.216354,27.767780 182.081924,28.331266 181.644623,29.034838 
	C180.526642,30.432873 179.711548,31.690821 178.611053,33.069252 
	C177.513367,34.111504 176.701050,35.033272 175.590027,36.089966 
	C174.751923,37.366837 174.212509,38.508774 173.675735,39.686157 
	C173.678360,39.721603 173.624512,39.768002 173.259094,39.820473 
	C172.227524,40.564873 171.561371,41.256794 170.625153,42.071884 
	C170.219971,42.761524 170.084854,43.328003 169.651321,44.031933 
	C168.863922,45.098392 168.374969,46.027401 167.659958,47.029800 
	C167.147476,47.289425 166.986816,47.552471 166.657516,48.026222 
	C165.891907,49.071350 165.420685,49.982578 164.644684,51.036011 
	C162.855759,53.104023 161.371658,55.029842 159.608383,57.071602 
	C158.539932,58.085663 157.750656,58.983780 156.660400,60.045937 
	C155.202789,62.124531 154.046127,64.039093 152.604828,66.074600 
	C151.509094,67.115746 150.697998,68.035950 149.614502,69.087051 
	C149.192688,69.795273 149.043274,70.372597 148.580505,71.097786 
	C147.554306,72.366112 146.841492,73.486580 145.929092,74.734879 
	C145.449005,75.226929 145.168488,75.591148 144.616486,76.063477 
	C143.858841,76.766594 143.372696,77.361595 142.613708,78.086700 
	C142.192062,78.794380 142.043259,79.371971 141.665985,80.023430 
	C141.146835,80.284485 140.984818,80.550140 140.635086,81.045944 
	C139.843842,82.447983 139.368988,83.698326 138.588165,84.976028 
	C137.817596,85.320564 137.352997,85.637741 136.670349,86.017349 
	C136.171402,86.430153 135.890503,86.780540 135.363113,87.364822 
	C134.395020,88.697098 133.673431,89.795486 132.651886,91.029282 
	C131.863739,92.094780 131.375549,93.024864 130.615784,94.060715 
	C129.861115,94.760231 129.378006,95.353981 128.623627,96.070061 
	C128.218597,96.760307 128.084869,97.328224 127.665619,98.017105 
	C126.570740,99.056412 125.761360,99.974770 124.663071,101.032959 
	C123.881104,102.098221 123.388069,103.023651 122.584732,104.088348 
	C121.834297,105.448395 121.394150,106.669174 120.606964,107.943176 
	C119.466835,108.983765 118.673737,109.971138 117.608345,111.062004 
	C116.856384,111.760513 116.376717,112.355530 115.584961,113.089973 
	C111.793182,117.819489 108.313477,122.409561 104.522346,126.847839 
	C103.333679,125.158684 102.624588,123.491562 101.553528,122.103783 
	C88.921356,105.735977 76.112694,89.502548 63.635803,73.017799 
	C59.780563,67.924171 55.731934,65.354050 48.910618,65.802650 
	C37.794662,66.533676 26.595535,66.000000 15.431506,66.000000 
	C11.353241,66.000000 7.274975,66.000000 1.945376,66.000000 
	C27.483212,98.576561 52.253193,130.173645 77.302826,162.127441 
	C70.378441,170.740845 63.346676,179.283554 56.537823,188.000397 
	C42.708672,205.704758 28.956743,223.470001 15.269015,241.283936 
	C11.343576,246.392700 7.747232,251.754318 3.999998,257.000000 
z"/>
<path fill="#E6E6E6" opacity="1.000000" stroke="none" 
	d="
M257.000000,2.999999 
	C257.000000,87.545074 257.000000,172.090149 257.000000,257.000000 
	C240.314209,257.000000 223.625763,257.000000 206.774048,256.726685 
	C197.038071,244.102844 187.533371,231.698898 177.875870,219.415054 
	C165.088181,203.149796 152.128342,187.019867 139.341339,170.754089 
	C128.488327,156.948486 117.775558,143.032623 107.464630,129.094788 
	C113.949921,128.959595 119.971313,128.895172 126.364975,128.902832 
	C127.490997,128.927917 128.244751,128.880936 129.394684,128.904755 
	C130.860123,128.928955 131.929352,128.882309 133.394775,128.906830 
	C134.859985,128.930344 135.929016,128.882690 137.394302,128.905151 
	C138.859528,128.927979 139.928467,128.880722 141.393494,128.903900 
	C142.858200,128.927231 143.926849,128.880142 145.367554,128.902832 
	C146.492310,128.926346 147.245026,128.880096 148.329071,128.901093 
	C149.106781,128.923859 149.553162,128.879379 150.371460,128.903564 
	C151.495392,128.926025 152.247452,128.879807 153.383713,128.902496 
	C155.192383,128.685593 156.616837,128.399796 158.377869,128.058380 
	C159.510162,127.019569 160.305878,126.036377 161.402649,124.919601 
	C162.505173,123.539566 163.306656,122.293121 164.373657,120.945648 
	C165.108704,120.266045 165.578217,119.687469 166.334595,118.965767 
	C167.117554,117.897331 167.613678,116.972031 168.381485,115.939133 
	C169.139023,115.236427 169.624878,114.641312 170.383942,113.916107 
	C170.806152,113.208023 170.955170,112.630043 171.387695,111.933151 
	C172.392136,110.874924 173.113083,109.935608 173.963959,108.717026 
	C174.745850,107.660667 175.397812,106.883560 176.348114,105.970047 
	C177.132309,104.906265 177.618149,103.978889 178.384705,102.934662 
	C179.459488,101.914848 180.253555,101.011887 181.348251,99.945908 
	C182.802887,97.870445 183.956924,95.958000 185.384583,93.934265 
	C186.569855,92.838692 187.481506,91.854401 188.640961,90.609245 
	C190.276535,88.267456 191.664337,86.186539 193.366699,83.954796 
	C194.743454,82.334526 195.805649,80.865074 197.067383,79.267250 
	C197.548309,78.774254 197.829712,78.409637 198.383118,77.913330 
	C198.805237,77.204582 198.955322,76.627502 199.375244,75.927650 
	C199.779709,75.239090 199.914322,74.673302 200.380844,74.053909 
	C201.157959,73.369522 201.603149,72.738739 202.380524,72.054085 
	C203.158707,71.368492 203.604675,70.736771 204.353302,69.964539 
	C205.472015,68.566994 206.288086,67.309967 207.333191,65.976547 
	C207.852737,65.710861 208.016418,65.443825 208.361389,64.953445 
	C209.724152,62.871239 210.778793,60.934635 211.906067,58.778404 
	C211.978714,58.558769 212.050690,58.101738 212.378098,58.052559 
	C213.819214,57.038361 214.932938,56.073338 216.371765,54.947502 
	C217.501755,52.542210 218.306610,50.297733 219.445053,48.030159 
	C220.534180,47.707474 221.289703,47.407879 222.316284,46.997742 
	C223.074265,46.293755 223.561172,45.700306 224.326050,44.976337 
	C224.752380,44.264977 224.900757,43.684139 225.354218,42.965603 
	C226.484314,41.568268 227.309357,40.308628 228.370377,38.969460 
	C228.888550,38.679943 229.055405,38.400986 229.336304,37.981037 
	C229.858841,37.722458 230.019196,37.455971 230.355682,36.946869 
	C230.812607,35.873024 230.960556,34.961864 231.432770,34.023476 
	C232.544739,33.344234 233.332443,32.692226 234.397491,31.915482 
	C234.822418,31.208992 234.969986,30.627239 235.390717,29.941277 
	C236.147522,29.241163 236.631180,28.645260 237.382874,27.949467 
	C237.782333,26.936726 237.913788,26.023870 238.364380,25.057858 
	C239.471176,24.371922 240.258850,23.739145 241.345657,22.978867 
	C242.112381,21.935890 242.579956,21.020420 243.355270,19.970585 
	C244.479263,18.571819 245.295502,17.307417 246.412598,15.917130 
	C247.490860,14.563485 248.268265,13.335726 249.338409,11.988525 
	C250.455811,10.930248 251.280441,9.991411 252.411499,8.906370 
	C254.145264,6.840110 255.572632,4.920054 257.000000,2.999999 
z"/>
<path fill="#1A1A1A" opacity="1.000000" stroke="none" 
	d="
M107.000732,129.165558 
	C117.775558,143.032623 128.488327,156.948486 139.341339,170.754089 
	C152.128342,187.019867 165.088181,203.149796 177.875870,219.415054 
	C187.533371,231.698898 197.038071,244.102844 206.305389,256.726685 
	C187.979111,257.000000 169.958206,257.000000 151.383514,256.661194 
	C150.333481,255.498734 149.916626,254.613144 149.329208,253.860748 
	C139.719025,241.551727 130.106644,229.244324 120.452522,216.969757 
	C115.378761,210.518814 110.223488,204.131973 104.884239,197.439438 
	C89.327461,217.633087 74.163727,237.316544 59.000000,257.000000 
	C40.979103,257.000000 22.958210,257.000000 4.468655,257.000000 
	C7.747232,251.754318 11.343576,246.392700 15.269015,241.283936 
	C28.956743,223.470001 42.708672,205.704758 56.537823,188.000397 
	C63.346676,179.283554 70.378441,170.740845 77.302826,162.127441 
	C52.253193,130.173645 27.483212,98.576561 1.945376,66.000000 
	C7.274975,66.000000 11.353241,66.000000 15.431506,66.000000 
	C26.595535,66.000000 37.794662,66.533676 48.910618,65.802650 
	C55.731934,65.354050 59.780563,67.924171 63.635803,73.017799 
	C76.112694,89.502548 88.921356,105.735977 101.553528,122.103783 
	C102.624588,123.491562 103.333679,125.158684 104.657013,127.131111 
	C105.735649,128.099304 106.368195,128.632431 107.000732,129.165558 
z"/>
<path fill="#E6E6E6" opacity="1.000000" stroke="none" 
	d="
M59.468658,257.000000 
	C74.163727,237.316544 89.327461,217.633087 104.884239,197.439438 
	C110.223488,204.131973 115.378761,210.518814 120.452522,216.969757 
	C130.106644,229.244324 139.719025,241.551727 149.329208,253.860748 
	C149.916626,254.613144 150.333481,255.498734 150.914856,256.661194 
	C120.645775,257.000000 90.291542,257.000000 59.468658,257.000000 
z"/>
<path fill="#00C14E" opacity="1.000000" stroke="none" 
	d="
M237.114853,28.049360 
	C236.631180,28.645260 236.147522,29.241163 235.061493,29.901333 
	C233.639008,29.644039 232.818893,29.322481 231.870728,28.739788 
	C231.161575,27.985924 230.580475,27.493191 229.956482,26.663986 
	C228.942795,25.551373 227.972000,24.775232 227.000610,23.749557 
	C227.000000,23.500025 226.998779,23.000961 226.955933,22.658329 
	C222.608521,18.210758 218.303955,14.105824 213.789093,9.881912 
	C213.316513,9.561465 213.123383,9.307436 212.846710,8.706503 
	C211.129150,7.275070 209.564270,6.137981 207.749847,5.000481 
	C207.500305,5.000069 207.001221,4.998996 206.961075,4.655610 
	C206.613953,3.208149 206.306976,2.104075 206.000000,1.000000 
	C207.714157,1.000000 209.428329,1.000000 211.613937,1.342665 
	C220.428543,10.473341 228.771698,19.261353 237.114853,28.049360 
z"/>
<path fill="#00C245" opacity="1.000000" stroke="none" 
	d="
M237.382874,27.949471 
	C228.771698,19.261353 220.428543,10.473341 212.042694,1.342665 
	C213.388885,1.000000 214.777786,1.000000 216.626205,1.342611 
	C220.766190,5.666133 224.496216,9.602648 228.112625,13.640894 
	C231.486282,17.408052 234.739197,21.283327 238.045242,25.111013 
	C237.913788,26.023870 237.782333,26.936726 237.382874,27.949471 
z"/>
<path fill="#00C438" opacity="1.000000" stroke="none" 
	d="
M238.364380,25.057854 
	C234.739197,21.283327 231.486282,17.408052 228.112625,13.640894 
	C224.496216,9.602648 220.766190,5.666133 217.042877,1.342611 
	C218.714355,1.000000 220.428711,1.000000 222.579300,1.366487 
	C223.516769,2.721839 223.837769,3.869824 224.547913,4.674271 
	C230.004898,10.855861 235.537430,16.970760 241.046509,23.106365 
	C240.258850,23.739145 239.471176,24.371922 238.364380,25.057854 
z"/>
<path fill="#00CA16" opacity="1.000000" stroke="none" 
	d="
M249.045670,12.107969 
	C248.268265,13.335726 247.490860,14.563485 246.061539,15.865583 
	C240.939743,10.959949 236.469864,5.979976 232.000000,1.000002 
	C234.700012,1.000000 237.400024,1.000000 240.594849,1.346684 
	C243.741653,5.164903 246.393661,8.636437 249.045670,12.107969 
z"/>
<path fill="#00C726" opacity="1.000000" stroke="none" 
	d="
M231.583344,1.000002 
	C236.469864,5.979976 240.939743,10.959949 245.760681,15.991467 
	C245.295502,17.307417 244.479263,18.571819 243.202423,19.666325 
	C241.745407,18.414909 240.706039,17.369534 239.759949,16.245651 
	C235.492203,11.175919 231.250854,6.083955 227.000000,0.999998 
	C228.388885,1.000000 229.777786,1.000000 231.583344,1.000002 
z"/>
<path fill="#00C631" opacity="1.000000" stroke="none" 
	d="
M226.600006,0.999998 
	C231.250854,6.083955 235.492203,11.175919 239.759949,16.245651 
	C240.706039,17.369534 241.745407,18.414909 242.894669,19.800688 
	C242.579956,21.020420 242.112381,21.935890 241.345673,22.978861 
	C235.537430,16.970760 230.004898,10.855861 224.547913,4.674271 
	C223.837769,3.869824 223.516769,2.721839 223.007767,1.366487 
	C224.066666,1.000000 225.133347,1.000000 226.600006,0.999998 
z"/>
<path fill="#00CD02" opacity="1.000000" stroke="none" 
	d="
M257.000000,2.499999 
	C255.572632,4.920054 254.145264,6.840110 252.139587,8.707825 
	C249.707504,6.103654 247.853760,3.551823 246.000000,0.999996 
	C249.666672,1.333333 253.333328,1.666667 257.000000,2.499999 
z"/>
<path fill="#00CB0C" opacity="1.000000" stroke="none" 
	d="
M245.583344,0.999996 
	C247.853760,3.551823 249.707504,6.103654 251.833176,8.854030 
	C251.280441,9.991411 250.455811,10.930248 249.338409,11.988529 
	C246.393661,8.636437 243.741653,5.164903 241.044830,1.346684 
	C242.388885,1.000000 243.777786,1.000000 245.583344,0.999996 
z"/>
<path fill="#00C053" opacity="1.000000" stroke="none" 
	d="
M205.625000,1.000000 
	C206.306976,2.104075 206.613953,3.208149 206.627686,4.616174 
	C205.206390,3.910749 204.078323,2.901374 202.950256,1.891998 
	C202.950256,1.891997 202.992828,1.446985 202.996414,1.223493 
	C203.750000,1.000000 204.500000,1.000000 205.625000,1.000000 
z"/>
<path fill="#01A3FF" opacity="1.000000" stroke="none" 
	d="
M193.052124,84.105621 
	C191.664337,86.186539 190.276535,88.267456 188.482910,90.231201 
	C180.738037,77.312088 172.252243,65.485054 159.887543,56.955662 
	C161.371658,55.029842 162.855759,53.104023 164.800308,51.342575 
	C166.312195,52.556881 167.275024,53.717789 168.428986,54.639385 
	C178.639587,62.793846 187.167511,72.341949 193.052124,84.105621 
z"/>
<path fill="#0496FF" opacity="1.000000" stroke="none" 
	d="
M185.110947,94.045547 
	C183.956924,95.958000 182.802887,97.870445 181.190216,99.633209 
	C179.121429,96.585327 177.609329,93.627289 175.883423,90.799774 
	C169.890366,80.981567 163.237579,71.751160 152.889481,65.953651 
	C154.046127,64.039093 155.202789,62.124531 156.709915,60.398026 
	C157.708755,61.514091 158.243256,62.553398 159.023911,63.352104 
	C164.200287,68.648102 169.724548,73.638069 174.549149,79.233299 
	C178.492340,83.806343 181.621109,89.081612 185.110947,94.045547 
z"/>
<path fill="#039CFF" opacity="1.000000" stroke="none" 
	d="
M185.384583,93.934265 
	C181.621109,89.081612 178.492340,83.806343 174.549149,79.233299 
	C169.724548,73.638069 164.200287,68.648102 159.023911,63.352104 
	C158.243256,62.553398 157.708755,61.514091 157.010880,60.233986 
	C157.750656,58.983780 158.539932,58.085663 159.608383,57.071602 
	C172.252243,65.485054 180.738037,77.312088 188.235138,90.492073 
	C187.481506,91.854401 186.569855,92.838692 185.384583,93.934265 
z"/>
<path fill="#2814FF" opacity="1.000000" stroke="none" 
	d="
M107.464630,129.094788 
	C106.368195,128.632431 105.735649,128.099304 104.968437,127.282913 
	C108.313477,122.409561 111.793182,117.819489 115.907089,113.236252 
	C123.402863,116.188805 126.692932,121.300041 125.992706,128.830750 
	C119.971313,128.895172 113.949921,128.959595 107.464630,129.094788 
z"/>
<path fill="#00B598" opacity="1.000000" stroke="none" 
	d="
M219.111465,48.053253 
	C218.306610,50.297733 217.501755,52.542210 216.217392,54.640556 
	C207.004318,43.125645 198.176544,31.848923 185.887177,23.955837 
	C186.703949,22.695244 187.520706,21.434649 188.841888,20.307945 
	C190.361404,21.248356 191.333130,22.118053 192.399521,22.849813 
	C195.913437,25.261097 199.461609,27.622450 202.998322,30.001488 
	C203.000000,30.000000 202.997177,30.003443 203.042145,30.349068 
	C207.058884,35.462910 211.030670,40.231133 215.157166,45.296314 
	C216.578400,46.413269 217.844940,47.233261 219.111465,48.053253 
z"/>
<path fill="#155AFF" opacity="1.000000" stroke="none" 
	d="
M158.041290,128.113998 
	C156.616837,128.399796 155.192383,128.685593 153.383881,128.463196 
	C151.545044,121.725273 151.360840,114.769203 148.318405,109.447075 
	C144.392181,102.578979 138.179718,97.017845 132.951828,90.893875 
	C133.673431,89.795486 134.395020,88.697098 135.534088,87.720642 
	C149.113892,98.085442 157.076080,111.180725 158.041290,128.113998 
z"/>
<path fill="#078DFF" opacity="1.000000" stroke="none" 
	d="
M152.604828,66.074600 
	C163.237579,71.751160 169.890366,80.981567 175.883423,90.799774 
	C177.609329,93.627289 179.121429,96.585327 180.889603,99.796219 
	C180.253555,101.011887 179.459488,101.914848 178.106720,102.725822 
	C177.114395,101.927795 176.629593,101.247818 176.254745,100.511833 
	C169.872162,87.980431 162.373688,76.385529 149.886902,68.956154 
	C150.697998,68.035950 151.509094,67.115746 152.604828,66.074600 
z"/>
<path fill="#0985FF" opacity="1.000000" stroke="none" 
	d="
M176.049774,106.106453 
	C175.397812,106.883560 174.745850,107.660667 173.628693,108.634644 
	C172.138184,106.825989 170.990936,104.872574 170.107666,102.806305 
	C165.026215,90.918983 157.166428,81.417847 146.128662,74.607040 
	C146.841492,73.486580 147.554306,72.366112 148.886658,71.252441 
	C151.562881,72.898262 153.682571,74.464813 155.665527,76.188652 
	C165.077133,84.370354 171.662476,94.493423 176.049774,106.106453 
z"/>
<path fill="#00A6F7" opacity="1.000000" stroke="none" 
	d="
M193.366699,83.954788 
	C187.167511,72.341949 178.639587,62.793846 168.428986,54.639385 
	C167.275024,53.717789 166.312195,52.556881 165.105103,51.200378 
	C165.420685,49.982578 165.891907,49.071350 166.812927,48.333389 
	C168.099518,49.298130 168.927750,50.098843 169.774384,50.879589 
	C175.699875,56.343815 181.850937,61.587181 187.476425,67.344261 
	C191.013504,70.964081 193.764297,75.352188 196.867828,79.395630 
	C195.805649,80.865074 194.743454,82.334526 193.366699,83.954788 
z"/>
<path fill="#00B3A6" opacity="1.000000" stroke="none" 
	d="
M185.601913,24.075069 
	C198.176544,31.848923 207.004318,43.125645 215.892273,54.801369 
	C214.932938,56.073338 213.819214,57.038361 212.224731,57.749886 
	C209.829300,55.330910 207.914642,53.165436 206.000000,50.999977 
	C206.000000,51.000000 206.000000,50.999847 205.993225,50.634693 
	C202.426804,45.473530 199.300018,40.257015 195.174789,36.010406 
	C191.677872,32.410583 187.026932,29.931784 182.886658,26.956917 
	C183.696655,26.036043 184.506653,25.115175 185.601913,24.075069 
z"/>
<path fill="#00BB74" opacity="1.000000" stroke="none" 
	d="
M228.134384,39.048992 
	C227.309357,40.308628 226.484314,41.568268 225.202911,42.665237 
	C223.498489,41.667519 222.250473,40.832470 221.002136,39.747986 
	C221.001846,39.498558 221.000610,38.999695 220.957458,38.659214 
	C219.609940,37.211956 218.305588,36.105175 216.703094,34.842064 
	C211.937332,30.123182 207.469711,25.560637 202.949219,20.684704 
	C202.264618,19.913830 201.632858,19.456341 200.777161,18.750175 
	C198.703171,17.333260 196.853119,16.165018 194.966949,14.692097 
	C194.584457,13.910519 194.238068,13.433621 193.891678,12.956724 
	C194.375107,12.360323 194.858536,11.763921 195.968323,11.113369 
	C200.396271,13.372997 204.197830,15.686773 207.999985,18.249935 
	C208.000580,18.499321 208.001511,18.998093 208.154205,19.293457 
	C213.203751,24.059832 218.100632,28.530838 222.998749,33.000923 
	C223.000000,33.000000 222.998169,33.002102 223.005844,33.368656 
	C224.720474,35.506470 226.427429,37.277733 228.134384,39.048992 
z"/>
<path fill="#00AEC4" opacity="1.000000" stroke="none" 
	d="
M208.053253,65.099052 
	C208.016418,65.443825 207.852737,65.710861 207.026169,65.819595 
	C202.886810,61.311474 199.487732,56.692944 195.598282,52.532887 
	C193.497208,50.285641 190.558105,48.821922 187.878372,46.793720 
	C187.558044,46.319611 187.303391,46.126335 186.936630,45.670704 
	C183.214600,42.210690 179.551682,39.082867 175.888748,35.955044 
	C176.701050,35.033272 177.513367,34.111504 178.919418,33.226051 
	C193.099609,40.223263 201.276123,52.033920 208.053253,65.099052 
z"/>
<path fill="#00B1B6" opacity="1.000000" stroke="none" 
	d="
M208.361389,64.953445 
	C201.276123,52.033920 193.099609,40.223263 179.204803,33.105568 
	C179.711548,31.690821 180.526642,30.432873 181.801300,29.341461 
	C189.285385,36.272694 196.291809,43.056492 203.364059,49.770939 
	C204.030716,50.403862 205.111496,50.600597 206.000000,50.999847 
	C206.000000,50.999847 206.000000,51.000000 206.007324,51.365311 
	C207.954239,54.153088 209.893845,56.575554 211.833435,58.998032 
	C210.778793,60.934635 209.724152,62.871239 208.361389,64.953445 
z"/>
<path fill="#1167FF" opacity="1.000000" stroke="none" 
	d="
M164.108139,121.046677 
	C163.306656,122.293121 162.505173,123.539566 161.124207,124.659943 
	C157.419250,108.755447 151.100632,94.935028 136.888397,85.954918 
	C137.352997,85.637741 137.817596,85.320564 138.911118,85.122147 
	C146.122925,87.833000 151.175339,92.304283 154.238953,98.579193 
	C157.824829,105.923759 160.843445,113.545288 164.108139,121.046677 
z"/>
<path fill="#00BE62" opacity="1.000000" stroke="none" 
	d="
M231.108505,34.050705 
	C230.960556,34.961864 230.812607,35.873024 230.203003,36.641647 
	C219.810471,26.629385 209.879608,16.759655 199.948730,6.889927 
	C200.063034,6.010768 200.177322,5.131608 200.897888,4.256367 
	C208.408035,10.412852 215.285294,16.595743 222.237503,22.693190 
	C223.681213,23.959404 225.402802,24.908792 226.997131,26.253256 
	C226.997940,26.502312 226.999390,27.000534 227.006409,27.363979 
	C228.378464,29.835182 229.743484,31.942942 231.108505,34.050705 
z"/>
<path fill="#00B981" opacity="1.000000" stroke="none" 
	d="
M195.003052,14.996778 
	C196.853119,16.165018 198.703171,17.333260 200.829254,19.064011 
	C201.737549,20.083712 202.369812,20.540899 203.002075,20.998089 
	C207.469711,25.560637 211.937332,30.123182 216.745789,35.182762 
	C218.391281,36.786430 219.695938,37.893063 221.000610,38.999695 
	C221.000610,38.999695 221.001846,39.498558 221.041870,40.083176 
	C222.070633,42.147476 223.059372,43.627163 224.048096,45.106853 
	C223.561172,45.700306 223.074265,46.293755 222.163239,46.691620 
	C216.787384,40.791687 212.062042,34.868172 206.816177,29.448517 
	C202.161240,24.639395 196.928284,20.389767 191.950485,15.893161 
	C191.982498,15.550528 192.143158,15.286020 193.012909,15.040066 
	C194.063278,14.985921 194.533157,14.991349 195.003052,14.996778 
z"/>
<path fill="#1C41FF" opacity="1.000000" stroke="none" 
	d="
M144.995499,128.833069 
	C143.926849,128.880142 142.858200,128.927231 141.391693,128.501434 
	C140.167389,119.724457 137.441864,112.303596 131.067764,106.558464 
	C129.003799,104.698166 126.989174,102.783127 124.951988,100.893120 
	C125.761360,99.974770 126.570740,99.056412 127.821594,98.323830 
	C131.206131,101.396240 134.276154,104.165939 137.065552,107.194145 
	C142.672318,113.280952 143.500076,121.196365 144.995499,128.833069 
z"/>
<path fill="#2032FF" opacity="1.000000" stroke="none" 
	d="
M136.998032,128.835052 
	C135.929016,128.882690 134.859985,128.930344 133.393417,128.515625 
	C132.177597,119.423637 127.246712,113.250145 120.954010,107.889954 
	C121.394150,106.669174 121.834297,105.448395 122.890381,104.243805 
	C131.707489,110.418213 138.015518,117.615768 136.998032,128.835052 
z"/>
<path fill="#1654FF" opacity="1.000000" stroke="none" 
	d="
M132.651886,91.029282 
	C138.179718,97.017845 144.392181,102.578979 148.318405,109.447075 
	C151.360840,114.769203 151.545044,121.725273 152.999664,128.394302 
	C152.247452,128.879807 151.495392,128.926025 150.371643,128.460800 
	C150.313248,112.859871 142.940735,102.091553 130.887360,93.954941 
	C131.375549,93.024864 131.863739,92.094780 132.651886,91.029282 
z"/>
<path fill="#1A49FF" opacity="1.000000" stroke="none" 
	d="
M145.367554,128.902832 
	C143.500076,121.196365 142.672318,113.280952 137.065552,107.194145 
	C134.276154,104.165939 131.206131,101.396240 128.107086,98.202866 
	C128.084869,97.328224 128.218597,96.760307 128.941772,96.213974 
	C141.772171,103.654320 147.129608,114.972519 147.997742,128.833832 
	C147.245026,128.880096 146.492310,128.926346 145.367554,128.902832 
z"/>
<path fill="#00AAE3" opacity="1.000000" stroke="none" 
	d="
M200.048920,74.107521 
	C199.914322,74.673302 199.779709,75.239090 199.069778,75.766190 
	C196.451920,72.733948 194.629471,69.555664 192.311081,66.793663 
	C189.420685,63.350220 186.121475,60.249939 182.999390,57.000740 
	C183.000000,57.000000 182.998764,57.001202 182.849274,56.718636 
	C181.800247,55.957058 180.900742,55.478046 180.000610,54.999519 
	C180.000000,55.000000 180.001038,54.998856 179.957336,54.655869 
	C176.592346,50.840080 173.271057,47.367283 169.949753,43.894482 
	C170.084854,43.328003 170.219971,42.761524 170.933273,42.228806 
	C183.842026,50.352177 192.260681,61.947380 200.048920,74.107521 
z"/>
<path fill="#1263FF" opacity="1.000000" stroke="none" 
	d="
M136.670349,86.017349 
	C151.100632,94.935028 157.419250,108.755447 160.823151,124.793533 
	C160.305878,126.036377 159.510162,127.019569 158.377869,128.058380 
	C157.076080,111.180725 149.113892,98.085442 135.780579,87.486748 
	C135.890503,86.780540 136.171402,86.430153 136.670349,86.017349 
z"/>
<path fill="#0E72FF" opacity="1.000000" stroke="none" 
	d="
M168.109802,116.046722 
	C167.613678,116.972031 167.117554,117.897331 166.180817,118.625893 
	C165.123352,116.720970 164.692764,114.915207 163.857651,113.321388 
	C160.100266,106.150261 156.713760,98.713173 152.222565,92.023895 
	C149.338318,87.728027 144.766724,84.565048 140.951462,80.894257 
	C140.984818,80.550140 141.146835,80.284485 141.982452,80.165939 
	C152.718124,86.786407 159.992706,95.669121 164.194122,107.078293 
	C165.319397,110.134026 166.795013,113.060768 168.109802,116.046722 
z"/>
<path fill="#0F6DFF" opacity="1.000000" stroke="none" 
	d="
M140.635086,81.045944 
	C144.766724,84.565048 149.338318,87.728027 152.222565,92.023895 
	C156.713760,98.713173 160.100266,106.150261 163.857651,113.321388 
	C164.692764,114.915207 165.123352,116.720970 165.893982,118.769020 
	C165.578217,119.687469 165.108704,120.266045 164.373657,120.945648 
	C160.843445,113.545288 157.824829,105.923759 154.238953,98.579193 
	C151.175339,92.304283 146.122925,87.833000 139.217087,85.094788 
	C139.368988,83.698326 139.843842,82.447983 140.635086,81.045944 
z"/>
<path fill="#0B7FFF" opacity="1.000000" stroke="none" 
	d="
M145.929092,74.734879 
	C157.166428,81.417847 165.026215,90.918983 170.107666,102.806305 
	C170.990936,104.872574 172.138184,106.825989 173.498779,108.913910 
	C173.113083,109.935608 172.392136,110.874924 171.113129,111.695328 
	C166.096298,96.750648 157.807480,84.684662 144.887970,75.955368 
	C145.168488,75.591148 145.449005,75.226929 145.929092,74.734879 
z"/>
<path fill="#00ABDC" opacity="1.000000" stroke="none" 
	d="
M200.380859,74.053909 
	C192.260681,61.947380 183.842026,50.352177 171.203354,42.105640 
	C171.561371,41.256794 172.227524,40.564873 173.413727,40.258888 
	C174.955643,41.096825 175.977509,41.548828 176.999695,42.000412 
	C177.000000,42.000000 176.999390,42.000935 177.048920,42.353111 
	C178.398773,43.470448 179.699081,44.235603 181.209518,45.119968 
	C181.681656,45.440830 181.874710,45.694897 182.042328,46.344246 
	C182.721741,47.622017 183.300781,48.602093 184.002411,49.484707 
	C190.005127,57.035801 196.030045,64.569237 202.048340,72.107956 
	C201.603149,72.738739 201.157959,73.369522 200.380859,74.053909 
z"/>
<path fill="#00B889" opacity="1.000000" stroke="none" 
	d="
M191.672653,16.008593 
	C196.928284,20.389767 202.161240,24.639395 206.816177,29.448517 
	C212.062042,34.868172 216.787384,40.791687 221.892181,46.802166 
	C221.289703,47.407879 220.534180,47.707474 219.445053,48.030159 
	C217.844940,47.233261 216.578400,46.413269 215.385559,45.079468 
	C214.161560,37.267189 207.985260,34.143745 202.997177,30.003443 
	C202.997177,30.003443 203.000000,30.000000 202.939026,29.669174 
	C198.547470,25.544342 194.216904,21.750334 189.886337,17.956324 
	C190.389160,17.345556 190.891983,16.734791 191.672653,16.008593 
z"/>
<path fill="#0D77FF" opacity="1.000000" stroke="none" 
	d="
M168.381485,115.939133 
	C166.795013,113.060768 165.319397,110.134026 164.194122,107.078293 
	C159.992706,95.669121 152.718124,86.786407 142.210922,80.092072 
	C142.043259,79.371971 142.192062,78.794380 142.965302,78.136818 
	C154.151657,84.977234 161.804764,94.212448 166.220322,106.120674 
	C167.238251,108.865929 168.799515,111.409706 170.110733,114.046204 
	C169.624878,114.641312 169.139023,115.236427 168.381485,115.939133 
z"/>
<path fill="#0889FF" opacity="1.000000" stroke="none" 
	d="
M176.348114,105.970047 
	C171.662476,94.493423 165.077133,84.370354 155.665527,76.188652 
	C153.682571,74.464813 151.562881,72.898262 149.200027,71.104584 
	C149.043274,70.372597 149.192688,69.795273 149.614502,69.087051 
	C162.373688,76.385529 169.872162,87.980431 176.254745,100.511833 
	C176.629593,101.247818 177.114395,101.927795 177.825989,102.842667 
	C177.618149,103.978889 177.132309,104.906265 176.348114,105.970047 
z"/>
<path fill="#184FFF" opacity="1.000000" stroke="none" 
	d="
M148.329071,128.901093 
	C147.129608,114.972519 141.772171,103.654320 129.213058,96.091644 
	C129.378006,95.353981 129.861115,94.760231 130.615784,94.060715 
	C142.940735,102.091553 150.313248,112.859871 149.999756,128.392120 
	C149.553162,128.879379 149.106781,128.923859 148.329071,128.901093 
z"/>
<path fill="#1E38FF" opacity="1.000000" stroke="none" 
	d="
M137.394302,128.905136 
	C138.015518,117.615768 131.707489,110.418213 123.200684,104.104538 
	C123.388069,103.023651 123.881104,102.098221 124.663071,101.032959 
	C126.989174,102.783127 129.003799,104.698166 131.067764,106.558464 
	C137.441864,112.303596 140.167389,119.724457 140.995636,128.431030 
	C139.928467,128.880722 138.859528,128.927979 137.394302,128.905136 
z"/>
<path fill="#00A8EF" opacity="1.000000" stroke="none" 
	d="
M197.067383,79.267242 
	C193.764297,75.352188 191.013504,70.964081 187.476425,67.344261 
	C181.850937,61.587181 175.699875,56.343815 169.774384,50.879589 
	C168.927750,50.098843 168.099518,49.298130 167.107330,48.199493 
	C166.986816,47.552471 167.147476,47.289425 168.014160,47.081047 
	C172.396637,49.705551 176.198837,52.352203 180.001038,54.998856 
	C180.001038,54.998856 180.000000,55.000000 180.066711,55.336182 
	C181.088531,56.115311 182.043655,56.558258 182.998764,57.001205 
	C182.998764,57.001202 183.000000,57.000000 183.044189,57.346642 
	C188.095963,64.477188 193.103531,71.261101 198.111099,78.045013 
	C197.829712,78.409637 197.548309,78.774254 197.067383,79.267242 
z"/>
<path fill="#0C7AFF" opacity="1.000000" stroke="none" 
	d="
M170.383942,113.916107 
	C168.799515,111.409706 167.238251,108.865929 166.220322,106.120674 
	C161.804764,94.212448 154.151657,84.977234 143.238159,78.006721 
	C143.372696,77.361595 143.858841,76.766594 144.616486,76.063477 
	C157.807480,84.684662 166.096298,96.750648 170.829620,111.814240 
	C170.955170,112.630043 170.806152,113.208023 170.383942,113.916107 
z"/>
<path fill="#00BD67" opacity="1.000000" stroke="none" 
	d="
M199.648376,6.940476 
	C209.879608,16.759655 219.810471,26.629385 229.894028,36.804337 
	C230.019196,37.455971 229.858841,37.722458 229.037445,37.830818 
	C226.672226,36.169113 224.835190,34.585606 222.998169,33.002098 
	C222.998169,33.002102 223.000000,33.000000 222.956390,32.658150 
	C219.966034,29.068472 217.177017,25.654819 214.007996,22.640730 
	C212.350418,21.064209 210.025192,20.189676 208.001511,18.998096 
	C208.001511,18.998093 208.000580,18.499321 207.845490,17.952703 
	C204.443527,14.234695 201.196655,11.063304 197.949799,7.891912 
	C198.415878,7.591615 198.881943,7.291321 199.648376,6.940476 
z"/>
<path fill="#00B2AF" opacity="1.000000" stroke="none" 
	d="
M205.993225,50.634693 
	C205.111496,50.600597 204.030716,50.403862 203.364059,49.770939 
	C196.291809,43.056492 189.285385,36.272694 182.104156,29.201374 
	C182.081924,28.331266 182.216354,27.767780 182.618713,27.080608 
	C187.026932,29.931784 191.677872,32.410583 195.174789,36.010406 
	C199.300018,40.257015 202.426804,45.473530 205.993225,50.634693 
z"/>
<path fill="#2328FF" opacity="1.000000" stroke="none" 
	d="
M120.606964,107.943176 
	C127.246712,113.250145 132.177597,119.423637 132.997223,128.444458 
	C131.929352,128.882309 130.860123,128.928955 129.395111,128.486206 
	C129.272720,119.720421 125.460480,114.110146 117.880646,110.958511 
	C118.673737,109.971138 119.466835,108.983765 120.606964,107.943176 
z"/>
<path fill="#00BF59" opacity="1.000000" stroke="none" 
	d="
M226.996338,26.004196 
	C225.402802,24.908792 223.681213,23.959404 222.237503,22.693190 
	C215.285294,16.595743 208.408035,10.412852 201.196838,4.105459 
	C201.390732,3.339748 201.891937,2.728865 202.671692,2.004990 
	C204.078323,2.901374 205.206390,3.910749 206.667847,4.959559 
	C207.001221,4.998996 207.500305,5.000069 207.796936,5.351765 
	C209.728836,6.802588 211.364105,7.901716 212.999374,9.000845 
	C213.123383,9.307436 213.316513,9.561465 213.832458,10.224345 
	C218.390350,14.790824 222.694565,18.895893 226.998779,23.000961 
	C226.998779,23.000961 227.000000,23.500025 227.000000,24.083725 
	C226.998779,25.113014 226.997559,25.558603 226.996338,26.004196 
z"/>
<path fill="#2521FF" opacity="1.000000" stroke="none" 
	d="
M117.608337,111.061996 
	C125.460480,114.110146 129.272720,119.720421 128.998932,128.415390 
	C128.244751,128.880936 127.490997,128.927917 126.364975,128.902832 
	C126.692932,121.300041 123.402863,116.188805 116.219177,113.096817 
	C116.376717,112.355530 116.856384,111.760513 117.608337,111.061996 
z"/>
<path fill="#00ADCE" opacity="1.000000" stroke="none" 
	d="
M181.998779,46.001373 
	C181.874710,45.694897 181.681656,45.440830 181.058640,44.828121 
	C179.464890,43.611687 178.232132,42.806313 176.999390,42.000938 
	C176.999390,42.000935 177.000000,42.000000 176.829712,41.696468 
	C175.663971,40.812199 174.668549,40.231457 173.673111,39.650719 
	C174.212509,38.508774 174.751923,37.366837 175.590027,36.089973 
	C179.551682,39.082867 183.214600,42.210690 186.520416,45.670006 
	C184.775116,46.001461 183.386948,46.001415 181.998779,46.001373 
z"/>
<path fill="#00B78F" opacity="1.000000" stroke="none" 
	d="
M189.616852,18.078512 
	C194.216904,21.750334 198.547470,25.544342 202.937332,29.670662 
	C199.461609,27.622450 195.913437,25.261097 192.399521,22.849813 
	C191.333130,22.118053 190.361404,21.248356 189.145630,20.168957 
	C189.079086,19.330954 189.213242,18.765825 189.616852,18.078512 
z"/>
<path fill="#00A9E9" opacity="1.000000" stroke="none" 
	d="
M179.957336,54.655869 
	C176.198837,52.352203 172.396637,49.705551 168.240234,47.007652 
	C168.374969,46.027401 168.863922,45.098392 169.651321,44.031933 
	C173.271057,47.367283 176.592346,50.840080 179.957336,54.655869 
z"/>
<path fill="#00BC6E" opacity="1.000000" stroke="none" 
	d="
M197.648773,8.026262 
	C201.196655,11.063304 204.443527,14.234695 207.844879,17.703318 
	C204.197830,15.686773 200.396271,13.372997 196.241180,11.008924 
	C196.374344,10.025955 196.861038,9.093283 197.648773,8.026262 
z"/>
<path fill="#00ACD5" opacity="1.000000" stroke="none" 
	d="
M173.675735,39.686161 
	C174.668549,40.231457 175.663971,40.812199 176.829407,41.696884 
	C175.977509,41.548828 174.955643,41.096825 173.779144,40.206413 
	C173.624512,39.768002 173.678360,39.721603 173.675735,39.686161 
z"/>
<path fill="#00BA7C" opacity="1.000000" stroke="none" 
	d="
M194.966949,14.692097 
	C194.533157,14.991349 194.063278,14.985921 193.241150,14.969629 
	C193.038651,14.376438 193.188354,13.794110 193.614868,13.084253 
	C194.238068,13.433621 194.584457,13.910519 194.966949,14.692097 
z"/>
<path fill="#00ADCE" opacity="1.000000" stroke="none" 
	d="
M187.997070,47.004719 
	C190.558105,48.821922 193.497208,50.285641 195.598282,52.532887 
	C199.487732,56.692944 202.886810,61.311474 206.797150,65.895996 
	C206.288086,67.309967 205.472015,68.566994 204.198181,69.658798 
	C198.492645,61.997288 193.244858,54.501003 187.997070,47.004719 
z"/>
<path fill="#00ACD5" opacity="1.000000" stroke="none" 
	d="
M187.878372,46.793720 
	C193.244858,54.501003 198.492645,61.997288 203.895538,69.799316 
	C203.604675,70.736771 203.158707,71.368492 202.380524,72.054085 
	C196.030045,64.569237 190.005127,57.035801 184.002411,49.484707 
	C183.300781,48.602093 182.721741,47.622017 182.042328,46.344246 
	C183.386948,46.001415 184.775116,46.001461 186.579498,46.002205 
	C187.303391,46.126335 187.558044,46.319611 187.878372,46.793720 
z"/>
<path fill="#00A9E9" opacity="1.000000" stroke="none" 
	d="
M198.383118,77.913330 
	C193.103531,71.261101 188.095963,64.477188 183.043579,57.347382 
	C186.121475,60.249939 189.420685,63.350220 192.311081,66.793663 
	C194.629471,69.555664 196.451920,72.733948 198.799927,75.888962 
	C198.955322,76.627502 198.805237,77.204582 198.383118,77.913330 
z"/>
<path fill="#00BF59" opacity="1.000000" stroke="none" 
	d="
M231.432770,34.023476 
	C229.743484,31.942942 228.378464,29.835182 227.381439,27.363605 
	C228.499405,27.000013 229.249405,27.000237 229.999390,27.000458 
	C230.580475,27.493191 231.161575,27.985924 231.881256,29.097549 
	C232.719940,30.491037 233.420029,31.265629 234.120132,32.040222 
	C233.332443,32.692226 232.544739,33.344234 231.432770,34.023476 
z"/>
<path fill="#00B2AF" opacity="1.000000" stroke="none" 
	d="
M211.906082,58.778397 
	C209.893845,56.575554 207.954239,54.153088 206.007324,51.365288 
	C207.914642,53.165436 209.829300,55.330910 211.897308,57.799061 
	C212.050690,58.101738 211.978714,58.558769 211.906082,58.778397 
z"/>
<path fill="#00BC6E" opacity="1.000000" stroke="none" 
	d="
M223.005844,33.368652 
	C224.835190,34.585606 226.672226,36.169113 228.808105,37.902832 
	C229.055405,38.400986 228.888550,38.679943 228.370377,38.969460 
	C226.427429,37.277733 224.720474,35.506470 223.005844,33.368652 
z"/>
<path fill="#00BA7C" opacity="1.000000" stroke="none" 
	d="
M224.326050,44.976334 
	C223.059372,43.627163 222.070633,42.147476 221.042175,40.332603 
	C222.250473,40.832470 223.498489,41.667519 224.897827,42.802933 
	C224.900757,43.684139 224.752380,44.264977 224.326050,44.976334 
z"/>
<path fill="#00C053" opacity="1.000000" stroke="none" 
	d="
M234.397491,31.915485 
	C233.420029,31.265629 232.719940,30.491037 232.009308,29.358685 
	C232.818893,29.322481 233.639008,29.644039 234.788330,30.005543 
	C234.969986,30.627239 234.822418,31.208992 234.397491,31.915485 
z"/>
<path fill="#00C053" opacity="1.000000" stroke="none" 
	d="
M226.955933,22.658329 
	C222.694565,18.895893 218.390350,14.790824 214.042755,10.343323 
	C218.303955,14.105824 222.608521,18.210758 226.955933,22.658329 
z"/>
<path fill="#00C053" opacity="1.000000" stroke="none" 
	d="
M212.846710,8.706501 
	C211.364105,7.901716 209.728836,6.802588 208.046478,5.352177 
	C209.564270,6.137981 211.129150,7.275070 212.846710,8.706501 
z"/>
<path fill="#00C053" opacity="1.000000" stroke="none" 
	d="
M229.956482,26.663986 
	C229.249405,27.000237 228.499405,27.000013 227.374405,27.000162 
	C226.999390,27.000534 226.997940,26.502312 226.997131,26.253254 
	C226.997559,25.558603 226.998779,25.113014 227.000610,24.333258 
	C227.972000,24.775232 228.942795,25.551373 229.956482,26.663986 
z"/>
<path fill="#00B78F" opacity="1.000000" stroke="none" 
	d="
M203.042145,30.349068 
	C207.985260,34.143745 214.161560,37.267189 215.230835,44.782509 
	C211.030670,40.231133 207.058884,35.462910 203.042145,30.349068 
z"/>
<path fill="#00BC6E" opacity="1.000000" stroke="none" 
	d="
M208.154205,19.293461 
	C210.025192,20.189676 212.350418,21.064209 214.007996,22.640730 
	C217.177017,25.654819 219.966034,29.068472 222.955139,32.659073 
	C218.100632,28.530838 213.203751,24.059832 208.154205,19.293461 
z"/>
<path fill="#00BA7C" opacity="1.000000" stroke="none" 
	d="
M220.957458,38.659214 
	C219.695938,37.893063 218.391281,36.786430 217.043915,35.339096 
	C218.305588,36.105175 219.609940,37.211956 220.957458,38.659214 
z"/>
<path fill="#00BA7C" opacity="1.000000" stroke="none" 
	d="
M202.949219,20.684704 
	C202.369812,20.540899 201.737549,20.083712 201.053192,19.312687 
	C201.632858,19.456341 202.264618,19.913830 202.949219,20.684704 
z"/>
<path fill="#00A9E9" opacity="1.000000" stroke="none" 
	d="
M182.849274,56.718636 
	C182.043655,56.558258 181.088531,56.115311 180.067322,55.335701 
	C180.900742,55.478046 181.800247,55.957058 182.849274,56.718636 
z"/>
<path fill="#00ACD5" opacity="1.000000" stroke="none" 
	d="
M177.048920,42.353111 
	C178.232132,42.806313 179.464890,43.611687 180.848511,44.708912 
	C179.699081,44.235603 178.398773,43.470448 177.048920,42.353111 
z"/>
</svg>