<svg version="1.1" id="Layer_1" xmlns="http://www.w3.org/2000/svg" xmlns:xlink="http://www.w3.org/1999/xlink" x="0px" y="0px"
	 width="100%" viewBox="0 0 225 225" enable-background="new 0 0 225 225" xml:space="preserve">
<path fill="#FEFFFF" opacity="1.000000" stroke="none" 
	d="
M148.000000,226.000000 
	C98.666672,226.000000 49.833340,226.000000 1.000006,226.000000 
	C1.000004,151.000000 1.000004,76.000015 1.000002,1.000017 
	C75.999992,1.000011 150.999985,1.000011 225.999969,1.000005 
	C225.999985,75.999985 225.999985,150.999969 226.000000,225.999969 
	C200.166672,226.000000 174.333328,226.000000 148.000000,226.000000 
M199.968506,98.269409 
	C195.478821,81.781586 184.102081,80.099258 172.515762,83.054916 
	C165.572495,84.826141 160.160400,92.919945 159.943420,100.631142 
	C159.802902,105.624489 159.922882,110.624908 159.909149,115.622108 
	C159.835068,142.566925 144.295166,160.167435 117.631676,162.313675 
	C94.104797,164.207428 73.754944,152.452133 69.745193,126.755630 
	C68.498604,118.766830 69.212814,110.485023 68.817024,102.347687 
	C68.074486,87.080917 56.090981,79.045120 41.800419,83.159798 
	C33.543686,85.537140 28.851814,92.154716 28.516954,100.695335 
	C28.152630,109.987495 27.984682,119.451202 29.289804,128.618210 
	C37.387787,185.497375 97.389618,218.720474 149.707092,194.850967 
	C180.119202,180.975647 196.838150,156.494324 200.007431,122.051857 
	C199.959671,114.376831 199.911896,106.701813 199.968506,98.269409 
M60.184940,60.886345 
	C61.702942,59.601421 63.374222,58.457932 64.712708,57.007362 
	C70.867462,50.337173 71.944138,39.975037 67.430183,31.982868 
	C63.111050,24.335630 53.806477,19.817490 45.503296,21.381439 
	C36.511101,23.075169 30.408100,28.244614 28.007336,37.074440 
	C25.601376,45.923374 28.160522,53.652023 35.298901,59.351082 
	C42.781883,65.325256 51.040134,65.767319 60.184940,60.886345 
M198.548859,53.866596 
	C204.356964,42.615383 201.641037,30.693851 191.863754,24.522371 
	C182.384323,18.538895 169.855408,20.743687 163.279251,29.552557 
	C156.087921,39.185467 157.935623,52.622944 167.431305,59.748352 
	C177.280396,67.138954 190.100067,64.947029 198.548859,53.866596 
z"/>
<path fill="#025857" opacity="1.000000" stroke="none" 
	d="
M199.845596,122.973640 
	C196.838150,156.494324 180.119202,180.975647 149.707092,194.850967 
	C97.389618,218.720474 37.387787,185.497375 29.289804,128.618210 
	C27.984682,119.451202 28.152630,109.987495 28.516954,100.695335 
	C28.851814,92.154716 33.543686,85.537140 41.800419,83.159798 
	C56.090981,79.045120 68.074486,87.080917 68.817024,102.347687 
	C69.212814,110.485023 68.498604,118.766830 69.745193,126.755630 
	C73.754944,152.452133 94.104797,164.207428 117.631676,162.313675 
	C144.295166,160.167435 159.835068,142.566925 159.909149,115.622108 
	C159.922882,110.624908 159.802902,105.624489 159.943420,100.631142 
	C160.160400,92.919945 165.572495,84.826141 172.515762,83.054916 
	C184.102081,80.099258 195.478821,81.781586 199.646835,98.960922 
	C199.498642,107.426170 199.672119,115.199905 199.845596,122.973640 
z"/>
<path fill="#2DD5C4" opacity="1.000000" stroke="none" 
	d="
M59.848022,61.053772 
	C51.040134,65.767319 42.781883,65.325256 35.298901,59.351082 
	C28.160522,53.652023 25.601376,45.923374 28.007336,37.074440 
	C30.408100,28.244614 36.511101,23.075169 45.503296,21.381439 
	C53.806477,19.817490 63.111050,24.335630 67.430183,31.982868 
	C71.944138,39.975037 70.867462,50.337173 64.712708,57.007362 
	C63.374222,58.457932 61.702942,59.601421 59.848022,61.053772 
z"/>
<path fill="#2DD5C4" opacity="1.000000" stroke="none" 
	d="
M198.352158,54.180832 
	C190.100067,64.947029 177.280396,67.138954 167.431305,59.748352 
	C157.935623,52.622944 156.087921,39.185467 163.279251,29.552557 
	C169.855408,20.743687 182.384323,18.538895 191.863754,24.522371 
	C201.641037,30.693851 204.356964,42.615383 198.352158,54.180832 
z"/>
<path fill="#004B4A" opacity="1.000000" stroke="none" 
	d="
M199.926514,122.512749 
	C199.672119,115.199905 199.498642,107.426170 199.594650,99.339615 
	C199.911896,106.701813 199.959671,114.376831 199.926514,122.512749 
z"/>
</svg>