<svg id="svg" version="1.1" xmlns="http://www.w3.org/2000/svg" xmlns:xlink="http://www.w3.org/1999/xlink" width="400" height="400" viewBox="0, 0, 400,400"><g id="svgg"><path id="path0" d="M53.000 72.767 C 51.679 73.054,51.382 75.373,52.494 76.713 C 53.120 77.467,55.469 83.754,56.348 87.029 C 56.707 88.364,57.329 89.955,57.732 90.563 C 58.134 91.171,58.735 92.584,59.068 93.703 C 59.400 94.822,59.930 96.133,60.246 96.615 C 60.562 97.097,61.165 98.735,61.587 100.254 C 62.008 101.774,62.811 104.003,63.372 105.209 C 63.933 106.414,64.394 107.780,64.396 108.244 C 64.398 108.708,64.917 110.058,65.548 111.244 C 66.180 112.430,66.832 114.030,66.998 114.800 C 67.163 115.570,67.708 117.013,68.209 118.007 C 68.709 119.000,69.334 120.620,69.598 121.607 C 69.861 122.593,70.486 124.300,70.985 125.400 C 71.485 126.500,72.100 128.366,72.353 129.546 C 72.605 130.727,73.152 132.171,73.568 132.755 C 73.984 133.340,74.630 134.894,75.003 136.209 C 75.377 137.524,75.937 139.004,76.249 139.498 C 76.825 140.410,78.986 146.530,80.351 151.113 C 80.763 152.495,81.376 153.935,81.714 154.313 C 82.052 154.691,82.635 156.080,83.009 157.400 C 83.384 158.720,84.015 160.340,84.412 161.000 C 84.808 161.660,85.426 163.338,85.785 164.728 C 86.143 166.118,86.878 168.222,87.418 169.402 C 87.958 170.583,88.400 171.893,88.400 172.315 C 88.400 172.736,88.845 173.918,89.389 174.941 C 89.933 175.964,90.676 177.836,91.040 179.100 C 91.404 180.365,92.018 182.030,92.405 182.800 C 93.396 184.770,96.267 192.474,96.605 194.070 C 96.760 194.801,97.224 196.030,97.636 196.800 C 98.398 198.227,99.736 201.664,101.406 206.490 C 101.918 207.970,102.801 210.341,103.369 211.759 C 103.936 213.176,104.401 214.666,104.401 215.068 C 104.402 215.471,105.032 217.050,105.801 218.577 C 106.571 220.104,107.201 221.634,107.201 221.977 C 107.202 222.320,107.560 223.185,107.996 223.900 C 108.432 224.616,108.999 226.056,109.257 227.100 C 109.514 228.145,110.242 230.141,110.874 231.536 C 111.507 232.931,112.216 235.001,112.452 236.136 C 112.687 237.271,113.152 238.630,113.485 239.156 C 113.819 239.681,114.590 241.571,115.200 243.356 C 116.888 248.300,118.342 252.084,119.009 253.271 C 119.340 253.860,119.956 255.721,120.377 257.408 C 120.798 259.094,121.413 260.773,121.742 261.137 C 122.071 261.502,122.556 262.700,122.819 263.800 C 123.083 264.900,123.657 266.430,124.094 267.199 C 124.890 268.599,126.467 272.909,128.127 278.225 C 128.613 279.779,129.306 281.503,129.669 282.056 C 130.031 282.609,130.596 283.965,130.924 285.068 C 131.251 286.171,131.879 287.778,132.318 288.639 C 132.757 289.500,133.333 291.013,133.597 292.002 C 133.861 292.991,134.515 294.763,135.051 295.940 C 135.587 297.117,136.219 299.007,136.456 300.140 C 136.693 301.273,137.228 302.761,137.643 303.447 C 138.059 304.132,138.834 305.932,139.365 307.447 C 142.142 315.361,143.511 319.087,143.932 319.874 C 144.190 320.354,144.400 321.081,144.400 321.489 C 144.400 321.897,144.779 322.944,145.243 323.815 C 146.119 325.462,147.684 329.500,149.581 335.010 C 150.999 339.127,151.807 340.668,152.836 341.219 C 153.427 341.535,165.680 341.654,195.699 341.633 C 242.278 341.601,239.251 341.784,239.781 338.959 C 239.935 338.141,240.587 336.485,241.230 335.280 C 241.874 334.074,242.400 332.690,242.400 332.203 C 242.400 331.717,242.840 330.492,243.377 329.481 C 243.915 328.470,244.716 326.474,245.157 325.046 C 245.598 323.617,246.313 321.754,246.746 320.906 C 247.179 320.057,247.658 318.651,247.811 317.781 C 247.964 316.912,248.451 315.570,248.893 314.800 C 249.335 314.030,249.963 312.500,250.287 311.400 C 250.611 310.300,251.200 308.860,251.596 308.200 C 251.992 307.540,252.697 305.596,253.163 303.879 C 253.628 302.162,254.265 300.362,254.578 299.879 C 254.892 299.396,255.362 298.100,255.624 297.000 C 255.885 295.900,256.504 294.280,256.999 293.400 C 257.494 292.520,258.204 290.740,258.577 289.444 C 258.950 288.148,259.494 286.708,259.786 286.244 C 260.079 285.780,260.622 284.328,260.994 283.017 C 261.366 281.706,262.080 279.816,262.581 278.817 C 263.081 277.818,263.618 276.280,263.773 275.400 C 263.929 274.520,264.474 273.170,264.984 272.400 C 265.495 271.630,266.135 270.010,266.405 268.800 C 266.676 267.590,267.225 266.056,267.625 265.391 C 268.025 264.727,268.738 262.776,269.210 261.057 C 269.681 259.338,270.390 257.362,270.784 256.666 C 271.179 255.970,271.714 254.516,271.973 253.435 C 272.232 252.354,272.777 251.047,273.183 250.530 C 273.590 250.014,274.142 248.648,274.410 247.495 C 274.678 246.343,275.223 244.860,275.620 244.200 C 276.017 243.540,276.694 241.728,277.125 240.174 C 277.555 238.620,278.267 236.640,278.705 235.774 C 279.144 234.909,279.634 233.570,279.796 232.800 C 279.957 232.030,280.512 230.590,281.028 229.600 C 281.545 228.610,282.321 226.720,282.753 225.400 C 284.044 221.452,285.822 216.680,286.478 215.400 C 286.816 214.740,287.316 213.210,287.590 212.000 C 287.863 210.790,288.510 209.170,289.027 208.400 C 289.544 207.630,290.173 206.010,290.424 204.800 C 290.674 203.590,291.139 202.189,291.457 201.688 C 292.066 200.726,294.278 194.788,295.662 190.400 C 296.113 188.970,296.740 187.510,297.054 187.155 C 297.368 186.800,297.972 185.297,298.395 183.816 C 298.819 182.335,299.361 180.888,299.600 180.600 C 299.839 180.312,300.375 178.887,300.791 177.433 C 301.206 175.979,301.833 174.215,302.184 173.513 C 302.534 172.810,303.098 171.148,303.438 169.818 C 303.778 168.488,304.490 166.764,305.021 165.988 C 305.553 165.211,306.167 163.628,306.387 162.471 C 306.606 161.314,307.216 159.610,307.743 158.684 C 308.270 157.758,308.915 156.100,309.176 155.000 C 309.438 153.900,309.927 152.576,310.263 152.057 C 310.600 151.538,311.226 149.846,311.655 148.297 C 312.085 146.748,312.777 145.046,313.195 144.516 C 313.612 143.985,314.162 142.527,314.418 141.276 C 314.673 140.024,315.223 138.370,315.640 137.600 C 316.343 136.304,316.747 135.207,319.177 128.000 C 319.659 126.570,320.560 124.320,321.178 123.000 C 322.282 120.644,322.549 119.937,324.833 113.311 C 325.457 111.502,326.228 109.612,326.547 109.111 C 326.866 108.610,327.415 107.057,327.765 105.661 C 328.116 104.264,328.752 102.678,329.178 102.137 C 329.605 101.595,330.162 100.127,330.417 98.876 C 330.672 97.624,331.201 96.060,331.591 95.400 C 331.982 94.740,332.618 93.210,333.006 92.000 C 333.393 90.790,334.021 89.170,334.401 88.400 C 334.781 87.630,335.317 86.010,335.594 84.800 C 335.870 83.590,336.593 81.700,337.200 80.600 C 337.808 79.500,338.431 77.886,338.587 77.014 C 338.742 76.141,339.119 74.943,339.426 74.350 C 340.433 72.403,340.371 72.400,301.440 72.402 C 259.867 72.405,262.763 72.149,261.781 75.907 C 261.394 77.388,260.760 79.140,260.372 79.800 C 259.984 80.460,259.368 82.159,259.003 83.576 C 258.638 84.993,258.019 86.793,257.629 87.576 C 257.239 88.359,256.611 90.260,256.234 91.800 C 255.858 93.340,255.302 94.982,254.999 95.449 C 254.696 95.916,254.154 97.435,253.794 98.825 C 253.433 100.215,252.819 101.993,252.429 102.776 C 252.039 103.559,251.409 105.460,251.030 107.000 C 250.651 108.540,249.994 110.362,249.570 111.048 C 249.146 111.734,248.616 113.262,248.392 114.443 C 248.168 115.623,247.562 117.402,247.044 118.395 C 246.527 119.388,245.805 121.520,245.440 123.133 C 245.074 124.746,244.524 126.456,244.217 126.933 C 243.910 127.410,243.360 128.970,242.996 130.400 C 242.631 131.830,242.105 133.270,241.827 133.600 C 241.171 134.379,240.829 135.355,240.370 137.766 C 240.164 138.847,239.566 140.647,239.041 141.766 C 238.516 142.885,237.874 144.880,237.614 146.200 C 237.355 147.520,236.819 149.056,236.423 149.614 C 236.027 150.172,235.493 151.612,235.235 152.814 C 234.978 154.016,234.250 156.080,233.619 157.400 C 232.987 158.720,232.345 160.764,232.192 161.942 C 232.039 163.120,231.393 165.073,230.757 166.282 C 230.121 167.492,229.600 168.693,229.600 168.952 C 229.600 169.810,226.078 180.308,225.470 181.263 C 225.142 181.778,224.657 183.280,224.394 184.600 C 224.130 185.920,223.492 187.900,222.976 189.000 C 222.459 190.100,221.784 192.085,221.475 193.411 C 221.165 194.737,220.635 196.360,220.295 197.016 C 219.955 197.673,219.370 199.288,218.994 200.605 C 218.618 201.922,217.972 203.559,217.558 204.242 C 217.145 204.925,216.516 206.905,216.161 208.642 C 215.806 210.379,215.271 212.077,214.971 212.416 C 214.672 212.755,214.139 214.285,213.787 215.816 C 213.435 217.347,212.910 218.965,212.622 219.412 C 212.333 219.859,211.721 221.593,211.262 223.265 C 210.803 224.938,210.069 226.915,209.630 227.659 C 209.191 228.403,208.625 229.999,208.372 231.206 C 208.119 232.413,207.576 234.030,207.166 234.800 C 206.756 235.570,206.146 237.424,205.811 238.919 C 205.477 240.414,204.863 242.394,204.448 243.319 C 204.034 244.244,203.389 246.080,203.016 247.400 C 202.643 248.720,202.058 250.235,201.716 250.767 C 201.374 251.298,200.687 253.278,200.189 255.167 C 199.176 259.012,196.953 265.198,196.376 265.781 C 195.208 266.959,192.292 262.414,191.768 258.600 C 191.617 257.500,191.081 255.777,190.576 254.771 C 190.072 253.766,189.371 251.786,189.019 250.371 C 188.667 248.957,188.024 247.061,187.590 246.157 C 187.156 245.254,186.633 243.631,186.429 242.551 C 186.224 241.472,185.504 239.538,184.828 238.254 C 184.091 236.852,183.600 235.319,183.600 234.419 C 183.600 233.592,183.156 232.085,182.611 231.058 C 182.067 230.035,181.333 228.073,180.981 226.699 C 180.629 225.325,180.090 223.809,179.782 223.332 C 179.475 222.854,178.827 220.874,178.342 218.932 C 177.858 216.989,177.143 214.950,176.753 214.400 C 176.364 213.850,175.858 212.345,175.628 211.056 C 175.399 209.767,174.867 208.147,174.446 207.456 C 174.025 206.765,173.464 205.120,173.198 203.800 C 172.932 202.480,172.284 200.485,171.759 199.366 C 171.234 198.247,170.621 196.357,170.398 195.166 C 170.174 193.975,169.633 192.512,169.196 191.917 C 168.758 191.321,168.041 189.290,167.601 187.403 C 167.161 185.517,166.527 183.555,166.191 183.043 C 165.856 182.531,165.341 180.960,165.046 179.552 C 164.751 178.143,164.057 176.093,163.503 174.995 C 162.950 173.898,162.366 172.190,162.206 171.200 C 162.046 170.210,161.549 168.797,161.101 168.060 C 160.652 167.323,160.038 165.539,159.735 164.095 C 159.433 162.652,158.842 160.915,158.422 160.235 C 158.002 159.556,157.349 157.740,156.970 156.200 C 156.591 154.660,155.968 152.770,155.586 152.000 C 155.205 151.230,154.594 149.432,154.230 148.005 C 153.866 146.578,153.314 145.023,153.003 144.548 C 152.692 144.073,152.159 142.485,151.819 141.018 C 151.478 139.551,150.766 137.417,150.235 136.275 C 149.704 135.134,149.061 133.120,148.806 131.800 C 148.551 130.480,148.008 128.930,147.600 128.355 C 147.191 127.780,146.733 126.610,146.581 125.755 C 146.429 124.900,145.804 123.030,145.192 121.600 C 144.580 120.170,143.864 117.920,143.599 116.600 C 143.335 115.280,142.791 113.660,142.390 113.000 C 141.989 112.340,141.379 110.581,141.035 109.092 C 140.690 107.602,140.149 105.982,139.832 105.492 C 139.516 105.001,138.882 103.082,138.424 101.226 C 137.966 99.371,137.348 97.571,137.052 97.226 C 136.350 96.410,135.601 94.157,135.595 92.840 C 135.593 92.268,135.132 90.999,134.573 90.020 C 134.013 89.041,133.303 87.038,132.994 85.570 C 132.685 84.101,132.083 82.293,131.655 81.550 C 131.228 80.808,130.676 79.223,130.428 78.030 C 129.929 75.621,128.723 73.401,127.582 72.790 C 126.749 72.345,55.046 72.322,53.000 72.767 " stroke="none" fill="#060606" fill-rule="evenodd"></path><path id="path1" d="M51.191 72.409 C 50.165 73.435,50.413 75.184,52.016 78.230 C 52.621 79.381,53.245 81.081,53.401 82.007 C 53.558 82.933,54.092 84.289,54.588 85.020 C 55.084 85.752,55.609 87.242,55.753 88.331 C 55.898 89.421,56.345 90.737,56.748 91.256 C 57.151 91.775,57.876 93.435,58.359 94.944 C 58.843 96.453,59.489 98.073,59.794 98.544 C 60.100 99.015,60.662 100.660,61.044 102.200 C 61.425 103.740,62.075 105.460,62.486 106.021 C 62.898 106.583,63.503 108.197,63.832 109.607 C 64.161 111.017,64.678 112.447,64.979 112.785 C 65.281 113.123,65.832 114.452,66.203 115.737 C 66.575 117.023,67.300 119.003,67.815 120.137 C 68.330 121.272,68.970 123.100,69.237 124.200 C 69.503 125.300,70.056 126.680,70.465 127.268 C 70.874 127.855,71.389 129.295,71.609 130.468 C 71.829 131.640,72.370 133.092,72.811 133.692 C 73.252 134.293,73.902 135.913,74.255 137.292 C 74.608 138.672,75.319 140.610,75.834 141.600 C 76.350 142.590,76.981 144.390,77.236 145.600 C 77.492 146.810,78.031 148.268,78.435 148.841 C 78.839 149.413,79.367 150.763,79.608 151.841 C 79.848 152.918,80.463 154.520,80.974 155.400 C 81.485 156.280,82.031 157.630,82.188 158.400 C 82.344 159.170,82.996 160.894,83.636 162.230 C 84.275 163.567,85.005 165.727,85.257 167.030 C 85.508 168.334,86.059 169.783,86.481 170.251 C 86.903 170.720,87.514 172.243,87.839 173.637 C 88.165 175.031,88.688 176.455,89.002 176.803 C 89.317 177.150,89.859 178.547,90.208 179.907 C 90.556 181.267,91.350 183.510,91.973 184.890 C 92.595 186.271,93.234 188.004,93.393 188.743 C 93.552 189.482,94.092 190.690,94.594 191.429 C 95.095 192.167,95.630 193.633,95.784 194.686 C 95.937 195.739,96.476 197.320,96.981 198.200 C 97.486 199.080,98.209 200.880,98.587 202.200 C 98.966 203.520,99.441 204.801,99.643 205.047 C 99.845 205.294,100.437 206.919,100.958 208.660 C 101.479 210.401,102.286 212.450,102.751 213.213 C 103.216 213.976,103.598 215.064,103.599 215.632 C 103.599 216.200,104.049 217.550,104.599 218.632 C 105.148 219.714,105.893 221.500,106.254 222.600 C 106.614 223.700,107.236 225.251,107.636 226.046 C 108.035 226.842,108.573 228.372,108.832 229.446 C 109.090 230.521,109.797 232.396,110.401 233.614 C 111.006 234.832,111.632 236.605,111.792 237.553 C 111.952 238.501,112.605 240.268,113.242 241.479 C 113.879 242.690,114.400 244.082,114.400 244.573 C 114.400 245.063,114.854 246.350,115.408 247.432 C 115.962 248.514,116.705 250.390,117.058 251.600 C 117.412 252.810,118.109 254.520,118.607 255.400 C 119.106 256.280,119.632 257.842,119.777 258.872 C 119.922 259.901,120.391 261.189,120.819 261.733 C 121.246 262.277,121.885 263.864,122.238 265.261 C 122.592 266.657,123.209 268.340,123.611 269.000 C 124.013 269.660,124.711 271.531,125.162 273.158 C 125.612 274.785,126.249 276.412,126.577 276.774 C 126.905 277.136,127.381 278.415,127.635 279.616 C 127.890 280.817,128.511 282.520,129.016 283.400 C 129.521 284.280,130.148 285.809,130.409 286.798 C 130.670 287.787,131.219 289.253,131.629 290.057 C 132.039 290.861,132.736 292.823,133.178 294.417 C 133.620 296.012,134.268 297.633,134.618 298.020 C 134.968 298.406,135.505 299.923,135.812 301.390 C 136.119 302.857,136.717 304.629,137.140 305.329 C 137.564 306.028,138.194 307.590,138.542 308.800 C 138.889 310.010,139.532 311.698,139.969 312.550 C 140.407 313.403,140.985 315.113,141.254 316.350 C 141.523 317.588,142.161 319.109,142.672 319.731 C 143.182 320.353,143.600 321.271,143.600 321.771 C 143.600 322.936,144.367 325.226,145.017 326.000 C 145.294 326.330,145.916 327.938,146.399 329.573 C 146.882 331.208,147.514 332.918,147.803 333.373 C 148.091 333.828,148.642 335.370,149.027 336.800 C 150.930 343.882,146.261 343.238,195.591 343.224 C 242.997 343.211,239.181 343.522,240.599 339.554 C 241.040 338.322,241.612 337.061,241.870 336.751 C 242.129 336.442,242.562 335.292,242.832 334.195 C 243.103 333.098,243.836 331.230,244.462 330.044 C 245.088 328.858,245.604 327.598,245.609 327.244 C 245.614 326.890,245.992 325.790,246.449 324.800 C 246.906 323.810,247.723 321.492,248.264 319.648 C 248.806 317.805,249.509 315.901,249.826 315.417 C 250.143 314.932,250.690 313.561,251.040 312.368 C 251.391 311.176,251.935 309.911,252.248 309.558 C 252.562 309.205,253.181 307.608,253.624 306.010 C 254.067 304.411,254.693 302.594,255.015 301.971 C 255.337 301.349,255.853 299.754,256.163 298.427 C 256.472 297.100,257.107 295.397,257.574 294.642 C 258.041 293.887,258.697 292.345,259.032 291.216 C 259.367 290.087,260.082 288.335,260.621 287.322 C 261.159 286.310,261.600 285.223,261.600 284.907 C 261.600 284.592,262.132 283.123,262.781 281.642 C 263.431 280.162,264.161 278.062,264.404 276.975 C 264.646 275.889,265.190 274.412,265.613 273.692 C 266.036 272.973,266.675 271.353,267.032 270.092 C 267.390 268.832,267.939 267.393,268.253 266.896 C 268.567 266.399,269.796 263.055,270.984 259.466 C 272.172 255.877,273.503 252.323,273.940 251.570 C 274.378 250.816,274.947 249.390,275.204 248.400 C 275.462 247.410,276.007 246.054,276.415 245.387 C 276.824 244.720,277.355 243.280,277.597 242.187 C 277.838 241.094,278.454 239.390,278.966 238.400 C 279.478 237.410,280.105 235.623,280.359 234.430 C 280.614 233.236,281.182 231.676,281.622 230.964 C 282.062 230.252,282.703 228.708,283.045 227.534 C 283.388 226.361,283.910 225.020,284.207 224.556 C 284.503 224.092,285.051 222.652,285.426 221.356 C 285.800 220.060,286.518 218.190,287.020 217.200 C 287.522 216.210,288.057 214.590,288.208 213.600 C 288.359 212.610,288.981 210.900,289.589 209.800 C 290.197 208.700,290.912 206.900,291.177 205.800 C 291.443 204.700,291.985 203.260,292.381 202.600 C 292.777 201.940,293.421 200.410,293.812 199.200 C 294.203 197.990,294.748 196.640,295.024 196.200 C 295.299 195.760,295.747 194.320,296.020 193.000 C 296.292 191.680,296.951 189.828,297.484 188.884 C 298.017 187.940,298.728 186.230,299.065 185.084 C 299.401 183.938,299.995 182.460,300.384 181.800 C 300.774 181.140,301.305 179.721,301.566 178.646 C 301.826 177.572,302.403 175.978,302.849 175.104 C 303.295 174.230,303.891 172.409,304.174 171.058 C 304.457 169.706,305.135 167.941,305.682 167.136 C 306.228 166.331,306.908 164.578,307.191 163.240 C 307.475 161.903,307.952 160.606,308.251 160.358 C 308.549 160.110,309.153 158.713,309.592 157.254 C 310.031 155.794,310.842 153.714,311.395 152.632 C 311.948 151.550,312.400 150.180,312.400 149.589 C 312.400 148.997,312.912 147.542,313.538 146.356 C 314.164 145.170,314.897 143.300,315.168 142.200 C 315.439 141.100,315.991 139.660,316.395 139.000 C 316.799 138.340,317.441 136.720,317.822 135.400 C 318.202 134.080,318.751 132.638,319.041 132.195 C 319.330 131.752,319.856 130.144,320.210 128.620 C 320.563 127.097,321.181 125.388,321.584 124.823 C 322.278 123.848,323.495 120.729,325.260 115.400 C 325.697 114.080,326.489 112.169,327.020 111.154 C 327.551 110.139,328.191 108.339,328.442 107.154 C 328.693 105.969,329.314 104.280,329.823 103.400 C 330.331 102.520,330.970 100.900,331.243 99.800 C 331.515 98.700,332.157 97.008,332.669 96.040 C 333.181 95.073,333.600 93.974,333.600 93.600 C 333.600 93.226,334.050 92.073,334.600 91.038 C 335.150 90.004,335.893 87.862,336.250 86.279 C 336.608 84.695,337.221 82.946,337.613 82.391 C 338.004 81.836,338.635 80.306,339.014 78.991 C 339.394 77.676,340.086 75.929,340.552 75.109 C 341.566 73.327,341.202 72.407,339.288 71.911 C 336.138 71.095,262.870 71.749,262.083 72.600 C 261.274 73.475,259.126 79.028,258.370 82.200 C 258.107 83.300,257.569 84.742,257.173 85.404 C 256.777 86.067,256.152 87.957,255.783 89.604 C 255.414 91.252,254.787 93.140,254.390 93.800 C 253.992 94.460,253.368 96.159,253.003 97.576 C 252.638 98.993,252.013 100.793,251.616 101.576 C 251.218 102.359,250.685 104.005,250.432 105.233 C 250.178 106.461,249.613 108.133,249.176 108.949 C 248.739 109.765,248.101 111.640,247.760 113.116 C 247.418 114.592,246.807 116.340,246.403 117.000 C 245.998 117.660,245.367 119.362,245.001 120.782 C 244.635 122.203,244.087 123.845,243.783 124.433 C 243.479 125.021,242.867 126.858,242.423 128.515 C 241.979 130.172,241.265 132.130,240.838 132.864 C 240.411 133.599,239.870 135.255,239.636 136.544 C 239.402 137.833,238.868 139.453,238.449 140.144 C 238.029 140.835,237.319 142.840,236.871 144.600 C 236.422 146.360,235.683 148.513,235.228 149.385 C 234.772 150.256,234.400 151.429,234.400 151.991 C 234.400 152.552,233.875 154.089,233.234 155.406 C 232.593 156.723,231.858 158.963,231.601 160.385 C 231.344 161.807,230.712 163.697,230.197 164.585 C 229.681 165.473,229.136 166.920,228.986 167.800 C 228.835 168.680,228.371 169.996,227.955 170.724 C 227.539 171.452,226.911 173.342,226.560 174.924 C 226.209 176.506,225.561 178.426,225.120 179.192 C 224.679 179.957,224.056 181.844,223.735 183.384 C 223.413 184.925,222.817 186.729,222.409 187.393 C 222.001 188.057,221.367 189.762,221.001 191.182 C 220.635 192.603,220.095 194.230,219.800 194.800 C 219.505 195.370,218.967 196.997,218.603 198.418 C 218.239 199.838,217.591 201.601,217.163 202.336 C 216.735 203.070,216.021 205.028,215.577 206.685 C 215.133 208.342,214.517 210.186,214.209 210.782 C 213.901 211.379,213.376 213.043,213.042 214.480 C 212.709 215.917,212.086 217.702,211.657 218.446 C 211.229 219.191,210.674 220.790,210.425 222.000 C 210.176 223.210,209.556 225.010,209.048 226.000 C 208.540 226.990,207.821 229.030,207.449 230.534 C 207.078 232.038,206.496 233.692,206.157 234.209 C 205.818 234.727,205.297 236.313,205.000 237.733 C 204.703 239.153,204.108 241.009,203.679 241.858 C 203.250 242.706,202.690 244.386,202.434 245.591 C 202.178 246.796,201.550 248.506,201.037 249.391 C 200.524 250.276,199.905 252.151,199.662 253.558 C 199.419 254.964,198.965 256.404,198.653 256.758 C 198.341 257.111,197.712 258.736,197.254 260.369 C 196.181 264.201,196.000 264.331,194.437 262.387 C 193.415 261.115,192.967 259.969,192.389 257.147 C 191.982 255.160,191.361 253.095,191.010 252.559 C 190.658 252.022,190.032 250.228,189.618 248.571 C 189.204 246.914,188.605 245.161,188.286 244.676 C 187.968 244.190,187.496 242.808,187.238 241.605 C 186.981 240.402,186.349 238.694,185.836 237.809 C 185.322 236.924,184.616 234.782,184.266 233.048 C 183.917 231.315,183.368 229.605,183.047 229.248 C 182.726 228.892,182.078 227.083,181.605 225.228 C 181.133 223.374,180.515 221.394,180.232 220.828 C 179.949 220.263,179.409 218.540,179.031 217.000 C 178.654 215.460,178.008 213.840,177.597 213.400 C 177.177 212.950,176.676 211.523,176.453 210.140 C 176.236 208.788,175.683 206.946,175.225 206.049 C 174.767 205.151,174.114 203.216,173.773 201.748 C 173.433 200.280,172.820 198.423,172.411 197.621 C 172.002 196.819,171.537 195.451,171.379 194.581 C 171.220 193.712,170.598 192.010,169.995 190.800 C 169.393 189.590,168.596 187.252,168.224 185.604 C 167.851 183.957,167.214 182.067,166.808 181.404 C 166.402 180.742,165.875 179.136,165.636 177.836 C 165.398 176.536,164.836 174.850,164.387 174.089 C 163.939 173.328,163.375 171.782,163.136 170.653 C 162.896 169.524,162.265 167.735,161.733 166.679 C 161.200 165.622,160.576 163.738,160.346 162.491 C 160.116 161.245,159.556 159.500,159.103 158.613 C 158.649 157.726,157.953 155.703,157.556 154.117 C 157.159 152.532,156.491 150.552,156.071 149.717 C 155.651 148.883,155.179 147.490,155.021 146.622 C 154.864 145.754,154.322 144.224,153.817 143.222 C 153.312 142.220,152.696 140.442,152.448 139.271 C 152.199 138.100,151.560 136.210,151.027 135.071 C 150.495 133.932,149.866 131.935,149.631 130.633 C 149.395 129.331,148.950 127.981,148.642 127.633 C 148.334 127.285,147.787 125.830,147.426 124.400 C 147.065 122.970,146.399 121.031,145.945 120.092 C 145.492 119.152,144.775 117.000,144.352 115.309 C 143.930 113.619,143.316 111.826,142.988 111.326 C 142.660 110.826,142.114 109.215,141.773 107.748 C 141.433 106.280,140.804 104.392,140.376 103.553 C 139.948 102.713,139.400 101.075,139.159 99.913 C 138.918 98.751,138.283 97.039,137.748 96.108 C 137.213 95.178,136.584 93.381,136.351 92.116 C 136.117 90.850,135.506 89.092,134.993 88.207 C 134.481 87.323,133.867 85.529,133.630 84.220 C 133.392 82.911,132.856 81.185,132.438 80.383 C 132.020 79.582,131.384 77.773,131.025 76.363 C 130.632 74.825,129.973 73.400,129.377 72.800 L 128.382 71.800 90.197 71.694 C 52.147 71.589,52.009 71.591,51.191 72.409 M127.582 72.790 C 128.723 73.401,129.929 75.621,130.428 78.030 C 130.676 79.223,131.228 80.808,131.655 81.550 C 132.083 82.293,132.685 84.101,132.994 85.570 C 133.303 87.038,134.013 89.041,134.573 90.020 C 135.132 90.999,135.593 92.268,135.595 92.840 C 135.601 94.157,136.350 96.410,137.052 97.226 C 137.348 97.571,137.966 99.371,138.424 101.226 C 138.882 103.082,139.516 105.001,139.832 105.492 C 140.149 105.982,140.690 107.602,141.035 109.092 C 141.379 110.581,141.989 112.340,142.390 113.000 C 142.791 113.660,143.335 115.280,143.599 116.600 C 143.864 117.920,144.580 120.170,145.192 121.600 C 145.804 123.030,146.429 124.900,146.581 125.755 C 146.733 126.610,147.191 127.780,147.600 128.355 C 148.008 128.930,148.551 130.480,148.806 131.800 C 149.061 133.120,149.704 135.134,150.235 136.275 C 150.766 137.417,151.478 139.551,151.819 141.018 C 152.159 142.485,152.692 144.073,153.003 144.548 C 153.314 145.023,153.866 146.578,154.230 148.005 C 154.594 149.432,155.205 151.230,155.586 152.000 C 155.968 152.770,156.591 154.660,156.970 156.200 C 157.349 157.740,158.002 159.556,158.422 160.235 C 158.842 160.915,159.433 162.652,159.735 164.095 C 160.038 165.539,160.652 167.323,161.101 168.060 C 161.549 168.797,162.046 170.210,162.206 171.200 C 162.366 172.190,162.950 173.898,163.503 174.995 C 164.057 176.093,164.751 178.143,165.046 179.552 C 165.341 180.960,165.856 182.531,166.191 183.043 C 166.527 183.555,167.161 185.517,167.601 187.403 C 168.041 189.290,168.758 191.321,169.196 191.917 C 169.633 192.512,170.174 193.975,170.398 195.166 C 170.621 196.357,171.234 198.247,171.759 199.366 C 172.284 200.485,172.932 202.480,173.198 203.800 C 173.464 205.120,174.025 206.765,174.446 207.456 C 174.867 208.147,175.399 209.767,175.628 211.056 C 175.858 212.345,176.364 213.850,176.753 214.400 C 177.143 214.950,177.858 216.989,178.342 218.932 C 178.827 220.874,179.475 222.854,179.782 223.332 C 180.090 223.809,180.629 225.325,180.981 226.699 C 181.333 228.073,182.067 230.035,182.611 231.058 C 183.156 232.085,183.600 233.592,183.600 234.419 C 183.600 235.319,184.091 236.852,184.828 238.254 C 185.504 239.538,186.224 241.472,186.429 242.551 C 186.633 243.631,187.156 245.254,187.590 246.157 C 188.024 247.061,188.667 248.957,189.019 250.371 C 189.371 251.786,190.072 253.766,190.576 254.771 C 191.081 255.777,191.617 257.500,191.768 258.600 C 192.292 262.414,195.208 266.959,196.376 265.781 C 196.953 265.198,199.176 259.012,200.189 255.167 C 200.687 253.278,201.374 251.298,201.716 250.767 C 202.058 250.235,202.643 248.720,203.016 247.400 C 203.389 246.080,204.034 244.244,204.448 243.319 C 204.863 242.394,205.477 240.414,205.811 238.919 C 206.146 237.424,206.756 235.570,207.166 234.800 C 207.576 234.030,208.119 232.413,208.372 231.206 C 208.625 229.999,209.191 228.403,209.630 227.659 C 210.069 226.915,210.803 224.938,211.262 223.265 C 211.721 221.593,212.333 219.859,212.622 219.412 C 212.910 218.965,213.435 217.347,213.787 215.816 C 214.139 214.285,214.672 212.755,214.971 212.416 C 215.271 212.077,215.806 210.379,216.161 208.642 C 216.516 206.905,217.145 204.925,217.558 204.242 C 217.972 203.559,218.618 201.922,218.994 200.605 C 219.370 199.288,219.955 197.673,220.295 197.016 C 220.635 196.360,221.165 194.737,221.475 193.411 C 221.784 192.085,222.459 190.100,222.976 189.000 C 223.492 187.900,224.130 185.920,224.394 184.600 C 224.657 183.280,225.142 181.778,225.470 181.263 C 226.078 180.308,229.600 169.810,229.600 168.952 C 229.600 168.693,230.121 167.492,230.757 166.282 C 231.393 165.073,232.039 163.120,232.192 161.942 C 232.345 160.764,232.987 158.720,233.619 157.400 C 234.250 156.080,234.978 154.016,235.235 152.814 C 235.493 151.612,236.027 150.172,236.423 149.614 C 236.819 149.056,237.355 147.520,237.614 146.200 C 237.874 144.880,238.516 142.885,239.041 141.766 C 239.566 140.647,240.164 138.847,240.370 137.766 C 240.829 135.355,241.171 134.379,241.827 133.600 C 242.105 133.270,242.631 131.830,242.996 130.400 C 243.360 128.970,243.910 127.410,244.217 126.933 C 244.524 126.456,245.074 124.746,245.440 123.133 C 245.805 121.520,246.527 119.388,247.044 118.395 C 247.562 117.402,248.168 115.623,248.392 114.443 C 248.616 113.262,249.146 111.734,249.570 111.048 C 249.994 110.362,250.651 108.540,251.030 107.000 C 251.409 105.460,252.039 103.559,252.429 102.776 C 252.819 101.993,253.433 100.215,253.794 98.825 C 254.154 97.435,254.696 95.916,254.999 95.449 C 255.302 94.982,255.858 93.340,256.234 91.800 C 256.611 90.260,257.239 88.359,257.629 87.576 C 258.019 86.793,258.638 84.993,259.003 83.576 C 259.368 82.159,259.984 80.460,260.372 79.800 C 260.760 79.140,261.394 77.388,261.781 75.907 C 262.763 72.149,259.867 72.405,301.440 72.402 C 340.371 72.400,340.433 72.403,339.426 74.350 C 339.119 74.943,338.742 76.141,338.587 77.014 C 338.431 77.886,337.808 79.500,337.200 80.600 C 336.593 81.700,335.870 83.590,335.594 84.800 C 335.317 86.010,334.781 87.630,334.401 88.400 C 334.021 89.170,333.393 90.790,333.006 92.000 C 332.618 93.210,331.982 94.740,331.591 95.400 C 331.201 96.060,330.672 97.624,330.417 98.876 C 330.162 100.127,329.605 101.595,329.178 102.137 C 328.752 102.678,328.116 104.264,327.765 105.661 C 327.415 107.057,326.866 108.610,326.547 109.111 C 326.228 109.612,325.457 111.502,324.833 113.311 C 322.549 119.937,322.282 120.644,321.178 123.000 C 320.560 124.320,319.659 126.570,319.177 128.000 C 316.747 135.207,316.343 136.304,315.640 137.600 C 315.223 138.370,314.673 140.024,314.418 141.276 C 314.162 142.527,313.612 143.985,313.195 144.516 C 312.777 145.046,312.085 146.748,311.655 148.297 C 311.226 149.846,310.600 151.538,310.263 152.057 C 309.927 152.576,309.438 153.900,309.176 155.000 C 308.915 156.100,308.270 157.758,307.743 158.684 C 307.216 159.610,306.606 161.314,306.387 162.471 C 306.167 163.628,305.553 165.211,305.021 165.988 C 304.490 166.764,303.778 168.488,303.438 169.818 C 303.098 171.148,302.534 172.810,302.184 173.513 C 301.833 174.215,301.206 175.979,300.791 177.433 C 300.375 178.887,299.839 180.312,299.600 180.600 C 299.361 180.888,298.819 182.335,298.395 183.816 C 297.972 185.297,297.368 186.800,297.054 187.155 C 296.740 187.510,296.113 188.970,295.662 190.400 C 294.278 194.788,292.066 200.726,291.457 201.688 C 291.139 202.189,290.674 203.590,290.424 204.800 C 290.173 206.010,289.544 207.630,289.027 208.400 C 288.510 209.170,287.863 210.790,287.590 212.000 C 287.316 213.210,286.816 214.740,286.478 215.400 C 285.822 216.680,284.044 221.452,282.753 225.400 C 282.321 226.720,281.545 228.610,281.028 229.600 C 280.512 230.590,279.957 232.030,279.796 232.800 C 279.634 233.570,279.144 234.909,278.705 235.774 C 278.267 236.640,277.555 238.620,277.125 240.174 C 276.694 241.728,276.017 243.540,275.620 244.200 C 275.223 244.860,274.678 246.343,274.410 247.495 C 274.142 248.648,273.590 250.014,273.183 250.530 C 272.777 251.047,272.232 252.354,271.973 253.435 C 271.714 254.516,271.179 255.970,270.784 256.666 C 270.390 257.362,269.681 259.338,269.210 261.057 C 268.738 262.776,268.025 264.727,267.625 265.391 C 267.225 266.056,266.676 267.590,266.405 268.800 C 266.135 270.010,265.495 271.630,264.984 272.400 C 264.474 273.170,263.929 274.520,263.773 275.400 C 263.618 276.280,263.081 277.818,262.581 278.817 C 262.080 279.816,261.366 281.706,260.994 283.017 C 260.622 284.328,260.079 285.780,259.786 286.244 C 259.494 286.708,258.950 288.148,258.577 289.444 C 258.204 290.740,257.494 292.520,256.999 293.400 C 256.504 294.280,255.885 295.900,255.624 297.000 C 255.362 298.100,254.892 299.396,254.578 299.879 C 254.265 300.362,253.628 302.162,253.163 303.879 C 252.697 305.596,251.992 307.540,251.596 308.200 C 251.200 308.860,250.611 310.300,250.287 311.400 C 249.963 312.500,249.335 314.030,248.893 314.800 C 248.451 315.570,247.964 316.912,247.811 317.781 C 247.658 318.651,247.179 320.057,246.746 320.906 C 246.313 321.754,245.598 323.617,245.157 325.046 C 244.716 326.474,243.915 328.470,243.377 329.481 C 242.840 330.492,242.400 331.717,242.400 332.203 C 242.400 332.690,241.874 334.074,241.230 335.280 C 240.587 336.485,239.935 338.141,239.781 338.959 C 239.251 341.784,242.278 341.601,195.699 341.633 C 165.680 341.654,153.427 341.535,152.836 341.219 C 151.807 340.668,150.999 339.127,149.581 335.010 C 147.684 329.500,146.119 325.462,145.243 323.815 C 144.779 322.944,144.400 321.897,144.400 321.489 C 144.400 321.081,144.190 320.354,143.932 319.874 C 143.511 319.087,142.142 315.361,139.365 307.447 C 138.834 305.932,138.059 304.132,137.643 303.447 C 137.228 302.761,136.693 301.273,136.456 300.140 C 136.219 299.007,135.587 297.117,135.051 295.940 C 134.515 294.763,133.861 292.991,133.597 292.002 C 133.333 291.013,132.757 289.500,132.318 288.639 C 131.879 287.778,131.251 286.171,130.924 285.068 C 130.596 283.965,130.031 282.609,129.669 282.056 C 129.306 281.503,128.613 279.779,128.127 278.225 C 126.467 272.909,124.890 268.599,124.094 267.199 C 123.657 266.430,123.083 264.900,122.819 263.800 C 122.556 262.700,122.071 261.502,121.742 261.137 C 121.413 260.773,120.798 259.094,120.377 257.408 C 119.956 255.721,119.340 253.860,119.009 253.271 C 118.342 252.084,116.888 248.300,115.200 243.356 C 114.590 241.571,113.819 239.681,113.485 239.156 C 113.152 238.630,112.687 237.271,112.452 236.136 C 112.216 235.001,111.507 232.931,110.874 231.536 C 110.242 230.141,109.514 228.145,109.257 227.100 C 108.999 226.056,108.432 224.616,107.996 223.900 C 107.560 223.185,107.202 222.320,107.201 221.977 C 107.201 221.634,106.571 220.104,105.801 218.577 C 105.032 217.050,104.402 215.471,104.401 215.068 C 104.401 214.666,103.936 213.176,103.369 211.759 C 102.801 210.341,101.918 207.970,101.406 206.490 C 99.736 201.664,98.398 198.227,97.636 196.800 C 97.224 196.030,96.760 194.801,96.605 194.070 C 96.267 192.474,93.396 184.770,92.405 182.800 C 92.018 182.030,91.404 180.365,91.040 179.100 C 90.676 177.836,89.933 175.964,89.389 174.941 C 88.845 173.918,88.400 172.736,88.400 172.315 C 88.400 171.893,87.958 170.583,87.418 169.402 C 86.878 168.222,86.143 166.118,85.785 164.728 C 85.426 163.338,84.808 161.660,84.412 161.000 C 84.015 160.340,83.384 158.720,83.009 157.400 C 82.635 156.080,82.052 154.691,81.714 154.313 C 81.376 153.935,80.763 152.495,80.351 151.113 C 78.986 146.530,76.825 140.410,76.249 139.498 C 75.937 139.004,75.377 137.524,75.003 136.209 C 74.630 134.894,73.984 133.340,73.568 132.755 C 73.152 132.171,72.605 130.727,72.353 129.546 C 72.100 128.366,71.485 126.500,70.985 125.400 C 70.486 124.300,69.861 122.593,69.598 121.607 C 69.334 120.620,68.709 119.000,68.209 118.007 C 67.708 117.013,67.163 115.570,66.998 114.800 C 66.832 114.030,66.180 112.430,65.548 111.244 C 64.917 110.058,64.398 108.708,64.396 108.244 C 64.394 107.780,63.933 106.414,63.372 105.209 C 62.811 104.003,62.008 101.774,61.587 100.254 C 61.165 98.735,60.562 97.097,60.246 96.615 C 59.930 96.133,59.400 94.822,59.068 93.703 C 58.735 92.584,58.134 91.171,57.732 90.563 C 57.329 89.955,56.707 88.364,56.348 87.029 C 55.469 83.754,53.120 77.467,52.494 76.713 C 51.382 75.373,51.679 73.054,53.000 72.767 C 55.046 72.322,126.749 72.345,127.582 72.790 M310.590 281.779 C 303.069 283.207,299.814 284.816,294.586 289.691 C 287.022 296.744,284.534 303.164,284.888 314.713 L 285.081 321.000 287.315 325.600 C 295.981 343.449,315.650 349.379,332.516 339.228 C 345.941 331.148,351.283 314.050,344.650 300.389 C 340.724 292.305,338.911 289.866,335.200 287.673 C 334.210 287.088,332.537 286.029,331.483 285.320 C 325.875 281.550,318.436 280.289,310.590 281.779 " stroke="none" fill="#12b6b8" fill-rule="evenodd"></path><path id="path2" d="M0.000 200.000 L 0.000 400.000 200.000 400.000 L 400.000 400.000 400.000 200.000 L 400.000 0.000 200.000 0.000 L 0.000 0.000 0.000 200.000 M129.377 72.800 C 129.973 73.400,130.632 74.825,131.025 76.363 C 131.384 77.773,132.020 79.582,132.438 80.383 C 132.856 81.185,133.392 82.911,133.630 84.220 C 133.867 85.529,134.481 87.323,134.993 88.207 C 135.506 89.092,136.117 90.850,136.351 92.116 C 136.584 93.381,137.213 95.178,137.748 96.108 C 138.283 97.039,138.918 98.751,139.159 99.913 C 139.400 101.075,139.948 102.713,140.376 103.553 C 140.804 104.392,141.433 106.280,141.773 107.748 C 142.114 109.215,142.660 110.826,142.988 111.326 C 143.316 111.826,143.930 113.619,144.352 115.309 C 144.775 117.000,145.492 119.152,145.945 120.092 C 146.399 121.031,147.065 122.970,147.426 124.400 C 147.787 125.830,148.334 127.285,148.642 127.633 C 148.950 127.981,149.395 129.331,149.631 130.633 C 149.866 131.935,150.495 133.932,151.027 135.071 C 151.560 136.210,152.199 138.100,152.448 139.271 C 152.696 140.442,153.312 142.220,153.817 143.222 C 154.322 144.224,154.864 145.754,155.021 146.622 C 155.179 147.490,155.651 148.883,156.071 149.717 C 156.491 150.552,157.159 152.532,157.556 154.117 C 157.953 155.703,158.649 157.726,159.103 158.613 C 159.556 159.500,160.116 161.245,160.346 162.491 C 160.576 163.738,161.200 165.622,161.733 166.679 C 162.265 167.735,162.896 169.524,163.136 170.653 C 163.375 171.782,163.939 173.328,164.387 174.089 C 164.836 174.850,165.398 176.536,165.636 177.836 C 165.875 179.136,166.402 180.742,166.808 181.404 C 167.214 182.067,167.851 183.957,168.224 185.604 C 168.596 187.252,169.393 189.590,169.995 190.800 C 170.598 192.010,171.220 193.712,171.379 194.581 C 171.537 195.451,172.002 196.819,172.411 197.621 C 172.820 198.423,173.433 200.280,173.773 201.748 C 174.114 203.216,174.767 205.151,175.225 206.049 C 175.683 206.946,176.236 208.788,176.453 210.140 C 176.676 211.523,177.177 212.950,177.597 213.400 C 178.008 213.840,178.654 215.460,179.031 217.000 C 179.409 218.540,179.949 220.263,180.232 220.828 C 180.515 221.394,181.133 223.374,181.605 225.228 C 182.078 227.083,182.726 228.892,183.047 229.248 C 183.368 229.605,183.917 231.315,184.266 233.048 C 184.616 234.782,185.322 236.924,185.836 237.809 C 186.349 238.694,186.981 240.402,187.238 241.605 C 187.496 242.808,187.968 244.190,188.286 244.676 C 188.605 245.161,189.204 246.914,189.618 248.571 C 190.032 250.228,190.658 252.022,191.010 252.559 C 191.361 253.095,191.982 255.160,192.389 257.147 C 192.967 259.969,193.415 261.115,194.437 262.387 C 196.000 264.331,196.181 264.201,197.254 260.369 C 197.712 258.736,198.341 257.111,198.653 256.758 C 198.965 256.404,199.419 254.964,199.662 253.558 C 199.905 252.151,200.524 250.276,201.037 249.391 C 201.550 248.506,202.178 246.796,202.434 245.591 C 202.690 244.386,203.250 242.706,203.679 241.858 C 204.108 241.009,204.703 239.153,205.000 237.733 C 205.297 236.313,205.818 234.727,206.157 234.209 C 206.496 233.692,207.078 232.038,207.449 230.534 C 207.821 229.030,208.540 226.990,209.048 226.000 C 209.556 225.010,210.176 223.210,210.425 222.000 C 210.674 220.790,211.229 219.191,211.657 218.446 C 212.086 217.702,212.709 215.917,213.042 214.480 C 213.376 213.043,213.901 211.379,214.209 210.782 C 214.517 210.186,215.133 208.342,215.577 206.685 C 216.021 205.028,216.735 203.070,217.163 202.336 C 217.591 201.601,218.239 199.838,218.603 198.418 C 218.967 196.997,219.505 195.370,219.800 194.800 C 220.095 194.230,220.635 192.603,221.001 191.182 C 221.367 189.762,222.001 188.057,222.409 187.393 C 222.817 186.729,223.413 184.925,223.735 183.384 C 224.056 181.844,224.679 179.957,225.120 179.192 C 225.561 178.426,226.209 176.506,226.560 174.924 C 226.911 173.342,227.539 171.452,227.955 170.724 C 228.371 169.996,228.835 168.680,228.986 167.800 C 229.136 166.920,229.681 165.473,230.197 164.585 C 230.712 163.697,231.344 161.807,231.601 160.385 C 231.858 158.963,232.593 156.723,233.234 155.406 C 233.875 154.089,234.400 152.552,234.400 151.991 C 234.400 151.429,234.772 150.256,235.228 149.385 C 235.683 148.513,236.422 146.360,236.871 144.600 C 237.319 142.840,238.029 140.835,238.449 140.144 C 238.868 139.453,239.402 137.833,239.636 136.544 C 239.870 135.255,240.411 133.599,240.838 132.864 C 241.265 132.130,241.979 130.172,242.423 128.515 C 242.867 126.858,243.479 125.021,243.783 124.433 C 244.087 123.845,244.635 122.203,245.001 120.782 C 245.367 119.362,245.998 117.660,246.403 117.000 C 246.807 116.340,247.418 114.592,247.760 113.116 C 248.101 111.640,248.739 109.765,249.176 108.949 C 249.613 108.133,250.178 106.461,250.432 105.233 C 250.685 104.005,251.218 102.359,251.616 101.576 C 252.013 100.793,252.638 98.993,253.003 97.576 C 253.368 96.159,253.992 94.460,254.390 93.800 C 254.787 93.140,255.414 91.252,255.783 89.604 C 256.152 87.957,256.777 86.067,257.173 85.404 C 257.569 84.742,258.107 83.300,258.370 82.200 C 259.126 79.028,261.274 73.475,262.083 72.600 C 262.870 71.749,336.138 71.095,339.288 71.911 C 341.202 72.407,341.566 73.327,340.552 75.109 C 340.086 75.929,339.394 77.676,339.014 78.991 C 338.635 80.306,338.004 81.836,337.613 82.391 C 337.221 82.946,336.608 84.695,336.250 86.279 C 335.893 87.862,335.150 90.004,334.600 91.038 C 334.050 92.073,333.600 93.226,333.600 93.600 C 333.600 93.974,333.181 95.073,332.669 96.040 C 332.157 97.008,331.515 98.700,331.243 99.800 C 330.970 100.900,330.331 102.520,329.823 103.400 C 329.314 104.280,328.693 105.969,328.442 107.154 C 328.191 108.339,327.551 110.139,327.020 111.154 C 326.489 112.169,325.697 114.080,325.260 115.400 C 323.495 120.729,322.278 123.848,321.584 124.823 C 321.181 125.388,320.563 127.097,320.210 128.620 C 319.856 130.144,319.330 131.752,319.041 132.195 C 318.751 132.638,318.202 134.080,317.822 135.400 C 317.441 136.720,316.799 138.340,316.395 139.000 C 315.991 139.660,315.439 141.100,315.168 142.200 C 314.897 143.300,314.164 145.170,313.538 146.356 C 312.912 147.542,312.400 148.997,312.400 149.589 C 312.400 150.180,311.948 151.550,311.395 152.632 C 310.842 153.714,310.031 155.794,309.592 157.254 C 309.153 158.713,308.549 160.110,308.251 160.358 C 307.952 160.606,307.475 161.903,307.191 163.240 C 306.908 164.578,306.228 166.331,305.682 167.136 C 305.135 167.941,304.457 169.706,304.174 171.058 C 303.891 172.409,303.295 174.230,302.849 175.104 C 302.403 175.978,301.826 177.572,301.566 178.646 C 301.305 179.721,300.774 181.140,300.384 181.800 C 299.995 182.460,299.401 183.938,299.065 185.084 C 298.728 186.230,298.017 187.940,297.484 188.884 C 296.951 189.828,296.292 191.680,296.020 193.000 C 295.747 194.320,295.299 195.760,295.024 196.200 C 294.748 196.640,294.203 197.990,293.812 199.200 C 293.421 200.410,292.777 201.940,292.381 202.600 C 291.985 203.260,291.443 204.700,291.177 205.800 C 290.912 206.900,290.197 208.700,289.589 209.800 C 288.981 210.900,288.359 212.610,288.208 213.600 C 288.057 214.590,287.522 216.210,287.020 217.200 C 286.518 218.190,285.800 220.060,285.426 221.356 C 285.051 222.652,284.503 224.092,284.207 224.556 C 283.910 225.020,283.388 226.361,283.045 227.534 C 282.703 228.708,282.062 230.252,281.622 230.964 C 281.182 231.676,280.614 233.236,280.359 234.430 C 280.105 235.623,279.478 237.410,278.966 238.400 C 278.454 239.390,277.838 241.094,277.597 242.187 C 277.355 243.280,276.824 244.720,276.415 245.387 C 276.007 246.054,275.462 247.410,275.204 248.400 C 274.947 249.390,274.378 250.816,273.940 251.570 C 273.503 252.323,272.172 255.877,270.984 259.466 C 269.796 263.055,268.567 266.399,268.253 266.896 C 267.939 267.393,267.390 268.832,267.032 270.092 C 266.675 271.353,266.036 272.973,265.613 273.692 C 265.190 274.412,264.646 275.889,264.404 276.975 C 264.161 278.062,263.431 280.162,262.781 281.642 C 262.132 283.123,261.600 284.592,261.600 284.907 C 261.600 285.223,261.159 286.310,260.621 287.322 C 260.082 288.335,259.367 290.087,259.032 291.216 C 258.697 292.345,258.041 293.887,257.574 294.642 C 257.107 295.397,256.472 297.100,256.163 298.427 C 255.853 299.754,255.337 301.349,255.015 301.971 C 254.693 302.594,254.067 304.411,253.624 306.010 C 253.181 307.608,252.562 309.205,252.248 309.558 C 251.935 309.911,251.391 311.176,251.040 312.368 C 250.690 313.561,250.143 314.932,249.826 315.417 C 249.509 315.901,248.806 317.805,248.264 319.648 C 247.723 321.492,246.906 323.810,246.449 324.800 C 245.992 325.790,245.614 326.890,245.609 327.244 C 245.604 327.598,245.088 328.858,244.462 330.044 C 243.836 331.230,243.103 333.098,242.832 334.195 C 242.562 335.292,242.129 336.442,241.870 336.751 C 241.612 337.061,241.040 338.322,240.599 339.554 C 239.181 343.522,242.997 343.211,195.591 343.224 C 146.261 343.238,150.930 343.882,149.027 336.800 C 148.642 335.370,148.091 333.828,147.803 333.373 C 147.514 332.918,146.882 331.208,146.399 329.573 C 145.916 327.938,145.294 326.330,145.017 326.000 C 144.367 325.226,143.600 322.936,143.600 321.771 C 143.600 321.271,143.182 320.353,142.672 319.731 C 142.161 319.109,141.523 317.588,141.254 316.350 C 140.985 315.113,140.407 313.403,139.969 312.550 C 139.532 311.698,138.889 310.010,138.542 308.800 C 138.194 307.590,137.564 306.028,137.140 305.329 C 136.717 304.629,136.119 302.857,135.812 301.390 C 135.505 299.923,134.968 298.406,134.618 298.020 C 134.268 297.633,133.620 296.012,133.178 294.417 C 132.736 292.823,132.039 290.861,131.629 290.057 C 131.219 289.253,130.670 287.787,130.409 286.798 C 130.148 285.809,129.521 284.280,129.016 283.400 C 128.511 282.520,127.890 280.817,127.635 279.616 C 127.381 278.415,126.905 277.136,126.577 276.774 C 126.249 276.412,125.612 274.785,125.162 273.158 C 124.711 271.531,124.013 269.660,123.611 269.000 C 123.209 268.340,122.592 266.657,122.238 265.261 C 121.885 263.864,121.246 262.277,120.819 261.733 C 120.391 261.189,119.922 259.901,119.777 258.872 C 119.632 257.842,119.106 256.280,118.607 255.400 C 118.109 254.520,117.412 252.810,117.058 251.600 C 116.705 250.390,115.962 248.514,115.408 247.432 C 114.854 246.350,114.400 245.063,114.400 244.573 C 114.400 244.082,113.879 242.690,113.242 241.479 C 112.605 240.268,111.952 238.501,111.792 237.553 C 111.632 236.605,111.006 234.832,110.401 233.614 C 109.797 232.396,109.090 230.521,108.832 229.446 C 108.573 228.372,108.035 226.842,107.636 226.046 C 107.236 225.251,106.614 223.700,106.254 222.600 C 105.893 221.500,105.148 219.714,104.599 218.632 C 104.049 217.550,103.599 216.200,103.599 215.632 C 103.598 215.064,103.216 213.976,102.751 213.213 C 102.286 212.450,101.479 210.401,100.958 208.660 C 100.437 206.919,99.845 205.294,99.643 205.047 C 99.441 204.801,98.966 203.520,98.587 202.200 C 98.209 200.880,97.486 199.080,96.981 198.200 C 96.476 197.320,95.937 195.739,95.784 194.686 C 95.630 193.633,95.095 192.167,94.594 191.429 C 94.092 190.690,93.552 189.482,93.393 188.743 C 93.234 188.004,92.595 186.271,91.973 184.890 C 91.350 183.510,90.556 181.267,90.208 179.907 C 89.859 178.547,89.317 177.150,89.002 176.803 C 88.688 176.455,88.165 175.031,87.839 173.637 C 87.514 172.243,86.903 170.720,86.481 170.251 C 86.059 169.783,85.508 168.334,85.257 167.030 C 85.005 165.727,84.275 163.567,83.636 162.230 C 82.996 160.894,82.344 159.170,82.188 158.400 C 82.031 157.630,81.485 156.280,80.974 155.400 C 80.463 154.520,79.848 152.918,79.608 151.841 C 79.367 150.763,78.839 149.413,78.435 148.841 C 78.031 148.268,77.492 146.810,77.236 145.600 C 76.981 144.390,76.350 142.590,75.834 141.600 C 75.319 140.610,74.608 138.672,74.255 137.292 C 73.902 135.913,73.252 134.293,72.811 133.692 C 72.370 133.092,71.829 131.640,71.609 130.468 C 71.389 129.295,70.874 127.855,70.465 127.268 C 70.056 126.680,69.503 125.300,69.237 124.200 C 68.970 123.100,68.330 121.272,67.815 120.137 C 67.300 119.003,66.575 117.023,66.203 115.737 C 65.832 114.452,65.281 113.123,64.979 112.785 C 64.678 112.447,64.161 111.017,63.832 109.607 C 63.503 108.197,62.898 106.583,62.486 106.021 C 62.075 105.460,61.425 103.740,61.044 102.200 C 60.662 100.660,60.100 99.015,59.794 98.544 C 59.489 98.073,58.843 96.453,58.359 94.944 C 57.876 93.435,57.151 91.775,56.748 91.256 C 56.345 90.737,55.898 89.421,55.753 88.331 C 55.609 87.242,55.084 85.752,54.588 85.020 C 54.092 84.289,53.558 82.933,53.401 82.007 C 53.245 81.081,52.621 79.381,52.016 78.230 C 50.413 75.184,50.165 73.435,51.191 72.409 C 52.009 71.591,52.147 71.589,90.197 71.694 L 128.382 71.800 129.377 72.800 M324.600 282.416 C 327.331 283.304,330.429 284.611,331.483 285.320 C 332.537 286.029,334.210 287.088,335.200 287.673 C 344.105 292.934,349.704 309.554,346.408 320.943 C 338.182 349.367,300.305 352.352,287.315 325.600 L 285.081 321.000 284.888 314.713 C 284.493 301.844,288.295 293.913,298.538 286.237 C 304.816 281.532,316.582 279.807,324.600 282.416 " stroke="none" fill="#fbfbfb" fill-rule="evenodd"></path></g></svg>