<svg version="1.1" id="Layer_1" xmlns="http://www.w3.org/2000/svg" xmlns:xlink="http://www.w3.org/1999/xlink" x="0px" y="0px"
	 width="100%" viewBox="0 0 1464 1655" enable-background="new 0 0 1464 1655" xml:space="preserve">
<path fill="#FEFEFE" opacity="1.000000" stroke="none" 
	d="
M1465.000000,500.000000 
	C1465.000000,885.225891 1465.000000,1270.451782 1465.000000,1656.000000 
	C1353.305542,1656.000000 1241.610718,1656.000000 1129.452393,1655.782593 
	C1128.988770,1655.565186 1129.026123,1655.131958 1129.483398,1655.077148 
	C1138.764160,1654.714844 1147.585571,1654.296265 1156.411621,1654.120972 
	C1180.242188,1653.647339 1198.749512,1639.338379 1204.978516,1616.337646 
	C1232.328491,1515.347656 1259.663452,1414.353638 1286.989868,1313.357178 
	C1324.205688,1175.809570 1361.400024,1038.255981 1398.622192,900.710205 
	C1412.160156,850.683716 1425.513428,800.605469 1439.417236,750.680664 
	C1446.656738,724.685486 1425.957275,706.276611 1406.470337,706.536194 
	C1367.320679,707.057739 1328.153687,706.117798 1288.993286,706.051880 
	C1265.633789,706.012573 1246.216431,721.583679 1241.083130,744.380676 
	C1225.937866,811.641479 1211.009033,878.950989 1195.904419,946.221008 
	C1182.691528,1005.066284 1169.303589,1063.872314 1156.087891,1122.717041 
	C1142.548462,1183.003662 1128.651733,1243.216064 1115.824219,1303.654663 
	C1107.928711,1340.855347 1101.411377,1378.361206 1094.888794,1415.836792 
	C1089.076294,1449.232056 1084.027832,1482.761719 1078.799683,1516.256592 
	C1076.208984,1532.854126 1073.972534,1549.506836 1071.575806,1566.134644 
	C1069.888428,1561.878662 1068.825195,1557.572388 1068.128418,1553.207764 
	C1064.015015,1527.436157 1060.653442,1501.524780 1055.799561,1475.895020 
	C1043.243774,1409.597656 1028.320190,1343.810669 1010.445679,1278.734131 
	C989.507935,1202.504761 968.007568,1126.429932 947.065613,1050.201660 
	C919.565796,950.102783 892.402466,849.911499 865.028870,749.777832 
	C857.536316,722.370056 835.762085,705.917786 807.415588,705.920898 
	C770.583618,705.924988 733.751343,705.850464 696.919739,705.960083 
	C683.092590,706.001282 669.243164,706.050110 655.445740,706.832703 
	C635.575378,707.959839 617.249084,723.426208 612.086792,742.696289 
	C591.372925,820.018738 570.691833,897.349976 549.976074,974.671875 
	C521.651306,1080.394287 493.785278,1186.242920 464.818207,1291.789185 
	C441.527863,1376.651489 421.624512,1462.158936 409.723114,1549.420166 
	C408.998383,1554.734131 408.026306,1560.014160 407.169312,1565.310059 
	C405.598907,1559.775146 404.660431,1554.386963 404.049164,1548.962158 
	C400.733429,1519.535278 397.484375,1490.100708 394.239288,1460.665894 
	C390.081085,1422.948364 383.243896,1385.696777 374.385742,1348.825439 
	C359.717010,1287.768311 344.846466,1226.759644 329.999939,1165.745361 
	C308.202240,1076.163818 286.302917,986.607056 264.540710,897.016907 
	C251.915421,845.041565 239.394806,793.040344 226.990997,741.011780 
	C222.467682,722.038330 204.865189,707.074097 185.346802,706.861877 
	C144.355774,706.416199 103.361809,706.173340 62.368435,706.048950 
	C48.063896,706.005554 36.219467,711.774475 27.103838,722.847412 
	C26.021740,724.161865 24.856857,726.092834 24.996944,727.622070 
	C26.284342,741.675842 25.996359,756.204529 29.626812,769.661499 
	C62.160599,890.254272 95.405685,1010.655029 128.427048,1131.116333 
	C162.983749,1257.178345 197.533920,1383.242310 232.066177,1509.311035 
	C242.422470,1547.119263 252.666946,1584.958130 263.045105,1622.760254 
	C268.459229,1642.481201 283.066681,1653.687744 303.496063,1654.138428 
	C316.320312,1654.421387 329.142303,1654.805908 341.983704,1655.358398 
	C342.002045,1655.571777 342.000000,1656.000000 342.000000,1656.000000 
	C228.365326,1656.000000 114.730637,1656.000000 1.000000,1656.000000 
	C1.000000,1276.971924 1.000000,897.943909 1.342257,518.656006 
	C2.359063,521.987671 2.891767,525.612549 3.729826,529.165466 
	C13.451217,570.378540 52.464596,597.563354 93.591270,592.187012 
	C121.211411,588.576355 142.627884,575.485657 155.881363,550.881165 
	C163.988403,535.830750 170.157944,519.750671 177.734253,504.397888 
	C207.067947,444.955322 246.853577,392.967133 293.106689,345.923950 
	C347.787994,290.308624 411.472626,247.559052 482.935364,216.328705 
	C544.955994,189.224701 609.868835,173.496674 677.198181,168.461731 
	C705.029297,166.380508 733.094116,166.839890 761.044250,167.087143 
	C794.063110,167.379196 826.749207,171.723663 859.127686,178.044098 
	C918.361084,189.606750 974.383606,210.234497 1027.449097,238.869247 
	C1074.286499,264.143341 1117.310059,294.805542 1156.270020,331.115570 
	C1192.253662,364.651733 1223.961060,401.809357 1251.239624,442.760132 
	C1272.998901,475.425140 1290.519897,510.314026 1306.980347,545.875732 
	C1333.123657,602.356873 1411.482178,609.499695 1448.259888,559.219238 
	C1460.965088,541.849487 1465.241333,522.313782 1464.018921,500.955688 
	C1464.426147,500.467194 1464.713135,500.233582 1465.000000,500.000000 
z"/>
<path fill="#F69F1A" opacity="1.000000" stroke="none" 
	d="
M1463.898560,501.210571 
	C1465.241333,522.313782 1460.965088,541.849487 1448.259888,559.219238 
	C1411.482178,609.499695 1333.123657,602.356873 1306.980347,545.875732 
	C1290.519897,510.314026 1272.998901,475.425140 1251.239624,442.760132 
	C1223.961060,401.809357 1192.253662,364.651733 1156.270020,331.115570 
	C1117.310059,294.805542 1074.286499,264.143341 1027.449097,238.869247 
	C974.383606,210.234497 918.361084,189.606750 859.127686,178.044098 
	C826.749207,171.723663 794.063110,167.379196 761.044250,167.087143 
	C733.094116,166.839890 705.029297,166.380508 677.198181,168.461731 
	C609.868835,173.496674 544.955994,189.224701 482.935364,216.328705 
	C411.472626,247.559052 347.787994,290.308624 293.106689,345.923950 
	C246.853577,392.967133 207.067947,444.955322 177.734253,504.397888 
	C170.157944,519.750671 163.988403,535.830750 155.881363,550.881165 
	C142.627884,575.485657 121.211411,588.576355 93.591270,592.187012 
	C52.464596,597.563354 13.451217,570.378540 3.729826,529.165466 
	C2.891767,525.612549 2.359063,521.987671 1.342257,518.198120 
	C1.000000,513.310730 1.000000,508.621490 1.347779,503.267212 
	C2.595661,498.044952 2.807076,493.208801 4.519880,488.980835 
	C10.629850,473.898804 16.648409,458.730103 23.773535,444.116913 
	C74.095665,340.909393 144.065552,253.199783 232.831772,180.446304 
	C281.083344,140.898956 333.418915,107.717178 389.587921,80.611191 
	C431.779175,60.250584 475.464081,43.732388 520.565918,31.076717 
	C582.178528,13.788088 645.075745,4.585120 709.427429,1.929163 
	C724.275696,1.952424 738.658142,1.898549 753.502197,1.893655 
	C769.746643,2.886196 785.541870,3.658991 801.309753,4.807548 
	C838.373291,7.507306 874.917603,13.624030 911.073914,22.098240 
	C1021.563354,47.994396 1122.023926,95.246414 1212.293579,164.021530 
	C1296.726440,228.349686 1365.514771,306.558350 1417.926636,398.829468 
	C1436.428833,431.402527 1455.875854,463.814209 1463.898560,501.210571 
z"/>
<path fill="#FEFEFE" opacity="1.000000" stroke="none" 
	d="
M1031.000000,1656.000000 
	C850.640808,1656.000000 670.281677,1656.000000 489.428497,1655.773682 
	C488.934479,1655.547485 489.033325,1655.101196 489.455322,1655.071655 
	C492.350586,1654.718018 494.854950,1654.545654 497.292297,1654.046143 
	C521.267029,1649.133911 536.146729,1639.314941 541.115295,1615.304688 
	C541.551819,1613.195068 542.188721,1611.126099 542.748596,1609.042603 
	C581.360657,1465.361816 620.336487,1321.777466 658.441223,1177.962280 
	C678.763855,1101.260254 702.627441,1025.417358 716.534546,947.107300 
	C721.501526,919.138977 725.723694,891.036011 730.082642,862.962952 
	C732.086548,850.057617 733.600952,837.076172 735.524536,822.732666 
	C736.068726,826.119568 736.453857,828.077881 736.690247,830.054077 
	C739.752441,855.646484 742.270264,881.316956 745.954590,906.819092 
	C752.537964,952.388367 761.726196,997.463257 773.689636,1041.949341 
	C807.799988,1168.789429 841.850830,1295.645630 876.027405,1422.467896 
	C894.174744,1489.809204 912.634155,1557.066528 930.724670,1624.423096 
	C934.987976,1640.296875 952.539001,1656.081543 972.492004,1655.322021 
	C991.957336,1654.581055 1011.472778,1655.155762 1030.980469,1655.364380 
	C1030.994873,1655.575928 1031.000000,1656.000000 1031.000000,1656.000000 
z"/>
<path fill="#FEFEFE" opacity="1.000000" stroke="none" 
	d="
M708.961609,1.852027 
	C645.075745,4.585120 582.178528,13.788088 520.565918,31.076717 
	C475.464081,43.732388 431.779175,60.250584 389.587921,80.611191 
	C333.418915,107.717178 281.083344,140.898956 232.831772,180.446304 
	C144.065552,253.199783 74.095665,340.909393 23.773535,444.116913 
	C16.648409,458.730103 10.629850,473.898804 4.519880,488.980835 
	C2.807076,493.208801 2.595661,498.044952 1.347779,502.801086 
	C1.000000,335.727142 1.000000,168.454254 1.000000,1.000000 
	C236.687531,1.000000 472.375092,1.000000 708.528442,1.213306 
	C708.994141,1.426613 708.961609,1.852027 708.961609,1.852027 
z"/>
<path fill="#FEFEFE" opacity="1.000000" stroke="none" 
	d="
M1464.018921,500.955688 
	C1455.875854,463.814209 1436.428833,431.402527 1417.926636,398.829468 
	C1365.514771,306.558350 1296.726440,228.349686 1212.293579,164.021530 
	C1122.023926,95.246414 1021.563354,47.994396 911.073914,22.098240 
	C874.917603,13.624030 838.373291,7.507306 801.309753,4.807548 
	C785.541870,3.658991 769.746643,2.886196 753.486938,1.682741 
	C753.010010,1.422846 753.000000,1.000000 753.000000,1.000000 
	C990.247620,1.000000 1227.495239,1.000000 1465.000000,1.000000 
	C1465.000000,167.020813 1465.000000,333.041748 1465.000000,499.531342 
	C1464.713135,500.233582 1464.426147,500.467194 1464.018921,500.955688 
z"/>
<path fill="#D6DAE8" opacity="1.000000" stroke="none" 
	d="
M1031.468628,1656.000000 
	C1031.000000,1656.000000 1030.994873,1655.575928 1031.444092,1655.275635 
	C1064.270996,1655.027588 1096.648560,1655.079834 1129.026123,1655.131958 
	C1129.026123,1655.131958 1128.988770,1655.565186 1128.994385,1655.782593 
	C1096.645752,1656.000000 1064.291504,1656.000000 1031.468628,1656.000000 
z"/>
<path fill="#EDEEF6" opacity="1.000000" stroke="none" 
	d="
M457.000000,1656.000000 
	C436.312439,1656.000000 415.624878,1656.000000 394.474243,1655.790771 
	C394.011139,1655.581543 394.029907,1655.163330 394.493713,1655.108643 
	C415.620850,1655.075562 436.284180,1655.097290 456.983032,1655.337891 
	C457.018555,1655.556763 457.000000,1656.000000 457.000000,1656.000000 
z"/>
<path fill="#CFD4E3" opacity="1.000000" stroke="none" 
	d="
M394.029907,1655.163330 
	C394.029907,1655.163330 394.011139,1655.581543 394.005554,1655.790771 
	C376.979095,1656.000000 359.958221,1656.000000 342.468658,1656.000000 
	C342.000000,1656.000000 342.002045,1655.571777 342.447479,1655.271851 
	C359.938568,1655.035767 376.984253,1655.099609 394.029907,1655.163330 
z"/>
<path fill="#FAE2D1" opacity="1.000000" stroke="none" 
	d="
M752.531372,1.000000 
	C753.000000,1.000000 753.010010,1.422846 753.025269,1.633760 
	C738.658142,1.898549 724.275696,1.952424 709.427429,1.929163 
	C708.961609,1.852027 708.994141,1.426613 708.997070,1.213306 
	C723.354248,1.000000 737.708435,1.000000 752.531372,1.000000 
z"/>
<path fill="#A9B9D2" opacity="1.000000" stroke="none" 
	d="
M457.468658,1656.000000 
	C457.000000,1656.000000 457.018555,1655.556763 457.447815,1655.247437 
	C468.262482,1654.992432 478.647919,1655.046753 489.033325,1655.101196 
	C489.033325,1655.101196 488.934479,1655.547485 488.967224,1655.773682 
	C478.645782,1656.000000 468.291534,1656.000000 457.468658,1656.000000 
z"/>
<path fill="#0067AA" opacity="1.000000" stroke="none" 
	d="
M489.455322,1655.071655 
	C478.647919,1655.046753 468.262482,1654.992432 457.412292,1655.028564 
	C436.284180,1655.097290 415.620850,1655.075562 394.493713,1655.108643 
	C376.984253,1655.099609 359.938568,1655.035767 342.429138,1655.058350 
	C329.142303,1654.805908 316.320312,1654.421387 303.496063,1654.138428 
	C283.066681,1653.687744 268.459229,1642.481201 263.045105,1622.760254 
	C252.666946,1584.958130 242.422470,1547.119263 232.066177,1509.311035 
	C197.533920,1383.242310 162.983749,1257.178345 128.427048,1131.116333 
	C95.405685,1010.655029 62.160599,890.254272 29.626812,769.661499 
	C25.996359,756.204529 26.284342,741.675842 24.996944,727.622070 
	C24.856857,726.092834 26.021740,724.161865 27.103838,722.847412 
	C36.219467,711.774475 48.063896,706.005554 62.368435,706.048950 
	C103.361809,706.173340 144.355774,706.416199 185.346802,706.861877 
	C204.865189,707.074097 222.467682,722.038330 226.990997,741.011780 
	C239.394806,793.040344 251.915421,845.041565 264.540710,897.016907 
	C286.302917,986.607056 308.202240,1076.163818 329.999939,1165.745361 
	C344.846466,1226.759644 359.717010,1287.768311 374.385742,1348.825439 
	C383.243896,1385.696777 390.081085,1422.948364 394.239288,1460.665894 
	C397.484375,1490.100708 400.733429,1519.535278 404.049164,1548.962158 
	C404.660431,1554.386963 405.598907,1559.775146 407.169312,1565.310059 
	C408.026306,1560.014160 408.998383,1554.734131 409.723114,1549.420166 
	C421.624512,1462.158936 441.527863,1376.651489 464.818207,1291.789185 
	C493.785278,1186.242920 521.651306,1080.394287 549.976074,974.671875 
	C570.691833,897.349976 591.372925,820.018738 612.086792,742.696289 
	C617.249084,723.426208 635.575378,707.959839 655.445740,706.832703 
	C669.243164,706.050110 683.092590,706.001282 696.919739,705.960083 
	C733.751343,705.850464 770.583618,705.924988 807.415588,705.920898 
	C835.762085,705.917786 857.536316,722.370056 865.028870,749.777832 
	C892.402466,849.911499 919.565796,950.102783 947.065613,1050.201660 
	C968.007568,1126.429932 989.507935,1202.504761 1010.445679,1278.734131 
	C1028.320190,1343.810669 1043.243774,1409.597656 1055.799561,1475.895020 
	C1060.653442,1501.524780 1064.015015,1527.436157 1068.128418,1553.207764 
	C1068.825195,1557.572388 1069.888428,1561.878662 1071.575806,1566.134644 
	C1073.972534,1549.506836 1076.208984,1532.854126 1078.799683,1516.256592 
	C1084.027832,1482.761719 1089.076294,1449.232056 1094.888794,1415.836792 
	C1101.411377,1378.361206 1107.928711,1340.855347 1115.824219,1303.654663 
	C1128.651733,1243.216064 1142.548462,1183.003662 1156.087891,1122.717041 
	C1169.303589,1063.872314 1182.691528,1005.066284 1195.904419,946.221008 
	C1211.009033,878.950989 1225.937866,811.641479 1241.083130,744.380676 
	C1246.216431,721.583679 1265.633789,706.012573 1288.993286,706.051880 
	C1328.153687,706.117798 1367.320679,707.057739 1406.470337,706.536194 
	C1425.957275,706.276611 1446.656738,724.685486 1439.417236,750.680664 
	C1425.513428,800.605469 1412.160156,850.683716 1398.622192,900.710205 
	C1361.400024,1038.255981 1324.205688,1175.809570 1286.989868,1313.357178 
	C1259.663452,1414.353638 1232.328491,1515.347656 1204.978516,1616.337646 
	C1198.749512,1639.338379 1180.242188,1653.647339 1156.411621,1654.120972 
	C1147.585571,1654.296265 1138.764160,1654.714844 1129.483398,1655.077148 
	C1096.648560,1655.079834 1064.270996,1655.027588 1031.429810,1655.064209 
	C1011.472778,1655.155762 991.957336,1654.581055 972.492004,1655.322021 
	C952.539001,1656.081543 934.987976,1640.296875 930.724670,1624.423096 
	C912.634155,1557.066528 894.174744,1489.809204 876.027405,1422.467896 
	C841.850830,1295.645630 807.799988,1168.789429 773.689636,1041.949341 
	C761.726196,997.463257 752.537964,952.388367 745.954590,906.819092 
	C742.270264,881.316956 739.752441,855.646484 736.690247,830.054077 
	C736.453857,828.077881 736.068726,826.119568 735.524536,822.732666 
	C733.600952,837.076172 732.086548,850.057617 730.082642,862.962952 
	C725.723694,891.036011 721.501526,919.138977 716.534546,947.107300 
	C702.627441,1025.417358 678.763855,1101.260254 658.441223,1177.962280 
	C620.336487,1321.777466 581.360657,1465.361816 542.748596,1609.042603 
	C542.188721,1611.126099 541.551819,1613.195068 541.115295,1615.304688 
	C536.146729,1639.314941 521.267029,1649.133911 497.292297,1654.046143 
	C494.854950,1654.545654 492.350586,1654.718018 489.455322,1655.071655 
z"/>
</svg>