<svg version="1.1" id="Layer_1" xmlns="http://www.w3.org/2000/svg" xmlns:xlink="http://www.w3.org/1999/xlink" x="0px" y="0px"
	 width="100%" viewBox="0 0 800 800" enable-background="new 0 0 800 800" xml:space="preserve">
<path fill="#D40000" opacity="1.000000" stroke="none" 
	d="
M1.000000,799.000000 
	C1.000000,533.069458 1.000000,267.138885 1.000000,1.000000 
	C266.027985,1.000000 531.056030,1.000000 796.666992,1.454196 
	C797.266968,17.860600 797.072754,33.818062 797.468872,49.760853 
	C797.554321,53.201023 799.767090,56.588337 801.000000,60.000000 
	C801.000000,266.028046 801.000000,472.056061 800.669189,678.441650 
	C798.903015,676.194519 797.467712,673.589966 796.023193,670.582886 
	C794.733948,667.066284 793.542542,663.912048 792.155640,660.846252 
	C789.152222,654.207581 786.048706,647.614258 782.921509,640.698975 
	C782.242065,639.922974 781.627197,639.450317 781.011658,638.733154 
	C781.010986,638.488525 781.004883,637.999390 780.944458,637.626953 
	C776.511536,627.750061 772.187622,618.222839 767.747375,608.750000 
	C765.264587,603.453308 762.588806,598.247009 759.934937,592.640320 
	C759.255127,590.937378 758.692688,589.567200 758.016907,588.255371 
	C754.362549,581.161438 750.680054,574.082031 746.990051,566.618347 
	C744.316040,560.491943 741.659241,554.744751 738.844360,548.667847 
	C737.455078,544.892151 736.223938,541.446045 734.925049,537.697510 
	C734.239563,536.928772 733.621887,536.462463 733.003418,535.747070 
	C733.002563,535.498047 733.000000,535.000000 732.938232,534.628174 
	C726.916504,521.336609 721.064697,508.365631 714.965088,495.512238 
	C709.362488,483.706329 703.493042,472.027130 697.793457,460.024536 
	C698.080933,458.717529 698.315979,457.678070 698.633728,456.273010 
	C694.204651,456.273010 690.224976,456.424805 686.263184,456.224274 
	C683.167053,456.067596 681.293152,457.092621 679.615601,459.866028 
	C675.298401,467.003845 670.578735,473.900482 665.950500,480.847290 
	C661.562378,487.433685 657.086060,493.961365 651.897400,501.624115 
	C650.998230,500.075836 650.541321,499.204163 650.007324,498.382507 
	C641.664551,485.545685 633.353577,472.687714 624.904907,459.920929 
	C623.929443,458.446991 622.252258,456.581909 620.768005,456.455688 
	C615.704773,456.025116 610.582336,456.290894 604.433838,456.290894 
	C608.048889,462.518616 611.166565,467.889526 614.180725,473.664276 
	C611.511658,475.604706 609.121521,477.906158 606.349426,478.541748 
	C595.906067,480.936157 585.338440,482.788452 574.006958,485.002106 
	C574.006958,477.940704 574.118347,471.656403 573.938171,465.380524 
	C573.885071,463.533264 573.006592,461.709717 572.369690,459.612244 
	C572.301636,458.967499 572.370300,458.585815 572.694458,458.021423 
	C572.442566,457.283630 571.935242,456.728516 571.000610,456.226410 
	C565.784485,456.213257 560.995605,456.147095 555.808533,456.119385 
	C554.607361,457.936646 553.174927,459.693207 553.111145,461.498108 
	C552.847717,468.955902 552.880371,476.430939 553.047913,483.894196 
	C553.131165,487.602509 551.504639,489.370667 548.002075,489.976379 
	C543.613831,490.735229 539.184814,491.409729 534.899170,492.580841 
	C524.499634,495.422577 524.175598,495.170990 523.933777,484.468506 
	C523.877258,481.966278 522.648132,479.490479 521.750916,476.711548 
	C519.782349,473.706573 518.276001,470.779510 516.214233,468.317444 
	C509.201416,459.942963 499.187988,457.210785 489.169373,456.658905 
	C472.942261,455.765015 456.629974,456.418274 439.542938,456.418274 
	C439.542938,475.166962 439.542938,493.739716 439.292969,512.912659 
	C438.694733,516.304138 438.065918,519.093323 438.045441,521.887085 
	C437.941559,536.047241 437.952118,550.208801 438.029968,564.369324 
	C438.046143,567.309570 437.425323,568.774170 433.981995,569.149658 
	C429.185974,569.672668 427.009033,576.688416 420.942993,574.981812 
	C420.779602,574.935791 420.422974,576.208069 419.937164,576.575928 
	C416.416748,579.241272 413.036102,582.181091 409.215088,584.329407 
	C406.450775,585.883606 401.842438,585.417358 400.248047,587.516663 
	C397.403625,591.261780 393.940063,590.919434 390.307617,591.696472 
	C384.978058,592.836609 381.447845,598.196777 375.596832,598.449524 
	C375.443176,598.456177 375.248230,598.998413 375.182343,599.313843 
	C374.541656,602.380249 372.486542,601.881348 370.165710,601.656372 
	C368.615875,601.506104 365.952118,601.897156 365.532745,602.830505 
	C363.010925,608.443054 357.994659,610.447083 353.164825,613.407471 
	C347.297729,617.003662 341.505463,619.731506 334.778168,621.159363 
	C332.362457,621.672058 330.493347,624.760193 328.164948,626.862305 
	C327.349365,625.644897 326.595032,624.518921 326.441559,624.289795 
	C322.298981,626.985718 318.484100,629.366272 314.798340,631.932190 
	C313.759644,632.655273 312.464111,633.868164 312.372681,634.948364 
	C311.916107,640.343628 307.098114,641.889709 304.212036,640.652710 
	C296.926270,637.529785 293.367737,647.383240 286.670074,644.699524 
	C286.334869,644.565186 284.993744,646.232544 284.530914,647.247803 
	C282.511292,651.678345 280.162537,654.255737 275.877258,648.685608 
	C274.439331,651.269592 273.170868,655.139343 272.160370,655.073181 
	C268.845459,654.855896 268.247955,657.339417 266.463226,658.773071 
	C263.581909,661.087524 260.234497,662.821716 257.145508,664.762207 
	C256.159485,663.376465 255.466843,662.403076 255.247543,662.094910 
	C247.322281,663.279968 245.773727,673.767822 236.900131,672.682312 
	C236.265854,672.604675 235.490448,673.471191 234.817841,673.950745 
	C231.185898,676.540344 227.783310,679.553833 223.882919,681.637268 
	C219.614838,683.917236 214.814331,685.174500 210.381332,687.177307 
	C201.830811,691.040161 193.252441,694.875549 184.921463,699.178894 
	C178.737167,702.373413 174.044586,708.209900 166.717606,709.554138 
	C166.014725,709.683105 165.142532,711.356262 165.128479,712.323853 
	C165.080780,715.608948 163.181015,715.956482 160.525467,716.064758 
	C157.779968,716.176697 154.691879,716.158813 152.408356,717.401184 
	C148.927689,719.294922 146.808533,720.039246 145.393463,715.351929 
	C145.083435,714.325012 142.925201,713.438293 141.546844,713.320435 
	C140.809494,713.257324 139.226028,714.965820 139.219040,715.883911 
	C139.187851,719.975952 138.631042,724.424255 139.990143,728.106873 
	C147.682510,748.950134 155.909912,769.595520 163.844254,790.350647 
	C164.888474,793.082092 165.298645,796.055847 165.541229,799.007202 
	C133.160553,799.105469 101.237404,798.853027 69.324310,799.307129 
	C61.400898,799.419861 54.601810,796.786438 47.443146,794.143005 
	C47.181870,795.919067 46.955048,797.460815 46.728607,799.000000 
	C31.230539,799.000000 16.115271,799.000000 1.000000,799.000000 
M104.284050,562.240112 
	C104.820679,561.478394 105.357307,560.716736 105.956093,559.910339 
	C105.956093,559.910339 105.907318,559.851379 106.393364,559.422546 
	C107.870972,557.588684 109.348572,555.754822 111.305832,553.446777 
	C132.560059,527.369019 153.715897,501.209747 175.167206,475.295074 
	C178.664352,471.070312 180.237518,466.927612 180.089630,461.524872 
	C179.976288,457.385071 178.721741,456.155365 174.561981,456.182312 
	C147.584824,456.356934 120.605141,456.145142 93.628052,456.325470 
	C79.847740,456.417572 81.022423,453.138458 81.494774,470.794617 
	C106.480583,470.794617 131.535965,470.794617 158.068680,470.794617 
	C155.755981,473.970428 154.606384,475.711761 153.296875,477.323151 
	C129.231140,506.936157 105.146301,536.533630 80.451813,566.576599 
	C80.028999,569.760986 79.620087,572.947327 79.179665,576.129272 
	C78.690498,579.663208 80.307549,580.830872 83.729286,580.756409 
	C91.055954,580.596924 98.388535,580.720215 105.718651,580.706543 
	C129.374954,580.662598 153.031662,580.659363 176.686630,580.455872 
	C178.425369,580.440979 181.370361,579.246094 181.646149,578.094788 
	C182.363632,575.099426 182.137070,571.796143 181.776535,568.674744 
	C181.670059,567.752686 179.870163,566.331909 178.833527,566.320618 
	C169.852585,566.223328 160.868713,566.395630 150.973022,566.348633 
	C134.957047,566.360962 118.941078,566.373291 102.499702,565.713684 
	C102.903503,564.765076 103.307304,563.816406 103.865059,562.825012 
	C103.865059,562.825012 103.849976,562.665894 104.284050,562.240112 
M391.976440,460.995270 
	C391.976440,460.995270 391.825317,461.196503 391.722443,460.506195 
	C388.813965,459.678467 385.905487,458.850769 382.346344,458.001923 
	C381.916901,457.946503 381.487427,457.891052 380.681213,457.174225 
	C378.333435,456.872284 375.985657,456.570343 372.749512,456.353424 
	C356.915649,456.294250 341.081818,456.235077 324.428864,456.010162 
	C323.664642,457.915039 322.248474,459.815552 322.235626,461.725494 
	C322.083252,484.344727 322.135345,506.965363 322.144287,529.585632 
	C322.150330,544.887573 322.129791,560.189758 322.237030,575.491028 
	C322.252411,577.680054 321.226227,581.020447 326.435822,580.302979 
	C341.080963,580.319214 355.726074,580.335449 371.292938,580.784058 
	C375.199493,580.199646 379.106079,579.615173 383.808380,578.882507 
	C398.486115,576.190308 408.782013,568.256104 411.374207,553.171692 
	C414.582977,534.499512 407.279968,520.907959 388.593567,513.879700 
	C398.646790,509.613098 404.195404,504.613098 405.776642,497.600403 
	C408.815765,484.121857 407.088745,471.933563 394.580444,462.551636 
	C393.658539,462.097656 392.736603,461.643677 391.976440,460.995270 
M575.500000,283.881470 
	C616.114197,283.881470 656.728455,283.881470 697.650269,283.881470 
	C697.650269,279.912262 697.650269,276.533813 697.650269,272.669220 
	C695.370667,272.669220 693.392212,272.662170 691.413757,272.670288 
	C666.252563,272.773712 641.091309,272.962585 615.930115,272.966339 
	C569.435059,272.973267 522.939453,272.756805 476.445465,272.957825 
	C470.456696,272.983704 467.165894,271.302124 464.884399,265.681976 
	C461.802094,258.089203 457.882751,250.825424 454.082153,243.546021 
	C453.467560,242.368912 451.538300,241.114151 450.342194,241.226868 
	C449.221222,241.332489 447.971954,243.051544 447.308594,244.334351 
	C446.339264,246.208847 445.856476,248.332748 445.142944,250.342026 
	C437.485657,271.904785 429.834473,293.469757 422.128876,315.015259 
	C421.776947,315.999268 420.923370,316.803925 419.867523,318.316620 
	C405.562195,271.731873 391.589844,226.231461 377.617462,180.731049 
	C376.973022,180.696701 376.328552,180.662354 375.684113,180.628006 
	C366.661621,213.881958 357.639130,247.135910 348.616638,280.389862 
	C348.092407,280.404175 347.568146,280.418488 347.043884,280.432831 
	C340.789581,264.464020 336.992371,247.530594 330.049896,231.831955 
	C329.324890,231.862396 328.599915,231.892838 327.874908,231.923294 
	C320.508392,258.742859 313.141876,285.562408 305.775330,312.381958 
	C305.249634,312.285278 304.723907,312.188568 304.198181,312.091858 
	C303.858917,311.213013 303.413544,310.359497 303.196594,309.451416 
	C300.670074,298.875397 298.329132,288.252594 295.644196,277.717316 
	C290.584381,257.863159 285.295532,238.067505 280.169495,218.230057 
	C275.379974,199.694901 270.706696,181.129623 265.871857,162.606430 
	C265.557373,161.401703 264.298065,160.443619 263.478271,159.370804 
	C262.836060,160.397598 261.902069,161.344116 261.594269,162.462891 
	C253.811066,190.752853 246.063187,219.052628 238.383148,247.370758 
	C236.081497,255.857513 234.001480,264.404358 232.154587,271.616699 
	C182.462692,272.176422 133.784683,272.724731 84.930840,273.275055 
	C84.930840,276.782684 84.930840,280.137054 84.930840,283.581818 
	C86.379272,283.672852 87.368240,283.782684 88.357986,283.790283 
	C120.500175,284.037109 152.642227,284.315887 184.784805,284.495331 
	C201.616364,284.589294 218.453491,284.286469 235.278229,284.636688 
	C240.348145,284.742218 242.026901,282.449371 242.707291,278.240692 
	C242.866470,277.256104 242.858444,276.232025 243.117844,275.277924 
	C248.376984,255.934464 253.616302,236.585312 258.985931,217.272400 
	C260.043121,213.469955 261.624359,209.813202 263.317169,205.107147 
	C264.451599,208.994843 265.280670,211.665222 266.009033,214.362793 
	C268.727173,224.429886 271.440094,234.498535 274.101929,244.580627 
	C276.748199,254.603790 279.319641,264.646729 281.944244,274.675629 
	C284.570923,284.712524 287.249451,294.735870 289.855286,304.778137 
	C291.965240,312.909363 293.953125,321.072418 296.083008,329.198303 
	C298.210602,337.315613 300.385071,345.422302 302.707642,353.485046 
	C303.032288,354.612122 304.319153,355.462036 305.160583,356.440247 
	C305.756775,355.389923 306.602570,354.407501 306.909760,353.278503 
	C309.466400,343.882416 311.863312,334.442871 314.424957,325.048187 
	C318.363983,310.601837 322.384583,296.177643 326.395203,281.750916 
	C327.470947,277.881317 328.636108,274.036560 330.003815,269.344818 
	C331.001984,270.805573 331.384888,271.165009 331.526611,271.602570 
	C335.776367,284.720917 339.867920,297.893188 344.345001,310.933105 
	C345.244141,313.551910 345.903503,317.284058 350.862152,317.327393 
	C359.440094,285.625793 368.032471,253.870728 376.954437,220.897644 
	C378.152496,223.424362 379.089294,224.908722 379.586456,226.528061 
	C382.913177,237.363892 386.096130,248.243835 389.422943,259.079651 
	C393.188385,271.344055 397.138947,283.551971 400.858032,295.830170 
	C405.730896,311.917511 410.351746,328.082458 415.407288,344.111115 
	C415.909210,345.702423 418.558685,347.167084 420.440613,347.542847 
	C421.399231,347.734314 423.271362,345.578644 424.014343,344.119324 
	C425.246368,341.699310 425.868805,338.973541 426.803040,336.396545 
	C431.852173,322.469116 436.946625,308.558014 441.968231,294.620667 
	C445.173920,285.723389 448.280487,276.790436 451.897888,266.553741 
	C454.799011,271.532410 457.804779,275.170746 459.104706,279.340820 
	C460.456787,283.678162 462.927643,283.911377 466.507965,283.905060 
	C502.505219,283.841339 538.502625,283.875061 575.500000,283.881470 
M222.950073,548.836609 
	C239.103287,548.820190 255.257736,548.905396 271.408813,548.710999 
	C275.126923,548.666199 277.063599,549.717163 278.261108,553.417603 
	C280.848297,561.412659 283.893005,569.263000 286.900330,577.115173 
	C287.360779,578.317505 288.569031,580.055481 289.516663,580.111755 
	C294.548492,580.410767 299.607513,580.252380 305.218170,580.252380 
	C298.971375,563.972473 293.064667,548.571838 287.152710,533.173279 
	C277.770905,508.736969 268.444122,484.278961 258.868164,459.918915 
	C258.239075,458.318604 255.805023,456.690308 254.017059,456.436157 
	C250.262863,455.902557 246.368851,456.452576 242.553329,456.216736 
	C239.759644,456.044067 238.271210,457.130615 237.336044,459.651794 
	C234.946014,466.095306 232.419952,472.488220 229.971329,478.910156 
	C222.835983,497.623749 215.774185,516.365662 208.563599,535.050171 
	C202.858887,549.832642 196.976959,564.546753 190.780289,580.290771 
	C196.722443,580.290771 201.953079,580.380615 207.173355,580.188599 
	C207.910446,580.161560 208.904312,578.879089 209.257111,577.974121 
	C211.586578,571.998657 213.574371,565.883179 216.077103,559.984558 
	C217.712158,556.130920 220.026627,552.565613 222.950073,548.836609 
z"/>
<path fill="#B80505" opacity="1.000000" stroke="none" 
	d="
M796.032349,670.985352 
	C797.467712,673.589966 798.903015,676.194519 800.669189,678.899536 
	C801.000000,684.688049 801.000000,690.376038 800.657227,696.625854 
	C799.195496,698.936951 798.076660,700.686279 797.761841,701.178528 
	C794.424683,702.805969 792.241150,703.765991 790.159485,704.911255 
	C787.207825,706.534973 784.317200,708.271790 781.427490,710.005310 
	C779.493042,711.165771 777.545654,712.320740 775.713196,713.630737 
	C773.819275,714.984619 772.129395,717.629333 770.222717,717.753662 
	C766.088989,718.023132 762.856323,719.227966 760.124756,722.282715 
	C759.277649,723.229980 758.035522,724.078247 756.822876,724.398010 
	C752.702820,725.484314 748.515198,726.314087 744.575989,727.192200 
	C744.167297,733.390869 740.243591,734.979553 734.393799,731.765564 
	C735.295227,735.866272 732.980530,736.877808 729.676514,737.007324 
	C725.630798,737.165894 722.384460,738.557556 720.175476,742.322327 
	C719.419739,743.610352 717.449280,744.623291 715.879395,744.906616 
	C712.378723,745.538513 708.382202,744.755249 705.316101,746.149902 
	C700.748047,748.227844 696.822998,751.709351 692.589355,754.541382 
	C691.774109,755.086609 690.793701,755.382324 689.896912,755.808838 
	C685.944702,757.688904 681.882751,759.375244 678.078186,761.518188 
	C674.729187,763.404419 671.726868,765.895874 668.458191,767.938843 
	C666.710205,769.031433 664.526306,769.474243 662.886536,770.681946 
	C659.872925,772.901550 657.477295,776.379578 654.172424,777.691589 
	C648.403992,779.981750 642.335266,781.027100 636.771545,784.468201 
	C628.799927,789.398376 619.958130,792.917603 611.522278,797.108643 
	C610.875427,797.429993 610.500977,798.299744 609.538879,799.005066 
	C583.385254,799.035461 557.692627,798.975281 532.017334,798.549561 
	C534.459778,796.180786 536.615906,793.636108 539.359253,792.273804 
	C548.274048,787.846802 559.182556,787.116028 565.474060,777.843811 
	C565.903076,777.211548 567.273865,777.218323 568.206726,776.927917 
	C575.753296,774.578491 583.188599,772.145935 589.442810,766.884033 
	C592.749329,764.102234 596.651855,761.969177 600.456543,759.850769 
	C610.052734,754.507935 619.736450,749.321350 629.415344,744.128723 
	C630.389648,743.606018 631.606750,743.109802 632.650635,743.213196 
	C638.733704,743.815613 643.303284,740.040344 646.777283,736.482849 
	C650.580017,732.588684 655.117737,731.153687 659.538025,728.972473 
	C663.063110,727.232910 666.638000,725.584473 670.092224,723.713501 
	C674.581421,721.281799 678.967773,718.660645 683.408020,716.138123 
	C687.068542,714.058594 690.739075,711.996704 694.413757,709.942200 
	C695.658691,709.246155 696.861572,708.246643 698.200684,707.985657 
	C704.780701,706.703003 710.731018,704.369019 715.438904,699.314514 
	C716.129272,698.573303 717.806335,698.730042 719.034912,698.517578 
	C720.124268,698.329224 721.334229,698.446899 722.300903,698.009521 
	C725.879883,696.389954 729.370483,694.576294 732.913025,692.874573 
	C736.474915,691.163635 740.170166,689.697571 743.608887,687.770630 
	C749.741394,684.333984 755.622498,680.442261 761.801453,677.096924 
	C767.164185,674.193420 772.810791,671.817688 778.298584,669.140442 
	C781.423096,667.616089 784.560181,664.591675 787.544678,664.765442 
	C790.162048,664.917847 792.567749,668.597473 795.088806,670.692749 
	C795.322754,670.887207 795.714050,670.892334 796.032349,670.985352 
z"/>
<path fill="#B30606" opacity="1.000000" stroke="none" 
	d="
M609.999878,798.914551 
	C610.500977,798.299744 610.875427,797.429993 611.522278,797.108643 
	C619.958130,792.917603 628.799927,789.398376 636.771545,784.468201 
	C642.335266,781.027100 648.403992,779.981750 654.172424,777.691589 
	C657.477295,776.379578 659.872925,772.901550 662.886536,770.681946 
	C664.526306,769.474243 666.710205,769.031433 668.458191,767.938843 
	C671.726868,765.895874 674.729187,763.404419 678.078186,761.518188 
	C681.882751,759.375244 685.944702,757.688904 689.896912,755.808838 
	C690.793701,755.382324 691.774109,755.086609 692.589355,754.541382 
	C696.822998,751.709351 700.748047,748.227844 705.316101,746.149902 
	C708.382202,744.755249 712.378723,745.538513 715.879395,744.906616 
	C717.449280,744.623291 719.419739,743.610352 720.175476,742.322327 
	C722.384460,738.557556 725.630798,737.165894 729.676514,737.007324 
	C732.980530,736.877808 735.295227,735.866272 734.393799,731.765564 
	C740.243591,734.979553 744.167297,733.390869 744.575989,727.192200 
	C748.515198,726.314087 752.702820,725.484314 756.822876,724.398010 
	C758.035522,724.078247 759.277649,723.229980 760.124756,722.282715 
	C762.856323,719.227966 766.088989,718.023132 770.222717,717.753662 
	C772.129395,717.629333 773.819275,714.984619 775.713196,713.630737 
	C777.545654,712.320740 779.493042,711.165771 781.427490,710.005310 
	C784.317200,708.271790 787.207825,706.534973 790.159485,704.911255 
	C792.241150,703.765991 794.424683,702.805969 797.761841,701.178528 
	C798.076660,700.686279 799.195496,698.936951 800.657227,697.093750 
	C801.000000,710.020874 801.000000,723.041809 800.587585,736.558167 
	C799.240845,741.136536 797.577698,745.205688 797.500305,749.304749 
	C797.190369,765.729431 797.372253,782.163391 797.372253,798.846436 
	C795.711487,798.953369 794.421204,799.108887 793.130859,799.109192 
	C733.079285,799.122192 673.027649,799.122559 612.976074,799.113892 
	C611.984009,799.113770 610.991943,798.983887 609.999878,798.914551 
z"/>
<path fill="#FDF6F6" opacity="1.000000" stroke="none" 
	d="
M609.538879,799.005005 
	C610.991943,798.983887 611.984009,799.113770 612.976074,799.113892 
	C673.027649,799.122559 733.079285,799.122192 793.130859,799.109192 
	C794.421204,799.108887 795.711487,798.953369 797.372253,798.846436 
	C797.372253,782.163391 797.190369,765.729431 797.500305,749.304749 
	C797.577698,745.205688 799.240845,741.136536 800.587585,737.026855 
	C801.000000,758.333313 801.000000,779.666687 801.000000,801.000000 
	C535.833374,801.000000 270.666687,801.001709 5.500058,800.958801 
	C3.999981,800.958557 2.500011,800.333374 0.999997,799.500000 
	C16.115271,799.000000 31.230539,799.000000 46.728607,799.000000 
	C46.955048,797.460815 47.181870,795.919067 47.443146,794.143005 
	C54.601810,796.786438 61.400898,799.419861 69.324310,799.307129 
	C101.237404,798.853027 133.160553,799.105469 165.934692,799.098022 
	C167.859558,799.038452 168.929733,798.977844 170.460861,799.007874 
	C195.614685,799.037231 220.307526,798.975891 245.461395,799.004639 
	C261.948334,799.034607 277.974213,798.974426 294.461121,799.004639 
	C314.948120,799.034851 334.974182,798.974548 355.461151,799.005005 
	C368.209412,799.104248 380.496765,799.140503 392.784027,799.115417 
	C416.522705,799.066895 440.261353,798.983765 464.460938,799.005615 
	C487.281281,799.035828 509.640625,798.975464 532.000000,798.915039 
	C557.692627,798.975281 583.385254,799.035461 609.538879,799.005005 
z"/>
<path fill="#FAE2E2" opacity="1.000000" stroke="none" 
	d="
M801.000000,59.531342 
	C799.767090,56.588337 797.554321,53.201023 797.468872,49.760853 
	C797.072754,33.818062 797.266968,17.860600 797.124878,1.454196 
	C798.323975,1.000000 799.648010,1.000000 801.000000,1.000000 
	C801.000000,20.354219 801.000000,39.708450 801.000000,59.531342 
z"/>
<path fill="#CB0202" opacity="1.000000" stroke="none" 
	d="
M169.999893,798.917236 
	C168.929733,798.977844 167.859558,799.038452 166.395935,799.008240 
	C165.298645,796.055847 164.888474,793.082092 163.844254,790.350647 
	C155.909912,769.595520 147.682510,748.950134 139.990143,728.106873 
	C138.631042,724.424255 139.187851,719.975952 139.219040,715.883911 
	C139.226028,714.965820 140.809494,713.257324 141.546844,713.320435 
	C142.925201,713.438293 145.083435,714.325012 145.393463,715.351929 
	C146.808533,720.039246 148.927689,719.294922 152.408356,717.401184 
	C154.691879,716.158813 157.779968,716.176697 160.525467,716.064758 
	C163.181015,715.956482 165.080780,715.608948 165.128479,712.323853 
	C165.142532,711.356262 166.014725,709.683105 166.717606,709.554138 
	C174.044586,708.209900 178.737167,702.373413 184.921463,699.178894 
	C193.252441,694.875549 201.830811,691.040161 210.381332,687.177307 
	C214.814331,685.174500 219.614838,683.917236 223.882919,681.637268 
	C227.783310,679.553833 231.185898,676.540344 234.817841,673.950745 
	C235.490448,673.471191 236.265854,672.604675 236.900131,672.682312 
	C245.773727,673.767822 247.322281,663.279968 255.247543,662.094910 
	C255.466843,662.403076 256.159485,663.376465 257.145508,664.762207 
	C260.234497,662.821716 263.581909,661.087524 266.463226,658.773071 
	C268.247955,657.339417 268.845459,654.855896 272.160370,655.073181 
	C273.170868,655.139343 274.439331,651.269592 275.877258,648.685608 
	C280.162537,654.255737 282.511292,651.678345 284.530914,647.247803 
	C284.993744,646.232544 286.334869,644.565186 286.670074,644.699524 
	C293.367737,647.383240 296.926270,637.529785 304.212036,640.652710 
	C307.098114,641.889709 311.916107,640.343628 312.372681,634.948364 
	C312.464111,633.868164 313.759644,632.655273 314.798340,631.932190 
	C318.484100,629.366272 322.298981,626.985718 326.441559,624.289795 
	C326.595032,624.518921 327.349365,625.644897 328.164948,626.862305 
	C330.493347,624.760193 332.362457,621.672058 334.778168,621.159363 
	C341.505463,619.731506 347.297729,617.003662 353.164825,613.407471 
	C357.994659,610.447083 363.010925,608.443054 365.532745,602.830505 
	C365.952118,601.897156 368.615875,601.506104 370.165710,601.656372 
	C372.486542,601.881348 374.541656,602.380249 375.182343,599.313843 
	C375.248230,598.998413 375.443176,598.456177 375.596832,598.449524 
	C381.447845,598.196777 384.978058,592.836609 390.307617,591.696472 
	C393.940063,590.919434 397.403625,591.261780 400.248047,587.516663 
	C401.842438,585.417358 406.450775,585.883606 409.215088,584.329407 
	C413.036102,582.181091 416.416748,579.241272 419.937164,576.575928 
	C420.422974,576.208069 420.779602,574.935791 420.942993,574.981812 
	C427.009033,576.688416 429.185974,569.672668 433.981995,569.149658 
	C437.425323,568.774170 438.046143,567.309570 438.029968,564.369324 
	C437.952118,550.208801 437.941559,536.047241 438.045441,521.887085 
	C438.065918,519.093323 438.694733,516.304138 439.407715,513.477112 
	C439.772400,535.504333 439.772400,557.567200 439.772400,579.443115 
	C457.913452,579.443115 475.325104,579.685547 492.726318,579.363281 
	C505.686646,579.123352 516.256531,573.640686 524.298950,562.880371 
	C524.987976,561.899109 525.320862,561.035950 525.512451,559.904358 
	C525.581848,559.090637 525.792603,558.545288 526.276306,557.949768 
	C526.643494,557.245605 526.737732,556.591614 526.769592,555.595093 
	C526.885010,554.836853 527.062866,554.421265 527.575317,553.862549 
	C528.578552,549.071960 529.247192,544.424500 529.984802,539.297241 
	C533.482239,542.900513 536.568176,544.056030 539.164673,538.750549 
	C539.620300,537.819580 541.386414,537.467224 542.600708,536.981323 
	C547.059265,535.197205 551.694458,533.806702 551.570251,527.441162 
	C551.548218,526.311157 554.054688,525.131836 555.519287,524.394531 
	C555.645081,543.079712 555.645081,561.345520 555.645081,580.028137 
	C559.884033,580.028137 563.378784,579.796204 566.829102,580.088562 
	C570.871460,580.431213 571.895874,578.842468 571.847473,574.932617 
	C571.687012,561.957764 571.920227,548.977905 572.348145,535.886780 
	C574.018311,532.096008 576.055176,529.296936 580.454407,529.203735 
	C581.055237,529.191040 581.650818,528.671204 582.239258,528.367615 
	C592.359985,523.146179 602.511597,517.983154 612.584290,512.670410 
	C617.113281,510.281647 621.623108,507.800446 625.870911,504.956818 
	C628.183655,503.408661 629.929688,501.014008 632.193726,499.217987 
	C634.056519,502.038788 635.656982,504.642700 637.241455,507.622711 
	C637.836548,508.665833 638.447693,509.332855 639.183777,510.087219 
	C639.308777,510.174561 639.167725,510.444916 639.182495,510.805664 
	C639.828857,511.777496 640.460449,512.388611 641.564575,513.182861 
	C641.065613,515.577576 640.094055,517.789062 638.766418,520.108521 
	C638.016785,521.048828 637.623169,521.881165 637.293823,523.043945 
	C636.936768,524.078308 636.548035,524.804321 636.089355,525.483032 
	C628.910156,536.106384 621.764771,546.752869 614.517761,557.329834 
	C610.868835,562.655396 607.031677,567.852051 602.877197,573.085327 
	C596.201965,576.032288 589.288391,578.136597 583.820801,582.190918 
	C577.183777,587.112427 569.412109,589.189392 562.485596,593.126770 
	C556.807251,596.354614 549.098145,596.522217 546.001038,604.005432 
	C545.421631,605.405396 542.678406,605.963074 540.881348,606.796265 
	C534.370850,609.814514 526.464722,610.158264 521.832947,616.821960 
	C521.510681,617.285583 520.342224,617.091309 519.632629,617.369690 
	C518.085327,617.976868 516.489685,618.543030 515.081177,619.400879 
	C513.417297,620.414246 512.071594,622.018921 510.337250,622.833435 
	C506.533051,624.619873 501.360687,625.045715 498.951172,627.892700 
	C495.148621,632.385620 490.942474,632.512268 485.935852,633.814392 
	C479.351196,635.526917 473.186462,640.305664 467.887299,644.957642 
	C464.775787,647.689026 462.039612,649.014893 458.337097,648.548096 
	C452.450012,647.805847 452.073273,648.039429 452.574646,653.950256 
	C450.642365,655.465454 448.726898,656.967468 445.896606,659.186768 
	C445.232971,657.719788 444.538727,656.184998 443.870636,654.708069 
	C440.542419,657.325745 438.338287,659.619324 435.666962,661.025024 
	C431.941895,662.985046 427.763275,664.070007 423.979950,665.937134 
	C421.530884,667.145813 419.531677,669.232361 417.170044,670.659424 
	C413.306244,672.994202 407.746368,672.954285 406.304932,678.671753 
	C406.198334,679.094543 404.925140,679.223755 404.194000,679.488647 
	C402.439667,680.124146 400.674652,680.731628 398.933380,681.401001 
	C396.562958,682.312317 393.759979,684.569397 391.943909,683.939331 
	C388.112000,682.610046 386.419647,684.077576 384.525330,686.768066 
	C383.865173,687.705688 382.079773,688.993652 381.563538,688.716187 
	C375.207245,685.300293 373.081726,691.957275 369.206665,694.000244 
	C364.899597,696.270935 361.303741,699.873169 357.315887,702.782898 
	C356.577362,703.321655 355.461639,703.417175 354.496704,703.560303 
	C346.749603,704.709045 339.642365,706.959167 334.769562,713.785889 
	C334.103027,714.719666 331.790558,715.531067 330.936035,715.080200 
	C328.405945,713.745239 326.809998,714.118835 325.716553,716.631348 
	C324.234802,720.036072 321.516418,721.057678 318.056519,721.039001 
	C316.771881,721.032104 314.765533,721.033325 314.311523,721.777344 
	C310.298492,728.353699 300.520111,726.739441 297.032959,734.072205 
	C296.685272,734.803223 294.549042,734.556091 293.349152,735.031189 
	C287.732941,737.254822 281.298920,738.542297 276.865601,742.222473 
	C273.963013,744.631836 271.494171,746.418091 267.933563,747.376648 
	C265.173187,748.119690 262.601593,749.653870 260.036011,751.006897 
	C257.145386,752.531189 254.408447,754.348328 251.509552,755.855042 
	C247.013626,758.191711 242.326614,760.179565 237.931671,762.685486 
	C234.720581,764.516357 232.113708,767.721497 227.765686,765.417419 
	C227.220001,765.128235 226.014191,765.979187 225.159821,766.395447 
	C220.007095,768.906128 214.678894,771.129333 209.780197,774.067017 
	C205.430130,776.675659 199.360657,776.597046 196.817688,782.303406 
	C196.448929,783.130798 193.483719,783.815308 192.626801,783.232483 
	C189.215622,780.912781 187.695267,783.225220 185.455093,785.115540 
	C182.091766,787.953430 178.595459,791.537720 174.604752,792.485901 
	C170.194626,793.533752 169.688461,795.445862 169.999893,798.917236 
z"/>
<path fill="#BF0404" opacity="1.000000" stroke="none" 
	d="
M464.000000,798.915039 
	C440.261353,798.983765 416.522705,799.066895 392.784027,799.115417 
	C380.496765,799.140503 368.209412,799.104248 355.567871,798.680237 
	C361.112122,795.414551 365.673492,789.302490 373.382874,790.826599 
	C373.791718,790.907410 374.325287,790.553040 374.752563,790.314819 
	C379.585876,787.619446 384.186462,784.338684 389.289154,782.334351 
	C396.717987,779.416260 401.344757,772.693176 409.704407,770.328308 
	C420.244873,767.346375 429.767975,760.619141 439.560486,755.201416 
	C444.922791,752.234619 449.762207,748.315308 455.149841,745.403625 
	C462.171692,741.608826 470.863983,740.864868 476.017456,733.621643 
	C476.660858,732.717346 478.369293,732.302368 479.640900,732.157410 
	C487.465576,731.265442 493.378052,727.059265 498.946350,721.856018 
	C500.835175,720.090942 503.685883,719.251160 506.214996,718.303284 
	C508.993164,717.262024 511.957886,716.722900 514.748596,715.709778 
	C517.768738,714.613403 520.761108,713.376404 523.615234,711.908447 
	C525.693420,710.839478 528.084351,709.689392 529.358948,707.885376 
	C532.360596,703.636902 534.808044,699.185303 541.289246,700.664673 
	C542.561951,700.955200 544.330322,700.272217 545.525818,699.503174 
	C551.968628,695.358582 558.263367,690.984192 564.698547,686.827515 
	C566.604858,685.596191 568.716003,684.520325 570.883667,683.891113 
	C574.695923,682.784668 579.277832,683.038940 582.337646,680.958679 
	C586.137207,678.375427 588.391357,673.694763 593.840576,673.151611 
	C594.824219,673.053528 595.259949,670.041748 596.490784,669.373047 
	C600.729553,667.070312 605.262390,665.315552 609.569702,663.128601 
	C611.285583,662.257385 612.797424,660.903931 614.238464,659.590515 
	C616.490417,657.537964 618.478027,655.409241 622.006287,657.375061 
	C624.590332,658.814819 626.828552,657.572144 627.384766,654.880493 
	C628.097961,651.428833 630.177673,651.263733 633.070618,650.797058 
	C635.610718,650.387329 638.802917,648.943115 640.081299,646.925659 
	C642.237976,643.522339 644.756409,642.631042 648.335876,642.990051 
	C655.282104,643.686584 658.359070,635.542603 665.062561,635.576233 
	C665.318054,635.577515 665.620544,634.795166 665.828613,634.344482 
	C668.145447,629.327332 672.805115,627.703369 677.593933,627.122009 
	C686.474670,626.043884 693.477051,621.845154 699.580933,615.581360 
	C704.271301,616.925415 705.315918,616.608459 709.533569,612.830200 
	C710.352600,612.096497 711.409058,611.621155 712.375061,611.059570 
	C714.958923,609.557312 717.580322,608.117859 720.136902,606.571045 
	C724.071289,604.190308 727.952026,601.720581 731.896912,599.357788 
	C732.213257,599.168335 732.900757,599.698120 733.329529,599.580200 
	C735.755371,598.912720 738.527649,598.685974 740.493835,597.319214 
	C746.489197,593.151855 752.597961,590.412842 760.000000,593.000000 
	C762.588806,598.247009 765.264587,603.453308 767.747375,608.750000 
	C772.187622,618.222839 776.511536,627.750061 780.619080,637.547424 
	C779.069092,636.562256 777.859741,635.193115 776.470825,634.040283 
	C775.638733,633.349670 774.191772,632.309082 773.591309,632.600464 
	C768.271790,635.182373 763.113892,638.094055 757.840515,640.775024 
	C752.945374,643.263611 747.944580,645.544067 743.035583,648.006348 
	C740.825562,649.114868 738.434814,650.121460 736.641907,651.744141 
	C733.748718,654.362549 731.811707,658.243713 726.662842,656.356750 
	C725.690979,656.000610 723.860046,657.973999 722.431519,658.881958 
	C720.594604,660.049500 718.192200,662.616516 717.036316,662.141296 
	C713.439880,660.662537 712.360291,662.343140 710.888855,664.934265 
	C710.041260,666.427002 708.499268,667.777283 706.952087,668.577209 
	C700.290955,672.020874 693.523560,675.260498 686.766846,678.516418 
	C685.439392,679.156067 683.282227,679.127258 682.710876,680.107849 
	C679.550781,685.531189 672.734009,683.761230 668.678040,687.658081 
	C666.398315,689.848328 662.714294,690.549561 659.716797,692.030762 
	C658.000000,692.879089 655.887390,693.573059 654.837708,694.991333 
	C652.605957,698.006958 650.143921,699.568542 646.349976,698.672180 
	C645.619385,698.499573 644.554260,698.502869 644.025085,698.915100 
	C640.004211,702.047119 636.078186,705.300964 631.895020,708.701843 
	C629.437500,706.800354 627.360046,706.728088 625.729492,710.097046 
	C625.240112,711.108215 623.282227,711.387512 622.023743,712.052429 
	C620.151245,713.041931 617.665649,713.628662 616.573547,715.182739 
	C614.145874,718.637268 611.444641,720.573425 607.069458,720.189270 
	C606.142700,720.107910 605.067383,721.550537 604.084534,722.321594 
	C602.987427,723.182251 602.013611,724.245056 600.819885,724.930115 
	C594.550659,728.528259 588.213074,732.007202 581.936218,735.592224 
	C580.368042,736.487854 579.062134,737.944946 577.418091,738.585571 
	C572.919128,740.338806 568.292236,741.761230 563.747314,743.401367 
	C563.010559,743.667175 562.261047,744.254822 561.810669,744.898804 
	C559.039368,748.861267 554.910400,749.504517 550.529053,750.141907 
	C548.534058,750.432190 545.990356,751.754883 545.042725,753.390076 
	C543.333374,756.339539 541.199646,756.874817 538.143250,757.156738 
	C535.929626,757.360901 532.782715,758.432739 531.894836,760.099365 
	C528.278320,766.888000 521.358337,767.865906 515.330505,769.723083 
	C510.883026,771.093262 506.312103,771.179260 503.244324,775.496704 
	C502.328979,776.784912 500.148834,777.179626 498.541504,777.970154 
	C493.763092,780.320068 488.825287,782.399780 484.258270,785.105713 
	C481.416138,786.789795 479.374420,789.821106 476.536957,791.517761 
	C473.106110,793.569214 469.175201,794.769348 465.553894,796.529663 
	C464.822327,796.885315 464.507141,798.097656 464.000000,798.915039 
z"/>
<path fill="#090101" opacity="1.000000" stroke="none" 
	d="
M575.000000,283.881409 
	C538.502625,283.875061 502.505219,283.841339 466.507965,283.905060 
	C462.927643,283.911377 460.456787,283.678162 459.104706,279.340820 
	C457.804779,275.170746 454.799011,271.532410 451.897888,266.553741 
	C448.280487,276.790436 445.173920,285.723389 441.968231,294.620667 
	C436.946625,308.558014 431.852173,322.469116 426.803040,336.396545 
	C425.868805,338.973541 425.246368,341.699310 424.014343,344.119324 
	C423.271362,345.578644 421.399231,347.734314 420.440613,347.542847 
	C418.558685,347.167084 415.909210,345.702423 415.407288,344.111115 
	C410.351746,328.082458 405.730896,311.917511 400.858032,295.830170 
	C397.138947,283.551971 393.188385,271.344055 389.422943,259.079651 
	C386.096130,248.243835 382.913177,237.363892 379.586456,226.528061 
	C379.089294,224.908722 378.152496,223.424362 376.954437,220.897644 
	C368.032471,253.870728 359.440094,285.625793 350.862152,317.327393 
	C345.903503,317.284058 345.244141,313.551910 344.345001,310.933105 
	C339.867920,297.893188 335.776367,284.720917 331.526611,271.602570 
	C331.384888,271.165009 331.001984,270.805573 330.003815,269.344818 
	C328.636108,274.036560 327.470947,277.881317 326.395203,281.750916 
	C322.384583,296.177643 318.363983,310.601837 314.424957,325.048187 
	C311.863312,334.442871 309.466400,343.882416 306.909760,353.278503 
	C306.602570,354.407501 305.756775,355.389923 305.160583,356.440247 
	C304.319153,355.462036 303.032288,354.612122 302.707642,353.485046 
	C300.385071,345.422302 298.210602,337.315613 296.083008,329.198303 
	C293.953125,321.072418 291.965240,312.909363 289.855286,304.778137 
	C287.249451,294.735870 284.570923,284.712524 281.944244,274.675629 
	C279.319641,264.646729 276.748199,254.603790 274.101929,244.580627 
	C271.440094,234.498535 268.727173,224.429886 266.009033,214.362793 
	C265.280670,211.665222 264.451599,208.994843 263.317169,205.107147 
	C261.624359,209.813202 260.043121,213.469955 258.985931,217.272400 
	C253.616302,236.585312 248.376984,255.934464 243.117844,275.277924 
	C242.858444,276.232025 242.866470,277.256104 242.707291,278.240692 
	C242.026901,282.449371 240.348145,284.742218 235.278229,284.636688 
	C218.453491,284.286469 201.616364,284.589294 184.784805,284.495331 
	C152.642227,284.315887 120.500175,284.037109 88.357986,283.790283 
	C87.368240,283.782684 86.379272,283.672852 84.930840,283.581818 
	C84.930840,280.137054 84.930840,276.782684 84.930840,273.275055 
	C133.784683,272.724731 182.462692,272.176422 232.154587,271.616699 
	C234.001480,264.404358 236.081497,255.857513 238.383148,247.370758 
	C246.063187,219.052628 253.811066,190.752853 261.594269,162.462891 
	C261.902069,161.344116 262.836060,160.397598 263.478271,159.370804 
	C264.298065,160.443619 265.557373,161.401703 265.871857,162.606430 
	C270.706696,181.129623 275.379974,199.694901 280.169495,218.230057 
	C285.295532,238.067505 290.584381,257.863159 295.644196,277.717316 
	C298.329132,288.252594 300.670074,298.875397 303.196594,309.451416 
	C303.413544,310.359497 303.858917,311.213013 304.198181,312.091858 
	C304.723907,312.188568 305.249634,312.285278 305.775330,312.381958 
	C313.141876,285.562408 320.508392,258.742859 327.874908,231.923294 
	C328.599915,231.892838 329.324890,231.862396 330.049896,231.831955 
	C336.992371,247.530594 340.789581,264.464020 347.043884,280.432831 
	C347.568146,280.418488 348.092407,280.404175 348.616638,280.389862 
	C357.639130,247.135910 366.661621,213.881958 375.684113,180.628006 
	C376.328552,180.662354 376.973022,180.696701 377.617462,180.731049 
	C391.589844,226.231461 405.562195,271.731873 419.867523,318.316620 
	C420.923370,316.803925 421.776947,315.999268 422.128876,315.015259 
	C429.834473,293.469757 437.485657,271.904785 445.142944,250.342026 
	C445.856476,248.332748 446.339264,246.208847 447.308594,244.334351 
	C447.971954,243.051544 449.221222,241.332489 450.342194,241.226868 
	C451.538300,241.114151 453.467560,242.368912 454.082153,243.546021 
	C457.882751,250.825424 461.802094,258.089203 464.884399,265.681976 
	C467.165894,271.302124 470.456696,272.983704 476.445465,272.957825 
	C522.939453,272.756805 569.435059,272.973267 615.930115,272.966339 
	C641.091309,272.962585 666.252563,272.773712 691.413757,272.670288 
	C693.392212,272.662170 695.370667,272.669220 697.650269,272.669220 
	C697.650269,276.533813 697.650269,279.912262 697.650269,283.881470 
	C656.728455,283.881470 616.114197,283.881470 575.000000,283.881409 
z"/>
<path fill="#C30303" opacity="1.000000" stroke="none" 
	d="
M759.934937,592.640320 
	C752.597961,590.412842 746.489197,593.151855 740.493835,597.319214 
	C738.527649,598.685974 735.755371,598.912720 733.329529,599.580200 
	C732.900757,599.698120 732.213257,599.168335 731.896912,599.357788 
	C727.952026,601.720581 724.071289,604.190308 720.136902,606.571045 
	C717.580322,608.117859 714.958923,609.557312 712.375061,611.059570 
	C711.409058,611.621155 710.352600,612.096497 709.533569,612.830200 
	C705.315918,616.608459 704.271301,616.925415 699.580933,615.581360 
	C693.477051,621.845154 686.474670,626.043884 677.593933,627.122009 
	C672.805115,627.703369 668.145447,629.327332 665.828613,634.344482 
	C665.620544,634.795166 665.318054,635.577515 665.062561,635.576233 
	C658.359070,635.542603 655.282104,643.686584 648.335876,642.990051 
	C644.756409,642.631042 642.237976,643.522339 640.081299,646.925659 
	C638.802917,648.943115 635.610718,650.387329 633.070618,650.797058 
	C630.177673,651.263733 628.097961,651.428833 627.384766,654.880493 
	C626.828552,657.572144 624.590332,658.814819 622.006287,657.375061 
	C618.478027,655.409241 616.490417,657.537964 614.238464,659.590515 
	C612.797424,660.903931 611.285583,662.257385 609.569702,663.128601 
	C605.262390,665.315552 600.729553,667.070312 596.490784,669.373047 
	C595.259949,670.041748 594.824219,673.053528 593.840576,673.151611 
	C588.391357,673.694763 586.137207,678.375427 582.337646,680.958679 
	C579.277832,683.038940 574.695923,682.784668 570.883667,683.891113 
	C568.716003,684.520325 566.604858,685.596191 564.698547,686.827515 
	C558.263367,690.984192 551.968628,695.358582 545.525818,699.503174 
	C544.330322,700.272217 542.561951,700.955200 541.289246,700.664673 
	C534.808044,699.185303 532.360596,703.636902 529.358948,707.885376 
	C528.084351,709.689392 525.693420,710.839478 523.615234,711.908447 
	C520.761108,713.376404 517.768738,714.613403 514.748596,715.709778 
	C511.957886,716.722900 508.993164,717.262024 506.214996,718.303284 
	C503.685883,719.251160 500.835175,720.090942 498.946350,721.856018 
	C493.378052,727.059265 487.465576,731.265442 479.640900,732.157410 
	C478.369293,732.302368 476.660858,732.717346 476.017456,733.621643 
	C470.863983,740.864868 462.171692,741.608826 455.149841,745.403625 
	C449.762207,748.315308 444.922791,752.234619 439.560486,755.201416 
	C429.767975,760.619141 420.244873,767.346375 409.704407,770.328308 
	C401.344757,772.693176 396.717987,779.416260 389.289154,782.334351 
	C384.186462,784.338684 379.585876,787.619446 374.752563,790.314819 
	C374.325287,790.553040 373.791718,790.907410 373.382874,790.826599 
	C365.673492,789.302490 361.112122,795.414551 355.106934,798.589600 
	C334.974182,798.974548 314.948120,799.034851 294.523956,798.648926 
	C294.900665,793.472778 298.446167,792.364746 302.414154,790.859558 
	C308.426727,788.578796 314.061951,785.271240 319.768555,782.232910 
	C321.892731,781.101990 323.675598,778.505859 325.772919,778.313965 
	C330.715576,777.861816 335.435272,777.833923 337.823853,772.396667 
	C337.976471,772.049316 339.109039,772.223938 339.699280,771.961426 
	C342.100494,770.893188 344.524597,769.854126 346.834656,768.608521 
	C350.304474,766.737488 353.671204,764.676392 357.107574,762.742004 
	C363.837860,758.953552 370.576630,755.179871 377.333496,751.439209 
	C378.909393,750.566772 380.695679,748.994080 382.173553,749.207703 
	C389.416901,750.254700 392.631439,743.875488 397.825775,741.234924 
	C401.813385,739.207825 405.528809,736.037842 409.734131,735.176208 
	C417.862885,733.510681 425.340607,729.938904 430.795319,724.583618 
	C434.424713,721.020508 437.404907,720.365173 441.673309,719.802917 
	C445.949554,719.239624 450.803619,718.780945 452.598633,713.413452 
	C452.855103,712.646484 454.014893,711.994995 454.897247,711.654175 
	C460.827606,709.363770 466.795776,707.171387 472.752228,704.948547 
	C473.212860,704.776611 473.746185,704.710510 474.129669,704.434204 
	C479.437073,700.608276 483.225067,693.898071 491.360657,695.423523 
	C491.693146,695.485840 492.140472,694.885803 492.546570,694.612671 
	C498.305939,690.737976 502.603180,684.223755 510.795502,684.670654 
	C511.590118,684.713928 512.377380,683.123291 513.318787,682.530884 
	C519.424683,678.689087 525.569580,674.909119 531.716370,671.132690 
	C531.970642,670.976501 532.375427,670.998108 532.699707,671.032959 
	C540.373901,671.858337 545.078369,666.250916 550.786865,662.772339 
	C552.673401,661.622681 554.826172,660.172729 556.860718,660.167175 
	C560.350220,660.157593 562.356750,658.794556 564.090454,655.972717 
	C566.177490,652.575806 568.694519,650.237061 573.534729,651.385986 
	C575.452087,651.841187 578.155273,649.763550 580.252380,648.444458 
	C582.007751,647.340454 583.203369,644.806519 584.991394,644.391968 
	C591.351135,642.917603 597.337891,641.154114 601.285583,635.397766 
	C601.701416,634.791504 602.664978,634.240723 603.392090,634.217529 
	C611.152771,633.969421 615.881531,627.101746 622.946045,625.349548 
	C625.654480,624.677734 628.306885,623.771423 630.967712,622.918701 
	C632.493530,622.429688 634.206665,622.139282 635.453979,621.233826 
	C641.161926,617.090576 646.732727,612.758362 652.364563,608.509705 
	C652.617065,608.319275 652.976929,608.243286 653.299683,608.178101 
	C659.535095,606.920288 665.779175,606.008179 670.524963,600.863525 
	C673.838623,597.271301 681.008850,599.158813 682.749146,592.799866 
	C682.848877,592.435364 683.914001,592.264099 684.556396,592.130615 
	C688.666138,591.276428 693.254944,591.601318 695.615051,586.815002 
	C695.964722,586.105896 698.089417,586.387695 699.312683,585.973816 
	C704.410522,584.249329 709.753662,582.964355 714.479065,580.504456 
	C719.303955,577.992676 722.355103,572.225342 728.898438,572.704468 
	C729.387390,572.740356 730.025391,572.052673 730.441711,571.569946 
	C735.338928,565.890991 740.643677,564.413025 747.007324,566.997559 
	C750.680054,574.082031 754.362549,581.161438 758.016907,588.255371 
	C758.692688,589.567200 759.255127,590.937378 759.934937,592.640320 
z"/>
<path fill="#BB0505" opacity="1.000000" stroke="none" 
	d="
M464.460938,799.005615 
	C464.507141,798.097656 464.822327,796.885315 465.553894,796.529663 
	C469.175201,794.769348 473.106110,793.569214 476.536957,791.517761 
	C479.374420,789.821106 481.416138,786.789795 484.258270,785.105713 
	C488.825287,782.399780 493.763092,780.320068 498.541504,777.970154 
	C500.148834,777.179626 502.328979,776.784912 503.244324,775.496704 
	C506.312103,771.179260 510.883026,771.093262 515.330505,769.723083 
	C521.358337,767.865906 528.278320,766.888000 531.894836,760.099365 
	C532.782715,758.432739 535.929626,757.360901 538.143250,757.156738 
	C541.199646,756.874817 543.333374,756.339539 545.042725,753.390076 
	C545.990356,751.754883 548.534058,750.432190 550.529053,750.141907 
	C554.910400,749.504517 559.039368,748.861267 561.810669,744.898804 
	C562.261047,744.254822 563.010559,743.667175 563.747314,743.401367 
	C568.292236,741.761230 572.919128,740.338806 577.418091,738.585571 
	C579.062134,737.944946 580.368042,736.487854 581.936218,735.592224 
	C588.213074,732.007202 594.550659,728.528259 600.819885,724.930115 
	C602.013611,724.245056 602.987427,723.182251 604.084534,722.321594 
	C605.067383,721.550537 606.142700,720.107910 607.069458,720.189270 
	C611.444641,720.573425 614.145874,718.637268 616.573547,715.182739 
	C617.665649,713.628662 620.151245,713.041931 622.023743,712.052429 
	C623.282227,711.387512 625.240112,711.108215 625.729492,710.097046 
	C627.360046,706.728088 629.437500,706.800354 631.895020,708.701843 
	C636.078186,705.300964 640.004211,702.047119 644.025085,698.915100 
	C644.554260,698.502869 645.619385,698.499573 646.349976,698.672180 
	C650.143921,699.568542 652.605957,698.006958 654.837708,694.991333 
	C655.887390,693.573059 658.000000,692.879089 659.716797,692.030762 
	C662.714294,690.549561 666.398315,689.848328 668.678040,687.658081 
	C672.734009,683.761230 679.550781,685.531189 682.710876,680.107849 
	C683.282227,679.127258 685.439392,679.156067 686.766846,678.516418 
	C693.523560,675.260498 700.290955,672.020874 706.952087,668.577209 
	C708.499268,667.777283 710.041260,666.427002 710.888855,664.934265 
	C712.360291,662.343140 713.439880,660.662537 717.036316,662.141296 
	C718.192200,662.616516 720.594604,660.049500 722.431519,658.881958 
	C723.860046,657.973999 725.690979,656.000610 726.662842,656.356750 
	C731.811707,658.243713 733.748718,654.362549 736.641907,651.744141 
	C738.434814,650.121460 740.825562,649.114868 743.035583,648.006348 
	C747.944580,645.544067 752.945374,643.263611 757.840515,640.775024 
	C763.113892,638.094055 768.271790,635.182373 773.591309,632.600464 
	C774.191772,632.309082 775.638733,633.349670 776.470825,634.040283 
	C777.859741,635.193115 779.069092,636.562256 780.679443,637.919861 
	C781.004883,637.999390 781.010986,638.488525 781.075989,639.037964 
	C781.756042,640.059021 782.371094,640.530701 782.986145,641.002319 
	C786.048706,647.614258 789.152222,654.207581 792.155640,660.846252 
	C793.542542,663.912048 794.733948,667.066284 796.023193,670.582886 
	C795.714050,670.892334 795.322754,670.887207 795.088806,670.692749 
	C792.567749,668.597473 790.162048,664.917847 787.544678,664.765442 
	C784.560181,664.591675 781.423096,667.616089 778.298584,669.140442 
	C772.810791,671.817688 767.164185,674.193420 761.801453,677.096924 
	C755.622498,680.442261 749.741394,684.333984 743.608887,687.770630 
	C740.170166,689.697571 736.474915,691.163635 732.913025,692.874573 
	C729.370483,694.576294 725.879883,696.389954 722.300903,698.009521 
	C721.334229,698.446899 720.124268,698.329224 719.034912,698.517578 
	C717.806335,698.730042 716.129272,698.573303 715.438904,699.314514 
	C710.731018,704.369019 704.780701,706.703003 698.200684,707.985657 
	C696.861572,708.246643 695.658691,709.246155 694.413757,709.942200 
	C690.739075,711.996704 687.068542,714.058594 683.408020,716.138123 
	C678.967773,718.660645 674.581421,721.281799 670.092224,723.713501 
	C666.638000,725.584473 663.063110,727.232910 659.538025,728.972473 
	C655.117737,731.153687 650.580017,732.588684 646.777283,736.482849 
	C643.303284,740.040344 638.733704,743.815613 632.650635,743.213196 
	C631.606750,743.109802 630.389648,743.606018 629.415344,744.128723 
	C619.736450,749.321350 610.052734,754.507935 600.456543,759.850769 
	C596.651855,761.969177 592.749329,764.102234 589.442810,766.884033 
	C583.188599,772.145935 575.753296,774.578491 568.206726,776.927917 
	C567.273865,777.218323 565.903076,777.211548 565.474060,777.843811 
	C559.182556,787.116028 548.274048,787.846802 539.359253,792.273804 
	C536.615906,793.636108 534.459778,796.180786 532.017334,798.549561 
	C509.640625,798.975464 487.281281,799.035828 464.460938,799.005615 
z"/>
<path fill="#C50303" opacity="1.000000" stroke="none" 
	d="
M746.990051,566.618347 
	C740.643677,564.413025 735.338928,565.890991 730.441711,571.569946 
	C730.025391,572.052673 729.387390,572.740356 728.898438,572.704468 
	C722.355103,572.225342 719.303955,577.992676 714.479065,580.504456 
	C709.753662,582.964355 704.410522,584.249329 699.312683,585.973816 
	C698.089417,586.387695 695.964722,586.105896 695.615051,586.815002 
	C693.254944,591.601318 688.666138,591.276428 684.556396,592.130615 
	C683.914001,592.264099 682.848877,592.435364 682.749146,592.799866 
	C681.008850,599.158813 673.838623,597.271301 670.524963,600.863525 
	C665.779175,606.008179 659.535095,606.920288 653.299683,608.178101 
	C652.976929,608.243286 652.617065,608.319275 652.364563,608.509705 
	C646.732727,612.758362 641.161926,617.090576 635.453979,621.233826 
	C634.206665,622.139282 632.493530,622.429688 630.967712,622.918701 
	C628.306885,623.771423 625.654480,624.677734 622.946045,625.349548 
	C615.881531,627.101746 611.152771,633.969421 603.392090,634.217529 
	C602.664978,634.240723 601.701416,634.791504 601.285583,635.397766 
	C597.337891,641.154114 591.351135,642.917603 584.991394,644.391968 
	C583.203369,644.806519 582.007751,647.340454 580.252380,648.444458 
	C578.155273,649.763550 575.452087,651.841187 573.534729,651.385986 
	C568.694519,650.237061 566.177490,652.575806 564.090454,655.972717 
	C562.356750,658.794556 560.350220,660.157593 556.860718,660.167175 
	C554.826172,660.172729 552.673401,661.622681 550.786865,662.772339 
	C545.078369,666.250916 540.373901,671.858337 532.699707,671.032959 
	C532.375427,670.998108 531.970642,670.976501 531.716370,671.132690 
	C525.569580,674.909119 519.424683,678.689087 513.318787,682.530884 
	C512.377380,683.123291 511.590118,684.713928 510.795502,684.670654 
	C502.603180,684.223755 498.305939,690.737976 492.546570,694.612671 
	C492.140472,694.885803 491.693146,695.485840 491.360657,695.423523 
	C483.225067,693.898071 479.437073,700.608276 474.129669,704.434204 
	C473.746185,704.710510 473.212860,704.776611 472.752228,704.948547 
	C466.795776,707.171387 460.827606,709.363770 454.897247,711.654175 
	C454.014893,711.994995 452.855103,712.646484 452.598633,713.413452 
	C450.803619,718.780945 445.949554,719.239624 441.673309,719.802917 
	C437.404907,720.365173 434.424713,721.020508 430.795319,724.583618 
	C425.340607,729.938904 417.862885,733.510681 409.734131,735.176208 
	C405.528809,736.037842 401.813385,739.207825 397.825775,741.234924 
	C392.631439,743.875488 389.416901,750.254700 382.173553,749.207703 
	C380.695679,748.994080 378.909393,750.566772 377.333496,751.439209 
	C370.576630,755.179871 363.837860,758.953552 357.107574,762.742004 
	C353.671204,764.676392 350.304474,766.737488 346.834656,768.608521 
	C344.524597,769.854126 342.100494,770.893188 339.699280,771.961426 
	C339.109039,772.223938 337.976471,772.049316 337.823853,772.396667 
	C335.435272,777.833923 330.715576,777.861816 325.772919,778.313965 
	C323.675598,778.505859 321.892731,781.101990 319.768555,782.232910 
	C314.061951,785.271240 308.426727,788.578796 302.414154,790.859558 
	C298.446167,792.364746 294.900665,793.472778 294.062988,798.558533 
	C277.974213,798.974426 261.948334,799.034607 245.529083,798.667358 
	C249.174637,795.834656 253.164948,793.342163 257.270172,791.055908 
	C259.834625,789.627686 262.969360,788.984863 265.152252,787.158081 
	C270.195435,782.937500 275.406952,779.762878 282.148743,778.726074 
	C286.369446,778.077026 291.531464,776.673767 294.089050,773.719727 
	C297.792603,769.442200 302.628510,768.256470 307.022675,765.838623 
	C312.916931,762.595459 318.903412,759.520203 324.829407,756.334106 
	C329.707214,753.711731 334.520935,750.967957 339.432556,748.411560 
	C341.322784,747.427734 343.343689,746.511353 345.412170,746.088989 
	C350.952667,744.957764 354.815155,739.213501 361.200012,740.406250 
	C361.530914,740.468079 362.018768,739.449036 362.497101,739.000977 
	C365.630188,736.066345 367.163788,730.455505 373.458160,732.690247 
	C374.122375,732.926147 375.493866,730.850769 376.666351,730.032715 
	C380.551117,727.322632 384.400513,722.631653 388.434814,722.447144 
	C398.394958,721.991699 404.826019,714.899536 413.037476,711.383118 
	C416.272980,709.997498 418.757172,706.661194 422.963867,706.849365 
	C423.636719,706.879456 424.370758,706.121765 425.035004,705.667480 
	C428.622772,703.213440 432.014282,700.398804 435.821228,698.356812 
	C441.072113,695.540283 447.774292,695.562866 451.703339,690.041992 
	C452.250763,689.272827 453.767426,689.061279 454.884186,688.852356 
	C459.443604,687.999512 465.565826,689.748352 465.875153,682.038879 
	C465.880066,681.916504 466.074951,681.762207 466.215759,681.690735 
	C471.224976,679.147522 476.147614,676.406372 481.281921,674.146179 
	C484.913055,672.547546 489.568817,673.236206 491.977234,668.900696 
	C492.321503,668.281006 494.122162,668.562195 495.187714,668.230347 
	C496.870758,667.706299 498.603149,667.196655 500.125793,666.343750 
	C501.541840,665.550598 502.684113,663.471313 503.993805,663.429626 
	C508.624725,663.282043 511.765808,661.639038 515.331421,658.287170 
	C519.999512,653.898865 526.333435,651.158203 532.208984,648.226135 
	C535.671082,646.498413 539.836121,646.192017 543.325562,644.503540 
	C549.659363,641.438599 555.691528,637.756592 561.916016,634.457458 
	C565.100342,632.769653 568.474060,631.441772 571.680176,629.791931 
	C575.549683,627.800781 579.414734,625.775574 583.125793,623.509827 
	C585.936340,621.793823 588.459595,619.613464 591.204834,617.780762 
	C591.972839,617.268005 593.159912,617.420166 594.007446,616.982239 
	C596.530884,615.678101 599.707031,614.784729 601.285706,612.709534 
	C603.524414,609.766724 605.898804,608.691467 609.321655,608.987427 
	C612.730103,609.281982 615.300720,608.314026 617.217163,605.036621 
	C618.098022,603.530334 620.542664,602.788879 622.414856,602.043823 
	C626.048340,600.597961 631.492004,600.440125 633.072510,597.849426 
	C635.534668,593.813538 638.339844,594.261780 641.702942,593.886963 
	C643.151184,593.725647 644.612427,592.654480 645.837891,591.701233 
	C650.680176,587.934265 654.621887,582.714844 662.055664,583.779297 
	C663.743164,584.020874 666.400696,582.072083 667.573669,580.402344 
	C670.301819,576.518677 674.027283,576.135315 678.092468,576.272217 
	C679.901062,576.333069 681.701172,576.646484 683.789185,577.047363 
	C684.961975,578.385498 685.794983,580.446472 686.748779,580.504028 
	C692.054138,580.823792 697.388733,580.657471 703.858826,580.657471 
	C702.158569,577.390869 700.950806,575.070374 699.758911,572.376465 
	C699.170349,571.335449 698.566040,570.667847 697.852539,569.980225 
	C697.743347,569.960144 697.736755,569.738159 697.801270,569.319641 
	C699.065918,566.864014 699.785828,564.085205 701.560791,562.935974 
	C705.976990,560.076660 709.829529,555.981140 715.607239,555.537109 
	C716.806763,555.444946 718.618774,554.619263 718.969238,553.687927 
	C720.501099,549.617126 724.079773,549.922668 727.195190,549.566895 
	C731.101624,549.120728 735.064148,549.164978 739.002441,548.997559 
	C741.659241,554.744751 744.316040,560.491943 746.990051,566.618347 
z"/>
<path fill="#FDF2F2" opacity="1.000000" stroke="none" 
	d="
M381.057983,457.835571 
	C381.487427,457.891052 381.916901,457.946503 382.906586,458.281555 
	C386.252991,459.439606 389.039154,460.318054 391.825317,461.196503 
	C391.825317,461.196503 391.976440,460.995270 391.999542,461.409241 
	C392.999939,462.255280 393.977203,462.687378 394.954498,463.119446 
	C407.088745,471.933563 408.815765,484.121857 405.776642,497.600403 
	C404.195404,504.613098 398.646790,509.613098 388.593567,513.879700 
	C407.279968,520.907959 414.582977,534.499512 411.374207,553.171692 
	C408.782013,568.256104 398.486115,576.190308 382.959961,578.872925 
	C378.198120,579.359497 374.284668,579.855591 370.371216,580.351685 
	C355.726074,580.335449 341.080963,580.319214 325.845642,580.030640 
	C324.903442,578.180542 324.252930,576.604614 324.243164,575.024841 
	C324.010864,537.442505 323.822388,499.859863 323.739716,462.277008 
	C323.735260,460.244415 324.722412,458.209656 325.247955,456.175903 
	C341.081818,456.235077 356.915649,456.294250 373.380859,456.641541 
	C376.360809,457.231628 378.709381,457.533600 381.057983,457.835571 
M388.320953,560.861084 
	C394.842834,554.577515 395.018585,546.643250 394.048889,538.466919 
	C393.228760,531.552002 389.556580,526.396667 383.099274,524.021362 
	C379.175415,522.578003 374.755005,522.058411 370.533905,521.934753 
	C360.628723,521.644531 350.709290,521.841919 340.910950,521.841919 
	C340.910950,537.033264 340.910950,551.602417 340.910950,565.929016 
	C353.538788,565.929016 365.824188,566.254639 378.070984,565.710571 
	C381.316925,565.566345 384.444000,562.746582 388.320953,560.861084 
M340.582764,491.498413 
	C340.582764,496.776276 340.582764,502.054169 340.582764,508.696045 
	C353.035858,507.826569 364.901062,507.325775 376.684540,506.062805 
	C384.849426,505.187683 389.632538,498.864349 389.940033,490.134857 
	C390.270538,480.749786 385.785614,473.197144 377.786224,472.201447 
	C365.696930,470.696625 353.466949,470.322144 340.582733,469.417175 
	C340.582733,477.304352 340.582733,483.901550 340.582764,491.498413 
z"/>
<path fill="#FDF6F6" opacity="1.000000" stroke="none" 
	d="
M526.003418,558.000000 
	C525.792603,558.545288 525.581848,559.090637 525.219727,560.125122 
	C524.693176,561.408997 524.317993,562.203735 523.942749,562.998413 
	C516.256531,573.640686 505.686646,579.123352 492.726318,579.363281 
	C475.325104,579.685547 457.913452,579.443115 439.772400,579.443115 
	C439.772400,557.567200 439.772400,535.504333 439.657654,512.876953 
	C439.542938,493.739716 439.542938,475.166962 439.542938,456.418274 
	C456.629974,456.418274 472.942261,455.765015 489.169373,456.658905 
	C499.187988,457.210785 509.201416,459.942963 516.214233,468.317444 
	C518.276001,470.779510 519.782349,473.706573 521.684448,477.176605 
	C521.966736,480.088959 522.108276,482.245270 522.249023,484.401611 
	C523.116821,497.696564 519.253723,508.155640 505.371826,512.653687 
	C504.757080,512.852905 504.260773,513.417786 503.315826,514.093872 
	C514.113037,517.786865 522.914124,523.194519 525.544312,534.343323 
	C527.038879,540.678284 526.734802,547.437500 527.240662,554.005676 
	C527.062866,554.421265 526.885010,554.836853 526.495605,555.748474 
	C526.190430,556.829651 526.096924,557.414856 526.003418,558.000000 
M507.825958,556.197815 
	C508.034302,555.744446 508.229980,555.284790 508.452881,554.838745 
	C513.472412,544.794067 511.095703,527.061951 497.119843,523.017456 
	C492.919617,521.801941 488.344818,521.583313 483.927826,521.476196 
	C474.715027,521.252991 465.492981,521.408691 456.210999,521.408691 
	C456.210999,536.860718 456.210999,551.450806 456.210999,566.421387 
	C457.816467,566.598572 459.266663,566.915039 460.711700,566.893005 
	C470.846130,566.738770 480.982635,566.610657 491.112122,566.279846 
	C498.161255,566.049744 503.631012,562.771790 507.825958,556.197815 
M464.614105,470.214325 
	C461.865326,470.214325 459.116577,470.214325 456.336853,470.214325 
	C456.336853,483.205780 456.336853,495.298187 456.336853,508.119995 
	C469.077240,507.340637 481.653290,509.828094 494.054413,506.119995 
	C502.614136,503.560486 506.484039,497.321777 505.829681,486.699768 
	C505.358124,479.045074 499.596069,472.572540 491.839020,471.825989 
	C483.116608,470.986542 474.338440,470.726471 464.614105,470.214325 
z"/>
<path fill="#FDF4F4" opacity="1.000000" stroke="none" 
	d="
M222.493423,548.853882 
	C220.026627,552.565613 217.712158,556.130920 216.077103,559.984558 
	C213.574371,565.883179 211.586578,571.998657 209.257111,577.974121 
	C208.904312,578.879089 207.910446,580.161560 207.173355,580.188599 
	C201.953079,580.380615 196.722443,580.290771 190.780289,580.290771 
	C196.976959,564.546753 202.858887,549.832642 208.563599,535.050171 
	C215.774185,516.365662 222.835983,497.623749 229.971329,478.910156 
	C232.419952,472.488220 234.946014,466.095306 237.336044,459.651794 
	C238.271210,457.130615 239.759644,456.044067 242.553329,456.216736 
	C246.368851,456.452576 250.262863,455.902557 254.017059,456.436157 
	C255.805023,456.690308 258.239075,458.318604 258.868164,459.918915 
	C268.444122,484.278961 277.770905,508.736969 287.152710,533.173279 
	C293.064667,548.571838 298.971375,563.972473 305.218170,580.252380 
	C299.607513,580.252380 294.548492,580.410767 289.516663,580.111755 
	C288.569031,580.055481 287.360779,578.317505 286.900330,577.115173 
	C283.893005,569.263000 280.848297,561.412659 278.261108,553.417603 
	C277.063599,549.717163 275.126923,548.666199 271.408813,548.710999 
	C255.257736,548.905396 239.103287,548.820190 222.493423,548.853882 
M266.564667,522.820679 
	C266.269867,521.699097 266.069550,520.542175 265.665924,519.461243 
	C260.446716,505.484375 255.212296,491.513153 249.920547,477.563690 
	C249.631271,476.801117 248.803024,476.242981 248.225662,475.589691 
	C247.552094,476.363281 246.596329,477.028534 246.250900,477.928131 
	C244.071655,483.603546 242.042435,489.336304 239.936310,495.040070 
	C235.179489,507.922363 230.406815,520.798828 225.517120,534.011230 
	C240.925308,534.011230 255.661774,534.011230 270.828156,534.011230 
	C269.348541,530.028625 268.139374,526.773926 266.564667,522.820679 
z"/>
<path fill="#FDF2F2" opacity="1.000000" stroke="none" 
	d="
M102.925095,566.385620 
	C118.941078,566.373291 134.957047,566.360962 151.578537,566.728394 
	C153.789459,567.389221 155.394882,567.670410 157.090698,568.278931 
	C158.823486,570.620361 160.088806,570.362915 161.468323,567.958618 
	C166.434326,567.964905 170.943130,567.813049 175.423553,568.101807 
	C176.917145,568.198059 179.492065,569.328369 179.559174,570.150391 
	C179.713104,572.035645 179.081039,574.384827 177.904785,575.854980 
	C176.929398,577.074219 174.749649,577.789246 173.052322,577.893250 
	C164.925308,578.391296 156.782623,578.812195 148.642334,578.879822 
	C128.153564,579.049988 107.661430,578.889099 87.174553,579.158508 
	C82.520134,579.219727 80.270622,578.130066 80.948074,573.119080 
	C81.257889,570.827393 81.042633,568.464844 81.065506,566.134399 
	C105.146301,536.533630 129.231140,506.936157 153.296875,477.323151 
	C154.606384,475.711761 155.755981,473.970428 158.068680,470.794617 
	C131.535965,470.794617 106.480583,470.794617 81.494774,470.794617 
	C81.022423,453.138458 79.847740,456.417572 93.628052,456.325470 
	C120.605141,456.145142 147.584824,456.356934 174.561981,456.182312 
	C178.721741,456.155365 179.976288,457.385071 180.089630,461.524872 
	C180.237518,466.927612 178.664352,471.070312 175.167206,475.295074 
	C153.715897,501.209747 132.560059,527.369019 110.725800,553.711426 
	C108.732956,555.934509 107.320145,557.892944 105.907318,559.851379 
	C105.907318,559.851379 105.956093,559.910339 105.651260,560.077576 
	C104.847618,561.051880 104.348808,561.858887 103.849991,562.665894 
	C103.849976,562.665894 103.865059,562.825012 103.454788,562.864868 
	C102.371208,563.882935 101.697884,564.861267 101.024567,565.839539 
	C101.658073,566.021606 102.291580,566.203613 102.925095,566.385620 
z"/>
<path fill="#FDF3F3" opacity="1.000000" stroke="none" 
	d="
M697.736755,569.738159 
	C697.736755,569.738159 697.743347,569.960144 697.879272,570.341736 
	C698.591125,571.398865 699.167053,572.074402 699.743042,572.749939 
	C700.950806,575.070374 702.158569,577.390869 703.858826,580.657471 
	C697.388733,580.657471 692.054138,580.823792 686.748779,580.504028 
	C685.794983,580.446472 684.961975,578.385498 683.768188,576.674316 
	C673.007446,560.361450 662.551880,544.623657 651.939575,528.650085 
	C650.901855,529.606201 650.497681,529.857300 650.257141,530.217590 
	C640.127747,545.394226 630.045654,560.602661 619.849976,575.734497 
	C618.726746,577.401672 617.078918,579.701965 615.475708,579.875916 
	C610.493713,580.416199 605.415955,580.073669 599.545593,580.073669 
	C601.146484,577.086914 602.213074,575.096924 603.279663,573.106934 
	C607.031677,567.852051 610.868835,562.655396 614.517761,557.329834 
	C621.764771,546.752869 628.910156,536.106384 636.089355,525.483032 
	C636.548035,524.804321 636.936768,524.078308 637.620361,522.881165 
	C638.295898,521.592163 638.709167,520.796326 639.122437,520.000549 
	C640.094055,517.789062 641.065613,515.577576 641.528687,512.822510 
	C640.402710,511.667542 639.785217,511.056244 639.167725,510.444916 
	C639.167725,510.444916 639.308777,510.174561 639.211792,509.724854 
	C638.495728,508.598999 637.876587,507.922791 637.257446,507.246613 
	C635.656982,504.642700 634.056519,502.038788 632.202026,498.865662 
	C629.858459,495.241577 627.810364,492.157349 625.670532,489.138153 
	C621.904663,483.824677 618.082764,478.550842 614.284302,473.260406 
	C611.166565,467.889526 608.048889,462.518616 604.433838,456.290894 
	C610.582336,456.290894 615.704773,456.025116 620.768005,456.455688 
	C622.252258,456.581909 623.929443,458.446991 624.904907,459.920929 
	C633.353577,472.687714 641.664551,485.545685 650.007324,498.382507 
	C650.541321,499.204163 650.998230,500.075836 651.897400,501.624115 
	C657.086060,493.961365 661.562378,487.433685 665.950500,480.847290 
	C670.578735,473.900482 675.298401,467.003845 679.615601,459.866028 
	C681.293152,457.092621 683.167053,456.067596 686.263184,456.224274 
	C690.224976,456.424805 694.204651,456.273010 698.633728,456.273010 
	C698.315979,457.678070 698.080933,458.717529 697.415710,460.073792 
	C687.755371,474.197266 678.523560,488.002960 669.295898,501.811340 
	C666.581604,505.872986 661.746582,509.944489 661.750977,514.007324 
	C661.755615,518.346497 666.154541,522.800293 668.956909,526.988953 
	C673.065491,533.129944 677.460022,539.079651 681.776123,545.347473 
	C681.819458,545.584045 682.061401,545.999817 682.026428,546.354004 
	C682.594360,547.365601 683.197266,548.023010 683.798218,549.006226 
	C685.562317,551.887939 687.328369,554.443848 689.084595,557.332153 
	C689.682312,558.204956 690.289917,558.745422 691.000305,559.604858 
	C693.314331,563.195251 695.525574,566.466675 697.736755,569.738159 
z"/>
<path fill="#CA0505" opacity="1.000000" stroke="none" 
	d="
M681.732727,545.110901 
	C677.460022,539.079651 673.065491,533.129944 668.956909,526.988953 
	C666.154541,522.800293 661.755615,518.346497 661.750977,514.007324 
	C661.746582,509.944489 666.581604,505.872986 669.295898,501.811340 
	C678.523560,488.002960 687.755371,474.197266 697.363403,460.341309 
	C703.493042,472.027130 709.362488,483.706329 714.965088,495.512238 
	C721.064697,508.365631 726.916504,521.336609 732.591187,534.562866 
	C730.786377,532.614075 728.686584,530.549927 727.867188,528.063782 
	C726.129578,522.791504 721.582764,523.442688 718.049377,523.496094 
	C714.663330,523.547180 712.372986,526.219055 711.824707,530.153625 
	C711.629211,531.556885 709.339722,533.942627 708.430054,533.760620 
	C703.390625,532.752258 699.811218,534.954895 696.157532,537.859741 
	C691.888672,541.253601 685.344360,540.283630 681.732727,545.110901 
z"/>
<path fill="#CD0404" opacity="1.000000" stroke="none" 
	d="
M614.180725,473.664276 
	C618.082764,478.550842 621.904663,483.824677 625.670532,489.138153 
	C627.810364,492.157349 629.858459,495.241577 631.939575,498.648804 
	C629.929688,501.014008 628.183655,503.408661 625.870911,504.956818 
	C621.623108,507.800446 617.113281,510.281647 612.584290,512.670410 
	C602.511597,517.983154 592.359985,523.146179 582.239258,528.367615 
	C581.650818,528.671204 581.055237,529.191040 580.454407,529.203735 
	C576.055176,529.296936 574.018311,532.096008 572.240234,535.428955 
	C571.787048,520.126282 571.700195,505.167633 571.818359,490.210602 
	C571.898254,480.097656 572.266907,469.987000 572.506409,459.875305 
	C573.006592,461.709717 573.885071,463.533264 573.938171,465.380524 
	C574.118347,471.656403 574.006958,477.940704 574.006958,485.002106 
	C585.338440,482.788452 595.906067,480.936157 606.349426,478.541748 
	C609.121521,477.906158 611.511658,475.604706 614.180725,473.664276 
z"/>
<path fill="#FDF6F6" opacity="1.000000" stroke="none" 
	d="
M572.369690,459.612244 
	C572.266907,469.987000 571.898254,480.097656 571.818359,490.210602 
	C571.700195,505.167633 571.787048,520.126282 571.894531,535.542114 
	C571.920227,548.977905 571.687012,561.957764 571.847473,574.932617 
	C571.895874,578.842468 570.871460,580.431213 566.829102,580.088562 
	C563.378784,579.796204 559.884033,580.028137 555.645081,580.028137 
	C555.645081,561.345520 555.645081,543.079712 555.651672,524.008911 
	C555.538696,510.087036 555.276001,496.969391 555.348145,483.853577 
	C555.399048,474.594696 555.904297,465.338379 556.206665,456.080902 
	C560.995605,456.147095 565.784485,456.213257 571.060059,456.514313 
	C571.844177,457.234192 572.141541,457.719147 572.438965,458.204132 
	C572.370300,458.585815 572.301636,458.967499 572.369690,459.612244 
z"/>
<path fill="#D00707" opacity="1.000000" stroke="none" 
	d="
M555.808472,456.119385 
	C555.904297,465.338379 555.399048,474.594696 555.348145,483.853577 
	C555.276001,496.969391 555.538696,510.087036 555.525879,523.589600 
	C554.054688,525.131836 551.548218,526.311157 551.570251,527.441162 
	C551.694458,533.806702 547.059265,535.197205 542.600708,536.981323 
	C541.386414,537.467224 539.620300,537.819580 539.164673,538.750549 
	C536.568176,544.056030 533.482239,542.900513 529.984802,539.297241 
	C529.247192,544.424500 528.578552,549.071960 527.575317,553.862549 
	C526.734802,547.437500 527.038879,540.678284 525.544312,534.343323 
	C522.914124,523.194519 514.113037,517.786865 503.315826,514.093872 
	C504.260773,513.417786 504.757080,512.852905 505.371826,512.653687 
	C519.253723,508.155640 523.116821,497.696564 522.249023,484.401611 
	C522.108276,482.245270 521.966736,480.088959 521.892090,477.467590 
	C522.648132,479.490479 523.877258,481.966278 523.933777,484.468506 
	C524.175598,495.170990 524.499634,495.422577 534.899170,492.580841 
	C539.184814,491.409729 543.613831,490.735229 548.002075,489.976379 
	C551.504639,489.370667 553.131165,487.602509 553.047913,483.894196 
	C552.880371,476.430939 552.847717,468.955902 553.111145,461.498108 
	C553.174927,459.693207 554.607361,457.936646 555.808472,456.119385 
z"/>
<path fill="#C60504" opacity="1.000000" stroke="none" 
	d="
M681.776123,545.347473 
	C685.344360,540.283630 691.888672,541.253601 696.157532,537.859741 
	C699.811218,534.954895 703.390625,532.752258 708.430054,533.760620 
	C709.339722,533.942627 711.629211,531.556885 711.824707,530.153625 
	C712.372986,526.219055 714.663330,523.547180 718.049377,523.496094 
	C721.582764,523.442688 726.129578,522.791504 727.867188,528.063782 
	C728.686584,530.549927 730.786377,532.614075 732.653015,534.934692 
	C733.000000,535.000000 733.002563,535.498047 733.071655,536.049683 
	C733.758057,537.067505 734.375427,537.533752 734.992798,538.000000 
	C736.223938,541.446045 737.455078,544.892151 738.844360,548.667908 
	C735.064148,549.164978 731.101624,549.120728 727.195190,549.566895 
	C724.079773,549.922668 720.501099,549.617126 718.969238,553.687927 
	C718.618774,554.619263 716.806763,555.444946 715.607239,555.537109 
	C709.829529,555.981140 705.976990,560.076660 701.560791,562.935974 
	C699.785828,564.085205 699.065918,566.864014 697.801270,569.319641 
	C695.525574,566.466675 693.314331,563.195251 690.970520,559.282288 
	C690.256775,558.093750 689.675598,557.546753 689.094421,556.999756 
	C687.328369,554.443848 685.562317,551.887939 683.800537,548.644897 
	C683.223694,547.305176 682.642517,546.652527 682.061401,545.999817 
	C682.061401,545.999817 681.819458,545.584045 681.776123,545.347473 
z"/>
<path fill="#F4BFBF" opacity="1.000000" stroke="none" 
	d="
M80.758667,566.355469 
	C81.042633,568.464844 81.257889,570.827393 80.948074,573.119080 
	C80.270622,578.130066 82.520134,579.219727 87.174553,579.158508 
	C107.661430,578.889099 128.153564,579.049988 148.642334,578.879822 
	C156.782623,578.812195 164.925308,578.391296 173.052322,577.893250 
	C174.749649,577.789246 176.929398,577.074219 177.904785,575.854980 
	C179.081039,574.384827 179.713104,572.035645 179.559174,570.150391 
	C179.492065,569.328369 176.917145,568.198059 175.423553,568.101807 
	C170.943130,567.813049 166.434326,567.964905 161.068710,567.937622 
	C159.133972,567.937439 158.067139,567.944458 157.000290,567.951538 
	C155.394882,567.670410 153.789459,567.389221 152.034882,566.797913 
	C160.868713,566.395630 169.852585,566.223328 178.833527,566.320618 
	C179.870163,566.331909 181.670059,567.752686 181.776535,568.674744 
	C182.137070,571.796143 182.363632,575.099426 181.646149,578.094788 
	C181.370361,579.246094 178.425369,580.440979 176.686630,580.455872 
	C153.031662,580.659363 129.374954,580.662598 105.718651,580.706543 
	C98.388535,580.720215 91.055954,580.596924 83.729286,580.756409 
	C80.307549,580.830872 78.690498,579.663208 79.179665,576.129272 
	C79.620087,572.947327 80.028999,569.760986 80.758667,566.355469 
z"/>
<path fill="#DD3F3F" opacity="1.000000" stroke="none" 
	d="
M324.838409,456.093018 
	C324.722412,458.209656 323.735260,460.244415 323.739716,462.277008 
	C323.822388,499.859863 324.010864,537.442505 324.243164,575.024841 
	C324.252930,576.604614 324.903442,578.180542 325.423096,580.119385 
	C321.226227,581.020447 322.252411,577.680054 322.237030,575.491028 
	C322.129791,560.189758 322.150330,544.887573 322.144287,529.585632 
	C322.135345,506.965363 322.083252,484.344727 322.235626,461.725494 
	C322.248474,459.815552 323.664642,457.915039 324.838409,456.093018 
z"/>
<path fill="#DD3F3F" opacity="1.000000" stroke="none" 
	d="
M370.832092,580.567871 
	C374.284668,579.855591 378.198120,579.359497 382.562103,578.947021 
	C379.106079,579.615173 375.199493,580.199646 370.832092,580.567871 
z"/>
<path fill="#DD3F3F" opacity="1.000000" stroke="none" 
	d="
M391.773865,460.851349 
	C389.039154,460.318054 386.252991,459.439606 383.231934,458.292114 
	C385.905487,458.850769 388.813965,459.678467 391.773865,460.851349 
z"/>
<path fill="#F4BFBF" opacity="1.000000" stroke="none" 
	d="
M106.150345,559.636963 
	C107.320145,557.892944 108.732956,555.934509 110.485977,553.948486 
	C109.348572,555.754822 107.870972,557.588684 106.150345,559.636963 
z"/>
<path fill="#DD3F3F" opacity="1.000000" stroke="none" 
	d="
M380.869598,457.504883 
	C378.709381,457.533600 376.360809,457.231628 373.825043,456.598999 
	C375.985657,456.570343 378.333435,456.872284 380.869598,457.504883 
z"/>
<path fill="#F4BFBF" opacity="1.000000" stroke="none" 
	d="
M102.712402,566.049683 
	C102.291580,566.203613 101.658073,566.021606 101.024567,565.839539 
	C101.697884,564.861267 102.371208,563.882935 103.377815,562.886230 
	C103.307304,563.816406 102.903503,564.765076 102.712402,566.049683 
z"/>
<path fill="#F4BFBF" opacity="1.000000" stroke="none" 
	d="
M104.067024,562.453003 
	C104.348808,561.858887 104.847618,561.051880 105.620193,560.099915 
	C105.357307,560.716736 104.820679,561.478394 104.067024,562.453003 
z"/>
<path fill="#DD3F3F" opacity="1.000000" stroke="none" 
	d="
M394.767456,462.835541 
	C393.977203,462.687378 392.999939,462.255280 391.918671,461.506470 
	C392.736603,461.643677 393.658539,462.097656 394.767456,462.835541 
z"/>
<path fill="#CD0404" opacity="1.000000" stroke="none" 
	d="
M572.694458,458.021423 
	C572.141541,457.719147 571.844177,457.234192 571.487305,456.461304 
	C571.935242,456.728516 572.442566,457.283630 572.694458,458.021423 
z"/>
<path fill="#BF0404" opacity="1.000000" stroke="none" 
	d="
M782.921509,640.698975 
	C782.371094,640.530701 781.756042,640.059021 781.076660,639.282593 
	C781.627197,639.450317 782.242065,639.922974 782.921509,640.698975 
z"/>
<path fill="#CA0505" opacity="1.000000" stroke="none" 
	d="
M734.925049,537.697510 
	C734.375427,537.533752 733.758057,537.067505 733.072449,536.298706 
	C733.621887,536.462463 734.239563,536.928772 734.925049,537.697510 
z"/>
<path fill="#C70303" opacity="1.000000" stroke="none" 
	d="
M602.877197,573.085388 
	C602.213074,575.096924 601.146484,577.086914 599.545593,580.073669 
	C605.415955,580.073669 610.493713,580.416199 615.475708,579.875916 
	C617.078918,579.701965 618.726746,577.401672 619.849976,575.734497 
	C630.045654,560.602661 640.127747,545.394226 650.257141,530.217590 
	C650.497681,529.857300 650.901855,529.606201 651.939575,528.650085 
	C662.551880,544.623657 673.007446,560.361450 683.484131,576.472290 
	C681.701172,576.646484 679.901062,576.333069 678.092468,576.272217 
	C674.027283,576.135315 670.301819,576.518677 667.573669,580.402344 
	C666.400696,582.072083 663.743164,584.020874 662.055664,583.779297 
	C654.621887,582.714844 650.680176,587.934265 645.837891,591.701233 
	C644.612427,592.654480 643.151184,593.725647 641.702942,593.886963 
	C638.339844,594.261780 635.534668,593.813538 633.072510,597.849426 
	C631.492004,600.440125 626.048340,600.597961 622.414856,602.043823 
	C620.542664,602.788879 618.098022,603.530334 617.217163,605.036621 
	C615.300720,608.314026 612.730103,609.281982 609.321655,608.987427 
	C605.898804,608.691467 603.524414,609.766724 601.285706,612.709534 
	C599.707031,614.784729 596.530884,615.678101 594.007446,616.982239 
	C593.159912,617.420166 591.972839,617.268005 591.204834,617.780762 
	C588.459595,619.613464 585.936340,621.793823 583.125793,623.509827 
	C579.414734,625.775574 575.549683,627.800781 571.680176,629.791931 
	C568.474060,631.441772 565.100342,632.769653 561.916016,634.457458 
	C555.691528,637.756592 549.659363,641.438599 543.325562,644.503540 
	C539.836121,646.192017 535.671082,646.498413 532.208984,648.226135 
	C526.333435,651.158203 519.999512,653.898865 515.331421,658.287170 
	C511.765808,661.639038 508.624725,663.282043 503.993805,663.429626 
	C502.684113,663.471313 501.541840,665.550598 500.125793,666.343750 
	C498.603149,667.196655 496.870758,667.706299 495.187714,668.230347 
	C494.122162,668.562195 492.321503,668.281006 491.977234,668.900696 
	C489.568817,673.236206 484.913055,672.547546 481.281921,674.146179 
	C476.147614,676.406372 471.224976,679.147522 466.215759,681.690735 
	C466.074951,681.762207 465.880066,681.916504 465.875153,682.038879 
	C465.565826,689.748352 459.443604,687.999512 454.884186,688.852356 
	C453.767426,689.061279 452.250763,689.272827 451.703339,690.041992 
	C447.774292,695.562866 441.072113,695.540283 435.821228,698.356812 
	C432.014282,700.398804 428.622772,703.213440 425.035004,705.667480 
	C424.370758,706.121765 423.636719,706.879456 422.963867,706.849365 
	C418.757172,706.661194 416.272980,709.997498 413.037476,711.383118 
	C404.826019,714.899536 398.394958,721.991699 388.434814,722.447144 
	C384.400513,722.631653 380.551117,727.322632 376.666351,730.032715 
	C375.493866,730.850769 374.122375,732.926147 373.458160,732.690247 
	C367.163788,730.455505 365.630188,736.066345 362.497101,739.000977 
	C362.018768,739.449036 361.530914,740.468079 361.200012,740.406250 
	C354.815155,739.213501 350.952667,744.957764 345.412170,746.088989 
	C343.343689,746.511353 341.322784,747.427734 339.432556,748.411560 
	C334.520935,750.967957 329.707214,753.711731 324.829407,756.334106 
	C318.903412,759.520203 312.916931,762.595459 307.022675,765.838623 
	C302.628510,768.256470 297.792603,769.442200 294.089050,773.719727 
	C291.531464,776.673767 286.369446,778.077026 282.148743,778.726074 
	C275.406952,779.762878 270.195435,782.937500 265.152252,787.158081 
	C262.969360,788.984863 259.834625,789.627686 257.270172,791.055908 
	C253.164948,793.342163 249.174637,795.834656 245.068054,798.577271 
	C220.307526,798.975891 195.614685,799.037231 170.460861,799.007812 
	C169.688461,795.445862 170.194626,793.533752 174.604752,792.485901 
	C178.595459,791.537720 182.091766,787.953430 185.455093,785.115540 
	C187.695267,783.225220 189.215622,780.912781 192.626801,783.232483 
	C193.483719,783.815308 196.448929,783.130798 196.817688,782.303406 
	C199.360657,776.597046 205.430130,776.675659 209.780197,774.067017 
	C214.678894,771.129333 220.007095,768.906128 225.159821,766.395447 
	C226.014191,765.979187 227.220001,765.128235 227.765686,765.417419 
	C232.113708,767.721497 234.720581,764.516357 237.931671,762.685486 
	C242.326614,760.179565 247.013626,758.191711 251.509552,755.855042 
	C254.408447,754.348328 257.145386,752.531189 260.036011,751.006897 
	C262.601593,749.653870 265.173187,748.119690 267.933563,747.376648 
	C271.494171,746.418091 273.963013,744.631836 276.865601,742.222473 
	C281.298920,738.542297 287.732941,737.254822 293.349152,735.031189 
	C294.549042,734.556091 296.685272,734.803223 297.032959,734.072205 
	C300.520111,726.739441 310.298492,728.353699 314.311523,721.777344 
	C314.765533,721.033325 316.771881,721.032104 318.056519,721.039001 
	C321.516418,721.057678 324.234802,720.036072 325.716553,716.631348 
	C326.809998,714.118835 328.405945,713.745239 330.936035,715.080200 
	C331.790558,715.531067 334.103027,714.719666 334.769562,713.785889 
	C339.642365,706.959167 346.749603,704.709045 354.496704,703.560303 
	C355.461639,703.417175 356.577362,703.321655 357.315887,702.782898 
	C361.303741,699.873169 364.899597,696.270935 369.206665,694.000244 
	C373.081726,691.957275 375.207245,685.300293 381.563538,688.716187 
	C382.079773,688.993652 383.865173,687.705688 384.525330,686.768066 
	C386.419647,684.077576 388.112000,682.610046 391.943909,683.939331 
	C393.759979,684.569397 396.562958,682.312317 398.933380,681.401001 
	C400.674652,680.731628 402.439667,680.124146 404.194000,679.488647 
	C404.925140,679.223755 406.198334,679.094543 406.304932,678.671753 
	C407.746368,672.954285 413.306244,672.994202 417.170044,670.659424 
	C419.531677,669.232361 421.530884,667.145813 423.979950,665.937134 
	C427.763275,664.070007 431.941895,662.985046 435.666962,661.025024 
	C438.338287,659.619324 440.542419,657.325745 443.870636,654.708069 
	C444.538727,656.184998 445.232971,657.719788 445.896606,659.186768 
	C448.726898,656.967468 450.642365,655.465454 452.574646,653.950256 
	C452.073273,648.039429 452.450012,647.805847 458.337097,648.548096 
	C462.039612,649.014893 464.775787,647.689026 467.887299,644.957642 
	C473.186462,640.305664 479.351196,635.526917 485.935852,633.814392 
	C490.942474,632.512268 495.148621,632.385620 498.951172,627.892700 
	C501.360687,625.045715 506.533051,624.619873 510.337250,622.833435 
	C512.071594,622.018921 513.417297,620.414246 515.081177,619.400879 
	C516.489685,618.543030 518.085327,617.976868 519.632629,617.369690 
	C520.342224,617.091309 521.510681,617.285583 521.832947,616.821960 
	C526.464722,610.158264 534.370850,609.814514 540.881348,606.796265 
	C542.678406,605.963074 545.421631,605.405396 546.001038,604.005432 
	C549.098145,596.522217 556.807251,596.354614 562.485596,593.126770 
	C569.412109,589.189392 577.183777,587.112427 583.820801,582.190918 
	C589.288391,578.136597 596.201965,576.032288 602.877197,573.085388 
z"/>
<path fill="#D00707" opacity="1.000000" stroke="none" 
	d="
M524.298950,562.880371 
	C524.317993,562.203735 524.693176,561.408997 525.361084,560.393555 
	C525.320862,561.035950 524.987976,561.899109 524.298950,562.880371 
z"/>
<path fill="#CD0404" opacity="1.000000" stroke="none" 
	d="
M638.766418,520.108521 
	C638.709167,520.796326 638.295898,521.592163 637.556091,522.550781 
	C637.623169,521.881165 638.016785,521.048828 638.766418,520.108521 
z"/>
<path fill="#D00707" opacity="1.000000" stroke="none" 
	d="
M526.276306,557.949768 
	C526.096924,557.414856 526.190430,556.829651 526.557983,556.091064 
	C526.737732,556.591614 526.643494,557.245605 526.276306,557.949768 
z"/>
<path fill="#CD0404" opacity="1.000000" stroke="none" 
	d="
M637.241455,507.622711 
	C637.876587,507.922791 638.495728,508.598999 639.086792,509.637512 
	C638.447693,509.332855 637.836548,508.665833 637.241455,507.622711 
z"/>
<path fill="#CD0404" opacity="1.000000" stroke="none" 
	d="
M639.182495,510.805664 
	C639.785217,511.056244 640.402710,511.667542 641.056152,512.639282 
	C640.460449,512.388611 639.828857,511.777496 639.182495,510.805664 
z"/>
<path fill="#C60504" opacity="1.000000" stroke="none" 
	d="
M699.758911,572.376465 
	C699.167053,572.074402 698.591125,571.398865 697.988464,570.361816 
	C698.566040,570.667847 699.170349,571.335449 699.758911,572.376465 
z"/>
<path fill="#D30404" opacity="1.000000" stroke="none" 
	d="
M387.973297,561.008240 
	C384.444000,562.746582 381.316925,565.566345 378.070984,565.710571 
	C365.824188,566.254639 353.538788,565.929016 340.910950,565.929016 
	C340.910950,551.602417 340.910950,537.033264 340.910950,521.841919 
	C350.709290,521.841919 360.628723,521.644531 370.533905,521.934753 
	C374.755005,522.058411 379.175415,522.578003 383.099274,524.021362 
	C389.556580,526.396667 393.228760,531.552002 394.048889,538.466919 
	C395.018585,546.643250 394.842834,554.577515 387.973297,561.008240 
z"/>
<path fill="#D50606" opacity="1.000000" stroke="none" 
	d="
M340.582764,490.998596 
	C340.582733,483.901550 340.582733,477.304352 340.582733,469.417175 
	C353.466949,470.322144 365.696930,470.696625 377.786224,472.201447 
	C385.785614,473.197144 390.270538,480.749786 389.940033,490.134857 
	C389.632538,498.864349 384.849426,505.187683 376.684540,506.062805 
	C364.901062,507.325775 353.035858,507.826569 340.582764,508.696045 
	C340.582764,502.054169 340.582764,496.776276 340.582764,490.998596 
z"/>
<path fill="#D00707" opacity="1.000000" stroke="none" 
	d="
M507.682983,556.549011 
	C503.631012,562.771790 498.161255,566.049744 491.112122,566.279846 
	C480.982635,566.610657 470.846130,566.738770 460.711700,566.893005 
	C459.266663,566.915039 457.816467,566.598572 456.210999,566.421387 
	C456.210999,551.450806 456.210999,536.860718 456.210999,521.408691 
	C465.492981,521.408691 474.715027,521.252991 483.927826,521.476196 
	C488.344818,521.583313 492.919617,521.801941 497.119843,523.017456 
	C511.095703,527.061951 513.472412,544.794067 508.452881,554.838745 
	C508.229980,555.284790 508.034302,555.744446 507.682983,556.549011 
z"/>
<path fill="#D50808" opacity="1.000000" stroke="none" 
	d="
M465.099304,470.214355 
	C474.338440,470.726471 483.116608,470.986542 491.839020,471.825989 
	C499.596069,472.572540 505.358124,479.045074 505.829681,486.699768 
	C506.484039,497.321777 502.614136,503.560486 494.054413,506.119995 
	C481.653290,509.828094 469.077240,507.340637 456.336853,508.119995 
	C456.336853,495.298187 456.336853,483.205780 456.336853,470.214325 
	C459.116577,470.214325 461.865326,470.214325 465.099304,470.214355 
z"/>
<path fill="#D50B0B" opacity="1.000000" stroke="none" 
	d="
M266.747437,523.169983 
	C268.139374,526.773926 269.348541,530.028625 270.828156,534.011230 
	C255.661774,534.011230 240.925308,534.011230 225.517120,534.011230 
	C230.406815,520.798828 235.179489,507.922363 239.936310,495.040070 
	C242.042435,489.336304 244.071655,483.603546 246.250900,477.928131 
	C246.596329,477.028534 247.552094,476.363281 248.225662,475.589691 
	C248.803024,476.242981 249.631271,476.801117 249.920547,477.563690 
	C255.212296,491.513153 260.446716,505.484375 265.665924,519.461243 
	C266.069550,520.542175 266.269867,521.699097 266.747437,523.169983 
z"/>
<path fill="#FCEFEF" opacity="1.000000" stroke="none" 
	d="
M157.090698,568.278931 
	C158.067139,567.944458 159.133972,567.937439 160.600433,567.951355 
	C160.088806,570.362915 158.823486,570.620361 157.090698,568.278931 
z"/>
<path fill="#CA0505" opacity="1.000000" stroke="none" 
	d="
M689.084595,557.332153 
	C689.675598,557.546753 690.256775,558.093750 690.867737,558.963257 
	C690.289917,558.745422 689.682312,558.204956 689.084595,557.332153 
z"/>
<path fill="#CA0505" opacity="1.000000" stroke="none" 
	d="
M682.026428,546.354004 
	C682.642517,546.652527 683.223694,547.305176 683.802490,548.319153 
	C683.197266,548.023010 682.594360,547.365601 682.026428,546.354004 
z"/>
</svg>