<svg version="1.1" id="Layer_1" xmlns="http://www.w3.org/2000/svg" xmlns:xlink="http://www.w3.org/1999/xlink" x="0px" y="0px"
	 width="100%" viewBox="0 0 1743 1900" enable-background="new 0 0 1743 1900" xml:space="preserve">
<path fill="#FEFEFE" opacity="1.000000" stroke="none" 
	d="
M972.000000,1.000000 
	C1229.310425,1.000000 1486.620728,1.000000 1743.931152,1.000001 
	C1743.954102,1.143707 1743.997192,1.287413 1743.997192,1.431119 
	C1744.000000,634.541321 1744.000000,1267.651489 1744.000000,1900.880859 
	C1163.000000,1900.880859 582.000000,1900.880859 1.000004,1900.887207 
	C1.000000,1872.229736 1.000000,1843.565796 1.342984,1814.657471 
	C7.123793,1862.172119 45.001244,1895.132202 86.635689,1897.898682 
	C129.629333,1900.755371 173.592331,1873.296875 180.964233,1839.910278 
	C173.759369,1839.910278 166.650223,1840.066162 159.553329,1839.839111 
	C156.381058,1839.737671 154.532410,1840.686646 152.704773,1843.427368 
	C136.904388,1867.121338 109.105743,1878.480469 81.005463,1872.981201 
	C47.361897,1866.397339 22.692253,1834.290161 25.248297,1800.414062 
	C27.953823,1764.556763 57.405834,1735.754272 92.713776,1735.189941 
	C118.184319,1734.782715 138.300308,1745.540771 152.954559,1766.447144 
	C153.939697,1767.852661 155.317703,1769.980591 156.581909,1770.030640 
	C164.787949,1770.355347 173.013077,1770.197144 181.565735,1770.197144 
	C181.186050,1768.834961 181.084366,1768.175659 180.825882,1767.585083 
	C165.229630,1731.953125 129.856689,1709.264648 90.524384,1711.454590 
	C51.099567,1713.649536 18.532747,1738.253174 6.226756,1774.974121 
	C3.939343,1781.800049 2.714980,1788.982300 0.999990,1796.000000 
	C1.000000,1197.762085 1.000000,599.524231 1.000000,1.000000 
	C242.365997,1.000000 483.732086,1.000000 725.552246,1.271719 
	C726.045776,1.720234 726.085327,1.897030 726.069214,2.535006 
	C726.013672,146.254501 726.013672,289.512817 726.013672,433.420532 
	C780.616699,433.420532 834.649902,433.420532 888.499390,433.420532 
	C888.499390,524.957031 888.499390,615.842773 888.499390,706.654968 
	C861.129211,706.654968 834.182129,706.654968 806.620605,706.654968 
	C806.620605,642.333069 806.620605,578.273438 806.620605,514.136475 
	C779.447266,514.136475 752.891907,514.136475 726.297729,514.136475 
	C726.297729,604.715210 726.297729,694.945435 726.297729,785.244263 
	C808.316101,785.244263 890.027344,785.244263 971.745483,785.244263 
	C971.745483,641.259827 971.745483,497.693390 971.745483,353.633057 
	C916.660706,353.633057 861.910583,353.633057 806.947266,353.633057 
	C806.947266,262.916840 806.947266,172.695297 806.947266,82.270912 
	C834.331909,82.270912 861.401672,82.270912 889.003723,82.270912 
	C889.003723,145.922913 889.003723,209.309326 889.003723,272.751099 
	C916.931763,272.751099 944.325745,272.751099 972.073120,272.751099 
	C972.073120,270.953918 972.073059,269.482819 972.073059,268.011719 
	C972.074036,180.355301 972.075623,92.698875 972.070068,5.042457 
	C972.070007,4.045681 971.980347,3.048912 971.978271,1.790953 
	C972.015930,1.353177 972.007935,1.176589 972.000000,1.000000 
M1139.093018,1743.111816 
	C1139.093018,1743.111816 1139.151611,1743.201050 1139.764648,1743.003540 
	C1141.108765,1741.654297 1142.452759,1740.305176 1144.332397,1738.742554 
	C1144.546509,1738.432617 1144.760620,1738.122681 1145.838745,1737.842407 
	C1146.350342,1741.790405 1146.862061,1745.738525 1147.457520,1750.332886 
	C1164.127441,1750.332886 1180.812012,1750.332886 1198.062134,1750.332886 
	C1198.062134,1798.313843 1198.062134,1845.639526 1198.062134,1892.798218 
	C1211.433960,1892.798218 1224.217041,1892.798218 1237.915283,1893.026733 
	C1250.567017,1893.087891 1263.220581,1893.267700 1275.867798,1893.058472 
	C1277.421021,1893.032715 1279.664551,1891.259399 1280.359619,1889.735718 
	C1285.741211,1877.939575 1290.931641,1866.051636 1295.919067,1854.083008 
	C1297.247681,1850.894897 1298.818481,1849.513550 1302.456055,1849.550659 
	C1321.106323,1849.741455 1339.760010,1849.711548 1358.411133,1849.581055 
	C1361.545898,1849.559204 1363.079590,1850.555664 1364.266846,1853.510742 
	C1369.161987,1865.694824 1374.254028,1877.803345 1379.547974,1889.818848 
	C1380.206787,1891.314087 1382.490112,1893.025635 1384.043701,1893.048096 
	C1397.359497,1893.239990 1410.680542,1893.065552 1424.924316,1893.172241 
	C1437.182617,1893.172241 1449.440796,1893.172241 1462.146729,1893.172241 
	C1462.146729,1869.272705 1462.146729,1846.024902 1462.146729,1822.084473 
	C1471.377930,1822.084473 1480.173706,1822.328979 1488.944580,1821.968628 
	C1492.645020,1821.816528 1494.066528,1823.166992 1495.399536,1826.366699 
	C1504.161133,1847.399048 1513.192871,1868.318848 1522.006226,1889.329834 
	C1523.193970,1892.161499 1524.648071,1893.349487 1527.866089,1893.287231 
	C1538.858643,1893.074585 1549.857788,1893.223877 1560.854492,1893.191162 
	C1562.228638,1893.187012 1563.601929,1892.918945 1565.466553,1892.721069 
	C1554.271118,1866.511353 1543.321655,1840.877441 1532.339722,1815.167603 
	C1559.184448,1800.462524 1561.820312,1776.844116 1556.953369,1750.404907 
	C1573.661987,1750.404907 1590.070190,1750.404907 1607.045898,1750.404907 
	C1607.045898,1798.103516 1607.045898,1845.481079 1607.045898,1892.819824 
	C1620.338379,1892.819824 1633.056763,1892.819824 1646.347168,1892.819824 
	C1646.347168,1845.054443 1646.347168,1797.680298 1646.347168,1749.872803 
	C1663.508057,1749.872803 1680.092163,1749.872803 1696.661377,1749.872803 
	C1696.661377,1738.204956 1696.661377,1726.980347 1696.661377,1715.761230 
	C1649.628174,1715.761230 1602.936646,1715.761230 1555.795044,1715.761230 
	C1555.795044,1726.183350 1555.795044,1736.193848 1555.795044,1746.204346 
	C1548.906860,1732.064941 1537.763428,1723.227661 1523.057251,1719.552734 
	C1513.625244,1717.195679 1503.753296,1715.797729 1494.037231,1715.541992 
	C1472.058838,1714.964111 1450.054810,1715.359985 1428.061279,1715.359741 
	C1426.459351,1715.359741 1424.857544,1715.359741 1422.936035,1715.359741 
	C1422.936035,1774.698975 1422.936035,1833.331787 1422.329102,1891.634277 
	C1421.563110,1889.974243 1420.756958,1888.331421 1420.036987,1886.651733 
	C1396.192017,1831.018555 1372.327148,1775.393921 1348.591675,1719.714111 
	C1347.230347,1716.520630 1345.742920,1715.114502 1342.093628,1715.261841 
	C1334.275513,1715.577515 1326.428223,1715.562866 1318.608154,1715.273926 
	C1314.603516,1715.126099 1312.521240,1716.231934 1310.848145,1720.185913 
	C1289.914062,1769.659668 1268.776367,1819.047241 1247.630249,1868.430908 
	C1244.250977,1876.322754 1240.574951,1884.087646 1237.046753,1890.986694 
	C1237.046753,1844.092651 1237.046753,1797.198730 1237.046753,1749.935791 
	C1254.268921,1749.935791 1270.706909,1749.935791 1287.320068,1749.935791 
	C1287.320068,1738.338867 1287.320068,1727.118164 1287.320068,1715.651001 
	C1240.404053,1715.651001 1193.839722,1715.651001 1146.645752,1715.651001 
	C1146.645752,1722.301636 1146.645752,1728.664062 1146.645752,1735.449585 
	C1145.070190,1734.711182 1144.183960,1734.295776 1142.979126,1733.270630 
	C1121.625366,1714.715332 1096.519287,1708.414917 1069.061279,1712.247314 
	C1037.054565,1716.714600 1018.970459,1741.803833 1024.069092,1773.767700 
	C1026.537231,1789.240601 1036.612061,1799.691528 1049.669067,1807.036743 
	C1059.786865,1812.728516 1070.729614,1816.934326 1081.048950,1822.295166 
	C1087.056519,1825.416138 1093.081177,1828.904785 1098.174072,1833.298828 
	C1107.550049,1841.388306 1105.176392,1855.449219 1093.498779,1859.472290 
	C1087.475708,1861.547363 1080.342407,1861.999512 1073.979858,1861.155884 
	C1060.774902,1859.405151 1049.133667,1853.094849 1037.770874,1845.344727 
	C1029.765137,1854.032593 1021.902222,1862.565430 1013.098816,1871.010742 
	C986.175415,1871.010742 959.252014,1871.010742 931.885742,1871.010742 
	C931.885742,1819.042725 931.885742,1767.657471 931.885742,1716.221558 
	C923.706421,1716.221558 915.977661,1716.221558 908.216980,1716.221558 
	C908.216980,1775.571167 908.216980,1834.611694 908.216980,1893.718262 
	C943.574463,1893.718262 978.625427,1893.718262 1014.107239,1893.718262 
	C1014.107239,1886.292603 1014.107239,1879.159790 1014.767151,1872.158325 
	C1015.971680,1873.044434 1017.206665,1873.892090 1018.376099,1874.822388 
	C1040.135010,1892.128052 1064.769165,1900.297729 1092.623413,1898.070679 
	C1104.814575,1897.096191 1115.979980,1893.367432 1125.632080,1885.525757 
	C1146.734497,1868.381958 1151.925781,1824.190430 1122.953003,1804.900757 
	C1112.003906,1797.611084 1099.298218,1792.995972 1087.569702,1786.826294 
	C1081.139771,1783.443848 1074.422363,1780.119995 1068.996704,1775.426147 
	C1059.922852,1767.576660 1062.568115,1753.733154 1073.985962,1750.269653 
	C1080.709473,1748.230347 1088.689209,1747.484863 1095.429321,1749.054443 
	C1104.237793,1751.105713 1112.378906,1756.022217 1121.707886,1760.099609 
	C1126.415405,1755.547119 1132.248901,1749.905640 1138.599243,1744.025024 
	C1138.798706,1743.713379 1138.998169,1743.401611 1139.093018,1743.111816 
M516.543579,138.973572 
	C515.657043,139.405869 514.771973,139.841187 513.883789,140.269989 
	C438.753326,176.540665 371.078217,223.538757 311.223480,281.662537 
	C245.234207,345.743469 192.372070,419.302612 152.747696,502.352753 
	C106.416656,599.459656 81.906799,701.922913 78.121750,809.304443 
	C76.600876,852.451538 78.819511,895.504150 84.703865,938.359253 
	C91.618965,988.721191 103.087349,1037.941895 119.747383,1085.974487 
	C160.641144,1203.875244 226.264328,1305.931152 316.342377,1392.189941 
	C401.719818,1473.947388 500.761810,1532.984741 613.238770,1569.452515 
	C680.565430,1591.281372 749.668579,1603.203491 820.315002,1605.867310 
	C852.769043,1607.090820 885.232849,1606.270386 917.644104,1603.305176 
	C948.318054,1600.498657 978.747742,1596.198730 1008.845581,1589.793823 
	C1076.001099,1575.503174 1140.173706,1552.748535 1201.219971,1521.225830 
	C1278.560059,1481.289307 1347.303833,1429.893799 1407.313843,1366.853149 
	C1484.401367,1285.872437 1541.424683,1192.618408 1578.247681,1087.025757 
	C1600.932007,1021.977356 1614.299927,955.007690 1618.906494,886.343811 
	C1621.359863,849.775391 1621.067505,813.162537 1618.289917,776.559204 
	C1615.794678,743.674438 1611.400146,711.077454 1604.726685,678.816345 
	C1587.443604,595.267395 1557.282471,516.633606 1513.927856,443.103882 
	C1475.341431,377.661194 1428.103882,319.206848 1372.232300,267.734283 
	C1311.872803,212.127045 1244.230103,167.470810 1169.669556,133.261459 
	C1159.647095,128.663040 1149.439209,124.468399 1139.025757,119.960548 
	C1138.890137,121.404663 1138.774170,122.063271 1138.774048,122.721893 
	C1138.769897,193.884552 1138.805420,265.047272 1138.678345,336.209686 
	C1138.672607,339.434967 1140.326904,340.491943 1142.510132,341.799988 
	C1220.313965,388.417236 1283.766479,449.919159 1332.473389,526.377686 
	C1391.339478,618.784058 1421.748535,719.914917 1423.304810,829.528564 
	C1423.763672,861.854797 1421.221191,894.011658 1416.069946,925.980774 
	C1406.444946,985.712219 1388.094238,1042.574829 1360.218872,1096.246826 
	C1302.970215,1206.475586 1219.035400,1290.177612 1108.609009,1346.968872 
	C1042.060669,1381.194092 971.267822,1401.057495 896.595581,1407.088013 
	C848.569031,1410.966553 800.861572,1409.062744 753.334351,1401.073364 
	C693.323059,1390.985229 636.289185,1371.995239 582.650391,1343.384766 
	C474.085205,1285.477295 391.599121,1201.693726 335.864624,1091.899414 
	C298.423645,1018.142517 278.701782,939.664856 275.317291,857.125854 
	C273.717407,818.109863 276.342834,779.291992 282.887024,740.733093 
	C292.494781,684.123779 309.958405,630.085999 335.863098,578.883606 
	C387.261932,477.290344 461.918610,397.330627 560.036316,339.427277 
	C562.938049,337.714813 564.176025,335.983185 564.169983,332.465149 
	C564.050842,262.635925 564.082703,192.806396 564.069763,122.976952 
	C564.069519,121.581383 563.900024,120.185844 563.750061,117.874664 
	C547.816223,125.012123 532.531555,131.858780 516.543579,138.973572 
M313.189667,1776.633179 
	C313.132080,1770.318726 313.504059,1763.965088 312.932983,1757.697510 
	C311.463531,1741.569214 303.532532,1729.576660 288.915283,1722.257690 
	C280.594147,1718.091064 271.695831,1716.026001 262.448761,1715.962402 
	C240.788528,1715.813477 219.126541,1715.910522 197.465286,1715.932251 
	C196.364075,1715.933350 195.263077,1716.164062 194.253479,1716.277588 
	C194.253479,1775.651001 194.253479,1834.701172 194.253479,1893.685791 
	C202.338211,1893.685791 210.079712,1893.685791 218.280777,1893.685791 
	C218.280777,1869.797241 218.280777,1846.225464 218.280777,1822.254883 
	C232.013580,1822.254883 245.280533,1822.254883 258.692139,1822.254883 
	C259.069122,1823.018677 259.548889,1823.890015 259.940582,1824.799194 
	C269.344940,1846.626587 278.702637,1868.474365 288.217255,1890.253540 
	C288.876160,1891.761597 290.642242,1893.770386 291.976257,1893.835083 
	C299.249664,1894.186890 306.549011,1894.002686 314.653412,1894.002686 
	C303.540619,1867.976685 292.693878,1842.573730 281.860229,1817.201538 
	C302.162964,1807.328369 311.449219,1795.419800 313.189667,1776.633179 
M588.221069,1880.278809 
	C641.969299,1919.243774 712.476990,1890.686035 729.581909,1839.916016 
	C722.854431,1839.916016 716.182251,1840.190063 709.546753,1839.815308 
	C705.424622,1839.582520 703.067505,1840.913574 700.653809,1844.338135 
	C688.284973,1861.887695 671.360657,1871.982422 649.847778,1874.024414 
	C599.123535,1878.839355 560.005493,1828.226440 578.255188,1780.862671 
	C588.627747,1753.942505 608.852661,1738.200928 637.542542,1735.556641 
	C664.593506,1733.063232 686.007385,1744.419189 701.751282,1766.531982 
	C702.799683,1768.004639 704.466858,1769.997925 705.919922,1770.061523 
	C713.852905,1770.408447 721.808960,1770.226685 729.858826,1770.226685 
	C722.984436,1739.879395 685.612976,1713.003296 644.831360,1711.377075 
	C607.201233,1709.876343 571.122742,1732.454102 556.103699,1771.480957 
	C540.966187,1810.815796 553.793640,1854.123901 588.221069,1880.278809 
M820.393616,1718.894653 
	C818.944092,1717.900024 817.540466,1716.137329 816.036926,1716.047607 
	C810.391663,1715.710693 804.697754,1716.179321 799.054138,1715.828735 
	C795.552979,1715.610962 794.173218,1717.038574 792.894836,1720.043335 
	C771.818420,1769.584473 750.620667,1819.074097 729.461548,1868.580078 
	C725.909424,1876.891113 722.411072,1885.225220 718.694031,1894.006836 
	C726.333984,1894.006836 733.164795,1893.847412 739.981995,1894.083008 
	C742.825378,1894.181152 744.035461,1893.111694 745.077209,1890.616211 
	C750.647827,1877.272095 756.471436,1864.033569 762.033508,1850.686035 
	C763.153320,1847.998901 764.539856,1847.007935 767.528809,1847.022217 
	C793.690491,1847.146973 819.853394,1847.152100 846.014893,1847.005249 
	C849.201599,1846.987305 850.679993,1848.034058 851.881104,1850.894165 
	C857.477356,1864.220093 863.255493,1877.470703 869.096008,1890.692017 
	C869.668945,1891.988892 871.078369,1893.807739 872.155640,1893.847168 
	C879.688538,1894.122314 887.236206,1893.992798 895.364563,1893.992798 
	C870.285095,1835.340576 845.538818,1777.467529 820.393616,1718.894653 
M419.995026,1850.500000 
	C419.995026,1864.924316 419.995026,1879.348633 419.995026,1893.701172 
	C428.422943,1893.701172 436.177399,1893.701172 444.429993,1893.701172 
	C444.429993,1841.818970 444.429993,1790.249268 444.429993,1738.162598 
	C463.673065,1738.162598 482.416809,1738.162598 501.358582,1738.162598 
	C501.358582,1730.553955 501.358582,1723.467529 501.358582,1716.142334 
	C455.192322,1716.142334 409.283875,1716.142334 363.265045,1716.142334 
	C363.265045,1723.588623 363.265045,1730.800293 363.265045,1738.341919 
	C382.231537,1738.341919 400.845032,1738.341919 419.995026,1738.341919 
	C419.995026,1775.617920 419.995026,1812.558960 419.995026,1850.500000 
M326.714874,1742.500000 
	C326.714874,1792.921753 326.714874,1843.343628 326.714874,1893.783081 
	C334.896667,1893.783081 342.499329,1893.783081 350.377808,1893.783081 
	C350.377808,1834.493652 350.377808,1775.433350 350.377808,1716.227783 
	C342.373688,1716.227783 334.658051,1716.227783 326.715210,1716.227783 
	C326.715210,1724.867798 326.715210,1733.184082 326.714874,1742.500000 
M513.771606,1861.500000 
	C513.771606,1872.239136 513.771606,1882.978271 513.771606,1893.725586 
	C522.211243,1893.725586 529.947449,1893.725586 537.778198,1893.725586 
	C537.778198,1834.410156 537.778198,1775.388062 537.778198,1716.293091 
	C529.671143,1716.293091 521.806824,1716.293091 513.771484,1716.293091 
	C513.771484,1764.616821 513.771484,1812.558350 513.771606,1861.500000 
M1727.536011,1890.136597 
	C1736.353027,1885.002197 1740.971924,1877.073730 1742.784058,1867.264893 
	C1746.763550,1845.724609 1727.736084,1825.908691 1707.017334,1830.261597 
	C1694.451538,1832.901611 1686.330444,1840.888794 1683.181763,1853.165649 
	C1679.819946,1866.273804 1682.910156,1878.151123 1693.415771,1887.048950 
	C1703.543579,1895.626831 1714.985474,1896.576538 1727.536011,1890.136597 
z"/>
<path fill="#1362A0" opacity="1.000000" stroke="none" 
	d="
M0.999990,1796.468018 
	C2.714980,1788.982300 3.939343,1781.800049 6.226756,1774.974121 
	C18.532747,1738.253174 51.099567,1713.649536 90.524384,1711.454590 
	C129.856689,1709.264648 165.229630,1731.953125 180.825882,1767.585083 
	C181.084366,1768.175659 181.186050,1768.834961 181.565735,1770.197144 
	C173.013077,1770.197144 164.787949,1770.355347 156.581909,1770.030640 
	C155.317703,1769.980591 153.939697,1767.852661 152.954559,1766.447144 
	C138.300308,1745.540771 118.184319,1734.782715 92.713776,1735.189941 
	C57.405834,1735.754272 27.953823,1764.556763 25.248297,1800.414062 
	C22.692253,1834.290161 47.361897,1866.397339 81.005463,1872.981201 
	C109.105743,1878.480469 136.904388,1867.121338 152.704773,1843.427368 
	C154.532410,1840.686646 156.381058,1839.737671 159.553329,1839.839111 
	C166.650223,1840.066162 173.759369,1839.910278 180.964233,1839.910278 
	C173.592331,1873.296875 129.629333,1900.755371 86.635689,1897.898682 
	C45.001244,1895.132202 7.123793,1862.172119 1.342984,1814.206543 
	C1.000000,1808.312012 1.000000,1802.623901 0.999990,1796.468018 
z"/>
<path fill="#89B9DF" opacity="1.000000" stroke="none" 
	d="
M971.531372,1.000000 
	C972.007935,1.176589 972.015930,1.353177 971.514893,1.769944 
	C889.378784,2.031357 807.751770,2.052592 726.124817,2.073827 
	C726.085327,1.897030 726.045776,1.720234 726.003113,1.271719 
	C807.687561,1.000000 889.375122,1.000000 971.531372,1.000000 
z"/>
<path fill="#1161A0" opacity="1.000000" stroke="none" 
	d="
M516.895264,138.839508 
	C532.531555,131.858780 547.816223,125.012123 563.750061,117.874664 
	C563.900024,120.185844 564.069519,121.581383 564.069763,122.976952 
	C564.082703,192.806396 564.050842,262.635925 564.169983,332.465149 
	C564.176025,335.983185 562.938049,337.714813 560.036316,339.427277 
	C461.918610,397.330627 387.261932,477.290344 335.863098,578.883606 
	C309.958405,630.085999 292.494781,684.123779 282.887024,740.733093 
	C276.342834,779.291992 273.717407,818.109863 275.317291,857.125854 
	C278.701782,939.664856 298.423645,1018.142517 335.864624,1091.899414 
	C391.599121,1201.693726 474.085205,1285.477295 582.650391,1343.384766 
	C636.289185,1371.995239 693.323059,1390.985229 753.334351,1401.073364 
	C800.861572,1409.062744 848.569031,1410.966553 896.595581,1407.088013 
	C971.267822,1401.057495 1042.060669,1381.194092 1108.609009,1346.968872 
	C1219.035400,1290.177612 1302.970215,1206.475586 1360.218872,1096.246826 
	C1388.094238,1042.574829 1406.444946,985.712219 1416.069946,925.980774 
	C1421.221191,894.011658 1423.763672,861.854797 1423.304810,829.528564 
	C1421.748535,719.914917 1391.339478,618.784058 1332.473389,526.377686 
	C1283.766479,449.919159 1220.313965,388.417236 1142.510132,341.799988 
	C1140.326904,340.491943 1138.672607,339.434967 1138.678345,336.209686 
	C1138.805420,265.047272 1138.769897,193.884552 1138.774048,122.721893 
	C1138.774170,122.063271 1138.890137,121.404663 1139.025757,119.960548 
	C1149.439209,124.468399 1159.647095,128.663040 1169.669556,133.261459 
	C1244.230103,167.470810 1311.872803,212.127045 1372.232300,267.734283 
	C1428.103882,319.206848 1475.341431,377.661194 1513.927856,443.103882 
	C1557.282471,516.633606 1587.443604,595.267395 1604.726685,678.816345 
	C1611.400146,711.077454 1615.794678,743.674438 1618.289917,776.559204 
	C1621.067505,813.162537 1621.359863,849.775391 1618.906494,886.343811 
	C1614.299927,955.007690 1600.932007,1021.977356 1578.247681,1087.025757 
	C1541.424683,1192.618408 1484.401367,1285.872437 1407.313843,1366.853149 
	C1347.303833,1429.893799 1278.560059,1481.289307 1201.219971,1521.225830 
	C1140.173706,1552.748535 1076.001099,1575.503174 1008.845581,1589.793823 
	C978.747742,1596.198730 948.318054,1600.498657 917.644104,1603.305176 
	C885.232849,1606.270386 852.769043,1607.090820 820.315002,1605.867310 
	C749.668579,1603.203491 680.565430,1591.281372 613.238770,1569.452515 
	C500.761810,1532.984741 401.719818,1473.947388 316.342377,1392.189941 
	C226.264328,1305.931152 160.641144,1203.875244 119.747383,1085.974487 
	C103.087349,1037.941895 91.618965,988.721191 84.703865,938.359253 
	C78.819511,895.504150 76.600876,852.451538 78.121750,809.304443 
	C81.906799,701.922913 106.416656,599.459656 152.747696,502.352753 
	C192.372070,419.302612 245.234207,345.743469 311.223480,281.662537 
	C371.078217,223.538757 438.753326,176.540665 513.883789,140.269989 
	C514.771973,139.841187 515.657043,139.405869 516.895264,138.839508 
z"/>
<path fill="#1A99D6" opacity="1.000000" stroke="none" 
	d="
M726.069214,2.535006 
	C807.751770,2.052592 889.378784,2.031357 971.469116,2.031131 
	C971.980347,3.048912 972.070007,4.045681 972.070068,5.042457 
	C972.075623,92.698875 972.074036,180.355301 972.073059,268.011719 
	C972.073059,269.482819 972.073120,270.953918 972.073120,272.751099 
	C944.325745,272.751099 916.931763,272.751099 889.003723,272.751099 
	C889.003723,209.309326 889.003723,145.922913 889.003723,82.270912 
	C861.401672,82.270912 834.331909,82.270912 806.947266,82.270912 
	C806.947266,172.695297 806.947266,262.916840 806.947266,353.633057 
	C861.910583,353.633057 916.660706,353.633057 971.745483,353.633057 
	C971.745483,497.693390 971.745483,641.259827 971.745483,785.244263 
	C890.027344,785.244263 808.316101,785.244263 726.297729,785.244263 
	C726.297729,694.945435 726.297729,604.715210 726.297729,514.136475 
	C752.891907,514.136475 779.447266,514.136475 806.620605,514.136475 
	C806.620605,578.273438 806.620605,642.333069 806.620605,706.654968 
	C834.182129,706.654968 861.129211,706.654968 888.499390,706.654968 
	C888.499390,615.842773 888.499390,524.957031 888.499390,433.420532 
	C834.649902,433.420532 780.616699,433.420532 726.013672,433.420532 
	C726.013672,289.512817 726.013672,146.254501 726.069214,2.535006 
z"/>
<path fill="#1A99D6" opacity="1.000000" stroke="none" 
	d="
M1422.936035,1891.964600 
	C1422.936035,1833.331787 1422.936035,1774.698975 1422.936035,1715.359741 
	C1424.857544,1715.359741 1426.459351,1715.359741 1428.061279,1715.359741 
	C1450.054810,1715.359985 1472.058838,1714.964111 1494.037231,1715.541992 
	C1503.753296,1715.797729 1513.625244,1717.195679 1523.057251,1719.552734 
	C1537.763428,1723.227661 1548.906860,1732.064941 1555.795044,1746.204346 
	C1555.795044,1736.193848 1555.795044,1726.183350 1555.795044,1715.761230 
	C1602.936646,1715.761230 1649.628174,1715.761230 1696.661377,1715.761230 
	C1696.661377,1726.980347 1696.661377,1738.204956 1696.661377,1749.872803 
	C1680.092163,1749.872803 1663.508057,1749.872803 1646.347168,1749.872803 
	C1646.347168,1797.680298 1646.347168,1845.054443 1646.347168,1892.819824 
	C1633.056763,1892.819824 1620.338379,1892.819824 1607.045898,1892.819824 
	C1607.045898,1845.481079 1607.045898,1798.103516 1607.045898,1750.404907 
	C1590.070190,1750.404907 1573.661987,1750.404907 1556.953369,1750.404907 
	C1561.820312,1776.844116 1559.184448,1800.462524 1532.339722,1815.167603 
	C1543.321655,1840.877441 1554.271118,1866.511353 1565.466553,1892.721069 
	C1563.601929,1892.918945 1562.228638,1893.187012 1560.854492,1893.191162 
	C1549.857788,1893.223877 1538.858643,1893.074585 1527.866089,1893.287231 
	C1524.648071,1893.349487 1523.193970,1892.161499 1522.006226,1889.329834 
	C1513.192871,1868.318848 1504.161133,1847.399048 1495.399536,1826.366699 
	C1494.066528,1823.166992 1492.645020,1821.816528 1488.944580,1821.968628 
	C1480.173706,1822.328979 1471.377930,1822.084473 1462.146729,1822.084473 
	C1462.146729,1846.024902 1462.146729,1869.272705 1462.146729,1893.172241 
	C1449.440796,1893.172241 1437.182617,1893.172241 1424.343994,1892.859375 
	C1423.487793,1892.352539 1423.211914,1892.158569 1422.936035,1891.964600 
M1472.520752,1748.653931 
	C1469.233765,1748.653931 1465.946777,1748.653931 1462.453857,1748.653931 
	C1462.453857,1762.376831 1462.453857,1775.560425 1462.453857,1788.792236 
	C1474.135620,1788.792236 1485.447266,1789.011597 1496.741821,1788.667725 
	C1500.463501,1788.554443 1504.289673,1787.365601 1507.804077,1785.992920 
	C1513.239014,1783.870361 1516.839478,1779.754761 1517.839478,1773.870728 
	C1520.004272,1761.131714 1514.564453,1752.270142 1501.829102,1750.155884 
	C1492.563721,1748.617676 1482.966064,1749.082153 1472.520752,1748.653931 
z"/>
<path fill="#1B9AD6" opacity="1.000000" stroke="none" 
	d="
M1422.632568,1891.799438 
	C1423.211914,1892.158569 1423.487793,1892.352539 1423.881836,1892.773438 
	C1410.680542,1893.065552 1397.359497,1893.239990 1384.043701,1893.048096 
	C1382.490112,1893.025635 1380.206787,1891.314087 1379.547974,1889.818848 
	C1374.254028,1877.803345 1369.161987,1865.694824 1364.266846,1853.510742 
	C1363.079590,1850.555664 1361.545898,1849.559204 1358.411133,1849.581055 
	C1339.760010,1849.711548 1321.106323,1849.741455 1302.456055,1849.550659 
	C1298.818481,1849.513550 1297.247681,1850.894897 1295.919067,1854.083008 
	C1290.931641,1866.051636 1285.741211,1877.939575 1280.359619,1889.735718 
	C1279.664551,1891.259399 1277.421021,1893.032715 1275.867798,1893.058472 
	C1263.220581,1893.267700 1250.567017,1893.087891 1237.464844,1892.690674 
	C1237.014282,1892.354614 1237.036133,1891.911133 1237.036133,1891.911133 
	C1240.574951,1884.087646 1244.250977,1876.322754 1247.630249,1868.430908 
	C1268.776367,1819.047241 1289.914062,1769.659668 1310.848145,1720.185913 
	C1312.521240,1716.231934 1314.603516,1715.126099 1318.608154,1715.273926 
	C1326.428223,1715.562866 1334.275513,1715.577515 1342.093628,1715.261841 
	C1345.742920,1715.114502 1347.230347,1716.520630 1348.591675,1719.714111 
	C1372.327148,1775.393921 1396.192017,1831.018555 1420.036987,1886.651733 
	C1420.756958,1888.331421 1421.563110,1889.974243 1422.632568,1891.799438 
M1346.860107,1821.995361 
	C1347.934570,1821.915649 1349.009155,1821.835938 1350.615479,1821.716797 
	C1343.712158,1805.836548 1337.019775,1790.441528 1329.883179,1774.024414 
	C1322.882446,1790.683594 1316.411621,1806.081787 1309.721802,1822.000977 
	C1322.356812,1822.000977 1334.176758,1822.000977 1346.860107,1821.995361 
z"/>
<path fill="#1B9AD6" opacity="1.000000" stroke="none" 
	d="
M1138.082520,1744.264160 
	C1132.248901,1749.905640 1126.415405,1755.547119 1121.707886,1760.099609 
	C1112.378906,1756.022217 1104.237793,1751.105713 1095.429321,1749.054443 
	C1088.689209,1747.484863 1080.709473,1748.230347 1073.985962,1750.269653 
	C1062.568115,1753.733154 1059.922852,1767.576660 1068.996704,1775.426147 
	C1074.422363,1780.119995 1081.139771,1783.443848 1087.569702,1786.826294 
	C1099.298218,1792.995972 1112.003906,1797.611084 1122.953003,1804.900757 
	C1151.925781,1824.190430 1146.734497,1868.381958 1125.632080,1885.525757 
	C1115.979980,1893.367432 1104.814575,1897.096191 1092.623413,1898.070679 
	C1064.769165,1900.297729 1040.135010,1892.128052 1018.376099,1874.822388 
	C1017.206665,1873.892090 1015.971680,1873.044434 1014.392578,1871.862793 
	C1014.018066,1871.567383 1014.039307,1871.098267 1014.039307,1871.098267 
	C1021.902222,1862.565430 1029.765137,1854.032593 1037.770874,1845.344727 
	C1049.133667,1853.094849 1060.774902,1859.405151 1073.979858,1861.155884 
	C1080.342407,1861.999512 1087.475708,1861.547363 1093.498779,1859.472290 
	C1105.176392,1855.449219 1107.550049,1841.388306 1098.174072,1833.298828 
	C1093.081177,1828.904785 1087.056519,1825.416138 1081.048950,1822.295166 
	C1070.729614,1816.934326 1059.786865,1812.728516 1049.669067,1807.036743 
	C1036.612061,1799.691528 1026.537231,1789.240601 1024.069092,1773.767700 
	C1018.970459,1741.803833 1037.054565,1716.714600 1069.061279,1712.247314 
	C1096.519287,1708.414917 1121.625366,1714.715332 1142.716309,1733.615234 
	C1136.398926,1735.270264 1139.887085,1739.990234 1139.151611,1743.201050 
	C1139.151611,1743.201050 1139.093018,1743.111816 1138.872314,1743.201050 
	C1138.461792,1743.614868 1138.272095,1743.939453 1138.082520,1744.264160 
z"/>
<path fill="#1261A0" opacity="1.000000" stroke="none" 
	d="
M313.147247,1777.076904 
	C311.449219,1795.419800 302.162964,1807.328369 281.860229,1817.201538 
	C292.693878,1842.573730 303.540619,1867.976685 314.653412,1894.002686 
	C306.549011,1894.002686 299.249664,1894.186890 291.976257,1893.835083 
	C290.642242,1893.770386 288.876160,1891.761597 288.217255,1890.253540 
	C278.702637,1868.474365 269.344940,1846.626587 259.940582,1824.799194 
	C259.548889,1823.890015 259.069122,1823.018677 258.692139,1822.254883 
	C245.280533,1822.254883 232.013580,1822.254883 218.280777,1822.254883 
	C218.280777,1846.225464 218.280777,1869.797241 218.280777,1893.685791 
	C210.079712,1893.685791 202.338211,1893.685791 194.253479,1893.685791 
	C194.253479,1834.701172 194.253479,1775.651001 194.253479,1716.277588 
	C195.263077,1716.164062 196.364075,1715.933350 197.465286,1715.932251 
	C219.126541,1715.910522 240.788528,1715.813477 262.448761,1715.962402 
	C271.695831,1716.026001 280.594147,1718.091064 288.915283,1722.257690 
	C303.532532,1729.576660 311.463531,1741.569214 312.932983,1757.697510 
	C313.504059,1763.965088 313.132080,1770.318726 313.147247,1777.076904 
M269.927032,1798.689819 
	C280.737488,1795.188721 286.752502,1787.800903 287.674774,1776.462769 
	C287.984497,1772.654907 288.009186,1768.806152 287.891449,1764.984497 
	C287.401855,1749.090332 279.294952,1739.580078 263.405365,1738.218018 
	C249.514908,1737.027466 235.495224,1737.336426 221.531754,1737.022217 
	C220.442047,1736.997681 219.345352,1737.284668 218.318298,1737.418213 
	C218.318298,1758.675659 218.318298,1779.601440 218.318298,1801.001099 
	C227.997665,1801.001099 237.457245,1801.267334 246.893829,1800.916016 
	C254.327042,1800.639282 261.731903,1799.601562 269.927032,1798.689819 
z"/>
<path fill="#1362A0" opacity="1.000000" stroke="none" 
	d="
M587.924316,1880.079834 
	C553.793640,1854.123901 540.966187,1810.815796 556.103699,1771.480957 
	C571.122742,1732.454102 607.201233,1709.876343 644.831360,1711.377075 
	C685.612976,1713.003296 722.984436,1739.879395 729.858826,1770.226685 
	C721.808960,1770.226685 713.852905,1770.408447 705.919922,1770.061523 
	C704.466858,1769.997925 702.799683,1768.004639 701.751282,1766.531982 
	C686.007385,1744.419189 664.593506,1733.063232 637.542542,1735.556641 
	C608.852661,1738.200928 588.627747,1753.942505 578.255188,1780.862671 
	C560.005493,1828.226440 599.123535,1878.839355 649.847778,1874.024414 
	C671.360657,1871.982422 688.284973,1861.887695 700.653809,1844.338135 
	C703.067505,1840.913574 705.424622,1839.582520 709.546753,1839.815308 
	C716.182251,1840.190063 722.854431,1839.916016 729.581909,1839.916016 
	C712.476990,1890.686035 641.969299,1919.243774 587.924316,1880.079834 
z"/>
<path fill="#1B9AD6" opacity="1.000000" stroke="none" 
	d="
M1139.458130,1743.102295 
	C1139.887085,1739.990234 1136.398926,1735.270264 1142.875488,1733.920166 
	C1144.183960,1734.295776 1145.070190,1734.711182 1146.645752,1735.449585 
	C1146.645752,1728.664062 1146.645752,1722.301636 1146.645752,1715.651001 
	C1193.839722,1715.651001 1240.404053,1715.651001 1287.320068,1715.651001 
	C1287.320068,1727.118164 1287.320068,1738.338867 1287.320068,1749.935791 
	C1270.706909,1749.935791 1254.268921,1749.935791 1237.046753,1749.935791 
	C1237.046753,1797.198730 1237.046753,1844.092651 1237.041504,1891.448975 
	C1237.036133,1891.911133 1237.014282,1892.354614 1237.007080,1892.576416 
	C1224.217041,1892.798218 1211.433960,1892.798218 1198.062134,1892.798218 
	C1198.062134,1845.639526 1198.062134,1798.313843 1198.062134,1750.332886 
	C1180.812012,1750.332886 1164.127441,1750.332886 1147.457520,1750.332886 
	C1146.862061,1745.738525 1146.350342,1741.790405 1145.424316,1737.633301 
	C1145.009888,1737.424072 1145.047729,1737.035278 1145.177246,1736.965942 
	C1145.195435,1736.919067 1145.083862,1736.941406 1144.647705,1736.977783 
	C1143.684937,1737.318970 1143.046753,1737.646118 1142.408691,1737.973267 
	C1142.871460,1738.300781 1143.334106,1738.628296 1143.796875,1738.955933 
	C1142.452759,1740.305176 1141.108765,1741.654297 1139.458130,1743.102295 
z"/>
<path fill="#1362A0" opacity="1.000000" stroke="none" 
	d="
M820.593079,1719.244629 
	C845.538818,1777.467529 870.285095,1835.340576 895.364563,1893.992798 
	C887.236206,1893.992798 879.688538,1894.122314 872.155640,1893.847168 
	C871.078369,1893.807739 869.668945,1891.988892 869.096008,1890.692017 
	C863.255493,1877.470703 857.477356,1864.220093 851.881104,1850.894165 
	C850.679993,1848.034058 849.201599,1846.987305 846.014893,1847.005249 
	C819.853394,1847.152100 793.690491,1847.146973 767.528809,1847.022217 
	C764.539856,1847.007935 763.153320,1847.998901 762.033508,1850.686035 
	C756.471436,1864.033569 750.647827,1877.272095 745.077209,1890.616211 
	C744.035461,1893.111694 742.825378,1894.181152 739.981995,1894.083008 
	C733.164795,1893.847412 726.333984,1894.006836 718.694031,1894.006836 
	C722.411072,1885.225220 725.909424,1876.891113 729.461548,1868.580078 
	C750.620667,1819.074097 771.818420,1769.584473 792.894836,1720.043335 
	C794.173218,1717.038574 795.552979,1715.610962 799.054138,1715.828735 
	C804.697754,1716.179321 810.391663,1715.710693 816.036926,1716.047607 
	C817.540466,1716.137329 818.944092,1717.900024 820.593079,1719.244629 
M794.989502,1774.440918 
	C788.254272,1790.088989 781.519104,1805.736938 774.635681,1821.729248 
	C796.430115,1821.729248 817.585938,1821.729248 839.315918,1821.729248 
	C828.543396,1796.658569 817.962219,1772.033325 807.003845,1746.530029 
	C802.734192,1756.380615 798.977722,1765.047363 794.989502,1774.440918 
z"/>
<path fill="#1161A0" opacity="1.000000" stroke="none" 
	d="
M419.995026,1850.000000 
	C419.995026,1812.558960 419.995026,1775.617920 419.995026,1738.341919 
	C400.845032,1738.341919 382.231537,1738.341919 363.265045,1738.341919 
	C363.265045,1730.800293 363.265045,1723.588623 363.265045,1716.142334 
	C409.283875,1716.142334 455.192322,1716.142334 501.358582,1716.142334 
	C501.358582,1723.467529 501.358582,1730.553955 501.358582,1738.162598 
	C482.416809,1738.162598 463.673065,1738.162598 444.429993,1738.162598 
	C444.429993,1790.249268 444.429993,1841.818970 444.429993,1893.701172 
	C436.177399,1893.701172 428.422943,1893.701172 419.995026,1893.701172 
	C419.995026,1879.348633 419.995026,1864.924316 419.995026,1850.000000 
z"/>
<path fill="#1161A0" opacity="1.000000" stroke="none" 
	d="
M1013.569092,1871.054443 
	C1014.039307,1871.098267 1014.018066,1871.567383 1014.062622,1871.797119 
	C1014.107239,1879.159790 1014.107239,1886.292603 1014.107239,1893.718262 
	C978.625427,1893.718262 943.574463,1893.718262 908.216980,1893.718262 
	C908.216980,1834.611694 908.216980,1775.571167 908.216980,1716.221558 
	C915.977661,1716.221558 923.706421,1716.221558 931.885742,1716.221558 
	C931.885742,1767.657471 931.885742,1819.042725 931.885742,1871.010742 
	C959.252014,1871.010742 986.175415,1871.010742 1013.569092,1871.054443 
z"/>
<path fill="#1663A1" opacity="1.000000" stroke="none" 
	d="
M326.715027,1742.000122 
	C326.715210,1733.184082 326.715210,1724.867798 326.715210,1716.227783 
	C334.658051,1716.227783 342.373688,1716.227783 350.377808,1716.227783 
	C350.377808,1775.433350 350.377808,1834.493652 350.377808,1893.783081 
	C342.499329,1893.783081 334.896667,1893.783081 326.714874,1893.783081 
	C326.714874,1843.343628 326.714874,1792.921753 326.715027,1742.000122 
z"/>
<path fill="#1161A0" opacity="1.000000" stroke="none" 
	d="
M513.771545,1861.000000 
	C513.771484,1812.558350 513.771484,1764.616821 513.771484,1716.293091 
	C521.806824,1716.293091 529.671143,1716.293091 537.778198,1716.293091 
	C537.778198,1775.388062 537.778198,1834.410156 537.778198,1893.725586 
	C529.947449,1893.725586 522.211243,1893.725586 513.771606,1893.725586 
	C513.771606,1882.978271 513.771606,1872.239136 513.771545,1861.000000 
z"/>
<path fill="#239CD6" opacity="1.000000" stroke="none" 
	d="
M1727.214844,1890.326904 
	C1714.985474,1896.576538 1703.543579,1895.626831 1693.415771,1887.048950 
	C1682.910156,1878.151123 1679.819946,1866.273804 1683.181763,1853.165649 
	C1686.330444,1840.888794 1694.451538,1832.901611 1707.017334,1830.261597 
	C1727.736084,1825.908691 1746.763550,1845.724609 1742.784058,1867.264893 
	C1740.971924,1877.073730 1736.353027,1885.002197 1727.214844,1890.326904 
M1688.368042,1870.770874 
	C1692.405518,1881.260986 1699.490112,1888.184326 1711.110474,1888.879150 
	C1722.242188,1889.544922 1730.458862,1884.265625 1735.183105,1874.392944 
	C1740.278809,1863.743896 1739.277954,1853.230835 1731.659424,1844.007812 
	C1721.681030,1831.927979 1703.513306,1831.945312 1693.671143,1843.777954 
	C1687.229492,1851.522339 1685.624512,1860.339111 1688.368042,1870.770874 
z"/>
<path fill="#1B9AD6" opacity="1.000000" stroke="none" 
	d="
M1145.047729,1737.035278 
	C1145.047729,1737.035278 1145.009888,1737.424072 1144.992310,1737.618408 
	C1144.760620,1738.122681 1144.546509,1738.432617 1144.064697,1738.849243 
	C1143.334106,1738.628296 1142.871460,1738.300781 1142.408691,1737.973267 
	C1143.046753,1737.646118 1143.684937,1737.318970 1144.665039,1736.997192 
	C1145.007080,1737.002563 1145.047729,1737.035278 1145.047729,1737.035278 
z"/>
<path fill="#1B9AD6" opacity="1.000000" stroke="none" 
	d="
M1138.340820,1744.144531 
	C1138.272095,1743.939453 1138.461792,1743.614868 1138.924561,1743.190063 
	C1138.998169,1743.401611 1138.798706,1743.713379 1138.340820,1744.144531 
z"/>
<path fill="#FCFDFD" opacity="1.000000" stroke="none" 
	d="
M1473.018555,1748.653809 
	C1482.966064,1749.082153 1492.563721,1748.617676 1501.829102,1750.155884 
	C1514.564453,1752.270142 1520.004272,1761.131714 1517.839478,1773.870728 
	C1516.839478,1779.754761 1513.239014,1783.870361 1507.804077,1785.992920 
	C1504.289673,1787.365601 1500.463501,1788.554443 1496.741821,1788.667725 
	C1485.447266,1789.011597 1474.135620,1788.792236 1462.453857,1788.792236 
	C1462.453857,1775.560425 1462.453857,1762.376831 1462.453857,1748.653931 
	C1465.946777,1748.653931 1469.233765,1748.653931 1473.018555,1748.653809 
z"/>
<path fill="#FAFCFC" opacity="1.000000" stroke="none" 
	d="
M1346.428467,1821.998169 
	C1334.176758,1822.000977 1322.356812,1822.000977 1309.721802,1822.000977 
	C1316.411621,1806.081787 1322.882446,1790.683594 1329.883179,1774.024414 
	C1337.019775,1790.441528 1343.712158,1805.836548 1350.615479,1821.716797 
	C1349.009155,1821.835938 1347.934570,1821.915649 1346.428467,1821.998169 
z"/>
<path fill="#FDFDFD" opacity="1.000000" stroke="none" 
	d="
M269.538208,1798.795898 
	C261.731903,1799.601562 254.327042,1800.639282 246.893829,1800.916016 
	C237.457245,1801.267334 227.997665,1801.001099 218.318298,1801.001099 
	C218.318298,1779.601440 218.318298,1758.675659 218.318298,1737.418213 
	C219.345352,1737.284668 220.442047,1736.997681 221.531754,1737.022217 
	C235.495224,1737.336426 249.514908,1737.027466 263.405365,1738.218018 
	C279.294952,1739.580078 287.401855,1749.090332 287.891449,1764.984497 
	C288.009186,1768.806152 287.984497,1772.654907 287.674774,1776.462769 
	C286.752502,1787.800903 280.737488,1795.188721 269.538208,1798.795898 
z"/>
<path fill="#1B9AD6" opacity="1.000000" stroke="none" 
	d="
M1144.989746,1736.983154 
	C1145.083862,1736.941406 1145.195435,1736.919067 1145.177246,1736.965942 
	C1145.047729,1737.035278 1145.007080,1737.002563 1144.989746,1736.983154 
z"/>
<path fill="#FBFCFC" opacity="1.000000" stroke="none" 
	d="
M795.105347,1774.077393 
	C798.977722,1765.047363 802.734192,1756.380615 807.003845,1746.530029 
	C817.962219,1772.033325 828.543396,1796.658569 839.315918,1821.729248 
	C817.585938,1821.729248 796.430115,1821.729248 774.635681,1821.729248 
	C781.519104,1805.736938 788.254272,1790.088989 795.105347,1774.077393 
z"/>
<path fill="#F8FAFB" opacity="1.000000" stroke="none" 
	d="
M1688.245605,1870.385254 
	C1685.624512,1860.339111 1687.229492,1851.522339 1693.671143,1843.777954 
	C1703.513306,1831.945312 1721.681030,1831.927979 1731.659424,1844.007812 
	C1739.277954,1853.230835 1740.278809,1863.743896 1735.183105,1874.392944 
	C1730.458862,1884.265625 1722.242188,1889.544922 1711.110474,1888.879150 
	C1699.490112,1888.184326 1692.405518,1881.260986 1688.245605,1870.385254 
M1722.385254,1846.035400 
	C1715.415405,1841.541016 1707.772705,1843.313599 1700.001953,1843.071655 
	C1700.001953,1849.622314 1700.001953,1855.585938 1700.001953,1861.549561 
	C1700.001953,1867.465576 1700.001953,1873.381592 1700.001953,1879.291992 
	C1702.427246,1879.291992 1704.152222,1879.291992 1706.294800,1879.291992 
	C1706.294800,1874.494629 1706.294800,1870.055786 1706.294800,1864.660522 
	C1710.310059,1865.208862 1715.383789,1864.450317 1716.947266,1866.444458 
	C1719.497559,1869.696777 1719.757202,1874.744995 1721.069458,1879.336670 
	C1722.271729,1879.336670 1724.000000,1879.336670 1726.347656,1879.336670 
	C1724.826050,1873.262085 1727.812256,1866.551758 1721.266357,1862.410767 
	C1727.161011,1856.532837 1727.510620,1852.659180 1722.385254,1846.035400 
z"/>
<path fill="#219BD7" opacity="1.000000" stroke="none" 
	d="
M1722.672607,1846.291748 
	C1727.510620,1852.659180 1727.161011,1856.532837 1721.266357,1862.410767 
	C1727.812256,1866.551758 1724.826050,1873.262085 1726.347656,1879.336670 
	C1724.000000,1879.336670 1722.271729,1879.336670 1721.069458,1879.336670 
	C1719.757202,1874.744995 1719.497559,1869.696777 1716.947266,1866.444458 
	C1715.383789,1864.450317 1710.310059,1865.208862 1706.294800,1864.660522 
	C1706.294800,1870.055786 1706.294800,1874.494629 1706.294800,1879.291992 
	C1704.152222,1879.291992 1702.427246,1879.291992 1700.001953,1879.291992 
	C1700.001953,1873.381592 1700.001953,1867.465576 1700.001953,1861.549561 
	C1700.001953,1855.585938 1700.001953,1849.622314 1700.001953,1843.071655 
	C1707.772705,1843.313599 1715.415405,1841.541016 1722.672607,1846.291748 
M1706.180542,1855.279907 
	C1706.654541,1856.728271 1707.263550,1859.461914 1707.582031,1859.428467 
	C1711.243530,1859.043823 1715.300659,1859.031494 1718.369385,1857.328735 
	C1721.587524,1855.542969 1720.058228,1850.057251 1716.244385,1849.269653 
	C1713.123657,1848.625000 1709.825562,1848.838989 1706.180420,1848.650269 
	C1706.180420,1851.111450 1706.180420,1852.745117 1706.180542,1855.279907 
z"/>
<path fill="#F1F6FA" opacity="1.000000" stroke="none" 
	d="
M1706.180420,1854.829346 
	C1706.180420,1852.745117 1706.180420,1851.111450 1706.180420,1848.650269 
	C1709.825562,1848.838989 1713.123657,1848.625000 1716.244385,1849.269653 
	C1720.058228,1850.057251 1721.587524,1855.542969 1718.369385,1857.328735 
	C1715.300659,1859.031494 1711.243530,1859.043823 1707.582031,1859.428467 
	C1707.263550,1859.461914 1706.654541,1856.728271 1706.180420,1854.829346 
z"/>
</svg>